<?xml version="1.0" encoding="UTF-8" standalone="no"?><svg xmlns="http://www.w3.org/2000/svg" xmlns:xlink="http://www.w3.org/1999/xlink" contentStyleType="text/css" height="1757px" preserveAspectRatio="none" style="width:1079px;height:1757px;background:#FFFFFF;" version="1.1" viewBox="0 0 1079 1757" width="1079px" zoomAndPan="magnify"><defs><linearGradient id="gxnkhy5wo5r5w0" x1="50%" x2="50%" y1="0%" y2="100%"><stop offset="0%" stop-color="#00FFFF"/><stop offset="100%" stop-color="#5F9EA0"/></linearGradient></defs><g><rect fill="url(#gxnkhy5wo5r5w0)" height="60.3125" id="_title" rx="7.5" ry="7.5" style="stroke:#FF0000;stroke-width:2.0;" width="1061" x="5" y="5"/><text fill="#000000" font-family="sans-serif" font-size="40" font-weight="bold" lengthAdjust="spacing" textLength="1051" x="10" y="51.5234">Appendix H - GameScreen Class Composition Relations</text><!--MD5=[52537726a308ea51c89174d2bb4d21b2]
cluster com.mygdx.game.game.screens.game--><g id="cluster_com.mygdx.game.game.screens.game"><path d="M393.5,77.3125 L659.5,77.3125 A3.75,3.75 0 0 1 662,79.8125 L669,100.9219 L744.5,100.9219 A2.5,2.5 0 0 1 747,103.4219 L747,579.8125 A2.5,2.5 0 0 1 744.5,582.3125 L393.5,582.3125 A2.5,2.5 0 0 1 391,579.8125 L391,79.8125 A2.5,2.5 0 0 1 393.5,77.3125 " fill="none" style="stroke:#000000;stroke-width:1.5;"/><line style="stroke:#000000;stroke-width:1.5;" x1="391" x2="669" y1="100.9219" y2="100.9219"/><text fill="#000000" font-family="sans-serif" font-size="14" font-weight="bold" lengthAdjust="spacing" textLength="265" x="395" y="93.8457">com.mygdx.game.game.screens.game</text></g><!--MD5=[f5720f8f2d84faa53b7e58c13b303426]
cluster com.mygdx.game.engine.lifecycle--><g id="cluster_com.mygdx.game.engine.lifecycle"><path d="M70.5,1139.8125 L306.5,1139.8125 A3.75,3.75 0 0 1 309,1142.3125 L316,1163.4219 L385.5,1163.4219 A2.5,2.5 0 0 1 388,1165.9219 L388,1642.3125 A2.5,2.5 0 0 1 385.5,1644.8125 L70.5,1644.8125 A2.5,2.5 0 0 1 68,1642.3125 L68,1142.3125 A2.5,2.5 0 0 1 70.5,1139.8125 " fill="none" style="stroke:#000000;stroke-width:1.5;"/><line style="stroke:#000000;stroke-width:1.5;" x1="68" x2="316" y1="1163.4219" y2="1163.4219"/><text fill="#000000" font-family="sans-serif" font-size="14" font-weight="bold" lengthAdjust="spacing" textLength="235" x="72" y="1156.3457">com.mygdx.game.engine.lifecycle</text></g><!--MD5=[683aabdc962ad2ab98ef14c38ed732ec]
cluster com.mygdx.game.game.components.ui--><g id="cluster_com.mygdx.game.game.components.ui"><path d="M428.5,1034.3125 L699.5,1034.3125 A3.75,3.75 0 0 1 702,1036.8125 L709,1057.9219 L709.5,1057.9219 A2.5,2.5 0 0 1 712,1060.4219 L712,1747.8125 A2.5,2.5 0 0 1 709.5,1750.3125 L428.5,1750.3125 A2.5,2.5 0 0 1 426,1747.8125 L426,1036.8125 A2.5,2.5 0 0 1 428.5,1034.3125 " fill="none" style="stroke:#000000;stroke-width:1.5;"/><line style="stroke:#000000;stroke-width:1.5;" x1="426" x2="709" y1="1057.9219" y2="1057.9219"/><text fill="#000000" font-family="sans-serif" font-size="14" font-weight="bold" lengthAdjust="spacing" textLength="270" x="430" y="1050.8457">com.mygdx.game.game.components.ui</text></g><!--MD5=[6d572adab93e1a2768c068c53f7d318b]
cluster com.mygdx.game.engine.input--><g id="cluster_com.mygdx.game.engine.input"><path d="M752.5,1254.3125 L966.5,1254.3125 A3.75,3.75 0 0 1 969,1256.8125 L976,1277.9219 L1013.5,1277.9219 A2.5,2.5 0 0 1 1016,1280.4219 L1016,1527.8125 A2.5,2.5 0 0 1 1013.5,1530.3125 L752.5,1530.3125 A2.5,2.5 0 0 1 750,1527.8125 L750,1256.8125 A2.5,2.5 0 0 1 752.5,1254.3125 " fill="none" style="stroke:#000000;stroke-width:1.5;"/><line style="stroke:#000000;stroke-width:1.5;" x1="750" x2="976" y1="1277.9219" y2="1277.9219"/><text fill="#000000" font-family="sans-serif" font-size="14" font-weight="bold" lengthAdjust="spacing" textLength="213" x="754" y="1270.8457">com.mygdx.game.engine.input</text></g><!--MD5=[b51c172e19f4a8706ed1ac1c854b767f]
class com.mygdx.game.game.screens.game.GameScreen--><g id="elem_com.mygdx.game.game.screens.game.GameScreen"><rect codeLine="15" fill="#F1F1F1" height="453.0156" id="com.mygdx.game.game.screens.game.GameScreen" rx="2.5" ry="2.5" style="stroke:#181818;stroke-width:0.5;" width="323" x="407.5" y="113.3125"/><ellipse cx="523.25" cy="129.3125" fill="#ADD1B2" rx="11" ry="11" style="stroke:#181818;stroke-width:1.0;"/><path d="M525.25,125.8125 Q525.4531,125.3125 525.6875,125.0625 Q525.9219,124.8125 526.1875,124.8125 Q526.6563,124.8125 526.9531,125.0938 Q527.25,125.375 527.25,126.0313 L527.25,127.5938 Q527.25,128.25 526.9688,128.5313 Q526.6875,128.8125 526.25,128.8125 Q525.8594,128.8125 525.6094,128.6406 Q525.3594,128.4688 525.25,128.0156 Q525.2031,127.7031 525.0313,127.5313 Q524.7188,127.2031 524.1563,127.0156 Q523.5938,126.8125 523.0313,126.8125 Q522.3281,126.8125 521.7344,127.0938 Q521.1563,127.375 520.7031,128 Q520.25,128.625 520.25,129.4844 L520.25,130.4063 Q520.25,131.4375 521.0938,132.125 Q521.9375,132.8125 523.4375,132.8125 Q524.3281,132.8125 524.9531,132.6094 Q525.3125,132.5 525.7188,132.1406 Q525.9844,131.9375 526.125,131.875 Q526.2656,131.8125 526.4375,131.8125 Q526.7656,131.8125 527,132.0781 Q527.25,132.3281 527.25,132.6875 Q527.25,133.0313 526.9063,133.4375 Q526.4063,134.0313 525.6094,134.3594 Q524.5625,134.8125 523.2813,134.8125 Q521.7813,134.8125 520.5781,134.2188 Q519.6094,133.75 518.9219,132.7344 Q518.25,131.7188 518.25,130.5156 L518.25,129.4219 Q518.25,128.1719 518.8438,127.0781 Q519.4531,125.9844 520.5,125.4063 Q521.5625,124.8125 522.75,124.8125 Q523.4688,124.8125 524.0938,125.0625 Q524.7188,125.3125 525.25,125.8125 Z " fill="#000000"/><text fill="#000000" font-family="sans-serif" font-size="14" lengthAdjust="spacing" textLength="83" x="543.75" y="135.041">GameScreen</text><line style="stroke:#181818;stroke-width:0.5;" x1="408.5" x2="729.5" y1="145.3125" y2="145.3125"/><rect fill="none" height="6" style="stroke:#C82930;stroke-width:1.0;" width="6" x="415.5" y="156.6172"/><text fill="#000000" font-family="sans-serif" font-size="14" lengthAdjust="spacing" textLength="69" x="427.5" y="163.8457">Main game</text><rect fill="none" height="6" style="stroke:#C82930;stroke-width:1.0;" width="6" x="415.5" y="174.2266"/><text fill="#000000" font-family="sans-serif" font-size="14" lengthAdjust="spacing" textLength="125" x="427.5" y="181.4551">Button pauseButton</text><rect fill="none" height="6" style="stroke:#C82930;stroke-width:1.0;" width="6" x="415.5" y="191.8359"/><text fill="#000000" font-family="sans-serif" font-size="14" lengthAdjust="spacing" textLength="184" x="427.5" y="199.0645">OrthographicCamera camera</text><rect fill="none" height="6" style="stroke:#C82930;stroke-width:1.0;" width="6" x="415.5" y="209.4453"/><text fill="#000000" font-family="sans-serif" font-size="14" lengthAdjust="spacing" textLength="242" x="427.5" y="216.6738">CustomInputProcessor inputProcessor</text><rect fill="none" height="6" style="stroke:#C82930;stroke-width:1.0;" width="6" x="415.5" y="227.0547"/><text fill="#000000" font-family="sans-serif" font-size="14" lengthAdjust="spacing" textLength="110" x="427.5" y="234.2832">Viewport viewport</text><rect fill="none" height="6" style="stroke:#C82930;stroke-width:1.0;" width="6" x="415.5" y="244.6641"/><text fill="#000000" font-family="sans-serif" font-size="14" lengthAdjust="spacing" textLength="131" x="427.5" y="251.8926">GamePlay gamePlay</text><rect fill="none" height="6" style="stroke:#C82930;stroke-width:1.0;" width="6" x="415.5" y="262.2734"/><text fill="#000000" font-family="sans-serif" font-size="14" lengthAdjust="spacing" textLength="141" x="427.5" y="269.502">float buttonShowDelay</text><rect fill="none" height="6" style="stroke:#C82930;stroke-width:1.0;" width="6" x="415.5" y="279.8828"/><text fill="#000000" font-family="sans-serif" font-size="14" lengthAdjust="spacing" textLength="180" x="427.5" y="287.1113">Timer.Task buttonShowTask</text><rect fill="none" height="6" style="stroke:#C82930;stroke-width:1.0;" width="6" x="415.5" y="297.4922"/><text fill="#000000" font-family="sans-serif" font-size="14" lengthAdjust="spacing" textLength="112" x="427.5" y="304.7207">SpriteBatch batch</text><line style="stroke:#181818;stroke-width:0.5;" x1="408.5" x2="729.5" y1="311.7969" y2="311.7969"/><ellipse cx="418.5" cy="326.1016" fill="#84BE84" rx="3" ry="3" style="stroke:#038048;stroke-width:1.0;"/><text fill="#000000" font-family="sans-serif" font-size="14" lengthAdjust="spacing" textLength="143" x="427.5" y="330.3301">SpriteBatch getBatch()</text><ellipse cx="418.5" cy="343.7109" fill="#84BE84" rx="3" ry="3" style="stroke:#038048;stroke-width:1.0;"/><text fill="#000000" font-family="sans-serif" font-size="14" lengthAdjust="spacing" textLength="168" x="427.5" y="347.9395">void setBatch(SpriteBatch)</text><ellipse cx="418.5" cy="361.3203" fill="#84BE84" rx="3" ry="3" style="stroke:#038048;stroke-width:1.0;"/><text fill="#000000" font-family="sans-serif" font-size="14" lengthAdjust="spacing" textLength="156" x="427.5" y="365.5488">Button getPauseButton()</text><ellipse cx="418.5" cy="378.9297" fill="#84BE84" rx="3" ry="3" style="stroke:#038048;stroke-width:1.0;"/><text fill="#000000" font-family="sans-serif" font-size="14" lengthAdjust="spacing" textLength="181" x="427.5" y="383.1582">void setPauseButton(Button)</text><ellipse cx="418.5" cy="396.5391" fill="#84BE84" rx="3" ry="3" style="stroke:#038048;stroke-width:1.0;"/><text fill="#000000" font-family="sans-serif" font-size="14" lengthAdjust="spacing" textLength="272" x="427.5" y="400.7676">CustomInputProcessor getInputProcessor()</text><ellipse cx="418.5" cy="414.1484" fill="#84BE84" rx="3" ry="3" style="stroke:#038048;stroke-width:1.0;"/><text fill="#000000" font-family="sans-serif" font-size="14" lengthAdjust="spacing" textLength="297" x="427.5" y="418.377">void setInputProcessor(CustomInputProcessor)</text><ellipse cx="418.5" cy="431.7578" fill="#84BE84" rx="3" ry="3" style="stroke:#038048;stroke-width:1.0;"/><text fill="#000000" font-family="sans-serif" font-size="14" lengthAdjust="spacing" textLength="72" x="427.5" y="435.9863">void show()</text><ellipse cx="418.5" cy="449.3672" fill="#84BE84" rx="3" ry="3" style="stroke:#038048;stroke-width:1.0;"/><text fill="#000000" font-family="sans-serif" font-size="14" lengthAdjust="spacing" textLength="109" x="427.5" y="453.5957">void render(float)</text><ellipse cx="418.5" cy="466.9766" fill="#84BE84" rx="3" ry="3" style="stroke:#038048;stroke-width:1.0;"/><text fill="#000000" font-family="sans-serif" font-size="14" lengthAdjust="spacing" textLength="111" x="427.5" y="471.2051">void resize(int,int)</text><ellipse cx="418.5" cy="484.5859" fill="#84BE84" rx="3" ry="3" style="stroke:#038048;stroke-width:1.0;"/><text fill="#000000" font-family="sans-serif" font-size="14" lengthAdjust="spacing" textLength="79" x="427.5" y="488.8145">void pause()</text><ellipse cx="418.5" cy="502.1953" fill="#84BE84" rx="3" ry="3" style="stroke:#038048;stroke-width:1.0;"/><text fill="#000000" font-family="sans-serif" font-size="14" lengthAdjust="spacing" textLength="87" x="427.5" y="506.4238">void resume()</text><ellipse cx="418.5" cy="519.8047" fill="#84BE84" rx="3" ry="3" style="stroke:#038048;stroke-width:1.0;"/><text fill="#000000" font-family="sans-serif" font-size="14" lengthAdjust="spacing" textLength="67" x="427.5" y="524.0332">void hide()</text><ellipse cx="418.5" cy="537.4141" fill="#84BE84" rx="3" ry="3" style="stroke:#038048;stroke-width:1.0;"/><text fill="#000000" font-family="sans-serif" font-size="14" lengthAdjust="spacing" textLength="63" x="427.5" y="541.6426">void quit()</text><ellipse cx="418.5" cy="555.0234" fill="#84BE84" rx="3" ry="3" style="stroke:#038048;stroke-width:1.0;"/><text fill="#000000" font-family="sans-serif" font-size="14" lengthAdjust="spacing" textLength="89" x="427.5" y="559.252">void dispose()</text></g><!--MD5=[533628e9c9f667eb08bf66ebfc75b243]
class com.mygdx.game.engine.lifecycle.Main--><g id="elem_com.mygdx.game.engine.lifecycle.Main"><rect codeLine="41" fill="#F1F1F1" height="453.0156" id="com.mygdx.game.engine.lifecycle.Main" rx="2.5" ry="2.5" style="stroke:#181818;stroke-width:0.5;" width="287" x="84.5" y="1175.8125"/><ellipse cx="208.75" cy="1191.8125" fill="#ADD1B2" rx="11" ry="11" style="stroke:#181818;stroke-width:1.0;"/><path d="M210.75,1188.3125 Q210.9531,1187.8125 211.1875,1187.5625 Q211.4219,1187.3125 211.6875,1187.3125 Q212.1563,1187.3125 212.4531,1187.5938 Q212.75,1187.875 212.75,1188.5313 L212.75,1190.0938 Q212.75,1190.75 212.4688,1191.0313 Q212.1875,1191.3125 211.75,1191.3125 Q211.3594,1191.3125 211.1094,1191.1406 Q210.8594,1190.9688 210.75,1190.5156 Q210.7031,1190.2031 210.5313,1190.0313 Q210.2188,1189.7031 209.6563,1189.5156 Q209.0938,1189.3125 208.5313,1189.3125 Q207.8281,1189.3125 207.2344,1189.5938 Q206.6563,1189.875 206.2031,1190.5 Q205.75,1191.125 205.75,1191.9844 L205.75,1192.9063 Q205.75,1193.9375 206.5938,1194.625 Q207.4375,1195.3125 208.9375,1195.3125 Q209.8281,1195.3125 210.4531,1195.1094 Q210.8125,1195 211.2188,1194.6406 Q211.4844,1194.4375 211.625,1194.375 Q211.7656,1194.3125 211.9375,1194.3125 Q212.2656,1194.3125 212.5,1194.5781 Q212.75,1194.8281 212.75,1195.1875 Q212.75,1195.5313 212.4063,1195.9375 Q211.9063,1196.5313 211.1094,1196.8594 Q210.0625,1197.3125 208.7813,1197.3125 Q207.2813,1197.3125 206.0781,1196.7188 Q205.1094,1196.25 204.4219,1195.2344 Q203.75,1194.2188 203.75,1193.0156 L203.75,1191.9219 Q203.75,1190.6719 204.3438,1189.5781 Q204.9531,1188.4844 206,1187.9063 Q207.0625,1187.3125 208.25,1187.3125 Q208.9688,1187.3125 209.5938,1187.5625 Q210.2188,1187.8125 210.75,1188.3125 Z " fill="#000000"/><text fill="#000000" font-family="sans-serif" font-size="14" lengthAdjust="spacing" textLength="30" x="229.25" y="1197.541">Main</text><line style="stroke:#181818;stroke-width:0.5;" x1="85.5" x2="370.5" y1="1207.8125" y2="1207.8125"/><rect fill="none" height="6" style="stroke:#C82930;stroke-width:1.0;" width="6" x="92.5" y="1219.1172"/><text fill="#000000" font-family="sans-serif" font-size="14" lengthAdjust="spacing" text-decoration="underline" textLength="87" x="104.5" y="1226.3457">Main instance</text><rect fill="none" height="6" style="stroke:#C82930;stroke-width:1.0;" width="6" x="92.5" y="1236.7266"/><text fill="#000000" font-family="sans-serif" font-size="14" lengthAdjust="spacing" textLength="204" x="104.5" y="1243.9551">ScreenManager screenManager</text><rect fill="none" height="6" style="stroke:#C82930;stroke-width:1.0;" width="6" x="92.5" y="1254.3359"/><text fill="#000000" font-family="sans-serif" font-size="14" lengthAdjust="spacing" textLength="113" x="104.5" y="1261.5645">Preferences prefs</text><rect fill="none" height="6" style="stroke:#C82930;stroke-width:1.0;" width="6" x="92.5" y="1271.9453"/><text fill="#000000" font-family="sans-serif" font-size="14" lengthAdjust="spacing" textLength="196" x="104.5" y="1279.1738">SoundManager soundManager</text><ellipse cx="95.5" cy="1292.5547" fill="none" rx="3" ry="3" style="stroke:#038048;stroke-width:1.0;"/><text fill="#000000" font-family="sans-serif" font-size="14" lengthAdjust="spacing" textLength="185" x="104.5" y="1296.7832">EntityManager entityManager</text><rect fill="none" height="6" style="stroke:#C82930;stroke-width:1.0;" width="6" x="92.5" y="1307.1641"/><text fill="#000000" font-family="sans-serif" font-size="14" lengthAdjust="spacing" textLength="112" x="104.5" y="1314.3926">SpriteBatch batch</text><rect fill="none" height="6" style="stroke:#C82930;stroke-width:1.0;" width="6" x="92.5" y="1324.7734"/><text fill="#000000" font-family="sans-serif" font-size="14" lengthAdjust="spacing" textLength="100" x="104.5" y="1332.002">BitmapFont font</text><ellipse cx="95.5" cy="1345.3828" fill="none" rx="3" ry="3" style="stroke:#038048;stroke-width:1.0;"/><text fill="#000000" font-family="sans-serif" font-size="14" lengthAdjust="spacing" textLength="69" x="104.5" y="1349.6113">int HEIGHT</text><ellipse cx="95.5" cy="1362.9922" fill="none" rx="3" ry="3" style="stroke:#038048;stroke-width:1.0;"/><text fill="#000000" font-family="sans-serif" font-size="14" lengthAdjust="spacing" textLength="63" x="104.5" y="1367.2207">int WIDTH</text><line style="stroke:#181818;stroke-width:0.5;" x1="85.5" x2="370.5" y1="1374.2969" y2="1374.2969"/><ellipse cx="95.5" cy="1388.6016" fill="#84BE84" rx="3" ry="3" style="stroke:#038048;stroke-width:1.0;"/><text fill="#000000" font-family="sans-serif" font-size="14" lengthAdjust="spacing" text-decoration="underline" textLength="117" x="104.5" y="1392.8301">Main getInstance()</text><ellipse cx="95.5" cy="1406.2109" fill="#84BE84" rx="3" ry="3" style="stroke:#038048;stroke-width:1.0;"/><text fill="#000000" font-family="sans-serif" font-size="14" lengthAdjust="spacing" textLength="236" x="104.5" y="1410.4395">ScreenManager getScreenManager()</text><ellipse cx="95.5" cy="1423.8203" fill="#84BE84" rx="3" ry="3" style="stroke:#038048;stroke-width:1.0;"/><text fill="#000000" font-family="sans-serif" font-size="14" lengthAdjust="spacing" textLength="261" x="104.5" y="1428.0488">void setScreenManager(ScreenManager)</text><ellipse cx="95.5" cy="1441.4297" fill="#84BE84" rx="3" ry="3" style="stroke:#038048;stroke-width:1.0;"/><text fill="#000000" font-family="sans-serif" font-size="14" lengthAdjust="spacing" textLength="228" x="104.5" y="1445.6582">SoundManager getSoundManager()</text><ellipse cx="95.5" cy="1459.0391" fill="#84BE84" rx="3" ry="3" style="stroke:#038048;stroke-width:1.0;"/><text fill="#000000" font-family="sans-serif" font-size="14" lengthAdjust="spacing" textLength="253" x="104.5" y="1463.2676">void setSoundManager(SoundManager)</text><ellipse cx="95.5" cy="1476.6484" fill="#84BE84" rx="3" ry="3" style="stroke:#038048;stroke-width:1.0;"/><text fill="#000000" font-family="sans-serif" font-size="14" lengthAdjust="spacing" textLength="143" x="104.5" y="1480.877">SpriteBatch getBatch()</text><ellipse cx="95.5" cy="1494.2578" fill="#84BE84" rx="3" ry="3" style="stroke:#038048;stroke-width:1.0;"/><text fill="#000000" font-family="sans-serif" font-size="14" lengthAdjust="spacing" textLength="168" x="104.5" y="1498.4863">void setBatch(SpriteBatch)</text><ellipse cx="95.5" cy="1511.8672" fill="#84BE84" rx="3" ry="3" style="stroke:#038048;stroke-width:1.0;"/><text fill="#000000" font-family="sans-serif" font-size="14" lengthAdjust="spacing" textLength="135" x="104.5" y="1516.0957">BitmapFont getFont()</text><ellipse cx="95.5" cy="1529.4766" fill="#84BE84" rx="3" ry="3" style="stroke:#038048;stroke-width:1.0;"/><text fill="#000000" font-family="sans-serif" font-size="14" lengthAdjust="spacing" textLength="160" x="104.5" y="1533.7051">void setFont(BitmapFont)</text><ellipse cx="95.5" cy="1547.0859" fill="#84BE84" rx="3" ry="3" style="stroke:#038048;stroke-width:1.0;"/><text fill="#000000" font-family="sans-serif" font-size="14" lengthAdjust="spacing" textLength="144" x="104.5" y="1551.3145">Preferences getPrefs()</text><ellipse cx="95.5" cy="1564.6953" fill="#84BE84" rx="3" ry="3" style="stroke:#038048;stroke-width:1.0;"/><text fill="#000000" font-family="sans-serif" font-size="14" lengthAdjust="spacing" textLength="169" x="104.5" y="1568.9238">void setPrefs(Preferences)</text><ellipse cx="95.5" cy="1582.3047" fill="#84BE84" rx="3" ry="3" style="stroke:#038048;stroke-width:1.0;"/><text fill="#000000" font-family="sans-serif" font-size="14" lengthAdjust="spacing" textLength="80" x="104.5" y="1586.5332">void create()</text><ellipse cx="95.5" cy="1599.9141" fill="#84BE84" rx="3" ry="3" style="stroke:#038048;stroke-width:1.0;"/><text fill="#000000" font-family="sans-serif" font-size="14" lengthAdjust="spacing" textLength="82" x="104.5" y="1604.1426">void render()</text><ellipse cx="95.5" cy="1617.5234" fill="#84BE84" rx="3" ry="3" style="stroke:#038048;stroke-width:1.0;"/><text fill="#000000" font-family="sans-serif" font-size="14" lengthAdjust="spacing" textLength="89" x="104.5" y="1621.752">void dispose()</text></g><!--MD5=[3de1ccafbb2233cb7ab977d18c48deb3]
class com.mygdx.game.game.components.ui.Button--><g id="elem_com.mygdx.game.game.components.ui.Button"><rect codeLine="67" fill="#F1F1F1" height="664.3281" id="com.mygdx.game.game.components.ui.Button" rx="2.5" ry="2.5" style="stroke:#181818;stroke-width:0.5;" width="194" x="472" y="1070.3125"/><ellipse cx="544.25" cy="1086.3125" fill="#ADD1B2" rx="11" ry="11" style="stroke:#181818;stroke-width:1.0;"/><path d="M546.25,1082.8125 Q546.4531,1082.3125 546.6875,1082.0625 Q546.9219,1081.8125 547.1875,1081.8125 Q547.6563,1081.8125 547.9531,1082.0938 Q548.25,1082.375 548.25,1083.0313 L548.25,1084.5938 Q548.25,1085.25 547.9688,1085.5313 Q547.6875,1085.8125 547.25,1085.8125 Q546.8594,1085.8125 546.6094,1085.6406 Q546.3594,1085.4688 546.25,1085.0156 Q546.2031,1084.7031 546.0313,1084.5313 Q545.7188,1084.2031 545.1563,1084.0156 Q544.5938,1083.8125 544.0313,1083.8125 Q543.3281,1083.8125 542.7344,1084.0938 Q542.1563,1084.375 541.7031,1085 Q541.25,1085.625 541.25,1086.4844 L541.25,1087.4063 Q541.25,1088.4375 542.0938,1089.125 Q542.9375,1089.8125 544.4375,1089.8125 Q545.3281,1089.8125 545.9531,1089.6094 Q546.3125,1089.5 546.7188,1089.1406 Q546.9844,1088.9375 547.125,1088.875 Q547.2656,1088.8125 547.4375,1088.8125 Q547.7656,1088.8125 548,1089.0781 Q548.25,1089.3281 548.25,1089.6875 Q548.25,1090.0313 547.9063,1090.4375 Q547.4063,1091.0313 546.6094,1091.3594 Q545.5625,1091.8125 544.2813,1091.8125 Q542.7813,1091.8125 541.5781,1091.2188 Q540.6094,1090.75 539.9219,1089.7344 Q539.25,1088.7188 539.25,1087.5156 L539.25,1086.4219 Q539.25,1085.1719 539.8438,1084.0781 Q540.4531,1082.9844 541.5,1082.4063 Q542.5625,1081.8125 543.75,1081.8125 Q544.4688,1081.8125 545.0938,1082.0625 Q545.7188,1082.3125 546.25,1082.8125 Z " fill="#000000"/><text fill="#000000" font-family="sans-serif" font-size="14" lengthAdjust="spacing" textLength="41" x="564.75" y="1092.041">Button</text><line style="stroke:#181818;stroke-width:0.5;" x1="473" x2="665" y1="1102.3125" y2="1102.3125"/><rect fill="none" height="6" style="stroke:#C82930;stroke-width:1.0;" width="6" x="480" y="1113.6172"/><text fill="#000000" font-family="sans-serif" font-size="14" lengthAdjust="spacing" textLength="69" x="492" y="1120.8457">Main game</text><rect fill="none" height="6" style="stroke:#C82930;stroke-width:1.0;" width="6" x="480" y="1131.2266"/><text fill="#000000" font-family="sans-serif" font-size="14" lengthAdjust="spacing" textLength="127" x="492" y="1138.4551">Rectangle rectangle</text><rect fill="none" height="6" style="stroke:#C82930;stroke-width:1.0;" width="6" x="480" y="1148.8359"/><text fill="#000000" font-family="sans-serif" font-size="14" lengthAdjust="spacing" textLength="37" x="492" y="1156.0645">float x</text><rect fill="none" height="6" style="stroke:#C82930;stroke-width:1.0;" width="6" x="480" y="1166.4453"/><text fill="#000000" font-family="sans-serif" font-size="14" lengthAdjust="spacing" textLength="38" x="492" y="1173.6738">float y</text><rect fill="none" height="6" style="stroke:#C82930;stroke-width:1.0;" width="6" x="480" y="1184.0547"/><text fill="#000000" font-family="sans-serif" font-size="14" lengthAdjust="spacing" textLength="63" x="492" y="1191.2832">float width</text><rect fill="none" height="6" style="stroke:#C82930;stroke-width:1.0;" width="6" x="480" y="1201.6641"/><text fill="#000000" font-family="sans-serif" font-size="14" lengthAdjust="spacing" textLength="70" x="492" y="1208.8926">float height</text><rect fill="none" height="6" style="stroke:#C82930;stroke-width:1.0;" width="6" x="480" y="1219.2734"/><text fill="#000000" font-family="sans-serif" font-size="14" lengthAdjust="spacing" textLength="76" x="492" y="1226.502">String name</text><rect fill="none" height="6" style="stroke:#C82930;stroke-width:1.0;" width="6" x="480" y="1236.8828"/><text fill="#000000" font-family="sans-serif" font-size="14" lengthAdjust="spacing" textLength="92" x="492" y="1244.1113">String imgPath</text><rect fill="none" height="6" style="stroke:#C82930;stroke-width:1.0;" width="6" x="480" y="1254.4922"/><text fill="#000000" font-family="sans-serif" font-size="14" lengthAdjust="spacing" textLength="95" x="492" y="1261.7207">Texture texture</text><rect fill="none" height="6" style="stroke:#C82930;stroke-width:1.0;" width="6" x="480" y="1272.1016"/><text fill="#000000" font-family="sans-serif" font-size="14" lengthAdjust="spacing" textLength="112" x="492" y="1279.3301">SpriteBatch batch</text><rect fill="none" height="6" style="stroke:#C82930;stroke-width:1.0;" width="6" x="480" y="1289.7109"/><text fill="#000000" font-family="sans-serif" font-size="14" lengthAdjust="spacing" textLength="103" x="492" y="1296.9395">boolean visibility</text><rect fill="none" height="6" style="stroke:#C82930;stroke-width:1.0;" width="6" x="480" y="1307.3203"/><text fill="#000000" font-family="sans-serif" font-size="14" lengthAdjust="spacing" textLength="76" x="492" y="1314.5488">Sprite sprite</text><rect fill="none" height="6" style="stroke:#C82930;stroke-width:1.0;" width="6" x="480" y="1324.9297"/><text fill="#000000" font-family="sans-serif" font-size="14" lengthAdjust="spacing" textLength="92" x="492" y="1332.1582">boolean active</text><line style="stroke:#181818;stroke-width:0.5;" x1="473" x2="665" y1="1339.2344" y2="1339.2344"/><ellipse cx="483" cy="1353.5391" fill="#84BE84" rx="3" ry="3" style="stroke:#038048;stroke-width:1.0;"/><text fill="#000000" font-family="sans-serif" font-size="14" lengthAdjust="spacing" textLength="130" x="492" y="1357.7676">Texture getTexture()</text><ellipse cx="483" cy="1371.1484" fill="#84BE84" rx="3" ry="3" style="stroke:#038048;stroke-width:1.0;"/><text fill="#000000" font-family="sans-serif" font-size="14" lengthAdjust="spacing" textLength="155" x="492" y="1375.377">void setTexture(Texture)</text><ellipse cx="483" cy="1388.7578" fill="#84BE84" rx="3" ry="3" style="stroke:#038048;stroke-width:1.0;"/><text fill="#000000" font-family="sans-serif" font-size="14" lengthAdjust="spacing" textLength="143" x="492" y="1392.9863">SpriteBatch getBatch()</text><ellipse cx="483" cy="1406.3672" fill="#84BE84" rx="3" ry="3" style="stroke:#038048;stroke-width:1.0;"/><text fill="#000000" font-family="sans-serif" font-size="14" lengthAdjust="spacing" textLength="168" x="492" y="1410.5957">void setBatch(SpriteBatch)</text><ellipse cx="483" cy="1423.9766" fill="#84BE84" rx="3" ry="3" style="stroke:#038048;stroke-width:1.0;"/><text fill="#000000" font-family="sans-serif" font-size="14" lengthAdjust="spacing" textLength="108" x="492" y="1428.2051">Sprite getSprite()</text><ellipse cx="483" cy="1441.5859" fill="#84BE84" rx="3" ry="3" style="stroke:#038048;stroke-width:1.0;"/><text fill="#000000" font-family="sans-serif" font-size="14" lengthAdjust="spacing" textLength="133" x="492" y="1445.8145">void setSprite(Sprite)</text><ellipse cx="483" cy="1459.1953" fill="#84BE84" rx="3" ry="3" style="stroke:#038048;stroke-width:1.0;"/><text fill="#000000" font-family="sans-serif" font-size="14" lengthAdjust="spacing" textLength="135" x="492" y="1463.4238">boolean getVisibility()</text><ellipse cx="483" cy="1476.8047" fill="#84BE84" rx="3" ry="3" style="stroke:#038048;stroke-width:1.0;"/><text fill="#000000" font-family="sans-serif" font-size="14" lengthAdjust="spacing" textLength="160" x="492" y="1481.0332">void setVisibility(boolean)</text><ellipse cx="483" cy="1494.4141" fill="#84BE84" rx="3" ry="3" style="stroke:#038048;stroke-width:1.0;"/><text fill="#000000" font-family="sans-serif" font-size="14" lengthAdjust="spacing" textLength="113" x="492" y="1498.6426">boolean isActive()</text><ellipse cx="483" cy="1512.0234" fill="#84BE84" rx="3" ry="3" style="stroke:#038048;stroke-width:1.0;"/><text fill="#000000" font-family="sans-serif" font-size="14" lengthAdjust="spacing" textLength="148" x="492" y="1516.252">void setActive(boolean)</text><ellipse cx="483" cy="1529.6328" fill="#84BE84" rx="3" ry="3" style="stroke:#038048;stroke-width:1.0;"/><text fill="#000000" font-family="sans-serif" font-size="14" lengthAdjust="spacing" textLength="168" x="492" y="1533.8613">void setButtonColor(Color)</text><ellipse cx="483" cy="1547.2422" fill="#84BE84" rx="3" ry="3" style="stroke:#038048;stroke-width:1.0;"/><text fill="#000000" font-family="sans-serif" font-size="14" lengthAdjust="spacing" textLength="69" x="492" y="1551.4707">float getX()</text><ellipse cx="483" cy="1564.8516" fill="#84BE84" rx="3" ry="3" style="stroke:#038048;stroke-width:1.0;"/><text fill="#000000" font-family="sans-serif" font-size="14" lengthAdjust="spacing" textLength="94" x="492" y="1569.0801">void setX(float)</text><ellipse cx="483" cy="1582.4609" fill="#84BE84" rx="3" ry="3" style="stroke:#038048;stroke-width:1.0;"/><text fill="#000000" font-family="sans-serif" font-size="14" lengthAdjust="spacing" textLength="70" x="492" y="1586.6895">float getY()</text><ellipse cx="483" cy="1600.0703" fill="#84BE84" rx="3" ry="3" style="stroke:#038048;stroke-width:1.0;"/><text fill="#000000" font-family="sans-serif" font-size="14" lengthAdjust="spacing" textLength="95" x="492" y="1604.2988">void setY(float)</text><ellipse cx="483" cy="1617.6797" fill="#84BE84" rx="3" ry="3" style="stroke:#038048;stroke-width:1.0;"/><text fill="#000000" font-family="sans-serif" font-size="14" lengthAdjust="spacing" textLength="97" x="492" y="1621.9082">float getWidth()</text><ellipse cx="483" cy="1635.2891" fill="#84BE84" rx="3" ry="3" style="stroke:#038048;stroke-width:1.0;"/><text fill="#000000" font-family="sans-serif" font-size="14" lengthAdjust="spacing" textLength="122" x="492" y="1639.5176">void setWidth(float)</text><ellipse cx="483" cy="1652.8984" fill="#84BE84" rx="3" ry="3" style="stroke:#038048;stroke-width:1.0;"/><text fill="#000000" font-family="sans-serif" font-size="14" lengthAdjust="spacing" textLength="101" x="492" y="1657.127">float getHeight()</text><ellipse cx="483" cy="1670.5078" fill="#84BE84" rx="3" ry="3" style="stroke:#038048;stroke-width:1.0;"/><text fill="#000000" font-family="sans-serif" font-size="14" lengthAdjust="spacing" textLength="126" x="492" y="1674.7363">void setHeight(float)</text><ellipse cx="483" cy="1688.1172" fill="#84BE84" rx="3" ry="3" style="stroke:#038048;stroke-width:1.0;"/><text fill="#000000" font-family="sans-serif" font-size="14" lengthAdjust="spacing" textLength="107" x="492" y="1692.3457">String getName()</text><ellipse cx="483" cy="1705.7266" fill="#84BE84" rx="3" ry="3" style="stroke:#038048;stroke-width:1.0;"/><text fill="#000000" font-family="sans-serif" font-size="14" lengthAdjust="spacing" textLength="132" x="492" y="1709.9551">void setName(String)</text><ellipse cx="483" cy="1723.3359" fill="#84BE84" rx="3" ry="3" style="stroke:#038048;stroke-width:1.0;"/><text fill="#000000" font-family="sans-serif" font-size="14" lengthAdjust="spacing" textLength="139" x="492" y="1727.5645">Rectangle getBound()</text></g><!--MD5=[e28b97f13ebe0e0d0e1b4a0418369900]
class com.mygdx.game.engine.input.CustomInputProcessor--><g id="elem_com.mygdx.game.engine.input.CustomInputProcessor"><rect codeLine="105" fill="#F1F1F1" height="224.0938" id="com.mygdx.game.engine.input.CustomInputProcessor" rx="2.5" ry="2.5" style="stroke:#181818;stroke-width:0.5;" width="234" x="766" y="1290.3125"/><ellipse cx="807.55" cy="1306.3125" fill="#ADD1B2" rx="11" ry="11" style="stroke:#181818;stroke-width:1.0;"/><path d="M809.55,1302.8125 Q809.7531,1302.3125 809.9875,1302.0625 Q810.2219,1301.8125 810.4875,1301.8125 Q810.9563,1301.8125 811.2531,1302.0938 Q811.55,1302.375 811.55,1303.0313 L811.55,1304.5938 Q811.55,1305.25 811.2688,1305.5313 Q810.9875,1305.8125 810.55,1305.8125 Q810.1594,1305.8125 809.9094,1305.6406 Q809.6594,1305.4688 809.55,1305.0156 Q809.5031,1304.7031 809.3313,1304.5313 Q809.0188,1304.2031 808.4563,1304.0156 Q807.8938,1303.8125 807.3313,1303.8125 Q806.6281,1303.8125 806.0344,1304.0938 Q805.4563,1304.375 805.0031,1305 Q804.55,1305.625 804.55,1306.4844 L804.55,1307.4063 Q804.55,1308.4375 805.3938,1309.125 Q806.2375,1309.8125 807.7375,1309.8125 Q808.6281,1309.8125 809.2531,1309.6094 Q809.6125,1309.5 810.0188,1309.1406 Q810.2844,1308.9375 810.425,1308.875 Q810.5656,1308.8125 810.7375,1308.8125 Q811.0656,1308.8125 811.3,1309.0781 Q811.55,1309.3281 811.55,1309.6875 Q811.55,1310.0313 811.2063,1310.4375 Q810.7063,1311.0313 809.9094,1311.3594 Q808.8625,1311.8125 807.5813,1311.8125 Q806.0813,1311.8125 804.8781,1311.2188 Q803.9094,1310.75 803.2219,1309.7344 Q802.55,1308.7188 802.55,1307.5156 L802.55,1306.4219 Q802.55,1305.1719 803.1438,1304.0781 Q803.7531,1302.9844 804.8,1302.4063 Q805.8625,1301.8125 807.05,1301.8125 Q807.7688,1301.8125 808.3938,1302.0625 Q809.0188,1302.3125 809.55,1302.8125 Z " fill="#000000"/><text fill="#000000" font-family="sans-serif" font-size="14" lengthAdjust="spacing" textLength="143" x="827.45" y="1312.041">CustomInputProcessor</text><line style="stroke:#181818;stroke-width:0.5;" x1="767" x2="999" y1="1322.3125" y2="1322.3125"/><line style="stroke:#181818;stroke-width:0.5;" x1="767" x2="999" y1="1330.3125" y2="1330.3125"/><ellipse cx="777" cy="1344.6172" fill="#84BE84" rx="3" ry="3" style="stroke:#038048;stroke-width:1.0;"/><text fill="#000000" font-family="sans-serif" font-size="14" lengthAdjust="spacing" textLength="168" x="786" y="1348.8457">boolean mouseClicked(int)</text><ellipse cx="777" cy="1362.2266" fill="#84BE84" rx="3" ry="3" style="stroke:#038048;stroke-width:1.0;"/><text fill="#000000" font-family="sans-serif" font-size="14" lengthAdjust="spacing" textLength="137" x="786" y="1366.4551">boolean keyDown(int)</text><ellipse cx="777" cy="1379.8359" fill="#84BE84" rx="3" ry="3" style="stroke:#038048;stroke-width:1.0;"/><text fill="#000000" font-family="sans-serif" font-size="14" lengthAdjust="spacing" textLength="119" x="786" y="1384.0645">boolean keyUp(int)</text><ellipse cx="777" cy="1397.4453" fill="#84BE84" rx="3" ry="3" style="stroke:#038048;stroke-width:1.0;"/><text fill="#000000" font-family="sans-serif" font-size="14" lengthAdjust="spacing" textLength="155" x="786" y="1401.6738">boolean keyTyped(char)</text><ellipse cx="777" cy="1415.0547" fill="#84BE84" rx="3" ry="3" style="stroke:#038048;stroke-width:1.0;"/><text fill="#000000" font-family="sans-serif" font-size="14" lengthAdjust="spacing" textLength="207" x="786" y="1419.2832">boolean touchDown(int,int,int,int)</text><ellipse cx="777" cy="1432.6641" fill="#84BE84" rx="3" ry="3" style="stroke:#038048;stroke-width:1.0;"/><text fill="#000000" font-family="sans-serif" font-size="14" lengthAdjust="spacing" textLength="189" x="786" y="1436.8926">boolean touchUp(int,int,int,int)</text><ellipse cx="777" cy="1450.2734" fill="#84BE84" rx="3" ry="3" style="stroke:#038048;stroke-width:1.0;"/><text fill="#000000" font-family="sans-serif" font-size="14" lengthAdjust="spacing" textLength="208" x="786" y="1454.502">boolean touchDragged(int,int,int)</text><ellipse cx="777" cy="1467.8828" fill="#84BE84" rx="3" ry="3" style="stroke:#038048;stroke-width:1.0;"/><text fill="#000000" font-family="sans-serif" font-size="14" lengthAdjust="spacing" textLength="183" x="786" y="1472.1113">boolean mouseMoved(int,int)</text><ellipse cx="777" cy="1485.4922" fill="#84BE84" rx="3" ry="3" style="stroke:#038048;stroke-width:1.0;"/><text fill="#000000" font-family="sans-serif" font-size="14" lengthAdjust="spacing" textLength="172" x="786" y="1489.7207">boolean scrolled(float,float)</text><ellipse cx="777" cy="1503.1016" fill="#84BE84" rx="3" ry="3" style="stroke:#038048;stroke-width:1.0;"/><text fill="#000000" font-family="sans-serif" font-size="14" lengthAdjust="spacing" textLength="184" x="786" y="1507.3301">boolean mouseHoverOver(T)</text></g><!--MD5=[57d1ad5d2ef6c579eafb8173e0b00786]
reverse link com.mygdx.game.game.screens.game.GameScreen to com.mygdx.game.engine.lifecycle.Main--><g id="link_com.mygdx.game.game.screens.game.GameScreen_com.mygdx.game.engine.lifecycle.Main"><path codeLine="118" d="M439.75,579.4425 C439.75,579.4425 439.75,1402.3125 439.75,1402.3125 C439.75,1402.3125 409.35,1402.3125 371.59,1402.3125 " fill="none" id="com.mygdx.game.game.screens.game.GameScreen-backto-com.mygdx.game.engine.lifecycle.Main" style="stroke:#181818;stroke-width:1.0;"/><polygon fill="#181818" points="439.75,566.4425,435.75,572.4425,439.75,578.4425,443.75,572.4425,439.75,566.4425" style="stroke:#181818;stroke-width:1.0;"/><text fill="#000000" font-family="sans-serif" font-size="13" lengthAdjust="spacing" textLength="21" x="417.75" y="1021.4576">has</text></g><!--MD5=[b918ad2b7f1206b9f1f6e1a8f9e7d232]
reverse link com.mygdx.game.game.screens.game.GameScreen to com.mygdx.game.game.components.ui.Button--><g id="link_com.mygdx.game.game.screens.game.GameScreen_com.mygdx.game.game.components.ui.Button"><path codeLine="119" d="M569,579.4425 C569,579.4425 569,1070.1125 569,1070.1125 " fill="none" id="com.mygdx.game.game.screens.game.GameScreen-backto-com.mygdx.game.game.components.ui.Button" style="stroke:#181818;stroke-width:1.0;"/><polygon fill="#181818" points="569,566.4425,565,572.4425,569,578.4425,573,572.4425,569,566.4425" style="stroke:#181818;stroke-width:1.0;"/><text fill="#000000" font-family="sans-serif" font-size="13" lengthAdjust="spacing" textLength="21" x="547" y="821.2776">has</text></g><!--MD5=[041770624a2f63266447ff2ed7e86a20]
reverse link com.mygdx.game.game.screens.game.GameScreen to com.mygdx.game.engine.input.CustomInputProcessor--><g id="link_com.mygdx.game.game.screens.game.GameScreen_com.mygdx.game.engine.input.CustomInputProcessor"><path codeLine="120" d="M698.25,579.4425 C698.25,579.4425 698.25,1402.3125 698.25,1402.3125 C698.25,1402.3125 729.33,1402.3125 766,1402.3125 " fill="none" id="com.mygdx.game.game.screens.game.GameScreen-backto-com.mygdx.game.engine.input.CustomInputProcessor" style="stroke:#181818;stroke-width:1.0;"/><polygon fill="#181818" points="698.25,566.4425,694.25,572.4425,698.25,578.4425,702.25,572.4425,698.25,566.4425" style="stroke:#181818;stroke-width:1.0;"/><text fill="#000000" font-family="sans-serif" font-size="13" lengthAdjust="spacing" textLength="21" x="676.25" y="1021.2476">has</text></g><!--MD5=[c88965c0ce8f6ef63dd1d2d80b66b8a4]
@startuml
skinparam linetype polyline
skinparam linetype ortho

skinparam nodesep 100
skinparam ranksep 100

skinparam titleBorderRoundCorner 15
skinparam titleBorderThickness 2
skinparam titleBorderColor red
skinparam titleBackgroundColor Aqua-CadetBlue
skinparam TitleFontSize 40

title Appendix H - GameScreen Class Composition Relations

class com.mygdx.game.game.screens.game.GameScreen {
- Main game
- Button pauseButton
- OrthographicCamera camera
- CustomInputProcessor inputProcessor
- Viewport viewport
- GamePlay gamePlay
- float buttonShowDelay
- Timer.Task buttonShowTask
- SpriteBatch batch
+ SpriteBatch getBatch()
+ void setBatch(SpriteBatch)
+ Button getPauseButton()
+ void setPauseButton(Button)
+ CustomInputProcessor getInputProcessor()
+ void setInputProcessor(CustomInputProcessor)
+ void show()
+ void render(float)
+ void resize(int,int)
+ void pause()
+ void resume()
+ void hide()
+ void quit()
+ void dispose()
}

class com.mygdx.game.engine.lifecycle.Main {
- {static} Main instance
- ScreenManager screenManager
- Preferences prefs
- SoundManager soundManager
+ EntityManager entityManager
- SpriteBatch batch
- BitmapFont font
+ int HEIGHT
+ int WIDTH
+ {static} Main getInstance()
+ ScreenManager getScreenManager()
+ void setScreenManager(ScreenManager)
+ SoundManager getSoundManager()
+ void setSoundManager(SoundManager)
+ SpriteBatch getBatch()
+ void setBatch(SpriteBatch)
+ BitmapFont getFont()
+ void setFont(BitmapFont)
+ Preferences getPrefs()
+ void setPrefs(Preferences)
+ void create()
+ void render()
+ void dispose()
}

class com.mygdx.game.game.components.ui.Button {
- Main game
- Rectangle rectangle
- float x
- float y
- float width
- float height
- String name
- String imgPath
- Texture texture
- SpriteBatch batch
- boolean visibility
- Sprite sprite
- boolean active
+ Texture getTexture()
+ void setTexture(Texture)
+ SpriteBatch getBatch()
+ void setBatch(SpriteBatch)
+ Sprite getSprite()
+ void setSprite(Sprite)
+ boolean getVisibility()
+ void setVisibility(boolean)
+ boolean isActive()
+ void setActive(boolean)
+ void setButtonColor(Color)
+ float getX()
+ void setX(float)
+ float getY()
+ void setY(float)
+ float getWidth()
+ void setWidth(float)
+ float getHeight()
+ void setHeight(float)
+ String getName()
+ void setName(String)
+ Rectangle getBound()
}

class com.mygdx.game.engine.input.CustomInputProcessor {
+ boolean mouseClicked(int)
+ boolean keyDown(int)
+ boolean keyUp(int)
+ boolean keyTyped(char)
+ boolean touchDown(int,int,int,int)
+ boolean touchUp(int,int,int,int)
+ boolean touchDragged(int,int,int)
+ boolean mouseMoved(int,int)
+ boolean scrolled(float,float)
+ boolean mouseHoverOver(T)
}

com.mygdx.game.game.screens.game.GameScreen *- - - - - - com.mygdx.game.engine.lifecycle.Main :has
com.mygdx.game.game.screens.game.GameScreen *- - - - - - com.mygdx.game.game.components.ui.Button :has
com.mygdx.game.game.screens.game.GameScreen *- - - - - - com.mygdx.game.engine.input.CustomInputProcessor :has
@enduml

PlantUML version 1.2022.12(Mon Oct 24 02:12:26 SGT 2022)
(GPL source distribution)
Java Runtime: OpenJDK Runtime Environment
JVM: OpenJDK 64-Bit Server VM
Default Encoding: Cp1252
Language: en
Country: SG
--></g></svg>