<?xml version="1.0" encoding="UTF-8" standalone="no"?><svg xmlns="http://www.w3.org/2000/svg" xmlns:xlink="http://www.w3.org/1999/xlink" contentStyleType="text/css" height="1687px" preserveAspectRatio="none" style="width:1083px;height:1687px;background:#FFFFFF;" version="1.1" viewBox="0 0 1083 1687" width="1083px" zoomAndPan="magnify"><defs><linearGradient id="g90tstiwz8da70" x1="50%" x2="50%" y1="0%" y2="100%"><stop offset="0%" stop-color="#00FFFF"/><stop offset="100%" stop-color="#5F9EA0"/></linearGradient></defs><g><rect fill="url(#g90tstiwz8da70)" height="60.3125" id="_title" rx="7.5" ry="7.5" style="stroke:#FF0000;stroke-width:2.0;" width="1065" x="5" y="5"/><text fill="#000000" font-family="sans-serif" font-size="40" font-weight="bold" lengthAdjust="spacing" textLength="1055" x="10" y="51.5234">Appendix L - ResultScreen Class Composition Relations</text><!--MD5=[52537726a308ea51c89174d2bb4d21b2]
cluster com.mygdx.game.game.screens.game--><g id="cluster_com.mygdx.game.game.screens.game"><path d="M395.5,77.3125 L661.5,77.3125 A3.75,3.75 0 0 1 664,79.8125 L671,100.9219 L746.5,100.9219 A2.5,2.5 0 0 1 749,103.4219 L749,509.8125 A2.5,2.5 0 0 1 746.5,512.3125 L395.5,512.3125 A2.5,2.5 0 0 1 393,509.8125 L393,79.8125 A2.5,2.5 0 0 1 395.5,77.3125 " fill="none" style="stroke:#000000;stroke-width:1.5;"/><line style="stroke:#000000;stroke-width:1.5;" x1="393" x2="671" y1="100.9219" y2="100.9219"/><text fill="#000000" font-family="sans-serif" font-size="14" font-weight="bold" lengthAdjust="spacing" textLength="265" x="397" y="93.8457">com.mygdx.game.game.screens.game</text></g><!--MD5=[f5720f8f2d84faa53b7e58c13b303426]
cluster com.mygdx.game.engine.lifecycle--><g id="cluster_com.mygdx.game.engine.lifecycle"><path d="M72.5,1069.8125 L308.5,1069.8125 A3.75,3.75 0 0 1 311,1072.3125 L318,1093.4219 L387.5,1093.4219 A2.5,2.5 0 0 1 390,1095.9219 L390,1572.3125 A2.5,2.5 0 0 1 387.5,1574.8125 L72.5,1574.8125 A2.5,2.5 0 0 1 70,1572.3125 L70,1072.3125 A2.5,2.5 0 0 1 72.5,1069.8125 " fill="none" style="stroke:#000000;stroke-width:1.5;"/><line style="stroke:#000000;stroke-width:1.5;" x1="70" x2="318" y1="1093.4219" y2="1093.4219"/><text fill="#000000" font-family="sans-serif" font-size="14" font-weight="bold" lengthAdjust="spacing" textLength="235" x="74" y="1086.3457">com.mygdx.game.engine.lifecycle</text></g><!--MD5=[683aabdc962ad2ab98ef14c38ed732ec]
cluster com.mygdx.game.game.components.ui--><g id="cluster_com.mygdx.game.game.components.ui"><path d="M430.5,964.3125 L701.5,964.3125 A3.75,3.75 0 0 1 704,966.8125 L711,987.9219 L711.5,987.9219 A2.5,2.5 0 0 1 714,990.4219 L714,1677.8125 A2.5,2.5 0 0 1 711.5,1680.3125 L430.5,1680.3125 A2.5,2.5 0 0 1 428,1677.8125 L428,966.8125 A2.5,2.5 0 0 1 430.5,964.3125 " fill="none" style="stroke:#000000;stroke-width:1.5;"/><line style="stroke:#000000;stroke-width:1.5;" x1="428" x2="711" y1="987.9219" y2="987.9219"/><text fill="#000000" font-family="sans-serif" font-size="14" font-weight="bold" lengthAdjust="spacing" textLength="270" x="432" y="980.8457">com.mygdx.game.game.components.ui</text></g><!--MD5=[6d572adab93e1a2768c068c53f7d318b]
cluster com.mygdx.game.engine.input--><g id="cluster_com.mygdx.game.engine.input"><path d="M754.5,1184.3125 L968.5,1184.3125 A3.75,3.75 0 0 1 971,1186.8125 L978,1207.9219 L1015.5,1207.9219 A2.5,2.5 0 0 1 1018,1210.4219 L1018,1457.8125 A2.5,2.5 0 0 1 1015.5,1460.3125 L754.5,1460.3125 A2.5,2.5 0 0 1 752,1457.8125 L752,1186.8125 A2.5,2.5 0 0 1 754.5,1184.3125 " fill="none" style="stroke:#000000;stroke-width:1.5;"/><line style="stroke:#000000;stroke-width:1.5;" x1="752" x2="978" y1="1207.9219" y2="1207.9219"/><text fill="#000000" font-family="sans-serif" font-size="14" font-weight="bold" lengthAdjust="spacing" textLength="213" x="756" y="1200.8457">com.mygdx.game.engine.input</text></g><!--MD5=[195e4a4d790aa799d4e82b6038b9f28d]
class com.mygdx.game.game.screens.game.ResultScreen--><g id="elem_com.mygdx.game.game.screens.game.ResultScreen"><rect codeLine="15" fill="#F1F1F1" height="382.5781" id="com.mygdx.game.game.screens.game.ResultScreen" rx="2.5" ry="2.5" style="stroke:#181818;stroke-width:0.5;" width="323" x="409.5" y="113.3125"/><ellipse cx="524.25" cy="129.3125" fill="#ADD1B2" rx="11" ry="11" style="stroke:#181818;stroke-width:1.0;"/><path d="M526.25,125.8125 Q526.4531,125.3125 526.6875,125.0625 Q526.9219,124.8125 527.1875,124.8125 Q527.6563,124.8125 527.9531,125.0938 Q528.25,125.375 528.25,126.0313 L528.25,127.5938 Q528.25,128.25 527.9688,128.5313 Q527.6875,128.8125 527.25,128.8125 Q526.8594,128.8125 526.6094,128.6406 Q526.3594,128.4688 526.25,128.0156 Q526.2031,127.7031 526.0313,127.5313 Q525.7188,127.2031 525.1563,127.0156 Q524.5938,126.8125 524.0313,126.8125 Q523.3281,126.8125 522.7344,127.0938 Q522.1563,127.375 521.7031,128 Q521.25,128.625 521.25,129.4844 L521.25,130.4063 Q521.25,131.4375 522.0938,132.125 Q522.9375,132.8125 524.4375,132.8125 Q525.3281,132.8125 525.9531,132.6094 Q526.3125,132.5 526.7188,132.1406 Q526.9844,131.9375 527.125,131.875 Q527.2656,131.8125 527.4375,131.8125 Q527.7656,131.8125 528,132.0781 Q528.25,132.3281 528.25,132.6875 Q528.25,133.0313 527.9063,133.4375 Q527.4063,134.0313 526.6094,134.3594 Q525.5625,134.8125 524.2813,134.8125 Q522.7813,134.8125 521.5781,134.2188 Q520.6094,133.75 519.9219,132.7344 Q519.25,131.7188 519.25,130.5156 L519.25,129.4219 Q519.25,128.1719 519.8438,127.0781 Q520.4531,125.9844 521.5,125.4063 Q522.5625,124.8125 523.75,124.8125 Q524.4688,124.8125 525.0938,125.0625 Q525.7188,125.3125 526.25,125.8125 Z " fill="#000000"/><text fill="#000000" font-family="sans-serif" font-size="14" lengthAdjust="spacing" textLength="85" x="544.75" y="135.041">ResultScreen</text><line style="stroke:#181818;stroke-width:0.5;" x1="410.5" x2="731.5" y1="145.3125" y2="145.3125"/><rect fill="none" height="6" style="stroke:#C82930;stroke-width:1.0;" width="6" x="417.5" y="156.6172"/><text fill="#000000" font-family="sans-serif" font-size="14" lengthAdjust="spacing" textLength="112" x="429.5" y="163.8457">SpriteBatch batch</text><rect fill="none" height="6" style="stroke:#C82930;stroke-width:1.0;" width="6" x="417.5" y="174.2266"/><text fill="#000000" font-family="sans-serif" font-size="14" lengthAdjust="spacing" textLength="95" x="429.5" y="181.4551">Texture texture</text><rect fill="none" height="6" style="stroke:#C82930;stroke-width:1.0;" width="6" x="417.5" y="191.8359"/><text fill="#000000" font-family="sans-serif" font-size="14" lengthAdjust="spacing" textLength="242" x="429.5" y="199.0645">CustomInputProcessor inputProcessor</text><rect fill="none" height="6" style="stroke:#C82930;stroke-width:1.0;" width="6" x="417.5" y="209.4453"/><text fill="#000000" font-family="sans-serif" font-size="14" lengthAdjust="spacing" textLength="69" x="429.5" y="216.6738">Main game</text><rect fill="none" height="6" style="stroke:#C82930;stroke-width:1.0;" width="6" x="417.5" y="227.0547"/><text fill="#000000" font-family="sans-serif" font-size="14" lengthAdjust="spacing" textLength="141" x="429.5" y="234.2832">float buttonShowDelay</text><rect fill="none" height="6" style="stroke:#C82930;stroke-width:1.0;" width="6" x="417.5" y="244.6641"/><text fill="#000000" font-family="sans-serif" font-size="14" lengthAdjust="spacing" textLength="180" x="429.5" y="251.8926">Timer.Task buttonShowTask</text><rect fill="none" height="6" style="stroke:#C82930;stroke-width:1.0;" width="6" x="417.5" y="262.2734"/><text fill="#000000" font-family="sans-serif" font-size="14" lengthAdjust="spacing" textLength="112" x="429.5" y="269.502">Button nextButton</text><rect fill="none" height="6" style="stroke:#C82930;stroke-width:1.0;" width="6" x="417.5" y="279.8828"/><text fill="#000000" font-family="sans-serif" font-size="14" lengthAdjust="spacing" textLength="96" x="429.5" y="287.1113">String resultBG</text><line style="stroke:#181818;stroke-width:0.5;" x1="410.5" x2="731.5" y1="294.1875" y2="294.1875"/><ellipse cx="420.5" cy="308.4922" fill="#84BE84" rx="3" ry="3" style="stroke:#038048;stroke-width:1.0;"/><text fill="#000000" font-family="sans-serif" font-size="14" lengthAdjust="spacing" textLength="272" x="429.5" y="312.7207">CustomInputProcessor getInputProcessor()</text><ellipse cx="420.5" cy="326.1016" fill="#84BE84" rx="3" ry="3" style="stroke:#038048;stroke-width:1.0;"/><text fill="#000000" font-family="sans-serif" font-size="14" lengthAdjust="spacing" textLength="297" x="429.5" y="330.3301">void setInputProcessor(CustomInputProcessor)</text><ellipse cx="420.5" cy="343.7109" fill="#84BE84" rx="3" ry="3" style="stroke:#038048;stroke-width:1.0;"/><text fill="#000000" font-family="sans-serif" font-size="14" lengthAdjust="spacing" textLength="131" x="429.5" y="347.9395">String getResultBG()</text><ellipse cx="420.5" cy="361.3203" fill="#84BE84" rx="3" ry="3" style="stroke:#038048;stroke-width:1.0;"/><text fill="#000000" font-family="sans-serif" font-size="14" lengthAdjust="spacing" textLength="156" x="429.5" y="365.5488">void setResultBG(String)</text><ellipse cx="420.5" cy="378.9297" fill="#84BE84" rx="3" ry="3" style="stroke:#038048;stroke-width:1.0;"/><text fill="#000000" font-family="sans-serif" font-size="14" lengthAdjust="spacing" textLength="72" x="429.5" y="383.1582">void show()</text><ellipse cx="420.5" cy="396.5391" fill="#84BE84" rx="3" ry="3" style="stroke:#038048;stroke-width:1.0;"/><text fill="#000000" font-family="sans-serif" font-size="14" lengthAdjust="spacing" textLength="109" x="429.5" y="400.7676">void render(float)</text><ellipse cx="420.5" cy="414.1484" fill="#84BE84" rx="3" ry="3" style="stroke:#038048;stroke-width:1.0;"/><text fill="#000000" font-family="sans-serif" font-size="14" lengthAdjust="spacing" textLength="111" x="429.5" y="418.377">void resize(int,int)</text><ellipse cx="420.5" cy="431.7578" fill="#84BE84" rx="3" ry="3" style="stroke:#038048;stroke-width:1.0;"/><text fill="#000000" font-family="sans-serif" font-size="14" lengthAdjust="spacing" textLength="79" x="429.5" y="435.9863">void pause()</text><ellipse cx="420.5" cy="449.3672" fill="#84BE84" rx="3" ry="3" style="stroke:#038048;stroke-width:1.0;"/><text fill="#000000" font-family="sans-serif" font-size="14" lengthAdjust="spacing" textLength="87" x="429.5" y="453.5957">void resume()</text><ellipse cx="420.5" cy="466.9766" fill="#84BE84" rx="3" ry="3" style="stroke:#038048;stroke-width:1.0;"/><text fill="#000000" font-family="sans-serif" font-size="14" lengthAdjust="spacing" textLength="67" x="429.5" y="471.2051">void hide()</text><ellipse cx="420.5" cy="484.5859" fill="#84BE84" rx="3" ry="3" style="stroke:#038048;stroke-width:1.0;"/><text fill="#000000" font-family="sans-serif" font-size="14" lengthAdjust="spacing" textLength="89" x="429.5" y="488.8145">void dispose()</text></g><!--MD5=[533628e9c9f667eb08bf66ebfc75b243]
class com.mygdx.game.engine.lifecycle.Main--><g id="elem_com.mygdx.game.engine.lifecycle.Main"><rect codeLine="37" fill="#F1F1F1" height="453.0156" id="com.mygdx.game.engine.lifecycle.Main" rx="2.5" ry="2.5" style="stroke:#181818;stroke-width:0.5;" width="287" x="86.5" y="1105.8125"/><ellipse cx="210.75" cy="1121.8125" fill="#ADD1B2" rx="11" ry="11" style="stroke:#181818;stroke-width:1.0;"/><path d="M212.75,1118.3125 Q212.9531,1117.8125 213.1875,1117.5625 Q213.4219,1117.3125 213.6875,1117.3125 Q214.1563,1117.3125 214.4531,1117.5938 Q214.75,1117.875 214.75,1118.5313 L214.75,1120.0938 Q214.75,1120.75 214.4688,1121.0313 Q214.1875,1121.3125 213.75,1121.3125 Q213.3594,1121.3125 213.1094,1121.1406 Q212.8594,1120.9688 212.75,1120.5156 Q212.7031,1120.2031 212.5313,1120.0313 Q212.2188,1119.7031 211.6563,1119.5156 Q211.0938,1119.3125 210.5313,1119.3125 Q209.8281,1119.3125 209.2344,1119.5938 Q208.6563,1119.875 208.2031,1120.5 Q207.75,1121.125 207.75,1121.9844 L207.75,1122.9063 Q207.75,1123.9375 208.5938,1124.625 Q209.4375,1125.3125 210.9375,1125.3125 Q211.8281,1125.3125 212.4531,1125.1094 Q212.8125,1125 213.2188,1124.6406 Q213.4844,1124.4375 213.625,1124.375 Q213.7656,1124.3125 213.9375,1124.3125 Q214.2656,1124.3125 214.5,1124.5781 Q214.75,1124.8281 214.75,1125.1875 Q214.75,1125.5313 214.4063,1125.9375 Q213.9063,1126.5313 213.1094,1126.8594 Q212.0625,1127.3125 210.7813,1127.3125 Q209.2813,1127.3125 208.0781,1126.7188 Q207.1094,1126.25 206.4219,1125.2344 Q205.75,1124.2188 205.75,1123.0156 L205.75,1121.9219 Q205.75,1120.6719 206.3438,1119.5781 Q206.9531,1118.4844 208,1117.9063 Q209.0625,1117.3125 210.25,1117.3125 Q210.9688,1117.3125 211.5938,1117.5625 Q212.2188,1117.8125 212.75,1118.3125 Z " fill="#000000"/><text fill="#000000" font-family="sans-serif" font-size="14" lengthAdjust="spacing" textLength="30" x="231.25" y="1127.541">Main</text><line style="stroke:#181818;stroke-width:0.5;" x1="87.5" x2="372.5" y1="1137.8125" y2="1137.8125"/><rect fill="none" height="6" style="stroke:#C82930;stroke-width:1.0;" width="6" x="94.5" y="1149.1172"/><text fill="#000000" font-family="sans-serif" font-size="14" lengthAdjust="spacing" text-decoration="underline" textLength="87" x="106.5" y="1156.3457">Main instance</text><rect fill="none" height="6" style="stroke:#C82930;stroke-width:1.0;" width="6" x="94.5" y="1166.7266"/><text fill="#000000" font-family="sans-serif" font-size="14" lengthAdjust="spacing" textLength="204" x="106.5" y="1173.9551">ScreenManager screenManager</text><rect fill="none" height="6" style="stroke:#C82930;stroke-width:1.0;" width="6" x="94.5" y="1184.3359"/><text fill="#000000" font-family="sans-serif" font-size="14" lengthAdjust="spacing" textLength="113" x="106.5" y="1191.5645">Preferences prefs</text><rect fill="none" height="6" style="stroke:#C82930;stroke-width:1.0;" width="6" x="94.5" y="1201.9453"/><text fill="#000000" font-family="sans-serif" font-size="14" lengthAdjust="spacing" textLength="196" x="106.5" y="1209.1738">SoundManager soundManager</text><ellipse cx="97.5" cy="1222.5547" fill="none" rx="3" ry="3" style="stroke:#038048;stroke-width:1.0;"/><text fill="#000000" font-family="sans-serif" font-size="14" lengthAdjust="spacing" textLength="185" x="106.5" y="1226.7832">EntityManager entityManager</text><rect fill="none" height="6" style="stroke:#C82930;stroke-width:1.0;" width="6" x="94.5" y="1237.1641"/><text fill="#000000" font-family="sans-serif" font-size="14" lengthAdjust="spacing" textLength="112" x="106.5" y="1244.3926">SpriteBatch batch</text><rect fill="none" height="6" style="stroke:#C82930;stroke-width:1.0;" width="6" x="94.5" y="1254.7734"/><text fill="#000000" font-family="sans-serif" font-size="14" lengthAdjust="spacing" textLength="100" x="106.5" y="1262.002">BitmapFont font</text><ellipse cx="97.5" cy="1275.3828" fill="none" rx="3" ry="3" style="stroke:#038048;stroke-width:1.0;"/><text fill="#000000" font-family="sans-serif" font-size="14" lengthAdjust="spacing" textLength="69" x="106.5" y="1279.6113">int HEIGHT</text><ellipse cx="97.5" cy="1292.9922" fill="none" rx="3" ry="3" style="stroke:#038048;stroke-width:1.0;"/><text fill="#000000" font-family="sans-serif" font-size="14" lengthAdjust="spacing" textLength="63" x="106.5" y="1297.2207">int WIDTH</text><line style="stroke:#181818;stroke-width:0.5;" x1="87.5" x2="372.5" y1="1304.2969" y2="1304.2969"/><ellipse cx="97.5" cy="1318.6016" fill="#84BE84" rx="3" ry="3" style="stroke:#038048;stroke-width:1.0;"/><text fill="#000000" font-family="sans-serif" font-size="14" lengthAdjust="spacing" text-decoration="underline" textLength="117" x="106.5" y="1322.8301">Main getInstance()</text><ellipse cx="97.5" cy="1336.2109" fill="#84BE84" rx="3" ry="3" style="stroke:#038048;stroke-width:1.0;"/><text fill="#000000" font-family="sans-serif" font-size="14" lengthAdjust="spacing" textLength="236" x="106.5" y="1340.4395">ScreenManager getScreenManager()</text><ellipse cx="97.5" cy="1353.8203" fill="#84BE84" rx="3" ry="3" style="stroke:#038048;stroke-width:1.0;"/><text fill="#000000" font-family="sans-serif" font-size="14" lengthAdjust="spacing" textLength="261" x="106.5" y="1358.0488">void setScreenManager(ScreenManager)</text><ellipse cx="97.5" cy="1371.4297" fill="#84BE84" rx="3" ry="3" style="stroke:#038048;stroke-width:1.0;"/><text fill="#000000" font-family="sans-serif" font-size="14" lengthAdjust="spacing" textLength="228" x="106.5" y="1375.6582">SoundManager getSoundManager()</text><ellipse cx="97.5" cy="1389.0391" fill="#84BE84" rx="3" ry="3" style="stroke:#038048;stroke-width:1.0;"/><text fill="#000000" font-family="sans-serif" font-size="14" lengthAdjust="spacing" textLength="253" x="106.5" y="1393.2676">void setSoundManager(SoundManager)</text><ellipse cx="97.5" cy="1406.6484" fill="#84BE84" rx="3" ry="3" style="stroke:#038048;stroke-width:1.0;"/><text fill="#000000" font-family="sans-serif" font-size="14" lengthAdjust="spacing" textLength="143" x="106.5" y="1410.877">SpriteBatch getBatch()</text><ellipse cx="97.5" cy="1424.2578" fill="#84BE84" rx="3" ry="3" style="stroke:#038048;stroke-width:1.0;"/><text fill="#000000" font-family="sans-serif" font-size="14" lengthAdjust="spacing" textLength="168" x="106.5" y="1428.4863">void setBatch(SpriteBatch)</text><ellipse cx="97.5" cy="1441.8672" fill="#84BE84" rx="3" ry="3" style="stroke:#038048;stroke-width:1.0;"/><text fill="#000000" font-family="sans-serif" font-size="14" lengthAdjust="spacing" textLength="135" x="106.5" y="1446.0957">BitmapFont getFont()</text><ellipse cx="97.5" cy="1459.4766" fill="#84BE84" rx="3" ry="3" style="stroke:#038048;stroke-width:1.0;"/><text fill="#000000" font-family="sans-serif" font-size="14" lengthAdjust="spacing" textLength="160" x="106.5" y="1463.7051">void setFont(BitmapFont)</text><ellipse cx="97.5" cy="1477.0859" fill="#84BE84" rx="3" ry="3" style="stroke:#038048;stroke-width:1.0;"/><text fill="#000000" font-family="sans-serif" font-size="14" lengthAdjust="spacing" textLength="144" x="106.5" y="1481.3145">Preferences getPrefs()</text><ellipse cx="97.5" cy="1494.6953" fill="#84BE84" rx="3" ry="3" style="stroke:#038048;stroke-width:1.0;"/><text fill="#000000" font-family="sans-serif" font-size="14" lengthAdjust="spacing" textLength="169" x="106.5" y="1498.9238">void setPrefs(Preferences)</text><ellipse cx="97.5" cy="1512.3047" fill="#84BE84" rx="3" ry="3" style="stroke:#038048;stroke-width:1.0;"/><text fill="#000000" font-family="sans-serif" font-size="14" lengthAdjust="spacing" textLength="80" x="106.5" y="1516.5332">void create()</text><ellipse cx="97.5" cy="1529.9141" fill="#84BE84" rx="3" ry="3" style="stroke:#038048;stroke-width:1.0;"/><text fill="#000000" font-family="sans-serif" font-size="14" lengthAdjust="spacing" textLength="82" x="106.5" y="1534.1426">void render()</text><ellipse cx="97.5" cy="1547.5234" fill="#84BE84" rx="3" ry="3" style="stroke:#038048;stroke-width:1.0;"/><text fill="#000000" font-family="sans-serif" font-size="14" lengthAdjust="spacing" textLength="89" x="106.5" y="1551.752">void dispose()</text></g><!--MD5=[3de1ccafbb2233cb7ab977d18c48deb3]
class com.mygdx.game.game.components.ui.Button--><g id="elem_com.mygdx.game.game.components.ui.Button"><rect codeLine="63" fill="#F1F1F1" height="664.3281" id="com.mygdx.game.game.components.ui.Button" rx="2.5" ry="2.5" style="stroke:#181818;stroke-width:0.5;" width="194" x="474" y="1000.3125"/><ellipse cx="546.25" cy="1016.3125" fill="#ADD1B2" rx="11" ry="11" style="stroke:#181818;stroke-width:1.0;"/><path d="M548.25,1012.8125 Q548.4531,1012.3125 548.6875,1012.0625 Q548.9219,1011.8125 549.1875,1011.8125 Q549.6563,1011.8125 549.9531,1012.0938 Q550.25,1012.375 550.25,1013.0313 L550.25,1014.5938 Q550.25,1015.25 549.9688,1015.5313 Q549.6875,1015.8125 549.25,1015.8125 Q548.8594,1015.8125 548.6094,1015.6406 Q548.3594,1015.4688 548.25,1015.0156 Q548.2031,1014.7031 548.0313,1014.5313 Q547.7188,1014.2031 547.1563,1014.0156 Q546.5938,1013.8125 546.0313,1013.8125 Q545.3281,1013.8125 544.7344,1014.0938 Q544.1563,1014.375 543.7031,1015 Q543.25,1015.625 543.25,1016.4844 L543.25,1017.4063 Q543.25,1018.4375 544.0938,1019.125 Q544.9375,1019.8125 546.4375,1019.8125 Q547.3281,1019.8125 547.9531,1019.6094 Q548.3125,1019.5 548.7188,1019.1406 Q548.9844,1018.9375 549.125,1018.875 Q549.2656,1018.8125 549.4375,1018.8125 Q549.7656,1018.8125 550,1019.0781 Q550.25,1019.3281 550.25,1019.6875 Q550.25,1020.0313 549.9063,1020.4375 Q549.4063,1021.0313 548.6094,1021.3594 Q547.5625,1021.8125 546.2813,1021.8125 Q544.7813,1021.8125 543.5781,1021.2188 Q542.6094,1020.75 541.9219,1019.7344 Q541.25,1018.7188 541.25,1017.5156 L541.25,1016.4219 Q541.25,1015.1719 541.8438,1014.0781 Q542.4531,1012.9844 543.5,1012.4063 Q544.5625,1011.8125 545.75,1011.8125 Q546.4688,1011.8125 547.0938,1012.0625 Q547.7188,1012.3125 548.25,1012.8125 Z " fill="#000000"/><text fill="#000000" font-family="sans-serif" font-size="14" lengthAdjust="spacing" textLength="41" x="566.75" y="1022.041">Button</text><line style="stroke:#181818;stroke-width:0.5;" x1="475" x2="667" y1="1032.3125" y2="1032.3125"/><rect fill="none" height="6" style="stroke:#C82930;stroke-width:1.0;" width="6" x="482" y="1043.6172"/><text fill="#000000" font-family="sans-serif" font-size="14" lengthAdjust="spacing" textLength="69" x="494" y="1050.8457">Main game</text><rect fill="none" height="6" style="stroke:#C82930;stroke-width:1.0;" width="6" x="482" y="1061.2266"/><text fill="#000000" font-family="sans-serif" font-size="14" lengthAdjust="spacing" textLength="127" x="494" y="1068.4551">Rectangle rectangle</text><rect fill="none" height="6" style="stroke:#C82930;stroke-width:1.0;" width="6" x="482" y="1078.8359"/><text fill="#000000" font-family="sans-serif" font-size="14" lengthAdjust="spacing" textLength="37" x="494" y="1086.0645">float x</text><rect fill="none" height="6" style="stroke:#C82930;stroke-width:1.0;" width="6" x="482" y="1096.4453"/><text fill="#000000" font-family="sans-serif" font-size="14" lengthAdjust="spacing" textLength="38" x="494" y="1103.6738">float y</text><rect fill="none" height="6" style="stroke:#C82930;stroke-width:1.0;" width="6" x="482" y="1114.0547"/><text fill="#000000" font-family="sans-serif" font-size="14" lengthAdjust="spacing" textLength="63" x="494" y="1121.2832">float width</text><rect fill="none" height="6" style="stroke:#C82930;stroke-width:1.0;" width="6" x="482" y="1131.6641"/><text fill="#000000" font-family="sans-serif" font-size="14" lengthAdjust="spacing" textLength="70" x="494" y="1138.8926">float height</text><rect fill="none" height="6" style="stroke:#C82930;stroke-width:1.0;" width="6" x="482" y="1149.2734"/><text fill="#000000" font-family="sans-serif" font-size="14" lengthAdjust="spacing" textLength="76" x="494" y="1156.502">String name</text><rect fill="none" height="6" style="stroke:#C82930;stroke-width:1.0;" width="6" x="482" y="1166.8828"/><text fill="#000000" font-family="sans-serif" font-size="14" lengthAdjust="spacing" textLength="92" x="494" y="1174.1113">String imgPath</text><rect fill="none" height="6" style="stroke:#C82930;stroke-width:1.0;" width="6" x="482" y="1184.4922"/><text fill="#000000" font-family="sans-serif" font-size="14" lengthAdjust="spacing" textLength="95" x="494" y="1191.7207">Texture texture</text><rect fill="none" height="6" style="stroke:#C82930;stroke-width:1.0;" width="6" x="482" y="1202.1016"/><text fill="#000000" font-family="sans-serif" font-size="14" lengthAdjust="spacing" textLength="112" x="494" y="1209.3301">SpriteBatch batch</text><rect fill="none" height="6" style="stroke:#C82930;stroke-width:1.0;" width="6" x="482" y="1219.7109"/><text fill="#000000" font-family="sans-serif" font-size="14" lengthAdjust="spacing" textLength="103" x="494" y="1226.9395">boolean visibility</text><rect fill="none" height="6" style="stroke:#C82930;stroke-width:1.0;" width="6" x="482" y="1237.3203"/><text fill="#000000" font-family="sans-serif" font-size="14" lengthAdjust="spacing" textLength="76" x="494" y="1244.5488">Sprite sprite</text><rect fill="none" height="6" style="stroke:#C82930;stroke-width:1.0;" width="6" x="482" y="1254.9297"/><text fill="#000000" font-family="sans-serif" font-size="14" lengthAdjust="spacing" textLength="92" x="494" y="1262.1582">boolean active</text><line style="stroke:#181818;stroke-width:0.5;" x1="475" x2="667" y1="1269.2344" y2="1269.2344"/><ellipse cx="485" cy="1283.5391" fill="#84BE84" rx="3" ry="3" style="stroke:#038048;stroke-width:1.0;"/><text fill="#000000" font-family="sans-serif" font-size="14" lengthAdjust="spacing" textLength="130" x="494" y="1287.7676">Texture getTexture()</text><ellipse cx="485" cy="1301.1484" fill="#84BE84" rx="3" ry="3" style="stroke:#038048;stroke-width:1.0;"/><text fill="#000000" font-family="sans-serif" font-size="14" lengthAdjust="spacing" textLength="155" x="494" y="1305.377">void setTexture(Texture)</text><ellipse cx="485" cy="1318.7578" fill="#84BE84" rx="3" ry="3" style="stroke:#038048;stroke-width:1.0;"/><text fill="#000000" font-family="sans-serif" font-size="14" lengthAdjust="spacing" textLength="143" x="494" y="1322.9863">SpriteBatch getBatch()</text><ellipse cx="485" cy="1336.3672" fill="#84BE84" rx="3" ry="3" style="stroke:#038048;stroke-width:1.0;"/><text fill="#000000" font-family="sans-serif" font-size="14" lengthAdjust="spacing" textLength="168" x="494" y="1340.5957">void setBatch(SpriteBatch)</text><ellipse cx="485" cy="1353.9766" fill="#84BE84" rx="3" ry="3" style="stroke:#038048;stroke-width:1.0;"/><text fill="#000000" font-family="sans-serif" font-size="14" lengthAdjust="spacing" textLength="108" x="494" y="1358.2051">Sprite getSprite()</text><ellipse cx="485" cy="1371.5859" fill="#84BE84" rx="3" ry="3" style="stroke:#038048;stroke-width:1.0;"/><text fill="#000000" font-family="sans-serif" font-size="14" lengthAdjust="spacing" textLength="133" x="494" y="1375.8145">void setSprite(Sprite)</text><ellipse cx="485" cy="1389.1953" fill="#84BE84" rx="3" ry="3" style="stroke:#038048;stroke-width:1.0;"/><text fill="#000000" font-family="sans-serif" font-size="14" lengthAdjust="spacing" textLength="135" x="494" y="1393.4238">boolean getVisibility()</text><ellipse cx="485" cy="1406.8047" fill="#84BE84" rx="3" ry="3" style="stroke:#038048;stroke-width:1.0;"/><text fill="#000000" font-family="sans-serif" font-size="14" lengthAdjust="spacing" textLength="160" x="494" y="1411.0332">void setVisibility(boolean)</text><ellipse cx="485" cy="1424.4141" fill="#84BE84" rx="3" ry="3" style="stroke:#038048;stroke-width:1.0;"/><text fill="#000000" font-family="sans-serif" font-size="14" lengthAdjust="spacing" textLength="113" x="494" y="1428.6426">boolean isActive()</text><ellipse cx="485" cy="1442.0234" fill="#84BE84" rx="3" ry="3" style="stroke:#038048;stroke-width:1.0;"/><text fill="#000000" font-family="sans-serif" font-size="14" lengthAdjust="spacing" textLength="148" x="494" y="1446.252">void setActive(boolean)</text><ellipse cx="485" cy="1459.6328" fill="#84BE84" rx="3" ry="3" style="stroke:#038048;stroke-width:1.0;"/><text fill="#000000" font-family="sans-serif" font-size="14" lengthAdjust="spacing" textLength="168" x="494" y="1463.8613">void setButtonColor(Color)</text><ellipse cx="485" cy="1477.2422" fill="#84BE84" rx="3" ry="3" style="stroke:#038048;stroke-width:1.0;"/><text fill="#000000" font-family="sans-serif" font-size="14" lengthAdjust="spacing" textLength="69" x="494" y="1481.4707">float getX()</text><ellipse cx="485" cy="1494.8516" fill="#84BE84" rx="3" ry="3" style="stroke:#038048;stroke-width:1.0;"/><text fill="#000000" font-family="sans-serif" font-size="14" lengthAdjust="spacing" textLength="94" x="494" y="1499.0801">void setX(float)</text><ellipse cx="485" cy="1512.4609" fill="#84BE84" rx="3" ry="3" style="stroke:#038048;stroke-width:1.0;"/><text fill="#000000" font-family="sans-serif" font-size="14" lengthAdjust="spacing" textLength="70" x="494" y="1516.6895">float getY()</text><ellipse cx="485" cy="1530.0703" fill="#84BE84" rx="3" ry="3" style="stroke:#038048;stroke-width:1.0;"/><text fill="#000000" font-family="sans-serif" font-size="14" lengthAdjust="spacing" textLength="95" x="494" y="1534.2988">void setY(float)</text><ellipse cx="485" cy="1547.6797" fill="#84BE84" rx="3" ry="3" style="stroke:#038048;stroke-width:1.0;"/><text fill="#000000" font-family="sans-serif" font-size="14" lengthAdjust="spacing" textLength="97" x="494" y="1551.9082">float getWidth()</text><ellipse cx="485" cy="1565.2891" fill="#84BE84" rx="3" ry="3" style="stroke:#038048;stroke-width:1.0;"/><text fill="#000000" font-family="sans-serif" font-size="14" lengthAdjust="spacing" textLength="122" x="494" y="1569.5176">void setWidth(float)</text><ellipse cx="485" cy="1582.8984" fill="#84BE84" rx="3" ry="3" style="stroke:#038048;stroke-width:1.0;"/><text fill="#000000" font-family="sans-serif" font-size="14" lengthAdjust="spacing" textLength="101" x="494" y="1587.127">float getHeight()</text><ellipse cx="485" cy="1600.5078" fill="#84BE84" rx="3" ry="3" style="stroke:#038048;stroke-width:1.0;"/><text fill="#000000" font-family="sans-serif" font-size="14" lengthAdjust="spacing" textLength="126" x="494" y="1604.7363">void setHeight(float)</text><ellipse cx="485" cy="1618.1172" fill="#84BE84" rx="3" ry="3" style="stroke:#038048;stroke-width:1.0;"/><text fill="#000000" font-family="sans-serif" font-size="14" lengthAdjust="spacing" textLength="107" x="494" y="1622.3457">String getName()</text><ellipse cx="485" cy="1635.7266" fill="#84BE84" rx="3" ry="3" style="stroke:#038048;stroke-width:1.0;"/><text fill="#000000" font-family="sans-serif" font-size="14" lengthAdjust="spacing" textLength="132" x="494" y="1639.9551">void setName(String)</text><ellipse cx="485" cy="1653.3359" fill="#84BE84" rx="3" ry="3" style="stroke:#038048;stroke-width:1.0;"/><text fill="#000000" font-family="sans-serif" font-size="14" lengthAdjust="spacing" textLength="139" x="494" y="1657.5645">Rectangle getBound()</text></g><!--MD5=[e28b97f13ebe0e0d0e1b4a0418369900]
class com.mygdx.game.engine.input.CustomInputProcessor--><g id="elem_com.mygdx.game.engine.input.CustomInputProcessor"><rect codeLine="101" fill="#F1F1F1" height="224.0938" id="com.mygdx.game.engine.input.CustomInputProcessor" rx="2.5" ry="2.5" style="stroke:#181818;stroke-width:0.5;" width="234" x="768" y="1220.3125"/><ellipse cx="809.55" cy="1236.3125" fill="#ADD1B2" rx="11" ry="11" style="stroke:#181818;stroke-width:1.0;"/><path d="M811.55,1232.8125 Q811.7531,1232.3125 811.9875,1232.0625 Q812.2219,1231.8125 812.4875,1231.8125 Q812.9563,1231.8125 813.2531,1232.0938 Q813.55,1232.375 813.55,1233.0313 L813.55,1234.5938 Q813.55,1235.25 813.2688,1235.5313 Q812.9875,1235.8125 812.55,1235.8125 Q812.1594,1235.8125 811.9094,1235.6406 Q811.6594,1235.4688 811.55,1235.0156 Q811.5031,1234.7031 811.3313,1234.5313 Q811.0188,1234.2031 810.4563,1234.0156 Q809.8938,1233.8125 809.3313,1233.8125 Q808.6281,1233.8125 808.0344,1234.0938 Q807.4563,1234.375 807.0031,1235 Q806.55,1235.625 806.55,1236.4844 L806.55,1237.4063 Q806.55,1238.4375 807.3938,1239.125 Q808.2375,1239.8125 809.7375,1239.8125 Q810.6281,1239.8125 811.2531,1239.6094 Q811.6125,1239.5 812.0188,1239.1406 Q812.2844,1238.9375 812.425,1238.875 Q812.5656,1238.8125 812.7375,1238.8125 Q813.0656,1238.8125 813.3,1239.0781 Q813.55,1239.3281 813.55,1239.6875 Q813.55,1240.0313 813.2063,1240.4375 Q812.7063,1241.0313 811.9094,1241.3594 Q810.8625,1241.8125 809.5813,1241.8125 Q808.0813,1241.8125 806.8781,1241.2188 Q805.9094,1240.75 805.2219,1239.7344 Q804.55,1238.7188 804.55,1237.5156 L804.55,1236.4219 Q804.55,1235.1719 805.1438,1234.0781 Q805.7531,1232.9844 806.8,1232.4063 Q807.8625,1231.8125 809.05,1231.8125 Q809.7688,1231.8125 810.3938,1232.0625 Q811.0188,1232.3125 811.55,1232.8125 Z " fill="#000000"/><text fill="#000000" font-family="sans-serif" font-size="14" lengthAdjust="spacing" textLength="143" x="829.45" y="1242.041">CustomInputProcessor</text><line style="stroke:#181818;stroke-width:0.5;" x1="769" x2="1001" y1="1252.3125" y2="1252.3125"/><line style="stroke:#181818;stroke-width:0.5;" x1="769" x2="1001" y1="1260.3125" y2="1260.3125"/><ellipse cx="779" cy="1274.6172" fill="#84BE84" rx="3" ry="3" style="stroke:#038048;stroke-width:1.0;"/><text fill="#000000" font-family="sans-serif" font-size="14" lengthAdjust="spacing" textLength="168" x="788" y="1278.8457">boolean mouseClicked(int)</text><ellipse cx="779" cy="1292.2266" fill="#84BE84" rx="3" ry="3" style="stroke:#038048;stroke-width:1.0;"/><text fill="#000000" font-family="sans-serif" font-size="14" lengthAdjust="spacing" textLength="137" x="788" y="1296.4551">boolean keyDown(int)</text><ellipse cx="779" cy="1309.8359" fill="#84BE84" rx="3" ry="3" style="stroke:#038048;stroke-width:1.0;"/><text fill="#000000" font-family="sans-serif" font-size="14" lengthAdjust="spacing" textLength="119" x="788" y="1314.0645">boolean keyUp(int)</text><ellipse cx="779" cy="1327.4453" fill="#84BE84" rx="3" ry="3" style="stroke:#038048;stroke-width:1.0;"/><text fill="#000000" font-family="sans-serif" font-size="14" lengthAdjust="spacing" textLength="155" x="788" y="1331.6738">boolean keyTyped(char)</text><ellipse cx="779" cy="1345.0547" fill="#84BE84" rx="3" ry="3" style="stroke:#038048;stroke-width:1.0;"/><text fill="#000000" font-family="sans-serif" font-size="14" lengthAdjust="spacing" textLength="207" x="788" y="1349.2832">boolean touchDown(int,int,int,int)</text><ellipse cx="779" cy="1362.6641" fill="#84BE84" rx="3" ry="3" style="stroke:#038048;stroke-width:1.0;"/><text fill="#000000" font-family="sans-serif" font-size="14" lengthAdjust="spacing" textLength="189" x="788" y="1366.8926">boolean touchUp(int,int,int,int)</text><ellipse cx="779" cy="1380.2734" fill="#84BE84" rx="3" ry="3" style="stroke:#038048;stroke-width:1.0;"/><text fill="#000000" font-family="sans-serif" font-size="14" lengthAdjust="spacing" textLength="208" x="788" y="1384.502">boolean touchDragged(int,int,int)</text><ellipse cx="779" cy="1397.8828" fill="#84BE84" rx="3" ry="3" style="stroke:#038048;stroke-width:1.0;"/><text fill="#000000" font-family="sans-serif" font-size="14" lengthAdjust="spacing" textLength="183" x="788" y="1402.1113">boolean mouseMoved(int,int)</text><ellipse cx="779" cy="1415.4922" fill="#84BE84" rx="3" ry="3" style="stroke:#038048;stroke-width:1.0;"/><text fill="#000000" font-family="sans-serif" font-size="14" lengthAdjust="spacing" textLength="172" x="788" y="1419.7207">boolean scrolled(float,float)</text><ellipse cx="779" cy="1433.1016" fill="#84BE84" rx="3" ry="3" style="stroke:#038048;stroke-width:1.0;"/><text fill="#000000" font-family="sans-serif" font-size="14" lengthAdjust="spacing" textLength="184" x="788" y="1437.3301">boolean mouseHoverOver(T)</text></g><!--MD5=[baf3a31d0fecba6e00347fbf6917d84b]
reverse link com.mygdx.game.game.screens.game.ResultScreen to com.mygdx.game.engine.input.CustomInputProcessor--><g id="link_com.mygdx.game.game.screens.game.ResultScreen_com.mygdx.game.engine.input.CustomInputProcessor"><path codeLine="114" d="M700.25,509.5725 C700.25,509.5725 700.25,1332.3125 700.25,1332.3125 C700.25,1332.3125 731.33,1332.3125 768,1332.3125 " fill="none" id="com.mygdx.game.game.screens.game.ResultScreen-backto-com.mygdx.game.engine.input.CustomInputProcessor" style="stroke:#181818;stroke-width:1.0;"/><polygon fill="#181818" points="700.25,496.5725,696.25,502.5725,700.25,508.5725,704.25,502.5725,700.25,496.5725" style="stroke:#181818;stroke-width:1.0;"/><text fill="#000000" font-family="sans-serif" font-size="13" lengthAdjust="spacing" textLength="21" x="678.25" y="951.3076">has</text></g><!--MD5=[82856d1b104884f8c6ae30488f7fe5da]
reverse link com.mygdx.game.game.screens.game.ResultScreen to com.mygdx.game.engine.lifecycle.Main--><g id="link_com.mygdx.game.game.screens.game.ResultScreen_com.mygdx.game.engine.lifecycle.Main"><path codeLine="115" d="M441.75,509.5725 C441.75,509.5725 441.75,1332.3125 441.75,1332.3125 C441.75,1332.3125 411.35,1332.3125 373.59,1332.3125 " fill="none" id="com.mygdx.game.game.screens.game.ResultScreen-backto-com.mygdx.game.engine.lifecycle.Main" style="stroke:#181818;stroke-width:1.0;"/><polygon fill="#181818" points="441.75,496.5725,437.75,502.5725,441.75,508.5725,445.75,502.5725,441.75,496.5725" style="stroke:#181818;stroke-width:1.0;"/><text fill="#000000" font-family="sans-serif" font-size="13" lengthAdjust="spacing" textLength="21" x="419.75" y="951.5176">has</text></g><!--MD5=[af49013853af2aa0199c9bc6b47ee54c]
reverse link com.mygdx.game.game.screens.game.ResultScreen to com.mygdx.game.game.components.ui.Button--><g id="link_com.mygdx.game.game.screens.game.ResultScreen_com.mygdx.game.game.components.ui.Button"><path codeLine="116" d="M571,509.5725 C571,509.5725 571,1000.2725 571,1000.2725 " fill="none" id="com.mygdx.game.game.screens.game.ResultScreen-backto-com.mygdx.game.game.components.ui.Button" style="stroke:#181818;stroke-width:1.0;"/><polygon fill="#181818" points="571,496.5725,567,502.5725,571,508.5725,575,502.5725,571,496.5725" style="stroke:#181818;stroke-width:1.0;"/><text fill="#000000" font-family="sans-serif" font-size="13" lengthAdjust="spacing" textLength="21" x="549" y="751.4176">has</text></g><!--MD5=[0c88db38fed65b910891d0de10575776]
@startuml
skinparam linetype polyline
skinparam linetype ortho

skinparam nodesep 100
skinparam ranksep 100

skinparam titleBorderRoundCorner 15
skinparam titleBorderThickness 2
skinparam titleBorderColor red
skinparam titleBackgroundColor Aqua-CadetBlue
skinparam TitleFontSize 40

title Appendix L - ResultScreen Class Composition Relations

class com.mygdx.game.game.screens.game.ResultScreen {
- SpriteBatch batch
- Texture texture
- CustomInputProcessor inputProcessor
- Main game
- float buttonShowDelay
- Timer.Task buttonShowTask
- Button nextButton
- String resultBG
+ CustomInputProcessor getInputProcessor()
+ void setInputProcessor(CustomInputProcessor)
+ String getResultBG()
+ void setResultBG(String)
+ void show()
+ void render(float)
+ void resize(int,int)
+ void pause()
+ void resume()
+ void hide()
+ void dispose()
}

class com.mygdx.game.engine.lifecycle.Main {
- {static} Main instance
- ScreenManager screenManager
- Preferences prefs
- SoundManager soundManager
+ EntityManager entityManager
- SpriteBatch batch
- BitmapFont font
+ int HEIGHT
+ int WIDTH
+ {static} Main getInstance()
+ ScreenManager getScreenManager()
+ void setScreenManager(ScreenManager)
+ SoundManager getSoundManager()
+ void setSoundManager(SoundManager)
+ SpriteBatch getBatch()
+ void setBatch(SpriteBatch)
+ BitmapFont getFont()
+ void setFont(BitmapFont)
+ Preferences getPrefs()
+ void setPrefs(Preferences)
+ void create()
+ void render()
+ void dispose()
}

class com.mygdx.game.game.components.ui.Button {
- Main game
- Rectangle rectangle
- float x
- float y
- float width
- float height
- String name
- String imgPath
- Texture texture
- SpriteBatch batch
- boolean visibility
- Sprite sprite
- boolean active
+ Texture getTexture()
+ void setTexture(Texture)
+ SpriteBatch getBatch()
+ void setBatch(SpriteBatch)
+ Sprite getSprite()
+ void setSprite(Sprite)
+ boolean getVisibility()
+ void setVisibility(boolean)
+ boolean isActive()
+ void setActive(boolean)
+ void setButtonColor(Color)
+ float getX()
+ void setX(float)
+ float getY()
+ void setY(float)
+ float getWidth()
+ void setWidth(float)
+ float getHeight()
+ void setHeight(float)
+ String getName()
+ void setName(String)
+ Rectangle getBound()
}

class com.mygdx.game.engine.input.CustomInputProcessor {
+ boolean mouseClicked(int)
+ boolean keyDown(int)
+ boolean keyUp(int)
+ boolean keyTyped(char)
+ boolean touchDown(int,int,int,int)
+ boolean touchUp(int,int,int,int)
+ boolean touchDragged(int,int,int)
+ boolean mouseMoved(int,int)
+ boolean scrolled(float,float)
+ boolean mouseHoverOver(T)
}

com.mygdx.game.game.screens.game.ResultScreen *- - - - - - com.mygdx.game.engine.input.CustomInputProcessor :has
com.mygdx.game.game.screens.game.ResultScreen *- - - - - - com.mygdx.game.engine.lifecycle.Main :has
com.mygdx.game.game.screens.game.ResultScreen *- - - - - - com.mygdx.game.game.components.ui.Button :has
@enduml

PlantUML version 1.2022.12(Mon Oct 24 02:12:26 SGT 2022)
(GPL source distribution)
Java Runtime: OpenJDK Runtime Environment
JVM: OpenJDK 64-Bit Server VM
Default Encoding: Cp1252
Language: en
Country: SG
--></g></svg>