<?xml version="1.0" encoding="UTF-8" standalone="no"?><svg xmlns="http://www.w3.org/2000/svg" xmlns:xlink="http://www.w3.org/1999/xlink" contentStyleType="text/css" height="1722px" preserveAspectRatio="none" style="width:1182px;height:1722px;background:#FFFFFF;" version="1.1" viewBox="0 0 1182 1722" width="1182px" zoomAndPan="magnify"><defs><linearGradient id="g1e8y7olcbw2un0" x1="50%" x2="50%" y1="0%" y2="100%"><stop offset="0%" stop-color="#00FFFF"/><stop offset="100%" stop-color="#5F9EA0"/></linearGradient></defs><g><rect fill="url(#g1e8y7olcbw2un0)" height="60.3125" id="_title" rx="7.5" ry="7.5" style="stroke:#FF0000;stroke-width:2.0;" width="1164" x="5" y="5"/><text fill="#000000" font-family="sans-serif" font-size="40" font-weight="bold" lengthAdjust="spacing" textLength="1154" x="10" y="51.5234">Appendix O - StoryboardScreen Class Composition Relations</text><!--MD5=[52537726a308ea51c89174d2bb4d21b2]
cluster com.mygdx.game.game.screens.game--><g id="cluster_com.mygdx.game.game.screens.game"><path d="M473,77.3125 L739,77.3125 A3.75,3.75 0 0 1 741.5,79.8125 L748.5,100.9219 L768,100.9219 A2.5,2.5 0 0 1 770.5,103.4219 L770.5,544.8125 A2.5,2.5 0 0 1 768,547.3125 L473,547.3125 A2.5,2.5 0 0 1 470.5,544.8125 L470.5,79.8125 A2.5,2.5 0 0 1 473,77.3125 " fill="none" style="stroke:#000000;stroke-width:1.5;"/><line style="stroke:#000000;stroke-width:1.5;" x1="470.5" x2="748.5" y1="100.9219" y2="100.9219"/><text fill="#000000" font-family="sans-serif" font-size="14" font-weight="bold" lengthAdjust="spacing" textLength="265" x="474.5" y="93.8457">com.mygdx.game.game.screens.game</text></g><!--MD5=[f5720f8f2d84faa53b7e58c13b303426]
cluster com.mygdx.game.engine.lifecycle--><g id="cluster_com.mygdx.game.engine.lifecycle"><path d="M122,1104.8125 L358,1104.8125 A3.75,3.75 0 0 1 360.5,1107.3125 L367.5,1128.4219 L437,1128.4219 A2.5,2.5 0 0 1 439.5,1130.9219 L439.5,1607.3125 A2.5,2.5 0 0 1 437,1609.8125 L122,1609.8125 A2.5,2.5 0 0 1 119.5,1607.3125 L119.5,1107.3125 A2.5,2.5 0 0 1 122,1104.8125 " fill="none" style="stroke:#000000;stroke-width:1.5;"/><line style="stroke:#000000;stroke-width:1.5;" x1="119.5" x2="367.5" y1="1128.4219" y2="1128.4219"/><text fill="#000000" font-family="sans-serif" font-size="14" font-weight="bold" lengthAdjust="spacing" textLength="235" x="123.5" y="1121.3457">com.mygdx.game.engine.lifecycle</text></g><!--MD5=[683aabdc962ad2ab98ef14c38ed732ec]
cluster com.mygdx.game.game.components.ui--><g id="cluster_com.mygdx.game.game.components.ui"><path d="M480,999.3125 L751,999.3125 A3.75,3.75 0 0 1 753.5,1001.8125 L760.5,1022.9219 L761,1022.9219 A2.5,2.5 0 0 1 763.5,1025.4219 L763.5,1712.8125 A2.5,2.5 0 0 1 761,1715.3125 L480,1715.3125 A2.5,2.5 0 0 1 477.5,1712.8125 L477.5,1001.8125 A2.5,2.5 0 0 1 480,999.3125 " fill="none" style="stroke:#000000;stroke-width:1.5;"/><line style="stroke:#000000;stroke-width:1.5;" x1="477.5" x2="760.5" y1="1022.9219" y2="1022.9219"/><text fill="#000000" font-family="sans-serif" font-size="14" font-weight="bold" lengthAdjust="spacing" textLength="270" x="481.5" y="1015.8457">com.mygdx.game.game.components.ui</text></g><!--MD5=[6d572adab93e1a2768c068c53f7d318b]
cluster com.mygdx.game.engine.input--><g id="cluster_com.mygdx.game.engine.input"><path d="M804,1219.3125 L1018,1219.3125 A3.75,3.75 0 0 1 1020.5,1221.8125 L1027.5,1242.9219 L1065,1242.9219 A2.5,2.5 0 0 1 1067.5,1245.4219 L1067.5,1492.8125 A2.5,2.5 0 0 1 1065,1495.3125 L804,1495.3125 A2.5,2.5 0 0 1 801.5,1492.8125 L801.5,1221.8125 A2.5,2.5 0 0 1 804,1219.3125 " fill="none" style="stroke:#000000;stroke-width:1.5;"/><line style="stroke:#000000;stroke-width:1.5;" x1="801.5" x2="1027.5" y1="1242.9219" y2="1242.9219"/><text fill="#000000" font-family="sans-serif" font-size="14" font-weight="bold" lengthAdjust="spacing" textLength="213" x="805.5" y="1235.8457">com.mygdx.game.engine.input</text></g><!--MD5=[099ba3b3bf2fd77f69073941f7ae8b12]
class com.mygdx.game.game.screens.game.StoryboardScreen--><g id="elem_com.mygdx.game.game.screens.game.StoryboardScreen"><rect codeLine="15" fill="#F1F1F1" height="417.7969" id="com.mygdx.game.game.screens.game.StoryboardScreen" rx="2.5" ry="2.5" style="stroke:#181818;stroke-width:0.5;" width="268" x="486.5" y="113.3125"/><ellipse cx="558.75" cy="129.3125" fill="#ADD1B2" rx="11" ry="11" style="stroke:#181818;stroke-width:1.0;"/><path d="M560.75,125.8125 Q560.9531,125.3125 561.1875,125.0625 Q561.4219,124.8125 561.6875,124.8125 Q562.1563,124.8125 562.4531,125.0938 Q562.75,125.375 562.75,126.0313 L562.75,127.5938 Q562.75,128.25 562.4688,128.5313 Q562.1875,128.8125 561.75,128.8125 Q561.3594,128.8125 561.1094,128.6406 Q560.8594,128.4688 560.75,128.0156 Q560.7031,127.7031 560.5313,127.5313 Q560.2188,127.2031 559.6563,127.0156 Q559.0938,126.8125 558.5313,126.8125 Q557.8281,126.8125 557.2344,127.0938 Q556.6563,127.375 556.2031,128 Q555.75,128.625 555.75,129.4844 L555.75,130.4063 Q555.75,131.4375 556.5938,132.125 Q557.4375,132.8125 558.9375,132.8125 Q559.8281,132.8125 560.4531,132.6094 Q560.8125,132.5 561.2188,132.1406 Q561.4844,131.9375 561.625,131.875 Q561.7656,131.8125 561.9375,131.8125 Q562.2656,131.8125 562.5,132.0781 Q562.75,132.3281 562.75,132.6875 Q562.75,133.0313 562.4063,133.4375 Q561.9063,134.0313 561.1094,134.3594 Q560.0625,134.8125 558.7813,134.8125 Q557.2813,134.8125 556.0781,134.2188 Q555.1094,133.75 554.4219,132.7344 Q553.75,131.7188 553.75,130.5156 L553.75,129.4219 Q553.75,128.1719 554.3438,127.0781 Q554.9531,125.9844 556,125.4063 Q557.0625,124.8125 558.25,124.8125 Q558.9688,124.8125 559.5938,125.0625 Q560.2188,125.3125 560.75,125.8125 Z " fill="#000000"/><text fill="#000000" font-family="sans-serif" font-size="14" lengthAdjust="spacing" textLength="115" x="579.25" y="135.041">StoryboardScreen</text><line style="stroke:#181818;stroke-width:0.5;" x1="487.5" x2="753.5" y1="145.3125" y2="145.3125"/><rect fill="none" height="6" style="stroke:#C82930;stroke-width:1.0;" width="6" x="494.5" y="156.6172"/><text fill="#000000" font-family="sans-serif" font-size="14" lengthAdjust="spacing" textLength="92" x="506.5" y="163.8457">String imgPath</text><rect fill="none" height="6" style="stroke:#C82930;stroke-width:1.0;" width="6" x="494.5" y="174.2266"/><text fill="#000000" font-family="sans-serif" font-size="14" lengthAdjust="spacing" textLength="95" x="506.5" y="181.4551">Texture texture</text><rect fill="none" height="6" style="stroke:#C82930;stroke-width:1.0;" width="6" x="494.5" y="191.8359"/><text fill="#000000" font-family="sans-serif" font-size="14" lengthAdjust="spacing" textLength="112" x="506.5" y="199.0645">SpriteBatch batch</text><rect fill="none" height="6" style="stroke:#C82930;stroke-width:1.0;" width="6" x="494.5" y="209.4453"/><text fill="#000000" font-family="sans-serif" font-size="14" lengthAdjust="spacing" textLength="69" x="506.5" y="216.6738">Main game</text><rect fill="none" height="6" style="stroke:#C82930;stroke-width:1.0;" width="6" x="494.5" y="227.0547"/><text fill="#000000" font-family="sans-serif" font-size="14" lengthAdjust="spacing" textLength="242" x="506.5" y="234.2832">CustomInputProcessor inputProcessor</text><rect fill="none" height="6" style="stroke:#C82930;stroke-width:1.0;" width="6" x="494.5" y="244.6641"/><text fill="#000000" font-family="sans-serif" font-size="14" lengthAdjust="spacing" textLength="184" x="506.5" y="251.8926">OrthographicCamera camera</text><rect fill="none" height="6" style="stroke:#C82930;stroke-width:1.0;" width="6" x="494.5" y="262.2734"/><text fill="#000000" font-family="sans-serif" font-size="14" lengthAdjust="spacing" textLength="112" x="506.5" y="269.502">Button nextButton</text><rect fill="none" height="6" style="stroke:#C82930;stroke-width:1.0;" width="6" x="494.5" y="279.8828"/><text fill="#000000" font-family="sans-serif" font-size="14" lengthAdjust="spacing" textLength="141" x="506.5" y="287.1113">float buttonShowDelay</text><rect fill="none" height="6" style="stroke:#C82930;stroke-width:1.0;" width="6" x="494.5" y="297.4922"/><text fill="#000000" font-family="sans-serif" font-size="14" lengthAdjust="spacing" textLength="180" x="506.5" y="304.7207">Timer.Task buttonShowTask</text><rect fill="none" height="6" style="stroke:#C82930;stroke-width:1.0;" width="6" x="494.5" y="315.1016"/><text fill="#000000" font-family="sans-serif" font-size="14" lengthAdjust="spacing" textLength="64" x="506.5" y="322.3301">int current</text><rect fill="none" height="6" style="stroke:#C82930;stroke-width:1.0;" width="6" x="494.5" y="332.7109"/><text fill="#000000" font-family="sans-serif" font-size="14" lengthAdjust="spacing" textLength="68" x="506.5" y="339.9395">String type</text><line style="stroke:#181818;stroke-width:0.5;" x1="487.5" x2="753.5" y1="347.0156" y2="347.0156"/><ellipse cx="497.5" cy="361.3203" fill="#84BE84" rx="3" ry="3" style="stroke:#038048;stroke-width:1.0;"/><text fill="#000000" font-family="sans-serif" font-size="14" lengthAdjust="spacing" textLength="97" x="506.5" y="365.5488">int getCurrent()</text><ellipse cx="497.5" cy="378.9297" fill="#84BE84" rx="3" ry="3" style="stroke:#038048;stroke-width:1.0;"/><text fill="#000000" font-family="sans-serif" font-size="14" lengthAdjust="spacing" textLength="122" x="506.5" y="383.1582">void setCurrent(int)</text><ellipse cx="497.5" cy="396.5391" fill="#84BE84" rx="3" ry="3" style="stroke:#038048;stroke-width:1.0;"/><text fill="#000000" font-family="sans-serif" font-size="14" lengthAdjust="spacing" textLength="72" x="506.5" y="400.7676">void show()</text><ellipse cx="497.5" cy="414.1484" fill="#84BE84" rx="3" ry="3" style="stroke:#038048;stroke-width:1.0;"/><text fill="#000000" font-family="sans-serif" font-size="14" lengthAdjust="spacing" textLength="109" x="506.5" y="418.377">void render(float)</text><ellipse cx="497.5" cy="431.7578" fill="#84BE84" rx="3" ry="3" style="stroke:#038048;stroke-width:1.0;"/><text fill="#000000" font-family="sans-serif" font-size="14" lengthAdjust="spacing" textLength="111" x="506.5" y="435.9863">void resize(int,int)</text><ellipse cx="497.5" cy="449.3672" fill="#84BE84" rx="3" ry="3" style="stroke:#038048;stroke-width:1.0;"/><text fill="#000000" font-family="sans-serif" font-size="14" lengthAdjust="spacing" textLength="79" x="506.5" y="453.5957">void pause()</text><ellipse cx="497.5" cy="466.9766" fill="#84BE84" rx="3" ry="3" style="stroke:#038048;stroke-width:1.0;"/><text fill="#000000" font-family="sans-serif" font-size="14" lengthAdjust="spacing" textLength="87" x="506.5" y="471.2051">void resume()</text><ellipse cx="497.5" cy="484.5859" fill="#84BE84" rx="3" ry="3" style="stroke:#038048;stroke-width:1.0;"/><text fill="#000000" font-family="sans-serif" font-size="14" lengthAdjust="spacing" textLength="67" x="506.5" y="488.8145">void hide()</text><ellipse cx="497.5" cy="502.1953" fill="#84BE84" rx="3" ry="3" style="stroke:#038048;stroke-width:1.0;"/><text fill="#000000" font-family="sans-serif" font-size="14" lengthAdjust="spacing" textLength="89" x="506.5" y="506.4238">void dispose()</text><ellipse cx="497.5" cy="519.8047" fill="#84BE84" rx="3" ry="3" style="stroke:#038048;stroke-width:1.0;"/><text fill="#000000" font-family="sans-serif" font-size="14" lengthAdjust="spacing" textLength="66" x="506.5" y="524.0332">void next()</text></g><!--MD5=[533628e9c9f667eb08bf66ebfc75b243]
class com.mygdx.game.engine.lifecycle.Main--><g id="elem_com.mygdx.game.engine.lifecycle.Main"><rect codeLine="39" fill="#F1F1F1" height="453.0156" id="com.mygdx.game.engine.lifecycle.Main" rx="2.5" ry="2.5" style="stroke:#181818;stroke-width:0.5;" width="287" x="136" y="1140.8125"/><ellipse cx="260.25" cy="1156.8125" fill="#ADD1B2" rx="11" ry="11" style="stroke:#181818;stroke-width:1.0;"/><path d="M262.25,1153.3125 Q262.4531,1152.8125 262.6875,1152.5625 Q262.9219,1152.3125 263.1875,1152.3125 Q263.6563,1152.3125 263.9531,1152.5938 Q264.25,1152.875 264.25,1153.5313 L264.25,1155.0938 Q264.25,1155.75 263.9688,1156.0313 Q263.6875,1156.3125 263.25,1156.3125 Q262.8594,1156.3125 262.6094,1156.1406 Q262.3594,1155.9688 262.25,1155.5156 Q262.2031,1155.2031 262.0313,1155.0313 Q261.7188,1154.7031 261.1563,1154.5156 Q260.5938,1154.3125 260.0313,1154.3125 Q259.3281,1154.3125 258.7344,1154.5938 Q258.1563,1154.875 257.7031,1155.5 Q257.25,1156.125 257.25,1156.9844 L257.25,1157.9063 Q257.25,1158.9375 258.0938,1159.625 Q258.9375,1160.3125 260.4375,1160.3125 Q261.3281,1160.3125 261.9531,1160.1094 Q262.3125,1160 262.7188,1159.6406 Q262.9844,1159.4375 263.125,1159.375 Q263.2656,1159.3125 263.4375,1159.3125 Q263.7656,1159.3125 264,1159.5781 Q264.25,1159.8281 264.25,1160.1875 Q264.25,1160.5313 263.9063,1160.9375 Q263.4063,1161.5313 262.6094,1161.8594 Q261.5625,1162.3125 260.2813,1162.3125 Q258.7813,1162.3125 257.5781,1161.7188 Q256.6094,1161.25 255.9219,1160.2344 Q255.25,1159.2188 255.25,1158.0156 L255.25,1156.9219 Q255.25,1155.6719 255.8438,1154.5781 Q256.4531,1153.4844 257.5,1152.9063 Q258.5625,1152.3125 259.75,1152.3125 Q260.4688,1152.3125 261.0938,1152.5625 Q261.7188,1152.8125 262.25,1153.3125 Z " fill="#000000"/><text fill="#000000" font-family="sans-serif" font-size="14" lengthAdjust="spacing" textLength="30" x="280.75" y="1162.541">Main</text><line style="stroke:#181818;stroke-width:0.5;" x1="137" x2="422" y1="1172.8125" y2="1172.8125"/><rect fill="none" height="6" style="stroke:#C82930;stroke-width:1.0;" width="6" x="144" y="1184.1172"/><text fill="#000000" font-family="sans-serif" font-size="14" lengthAdjust="spacing" text-decoration="underline" textLength="87" x="156" y="1191.3457">Main instance</text><rect fill="none" height="6" style="stroke:#C82930;stroke-width:1.0;" width="6" x="144" y="1201.7266"/><text fill="#000000" font-family="sans-serif" font-size="14" lengthAdjust="spacing" textLength="204" x="156" y="1208.9551">ScreenManager screenManager</text><rect fill="none" height="6" style="stroke:#C82930;stroke-width:1.0;" width="6" x="144" y="1219.3359"/><text fill="#000000" font-family="sans-serif" font-size="14" lengthAdjust="spacing" textLength="113" x="156" y="1226.5645">Preferences prefs</text><rect fill="none" height="6" style="stroke:#C82930;stroke-width:1.0;" width="6" x="144" y="1236.9453"/><text fill="#000000" font-family="sans-serif" font-size="14" lengthAdjust="spacing" textLength="196" x="156" y="1244.1738">SoundManager soundManager</text><ellipse cx="147" cy="1257.5547" fill="none" rx="3" ry="3" style="stroke:#038048;stroke-width:1.0;"/><text fill="#000000" font-family="sans-serif" font-size="14" lengthAdjust="spacing" textLength="185" x="156" y="1261.7832">EntityManager entityManager</text><rect fill="none" height="6" style="stroke:#C82930;stroke-width:1.0;" width="6" x="144" y="1272.1641"/><text fill="#000000" font-family="sans-serif" font-size="14" lengthAdjust="spacing" textLength="112" x="156" y="1279.3926">SpriteBatch batch</text><rect fill="none" height="6" style="stroke:#C82930;stroke-width:1.0;" width="6" x="144" y="1289.7734"/><text fill="#000000" font-family="sans-serif" font-size="14" lengthAdjust="spacing" textLength="100" x="156" y="1297.002">BitmapFont font</text><ellipse cx="147" cy="1310.3828" fill="none" rx="3" ry="3" style="stroke:#038048;stroke-width:1.0;"/><text fill="#000000" font-family="sans-serif" font-size="14" lengthAdjust="spacing" textLength="69" x="156" y="1314.6113">int HEIGHT</text><ellipse cx="147" cy="1327.9922" fill="none" rx="3" ry="3" style="stroke:#038048;stroke-width:1.0;"/><text fill="#000000" font-family="sans-serif" font-size="14" lengthAdjust="spacing" textLength="63" x="156" y="1332.2207">int WIDTH</text><line style="stroke:#181818;stroke-width:0.5;" x1="137" x2="422" y1="1339.2969" y2="1339.2969"/><ellipse cx="147" cy="1353.6016" fill="#84BE84" rx="3" ry="3" style="stroke:#038048;stroke-width:1.0;"/><text fill="#000000" font-family="sans-serif" font-size="14" lengthAdjust="spacing" text-decoration="underline" textLength="117" x="156" y="1357.8301">Main getInstance()</text><ellipse cx="147" cy="1371.2109" fill="#84BE84" rx="3" ry="3" style="stroke:#038048;stroke-width:1.0;"/><text fill="#000000" font-family="sans-serif" font-size="14" lengthAdjust="spacing" textLength="236" x="156" y="1375.4395">ScreenManager getScreenManager()</text><ellipse cx="147" cy="1388.8203" fill="#84BE84" rx="3" ry="3" style="stroke:#038048;stroke-width:1.0;"/><text fill="#000000" font-family="sans-serif" font-size="14" lengthAdjust="spacing" textLength="261" x="156" y="1393.0488">void setScreenManager(ScreenManager)</text><ellipse cx="147" cy="1406.4297" fill="#84BE84" rx="3" ry="3" style="stroke:#038048;stroke-width:1.0;"/><text fill="#000000" font-family="sans-serif" font-size="14" lengthAdjust="spacing" textLength="228" x="156" y="1410.6582">SoundManager getSoundManager()</text><ellipse cx="147" cy="1424.0391" fill="#84BE84" rx="3" ry="3" style="stroke:#038048;stroke-width:1.0;"/><text fill="#000000" font-family="sans-serif" font-size="14" lengthAdjust="spacing" textLength="253" x="156" y="1428.2676">void setSoundManager(SoundManager)</text><ellipse cx="147" cy="1441.6484" fill="#84BE84" rx="3" ry="3" style="stroke:#038048;stroke-width:1.0;"/><text fill="#000000" font-family="sans-serif" font-size="14" lengthAdjust="spacing" textLength="143" x="156" y="1445.877">SpriteBatch getBatch()</text><ellipse cx="147" cy="1459.2578" fill="#84BE84" rx="3" ry="3" style="stroke:#038048;stroke-width:1.0;"/><text fill="#000000" font-family="sans-serif" font-size="14" lengthAdjust="spacing" textLength="168" x="156" y="1463.4863">void setBatch(SpriteBatch)</text><ellipse cx="147" cy="1476.8672" fill="#84BE84" rx="3" ry="3" style="stroke:#038048;stroke-width:1.0;"/><text fill="#000000" font-family="sans-serif" font-size="14" lengthAdjust="spacing" textLength="135" x="156" y="1481.0957">BitmapFont getFont()</text><ellipse cx="147" cy="1494.4766" fill="#84BE84" rx="3" ry="3" style="stroke:#038048;stroke-width:1.0;"/><text fill="#000000" font-family="sans-serif" font-size="14" lengthAdjust="spacing" textLength="160" x="156" y="1498.7051">void setFont(BitmapFont)</text><ellipse cx="147" cy="1512.0859" fill="#84BE84" rx="3" ry="3" style="stroke:#038048;stroke-width:1.0;"/><text fill="#000000" font-family="sans-serif" font-size="14" lengthAdjust="spacing" textLength="144" x="156" y="1516.3145">Preferences getPrefs()</text><ellipse cx="147" cy="1529.6953" fill="#84BE84" rx="3" ry="3" style="stroke:#038048;stroke-width:1.0;"/><text fill="#000000" font-family="sans-serif" font-size="14" lengthAdjust="spacing" textLength="169" x="156" y="1533.9238">void setPrefs(Preferences)</text><ellipse cx="147" cy="1547.3047" fill="#84BE84" rx="3" ry="3" style="stroke:#038048;stroke-width:1.0;"/><text fill="#000000" font-family="sans-serif" font-size="14" lengthAdjust="spacing" textLength="80" x="156" y="1551.5332">void create()</text><ellipse cx="147" cy="1564.9141" fill="#84BE84" rx="3" ry="3" style="stroke:#038048;stroke-width:1.0;"/><text fill="#000000" font-family="sans-serif" font-size="14" lengthAdjust="spacing" textLength="82" x="156" y="1569.1426">void render()</text><ellipse cx="147" cy="1582.5234" fill="#84BE84" rx="3" ry="3" style="stroke:#038048;stroke-width:1.0;"/><text fill="#000000" font-family="sans-serif" font-size="14" lengthAdjust="spacing" textLength="89" x="156" y="1586.752">void dispose()</text></g><!--MD5=[3de1ccafbb2233cb7ab977d18c48deb3]
class com.mygdx.game.game.components.ui.Button--><g id="elem_com.mygdx.game.game.components.ui.Button"><rect codeLine="65" fill="#F1F1F1" height="664.3281" id="com.mygdx.game.game.components.ui.Button" rx="2.5" ry="2.5" style="stroke:#181818;stroke-width:0.5;" width="194" x="523.5" y="1035.3125"/><ellipse cx="595.75" cy="1051.3125" fill="#ADD1B2" rx="11" ry="11" style="stroke:#181818;stroke-width:1.0;"/><path d="M597.75,1047.8125 Q597.9531,1047.3125 598.1875,1047.0625 Q598.4219,1046.8125 598.6875,1046.8125 Q599.1563,1046.8125 599.4531,1047.0938 Q599.75,1047.375 599.75,1048.0313 L599.75,1049.5938 Q599.75,1050.25 599.4688,1050.5313 Q599.1875,1050.8125 598.75,1050.8125 Q598.3594,1050.8125 598.1094,1050.6406 Q597.8594,1050.4688 597.75,1050.0156 Q597.7031,1049.7031 597.5313,1049.5313 Q597.2188,1049.2031 596.6563,1049.0156 Q596.0938,1048.8125 595.5313,1048.8125 Q594.8281,1048.8125 594.2344,1049.0938 Q593.6563,1049.375 593.2031,1050 Q592.75,1050.625 592.75,1051.4844 L592.75,1052.4063 Q592.75,1053.4375 593.5938,1054.125 Q594.4375,1054.8125 595.9375,1054.8125 Q596.8281,1054.8125 597.4531,1054.6094 Q597.8125,1054.5 598.2188,1054.1406 Q598.4844,1053.9375 598.625,1053.875 Q598.7656,1053.8125 598.9375,1053.8125 Q599.2656,1053.8125 599.5,1054.0781 Q599.75,1054.3281 599.75,1054.6875 Q599.75,1055.0313 599.4063,1055.4375 Q598.9063,1056.0313 598.1094,1056.3594 Q597.0625,1056.8125 595.7813,1056.8125 Q594.2813,1056.8125 593.0781,1056.2188 Q592.1094,1055.75 591.4219,1054.7344 Q590.75,1053.7188 590.75,1052.5156 L590.75,1051.4219 Q590.75,1050.1719 591.3438,1049.0781 Q591.9531,1047.9844 593,1047.4063 Q594.0625,1046.8125 595.25,1046.8125 Q595.9688,1046.8125 596.5938,1047.0625 Q597.2188,1047.3125 597.75,1047.8125 Z " fill="#000000"/><text fill="#000000" font-family="sans-serif" font-size="14" lengthAdjust="spacing" textLength="41" x="616.25" y="1057.041">Button</text><line style="stroke:#181818;stroke-width:0.5;" x1="524.5" x2="716.5" y1="1067.3125" y2="1067.3125"/><rect fill="none" height="6" style="stroke:#C82930;stroke-width:1.0;" width="6" x="531.5" y="1078.6172"/><text fill="#000000" font-family="sans-serif" font-size="14" lengthAdjust="spacing" textLength="69" x="543.5" y="1085.8457">Main game</text><rect fill="none" height="6" style="stroke:#C82930;stroke-width:1.0;" width="6" x="531.5" y="1096.2266"/><text fill="#000000" font-family="sans-serif" font-size="14" lengthAdjust="spacing" textLength="127" x="543.5" y="1103.4551">Rectangle rectangle</text><rect fill="none" height="6" style="stroke:#C82930;stroke-width:1.0;" width="6" x="531.5" y="1113.8359"/><text fill="#000000" font-family="sans-serif" font-size="14" lengthAdjust="spacing" textLength="37" x="543.5" y="1121.0645">float x</text><rect fill="none" height="6" style="stroke:#C82930;stroke-width:1.0;" width="6" x="531.5" y="1131.4453"/><text fill="#000000" font-family="sans-serif" font-size="14" lengthAdjust="spacing" textLength="38" x="543.5" y="1138.6738">float y</text><rect fill="none" height="6" style="stroke:#C82930;stroke-width:1.0;" width="6" x="531.5" y="1149.0547"/><text fill="#000000" font-family="sans-serif" font-size="14" lengthAdjust="spacing" textLength="63" x="543.5" y="1156.2832">float width</text><rect fill="none" height="6" style="stroke:#C82930;stroke-width:1.0;" width="6" x="531.5" y="1166.6641"/><text fill="#000000" font-family="sans-serif" font-size="14" lengthAdjust="spacing" textLength="70" x="543.5" y="1173.8926">float height</text><rect fill="none" height="6" style="stroke:#C82930;stroke-width:1.0;" width="6" x="531.5" y="1184.2734"/><text fill="#000000" font-family="sans-serif" font-size="14" lengthAdjust="spacing" textLength="76" x="543.5" y="1191.502">String name</text><rect fill="none" height="6" style="stroke:#C82930;stroke-width:1.0;" width="6" x="531.5" y="1201.8828"/><text fill="#000000" font-family="sans-serif" font-size="14" lengthAdjust="spacing" textLength="92" x="543.5" y="1209.1113">String imgPath</text><rect fill="none" height="6" style="stroke:#C82930;stroke-width:1.0;" width="6" x="531.5" y="1219.4922"/><text fill="#000000" font-family="sans-serif" font-size="14" lengthAdjust="spacing" textLength="95" x="543.5" y="1226.7207">Texture texture</text><rect fill="none" height="6" style="stroke:#C82930;stroke-width:1.0;" width="6" x="531.5" y="1237.1016"/><text fill="#000000" font-family="sans-serif" font-size="14" lengthAdjust="spacing" textLength="112" x="543.5" y="1244.3301">SpriteBatch batch</text><rect fill="none" height="6" style="stroke:#C82930;stroke-width:1.0;" width="6" x="531.5" y="1254.7109"/><text fill="#000000" font-family="sans-serif" font-size="14" lengthAdjust="spacing" textLength="103" x="543.5" y="1261.9395">boolean visibility</text><rect fill="none" height="6" style="stroke:#C82930;stroke-width:1.0;" width="6" x="531.5" y="1272.3203"/><text fill="#000000" font-family="sans-serif" font-size="14" lengthAdjust="spacing" textLength="76" x="543.5" y="1279.5488">Sprite sprite</text><rect fill="none" height="6" style="stroke:#C82930;stroke-width:1.0;" width="6" x="531.5" y="1289.9297"/><text fill="#000000" font-family="sans-serif" font-size="14" lengthAdjust="spacing" textLength="92" x="543.5" y="1297.1582">boolean active</text><line style="stroke:#181818;stroke-width:0.5;" x1="524.5" x2="716.5" y1="1304.2344" y2="1304.2344"/><ellipse cx="534.5" cy="1318.5391" fill="#84BE84" rx="3" ry="3" style="stroke:#038048;stroke-width:1.0;"/><text fill="#000000" font-family="sans-serif" font-size="14" lengthAdjust="spacing" textLength="130" x="543.5" y="1322.7676">Texture getTexture()</text><ellipse cx="534.5" cy="1336.1484" fill="#84BE84" rx="3" ry="3" style="stroke:#038048;stroke-width:1.0;"/><text fill="#000000" font-family="sans-serif" font-size="14" lengthAdjust="spacing" textLength="155" x="543.5" y="1340.377">void setTexture(Texture)</text><ellipse cx="534.5" cy="1353.7578" fill="#84BE84" rx="3" ry="3" style="stroke:#038048;stroke-width:1.0;"/><text fill="#000000" font-family="sans-serif" font-size="14" lengthAdjust="spacing" textLength="143" x="543.5" y="1357.9863">SpriteBatch getBatch()</text><ellipse cx="534.5" cy="1371.3672" fill="#84BE84" rx="3" ry="3" style="stroke:#038048;stroke-width:1.0;"/><text fill="#000000" font-family="sans-serif" font-size="14" lengthAdjust="spacing" textLength="168" x="543.5" y="1375.5957">void setBatch(SpriteBatch)</text><ellipse cx="534.5" cy="1388.9766" fill="#84BE84" rx="3" ry="3" style="stroke:#038048;stroke-width:1.0;"/><text fill="#000000" font-family="sans-serif" font-size="14" lengthAdjust="spacing" textLength="108" x="543.5" y="1393.2051">Sprite getSprite()</text><ellipse cx="534.5" cy="1406.5859" fill="#84BE84" rx="3" ry="3" style="stroke:#038048;stroke-width:1.0;"/><text fill="#000000" font-family="sans-serif" font-size="14" lengthAdjust="spacing" textLength="133" x="543.5" y="1410.8145">void setSprite(Sprite)</text><ellipse cx="534.5" cy="1424.1953" fill="#84BE84" rx="3" ry="3" style="stroke:#038048;stroke-width:1.0;"/><text fill="#000000" font-family="sans-serif" font-size="14" lengthAdjust="spacing" textLength="135" x="543.5" y="1428.4238">boolean getVisibility()</text><ellipse cx="534.5" cy="1441.8047" fill="#84BE84" rx="3" ry="3" style="stroke:#038048;stroke-width:1.0;"/><text fill="#000000" font-family="sans-serif" font-size="14" lengthAdjust="spacing" textLength="160" x="543.5" y="1446.0332">void setVisibility(boolean)</text><ellipse cx="534.5" cy="1459.4141" fill="#84BE84" rx="3" ry="3" style="stroke:#038048;stroke-width:1.0;"/><text fill="#000000" font-family="sans-serif" font-size="14" lengthAdjust="spacing" textLength="113" x="543.5" y="1463.6426">boolean isActive()</text><ellipse cx="534.5" cy="1477.0234" fill="#84BE84" rx="3" ry="3" style="stroke:#038048;stroke-width:1.0;"/><text fill="#000000" font-family="sans-serif" font-size="14" lengthAdjust="spacing" textLength="148" x="543.5" y="1481.252">void setActive(boolean)</text><ellipse cx="534.5" cy="1494.6328" fill="#84BE84" rx="3" ry="3" style="stroke:#038048;stroke-width:1.0;"/><text fill="#000000" font-family="sans-serif" font-size="14" lengthAdjust="spacing" textLength="168" x="543.5" y="1498.8613">void setButtonColor(Color)</text><ellipse cx="534.5" cy="1512.2422" fill="#84BE84" rx="3" ry="3" style="stroke:#038048;stroke-width:1.0;"/><text fill="#000000" font-family="sans-serif" font-size="14" lengthAdjust="spacing" textLength="69" x="543.5" y="1516.4707">float getX()</text><ellipse cx="534.5" cy="1529.8516" fill="#84BE84" rx="3" ry="3" style="stroke:#038048;stroke-width:1.0;"/><text fill="#000000" font-family="sans-serif" font-size="14" lengthAdjust="spacing" textLength="94" x="543.5" y="1534.0801">void setX(float)</text><ellipse cx="534.5" cy="1547.4609" fill="#84BE84" rx="3" ry="3" style="stroke:#038048;stroke-width:1.0;"/><text fill="#000000" font-family="sans-serif" font-size="14" lengthAdjust="spacing" textLength="70" x="543.5" y="1551.6895">float getY()</text><ellipse cx="534.5" cy="1565.0703" fill="#84BE84" rx="3" ry="3" style="stroke:#038048;stroke-width:1.0;"/><text fill="#000000" font-family="sans-serif" font-size="14" lengthAdjust="spacing" textLength="95" x="543.5" y="1569.2988">void setY(float)</text><ellipse cx="534.5" cy="1582.6797" fill="#84BE84" rx="3" ry="3" style="stroke:#038048;stroke-width:1.0;"/><text fill="#000000" font-family="sans-serif" font-size="14" lengthAdjust="spacing" textLength="97" x="543.5" y="1586.9082">float getWidth()</text><ellipse cx="534.5" cy="1600.2891" fill="#84BE84" rx="3" ry="3" style="stroke:#038048;stroke-width:1.0;"/><text fill="#000000" font-family="sans-serif" font-size="14" lengthAdjust="spacing" textLength="122" x="543.5" y="1604.5176">void setWidth(float)</text><ellipse cx="534.5" cy="1617.8984" fill="#84BE84" rx="3" ry="3" style="stroke:#038048;stroke-width:1.0;"/><text fill="#000000" font-family="sans-serif" font-size="14" lengthAdjust="spacing" textLength="101" x="543.5" y="1622.127">float getHeight()</text><ellipse cx="534.5" cy="1635.5078" fill="#84BE84" rx="3" ry="3" style="stroke:#038048;stroke-width:1.0;"/><text fill="#000000" font-family="sans-serif" font-size="14" lengthAdjust="spacing" textLength="126" x="543.5" y="1639.7363">void setHeight(float)</text><ellipse cx="534.5" cy="1653.1172" fill="#84BE84" rx="3" ry="3" style="stroke:#038048;stroke-width:1.0;"/><text fill="#000000" font-family="sans-serif" font-size="14" lengthAdjust="spacing" textLength="107" x="543.5" y="1657.3457">String getName()</text><ellipse cx="534.5" cy="1670.7266" fill="#84BE84" rx="3" ry="3" style="stroke:#038048;stroke-width:1.0;"/><text fill="#000000" font-family="sans-serif" font-size="14" lengthAdjust="spacing" textLength="132" x="543.5" y="1674.9551">void setName(String)</text><ellipse cx="534.5" cy="1688.3359" fill="#84BE84" rx="3" ry="3" style="stroke:#038048;stroke-width:1.0;"/><text fill="#000000" font-family="sans-serif" font-size="14" lengthAdjust="spacing" textLength="139" x="543.5" y="1692.5645">Rectangle getBound()</text></g><!--MD5=[e28b97f13ebe0e0d0e1b4a0418369900]
class com.mygdx.game.engine.input.CustomInputProcessor--><g id="elem_com.mygdx.game.engine.input.CustomInputProcessor"><rect codeLine="103" fill="#F1F1F1" height="224.0938" id="com.mygdx.game.engine.input.CustomInputProcessor" rx="2.5" ry="2.5" style="stroke:#181818;stroke-width:0.5;" width="234" x="817.5" y="1255.3125"/><ellipse cx="859.05" cy="1271.3125" fill="#ADD1B2" rx="11" ry="11" style="stroke:#181818;stroke-width:1.0;"/><path d="M861.05,1267.8125 Q861.2531,1267.3125 861.4875,1267.0625 Q861.7219,1266.8125 861.9875,1266.8125 Q862.4563,1266.8125 862.7531,1267.0938 Q863.05,1267.375 863.05,1268.0313 L863.05,1269.5938 Q863.05,1270.25 862.7688,1270.5313 Q862.4875,1270.8125 862.05,1270.8125 Q861.6594,1270.8125 861.4094,1270.6406 Q861.1594,1270.4688 861.05,1270.0156 Q861.0031,1269.7031 860.8313,1269.5313 Q860.5188,1269.2031 859.9563,1269.0156 Q859.3938,1268.8125 858.8313,1268.8125 Q858.1281,1268.8125 857.5344,1269.0938 Q856.9563,1269.375 856.5031,1270 Q856.05,1270.625 856.05,1271.4844 L856.05,1272.4063 Q856.05,1273.4375 856.8938,1274.125 Q857.7375,1274.8125 859.2375,1274.8125 Q860.1281,1274.8125 860.7531,1274.6094 Q861.1125,1274.5 861.5188,1274.1406 Q861.7844,1273.9375 861.925,1273.875 Q862.0656,1273.8125 862.2375,1273.8125 Q862.5656,1273.8125 862.8,1274.0781 Q863.05,1274.3281 863.05,1274.6875 Q863.05,1275.0313 862.7063,1275.4375 Q862.2063,1276.0313 861.4094,1276.3594 Q860.3625,1276.8125 859.0813,1276.8125 Q857.5813,1276.8125 856.3781,1276.2188 Q855.4094,1275.75 854.7219,1274.7344 Q854.05,1273.7188 854.05,1272.5156 L854.05,1271.4219 Q854.05,1270.1719 854.6438,1269.0781 Q855.2531,1267.9844 856.3,1267.4063 Q857.3625,1266.8125 858.55,1266.8125 Q859.2688,1266.8125 859.8938,1267.0625 Q860.5188,1267.3125 861.05,1267.8125 Z " fill="#000000"/><text fill="#000000" font-family="sans-serif" font-size="14" lengthAdjust="spacing" textLength="143" x="878.95" y="1277.041">CustomInputProcessor</text><line style="stroke:#181818;stroke-width:0.5;" x1="818.5" x2="1050.5" y1="1287.3125" y2="1287.3125"/><line style="stroke:#181818;stroke-width:0.5;" x1="818.5" x2="1050.5" y1="1295.3125" y2="1295.3125"/><ellipse cx="828.5" cy="1309.6172" fill="#84BE84" rx="3" ry="3" style="stroke:#038048;stroke-width:1.0;"/><text fill="#000000" font-family="sans-serif" font-size="14" lengthAdjust="spacing" textLength="168" x="837.5" y="1313.8457">boolean mouseClicked(int)</text><ellipse cx="828.5" cy="1327.2266" fill="#84BE84" rx="3" ry="3" style="stroke:#038048;stroke-width:1.0;"/><text fill="#000000" font-family="sans-serif" font-size="14" lengthAdjust="spacing" textLength="137" x="837.5" y="1331.4551">boolean keyDown(int)</text><ellipse cx="828.5" cy="1344.8359" fill="#84BE84" rx="3" ry="3" style="stroke:#038048;stroke-width:1.0;"/><text fill="#000000" font-family="sans-serif" font-size="14" lengthAdjust="spacing" textLength="119" x="837.5" y="1349.0645">boolean keyUp(int)</text><ellipse cx="828.5" cy="1362.4453" fill="#84BE84" rx="3" ry="3" style="stroke:#038048;stroke-width:1.0;"/><text fill="#000000" font-family="sans-serif" font-size="14" lengthAdjust="spacing" textLength="155" x="837.5" y="1366.6738">boolean keyTyped(char)</text><ellipse cx="828.5" cy="1380.0547" fill="#84BE84" rx="3" ry="3" style="stroke:#038048;stroke-width:1.0;"/><text fill="#000000" font-family="sans-serif" font-size="14" lengthAdjust="spacing" textLength="207" x="837.5" y="1384.2832">boolean touchDown(int,int,int,int)</text><ellipse cx="828.5" cy="1397.6641" fill="#84BE84" rx="3" ry="3" style="stroke:#038048;stroke-width:1.0;"/><text fill="#000000" font-family="sans-serif" font-size="14" lengthAdjust="spacing" textLength="189" x="837.5" y="1401.8926">boolean touchUp(int,int,int,int)</text><ellipse cx="828.5" cy="1415.2734" fill="#84BE84" rx="3" ry="3" style="stroke:#038048;stroke-width:1.0;"/><text fill="#000000" font-family="sans-serif" font-size="14" lengthAdjust="spacing" textLength="208" x="837.5" y="1419.502">boolean touchDragged(int,int,int)</text><ellipse cx="828.5" cy="1432.8828" fill="#84BE84" rx="3" ry="3" style="stroke:#038048;stroke-width:1.0;"/><text fill="#000000" font-family="sans-serif" font-size="14" lengthAdjust="spacing" textLength="183" x="837.5" y="1437.1113">boolean mouseMoved(int,int)</text><ellipse cx="828.5" cy="1450.4922" fill="#84BE84" rx="3" ry="3" style="stroke:#038048;stroke-width:1.0;"/><text fill="#000000" font-family="sans-serif" font-size="14" lengthAdjust="spacing" textLength="172" x="837.5" y="1454.7207">boolean scrolled(float,float)</text><ellipse cx="828.5" cy="1468.1016" fill="#84BE84" rx="3" ry="3" style="stroke:#038048;stroke-width:1.0;"/><text fill="#000000" font-family="sans-serif" font-size="14" lengthAdjust="spacing" textLength="184" x="837.5" y="1472.3301">boolean mouseHoverOver(T)</text></g><!--MD5=[86cf2645876f506150cb24d447daa162]
reverse link com.mygdx.game.game.screens.game.StoryboardScreen to com.mygdx.game.engine.input.CustomInputProcessor--><g id="link_com.mygdx.game.game.screens.game.StoryboardScreen_com.mygdx.game.engine.input.CustomInputProcessor"><path codeLine="116" d="M736,544.5825 C736,544.5825 736,1367.3125 736,1367.3125 C736,1367.3125 774.33,1367.3125 817.31,1367.3125 " fill="none" id="com.mygdx.game.game.screens.game.StoryboardScreen-backto-com.mygdx.game.engine.input.CustomInputProcessor" style="stroke:#181818;stroke-width:1.0;"/><polygon fill="#181818" points="736,531.5825,732,537.5825,736,543.5825,740,537.5825,736,531.5825" style="stroke:#181818;stroke-width:1.0;"/><text fill="#000000" font-family="sans-serif" font-size="13" lengthAdjust="spacing" textLength="21" x="714" y="993.0976">has</text></g><!--MD5=[c7bdf9161342dbb53c7b7fd3ee45ef69]
reverse link com.mygdx.game.game.screens.game.StoryboardScreen to com.mygdx.game.engine.lifecycle.Main--><g id="link_com.mygdx.game.game.screens.game.StoryboardScreen_com.mygdx.game.engine.lifecycle.Main"><path codeLine="117" d="M505,544.5825 C505,544.5825 505,1367.3125 505,1367.3125 C505,1367.3125 467.6,1367.3125 423.27,1367.3125 " fill="none" id="com.mygdx.game.game.screens.game.StoryboardScreen-backto-com.mygdx.game.engine.lifecycle.Main" style="stroke:#181818;stroke-width:1.0;"/><polygon fill="#181818" points="505,531.5825,501,537.5825,505,543.5825,509,537.5825,505,531.5825" style="stroke:#181818;stroke-width:1.0;"/><text fill="#000000" font-family="sans-serif" font-size="13" lengthAdjust="spacing" textLength="21" x="483" y="993.3076">has</text></g><!--MD5=[a714fb88690787de0acd6c5e51d93ba9]
reverse link com.mygdx.game.game.screens.game.StoryboardScreen to com.mygdx.game.game.components.ui.Button--><g id="link_com.mygdx.game.game.screens.game.StoryboardScreen_com.mygdx.game.game.components.ui.Button"><path codeLine="118" d="M620.5,544.5825 C620.5,544.5825 620.5,1035.2225 620.5,1035.2225 " fill="none" id="com.mygdx.game.game.screens.game.StoryboardScreen-backto-com.mygdx.game.game.components.ui.Button" style="stroke:#181818;stroke-width:1.0;"/><polygon fill="#181818" points="620.5,531.5825,616.5,537.5825,620.5,543.5825,624.5,537.5825,620.5,531.5825" style="stroke:#181818;stroke-width:1.0;"/><text fill="#000000" font-family="sans-serif" font-size="13" lengthAdjust="spacing" textLength="21" x="598.5" y="786.3976">has</text></g><!--MD5=[e2d9cbbb519808e40fb87d4ba5651aed]
@startuml
skinparam linetype polyline
skinparam linetype ortho

skinparam nodesep 100
skinparam ranksep 100

skinparam titleBorderRoundCorner 15
skinparam titleBorderThickness 2
skinparam titleBorderColor red
skinparam titleBackgroundColor Aqua-CadetBlue
skinparam TitleFontSize 40

title Appendix O - StoryboardScreen Class Composition Relations

class com.mygdx.game.game.screens.game.StoryboardScreen {
- String imgPath
- Texture texture
- SpriteBatch batch
- Main game
- CustomInputProcessor inputProcessor
- OrthographicCamera camera
- Button nextButton
- float buttonShowDelay
- Timer.Task buttonShowTask
- int current
- String type
+ int getCurrent()
+ void setCurrent(int)
+ void show()
+ void render(float)
+ void resize(int,int)
+ void pause()
+ void resume()
+ void hide()
+ void dispose()
+ void next()
}

class com.mygdx.game.engine.lifecycle.Main {
- {static} Main instance
- ScreenManager screenManager
- Preferences prefs
- SoundManager soundManager
+ EntityManager entityManager
- SpriteBatch batch
- BitmapFont font
+ int HEIGHT
+ int WIDTH
+ {static} Main getInstance()
+ ScreenManager getScreenManager()
+ void setScreenManager(ScreenManager)
+ SoundManager getSoundManager()
+ void setSoundManager(SoundManager)
+ SpriteBatch getBatch()
+ void setBatch(SpriteBatch)
+ BitmapFont getFont()
+ void setFont(BitmapFont)
+ Preferences getPrefs()
+ void setPrefs(Preferences)
+ void create()
+ void render()
+ void dispose()
}

class com.mygdx.game.game.components.ui.Button {
- Main game
- Rectangle rectangle
- float x
- float y
- float width
- float height
- String name
- String imgPath
- Texture texture
- SpriteBatch batch
- boolean visibility
- Sprite sprite
- boolean active
+ Texture getTexture()
+ void setTexture(Texture)
+ SpriteBatch getBatch()
+ void setBatch(SpriteBatch)
+ Sprite getSprite()
+ void setSprite(Sprite)
+ boolean getVisibility()
+ void setVisibility(boolean)
+ boolean isActive()
+ void setActive(boolean)
+ void setButtonColor(Color)
+ float getX()
+ void setX(float)
+ float getY()
+ void setY(float)
+ float getWidth()
+ void setWidth(float)
+ float getHeight()
+ void setHeight(float)
+ String getName()
+ void setName(String)
+ Rectangle getBound()
}

class com.mygdx.game.engine.input.CustomInputProcessor {
+ boolean mouseClicked(int)
+ boolean keyDown(int)
+ boolean keyUp(int)
+ boolean keyTyped(char)
+ boolean touchDown(int,int,int,int)
+ boolean touchUp(int,int,int,int)
+ boolean touchDragged(int,int,int)
+ boolean mouseMoved(int,int)
+ boolean scrolled(float,float)
+ boolean mouseHoverOver(T)
}

com.mygdx.game.game.screens.game.StoryboardScreen *- - - - - - com.mygdx.game.engine.input.CustomInputProcessor :has
com.mygdx.game.game.screens.game.StoryboardScreen *- - - - - - com.mygdx.game.engine.lifecycle.Main :has
com.mygdx.game.game.screens.game.StoryboardScreen *- - - - - - com.mygdx.game.game.components.ui.Button :has
@enduml

PlantUML version 1.2022.12(Mon Oct 24 02:12:26 SGT 2022)
(GPL source distribution)
Java Runtime: OpenJDK Runtime Environment
JVM: OpenJDK 64-Bit Server VM
Default Encoding: Cp1252
Language: en
Country: SG
--></g></svg>