<?xml version="1.0" encoding="UTF-8" standalone="no"?><svg xmlns="http://www.w3.org/2000/svg" xmlns:xlink="http://www.w3.org/1999/xlink" contentStyleType="text/css" height="495.3px" preserveAspectRatio="none" style="width:332px;height:495px;background:#FFFFFF;" version="1.1" viewBox="0 0 332 495" width="332.4px" zoomAndPan="magnify"><defs><linearGradient id="g10rm7moswoqod0" x1="50%" x2="50%" y1="0%" y2="100%"><stop offset="0%" stop-color="#00FFFF"/><stop offset="100%" stop-color="#5F9EA0"/></linearGradient></defs><g><rect fill="url(#g10rm7moswoqod0)" height="18.0938" id="_title" rx="2.25" ry="2.25" style="stroke:#FF0000;stroke-width:0.6;" width="327" x="1.5" y="1.5"/><text fill="#000000" font-family="sans-serif" font-size="12" font-weight="bold" lengthAdjust="spacing" textLength="324" x="3" y="15.457">Appendix D - ControlScreen Class Composition Relations</text><!--MD5=[52537726a308ea51c89174d2bb4d21b2]
cluster com.mygdx.game.game.screens.game--><g id="cluster_com.mygdx.game.game.screens.game"><path d="M104.4,23.1937 L184.2,23.1937 A1.125,1.125 0 0 1 184.95,23.9437 L187.05,30.2766 L192.9,30.2766 A0.75,0.75 0 0 1 193.65,31.0266 L193.65,142.1437 A0.75,0.75 0 0 1 192.9,142.8937 L104.4,142.8937 A0.75,0.75 0 0 1 103.65,142.1437 L103.65,23.9437 A0.75,0.75 0 0 1 104.4,23.1937 " fill="none" style="stroke:#000000;stroke-width:0.44999999999999996;"/><line style="stroke:#000000;stroke-width:0.44999999999999996;" x1="103.65" x2="187.05" y1="30.2766" y2="30.2766"/><text fill="#000000" font-family="sans-serif" font-size="4.2" font-weight="bold" lengthAdjust="spacing" textLength="79.5" x="104.85" y="28.1537">com.mygdx.game.game.screens.game</text></g><!--MD5=[6d572adab93e1a2768c068c53f7d318b]
cluster com.mygdx.game.engine.input--><g id="cluster_com.mygdx.game.engine.input"><path d="M78,344.4938 L142.2,344.4938 A1.125,1.125 0 0 1 142.95,345.2438 L145.05,351.5766 L156.3,351.5766 A0.75,0.75 0 0 1 157.05,352.3266 L157.05,426.5438 A0.75,0.75 0 0 1 156.3,427.2938 L78,427.2938 A0.75,0.75 0 0 1 77.25,426.5438 L77.25,345.2438 A0.75,0.75 0 0 1 78,344.4938 " fill="none" style="stroke:#000000;stroke-width:0.44999999999999996;"/><line style="stroke:#000000;stroke-width:0.44999999999999996;" x1="77.25" x2="145.05" y1="351.5766" y2="351.5766"/><text fill="#000000" font-family="sans-serif" font-size="4.2" font-weight="bold" lengthAdjust="spacing" textLength="63.9" x="78.45" y="349.4537">com.mygdx.game.engine.input</text></g><!--MD5=[683aabdc962ad2ab98ef14c38ed732ec]
cluster com.mygdx.game.game.components.ui--><g id="cluster_com.mygdx.game.game.components.ui"><path d="M171.6,278.4938 L252.9,278.4938 A1.125,1.125 0 0 1 253.65,279.2438 L255.75,285.5766 L255.9,285.5766 A0.75,0.75 0 0 1 256.65,286.3266 L256.65,492.5438 A0.75,0.75 0 0 1 255.9,493.2938 L171.6,493.2938 A0.75,0.75 0 0 1 170.85,492.5438 L170.85,279.2438 A0.75,0.75 0 0 1 171.6,278.4938 " fill="none" style="stroke:#000000;stroke-width:0.44999999999999996;"/><line style="stroke:#000000;stroke-width:0.44999999999999996;" x1="170.85" x2="255.75" y1="285.5766" y2="285.5766"/><text fill="#000000" font-family="sans-serif" font-size="4.2" font-weight="bold" lengthAdjust="spacing" textLength="81" x="172.05" y="283.4537">com.mygdx.game.game.components.ui</text></g><!--MD5=[5fb0997efcffc5806e5a29bf8d74d568]
class com.mygdx.game.game.screens.game.ControlScreen--><g id="elem_com.mygdx.game.game.screens.game.ControlScreen"><rect codeLine="15" fill="#F1F1F1" height="104.2078" id="com.mygdx.game.game.screens.game.ControlScreen" rx="0.75" ry="0.75" style="stroke:#181818;stroke-width:0.15;" width="80.4" x="108.45" y="33.9938"/><ellipse cx="133.725" cy="38.7937" fill="#ADD1B2" rx="3.3" ry="3.3" style="stroke:#181818;stroke-width:0.3;"/><path d="M134.325,37.7438 Q134.3859,37.5938 134.4562,37.5188 Q134.5266,37.4438 134.6063,37.4438 Q134.7469,37.4438 134.8359,37.5281 Q134.925,37.6125 134.925,37.8094 L134.925,38.2781 Q134.925,38.475 134.8406,38.5594 Q134.7563,38.6438 134.625,38.6438 Q134.5078,38.6438 134.4328,38.5922 Q134.3578,38.5406 134.325,38.4047 Q134.3109,38.3109 134.2594,38.2594 Q134.1656,38.1609 133.9969,38.1047 Q133.8281,38.0437 133.6594,38.0437 Q133.4484,38.0437 133.2703,38.1281 Q133.0969,38.2125 132.9609,38.4 Q132.825,38.5875 132.825,38.8453 L132.825,39.1219 Q132.825,39.4313 133.0781,39.6375 Q133.3312,39.8438 133.7813,39.8438 Q134.0484,39.8438 134.2359,39.7828 Q134.3438,39.75 134.4656,39.6422 Q134.5453,39.5813 134.5875,39.5625 Q134.6297,39.5437 134.6813,39.5437 Q134.7797,39.5437 134.85,39.6234 Q134.925,39.6984 134.925,39.8063 Q134.925,39.9094 134.8219,40.0313 Q134.6719,40.2094 134.4328,40.3078 Q134.1188,40.4438 133.7344,40.4438 Q133.2844,40.4438 132.9234,40.2656 Q132.6328,40.125 132.4266,39.8203 Q132.225,39.5156 132.225,39.1547 L132.225,38.8266 Q132.225,38.4516 132.4031,38.1234 Q132.5859,37.7953 132.9,37.6219 Q133.2188,37.4438 133.575,37.4438 Q133.7906,37.4438 133.9781,37.5188 Q134.1656,37.5938 134.325,37.7438 Z " fill="#000000"/><text fill="#000000" font-family="sans-serif" font-size="4.2" lengthAdjust="spacing" textLength="27.3" x="139.875" y="40.5123">ControlScreen</text><line style="stroke:#181818;stroke-width:0.15;" x1="108.75" x2="188.55" y1="43.5938" y2="43.5938"/><rect fill="none" height="1.8" style="stroke:#C82930;stroke-width:0.3;" width="1.8" x="110.85" y="46.9852"/><text fill="#000000" font-family="sans-serif" font-size="4.2" lengthAdjust="spacing" textLength="27.6" x="114.45" y="49.1537">String imgPath</text><rect fill="none" height="1.8" style="stroke:#C82930;stroke-width:0.3;" width="1.8" x="110.85" y="52.268"/><text fill="#000000" font-family="sans-serif" font-size="4.2" lengthAdjust="spacing" textLength="28.5" x="114.45" y="54.4365">Texture texture</text><rect fill="none" height="1.8" style="stroke:#C82930;stroke-width:0.3;" width="1.8" x="110.85" y="57.5508"/><text fill="#000000" font-family="sans-serif" font-size="4.2" lengthAdjust="spacing" textLength="33.6" x="114.45" y="59.7193">SpriteBatch batch</text><rect fill="none" height="1.8" style="stroke:#C82930;stroke-width:0.3;" width="1.8" x="110.85" y="62.8336"/><text fill="#000000" font-family="sans-serif" font-size="4.2" lengthAdjust="spacing" textLength="20.7" x="114.45" y="65.0021">Main game</text><rect fill="none" height="1.8" style="stroke:#C82930;stroke-width:0.3;" width="1.8" x="110.85" y="68.1164"/><text fill="#000000" font-family="sans-serif" font-size="4.2" lengthAdjust="spacing" textLength="72.6" x="114.45" y="70.285">CustomInputProcessor inputProcessor</text><rect fill="none" height="1.8" style="stroke:#C82930;stroke-width:0.3;" width="1.8" x="110.85" y="73.3992"/><text fill="#000000" font-family="sans-serif" font-size="4.2" lengthAdjust="spacing" textLength="55.2" x="114.45" y="75.5678">OrthographicCamera camera</text><rect fill="none" height="1.8" style="stroke:#C82930;stroke-width:0.3;" width="1.8" x="110.85" y="78.682"/><text fill="#000000" font-family="sans-serif" font-size="4.2" lengthAdjust="spacing" textLength="33.6" x="114.45" y="80.8506">Button playButton</text><rect fill="none" height="1.8" style="stroke:#C82930;stroke-width:0.3;" width="1.8" x="110.85" y="83.9648"/><text fill="#000000" font-family="sans-serif" font-size="4.2" lengthAdjust="spacing" textLength="42.3" x="114.45" y="86.1334">float buttonShowDelay</text><rect fill="none" height="1.8" style="stroke:#C82930;stroke-width:0.3;" width="1.8" x="110.85" y="89.2477"/><text fill="#000000" font-family="sans-serif" font-size="4.2" lengthAdjust="spacing" textLength="54" x="114.45" y="91.4162">Timer.Task buttonShowTask</text><line style="stroke:#181818;stroke-width:0.15;" x1="108.75" x2="188.55" y1="93.5391" y2="93.5391"/><ellipse cx="111.75" cy="97.8305" fill="#84BE84" rx="0.9" ry="0.9" style="stroke:#038048;stroke-width:0.3;"/><text fill="#000000" font-family="sans-serif" font-size="4.2" lengthAdjust="spacing" textLength="21.6" x="114.45" y="99.099">void show()</text><ellipse cx="111.75" cy="103.1133" fill="#84BE84" rx="0.9" ry="0.9" style="stroke:#038048;stroke-width:0.3;"/><text fill="#000000" font-family="sans-serif" font-size="4.2" lengthAdjust="spacing" textLength="32.7" x="114.45" y="104.3818">void render(float)</text><ellipse cx="111.75" cy="108.3961" fill="#84BE84" rx="0.9" ry="0.9" style="stroke:#038048;stroke-width:0.3;"/><text fill="#000000" font-family="sans-serif" font-size="4.2" lengthAdjust="spacing" textLength="33.3" x="114.45" y="109.6646">void resize(int,int)</text><ellipse cx="111.75" cy="113.6789" fill="#84BE84" rx="0.9" ry="0.9" style="stroke:#038048;stroke-width:0.3;"/><text fill="#000000" font-family="sans-serif" font-size="4.2" lengthAdjust="spacing" textLength="23.7" x="114.45" y="114.9475">void pause()</text><ellipse cx="111.75" cy="118.9617" fill="#84BE84" rx="0.9" ry="0.9" style="stroke:#038048;stroke-width:0.3;"/><text fill="#000000" font-family="sans-serif" font-size="4.2" lengthAdjust="spacing" textLength="26.1" x="114.45" y="120.2303">void resume()</text><ellipse cx="111.75" cy="124.2445" fill="#84BE84" rx="0.9" ry="0.9" style="stroke:#038048;stroke-width:0.3;"/><text fill="#000000" font-family="sans-serif" font-size="4.2" lengthAdjust="spacing" textLength="20.1" x="114.45" y="125.5131">void hide()</text><ellipse cx="111.75" cy="129.5273" fill="#84BE84" rx="0.9" ry="0.9" style="stroke:#038048;stroke-width:0.3;"/><text fill="#000000" font-family="sans-serif" font-size="4.2" lengthAdjust="spacing" textLength="26.7" x="114.45" y="130.7959">void dispose()</text><ellipse cx="111.75" cy="134.8102" fill="#84BE84" rx="0.9" ry="0.9" style="stroke:#038048;stroke-width:0.3;"/><text fill="#000000" font-family="sans-serif" font-size="4.2" lengthAdjust="spacing" textLength="19.8" x="114.45" y="136.0787">void play()</text></g><!--MD5=[e28b97f13ebe0e0d0e1b4a0418369900]
class com.mygdx.game.engine.input.CustomInputProcessor--><g id="elem_com.mygdx.game.engine.input.CustomInputProcessor"><rect codeLine="35" fill="#F1F1F1" height="67.2281" id="com.mygdx.game.engine.input.CustomInputProcessor" rx="0.75" ry="0.75" style="stroke:#181818;stroke-width:0.15;" width="70.2" x="82.05" y="355.2938"/><ellipse cx="94.515" cy="360.0938" fill="#ADD1B2" rx="3.3" ry="3.3" style="stroke:#181818;stroke-width:0.3;"/><path d="M95.115,359.0438 Q95.1759,358.8938 95.2463,358.8187 Q95.3166,358.7438 95.3963,358.7438 Q95.5369,358.7438 95.6259,358.8281 Q95.715,358.9125 95.715,359.1094 L95.715,359.5781 Q95.715,359.775 95.6306,359.8594 Q95.5463,359.9437 95.415,359.9437 Q95.2978,359.9437 95.2228,359.8922 Q95.1478,359.8406 95.115,359.7047 Q95.1009,359.6109 95.0494,359.5594 Q94.9556,359.4609 94.7869,359.4047 Q94.6181,359.3438 94.4494,359.3438 Q94.2384,359.3438 94.0603,359.4281 Q93.8869,359.5125 93.7509,359.7 Q93.615,359.8875 93.615,360.1453 L93.615,360.4219 Q93.615,360.7313 93.8681,360.9375 Q94.1213,361.1438 94.5713,361.1438 Q94.8384,361.1438 95.0259,361.0828 Q95.1338,361.05 95.2556,360.9422 Q95.3353,360.8812 95.3775,360.8625 Q95.4197,360.8438 95.4713,360.8438 Q95.5697,360.8438 95.64,360.9234 Q95.715,360.9984 95.715,361.1063 Q95.715,361.2094 95.6119,361.3313 Q95.4619,361.5094 95.2228,361.6078 Q94.9088,361.7438 94.5244,361.7438 Q94.0744,361.7438 93.7134,361.5656 Q93.4228,361.425 93.2166,361.1203 Q93.015,360.8156 93.015,360.4547 L93.015,360.1266 Q93.015,359.7516 93.1931,359.4234 Q93.3759,359.0953 93.69,358.9219 Q94.0088,358.7438 94.365,358.7438 Q94.5806,358.7438 94.7681,358.8187 Q94.9556,358.8938 95.115,359.0438 Z " fill="#000000"/><text fill="#000000" font-family="sans-serif" font-size="4.2" lengthAdjust="spacing" textLength="42.9" x="100.485" y="361.8123">CustomInputProcessor</text><line style="stroke:#181818;stroke-width:0.15;" x1="82.35" x2="151.95" y1="364.8938" y2="364.8938"/><line style="stroke:#181818;stroke-width:0.15;" x1="82.35" x2="151.95" y1="367.2938" y2="367.2938"/><ellipse cx="85.35" cy="371.5852" fill="#84BE84" rx="0.9" ry="0.9" style="stroke:#038048;stroke-width:0.3;"/><text fill="#000000" font-family="sans-serif" font-size="4.2" lengthAdjust="spacing" textLength="50.4" x="88.05" y="372.8537">boolean mouseClicked(int)</text><ellipse cx="85.35" cy="376.868" fill="#84BE84" rx="0.9" ry="0.9" style="stroke:#038048;stroke-width:0.3;"/><text fill="#000000" font-family="sans-serif" font-size="4.2" lengthAdjust="spacing" textLength="41.1" x="88.05" y="378.1365">boolean keyDown(int)</text><ellipse cx="85.35" cy="382.1508" fill="#84BE84" rx="0.9" ry="0.9" style="stroke:#038048;stroke-width:0.3;"/><text fill="#000000" font-family="sans-serif" font-size="4.2" lengthAdjust="spacing" textLength="35.7" x="88.05" y="383.4193">boolean keyUp(int)</text><ellipse cx="85.35" cy="387.4336" fill="#84BE84" rx="0.9" ry="0.9" style="stroke:#038048;stroke-width:0.3;"/><text fill="#000000" font-family="sans-serif" font-size="4.2" lengthAdjust="spacing" textLength="46.5" x="88.05" y="388.7021">boolean keyTyped(char)</text><ellipse cx="85.35" cy="392.7164" fill="#84BE84" rx="0.9" ry="0.9" style="stroke:#038048;stroke-width:0.3;"/><text fill="#000000" font-family="sans-serif" font-size="4.2" lengthAdjust="spacing" textLength="62.1" x="88.05" y="393.985">boolean touchDown(int,int,int,int)</text><ellipse cx="85.35" cy="397.9992" fill="#84BE84" rx="0.9" ry="0.9" style="stroke:#038048;stroke-width:0.3;"/><text fill="#000000" font-family="sans-serif" font-size="4.2" lengthAdjust="spacing" textLength="56.7" x="88.05" y="399.2678">boolean touchUp(int,int,int,int)</text><ellipse cx="85.35" cy="403.282" fill="#84BE84" rx="0.9" ry="0.9" style="stroke:#038048;stroke-width:0.3;"/><text fill="#000000" font-family="sans-serif" font-size="4.2" lengthAdjust="spacing" textLength="62.4" x="88.05" y="404.5506">boolean touchDragged(int,int,int)</text><ellipse cx="85.35" cy="408.5648" fill="#84BE84" rx="0.9" ry="0.9" style="stroke:#038048;stroke-width:0.3;"/><text fill="#000000" font-family="sans-serif" font-size="4.2" lengthAdjust="spacing" textLength="54.9" x="88.05" y="409.8334">boolean mouseMoved(int,int)</text><ellipse cx="85.35" cy="413.8477" fill="#84BE84" rx="0.9" ry="0.9" style="stroke:#038048;stroke-width:0.3;"/><text fill="#000000" font-family="sans-serif" font-size="4.2" lengthAdjust="spacing" textLength="51.6" x="88.05" y="415.1162">boolean scrolled(float,float)</text><ellipse cx="85.35" cy="419.1305" fill="#84BE84" rx="0.9" ry="0.9" style="stroke:#038048;stroke-width:0.3;"/><text fill="#000000" font-family="sans-serif" font-size="4.2" lengthAdjust="spacing" textLength="55.2" x="88.05" y="420.399">boolean mouseHoverOver(T)</text></g><!--MD5=[3de1ccafbb2233cb7ab977d18c48deb3]
class com.mygdx.game.game.components.ui.Button--><g id="elem_com.mygdx.game.game.components.ui.Button"><rect codeLine="48" fill="#F1F1F1" height="199.2984" id="com.mygdx.game.game.components.ui.Button" rx="0.75" ry="0.75" style="stroke:#181818;stroke-width:0.15;" width="58.2" x="182.25" y="289.2938"/><ellipse cx="203.925" cy="294.0938" fill="#ADD1B2" rx="3.3" ry="3.3" style="stroke:#181818;stroke-width:0.3;"/><path d="M204.525,293.0438 Q204.5859,292.8938 204.6563,292.8187 Q204.7266,292.7438 204.8063,292.7438 Q204.9469,292.7438 205.0359,292.8281 Q205.125,292.9125 205.125,293.1094 L205.125,293.5781 Q205.125,293.775 205.0406,293.8594 Q204.9562,293.9437 204.825,293.9437 Q204.7078,293.9437 204.6328,293.8922 Q204.5578,293.8406 204.525,293.7047 Q204.5109,293.6109 204.4594,293.5594 Q204.3656,293.4609 204.1969,293.4047 Q204.0281,293.3438 203.8594,293.3438 Q203.6484,293.3438 203.4703,293.4281 Q203.2969,293.5125 203.1609,293.7 Q203.025,293.8875 203.025,294.1453 L203.025,294.4219 Q203.025,294.7313 203.2781,294.9375 Q203.5313,295.1438 203.9813,295.1438 Q204.2484,295.1438 204.4359,295.0828 Q204.5438,295.05 204.6656,294.9422 Q204.7453,294.8812 204.7875,294.8625 Q204.8297,294.8438 204.8813,294.8438 Q204.9797,294.8438 205.05,294.9234 Q205.125,294.9984 205.125,295.1063 Q205.125,295.2094 205.0219,295.3313 Q204.8719,295.5094 204.6328,295.6078 Q204.3188,295.7438 203.9344,295.7438 Q203.4844,295.7438 203.1234,295.5656 Q202.8328,295.425 202.6266,295.1203 Q202.425,294.8156 202.425,294.4547 L202.425,294.1266 Q202.425,293.7516 202.6031,293.4234 Q202.7859,293.0953 203.1,292.9219 Q203.4188,292.7438 203.775,292.7438 Q203.9906,292.7438 204.1781,292.8187 Q204.3656,292.8938 204.525,293.0438 Z " fill="#000000"/><text fill="#000000" font-family="sans-serif" font-size="4.2" lengthAdjust="spacing" textLength="12.3" x="210.075" y="295.8123">Button</text><line style="stroke:#181818;stroke-width:0.15;" x1="182.55" x2="240.15" y1="298.8938" y2="298.8938"/><rect fill="none" height="1.8" style="stroke:#C82930;stroke-width:0.3;" width="1.8" x="184.65" y="302.2852"/><text fill="#000000" font-family="sans-serif" font-size="4.2" lengthAdjust="spacing" textLength="20.7" x="188.25" y="304.4537">Main game</text><rect fill="none" height="1.8" style="stroke:#C82930;stroke-width:0.3;" width="1.8" x="184.65" y="307.568"/><text fill="#000000" font-family="sans-serif" font-size="4.2" lengthAdjust="spacing" textLength="38.1" x="188.25" y="309.7365">Rectangle rectangle</text><rect fill="none" height="1.8" style="stroke:#C82930;stroke-width:0.3;" width="1.8" x="184.65" y="312.8508"/><text fill="#000000" font-family="sans-serif" font-size="4.2" lengthAdjust="spacing" textLength="11.1" x="188.25" y="315.0193">float x</text><rect fill="none" height="1.8" style="stroke:#C82930;stroke-width:0.3;" width="1.8" x="184.65" y="318.1336"/><text fill="#000000" font-family="sans-serif" font-size="4.2" lengthAdjust="spacing" textLength="11.4" x="188.25" y="320.3021">float y</text><rect fill="none" height="1.8" style="stroke:#C82930;stroke-width:0.3;" width="1.8" x="184.65" y="323.4164"/><text fill="#000000" font-family="sans-serif" font-size="4.2" lengthAdjust="spacing" textLength="18.9" x="188.25" y="325.585">float width</text><rect fill="none" height="1.8" style="stroke:#C82930;stroke-width:0.3;" width="1.8" x="184.65" y="328.6992"/><text fill="#000000" font-family="sans-serif" font-size="4.2" lengthAdjust="spacing" textLength="21" x="188.25" y="330.8678">float height</text><rect fill="none" height="1.8" style="stroke:#C82930;stroke-width:0.3;" width="1.8" x="184.65" y="333.982"/><text fill="#000000" font-family="sans-serif" font-size="4.2" lengthAdjust="spacing" textLength="22.8" x="188.25" y="336.1506">String name</text><rect fill="none" height="1.8" style="stroke:#C82930;stroke-width:0.3;" width="1.8" x="184.65" y="339.2648"/><text fill="#000000" font-family="sans-serif" font-size="4.2" lengthAdjust="spacing" textLength="27.6" x="188.25" y="341.4334">String imgPath</text><rect fill="none" height="1.8" style="stroke:#C82930;stroke-width:0.3;" width="1.8" x="184.65" y="344.5477"/><text fill="#000000" font-family="sans-serif" font-size="4.2" lengthAdjust="spacing" textLength="28.5" x="188.25" y="346.7162">Texture texture</text><rect fill="none" height="1.8" style="stroke:#C82930;stroke-width:0.3;" width="1.8" x="184.65" y="349.8305"/><text fill="#000000" font-family="sans-serif" font-size="4.2" lengthAdjust="spacing" textLength="33.6" x="188.25" y="351.999">SpriteBatch batch</text><rect fill="none" height="1.8" style="stroke:#C82930;stroke-width:0.3;" width="1.8" x="184.65" y="355.1133"/><text fill="#000000" font-family="sans-serif" font-size="4.2" lengthAdjust="spacing" textLength="30.9" x="188.25" y="357.2818">boolean visibility</text><rect fill="none" height="1.8" style="stroke:#C82930;stroke-width:0.3;" width="1.8" x="184.65" y="360.3961"/><text fill="#000000" font-family="sans-serif" font-size="4.2" lengthAdjust="spacing" textLength="22.8" x="188.25" y="362.5646">Sprite sprite</text><rect fill="none" height="1.8" style="stroke:#C82930;stroke-width:0.3;" width="1.8" x="184.65" y="365.6789"/><text fill="#000000" font-family="sans-serif" font-size="4.2" lengthAdjust="spacing" textLength="27.6" x="188.25" y="367.8475">boolean active</text><line style="stroke:#181818;stroke-width:0.15;" x1="182.55" x2="240.15" y1="369.9703" y2="369.9703"/><ellipse cx="185.55" cy="374.2617" fill="#84BE84" rx="0.9" ry="0.9" style="stroke:#038048;stroke-width:0.3;"/><text fill="#000000" font-family="sans-serif" font-size="4.2" lengthAdjust="spacing" textLength="39" x="188.25" y="375.5303">Texture getTexture()</text><ellipse cx="185.55" cy="379.5445" fill="#84BE84" rx="0.9" ry="0.9" style="stroke:#038048;stroke-width:0.3;"/><text fill="#000000" font-family="sans-serif" font-size="4.2" lengthAdjust="spacing" textLength="46.5" x="188.25" y="380.8131">void setTexture(Texture)</text><ellipse cx="185.55" cy="384.8273" fill="#84BE84" rx="0.9" ry="0.9" style="stroke:#038048;stroke-width:0.3;"/><text fill="#000000" font-family="sans-serif" font-size="4.2" lengthAdjust="spacing" textLength="42.9" x="188.25" y="386.0959">SpriteBatch getBatch()</text><ellipse cx="185.55" cy="390.1102" fill="#84BE84" rx="0.9" ry="0.9" style="stroke:#038048;stroke-width:0.3;"/><text fill="#000000" font-family="sans-serif" font-size="4.2" lengthAdjust="spacing" textLength="50.4" x="188.25" y="391.3787">void setBatch(SpriteBatch)</text><ellipse cx="185.55" cy="395.393" fill="#84BE84" rx="0.9" ry="0.9" style="stroke:#038048;stroke-width:0.3;"/><text fill="#000000" font-family="sans-serif" font-size="4.2" lengthAdjust="spacing" textLength="32.4" x="188.25" y="396.6615">Sprite getSprite()</text><ellipse cx="185.55" cy="400.6758" fill="#84BE84" rx="0.9" ry="0.9" style="stroke:#038048;stroke-width:0.3;"/><text fill="#000000" font-family="sans-serif" font-size="4.2" lengthAdjust="spacing" textLength="39.9" x="188.25" y="401.9443">void setSprite(Sprite)</text><ellipse cx="185.55" cy="405.9586" fill="#84BE84" rx="0.9" ry="0.9" style="stroke:#038048;stroke-width:0.3;"/><text fill="#000000" font-family="sans-serif" font-size="4.2" lengthAdjust="spacing" textLength="40.5" x="188.25" y="407.2271">boolean getVisibility()</text><ellipse cx="185.55" cy="411.2414" fill="#84BE84" rx="0.9" ry="0.9" style="stroke:#038048;stroke-width:0.3;"/><text fill="#000000" font-family="sans-serif" font-size="4.2" lengthAdjust="spacing" textLength="48" x="188.25" y="412.51">void setVisibility(boolean)</text><ellipse cx="185.55" cy="416.5242" fill="#84BE84" rx="0.9" ry="0.9" style="stroke:#038048;stroke-width:0.3;"/><text fill="#000000" font-family="sans-serif" font-size="4.2" lengthAdjust="spacing" textLength="33.9" x="188.25" y="417.7928">boolean isActive()</text><ellipse cx="185.55" cy="421.807" fill="#84BE84" rx="0.9" ry="0.9" style="stroke:#038048;stroke-width:0.3;"/><text fill="#000000" font-family="sans-serif" font-size="4.2" lengthAdjust="spacing" textLength="44.4" x="188.25" y="423.0756">void setActive(boolean)</text><ellipse cx="185.55" cy="427.0898" fill="#84BE84" rx="0.9" ry="0.9" style="stroke:#038048;stroke-width:0.3;"/><text fill="#000000" font-family="sans-serif" font-size="4.2" lengthAdjust="spacing" textLength="50.4" x="188.25" y="428.3584">void setButtonColor(Color)</text><ellipse cx="185.55" cy="432.3727" fill="#84BE84" rx="0.9" ry="0.9" style="stroke:#038048;stroke-width:0.3;"/><text fill="#000000" font-family="sans-serif" font-size="4.2" lengthAdjust="spacing" textLength="20.7" x="188.25" y="433.6412">float getX()</text><ellipse cx="185.55" cy="437.6555" fill="#84BE84" rx="0.9" ry="0.9" style="stroke:#038048;stroke-width:0.3;"/><text fill="#000000" font-family="sans-serif" font-size="4.2" lengthAdjust="spacing" textLength="28.2" x="188.25" y="438.924">void setX(float)</text><ellipse cx="185.55" cy="442.9383" fill="#84BE84" rx="0.9" ry="0.9" style="stroke:#038048;stroke-width:0.3;"/><text fill="#000000" font-family="sans-serif" font-size="4.2" lengthAdjust="spacing" textLength="21" x="188.25" y="444.2068">float getY()</text><ellipse cx="185.55" cy="448.2211" fill="#84BE84" rx="0.9" ry="0.9" style="stroke:#038048;stroke-width:0.3;"/><text fill="#000000" font-family="sans-serif" font-size="4.2" lengthAdjust="spacing" textLength="28.5" x="188.25" y="449.4896">void setY(float)</text><ellipse cx="185.55" cy="453.5039" fill="#84BE84" rx="0.9" ry="0.9" style="stroke:#038048;stroke-width:0.3;"/><text fill="#000000" font-family="sans-serif" font-size="4.2" lengthAdjust="spacing" textLength="29.1" x="188.25" y="454.7725">float getWidth()</text><ellipse cx="185.55" cy="458.7867" fill="#84BE84" rx="0.9" ry="0.9" style="stroke:#038048;stroke-width:0.3;"/><text fill="#000000" font-family="sans-serif" font-size="4.2" lengthAdjust="spacing" textLength="36.6" x="188.25" y="460.0553">void setWidth(float)</text><ellipse cx="185.55" cy="464.0695" fill="#84BE84" rx="0.9" ry="0.9" style="stroke:#038048;stroke-width:0.3;"/><text fill="#000000" font-family="sans-serif" font-size="4.2" lengthAdjust="spacing" textLength="30.3" x="188.25" y="465.3381">float getHeight()</text><ellipse cx="185.55" cy="469.3523" fill="#84BE84" rx="0.9" ry="0.9" style="stroke:#038048;stroke-width:0.3;"/><text fill="#000000" font-family="sans-serif" font-size="4.2" lengthAdjust="spacing" textLength="37.8" x="188.25" y="470.6209">void setHeight(float)</text><ellipse cx="185.55" cy="474.6352" fill="#84BE84" rx="0.9" ry="0.9" style="stroke:#038048;stroke-width:0.3;"/><text fill="#000000" font-family="sans-serif" font-size="4.2" lengthAdjust="spacing" textLength="32.1" x="188.25" y="475.9037">String getName()</text><ellipse cx="185.55" cy="479.918" fill="#84BE84" rx="0.9" ry="0.9" style="stroke:#038048;stroke-width:0.3;"/><text fill="#000000" font-family="sans-serif" font-size="4.2" lengthAdjust="spacing" textLength="39.6" x="188.25" y="481.1865">void setName(String)</text><ellipse cx="185.55" cy="485.2008" fill="#84BE84" rx="0.9" ry="0.9" style="stroke:#038048;stroke-width:0.3;"/><text fill="#000000" font-family="sans-serif" font-size="4.2" lengthAdjust="spacing" textLength="41.7" x="188.25" y="486.4693">Rectangle getBound()</text></g><!--MD5=[8dabf44012e0c35cdb962e8d25604219]
reverse link com.mygdx.game.game.screens.game.ControlScreen to com.mygdx.game.engine.input.CustomInputProcessor--><g id="link_com.mygdx.game.game.screens.game.ControlScreen_com.mygdx.game.engine.input.CustomInputProcessor"><path codeLine="86" d="M130.35,142.0057 C130.35,142.0057 130.35,355.2008 130.35,355.2008 " fill="none" id="com.mygdx.game.game.screens.game.ControlScreen-backto-com.mygdx.game.engine.input.CustomInputProcessor" style="stroke:#181818;stroke-width:0.3;"/><polygon fill="#181818" points="130.35,138.1057,129.15,139.9057,130.35,141.7058,131.55,139.9057,130.35,138.1057" style="stroke:#181818;stroke-width:0.3;"/><text fill="#000000" font-family="sans-serif" font-size="3.9" lengthAdjust="spacing" textLength="6.3" x="123.75" y="247.5503">has</text></g><!--MD5=[c085b8a014c9e402b71910a4cba1b60f]
reverse link com.mygdx.game.game.screens.game.ControlScreen to com.mygdx.game.game.components.ui.Button--><g id="link_com.mygdx.game.game.screens.game.ControlScreen_com.mygdx.game.game.components.ui.Button"><path codeLine="87" d="M185.55,142.0057 C185.55,142.0057 185.55,289.2277 185.55,289.2277 " fill="none" id="com.mygdx.game.game.screens.game.ControlScreen-backto-com.mygdx.game.game.components.ui.Button" style="stroke:#181818;stroke-width:0.3;"/><polygon fill="#181818" points="185.55,138.1057,184.35,139.9057,185.55,141.7058,186.75,139.9057,185.55,138.1057" style="stroke:#181818;stroke-width:0.3;"/><text fill="#000000" font-family="sans-serif" font-size="3.9" lengthAdjust="spacing" textLength="6.3" x="178.95" y="214.5653">has</text></g><!--MD5=[8745f7ed98b01e0416a7344ecb79a676]
@startuml
skinparam linetype polyline
skinparam linetype ortho

skinparam nodesep 100
skinparam ranksep 100

skinparam titleBorderRoundCorner 15
skinparam titleBorderThickness 2
skinparam titleBorderColor red
skinparam titleBackgroundColor Aqua-CadetBlue
skinparam TitleFontSize 40

title Appendix D - ControlScreen Class Composition Relations

class com.mygdx.game.game.screens.game.ControlScreen {
- String imgPath
- Texture texture
- SpriteBatch batch
- Main game
- CustomInputProcessor inputProcessor
- OrthographicCamera camera
- Button playButton
- float buttonShowDelay
- Timer.Task buttonShowTask
+ void show()
+ void render(float)
+ void resize(int,int)
+ void pause()
+ void resume()
+ void hide()
+ void dispose()
+ void play()
}

class com.mygdx.game.engine.input.CustomInputProcessor {
+ boolean mouseClicked(int)
+ boolean keyDown(int)
+ boolean keyUp(int)
+ boolean keyTyped(char)
+ boolean touchDown(int,int,int,int)
+ boolean touchUp(int,int,int,int)
+ boolean touchDragged(int,int,int)
+ boolean mouseMoved(int,int)
+ boolean scrolled(float,float)
+ boolean mouseHoverOver(T)
}

class com.mygdx.game.game.components.ui.Button {
- Main game
- Rectangle rectangle
- float x
- float y
- float width
- float height
- String name
- String imgPath
- Texture texture
- SpriteBatch batch
- boolean visibility
- Sprite sprite
- boolean active
+ Texture getTexture()
+ void setTexture(Texture)
+ SpriteBatch getBatch()
+ void setBatch(SpriteBatch)
+ Sprite getSprite()
+ void setSprite(Sprite)
+ boolean getVisibility()
+ void setVisibility(boolean)
+ boolean isActive()
+ void setActive(boolean)
+ void setButtonColor(Color)
+ float getX()
+ void setX(float)
+ float getY()
+ void setY(float)
+ float getWidth()
+ void setWidth(float)
+ float getHeight()
+ void setHeight(float)
+ String getName()
+ void setName(String)
+ Rectangle getBound()
}

com.mygdx.game.game.screens.game.ControlScreen *- - - - - - com.mygdx.game.engine.input.CustomInputProcessor :has
com.mygdx.game.game.screens.game.ControlScreen *- - - - - - com.mygdx.game.game.components.ui.Button :has
@enduml

PlantUML version 1.2022.12(Mon Oct 24 02:12:26 SGT 2022)
(GPL source distribution)
Java Runtime: OpenJDK Runtime Environment
JVM: OpenJDK 64-Bit Server VM
Default Encoding: Cp1252
Language: en
Country: SG
--></g></svg>