<?xml version="1.0" encoding="UTF-8" standalone="no"?><svg xmlns="http://www.w3.org/2000/svg" xmlns:xlink="http://www.w3.org/1999/xlink" contentStyleType="text/css" height="500.7px" preserveAspectRatio="none" style="width:349px;height:500px;background:#FFFFFF;" version="1.1" viewBox="0 0 349 500" width="349.2px" zoomAndPan="magnify"><defs><linearGradient id="g1rif17syzjlro0" x1="50%" x2="50%" y1="0%" y2="100%"><stop offset="0%" stop-color="#00FFFF"/><stop offset="100%" stop-color="#5F9EA0"/></linearGradient></defs><g><rect fill="url(#g1rif17syzjlro0)" height="18.0938" id="_title" rx="2.25" ry="2.25" style="stroke:#FF0000;stroke-width:0.6;" width="343.8" x="1.5" y="1.5"/><text fill="#000000" font-family="sans-serif" font-size="12" font-weight="bold" lengthAdjust="spacing" textLength="340.8" x="3" y="15.457">Appendix F - GameOverScreen Class Composition Relations</text><!--MD5=[52537726a308ea51c89174d2bb4d21b2]
cluster com.mygdx.game.game.screens.game--><g id="cluster_com.mygdx.game.game.screens.game"><path d="M123,23.1937 L202.8,23.1937 A1.125,1.125 0 0 1 203.55,23.9437 L205.65,30.2766 L228.3,30.2766 A0.75,0.75 0 0 1 229.05,31.0266 L229.05,147.5438 A0.75,0.75 0 0 1 228.3,148.2938 L123,148.2938 A0.75,0.75 0 0 1 122.25,147.5438 L122.25,23.9437 A0.75,0.75 0 0 1 123,23.1937 " fill="none" style="stroke:#000000;stroke-width:0.44999999999999996;"/><line style="stroke:#000000;stroke-width:0.44999999999999996;" x1="122.25" x2="205.65" y1="30.2766" y2="30.2766"/><text fill="#000000" font-family="sans-serif" font-size="4.2" font-weight="bold" lengthAdjust="spacing" textLength="79.5" x="123.45" y="28.1537">com.mygdx.game.game.screens.game</text></g><!--MD5=[6d572adab93e1a2768c068c53f7d318b]
cluster com.mygdx.game.engine.input--><g id="cluster_com.mygdx.game.engine.input"><path d="M28.2,349.8938 L92.4,349.8938 A1.125,1.125 0 0 1 93.15,350.6438 L95.25,356.9766 L106.5,356.9766 A0.75,0.75 0 0 1 107.25,357.7266 L107.25,431.9437 A0.75,0.75 0 0 1 106.5,432.6937 L28.2,432.6937 A0.75,0.75 0 0 1 27.45,431.9437 L27.45,350.6438 A0.75,0.75 0 0 1 28.2,349.8938 " fill="none" style="stroke:#000000;stroke-width:0.44999999999999996;"/><line style="stroke:#000000;stroke-width:0.44999999999999996;" x1="27.45" x2="95.25" y1="356.9766" y2="356.9766"/><text fill="#000000" font-family="sans-serif" font-size="4.2" font-weight="bold" lengthAdjust="spacing" textLength="63.9" x="28.65" y="354.8537">com.mygdx.game.engine.input</text></g><!--MD5=[f5720f8f2d84faa53b7e58c13b303426]
cluster com.mygdx.game.engine.lifecycle--><g id="cluster_com.mygdx.game.engine.lifecycle"><path d="M128.4,315.5438 L199.2,315.5438 A1.125,1.125 0 0 1 199.95,316.2938 L202.05,322.6266 L222.9,322.6266 A0.75,0.75 0 0 1 223.65,323.3766 L223.65,466.2938 A0.75,0.75 0 0 1 222.9,467.0438 L128.4,467.0438 A0.75,0.75 0 0 1 127.65,466.2938 L127.65,316.2938 A0.75,0.75 0 0 1 128.4,315.5438 " fill="none" style="stroke:#000000;stroke-width:0.44999999999999996;"/><line style="stroke:#000000;stroke-width:0.44999999999999996;" x1="127.65" x2="202.05" y1="322.6266" y2="322.6266"/><text fill="#000000" font-family="sans-serif" font-size="4.2" font-weight="bold" lengthAdjust="spacing" textLength="70.5" x="128.85" y="320.5037">com.mygdx.game.engine.lifecycle</text></g><!--MD5=[683aabdc962ad2ab98ef14c38ed732ec]
cluster com.mygdx.game.game.components.ui--><g id="cluster_com.mygdx.game.game.components.ui"><path d="M238.2,283.8938 L319.5,283.8938 A1.125,1.125 0 0 1 320.25,284.6438 L322.35,290.9766 L322.5,290.9766 A0.75,0.75 0 0 1 323.25,291.7266 L323.25,497.9437 A0.75,0.75 0 0 1 322.5,498.6937 L238.2,498.6937 A0.75,0.75 0 0 1 237.45,497.9437 L237.45,284.6438 A0.75,0.75 0 0 1 238.2,283.8938 " fill="none" style="stroke:#000000;stroke-width:0.44999999999999996;"/><line style="stroke:#000000;stroke-width:0.44999999999999996;" x1="237.45" x2="322.35" y1="290.9766" y2="290.9766"/><text fill="#000000" font-family="sans-serif" font-size="4.2" font-weight="bold" lengthAdjust="spacing" textLength="81" x="238.65" y="288.8537">com.mygdx.game.game.components.ui</text></g><!--MD5=[9e531a89b869a9ab86c8b27a7d3d01b7]
class com.mygdx.game.game.screens.game.GameOverScreen--><g id="elem_com.mygdx.game.game.screens.game.GameOverScreen"><rect codeLine="15" fill="#F1F1F1" height="109.4906" id="com.mygdx.game.game.screens.game.GameOverScreen" rx="0.75" ry="0.75" style="stroke:#181818;stroke-width:0.15;" width="96.9" x="127.2" y="33.9938"/><ellipse cx="157.275" cy="38.7937" fill="#ADD1B2" rx="3.3" ry="3.3" style="stroke:#181818;stroke-width:0.3;"/><path d="M157.875,37.7438 Q157.9359,37.5938 158.0063,37.5188 Q158.0766,37.4438 158.1563,37.4438 Q158.2969,37.4438 158.3859,37.5281 Q158.475,37.6125 158.475,37.8094 L158.475,38.2781 Q158.475,38.475 158.3906,38.5594 Q158.3063,38.6438 158.175,38.6438 Q158.0578,38.6438 157.9828,38.5922 Q157.9078,38.5406 157.875,38.4047 Q157.8609,38.3109 157.8094,38.2594 Q157.7156,38.1609 157.5469,38.1047 Q157.3781,38.0437 157.2094,38.0437 Q156.9984,38.0437 156.8203,38.1281 Q156.6469,38.2125 156.5109,38.4 Q156.375,38.5875 156.375,38.8453 L156.375,39.1219 Q156.375,39.4313 156.6281,39.6375 Q156.8813,39.8438 157.3312,39.8438 Q157.5984,39.8438 157.7859,39.7828 Q157.8937,39.75 158.0156,39.6422 Q158.0953,39.5813 158.1375,39.5625 Q158.1797,39.5437 158.2313,39.5437 Q158.3297,39.5437 158.4,39.6234 Q158.475,39.6984 158.475,39.8063 Q158.475,39.9094 158.3719,40.0313 Q158.2219,40.2094 157.9828,40.3078 Q157.6688,40.4438 157.2844,40.4438 Q156.8344,40.4438 156.4734,40.2656 Q156.1828,40.125 155.9766,39.8203 Q155.775,39.5156 155.775,39.1547 L155.775,38.8266 Q155.775,38.4516 155.9531,38.1234 Q156.1359,37.7953 156.45,37.6219 Q156.7687,37.4438 157.125,37.4438 Q157.3406,37.4438 157.5281,37.5188 Q157.7156,37.5938 157.875,37.7438 Z " fill="#000000"/><text fill="#000000" font-family="sans-serif" font-size="4.2" lengthAdjust="spacing" textLength="34.2" x="163.425" y="40.5123">GameOverScreen</text><line style="stroke:#181818;stroke-width:0.15;" x1="127.5" x2="223.8" y1="43.5938" y2="43.5938"/><rect fill="none" height="1.8" style="stroke:#C82930;stroke-width:0.3;" width="1.8" x="129.6" y="46.9852"/><text fill="#000000" font-family="sans-serif" font-size="4.2" lengthAdjust="spacing" textLength="33.6" x="133.2" y="49.1537">SpriteBatch batch</text><rect fill="none" height="1.8" style="stroke:#C82930;stroke-width:0.3;" width="1.8" x="129.6" y="52.268"/><text fill="#000000" font-family="sans-serif" font-size="4.2" lengthAdjust="spacing" textLength="28.5" x="133.2" y="54.4365">Texture texture</text><rect fill="none" height="1.8" style="stroke:#C82930;stroke-width:0.3;" width="1.8" x="129.6" y="57.5508"/><text fill="#000000" font-family="sans-serif" font-size="4.2" lengthAdjust="spacing" textLength="72.6" x="133.2" y="59.7193">CustomInputProcessor inputProcessor</text><rect fill="none" height="1.8" style="stroke:#C82930;stroke-width:0.3;" width="1.8" x="129.6" y="62.8336"/><text fill="#000000" font-family="sans-serif" font-size="4.2" lengthAdjust="spacing" textLength="20.7" x="133.2" y="65.0021">Main game</text><rect fill="none" height="1.8" style="stroke:#C82930;stroke-width:0.3;" width="1.8" x="129.6" y="68.1164"/><text fill="#000000" font-family="sans-serif" font-size="4.2" lengthAdjust="spacing" textLength="49.2" x="133.2" y="70.285">ArrayList&lt;Button&gt; buttons</text><rect fill="none" height="1.8" style="stroke:#C82930;stroke-width:0.3;" width="1.8" x="129.6" y="73.3992"/><text fill="#000000" font-family="sans-serif" font-size="4.2" lengthAdjust="spacing" textLength="54.6" x="133.2" y="75.5678">ArrayList&lt;String&gt; buttonPath</text><line style="stroke:#181818;stroke-width:0.15;" x1="127.5" x2="223.8" y1="77.6906" y2="77.6906"/><ellipse cx="130.5" cy="81.982" fill="#84BE84" rx="0.9" ry="0.9" style="stroke:#038048;stroke-width:0.3;"/><text fill="#000000" font-family="sans-serif" font-size="4.2" lengthAdjust="spacing" textLength="81.6" x="133.2" y="83.2506">CustomInputProcessor getInputProcessor()</text><ellipse cx="130.5" cy="87.2648" fill="#84BE84" rx="0.9" ry="0.9" style="stroke:#038048;stroke-width:0.3;"/><text fill="#000000" font-family="sans-serif" font-size="4.2" lengthAdjust="spacing" textLength="89.1" x="133.2" y="88.5334">void setInputProcessor(CustomInputProcessor)</text><ellipse cx="130.5" cy="92.5477" fill="#84BE84" rx="0.9" ry="0.9" style="stroke:#038048;stroke-width:0.3;"/><text fill="#000000" font-family="sans-serif" font-size="4.2" lengthAdjust="spacing" textLength="58.5" x="133.2" y="93.8162">ArrayList&lt;Button&gt; getButtons()</text><ellipse cx="130.5" cy="97.8305" fill="#84BE84" rx="0.9" ry="0.9" style="stroke:#038048;stroke-width:0.3;"/><text fill="#000000" font-family="sans-serif" font-size="4.2" lengthAdjust="spacing" textLength="66" x="133.2" y="99.099">void setButtons(ArrayList&lt;Button&gt;)</text><ellipse cx="130.5" cy="103.1133" fill="#84BE84" rx="0.9" ry="0.9" style="stroke:#038048;stroke-width:0.3;"/><text fill="#000000" font-family="sans-serif" font-size="4.2" lengthAdjust="spacing" textLength="21.6" x="133.2" y="104.3818">void show()</text><ellipse cx="130.5" cy="108.3961" fill="#84BE84" rx="0.9" ry="0.9" style="stroke:#038048;stroke-width:0.3;"/><text fill="#000000" font-family="sans-serif" font-size="4.2" lengthAdjust="spacing" textLength="32.7" x="133.2" y="109.6646">void render(float)</text><ellipse cx="130.5" cy="113.6789" fill="#84BE84" rx="0.9" ry="0.9" style="stroke:#038048;stroke-width:0.3;"/><text fill="#000000" font-family="sans-serif" font-size="4.2" lengthAdjust="spacing" textLength="33.3" x="133.2" y="114.9475">void resize(int,int)</text><ellipse cx="130.5" cy="118.9617" fill="#84BE84" rx="0.9" ry="0.9" style="stroke:#038048;stroke-width:0.3;"/><text fill="#000000" font-family="sans-serif" font-size="4.2" lengthAdjust="spacing" textLength="23.7" x="133.2" y="120.2303">void pause()</text><ellipse cx="130.5" cy="124.2445" fill="#84BE84" rx="0.9" ry="0.9" style="stroke:#038048;stroke-width:0.3;"/><text fill="#000000" font-family="sans-serif" font-size="4.2" lengthAdjust="spacing" textLength="26.1" x="133.2" y="125.5131">void resume()</text><ellipse cx="130.5" cy="129.5273" fill="#84BE84" rx="0.9" ry="0.9" style="stroke:#038048;stroke-width:0.3;"/><text fill="#000000" font-family="sans-serif" font-size="4.2" lengthAdjust="spacing" textLength="20.1" x="133.2" y="130.7959">void hide()</text><ellipse cx="130.5" cy="134.8102" fill="#84BE84" rx="0.9" ry="0.9" style="stroke:#038048;stroke-width:0.3;"/><text fill="#000000" font-family="sans-serif" font-size="4.2" lengthAdjust="spacing" textLength="26.7" x="133.2" y="136.0787">void dispose()</text><ellipse cx="130.5" cy="140.093" fill="#84BE84" rx="0.9" ry="0.9" style="stroke:#038048;stroke-width:0.3;"/><text fill="#000000" font-family="sans-serif" font-size="4.2" lengthAdjust="spacing" textLength="18.9" x="133.2" y="141.3615">void quit()</text></g><!--MD5=[e28b97f13ebe0e0d0e1b4a0418369900]
class com.mygdx.game.engine.input.CustomInputProcessor--><g id="elem_com.mygdx.game.engine.input.CustomInputProcessor"><rect codeLine="36" fill="#F1F1F1" height="67.2281" id="com.mygdx.game.engine.input.CustomInputProcessor" rx="0.75" ry="0.75" style="stroke:#181818;stroke-width:0.15;" width="70.2" x="32.25" y="360.6937"/><ellipse cx="44.715" cy="365.4938" fill="#ADD1B2" rx="3.3" ry="3.3" style="stroke:#181818;stroke-width:0.3;"/><path d="M45.315,364.4437 Q45.3759,364.2938 45.4463,364.2188 Q45.5166,364.1438 45.5963,364.1438 Q45.7369,364.1438 45.8259,364.2281 Q45.915,364.3125 45.915,364.5094 L45.915,364.9781 Q45.915,365.175 45.8306,365.2594 Q45.7463,365.3438 45.615,365.3438 Q45.4978,365.3438 45.4228,365.2922 Q45.3478,365.2406 45.315,365.1047 Q45.3009,365.0109 45.2494,364.9594 Q45.1556,364.8609 44.9869,364.8047 Q44.8181,364.7438 44.6494,364.7438 Q44.4384,364.7438 44.2603,364.8281 Q44.0869,364.9125 43.9509,365.1 Q43.815,365.2875 43.815,365.5453 L43.815,365.8219 Q43.815,366.1312 44.0681,366.3375 Q44.3213,366.5438 44.7713,366.5438 Q45.0384,366.5438 45.2259,366.4828 Q45.3338,366.45 45.4556,366.3422 Q45.5353,366.2813 45.5775,366.2625 Q45.6197,366.2438 45.6713,366.2438 Q45.7697,366.2438 45.84,366.3234 Q45.915,366.3984 45.915,366.5062 Q45.915,366.6094 45.8119,366.7313 Q45.6619,366.9094 45.4228,367.0078 Q45.1088,367.1438 44.7244,367.1438 Q44.2744,367.1438 43.9134,366.9656 Q43.6228,366.825 43.4166,366.5203 Q43.215,366.2156 43.215,365.8547 L43.215,365.5266 Q43.215,365.1516 43.3931,364.8234 Q43.5759,364.4953 43.89,364.3219 Q44.2088,364.1438 44.565,364.1438 Q44.7806,364.1438 44.9681,364.2188 Q45.1556,364.2938 45.315,364.4437 Z " fill="#000000"/><text fill="#000000" font-family="sans-serif" font-size="4.2" lengthAdjust="spacing" textLength="42.9" x="50.685" y="367.2123">CustomInputProcessor</text><line style="stroke:#181818;stroke-width:0.15;" x1="32.55" x2="102.15" y1="370.2938" y2="370.2938"/><line style="stroke:#181818;stroke-width:0.15;" x1="32.55" x2="102.15" y1="372.6937" y2="372.6937"/><ellipse cx="35.55" cy="376.9852" fill="#84BE84" rx="0.9" ry="0.9" style="stroke:#038048;stroke-width:0.3;"/><text fill="#000000" font-family="sans-serif" font-size="4.2" lengthAdjust="spacing" textLength="50.4" x="38.25" y="378.2537">boolean mouseClicked(int)</text><ellipse cx="35.55" cy="382.268" fill="#84BE84" rx="0.9" ry="0.9" style="stroke:#038048;stroke-width:0.3;"/><text fill="#000000" font-family="sans-serif" font-size="4.2" lengthAdjust="spacing" textLength="41.1" x="38.25" y="383.5365">boolean keyDown(int)</text><ellipse cx="35.55" cy="387.5508" fill="#84BE84" rx="0.9" ry="0.9" style="stroke:#038048;stroke-width:0.3;"/><text fill="#000000" font-family="sans-serif" font-size="4.2" lengthAdjust="spacing" textLength="35.7" x="38.25" y="388.8193">boolean keyUp(int)</text><ellipse cx="35.55" cy="392.8336" fill="#84BE84" rx="0.9" ry="0.9" style="stroke:#038048;stroke-width:0.3;"/><text fill="#000000" font-family="sans-serif" font-size="4.2" lengthAdjust="spacing" textLength="46.5" x="38.25" y="394.1021">boolean keyTyped(char)</text><ellipse cx="35.55" cy="398.1164" fill="#84BE84" rx="0.9" ry="0.9" style="stroke:#038048;stroke-width:0.3;"/><text fill="#000000" font-family="sans-serif" font-size="4.2" lengthAdjust="spacing" textLength="62.1" x="38.25" y="399.385">boolean touchDown(int,int,int,int)</text><ellipse cx="35.55" cy="403.3992" fill="#84BE84" rx="0.9" ry="0.9" style="stroke:#038048;stroke-width:0.3;"/><text fill="#000000" font-family="sans-serif" font-size="4.2" lengthAdjust="spacing" textLength="56.7" x="38.25" y="404.6678">boolean touchUp(int,int,int,int)</text><ellipse cx="35.55" cy="408.682" fill="#84BE84" rx="0.9" ry="0.9" style="stroke:#038048;stroke-width:0.3;"/><text fill="#000000" font-family="sans-serif" font-size="4.2" lengthAdjust="spacing" textLength="62.4" x="38.25" y="409.9506">boolean touchDragged(int,int,int)</text><ellipse cx="35.55" cy="413.9648" fill="#84BE84" rx="0.9" ry="0.9" style="stroke:#038048;stroke-width:0.3;"/><text fill="#000000" font-family="sans-serif" font-size="4.2" lengthAdjust="spacing" textLength="54.9" x="38.25" y="415.2334">boolean mouseMoved(int,int)</text><ellipse cx="35.55" cy="419.2477" fill="#84BE84" rx="0.9" ry="0.9" style="stroke:#038048;stroke-width:0.3;"/><text fill="#000000" font-family="sans-serif" font-size="4.2" lengthAdjust="spacing" textLength="51.6" x="38.25" y="420.5162">boolean scrolled(float,float)</text><ellipse cx="35.55" cy="424.5305" fill="#84BE84" rx="0.9" ry="0.9" style="stroke:#038048;stroke-width:0.3;"/><text fill="#000000" font-family="sans-serif" font-size="4.2" lengthAdjust="spacing" textLength="55.2" x="38.25" y="425.799">boolean mouseHoverOver(T)</text></g><!--MD5=[533628e9c9f667eb08bf66ebfc75b243]
class com.mygdx.game.engine.lifecycle.Main--><g id="elem_com.mygdx.game.engine.lifecycle.Main"><rect codeLine="49" fill="#F1F1F1" height="135.9047" id="com.mygdx.game.engine.lifecycle.Main" rx="0.75" ry="0.75" style="stroke:#181818;stroke-width:0.15;" width="86.1" x="132.6" y="326.3438"/><ellipse cx="169.875" cy="331.1438" fill="#ADD1B2" rx="3.3" ry="3.3" style="stroke:#181818;stroke-width:0.3;"/><path d="M170.475,330.0938 Q170.5359,329.9437 170.6063,329.8688 Q170.6766,329.7938 170.7563,329.7938 Q170.8969,329.7938 170.9859,329.8781 Q171.075,329.9625 171.075,330.1594 L171.075,330.6281 Q171.075,330.825 170.9906,330.9094 Q170.9063,330.9938 170.775,330.9938 Q170.6578,330.9938 170.5828,330.9422 Q170.5078,330.8906 170.475,330.7547 Q170.4609,330.6609 170.4094,330.6094 Q170.3156,330.5109 170.1469,330.4547 Q169.9781,330.3938 169.8094,330.3938 Q169.5984,330.3938 169.4203,330.4781 Q169.2469,330.5625 169.1109,330.75 Q168.975,330.9375 168.975,331.1953 L168.975,331.4719 Q168.975,331.7813 169.2281,331.9875 Q169.4813,332.1937 169.9313,332.1937 Q170.1984,332.1937 170.3859,332.1328 Q170.4938,332.1 170.6156,331.9922 Q170.6953,331.9313 170.7375,331.9125 Q170.7797,331.8938 170.8312,331.8938 Q170.9297,331.8938 171,331.9734 Q171.075,332.0484 171.075,332.1563 Q171.075,332.2594 170.9719,332.3812 Q170.8219,332.5594 170.5828,332.6578 Q170.2687,332.7938 169.8844,332.7938 Q169.4344,332.7938 169.0734,332.6156 Q168.7828,332.475 168.5766,332.1703 Q168.375,331.8656 168.375,331.5047 L168.375,331.1766 Q168.375,330.8016 168.5531,330.4734 Q168.7359,330.1453 169.05,329.9719 Q169.3688,329.7938 169.725,329.7938 Q169.9406,329.7938 170.1281,329.8688 Q170.3156,329.9437 170.475,330.0938 Z " fill="#000000"/><text fill="#000000" font-family="sans-serif" font-size="4.2" lengthAdjust="spacing" textLength="9" x="176.025" y="332.8623">Main</text><line style="stroke:#181818;stroke-width:0.15;" x1="132.9" x2="218.4" y1="335.9437" y2="335.9437"/><rect fill="none" height="1.8" style="stroke:#C82930;stroke-width:0.3;" width="1.8" x="135" y="339.3352"/><text fill="#000000" font-family="sans-serif" font-size="4.2" lengthAdjust="spacing" text-decoration="underline" textLength="26.1" x="138.6" y="341.5037">Main instance</text><rect fill="none" height="1.8" style="stroke:#C82930;stroke-width:0.3;" width="1.8" x="135" y="344.618"/><text fill="#000000" font-family="sans-serif" font-size="4.2" lengthAdjust="spacing" textLength="61.2" x="138.6" y="346.7865">ScreenManager screenManager</text><rect fill="none" height="1.8" style="stroke:#C82930;stroke-width:0.3;" width="1.8" x="135" y="349.9008"/><text fill="#000000" font-family="sans-serif" font-size="4.2" lengthAdjust="spacing" textLength="33.9" x="138.6" y="352.0693">Preferences prefs</text><rect fill="none" height="1.8" style="stroke:#C82930;stroke-width:0.3;" width="1.8" x="135" y="355.1836"/><text fill="#000000" font-family="sans-serif" font-size="4.2" lengthAdjust="spacing" textLength="58.8" x="138.6" y="357.3521">SoundManager soundManager</text><ellipse cx="135.9" cy="361.3664" fill="none" rx="0.9" ry="0.9" style="stroke:#038048;stroke-width:0.3;"/><text fill="#000000" font-family="sans-serif" font-size="4.2" lengthAdjust="spacing" textLength="55.5" x="138.6" y="362.635">EntityManager entityManager</text><rect fill="none" height="1.8" style="stroke:#C82930;stroke-width:0.3;" width="1.8" x="135" y="365.7492"/><text fill="#000000" font-family="sans-serif" font-size="4.2" lengthAdjust="spacing" textLength="33.6" x="138.6" y="367.9178">SpriteBatch batch</text><rect fill="none" height="1.8" style="stroke:#C82930;stroke-width:0.3;" width="1.8" x="135" y="371.032"/><text fill="#000000" font-family="sans-serif" font-size="4.2" lengthAdjust="spacing" textLength="30" x="138.6" y="373.2006">BitmapFont font</text><ellipse cx="135.9" cy="377.2148" fill="none" rx="0.9" ry="0.9" style="stroke:#038048;stroke-width:0.3;"/><text fill="#000000" font-family="sans-serif" font-size="4.2" lengthAdjust="spacing" textLength="20.7" x="138.6" y="378.4834">int HEIGHT</text><ellipse cx="135.9" cy="382.4977" fill="none" rx="0.9" ry="0.9" style="stroke:#038048;stroke-width:0.3;"/><text fill="#000000" font-family="sans-serif" font-size="4.2" lengthAdjust="spacing" textLength="18.9" x="138.6" y="383.7662">int WIDTH</text><line style="stroke:#181818;stroke-width:0.15;" x1="132.9" x2="218.4" y1="385.8891" y2="385.8891"/><ellipse cx="135.9" cy="390.1805" fill="#84BE84" rx="0.9" ry="0.9" style="stroke:#038048;stroke-width:0.3;"/><text fill="#000000" font-family="sans-serif" font-size="4.2" lengthAdjust="spacing" text-decoration="underline" textLength="35.1" x="138.6" y="391.449">Main getInstance()</text><ellipse cx="135.9" cy="395.4633" fill="#84BE84" rx="0.9" ry="0.9" style="stroke:#038048;stroke-width:0.3;"/><text fill="#000000" font-family="sans-serif" font-size="4.2" lengthAdjust="spacing" textLength="70.8" x="138.6" y="396.7318">ScreenManager getScreenManager()</text><ellipse cx="135.9" cy="400.7461" fill="#84BE84" rx="0.9" ry="0.9" style="stroke:#038048;stroke-width:0.3;"/><text fill="#000000" font-family="sans-serif" font-size="4.2" lengthAdjust="spacing" textLength="78.3" x="138.6" y="402.0146">void setScreenManager(ScreenManager)</text><ellipse cx="135.9" cy="406.0289" fill="#84BE84" rx="0.9" ry="0.9" style="stroke:#038048;stroke-width:0.3;"/><text fill="#000000" font-family="sans-serif" font-size="4.2" lengthAdjust="spacing" textLength="68.4" x="138.6" y="407.2975">SoundManager getSoundManager()</text><ellipse cx="135.9" cy="411.3117" fill="#84BE84" rx="0.9" ry="0.9" style="stroke:#038048;stroke-width:0.3;"/><text fill="#000000" font-family="sans-serif" font-size="4.2" lengthAdjust="spacing" textLength="75.9" x="138.6" y="412.5803">void setSoundManager(SoundManager)</text><ellipse cx="135.9" cy="416.5945" fill="#84BE84" rx="0.9" ry="0.9" style="stroke:#038048;stroke-width:0.3;"/><text fill="#000000" font-family="sans-serif" font-size="4.2" lengthAdjust="spacing" textLength="42.9" x="138.6" y="417.8631">SpriteBatch getBatch()</text><ellipse cx="135.9" cy="421.8773" fill="#84BE84" rx="0.9" ry="0.9" style="stroke:#038048;stroke-width:0.3;"/><text fill="#000000" font-family="sans-serif" font-size="4.2" lengthAdjust="spacing" textLength="50.4" x="138.6" y="423.1459">void setBatch(SpriteBatch)</text><ellipse cx="135.9" cy="427.1602" fill="#84BE84" rx="0.9" ry="0.9" style="stroke:#038048;stroke-width:0.3;"/><text fill="#000000" font-family="sans-serif" font-size="4.2" lengthAdjust="spacing" textLength="40.5" x="138.6" y="428.4287">BitmapFont getFont()</text><ellipse cx="135.9" cy="432.443" fill="#84BE84" rx="0.9" ry="0.9" style="stroke:#038048;stroke-width:0.3;"/><text fill="#000000" font-family="sans-serif" font-size="4.2" lengthAdjust="spacing" textLength="48" x="138.6" y="433.7115">void setFont(BitmapFont)</text><ellipse cx="135.9" cy="437.7258" fill="#84BE84" rx="0.9" ry="0.9" style="stroke:#038048;stroke-width:0.3;"/><text fill="#000000" font-family="sans-serif" font-size="4.2" lengthAdjust="spacing" textLength="43.2" x="138.6" y="438.9943">Preferences getPrefs()</text><ellipse cx="135.9" cy="443.0086" fill="#84BE84" rx="0.9" ry="0.9" style="stroke:#038048;stroke-width:0.3;"/><text fill="#000000" font-family="sans-serif" font-size="4.2" lengthAdjust="spacing" textLength="50.7" x="138.6" y="444.2771">void setPrefs(Preferences)</text><ellipse cx="135.9" cy="448.2914" fill="#84BE84" rx="0.9" ry="0.9" style="stroke:#038048;stroke-width:0.3;"/><text fill="#000000" font-family="sans-serif" font-size="4.2" lengthAdjust="spacing" textLength="24" x="138.6" y="449.56">void create()</text><ellipse cx="135.9" cy="453.5742" fill="#84BE84" rx="0.9" ry="0.9" style="stroke:#038048;stroke-width:0.3;"/><text fill="#000000" font-family="sans-serif" font-size="4.2" lengthAdjust="spacing" textLength="24.6" x="138.6" y="454.8428">void render()</text><ellipse cx="135.9" cy="458.857" fill="#84BE84" rx="0.9" ry="0.9" style="stroke:#038048;stroke-width:0.3;"/><text fill="#000000" font-family="sans-serif" font-size="4.2" lengthAdjust="spacing" textLength="26.7" x="138.6" y="460.1256">void dispose()</text></g><!--MD5=[3de1ccafbb2233cb7ab977d18c48deb3]
class com.mygdx.game.game.components.ui.Button--><g id="elem_com.mygdx.game.game.components.ui.Button"><rect codeLine="75" fill="#F1F1F1" height="199.2984" id="com.mygdx.game.game.components.ui.Button" rx="0.75" ry="0.75" style="stroke:#181818;stroke-width:0.15;" width="58.2" x="248.85" y="294.6937"/><ellipse cx="270.525" cy="299.4938" fill="#ADD1B2" rx="3.3" ry="3.3" style="stroke:#181818;stroke-width:0.3;"/><path d="M271.125,298.4437 Q271.1859,298.2938 271.2562,298.2188 Q271.3266,298.1438 271.4063,298.1438 Q271.5469,298.1438 271.6359,298.2281 Q271.725,298.3125 271.725,298.5094 L271.725,298.9781 Q271.725,299.175 271.6406,299.2594 Q271.5563,299.3438 271.425,299.3438 Q271.3078,299.3438 271.2328,299.2922 Q271.1578,299.2406 271.125,299.1047 Q271.1109,299.0109 271.0594,298.9594 Q270.9656,298.8609 270.7969,298.8047 Q270.6281,298.7438 270.4594,298.7438 Q270.2484,298.7438 270.0703,298.8281 Q269.8969,298.9125 269.7609,299.1 Q269.625,299.2875 269.625,299.5453 L269.625,299.8219 Q269.625,300.1312 269.8781,300.3375 Q270.1312,300.5438 270.5813,300.5438 Q270.8484,300.5438 271.0359,300.4828 Q271.1438,300.45 271.2656,300.3422 Q271.3453,300.2813 271.3875,300.2625 Q271.4297,300.2438 271.4813,300.2438 Q271.5797,300.2438 271.65,300.3234 Q271.725,300.3984 271.725,300.5062 Q271.725,300.6094 271.6219,300.7313 Q271.4719,300.9094 271.2328,301.0078 Q270.9188,301.1438 270.5344,301.1438 Q270.0844,301.1438 269.7234,300.9656 Q269.4328,300.825 269.2266,300.5203 Q269.025,300.2156 269.025,299.8547 L269.025,299.5266 Q269.025,299.1516 269.2031,298.8234 Q269.3859,298.4953 269.7,298.3219 Q270.0188,298.1438 270.375,298.1438 Q270.5906,298.1438 270.7781,298.2188 Q270.9656,298.2938 271.125,298.4437 Z " fill="#000000"/><text fill="#000000" font-family="sans-serif" font-size="4.2" lengthAdjust="spacing" textLength="12.3" x="276.675" y="301.2123">Button</text><line style="stroke:#181818;stroke-width:0.15;" x1="249.15" x2="306.75" y1="304.2938" y2="304.2938"/><rect fill="none" height="1.8" style="stroke:#C82930;stroke-width:0.3;" width="1.8" x="251.25" y="307.6852"/><text fill="#000000" font-family="sans-serif" font-size="4.2" lengthAdjust="spacing" textLength="20.7" x="254.85" y="309.8537">Main game</text><rect fill="none" height="1.8" style="stroke:#C82930;stroke-width:0.3;" width="1.8" x="251.25" y="312.968"/><text fill="#000000" font-family="sans-serif" font-size="4.2" lengthAdjust="spacing" textLength="38.1" x="254.85" y="315.1365">Rectangle rectangle</text><rect fill="none" height="1.8" style="stroke:#C82930;stroke-width:0.3;" width="1.8" x="251.25" y="318.2508"/><text fill="#000000" font-family="sans-serif" font-size="4.2" lengthAdjust="spacing" textLength="11.1" x="254.85" y="320.4193">float x</text><rect fill="none" height="1.8" style="stroke:#C82930;stroke-width:0.3;" width="1.8" x="251.25" y="323.5336"/><text fill="#000000" font-family="sans-serif" font-size="4.2" lengthAdjust="spacing" textLength="11.4" x="254.85" y="325.7021">float y</text><rect fill="none" height="1.8" style="stroke:#C82930;stroke-width:0.3;" width="1.8" x="251.25" y="328.8164"/><text fill="#000000" font-family="sans-serif" font-size="4.2" lengthAdjust="spacing" textLength="18.9" x="254.85" y="330.985">float width</text><rect fill="none" height="1.8" style="stroke:#C82930;stroke-width:0.3;" width="1.8" x="251.25" y="334.0992"/><text fill="#000000" font-family="sans-serif" font-size="4.2" lengthAdjust="spacing" textLength="21" x="254.85" y="336.2678">float height</text><rect fill="none" height="1.8" style="stroke:#C82930;stroke-width:0.3;" width="1.8" x="251.25" y="339.382"/><text fill="#000000" font-family="sans-serif" font-size="4.2" lengthAdjust="spacing" textLength="22.8" x="254.85" y="341.5506">String name</text><rect fill="none" height="1.8" style="stroke:#C82930;stroke-width:0.3;" width="1.8" x="251.25" y="344.6648"/><text fill="#000000" font-family="sans-serif" font-size="4.2" lengthAdjust="spacing" textLength="27.6" x="254.85" y="346.8334">String imgPath</text><rect fill="none" height="1.8" style="stroke:#C82930;stroke-width:0.3;" width="1.8" x="251.25" y="349.9477"/><text fill="#000000" font-family="sans-serif" font-size="4.2" lengthAdjust="spacing" textLength="28.5" x="254.85" y="352.1162">Texture texture</text><rect fill="none" height="1.8" style="stroke:#C82930;stroke-width:0.3;" width="1.8" x="251.25" y="355.2305"/><text fill="#000000" font-family="sans-serif" font-size="4.2" lengthAdjust="spacing" textLength="33.6" x="254.85" y="357.399">SpriteBatch batch</text><rect fill="none" height="1.8" style="stroke:#C82930;stroke-width:0.3;" width="1.8" x="251.25" y="360.5133"/><text fill="#000000" font-family="sans-serif" font-size="4.2" lengthAdjust="spacing" textLength="30.9" x="254.85" y="362.6818">boolean visibility</text><rect fill="none" height="1.8" style="stroke:#C82930;stroke-width:0.3;" width="1.8" x="251.25" y="365.7961"/><text fill="#000000" font-family="sans-serif" font-size="4.2" lengthAdjust="spacing" textLength="22.8" x="254.85" y="367.9646">Sprite sprite</text><rect fill="none" height="1.8" style="stroke:#C82930;stroke-width:0.3;" width="1.8" x="251.25" y="371.0789"/><text fill="#000000" font-family="sans-serif" font-size="4.2" lengthAdjust="spacing" textLength="27.6" x="254.85" y="373.2475">boolean active</text><line style="stroke:#181818;stroke-width:0.15;" x1="249.15" x2="306.75" y1="375.3703" y2="375.3703"/><ellipse cx="252.15" cy="379.6617" fill="#84BE84" rx="0.9" ry="0.9" style="stroke:#038048;stroke-width:0.3;"/><text fill="#000000" font-family="sans-serif" font-size="4.2" lengthAdjust="spacing" textLength="39" x="254.85" y="380.9303">Texture getTexture()</text><ellipse cx="252.15" cy="384.9445" fill="#84BE84" rx="0.9" ry="0.9" style="stroke:#038048;stroke-width:0.3;"/><text fill="#000000" font-family="sans-serif" font-size="4.2" lengthAdjust="spacing" textLength="46.5" x="254.85" y="386.2131">void setTexture(Texture)</text><ellipse cx="252.15" cy="390.2273" fill="#84BE84" rx="0.9" ry="0.9" style="stroke:#038048;stroke-width:0.3;"/><text fill="#000000" font-family="sans-serif" font-size="4.2" lengthAdjust="spacing" textLength="42.9" x="254.85" y="391.4959">SpriteBatch getBatch()</text><ellipse cx="252.15" cy="395.5102" fill="#84BE84" rx="0.9" ry="0.9" style="stroke:#038048;stroke-width:0.3;"/><text fill="#000000" font-family="sans-serif" font-size="4.2" lengthAdjust="spacing" textLength="50.4" x="254.85" y="396.7787">void setBatch(SpriteBatch)</text><ellipse cx="252.15" cy="400.793" fill="#84BE84" rx="0.9" ry="0.9" style="stroke:#038048;stroke-width:0.3;"/><text fill="#000000" font-family="sans-serif" font-size="4.2" lengthAdjust="spacing" textLength="32.4" x="254.85" y="402.0615">Sprite getSprite()</text><ellipse cx="252.15" cy="406.0758" fill="#84BE84" rx="0.9" ry="0.9" style="stroke:#038048;stroke-width:0.3;"/><text fill="#000000" font-family="sans-serif" font-size="4.2" lengthAdjust="spacing" textLength="39.9" x="254.85" y="407.3443">void setSprite(Sprite)</text><ellipse cx="252.15" cy="411.3586" fill="#84BE84" rx="0.9" ry="0.9" style="stroke:#038048;stroke-width:0.3;"/><text fill="#000000" font-family="sans-serif" font-size="4.2" lengthAdjust="spacing" textLength="40.5" x="254.85" y="412.6271">boolean getVisibility()</text><ellipse cx="252.15" cy="416.6414" fill="#84BE84" rx="0.9" ry="0.9" style="stroke:#038048;stroke-width:0.3;"/><text fill="#000000" font-family="sans-serif" font-size="4.2" lengthAdjust="spacing" textLength="48" x="254.85" y="417.91">void setVisibility(boolean)</text><ellipse cx="252.15" cy="421.9242" fill="#84BE84" rx="0.9" ry="0.9" style="stroke:#038048;stroke-width:0.3;"/><text fill="#000000" font-family="sans-serif" font-size="4.2" lengthAdjust="spacing" textLength="33.9" x="254.85" y="423.1928">boolean isActive()</text><ellipse cx="252.15" cy="427.207" fill="#84BE84" rx="0.9" ry="0.9" style="stroke:#038048;stroke-width:0.3;"/><text fill="#000000" font-family="sans-serif" font-size="4.2" lengthAdjust="spacing" textLength="44.4" x="254.85" y="428.4756">void setActive(boolean)</text><ellipse cx="252.15" cy="432.4898" fill="#84BE84" rx="0.9" ry="0.9" style="stroke:#038048;stroke-width:0.3;"/><text fill="#000000" font-family="sans-serif" font-size="4.2" lengthAdjust="spacing" textLength="50.4" x="254.85" y="433.7584">void setButtonColor(Color)</text><ellipse cx="252.15" cy="437.7727" fill="#84BE84" rx="0.9" ry="0.9" style="stroke:#038048;stroke-width:0.3;"/><text fill="#000000" font-family="sans-serif" font-size="4.2" lengthAdjust="spacing" textLength="20.7" x="254.85" y="439.0412">float getX()</text><ellipse cx="252.15" cy="443.0555" fill="#84BE84" rx="0.9" ry="0.9" style="stroke:#038048;stroke-width:0.3;"/><text fill="#000000" font-family="sans-serif" font-size="4.2" lengthAdjust="spacing" textLength="28.2" x="254.85" y="444.324">void setX(float)</text><ellipse cx="252.15" cy="448.3383" fill="#84BE84" rx="0.9" ry="0.9" style="stroke:#038048;stroke-width:0.3;"/><text fill="#000000" font-family="sans-serif" font-size="4.2" lengthAdjust="spacing" textLength="21" x="254.85" y="449.6068">float getY()</text><ellipse cx="252.15" cy="453.6211" fill="#84BE84" rx="0.9" ry="0.9" style="stroke:#038048;stroke-width:0.3;"/><text fill="#000000" font-family="sans-serif" font-size="4.2" lengthAdjust="spacing" textLength="28.5" x="254.85" y="454.8896">void setY(float)</text><ellipse cx="252.15" cy="458.9039" fill="#84BE84" rx="0.9" ry="0.9" style="stroke:#038048;stroke-width:0.3;"/><text fill="#000000" font-family="sans-serif" font-size="4.2" lengthAdjust="spacing" textLength="29.1" x="254.85" y="460.1725">float getWidth()</text><ellipse cx="252.15" cy="464.1867" fill="#84BE84" rx="0.9" ry="0.9" style="stroke:#038048;stroke-width:0.3;"/><text fill="#000000" font-family="sans-serif" font-size="4.2" lengthAdjust="spacing" textLength="36.6" x="254.85" y="465.4553">void setWidth(float)</text><ellipse cx="252.15" cy="469.4695" fill="#84BE84" rx="0.9" ry="0.9" style="stroke:#038048;stroke-width:0.3;"/><text fill="#000000" font-family="sans-serif" font-size="4.2" lengthAdjust="spacing" textLength="30.3" x="254.85" y="470.7381">float getHeight()</text><ellipse cx="252.15" cy="474.7523" fill="#84BE84" rx="0.9" ry="0.9" style="stroke:#038048;stroke-width:0.3;"/><text fill="#000000" font-family="sans-serif" font-size="4.2" lengthAdjust="spacing" textLength="37.8" x="254.85" y="476.0209">void setHeight(float)</text><ellipse cx="252.15" cy="480.0352" fill="#84BE84" rx="0.9" ry="0.9" style="stroke:#038048;stroke-width:0.3;"/><text fill="#000000" font-family="sans-serif" font-size="4.2" lengthAdjust="spacing" textLength="32.1" x="254.85" y="481.3037">String getName()</text><ellipse cx="252.15" cy="485.318" fill="#84BE84" rx="0.9" ry="0.9" style="stroke:#038048;stroke-width:0.3;"/><text fill="#000000" font-family="sans-serif" font-size="4.2" lengthAdjust="spacing" textLength="39.6" x="254.85" y="486.5865">void setName(String)</text><ellipse cx="252.15" cy="490.6008" fill="#84BE84" rx="0.9" ry="0.9" style="stroke:#038048;stroke-width:0.3;"/><text fill="#000000" font-family="sans-serif" font-size="4.2" lengthAdjust="spacing" textLength="41.7" x="254.85" y="491.8693">Rectangle getBound()</text></g><!--MD5=[c6bf84b3b4281d9742a515711460ec53]
reverse link com.mygdx.game.game.screens.game.GameOverScreen to com.mygdx.game.engine.input.CustomInputProcessor--><g id="link_com.mygdx.game.game.screens.game.GameOverScreen_com.mygdx.game.engine.input.CustomInputProcessor"><path codeLine="113" d="M129.9,147.4478 C129.9,147.4478 129.9,394.2938 129.9,394.2938 C129.9,394.2938 116.724,394.2938 102.465,394.2938 " fill="none" id="com.mygdx.game.game.screens.game.GameOverScreen-backto-com.mygdx.game.engine.input.CustomInputProcessor" style="stroke:#181818;stroke-width:0.3;"/><polygon fill="#181818" points="129.9,143.5478,128.7,145.3478,129.9,147.1478,131.1,145.3478,129.9,143.5478" style="stroke:#181818;stroke-width:0.3;"/><text fill="#000000" font-family="sans-serif" font-size="3.9" lengthAdjust="spacing" textLength="6.3" x="123.3" y="283.5353">has</text></g><!--MD5=[88975a7b2bb760155f6fdae3c53c1ba5]
reverse link com.mygdx.game.game.screens.game.GameOverScreen to com.mygdx.game.engine.lifecycle.Main--><g id="link_com.mygdx.game.game.screens.game.GameOverScreen_com.mygdx.game.engine.lifecycle.Main"><path codeLine="114" d="M175.65,147.4478 C175.65,147.4478 175.65,326.3198 175.65,326.3198 " fill="none" id="com.mygdx.game.game.screens.game.GameOverScreen-backto-com.mygdx.game.engine.lifecycle.Main" style="stroke:#181818;stroke-width:0.3;"/><polygon fill="#181818" points="175.65,143.5478,174.45,145.3478,175.65,147.1478,176.85,145.3478,175.65,143.5478" style="stroke:#181818;stroke-width:0.3;"/><text fill="#000000" font-family="sans-serif" font-size="3.9" lengthAdjust="spacing" textLength="6.3" x="169.05" y="235.8323">has</text></g><!--MD5=[0c7fa3af61b693d3c9e731e27396de9d]
reverse link com.mygdx.game.game.screens.game.GameOverScreen to com.mygdx.game.game.components.ui.Button--><g id="link_com.mygdx.game.game.screens.game.GameOverScreen_com.mygdx.game.game.components.ui.Button"><path codeLine="115" d="M221.4,147.4838 C221.4,147.4838 221.4,310.5938 221.4,310.5938 C221.4,310.5938 234.99,310.5938 248.847,310.5938 " fill="none" id="com.mygdx.game.game.screens.game.GameOverScreen-backto-com.mygdx.game.game.components.ui.Button" style="stroke:#181818;stroke-width:0.3;"/><polygon fill="#181818" points="221.4,143.5837,220.2,145.3838,221.4,147.1837,222.6,145.3838,221.4,143.5837" style="stroke:#181818;stroke-width:0.3;"/><text fill="#000000" font-family="sans-serif" font-size="3.9" lengthAdjust="spacing" textLength="17.1" x="204" y="241.7093">has many</text></g><!--MD5=[d3e96d15f4dc6a7ac540efbe39939504]
@startuml
skinparam linetype polyline
skinparam linetype ortho

skinparam nodesep 100
skinparam ranksep 100

skinparam titleBorderRoundCorner 15
skinparam titleBorderThickness 2
skinparam titleBorderColor red
skinparam titleBackgroundColor Aqua-CadetBlue
skinparam TitleFontSize 40

title Appendix F - GameOverScreen Class Composition Relations

class com.mygdx.game.game.screens.game.GameOverScreen {
- SpriteBatch batch
- Texture texture
- CustomInputProcessor inputProcessor
- Main game
- ArrayList<Button> buttons
- ArrayList<String> buttonPath
+ CustomInputProcessor getInputProcessor()
+ void setInputProcessor(CustomInputProcessor)
+ ArrayList<Button> getButtons()
+ void setButtons(ArrayList<Button>)
+ void show()
+ void render(float)
+ void resize(int,int)
+ void pause()
+ void resume()
+ void hide()
+ void dispose()
+ void quit()
}

class com.mygdx.game.engine.input.CustomInputProcessor {
+ boolean mouseClicked(int)
+ boolean keyDown(int)
+ boolean keyUp(int)
+ boolean keyTyped(char)
+ boolean touchDown(int,int,int,int)
+ boolean touchUp(int,int,int,int)
+ boolean touchDragged(int,int,int)
+ boolean mouseMoved(int,int)
+ boolean scrolled(float,float)
+ boolean mouseHoverOver(T)
}

class com.mygdx.game.engine.lifecycle.Main {
- {static} Main instance
- ScreenManager screenManager
- Preferences prefs
- SoundManager soundManager
+ EntityManager entityManager
- SpriteBatch batch
- BitmapFont font
+ int HEIGHT
+ int WIDTH
+ {static} Main getInstance()
+ ScreenManager getScreenManager()
+ void setScreenManager(ScreenManager)
+ SoundManager getSoundManager()
+ void setSoundManager(SoundManager)
+ SpriteBatch getBatch()
+ void setBatch(SpriteBatch)
+ BitmapFont getFont()
+ void setFont(BitmapFont)
+ Preferences getPrefs()
+ void setPrefs(Preferences)
+ void create()
+ void render()
+ void dispose()
}

class com.mygdx.game.game.components.ui.Button {
- Main game
- Rectangle rectangle
- float x
- float y
- float width
- float height
- String name
- String imgPath
- Texture texture
- SpriteBatch batch
- boolean visibility
- Sprite sprite
- boolean active
+ Texture getTexture()
+ void setTexture(Texture)
+ SpriteBatch getBatch()
+ void setBatch(SpriteBatch)
+ Sprite getSprite()
+ void setSprite(Sprite)
+ boolean getVisibility()
+ void setVisibility(boolean)
+ boolean isActive()
+ void setActive(boolean)
+ void setButtonColor(Color)
+ float getX()
+ void setX(float)
+ float getY()
+ void setY(float)
+ float getWidth()
+ void setWidth(float)
+ float getHeight()
+ void setHeight(float)
+ String getName()
+ void setName(String)
+ Rectangle getBound()
}

com.mygdx.game.game.screens.game.GameOverScreen *- - - - - - com.mygdx.game.engine.input.CustomInputProcessor :has
com.mygdx.game.game.screens.game.GameOverScreen *- - - - - - com.mygdx.game.engine.lifecycle.Main :has
com.mygdx.game.game.screens.game.GameOverScreen *- - - - - - com.mygdx.game.game.components.ui.Button :has many
@enduml

PlantUML version 1.2022.12(Mon Oct 24 02:12:26 SGT 2022)
(GPL source distribution)
Java Runtime: OpenJDK Runtime Environment
JVM: OpenJDK 64-Bit Server VM
Default Encoding: Cp1252
Language: en
Country: SG
--></g></svg>