<?xml version="1.0" encoding="UTF-8" standalone="no"?><svg xmlns="http://www.w3.org/2000/svg" xmlns:xlink="http://www.w3.org/1999/xlink" contentStyleType="text/css" height="1740px" preserveAspectRatio="none" style="width:1350px;height:1740px;background:#FFFFFF;" version="1.1" viewBox="0 0 1350 1740" width="1350px" zoomAndPan="magnify"><defs><linearGradient id="gya59rw9n0gyt0" x1="50%" x2="50%" y1="0%" y2="100%"><stop offset="0%" stop-color="#00FFFF"/><stop offset="100%" stop-color="#5F9EA0"/></linearGradient></defs><g><rect fill="url(#gya59rw9n0gyt0)" height="60.3125" id="_title" rx="7.5" ry="7.5" style="stroke:#FF0000;stroke-width:2.0;" width="888" x="224" y="5"/><text fill="#000000" font-family="sans-serif" font-size="40" font-weight="bold" lengthAdjust="spacing" textLength="878" x="229" y="51.5234">Appendix I - Main Class Composition Relations</text><!--MD5=[f5720f8f2d84faa53b7e58c13b303426]
cluster com.mygdx.game.engine.lifecycle--><g id="cluster_com.mygdx.game.engine.lifecycle"><path d="M601.5,77.3125 L837.5,77.3125 A3.75,3.75 0 0 1 840,79.8125 L847,100.9219 L916.5,100.9219 A2.5,2.5 0 0 1 919,103.4219 L919,579.8125 A2.5,2.5 0 0 1 916.5,582.3125 L601.5,582.3125 A2.5,2.5 0 0 1 599,579.8125 L599,79.8125 A2.5,2.5 0 0 1 601.5,77.3125 " fill="none" style="stroke:#000000;stroke-width:1.5;"/><line style="stroke:#000000;stroke-width:1.5;" x1="599" x2="847" y1="100.9219" y2="100.9219"/><text fill="#000000" font-family="sans-serif" font-size="14" font-weight="bold" lengthAdjust="spacing" textLength="235" x="603" y="93.8457">com.mygdx.game.engine.lifecycle</text></g><!--MD5=[dc79dd4e0caa4ee4fb7088e6e4b6a2c1]
cluster com.mygdx.game.engine.entity--><g id="cluster_com.mygdx.game.engine.entity"><path d="M8.5,1175.3125 L225.5,1175.3125 A3.75,3.75 0 0 1 228,1177.8125 L235,1198.9219 L417.5,1198.9219 A2.5,2.5 0 0 1 420,1201.4219 L420,1589.8125 A2.5,2.5 0 0 1 417.5,1592.3125 L8.5,1592.3125 A2.5,2.5 0 0 1 6,1589.8125 L6,1177.8125 A2.5,2.5 0 0 1 8.5,1175.3125 " fill="none" style="stroke:#000000;stroke-width:1.5;"/><line style="stroke:#000000;stroke-width:1.5;" x1="6" x2="235" y1="1198.9219" y2="1198.9219"/><text fill="#000000" font-family="sans-serif" font-size="14" font-weight="bold" lengthAdjust="spacing" textLength="216" x="10" y="1191.8457">com.mygdx.game.engine.entity</text></g><!--MD5=[fe4a0faf5646692cad31f113f5be8b71]
cluster com.mygdx.game.engine.screen--><g id="cluster_com.mygdx.game.engine.screen"><path d="M489.5,1034.3125 L716.5,1034.3125 A3.75,3.75 0 0 1 719,1036.8125 L726,1057.9219 L1028.5,1057.9219 A2.5,2.5 0 0 1 1031,1060.4219 L1031,1730.8125 A2.5,2.5 0 0 1 1028.5,1733.3125 L489.5,1733.3125 A2.5,2.5 0 0 1 487,1730.8125 L487,1036.8125 A2.5,2.5 0 0 1 489.5,1034.3125 " fill="none" style="stroke:#000000;stroke-width:1.5;"/><line style="stroke:#000000;stroke-width:1.5;" x1="487" x2="726" y1="1057.9219" y2="1057.9219"/><text fill="#000000" font-family="sans-serif" font-size="14" font-weight="bold" lengthAdjust="spacing" textLength="226" x="491" y="1050.8457">com.mygdx.game.engine.screen</text></g><!--MD5=[93a982b1b78862dd9cd9cb6582510976]
cluster com.mygdx.game.engine.sound--><g id="cluster_com.mygdx.game.engine.sound"><path d="M1101.5,1166.3125 L1323.5,1166.3125 A3.75,3.75 0 0 1 1326,1168.8125 L1333,1189.9219 L1340.5,1189.9219 A2.5,2.5 0 0 1 1343,1192.4219 L1343,1598.8125 A2.5,2.5 0 0 1 1340.5,1601.3125 L1101.5,1601.3125 A2.5,2.5 0 0 1 1099,1598.8125 L1099,1168.8125 A2.5,2.5 0 0 1 1101.5,1166.3125 " fill="none" style="stroke:#000000;stroke-width:1.5;"/><line style="stroke:#000000;stroke-width:1.5;" x1="1099" x2="1333" y1="1189.9219" y2="1189.9219"/><text fill="#000000" font-family="sans-serif" font-size="14" font-weight="bold" lengthAdjust="spacing" textLength="221" x="1103" y="1182.8457">com.mygdx.game.engine.sound</text></g><!--MD5=[533628e9c9f667eb08bf66ebfc75b243]
class com.mygdx.game.engine.lifecycle.Main--><g id="elem_com.mygdx.game.engine.lifecycle.Main"><rect codeLine="15" fill="#F1F1F1" height="453.0156" id="com.mygdx.game.engine.lifecycle.Main" rx="2.5" ry="2.5" style="stroke:#181818;stroke-width:0.5;" width="287" x="615.5" y="113.3125"/><ellipse cx="739.75" cy="129.3125" fill="#ADD1B2" rx="11" ry="11" style="stroke:#181818;stroke-width:1.0;"/><path d="M741.75,125.8125 Q741.9531,125.3125 742.1875,125.0625 Q742.4219,124.8125 742.6875,124.8125 Q743.1563,124.8125 743.4531,125.0938 Q743.75,125.375 743.75,126.0313 L743.75,127.5938 Q743.75,128.25 743.4688,128.5313 Q743.1875,128.8125 742.75,128.8125 Q742.3594,128.8125 742.1094,128.6406 Q741.8594,128.4688 741.75,128.0156 Q741.7031,127.7031 741.5313,127.5313 Q741.2188,127.2031 740.6563,127.0156 Q740.0938,126.8125 739.5313,126.8125 Q738.8281,126.8125 738.2344,127.0938 Q737.6563,127.375 737.2031,128 Q736.75,128.625 736.75,129.4844 L736.75,130.4063 Q736.75,131.4375 737.5938,132.125 Q738.4375,132.8125 739.9375,132.8125 Q740.8281,132.8125 741.4531,132.6094 Q741.8125,132.5 742.2188,132.1406 Q742.4844,131.9375 742.625,131.875 Q742.7656,131.8125 742.9375,131.8125 Q743.2656,131.8125 743.5,132.0781 Q743.75,132.3281 743.75,132.6875 Q743.75,133.0313 743.4063,133.4375 Q742.9063,134.0313 742.1094,134.3594 Q741.0625,134.8125 739.7813,134.8125 Q738.2813,134.8125 737.0781,134.2188 Q736.1094,133.75 735.4219,132.7344 Q734.75,131.7188 734.75,130.5156 L734.75,129.4219 Q734.75,128.1719 735.3438,127.0781 Q735.9531,125.9844 737,125.4063 Q738.0625,124.8125 739.25,124.8125 Q739.9688,124.8125 740.5938,125.0625 Q741.2188,125.3125 741.75,125.8125 Z " fill="#000000"/><text fill="#000000" font-family="sans-serif" font-size="14" lengthAdjust="spacing" textLength="30" x="760.25" y="135.041">Main</text><line style="stroke:#181818;stroke-width:0.5;" x1="616.5" x2="901.5" y1="145.3125" y2="145.3125"/><rect fill="none" height="6" style="stroke:#C82930;stroke-width:1.0;" width="6" x="623.5" y="156.6172"/><text fill="#000000" font-family="sans-serif" font-size="14" lengthAdjust="spacing" text-decoration="underline" textLength="87" x="635.5" y="163.8457">Main instance</text><rect fill="none" height="6" style="stroke:#C82930;stroke-width:1.0;" width="6" x="623.5" y="174.2266"/><text fill="#000000" font-family="sans-serif" font-size="14" lengthAdjust="spacing" textLength="204" x="635.5" y="181.4551">ScreenManager screenManager</text><rect fill="none" height="6" style="stroke:#C82930;stroke-width:1.0;" width="6" x="623.5" y="191.8359"/><text fill="#000000" font-family="sans-serif" font-size="14" lengthAdjust="spacing" textLength="113" x="635.5" y="199.0645">Preferences prefs</text><rect fill="none" height="6" style="stroke:#C82930;stroke-width:1.0;" width="6" x="623.5" y="209.4453"/><text fill="#000000" font-family="sans-serif" font-size="14" lengthAdjust="spacing" textLength="196" x="635.5" y="216.6738">SoundManager soundManager</text><ellipse cx="626.5" cy="230.0547" fill="none" rx="3" ry="3" style="stroke:#038048;stroke-width:1.0;"/><text fill="#000000" font-family="sans-serif" font-size="14" lengthAdjust="spacing" textLength="185" x="635.5" y="234.2832">EntityManager entityManager</text><rect fill="none" height="6" style="stroke:#C82930;stroke-width:1.0;" width="6" x="623.5" y="244.6641"/><text fill="#000000" font-family="sans-serif" font-size="14" lengthAdjust="spacing" textLength="112" x="635.5" y="251.8926">SpriteBatch batch</text><rect fill="none" height="6" style="stroke:#C82930;stroke-width:1.0;" width="6" x="623.5" y="262.2734"/><text fill="#000000" font-family="sans-serif" font-size="14" lengthAdjust="spacing" textLength="100" x="635.5" y="269.502">BitmapFont font</text><ellipse cx="626.5" cy="282.8828" fill="none" rx="3" ry="3" style="stroke:#038048;stroke-width:1.0;"/><text fill="#000000" font-family="sans-serif" font-size="14" lengthAdjust="spacing" textLength="69" x="635.5" y="287.1113">int HEIGHT</text><ellipse cx="626.5" cy="300.4922" fill="none" rx="3" ry="3" style="stroke:#038048;stroke-width:1.0;"/><text fill="#000000" font-family="sans-serif" font-size="14" lengthAdjust="spacing" textLength="63" x="635.5" y="304.7207">int WIDTH</text><line style="stroke:#181818;stroke-width:0.5;" x1="616.5" x2="901.5" y1="311.7969" y2="311.7969"/><ellipse cx="626.5" cy="326.1016" fill="#84BE84" rx="3" ry="3" style="stroke:#038048;stroke-width:1.0;"/><text fill="#000000" font-family="sans-serif" font-size="14" lengthAdjust="spacing" text-decoration="underline" textLength="117" x="635.5" y="330.3301">Main getInstance()</text><ellipse cx="626.5" cy="343.7109" fill="#84BE84" rx="3" ry="3" style="stroke:#038048;stroke-width:1.0;"/><text fill="#000000" font-family="sans-serif" font-size="14" lengthAdjust="spacing" textLength="236" x="635.5" y="347.9395">ScreenManager getScreenManager()</text><ellipse cx="626.5" cy="361.3203" fill="#84BE84" rx="3" ry="3" style="stroke:#038048;stroke-width:1.0;"/><text fill="#000000" font-family="sans-serif" font-size="14" lengthAdjust="spacing" textLength="261" x="635.5" y="365.5488">void setScreenManager(ScreenManager)</text><ellipse cx="626.5" cy="378.9297" fill="#84BE84" rx="3" ry="3" style="stroke:#038048;stroke-width:1.0;"/><text fill="#000000" font-family="sans-serif" font-size="14" lengthAdjust="spacing" textLength="228" x="635.5" y="383.1582">SoundManager getSoundManager()</text><ellipse cx="626.5" cy="396.5391" fill="#84BE84" rx="3" ry="3" style="stroke:#038048;stroke-width:1.0;"/><text fill="#000000" font-family="sans-serif" font-size="14" lengthAdjust="spacing" textLength="253" x="635.5" y="400.7676">void setSoundManager(SoundManager)</text><ellipse cx="626.5" cy="414.1484" fill="#84BE84" rx="3" ry="3" style="stroke:#038048;stroke-width:1.0;"/><text fill="#000000" font-family="sans-serif" font-size="14" lengthAdjust="spacing" textLength="143" x="635.5" y="418.377">SpriteBatch getBatch()</text><ellipse cx="626.5" cy="431.7578" fill="#84BE84" rx="3" ry="3" style="stroke:#038048;stroke-width:1.0;"/><text fill="#000000" font-family="sans-serif" font-size="14" lengthAdjust="spacing" textLength="168" x="635.5" y="435.9863">void setBatch(SpriteBatch)</text><ellipse cx="626.5" cy="449.3672" fill="#84BE84" rx="3" ry="3" style="stroke:#038048;stroke-width:1.0;"/><text fill="#000000" font-family="sans-serif" font-size="14" lengthAdjust="spacing" textLength="135" x="635.5" y="453.5957">BitmapFont getFont()</text><ellipse cx="626.5" cy="466.9766" fill="#84BE84" rx="3" ry="3" style="stroke:#038048;stroke-width:1.0;"/><text fill="#000000" font-family="sans-serif" font-size="14" lengthAdjust="spacing" textLength="160" x="635.5" y="471.2051">void setFont(BitmapFont)</text><ellipse cx="626.5" cy="484.5859" fill="#84BE84" rx="3" ry="3" style="stroke:#038048;stroke-width:1.0;"/><text fill="#000000" font-family="sans-serif" font-size="14" lengthAdjust="spacing" textLength="144" x="635.5" y="488.8145">Preferences getPrefs()</text><ellipse cx="626.5" cy="502.1953" fill="#84BE84" rx="3" ry="3" style="stroke:#038048;stroke-width:1.0;"/><text fill="#000000" font-family="sans-serif" font-size="14" lengthAdjust="spacing" textLength="169" x="635.5" y="506.4238">void setPrefs(Preferences)</text><ellipse cx="626.5" cy="519.8047" fill="#84BE84" rx="3" ry="3" style="stroke:#038048;stroke-width:1.0;"/><text fill="#000000" font-family="sans-serif" font-size="14" lengthAdjust="spacing" textLength="80" x="635.5" y="524.0332">void create()</text><ellipse cx="626.5" cy="537.4141" fill="#84BE84" rx="3" ry="3" style="stroke:#038048;stroke-width:1.0;"/><text fill="#000000" font-family="sans-serif" font-size="14" lengthAdjust="spacing" textLength="82" x="635.5" y="541.6426">void render()</text><ellipse cx="626.5" cy="555.0234" fill="#84BE84" rx="3" ry="3" style="stroke:#038048;stroke-width:1.0;"/><text fill="#000000" font-family="sans-serif" font-size="14" lengthAdjust="spacing" textLength="89" x="635.5" y="559.252">void dispose()</text></g><!--MD5=[1ba4ba37b2501bed7c864212ceead3f8]
class com.mygdx.game.engine.entity.EntityManager--><g id="elem_com.mygdx.game.engine.entity.EntityManager"><rect codeLine="41" fill="#F1F1F1" height="364.9688" id="com.mygdx.game.engine.entity.EntityManager" rx="2.5" ry="2.5" style="stroke:#181818;stroke-width:0.5;" width="381" x="22.5" y="1211.3125"/><ellipse cx="163.25" cy="1227.3125" fill="#ADD1B2" rx="11" ry="11" style="stroke:#181818;stroke-width:1.0;"/><path d="M165.25,1223.8125 Q165.4531,1223.3125 165.6875,1223.0625 Q165.9219,1222.8125 166.1875,1222.8125 Q166.6563,1222.8125 166.9531,1223.0938 Q167.25,1223.375 167.25,1224.0313 L167.25,1225.5938 Q167.25,1226.25 166.9688,1226.5313 Q166.6875,1226.8125 166.25,1226.8125 Q165.8594,1226.8125 165.6094,1226.6406 Q165.3594,1226.4688 165.25,1226.0156 Q165.2031,1225.7031 165.0313,1225.5313 Q164.7188,1225.2031 164.1563,1225.0156 Q163.5938,1224.8125 163.0313,1224.8125 Q162.3281,1224.8125 161.7344,1225.0938 Q161.1563,1225.375 160.7031,1226 Q160.25,1226.625 160.25,1227.4844 L160.25,1228.4063 Q160.25,1229.4375 161.0938,1230.125 Q161.9375,1230.8125 163.4375,1230.8125 Q164.3281,1230.8125 164.9531,1230.6094 Q165.3125,1230.5 165.7188,1230.1406 Q165.9844,1229.9375 166.125,1229.875 Q166.2656,1229.8125 166.4375,1229.8125 Q166.7656,1229.8125 167,1230.0781 Q167.25,1230.3281 167.25,1230.6875 Q167.25,1231.0313 166.9063,1231.4375 Q166.4063,1232.0313 165.6094,1232.3594 Q164.5625,1232.8125 163.2813,1232.8125 Q161.7813,1232.8125 160.5781,1232.2188 Q159.6094,1231.75 158.9219,1230.7344 Q158.25,1229.7188 158.25,1228.5156 L158.25,1227.4219 Q158.25,1226.1719 158.8438,1225.0781 Q159.4531,1223.9844 160.5,1223.4063 Q161.5625,1222.8125 162.75,1222.8125 Q163.4688,1222.8125 164.0938,1223.0625 Q164.7188,1223.3125 165.25,1223.8125 Z " fill="#000000"/><text fill="#000000" font-family="sans-serif" font-size="14" lengthAdjust="spacing" textLength="91" x="183.75" y="1233.041">EntityManager</text><line style="stroke:#181818;stroke-width:0.5;" x1="23.5" x2="402.5" y1="1243.3125" y2="1243.3125"/><rect fill="none" height="6" style="stroke:#C82930;stroke-width:1.0;" width="6" x="30.5" y="1254.6172"/><text fill="#000000" font-family="sans-serif" font-size="14" lengthAdjust="spacing" textLength="275" x="42.5" y="1261.8457">ArrayList&lt;CollidableEntity&lt;Player&gt;&gt; players</text><rect fill="none" height="6" style="stroke:#C82930;stroke-width:1.0;" width="6" x="30.5" y="1272.2266"/><text fill="#000000" font-family="sans-serif" font-size="14" lengthAdjust="spacing" textLength="299" x="42.5" y="1279.4551">ArrayList&lt;CollidableEntity&lt;Asteroid&gt;&gt; asteroids</text><rect fill="none" height="6" style="stroke:#C82930;stroke-width:1.0;" width="6" x="30.5" y="1289.8359"/><text fill="#000000" font-family="sans-serif" font-size="14" lengthAdjust="spacing" textLength="254" x="42.5" y="1297.0645">ArrayList&lt;CollidableEntity&lt;UFO&gt;&gt; UFOs</text><rect fill="none" height="6" style="stroke:#C82930;stroke-width:1.0;" width="6" x="30.5" y="1307.4453"/><text fill="#000000" font-family="sans-serif" font-size="14" lengthAdjust="spacing" textLength="275" x="42.5" y="1314.6738">ArrayList&lt;CollidableEntity&lt;Planet&gt;&gt; planets</text><rect fill="none" height="6" style="stroke:#C82930;stroke-width:1.0;" width="6" x="30.5" y="1325.0547"/><text fill="#000000" font-family="sans-serif" font-size="14" lengthAdjust="spacing" textLength="152" x="42.5" y="1332.2832">String[] availablePlanets</text><rect fill="none" height="6" style="stroke:#C82930;stroke-width:1.0;" width="6" x="30.5" y="1342.6641"/><text fill="#000000" font-family="sans-serif" font-size="14" lengthAdjust="spacing" textLength="69" x="42.5" y="1349.8926">Main game</text><line style="stroke:#181818;stroke-width:0.5;" x1="23.5" x2="402.5" y1="1356.9688" y2="1356.9688"/><ellipse cx="33.5" cy="1371.2734" fill="#84BE84" rx="3" ry="3" style="stroke:#038048;stroke-width:1.0;"/><text fill="#000000" font-family="sans-serif" font-size="14" lengthAdjust="spacing" textLength="306" x="42.5" y="1375.502">ArrayList&lt;CollidableEntity&lt;Planet&gt;&gt; getPlanets()</text><ellipse cx="33.5" cy="1388.8828" fill="#84BE84" rx="3" ry="3" style="stroke:#038048;stroke-width:1.0;"/><text fill="#000000" font-family="sans-serif" font-size="14" lengthAdjust="spacing" textLength="331" x="42.5" y="1393.1113">void setPlanets(ArrayList&lt;CollidableEntity&lt;Planet&gt;&gt;)</text><ellipse cx="33.5" cy="1406.4922" fill="#84BE84" rx="3" ry="3" style="stroke:#038048;stroke-width:1.0;"/><text fill="#000000" font-family="sans-serif" font-size="14" lengthAdjust="spacing" textLength="183" x="42.5" y="1410.7207">String[] getAvailablePlanets()</text><ellipse cx="33.5" cy="1424.1016" fill="#84BE84" rx="3" ry="3" style="stroke:#038048;stroke-width:1.0;"/><text fill="#000000" font-family="sans-serif" font-size="14" lengthAdjust="spacing" textLength="208" x="42.5" y="1428.3301">void setAvailablePlanets(String[])</text><ellipse cx="33.5" cy="1441.7109" fill="#84BE84" rx="3" ry="3" style="stroke:#038048;stroke-width:1.0;"/><text fill="#000000" font-family="sans-serif" font-size="14" lengthAdjust="spacing" textLength="330" x="42.5" y="1445.9395">ArrayList&lt;CollidableEntity&lt;Asteroid&gt;&gt; getAsteroids()</text><ellipse cx="33.5" cy="1459.3203" fill="#84BE84" rx="3" ry="3" style="stroke:#038048;stroke-width:1.0;"/><text fill="#000000" font-family="sans-serif" font-size="14" lengthAdjust="spacing" textLength="355" x="42.5" y="1463.5488">void setAsteroids(ArrayList&lt;CollidableEntity&lt;Asteroid&gt;&gt;)</text><ellipse cx="33.5" cy="1476.9297" fill="#84BE84" rx="3" ry="3" style="stroke:#038048;stroke-width:1.0;"/><text fill="#000000" font-family="sans-serif" font-size="14" lengthAdjust="spacing" textLength="306" x="42.5" y="1481.1582">ArrayList&lt;CollidableEntity&lt;Player&gt;&gt; getPlayers()</text><ellipse cx="33.5" cy="1494.5391" fill="#84BE84" rx="3" ry="3" style="stroke:#038048;stroke-width:1.0;"/><text fill="#000000" font-family="sans-serif" font-size="14" lengthAdjust="spacing" textLength="140" x="42.5" y="1498.7676">void setPlayers(int,int)</text><ellipse cx="33.5" cy="1512.1484" fill="#84BE84" rx="3" ry="3" style="stroke:#038048;stroke-width:1.0;"/><text fill="#000000" font-family="sans-serif" font-size="14" lengthAdjust="spacing" textLength="284" x="42.5" y="1516.377">ArrayList&lt;CollidableEntity&lt;UFO&gt;&gt; getUFOs()</text><ellipse cx="33.5" cy="1529.7578" fill="#84BE84" rx="3" ry="3" style="stroke:#038048;stroke-width:1.0;"/><text fill="#000000" font-family="sans-serif" font-size="14" lengthAdjust="spacing" textLength="162" x="42.5" y="1533.9863">void resetFailingObjects()</text><ellipse cx="33.5" cy="1547.3672" fill="#84BE84" rx="3" ry="3" style="stroke:#038048;stroke-width:1.0;"/><text fill="#000000" font-family="sans-serif" font-size="14" lengthAdjust="spacing" textLength="190" x="42.5" y="1551.5957">ArrayList spawnEnemy(String)</text><ellipse cx="33.5" cy="1564.9766" fill="#84BE84" rx="3" ry="3" style="stroke:#038048;stroke-width:1.0;"/><text fill="#000000" font-family="sans-serif" font-size="14" lengthAdjust="spacing" textLength="127" x="42.5" y="1569.2051">void spawnPlanets()</text></g><!--MD5=[265ed1503543fee18ae5d1353cc0dfa4]
class com.mygdx.game.engine.screen.ScreenManager--><g id="elem_com.mygdx.game.engine.screen.ScreenManager"><rect codeLine="62" fill="#F1F1F1" height="646.7188" id="com.mygdx.game.engine.screen.ScreenManager" rx="2.5" ry="2.5" style="stroke:#181818;stroke-width:0.5;" width="511" x="503.5" y="1070.3125"/><ellipse cx="704.25" cy="1086.3125" fill="#ADD1B2" rx="11" ry="11" style="stroke:#181818;stroke-width:1.0;"/><path d="M706.25,1082.8125 Q706.4531,1082.3125 706.6875,1082.0625 Q706.9219,1081.8125 707.1875,1081.8125 Q707.6563,1081.8125 707.9531,1082.0938 Q708.25,1082.375 708.25,1083.0313 L708.25,1084.5938 Q708.25,1085.25 707.9688,1085.5313 Q707.6875,1085.8125 707.25,1085.8125 Q706.8594,1085.8125 706.6094,1085.6406 Q706.3594,1085.4688 706.25,1085.0156 Q706.2031,1084.7031 706.0313,1084.5313 Q705.7188,1084.2031 705.1563,1084.0156 Q704.5938,1083.8125 704.0313,1083.8125 Q703.3281,1083.8125 702.7344,1084.0938 Q702.1563,1084.375 701.7031,1085 Q701.25,1085.625 701.25,1086.4844 L701.25,1087.4063 Q701.25,1088.4375 702.0938,1089.125 Q702.9375,1089.8125 704.4375,1089.8125 Q705.3281,1089.8125 705.9531,1089.6094 Q706.3125,1089.5 706.7188,1089.1406 Q706.9844,1088.9375 707.125,1088.875 Q707.2656,1088.8125 707.4375,1088.8125 Q707.7656,1088.8125 708,1089.0781 Q708.25,1089.3281 708.25,1089.6875 Q708.25,1090.0313 707.9063,1090.4375 Q707.4063,1091.0313 706.6094,1091.3594 Q705.5625,1091.8125 704.2813,1091.8125 Q702.7813,1091.8125 701.5781,1091.2188 Q700.6094,1090.75 699.9219,1089.7344 Q699.25,1088.7188 699.25,1087.5156 L699.25,1086.4219 Q699.25,1085.1719 699.8438,1084.0781 Q700.4531,1082.9844 701.5,1082.4063 Q702.5625,1081.8125 703.75,1081.8125 Q704.4688,1081.8125 705.0938,1082.0625 Q705.7188,1082.3125 706.25,1082.8125 Z " fill="#000000"/><text fill="#000000" font-family="sans-serif" font-size="14" lengthAdjust="spacing" textLength="101" x="724.75" y="1092.041">ScreenManager</text><line style="stroke:#181818;stroke-width:0.5;" x1="504.5" x2="1013.5" y1="1102.3125" y2="1102.3125"/><rect fill="none" height="6" style="stroke:#C82930;stroke-width:1.0;" width="6" x="511.5" y="1113.6172"/><text fill="#000000" font-family="sans-serif" font-size="14" lengthAdjust="spacing" textLength="232" x="523.5" y="1120.8457">ArrayList&lt;String&gt; storyboardImgPath</text><rect fill="none" height="6" style="stroke:#C82930;stroke-width:1.0;" width="6" x="511.5" y="1131.2266"/><text fill="#000000" font-family="sans-serif" font-size="14" lengthAdjust="spacing" textLength="229" x="523.5" y="1138.4551">ArrayList&lt;String&gt; planetVisitImgPath</text><rect fill="none" height="6" style="stroke:#C82930;stroke-width:1.0;" width="6" x="511.5" y="1148.8359"/><text fill="#000000" font-family="sans-serif" font-size="14" lengthAdjust="spacing" textLength="266" x="523.5" y="1156.0645">ArrayList&lt;StoryboardScreen&gt; storyboards</text><rect fill="none" height="6" style="stroke:#C82930;stroke-width:1.0;" width="6" x="511.5" y="1166.4453"/><text fill="#000000" font-family="sans-serif" font-size="14" lengthAdjust="spacing" textLength="332" x="523.5" y="1173.6738">ArrayList&lt;StoryboardScreen&gt; visitPlanetStoryboards</text><rect fill="none" height="6" style="stroke:#C82930;stroke-width:1.0;" width="6" x="511.5" y="1184.0547"/><text fill="#000000" font-family="sans-serif" font-size="14" lengthAdjust="spacing" textLength="224" x="523.5" y="1191.2832">MainMenuScreen mainMenuScreen</text><rect fill="none" height="6" style="stroke:#C82930;stroke-width:1.0;" width="6" x="511.5" y="1201.6641"/><text fill="#000000" font-family="sans-serif" font-size="14" lengthAdjust="spacing" textLength="173" x="523.5" y="1208.8926">PauseScreen pauseScreen</text><rect fill="none" height="6" style="stroke:#C82930;stroke-width:1.0;" width="6" x="511.5" y="1219.2734"/><text fill="#000000" font-family="sans-serif" font-size="14" lengthAdjust="spacing" textLength="229" x="523.5" y="1226.502">GameOverScreen gameOverScreen</text><rect fill="none" height="6" style="stroke:#C82930;stroke-width:1.0;" width="6" x="511.5" y="1236.8828"/><text fill="#000000" font-family="sans-serif" font-size="14" lengthAdjust="spacing" textLength="240" x="523.5" y="1244.1113">ScoreboardScreen scoreboardScreen</text><rect fill="none" height="6" style="stroke:#C82930;stroke-width:1.0;" width="6" x="511.5" y="1254.4922"/><text fill="#000000" font-family="sans-serif" font-size="14" lengthAdjust="spacing" textLength="183" x="523.5" y="1261.7207">ControlScreen controlScreen</text><rect fill="none" height="6" style="stroke:#C82930;stroke-width:1.0;" width="6" x="511.5" y="1272.1016"/><text fill="#000000" font-family="sans-serif" font-size="14" lengthAdjust="spacing" textLength="167" x="523.5" y="1279.3301">GameScreen gameScreen</text><rect fill="none" height="6" style="stroke:#C82930;stroke-width:1.0;" width="6" x="511.5" y="1289.7109"/><text fill="#000000" font-family="sans-serif" font-size="14" lengthAdjust="spacing" textLength="69" x="523.5" y="1296.9395">Main game</text><line style="stroke:#181818;stroke-width:0.5;" x1="504.5" x2="1013.5" y1="1304.0156" y2="1304.0156"/><ellipse cx="514.5" cy="1318.3203" fill="#84BE84" rx="3" ry="3" style="stroke:#038048;stroke-width:1.0;"/><text fill="#000000" font-family="sans-serif" font-size="14" lengthAdjust="spacing" textLength="264" x="523.5" y="1322.5488">ArrayList&lt;String&gt; getStoryboardImgPath()</text><ellipse cx="514.5" cy="1335.9297" fill="#84BE84" rx="3" ry="3" style="stroke:#038048;stroke-width:1.0;"/><text fill="#000000" font-family="sans-serif" font-size="14" lengthAdjust="spacing" textLength="289" x="523.5" y="1340.1582">void setStoryboardImgPath(ArrayList&lt;String&gt;)</text><ellipse cx="514.5" cy="1353.5391" fill="#84BE84" rx="3" ry="3" style="stroke:#038048;stroke-width:1.0;"/><text fill="#000000" font-family="sans-serif" font-size="14" lengthAdjust="spacing" textLength="260" x="523.5" y="1357.7676">ArrayList&lt;String&gt; getPlanetVisitImgPath()</text><ellipse cx="514.5" cy="1371.1484" fill="#84BE84" rx="3" ry="3" style="stroke:#038048;stroke-width:1.0;"/><text fill="#000000" font-family="sans-serif" font-size="14" lengthAdjust="spacing" textLength="285" x="523.5" y="1375.377">void setPlanetVisitImgPath(ArrayList&lt;String&gt;)</text><ellipse cx="514.5" cy="1388.7578" fill="#84BE84" rx="3" ry="3" style="stroke:#038048;stroke-width:1.0;"/><text fill="#000000" font-family="sans-serif" font-size="14" lengthAdjust="spacing" textLength="298" x="523.5" y="1392.9863">ArrayList&lt;StoryboardScreen&gt; getStoryboards()</text><ellipse cx="514.5" cy="1406.3672" fill="#84BE84" rx="3" ry="3" style="stroke:#038048;stroke-width:1.0;"/><text fill="#000000" font-family="sans-serif" font-size="14" lengthAdjust="spacing" textLength="323" x="523.5" y="1410.5957">void setStoryboards(ArrayList&lt;StoryboardScreen&gt;)</text><ellipse cx="514.5" cy="1423.9766" fill="#84BE84" rx="3" ry="3" style="stroke:#038048;stroke-width:1.0;"/><text fill="#000000" font-family="sans-serif" font-size="14" lengthAdjust="spacing" textLength="364" x="523.5" y="1428.2051">ArrayList&lt;StoryboardScreen&gt; getVisitPlanetStoryboards()</text><ellipse cx="514.5" cy="1441.5859" fill="#84BE84" rx="3" ry="3" style="stroke:#038048;stroke-width:1.0;"/><text fill="#000000" font-family="sans-serif" font-size="14" lengthAdjust="spacing" textLength="389" x="523.5" y="1445.8145">void setVisitPlanetStoryboards(ArrayList&lt;StoryboardScreen&gt;)</text><ellipse cx="514.5" cy="1459.1953" fill="#84BE84" rx="3" ry="3" style="stroke:#038048;stroke-width:1.0;"/><text fill="#000000" font-family="sans-serif" font-size="14" lengthAdjust="spacing" textLength="279" x="523.5" y="1463.4238">void setMainMenuScreen(MainMenuScreen)</text><ellipse cx="514.5" cy="1476.8047" fill="#84BE84" rx="3" ry="3" style="stroke:#038048;stroke-width:1.0;"/><text fill="#000000" font-family="sans-serif" font-size="14" lengthAdjust="spacing" textLength="229" x="523.5" y="1481.0332">void setPauseScreen(PauseScreen)</text><ellipse cx="514.5" cy="1494.4141" fill="#84BE84" rx="3" ry="3" style="stroke:#038048;stroke-width:1.0;"/><text fill="#000000" font-family="sans-serif" font-size="14" lengthAdjust="spacing" textLength="287" x="523.5" y="1498.6426">void setGameOverScreen(GameOverScreen)</text><ellipse cx="514.5" cy="1512.0234" fill="#84BE84" rx="3" ry="3" style="stroke:#038048;stroke-width:1.0;"/><text fill="#000000" font-family="sans-serif" font-size="14" lengthAdjust="spacing" textLength="297" x="523.5" y="1516.252">void setScoreboardScreen(ScoreboardScreen)</text><ellipse cx="514.5" cy="1529.6328" fill="#84BE84" rx="3" ry="3" style="stroke:#038048;stroke-width:1.0;"/><text fill="#000000" font-family="sans-serif" font-size="14" lengthAdjust="spacing" textLength="241" x="523.5" y="1533.8613">void setControlScreen(ControlScreen)</text><ellipse cx="514.5" cy="1547.2422" fill="#84BE84" rx="3" ry="3" style="stroke:#038048;stroke-width:1.0;"/><text fill="#000000" font-family="sans-serif" font-size="14" lengthAdjust="spacing" textLength="225" x="523.5" y="1551.4707">void setGameScreen(GameScreen)</text><ellipse cx="514.5" cy="1564.8516" fill="#84BE84" rx="3" ry="3" style="stroke:#038048;stroke-width:1.0;"/><text fill="#000000" font-family="sans-serif" font-size="14" lengthAdjust="spacing" textLength="157" x="523.5" y="1569.0801">void instantiateScreens()</text><ellipse cx="514.5" cy="1582.4609" fill="#84BE84" rx="3" ry="3" style="stroke:#038048;stroke-width:1.0;"/><text fill="#000000" font-family="sans-serif" font-size="14" lengthAdjust="spacing" textLength="254" x="523.5" y="1586.6895">MainMenuScreen getMainMenuScreen()</text><ellipse cx="514.5" cy="1600.0703" fill="#84BE84" rx="3" ry="3" style="stroke:#038048;stroke-width:1.0;"/><text fill="#000000" font-family="sans-serif" font-size="14" lengthAdjust="spacing" textLength="204" x="523.5" y="1604.2988">PauseScreen getPauseScreen()</text><ellipse cx="514.5" cy="1617.6797" fill="#84BE84" rx="3" ry="3" style="stroke:#038048;stroke-width:1.0;"/><text fill="#000000" font-family="sans-serif" font-size="14" lengthAdjust="spacing" textLength="262" x="523.5" y="1621.9082">GameOverScreen getGameOverScreen()</text><ellipse cx="514.5" cy="1635.2891" fill="#84BE84" rx="3" ry="3" style="stroke:#038048;stroke-width:1.0;"/><text fill="#000000" font-family="sans-serif" font-size="14" lengthAdjust="spacing" textLength="272" x="523.5" y="1639.5176">ScoreboardScreen getScoreboardScreen()</text><ellipse cx="514.5" cy="1652.8984" fill="#84BE84" rx="3" ry="3" style="stroke:#038048;stroke-width:1.0;"/><text fill="#000000" font-family="sans-serif" font-size="14" lengthAdjust="spacing" textLength="216" x="523.5" y="1657.127">ControlScreen getControlScreen()</text><ellipse cx="514.5" cy="1670.5078" fill="#84BE84" rx="3" ry="3" style="stroke:#038048;stroke-width:1.0;"/><text fill="#000000" font-family="sans-serif" font-size="14" lengthAdjust="spacing" textLength="200" x="523.5" y="1674.7363">GameScreen getGameScreen()</text><ellipse cx="514.5" cy="1688.1172" fill="#84BE84" rx="3" ry="3" style="stroke:#038048;stroke-width:1.0;"/><text fill="#000000" font-family="sans-serif" font-size="14" lengthAdjust="spacing" textLength="449" x="523.5" y="1692.3457">void createScreenButtons(int,ArrayList&lt;Button&gt;,float,ArrayList&lt;String&gt;)</text><ellipse cx="514.5" cy="1705.7266" fill="#84BE84" rx="3" ry="3" style="stroke:#038048;stroke-width:1.0;"/><text fill="#000000" font-family="sans-serif" font-size="14" lengthAdjust="spacing" textLength="485" x="523.5" y="1709.9551">ArrayList&lt;StoryboardScreen&gt; generateStoryboards(ArrayList&lt;String&gt;,String)</text></g><!--MD5=[a4ca3b467205f43fca8f57f73af73fd4]
class com.mygdx.game.engine.sound.SoundManager--><g id="elem_com.mygdx.game.engine.sound.SoundManager"><rect codeLine="99" fill="#F1F1F1" height="382.5781" id="com.mygdx.game.engine.sound.SoundManager" rx="2.5" ry="2.5" style="stroke:#181818;stroke-width:0.5;" width="212" x="1115" y="1202.3125"/><ellipse cx="1168.25" cy="1218.3125" fill="#ADD1B2" rx="11" ry="11" style="stroke:#181818;stroke-width:1.0;"/><path d="M1170.25,1214.8125 Q1170.4531,1214.3125 1170.6875,1214.0625 Q1170.9219,1213.8125 1171.1875,1213.8125 Q1171.6563,1213.8125 1171.9531,1214.0938 Q1172.25,1214.375 1172.25,1215.0313 L1172.25,1216.5938 Q1172.25,1217.25 1171.9688,1217.5313 Q1171.6875,1217.8125 1171.25,1217.8125 Q1170.8594,1217.8125 1170.6094,1217.6406 Q1170.3594,1217.4688 1170.25,1217.0156 Q1170.2031,1216.7031 1170.0313,1216.5313 Q1169.7188,1216.2031 1169.1563,1216.0156 Q1168.5938,1215.8125 1168.0313,1215.8125 Q1167.3281,1215.8125 1166.7344,1216.0938 Q1166.1563,1216.375 1165.7031,1217 Q1165.25,1217.625 1165.25,1218.4844 L1165.25,1219.4063 Q1165.25,1220.4375 1166.0938,1221.125 Q1166.9375,1221.8125 1168.4375,1221.8125 Q1169.3281,1221.8125 1169.9531,1221.6094 Q1170.3125,1221.5 1170.7188,1221.1406 Q1170.9844,1220.9375 1171.125,1220.875 Q1171.2656,1220.8125 1171.4375,1220.8125 Q1171.7656,1220.8125 1172,1221.0781 Q1172.25,1221.3281 1172.25,1221.6875 Q1172.25,1222.0313 1171.9063,1222.4375 Q1171.4063,1223.0313 1170.6094,1223.3594 Q1169.5625,1223.8125 1168.2813,1223.8125 Q1166.7813,1223.8125 1165.5781,1223.2188 Q1164.6094,1222.75 1163.9219,1221.7344 Q1163.25,1220.7188 1163.25,1219.5156 L1163.25,1218.4219 Q1163.25,1217.1719 1163.8438,1216.0781 Q1164.4531,1214.9844 1165.5,1214.4063 Q1166.5625,1213.8125 1167.75,1213.8125 Q1168.4688,1213.8125 1169.0938,1214.0625 Q1169.7188,1214.3125 1170.25,1214.8125 Z " fill="#000000"/><text fill="#000000" font-family="sans-serif" font-size="14" lengthAdjust="spacing" textLength="97" x="1188.75" y="1224.041">SoundManager</text><line style="stroke:#181818;stroke-width:0.5;" x1="1116" x2="1326" y1="1234.3125" y2="1234.3125"/><rect fill="none" height="6" style="stroke:#C82930;stroke-width:1.0;" width="6" x="1123" y="1245.6172"/><text fill="#000000" font-family="sans-serif" font-size="14" lengthAdjust="spacing" text-decoration="underline" textLength="111" x="1135" y="1252.8457">Music menuMusic</text><rect fill="none" height="6" style="stroke:#C82930;stroke-width:1.0;" width="6" x="1123" y="1263.2266"/><text fill="#000000" font-family="sans-serif" font-size="14" lengthAdjust="spacing" text-decoration="underline" textLength="111" x="1135" y="1270.4551">Music gameMusic</text><rect fill="none" height="6" style="stroke:#C82930;stroke-width:1.0;" width="6" x="1123" y="1280.8359"/><text fill="#000000" font-family="sans-serif" font-size="14" lengthAdjust="spacing" text-decoration="underline" textLength="119" x="1135" y="1288.0645">Music controlMusic</text><rect fill="none" height="6" style="stroke:#C82930;stroke-width:1.0;" width="6" x="1123" y="1298.4453"/><text fill="#000000" font-family="sans-serif" font-size="14" lengthAdjust="spacing" text-decoration="underline" textLength="111" x="1135" y="1305.6738">Music scoreMusic</text><rect fill="none" height="6" style="stroke:#C82930;stroke-width:1.0;" width="6" x="1123" y="1316.0547"/><text fill="#000000" font-family="sans-serif" font-size="14" lengthAdjust="spacing" text-decoration="underline" textLength="115" x="1135" y="1323.2832">Music pauseMusic</text><rect fill="none" height="6" style="stroke:#C82930;stroke-width:1.0;" width="6" x="1123" y="1333.6641"/><text fill="#000000" font-family="sans-serif" font-size="14" lengthAdjust="spacing" text-decoration="underline" textLength="107" x="1135" y="1340.8926">Music storyMusic</text><rect fill="none" height="6" style="stroke:#C82930;stroke-width:1.0;" width="6" x="1123" y="1351.2734"/><text fill="#000000" font-family="sans-serif" font-size="14" lengthAdjust="spacing" text-decoration="underline" textLength="122" x="1135" y="1358.502">Sound buttonHover</text><rect fill="none" height="6" style="stroke:#C82930;stroke-width:1.0;" width="6" x="1123" y="1368.8828"/><text fill="#000000" font-family="sans-serif" font-size="14" lengthAdjust="spacing" text-decoration="underline" textLength="115" x="1135" y="1376.1113">Sound buttonClick</text><rect fill="none" height="6" style="stroke:#C82930;stroke-width:1.0;" width="6" x="1123" y="1386.4922"/><text fill="#000000" font-family="sans-serif" font-size="14" lengthAdjust="spacing" text-decoration="underline" textLength="102" x="1135" y="1393.7207">Sound laserPew</text><rect fill="none" height="6" style="stroke:#C82930;stroke-width:1.0;" width="6" x="1123" y="1404.1016"/><text fill="#000000" font-family="sans-serif" font-size="14" lengthAdjust="spacing" text-decoration="underline" textLength="149" x="1135" y="1411.3301">Sound enemyLaserPew</text><rect fill="none" height="6" style="stroke:#C82930;stroke-width:1.0;" width="6" x="1123" y="1421.7109"/><text fill="#000000" font-family="sans-serif" font-size="14" lengthAdjust="spacing" text-decoration="underline" textLength="111" x="1135" y="1428.9395">boolean isPlaying</text><line style="stroke:#181818;stroke-width:0.5;" x1="1116" x2="1326" y1="1436.0156" y2="1436.0156"/><ellipse cx="1126" cy="1450.3203" fill="#84BE84" rx="3" ry="3" style="stroke:#038048;stroke-width:1.0;"/><text fill="#000000" font-family="sans-serif" font-size="14" lengthAdjust="spacing" text-decoration="underline" textLength="179" x="1135" y="1454.5488">void playMusic(ScreenType)</text><ellipse cx="1126" cy="1467.9297" fill="#84BE84" rx="3" ry="3" style="stroke:#038048;stroke-width:1.0;"/><text fill="#000000" font-family="sans-serif" font-size="14" lengthAdjust="spacing" text-decoration="underline" textLength="103" x="1135" y="1472.1582">void stopMusic()</text><ellipse cx="1126" cy="1485.5391" fill="#84BE84" rx="3" ry="3" style="stroke:#038048;stroke-width:1.0;"/><text fill="#000000" font-family="sans-serif" font-size="14" lengthAdjust="spacing" text-decoration="underline" textLength="121" x="1135" y="1489.7676">boolean isPlaying()</text><ellipse cx="1126" cy="1503.1484" fill="#84BE84" rx="3" ry="3" style="stroke:#038048;stroke-width:1.0;"/><text fill="#000000" font-family="sans-serif" font-size="14" lengthAdjust="spacing" textLength="144" x="1135" y="1507.377">void playButtonHover()</text><ellipse cx="1126" cy="1520.7578" fill="#84BE84" rx="3" ry="3" style="stroke:#038048;stroke-width:1.0;"/><text fill="#000000" font-family="sans-serif" font-size="14" lengthAdjust="spacing" textLength="137" x="1135" y="1524.9863">void playButtonClick()</text><ellipse cx="1126" cy="1538.3672" fill="#84BE84" rx="3" ry="3" style="stroke:#038048;stroke-width:1.0;"/><text fill="#000000" font-family="sans-serif" font-size="14" lengthAdjust="spacing" textLength="143" x="1135" y="1542.5957">void playLaserSound()</text><ellipse cx="1126" cy="1555.9766" fill="#84BE84" rx="3" ry="3" style="stroke:#038048;stroke-width:1.0;"/><text fill="#000000" font-family="sans-serif" font-size="14" lengthAdjust="spacing" textLength="186" x="1135" y="1560.2051">void playEnemyLaserSound()</text><ellipse cx="1126" cy="1573.5859" fill="#84BE84" rx="3" ry="3" style="stroke:#038048;stroke-width:1.0;"/><text fill="#000000" font-family="sans-serif" font-size="14" lengthAdjust="spacing" textLength="89" x="1135" y="1577.8145">void dispose()</text></g><!--MD5=[d70078c2eed13a68849048b94b116add]
reverse link com.mygdx.game.engine.lifecycle.Main to com.mygdx.game.engine.screen.ScreenManager--><g id="link_com.mygdx.game.engine.lifecycle.Main_com.mygdx.game.engine.screen.ScreenManager"><path codeLine="121" d="M759,579.5725 C759,579.5725 759,1070.2125 759,1070.2125 " fill="none" id="com.mygdx.game.engine.lifecycle.Main-backto-com.mygdx.game.engine.screen.ScreenManager" style="stroke:#181818;stroke-width:1.0;"/><polygon fill="#181818" points="759,566.5725,755,572.5725,759,578.5725,763,572.5725,759,566.5725" style="stroke:#181818;stroke-width:1.0;"/><text fill="#000000" font-family="sans-serif" font-size="13" lengthAdjust="spacing" textLength="21" x="737" y="821.3876">has</text></g><!--MD5=[585ad4a7c251c92416027dd527503b11]
reverse link com.mygdx.game.engine.lifecycle.Main to com.mygdx.game.engine.sound.SoundManager--><g id="link_com.mygdx.game.engine.lifecycle.Main_com.mygdx.game.engine.sound.SoundManager"><path codeLine="122" d="M915.65,340.3125 C915.65,340.3125 1221,340.3125 1221,340.3125 C1221,340.3125 1221,898.3225 1221,1202.1125 " fill="none" id="com.mygdx.game.engine.lifecycle.Main-backto-com.mygdx.game.engine.sound.SoundManager" style="stroke:#181818;stroke-width:1.0;"/><polygon fill="#181818" points="902.65,340.3125,908.65,344.3125,914.65,340.3125,908.65,336.3125,902.65,340.3125" style="stroke:#181818;stroke-width:1.0;"/><text fill="#000000" font-family="sans-serif" font-size="13" lengthAdjust="spacing" textLength="21" x="1199" y="615.0276">has</text></g><!--MD5=[30c1bb0219527dd2f59c248685e3dd20]
reverse link com.mygdx.game.engine.lifecycle.Main to com.mygdx.game.engine.entity.EntityManager--><g id="link_com.mygdx.game.engine.lifecycle.Main_com.mygdx.game.engine.entity.EntityManager"><path codeLine="123" d="M602.19,340.3125 C602.19,340.3125 213,340.3125 213,340.3125 C213,340.3125 213,909.6025 213,1211.2125 " fill="none" id="com.mygdx.game.engine.lifecycle.Main-backto-com.mygdx.game.engine.entity.EntityManager" style="stroke:#181818;stroke-width:1.0;"/><polygon fill="#181818" points="615.19,340.3125,609.19,336.3125,603.19,340.3125,609.19,344.3125,615.19,340.3125" style="stroke:#181818;stroke-width:1.0;"/><text fill="#000000" font-family="sans-serif" font-size="13" lengthAdjust="spacing" textLength="21" x="191" y="577.6576">has</text></g><!--MD5=[a478dc4bc2ae943badf69b9a3d6eb907]
@startuml
skinparam linetype polyline
skinparam linetype ortho

skinparam nodesep 100
skinparam ranksep 100

skinparam titleBorderRoundCorner 15
skinparam titleBorderThickness 2
skinparam titleBorderColor red
skinparam titleBackgroundColor Aqua-CadetBlue
skinparam TitleFontSize 40

title Appendix I - Main Class Composition Relations

class com.mygdx.game.engine.lifecycle.Main {
- {static} Main instance
- ScreenManager screenManager
- Preferences prefs
- SoundManager soundManager
+ EntityManager entityManager
- SpriteBatch batch
- BitmapFont font
+ int HEIGHT
+ int WIDTH
+ {static} Main getInstance()
+ ScreenManager getScreenManager()
+ void setScreenManager(ScreenManager)
+ SoundManager getSoundManager()
+ void setSoundManager(SoundManager)
+ SpriteBatch getBatch()
+ void setBatch(SpriteBatch)
+ BitmapFont getFont()
+ void setFont(BitmapFont)
+ Preferences getPrefs()
+ void setPrefs(Preferences)
+ void create()
+ void render()
+ void dispose()
}

class com.mygdx.game.engine.entity.EntityManager {
- ArrayList<CollidableEntity<Player>> players
- ArrayList<CollidableEntity<Asteroid>> asteroids
- ArrayList<CollidableEntity<UFO>> UFOs
- ArrayList<CollidableEntity<Planet>> planets
- String[] availablePlanets
- Main game
+ ArrayList<CollidableEntity<Planet>> getPlanets()
+ void setPlanets(ArrayList<CollidableEntity<Planet>>)
+ String[] getAvailablePlanets()
+ void setAvailablePlanets(String[])
+ ArrayList<CollidableEntity<Asteroid>> getAsteroids()
+ void setAsteroids(ArrayList<CollidableEntity<Asteroid>>)
+ ArrayList<CollidableEntity<Player>> getPlayers()
+ void setPlayers(int,int)
+ ArrayList<CollidableEntity<UFO>> getUFOs()
+ void resetFailingObjects()
+ ArrayList spawnEnemy(String)
+ void spawnPlanets()
}

class com.mygdx.game.engine.screen.ScreenManager {
- ArrayList<String> storyboardImgPath
- ArrayList<String> planetVisitImgPath
- ArrayList<StoryboardScreen> storyboards
- ArrayList<StoryboardScreen> visitPlanetStoryboards
- MainMenuScreen mainMenuScreen
- PauseScreen pauseScreen
- GameOverScreen gameOverScreen
- ScoreboardScreen scoreboardScreen
- ControlScreen controlScreen
- GameScreen gameScreen
- Main game
+ ArrayList<String> getStoryboardImgPath()
+ void setStoryboardImgPath(ArrayList<String>)
+ ArrayList<String> getPlanetVisitImgPath()
+ void setPlanetVisitImgPath(ArrayList<String>)
+ ArrayList<StoryboardScreen> getStoryboards()
+ void setStoryboards(ArrayList<StoryboardScreen>)
+ ArrayList<StoryboardScreen> getVisitPlanetStoryboards()
+ void setVisitPlanetStoryboards(ArrayList<StoryboardScreen>)
+ void setMainMenuScreen(MainMenuScreen)
+ void setPauseScreen(PauseScreen)
+ void setGameOverScreen(GameOverScreen)
+ void setScoreboardScreen(ScoreboardScreen)
+ void setControlScreen(ControlScreen)
+ void setGameScreen(GameScreen)
+ void instantiateScreens()
+ MainMenuScreen getMainMenuScreen()
+ PauseScreen getPauseScreen()
+ GameOverScreen getGameOverScreen()
+ ScoreboardScreen getScoreboardScreen()
+ ControlScreen getControlScreen()
+ GameScreen getGameScreen()
+ void createScreenButtons(int,ArrayList<Button>,float,ArrayList<String>)
+ ArrayList<StoryboardScreen> generateStoryboards(ArrayList<String>,String)
}

class com.mygdx.game.engine.sound.SoundManager {
- {static} Music menuMusic
- {static} Music gameMusic
- {static} Music controlMusic
- {static} Music scoreMusic
- {static} Music pauseMusic
- {static} Music storyMusic
- {static} Sound buttonHover
- {static} Sound buttonClick
- {static} Sound laserPew
- {static} Sound enemyLaserPew
- {static} boolean isPlaying
+ {static} void playMusic(ScreenType)
+ {static} void stopMusic()
+ {static} boolean isPlaying()
+ void playButtonHover()
+ void playButtonClick()
+ void playLaserSound()
+ void playEnemyLaserSound()
+ void dispose()
}

com.mygdx.game.engine.lifecycle.Main *- - - - - - com.mygdx.game.engine.screen.ScreenManager :has
com.mygdx.game.engine.lifecycle.Main *- - - - - - com.mygdx.game.engine.sound.SoundManager :has
com.mygdx.game.engine.lifecycle.Main *- - - - - - com.mygdx.game.engine.entity.EntityManager :has
@enduml

PlantUML version 1.2022.12(Mon Oct 24 02:12:26 SGT 2022)
(GPL source distribution)
Java Runtime: OpenJDK Runtime Environment
JVM: OpenJDK 64-Bit Server VM
Default Encoding: Cp1252
Language: en
Country: SG
--></g></svg>