<?xml version="1.0" encoding="UTF-8" standalone="no"?><svg xmlns="http://www.w3.org/2000/svg" xmlns:xlink="http://www.w3.org/1999/xlink" contentStyleType="text/css" height="1669px" preserveAspectRatio="none" style="width:1084px;height:1669px;background:#FFFFFF;" version="1.1" viewBox="0 0 1084 1669" width="1084px" zoomAndPan="magnify"><defs><linearGradient id="gdzca7puurtoh0" x1="50%" x2="50%" y1="0%" y2="100%"><stop offset="0%" stop-color="#00FFFF"/><stop offset="100%" stop-color="#5F9EA0"/></linearGradient></defs><g><rect fill="url(#gdzca7puurtoh0)" height="60.3125" id="_title" rx="7.5" ry="7.5" style="stroke:#FF0000;stroke-width:2.0;" width="1066" x="5" y="5"/><text fill="#000000" font-family="sans-serif" font-size="40" font-weight="bold" lengthAdjust="spacing" textLength="1056" x="10" y="51.5234">Appendix K - PauseScreen Class Composition Relations</text><!--MD5=[ec129861e6194a645611de3369ad0d54]
cluster com.mygdx.game.game.screens.menu--><g id="cluster_com.mygdx.game.game.screens.menu"><path d="M396,77.3125 L663,77.3125 A3.75,3.75 0 0 1 665.5,79.8125 L672.5,100.9219 L747,100.9219 A2.5,2.5 0 0 1 749.5,103.4219 L749.5,491.8125 A2.5,2.5 0 0 1 747,494.3125 L396,494.3125 A2.5,2.5 0 0 1 393.5,491.8125 L393.5,79.8125 A2.5,2.5 0 0 1 396,77.3125 " fill="none" style="stroke:#000000;stroke-width:1.5;"/><line style="stroke:#000000;stroke-width:1.5;" x1="393.5" x2="672.5" y1="100.9219" y2="100.9219"/><text fill="#000000" font-family="sans-serif" font-size="14" font-weight="bold" lengthAdjust="spacing" textLength="266" x="397.5" y="93.8457">com.mygdx.game.game.screens.menu</text></g><!--MD5=[f5720f8f2d84faa53b7e58c13b303426]
cluster com.mygdx.game.engine.lifecycle--><g id="cluster_com.mygdx.game.engine.lifecycle"><path d="M73,1051.8125 L309,1051.8125 A3.75,3.75 0 0 1 311.5,1054.3125 L318.5,1075.4219 L388,1075.4219 A2.5,2.5 0 0 1 390.5,1077.9219 L390.5,1554.3125 A2.5,2.5 0 0 1 388,1556.8125 L73,1556.8125 A2.5,2.5 0 0 1 70.5,1554.3125 L70.5,1054.3125 A2.5,2.5 0 0 1 73,1051.8125 " fill="none" style="stroke:#000000;stroke-width:1.5;"/><line style="stroke:#000000;stroke-width:1.5;" x1="70.5" x2="318.5" y1="1075.4219" y2="1075.4219"/><text fill="#000000" font-family="sans-serif" font-size="14" font-weight="bold" lengthAdjust="spacing" textLength="235" x="74.5" y="1068.3457">com.mygdx.game.engine.lifecycle</text></g><!--MD5=[683aabdc962ad2ab98ef14c38ed732ec]
cluster com.mygdx.game.game.components.ui--><g id="cluster_com.mygdx.game.game.components.ui"><path d="M431,946.3125 L702,946.3125 A3.75,3.75 0 0 1 704.5,948.8125 L711.5,969.9219 L712,969.9219 A2.5,2.5 0 0 1 714.5,972.4219 L714.5,1659.8125 A2.5,2.5 0 0 1 712,1662.3125 L431,1662.3125 A2.5,2.5 0 0 1 428.5,1659.8125 L428.5,948.8125 A2.5,2.5 0 0 1 431,946.3125 " fill="none" style="stroke:#000000;stroke-width:1.5;"/><line style="stroke:#000000;stroke-width:1.5;" x1="428.5" x2="711.5" y1="969.9219" y2="969.9219"/><text fill="#000000" font-family="sans-serif" font-size="14" font-weight="bold" lengthAdjust="spacing" textLength="270" x="432.5" y="962.8457">com.mygdx.game.game.components.ui</text></g><!--MD5=[6d572adab93e1a2768c068c53f7d318b]
cluster com.mygdx.game.engine.input--><g id="cluster_com.mygdx.game.engine.input"><path d="M755,1166.3125 L969,1166.3125 A3.75,3.75 0 0 1 971.5,1168.8125 L978.5,1189.9219 L1016,1189.9219 A2.5,2.5 0 0 1 1018.5,1192.4219 L1018.5,1439.8125 A2.5,2.5 0 0 1 1016,1442.3125 L755,1442.3125 A2.5,2.5 0 0 1 752.5,1439.8125 L752.5,1168.8125 A2.5,2.5 0 0 1 755,1166.3125 " fill="none" style="stroke:#000000;stroke-width:1.5;"/><line style="stroke:#000000;stroke-width:1.5;" x1="752.5" x2="978.5" y1="1189.9219" y2="1189.9219"/><text fill="#000000" font-family="sans-serif" font-size="14" font-weight="bold" lengthAdjust="spacing" textLength="213" x="756.5" y="1182.8457">com.mygdx.game.engine.input</text></g><!--MD5=[2ed8c4eea61e952557e6c3850ec7eab3]
class com.mygdx.game.game.screens.menu.PauseScreen--><g id="elem_com.mygdx.game.game.screens.menu.PauseScreen"><rect codeLine="15" fill="#F1F1F1" height="364.9688" id="com.mygdx.game.game.screens.menu.PauseScreen" rx="2.5" ry="2.5" style="stroke:#181818;stroke-width:0.5;" width="323" x="410" y="113.3125"/><ellipse cx="524.75" cy="129.3125" fill="#ADD1B2" rx="11" ry="11" style="stroke:#181818;stroke-width:1.0;"/><path d="M526.75,125.8125 Q526.9531,125.3125 527.1875,125.0625 Q527.4219,124.8125 527.6875,124.8125 Q528.1563,124.8125 528.4531,125.0938 Q528.75,125.375 528.75,126.0313 L528.75,127.5938 Q528.75,128.25 528.4688,128.5313 Q528.1875,128.8125 527.75,128.8125 Q527.3594,128.8125 527.1094,128.6406 Q526.8594,128.4688 526.75,128.0156 Q526.7031,127.7031 526.5313,127.5313 Q526.2188,127.2031 525.6563,127.0156 Q525.0938,126.8125 524.5313,126.8125 Q523.8281,126.8125 523.2344,127.0938 Q522.6563,127.375 522.2031,128 Q521.75,128.625 521.75,129.4844 L521.75,130.4063 Q521.75,131.4375 522.5938,132.125 Q523.4375,132.8125 524.9375,132.8125 Q525.8281,132.8125 526.4531,132.6094 Q526.8125,132.5 527.2188,132.1406 Q527.4844,131.9375 527.625,131.875 Q527.7656,131.8125 527.9375,131.8125 Q528.2656,131.8125 528.5,132.0781 Q528.75,132.3281 528.75,132.6875 Q528.75,133.0313 528.4063,133.4375 Q527.9063,134.0313 527.1094,134.3594 Q526.0625,134.8125 524.7813,134.8125 Q523.2813,134.8125 522.0781,134.2188 Q521.1094,133.75 520.4219,132.7344 Q519.75,131.7188 519.75,130.5156 L519.75,129.4219 Q519.75,128.1719 520.3438,127.0781 Q520.9531,125.9844 522,125.4063 Q523.0625,124.8125 524.25,124.8125 Q524.9688,124.8125 525.5938,125.0625 Q526.2188,125.3125 526.75,125.8125 Z " fill="#000000"/><text fill="#000000" font-family="sans-serif" font-size="14" lengthAdjust="spacing" textLength="85" x="545.25" y="135.041">PauseScreen</text><line style="stroke:#181818;stroke-width:0.5;" x1="411" x2="732" y1="145.3125" y2="145.3125"/><rect fill="none" height="6" style="stroke:#C82930;stroke-width:1.0;" width="6" x="418" y="156.6172"/><text fill="#000000" font-family="sans-serif" font-size="14" lengthAdjust="spacing" textLength="112" x="430" y="163.8457">SpriteBatch batch</text><rect fill="none" height="6" style="stroke:#C82930;stroke-width:1.0;" width="6" x="418" y="174.2266"/><text fill="#000000" font-family="sans-serif" font-size="14" lengthAdjust="spacing" textLength="95" x="430" y="181.4551">Texture texture</text><rect fill="none" height="6" style="stroke:#C82930;stroke-width:1.0;" width="6" x="418" y="191.8359"/><text fill="#000000" font-family="sans-serif" font-size="14" lengthAdjust="spacing" textLength="242" x="430" y="199.0645">CustomInputProcessor inputProcessor</text><rect fill="none" height="6" style="stroke:#C82930;stroke-width:1.0;" width="6" x="418" y="209.4453"/><text fill="#000000" font-family="sans-serif" font-size="14" lengthAdjust="spacing" textLength="69" x="430" y="216.6738">Main game</text><rect fill="none" height="6" style="stroke:#C82930;stroke-width:1.0;" width="6" x="418" y="227.0547"/><text fill="#000000" font-family="sans-serif" font-size="14" lengthAdjust="spacing" textLength="164" x="430" y="234.2832">ArrayList&lt;Button&gt; buttons</text><rect fill="none" height="6" style="stroke:#C82930;stroke-width:1.0;" width="6" x="418" y="244.6641"/><text fill="#000000" font-family="sans-serif" font-size="14" lengthAdjust="spacing" textLength="182" x="430" y="251.8926">ArrayList&lt;String&gt; buttonPath</text><line style="stroke:#181818;stroke-width:0.5;" x1="411" x2="732" y1="258.9688" y2="258.9688"/><ellipse cx="421" cy="273.2734" fill="#84BE84" rx="3" ry="3" style="stroke:#038048;stroke-width:1.0;"/><text fill="#000000" font-family="sans-serif" font-size="14" lengthAdjust="spacing" textLength="272" x="430" y="277.502">CustomInputProcessor getInputProcessor()</text><ellipse cx="421" cy="290.8828" fill="#84BE84" rx="3" ry="3" style="stroke:#038048;stroke-width:1.0;"/><text fill="#000000" font-family="sans-serif" font-size="14" lengthAdjust="spacing" textLength="297" x="430" y="295.1113">void setInputProcessor(CustomInputProcessor)</text><ellipse cx="421" cy="308.4922" fill="#84BE84" rx="3" ry="3" style="stroke:#038048;stroke-width:1.0;"/><text fill="#000000" font-family="sans-serif" font-size="14" lengthAdjust="spacing" textLength="195" x="430" y="312.7207">ArrayList&lt;Button&gt; getButtons()</text><ellipse cx="421" cy="326.1016" fill="#84BE84" rx="3" ry="3" style="stroke:#038048;stroke-width:1.0;"/><text fill="#000000" font-family="sans-serif" font-size="14" lengthAdjust="spacing" textLength="220" x="430" y="330.3301">void setButtons(ArrayList&lt;Button&gt;)</text><ellipse cx="421" cy="343.7109" fill="#84BE84" rx="3" ry="3" style="stroke:#038048;stroke-width:1.0;"/><text fill="#000000" font-family="sans-serif" font-size="14" lengthAdjust="spacing" textLength="72" x="430" y="347.9395">void show()</text><ellipse cx="421" cy="361.3203" fill="#84BE84" rx="3" ry="3" style="stroke:#038048;stroke-width:1.0;"/><text fill="#000000" font-family="sans-serif" font-size="14" lengthAdjust="spacing" textLength="109" x="430" y="365.5488">void render(float)</text><ellipse cx="421" cy="378.9297" fill="#84BE84" rx="3" ry="3" style="stroke:#038048;stroke-width:1.0;"/><text fill="#000000" font-family="sans-serif" font-size="14" lengthAdjust="spacing" textLength="111" x="430" y="383.1582">void resize(int,int)</text><ellipse cx="421" cy="396.5391" fill="#84BE84" rx="3" ry="3" style="stroke:#038048;stroke-width:1.0;"/><text fill="#000000" font-family="sans-serif" font-size="14" lengthAdjust="spacing" textLength="79" x="430" y="400.7676">void pause()</text><ellipse cx="421" cy="414.1484" fill="#84BE84" rx="3" ry="3" style="stroke:#038048;stroke-width:1.0;"/><text fill="#000000" font-family="sans-serif" font-size="14" lengthAdjust="spacing" textLength="87" x="430" y="418.377">void resume()</text><ellipse cx="421" cy="431.7578" fill="#84BE84" rx="3" ry="3" style="stroke:#038048;stroke-width:1.0;"/><text fill="#000000" font-family="sans-serif" font-size="14" lengthAdjust="spacing" textLength="67" x="430" y="435.9863">void hide()</text><ellipse cx="421" cy="449.3672" fill="#84BE84" rx="3" ry="3" style="stroke:#038048;stroke-width:1.0;"/><text fill="#000000" font-family="sans-serif" font-size="14" lengthAdjust="spacing" textLength="89" x="430" y="453.5957">void dispose()</text><ellipse cx="421" cy="466.9766" fill="#84BE84" rx="3" ry="3" style="stroke:#038048;stroke-width:1.0;"/><text fill="#000000" font-family="sans-serif" font-size="14" lengthAdjust="spacing" textLength="63" x="430" y="471.2051">void quit()</text></g><!--MD5=[533628e9c9f667eb08bf66ebfc75b243]
class com.mygdx.game.engine.lifecycle.Main--><g id="elem_com.mygdx.game.engine.lifecycle.Main"><rect codeLine="36" fill="#F1F1F1" height="453.0156" id="com.mygdx.game.engine.lifecycle.Main" rx="2.5" ry="2.5" style="stroke:#181818;stroke-width:0.5;" width="287" x="87" y="1087.8125"/><ellipse cx="211.25" cy="1103.8125" fill="#ADD1B2" rx="11" ry="11" style="stroke:#181818;stroke-width:1.0;"/><path d="M213.25,1100.3125 Q213.4531,1099.8125 213.6875,1099.5625 Q213.9219,1099.3125 214.1875,1099.3125 Q214.6563,1099.3125 214.9531,1099.5938 Q215.25,1099.875 215.25,1100.5313 L215.25,1102.0938 Q215.25,1102.75 214.9688,1103.0313 Q214.6875,1103.3125 214.25,1103.3125 Q213.8594,1103.3125 213.6094,1103.1406 Q213.3594,1102.9688 213.25,1102.5156 Q213.2031,1102.2031 213.0313,1102.0313 Q212.7188,1101.7031 212.1563,1101.5156 Q211.5938,1101.3125 211.0313,1101.3125 Q210.3281,1101.3125 209.7344,1101.5938 Q209.1563,1101.875 208.7031,1102.5 Q208.25,1103.125 208.25,1103.9844 L208.25,1104.9063 Q208.25,1105.9375 209.0938,1106.625 Q209.9375,1107.3125 211.4375,1107.3125 Q212.3281,1107.3125 212.9531,1107.1094 Q213.3125,1107 213.7188,1106.6406 Q213.9844,1106.4375 214.125,1106.375 Q214.2656,1106.3125 214.4375,1106.3125 Q214.7656,1106.3125 215,1106.5781 Q215.25,1106.8281 215.25,1107.1875 Q215.25,1107.5313 214.9063,1107.9375 Q214.4063,1108.5313 213.6094,1108.8594 Q212.5625,1109.3125 211.2813,1109.3125 Q209.7813,1109.3125 208.5781,1108.7188 Q207.6094,1108.25 206.9219,1107.2344 Q206.25,1106.2188 206.25,1105.0156 L206.25,1103.9219 Q206.25,1102.6719 206.8438,1101.5781 Q207.4531,1100.4844 208.5,1099.9063 Q209.5625,1099.3125 210.75,1099.3125 Q211.4688,1099.3125 212.0938,1099.5625 Q212.7188,1099.8125 213.25,1100.3125 Z " fill="#000000"/><text fill="#000000" font-family="sans-serif" font-size="14" lengthAdjust="spacing" textLength="30" x="231.75" y="1109.541">Main</text><line style="stroke:#181818;stroke-width:0.5;" x1="88" x2="373" y1="1119.8125" y2="1119.8125"/><rect fill="none" height="6" style="stroke:#C82930;stroke-width:1.0;" width="6" x="95" y="1131.1172"/><text fill="#000000" font-family="sans-serif" font-size="14" lengthAdjust="spacing" text-decoration="underline" textLength="87" x="107" y="1138.3457">Main instance</text><rect fill="none" height="6" style="stroke:#C82930;stroke-width:1.0;" width="6" x="95" y="1148.7266"/><text fill="#000000" font-family="sans-serif" font-size="14" lengthAdjust="spacing" textLength="204" x="107" y="1155.9551">ScreenManager screenManager</text><rect fill="none" height="6" style="stroke:#C82930;stroke-width:1.0;" width="6" x="95" y="1166.3359"/><text fill="#000000" font-family="sans-serif" font-size="14" lengthAdjust="spacing" textLength="113" x="107" y="1173.5645">Preferences prefs</text><rect fill="none" height="6" style="stroke:#C82930;stroke-width:1.0;" width="6" x="95" y="1183.9453"/><text fill="#000000" font-family="sans-serif" font-size="14" lengthAdjust="spacing" textLength="196" x="107" y="1191.1738">SoundManager soundManager</text><ellipse cx="98" cy="1204.5547" fill="none" rx="3" ry="3" style="stroke:#038048;stroke-width:1.0;"/><text fill="#000000" font-family="sans-serif" font-size="14" lengthAdjust="spacing" textLength="185" x="107" y="1208.7832">EntityManager entityManager</text><rect fill="none" height="6" style="stroke:#C82930;stroke-width:1.0;" width="6" x="95" y="1219.1641"/><text fill="#000000" font-family="sans-serif" font-size="14" lengthAdjust="spacing" textLength="112" x="107" y="1226.3926">SpriteBatch batch</text><rect fill="none" height="6" style="stroke:#C82930;stroke-width:1.0;" width="6" x="95" y="1236.7734"/><text fill="#000000" font-family="sans-serif" font-size="14" lengthAdjust="spacing" textLength="100" x="107" y="1244.002">BitmapFont font</text><ellipse cx="98" cy="1257.3828" fill="none" rx="3" ry="3" style="stroke:#038048;stroke-width:1.0;"/><text fill="#000000" font-family="sans-serif" font-size="14" lengthAdjust="spacing" textLength="69" x="107" y="1261.6113">int HEIGHT</text><ellipse cx="98" cy="1274.9922" fill="none" rx="3" ry="3" style="stroke:#038048;stroke-width:1.0;"/><text fill="#000000" font-family="sans-serif" font-size="14" lengthAdjust="spacing" textLength="63" x="107" y="1279.2207">int WIDTH</text><line style="stroke:#181818;stroke-width:0.5;" x1="88" x2="373" y1="1286.2969" y2="1286.2969"/><ellipse cx="98" cy="1300.6016" fill="#84BE84" rx="3" ry="3" style="stroke:#038048;stroke-width:1.0;"/><text fill="#000000" font-family="sans-serif" font-size="14" lengthAdjust="spacing" text-decoration="underline" textLength="117" x="107" y="1304.8301">Main getInstance()</text><ellipse cx="98" cy="1318.2109" fill="#84BE84" rx="3" ry="3" style="stroke:#038048;stroke-width:1.0;"/><text fill="#000000" font-family="sans-serif" font-size="14" lengthAdjust="spacing" textLength="236" x="107" y="1322.4395">ScreenManager getScreenManager()</text><ellipse cx="98" cy="1335.8203" fill="#84BE84" rx="3" ry="3" style="stroke:#038048;stroke-width:1.0;"/><text fill="#000000" font-family="sans-serif" font-size="14" lengthAdjust="spacing" textLength="261" x="107" y="1340.0488">void setScreenManager(ScreenManager)</text><ellipse cx="98" cy="1353.4297" fill="#84BE84" rx="3" ry="3" style="stroke:#038048;stroke-width:1.0;"/><text fill="#000000" font-family="sans-serif" font-size="14" lengthAdjust="spacing" textLength="228" x="107" y="1357.6582">SoundManager getSoundManager()</text><ellipse cx="98" cy="1371.0391" fill="#84BE84" rx="3" ry="3" style="stroke:#038048;stroke-width:1.0;"/><text fill="#000000" font-family="sans-serif" font-size="14" lengthAdjust="spacing" textLength="253" x="107" y="1375.2676">void setSoundManager(SoundManager)</text><ellipse cx="98" cy="1388.6484" fill="#84BE84" rx="3" ry="3" style="stroke:#038048;stroke-width:1.0;"/><text fill="#000000" font-family="sans-serif" font-size="14" lengthAdjust="spacing" textLength="143" x="107" y="1392.877">SpriteBatch getBatch()</text><ellipse cx="98" cy="1406.2578" fill="#84BE84" rx="3" ry="3" style="stroke:#038048;stroke-width:1.0;"/><text fill="#000000" font-family="sans-serif" font-size="14" lengthAdjust="spacing" textLength="168" x="107" y="1410.4863">void setBatch(SpriteBatch)</text><ellipse cx="98" cy="1423.8672" fill="#84BE84" rx="3" ry="3" style="stroke:#038048;stroke-width:1.0;"/><text fill="#000000" font-family="sans-serif" font-size="14" lengthAdjust="spacing" textLength="135" x="107" y="1428.0957">BitmapFont getFont()</text><ellipse cx="98" cy="1441.4766" fill="#84BE84" rx="3" ry="3" style="stroke:#038048;stroke-width:1.0;"/><text fill="#000000" font-family="sans-serif" font-size="14" lengthAdjust="spacing" textLength="160" x="107" y="1445.7051">void setFont(BitmapFont)</text><ellipse cx="98" cy="1459.0859" fill="#84BE84" rx="3" ry="3" style="stroke:#038048;stroke-width:1.0;"/><text fill="#000000" font-family="sans-serif" font-size="14" lengthAdjust="spacing" textLength="144" x="107" y="1463.3145">Preferences getPrefs()</text><ellipse cx="98" cy="1476.6953" fill="#84BE84" rx="3" ry="3" style="stroke:#038048;stroke-width:1.0;"/><text fill="#000000" font-family="sans-serif" font-size="14" lengthAdjust="spacing" textLength="169" x="107" y="1480.9238">void setPrefs(Preferences)</text><ellipse cx="98" cy="1494.3047" fill="#84BE84" rx="3" ry="3" style="stroke:#038048;stroke-width:1.0;"/><text fill="#000000" font-family="sans-serif" font-size="14" lengthAdjust="spacing" textLength="80" x="107" y="1498.5332">void create()</text><ellipse cx="98" cy="1511.9141" fill="#84BE84" rx="3" ry="3" style="stroke:#038048;stroke-width:1.0;"/><text fill="#000000" font-family="sans-serif" font-size="14" lengthAdjust="spacing" textLength="82" x="107" y="1516.1426">void render()</text><ellipse cx="98" cy="1529.5234" fill="#84BE84" rx="3" ry="3" style="stroke:#038048;stroke-width:1.0;"/><text fill="#000000" font-family="sans-serif" font-size="14" lengthAdjust="spacing" textLength="89" x="107" y="1533.752">void dispose()</text></g><!--MD5=[3de1ccafbb2233cb7ab977d18c48deb3]
class com.mygdx.game.game.components.ui.Button--><g id="elem_com.mygdx.game.game.components.ui.Button"><rect codeLine="62" fill="#F1F1F1" height="664.3281" id="com.mygdx.game.game.components.ui.Button" rx="2.5" ry="2.5" style="stroke:#181818;stroke-width:0.5;" width="194" x="474.5" y="982.3125"/><ellipse cx="546.75" cy="998.3125" fill="#ADD1B2" rx="11" ry="11" style="stroke:#181818;stroke-width:1.0;"/><path d="M548.75,994.8125 Q548.9531,994.3125 549.1875,994.0625 Q549.4219,993.8125 549.6875,993.8125 Q550.1563,993.8125 550.4531,994.0938 Q550.75,994.375 550.75,995.0313 L550.75,996.5938 Q550.75,997.25 550.4688,997.5313 Q550.1875,997.8125 549.75,997.8125 Q549.3594,997.8125 549.1094,997.6406 Q548.8594,997.4688 548.75,997.0156 Q548.7031,996.7031 548.5313,996.5313 Q548.2188,996.2031 547.6563,996.0156 Q547.0938,995.8125 546.5313,995.8125 Q545.8281,995.8125 545.2344,996.0938 Q544.6563,996.375 544.2031,997 Q543.75,997.625 543.75,998.4844 L543.75,999.4063 Q543.75,1000.4375 544.5938,1001.125 Q545.4375,1001.8125 546.9375,1001.8125 Q547.8281,1001.8125 548.4531,1001.6094 Q548.8125,1001.5 549.2188,1001.1406 Q549.4844,1000.9375 549.625,1000.875 Q549.7656,1000.8125 549.9375,1000.8125 Q550.2656,1000.8125 550.5,1001.0781 Q550.75,1001.3281 550.75,1001.6875 Q550.75,1002.0313 550.4063,1002.4375 Q549.9063,1003.0313 549.1094,1003.3594 Q548.0625,1003.8125 546.7813,1003.8125 Q545.2813,1003.8125 544.0781,1003.2188 Q543.1094,1002.75 542.4219,1001.7344 Q541.75,1000.7188 541.75,999.5156 L541.75,998.4219 Q541.75,997.1719 542.3438,996.0781 Q542.9531,994.9844 544,994.4063 Q545.0625,993.8125 546.25,993.8125 Q546.9688,993.8125 547.5938,994.0625 Q548.2188,994.3125 548.75,994.8125 Z " fill="#000000"/><text fill="#000000" font-family="sans-serif" font-size="14" lengthAdjust="spacing" textLength="41" x="567.25" y="1004.041">Button</text><line style="stroke:#181818;stroke-width:0.5;" x1="475.5" x2="667.5" y1="1014.3125" y2="1014.3125"/><rect fill="none" height="6" style="stroke:#C82930;stroke-width:1.0;" width="6" x="482.5" y="1025.6172"/><text fill="#000000" font-family="sans-serif" font-size="14" lengthAdjust="spacing" textLength="69" x="494.5" y="1032.8457">Main game</text><rect fill="none" height="6" style="stroke:#C82930;stroke-width:1.0;" width="6" x="482.5" y="1043.2266"/><text fill="#000000" font-family="sans-serif" font-size="14" lengthAdjust="spacing" textLength="127" x="494.5" y="1050.4551">Rectangle rectangle</text><rect fill="none" height="6" style="stroke:#C82930;stroke-width:1.0;" width="6" x="482.5" y="1060.8359"/><text fill="#000000" font-family="sans-serif" font-size="14" lengthAdjust="spacing" textLength="37" x="494.5" y="1068.0645">float x</text><rect fill="none" height="6" style="stroke:#C82930;stroke-width:1.0;" width="6" x="482.5" y="1078.4453"/><text fill="#000000" font-family="sans-serif" font-size="14" lengthAdjust="spacing" textLength="38" x="494.5" y="1085.6738">float y</text><rect fill="none" height="6" style="stroke:#C82930;stroke-width:1.0;" width="6" x="482.5" y="1096.0547"/><text fill="#000000" font-family="sans-serif" font-size="14" lengthAdjust="spacing" textLength="63" x="494.5" y="1103.2832">float width</text><rect fill="none" height="6" style="stroke:#C82930;stroke-width:1.0;" width="6" x="482.5" y="1113.6641"/><text fill="#000000" font-family="sans-serif" font-size="14" lengthAdjust="spacing" textLength="70" x="494.5" y="1120.8926">float height</text><rect fill="none" height="6" style="stroke:#C82930;stroke-width:1.0;" width="6" x="482.5" y="1131.2734"/><text fill="#000000" font-family="sans-serif" font-size="14" lengthAdjust="spacing" textLength="76" x="494.5" y="1138.502">String name</text><rect fill="none" height="6" style="stroke:#C82930;stroke-width:1.0;" width="6" x="482.5" y="1148.8828"/><text fill="#000000" font-family="sans-serif" font-size="14" lengthAdjust="spacing" textLength="92" x="494.5" y="1156.1113">String imgPath</text><rect fill="none" height="6" style="stroke:#C82930;stroke-width:1.0;" width="6" x="482.5" y="1166.4922"/><text fill="#000000" font-family="sans-serif" font-size="14" lengthAdjust="spacing" textLength="95" x="494.5" y="1173.7207">Texture texture</text><rect fill="none" height="6" style="stroke:#C82930;stroke-width:1.0;" width="6" x="482.5" y="1184.1016"/><text fill="#000000" font-family="sans-serif" font-size="14" lengthAdjust="spacing" textLength="112" x="494.5" y="1191.3301">SpriteBatch batch</text><rect fill="none" height="6" style="stroke:#C82930;stroke-width:1.0;" width="6" x="482.5" y="1201.7109"/><text fill="#000000" font-family="sans-serif" font-size="14" lengthAdjust="spacing" textLength="103" x="494.5" y="1208.9395">boolean visibility</text><rect fill="none" height="6" style="stroke:#C82930;stroke-width:1.0;" width="6" x="482.5" y="1219.3203"/><text fill="#000000" font-family="sans-serif" font-size="14" lengthAdjust="spacing" textLength="76" x="494.5" y="1226.5488">Sprite sprite</text><rect fill="none" height="6" style="stroke:#C82930;stroke-width:1.0;" width="6" x="482.5" y="1236.9297"/><text fill="#000000" font-family="sans-serif" font-size="14" lengthAdjust="spacing" textLength="92" x="494.5" y="1244.1582">boolean active</text><line style="stroke:#181818;stroke-width:0.5;" x1="475.5" x2="667.5" y1="1251.2344" y2="1251.2344"/><ellipse cx="485.5" cy="1265.5391" fill="#84BE84" rx="3" ry="3" style="stroke:#038048;stroke-width:1.0;"/><text fill="#000000" font-family="sans-serif" font-size="14" lengthAdjust="spacing" textLength="130" x="494.5" y="1269.7676">Texture getTexture()</text><ellipse cx="485.5" cy="1283.1484" fill="#84BE84" rx="3" ry="3" style="stroke:#038048;stroke-width:1.0;"/><text fill="#000000" font-family="sans-serif" font-size="14" lengthAdjust="spacing" textLength="155" x="494.5" y="1287.377">void setTexture(Texture)</text><ellipse cx="485.5" cy="1300.7578" fill="#84BE84" rx="3" ry="3" style="stroke:#038048;stroke-width:1.0;"/><text fill="#000000" font-family="sans-serif" font-size="14" lengthAdjust="spacing" textLength="143" x="494.5" y="1304.9863">SpriteBatch getBatch()</text><ellipse cx="485.5" cy="1318.3672" fill="#84BE84" rx="3" ry="3" style="stroke:#038048;stroke-width:1.0;"/><text fill="#000000" font-family="sans-serif" font-size="14" lengthAdjust="spacing" textLength="168" x="494.5" y="1322.5957">void setBatch(SpriteBatch)</text><ellipse cx="485.5" cy="1335.9766" fill="#84BE84" rx="3" ry="3" style="stroke:#038048;stroke-width:1.0;"/><text fill="#000000" font-family="sans-serif" font-size="14" lengthAdjust="spacing" textLength="108" x="494.5" y="1340.2051">Sprite getSprite()</text><ellipse cx="485.5" cy="1353.5859" fill="#84BE84" rx="3" ry="3" style="stroke:#038048;stroke-width:1.0;"/><text fill="#000000" font-family="sans-serif" font-size="14" lengthAdjust="spacing" textLength="133" x="494.5" y="1357.8145">void setSprite(Sprite)</text><ellipse cx="485.5" cy="1371.1953" fill="#84BE84" rx="3" ry="3" style="stroke:#038048;stroke-width:1.0;"/><text fill="#000000" font-family="sans-serif" font-size="14" lengthAdjust="spacing" textLength="135" x="494.5" y="1375.4238">boolean getVisibility()</text><ellipse cx="485.5" cy="1388.8047" fill="#84BE84" rx="3" ry="3" style="stroke:#038048;stroke-width:1.0;"/><text fill="#000000" font-family="sans-serif" font-size="14" lengthAdjust="spacing" textLength="160" x="494.5" y="1393.0332">void setVisibility(boolean)</text><ellipse cx="485.5" cy="1406.4141" fill="#84BE84" rx="3" ry="3" style="stroke:#038048;stroke-width:1.0;"/><text fill="#000000" font-family="sans-serif" font-size="14" lengthAdjust="spacing" textLength="113" x="494.5" y="1410.6426">boolean isActive()</text><ellipse cx="485.5" cy="1424.0234" fill="#84BE84" rx="3" ry="3" style="stroke:#038048;stroke-width:1.0;"/><text fill="#000000" font-family="sans-serif" font-size="14" lengthAdjust="spacing" textLength="148" x="494.5" y="1428.252">void setActive(boolean)</text><ellipse cx="485.5" cy="1441.6328" fill="#84BE84" rx="3" ry="3" style="stroke:#038048;stroke-width:1.0;"/><text fill="#000000" font-family="sans-serif" font-size="14" lengthAdjust="spacing" textLength="168" x="494.5" y="1445.8613">void setButtonColor(Color)</text><ellipse cx="485.5" cy="1459.2422" fill="#84BE84" rx="3" ry="3" style="stroke:#038048;stroke-width:1.0;"/><text fill="#000000" font-family="sans-serif" font-size="14" lengthAdjust="spacing" textLength="69" x="494.5" y="1463.4707">float getX()</text><ellipse cx="485.5" cy="1476.8516" fill="#84BE84" rx="3" ry="3" style="stroke:#038048;stroke-width:1.0;"/><text fill="#000000" font-family="sans-serif" font-size="14" lengthAdjust="spacing" textLength="94" x="494.5" y="1481.0801">void setX(float)</text><ellipse cx="485.5" cy="1494.4609" fill="#84BE84" rx="3" ry="3" style="stroke:#038048;stroke-width:1.0;"/><text fill="#000000" font-family="sans-serif" font-size="14" lengthAdjust="spacing" textLength="70" x="494.5" y="1498.6895">float getY()</text><ellipse cx="485.5" cy="1512.0703" fill="#84BE84" rx="3" ry="3" style="stroke:#038048;stroke-width:1.0;"/><text fill="#000000" font-family="sans-serif" font-size="14" lengthAdjust="spacing" textLength="95" x="494.5" y="1516.2988">void setY(float)</text><ellipse cx="485.5" cy="1529.6797" fill="#84BE84" rx="3" ry="3" style="stroke:#038048;stroke-width:1.0;"/><text fill="#000000" font-family="sans-serif" font-size="14" lengthAdjust="spacing" textLength="97" x="494.5" y="1533.9082">float getWidth()</text><ellipse cx="485.5" cy="1547.2891" fill="#84BE84" rx="3" ry="3" style="stroke:#038048;stroke-width:1.0;"/><text fill="#000000" font-family="sans-serif" font-size="14" lengthAdjust="spacing" textLength="122" x="494.5" y="1551.5176">void setWidth(float)</text><ellipse cx="485.5" cy="1564.8984" fill="#84BE84" rx="3" ry="3" style="stroke:#038048;stroke-width:1.0;"/><text fill="#000000" font-family="sans-serif" font-size="14" lengthAdjust="spacing" textLength="101" x="494.5" y="1569.127">float getHeight()</text><ellipse cx="485.5" cy="1582.5078" fill="#84BE84" rx="3" ry="3" style="stroke:#038048;stroke-width:1.0;"/><text fill="#000000" font-family="sans-serif" font-size="14" lengthAdjust="spacing" textLength="126" x="494.5" y="1586.7363">void setHeight(float)</text><ellipse cx="485.5" cy="1600.1172" fill="#84BE84" rx="3" ry="3" style="stroke:#038048;stroke-width:1.0;"/><text fill="#000000" font-family="sans-serif" font-size="14" lengthAdjust="spacing" textLength="107" x="494.5" y="1604.3457">String getName()</text><ellipse cx="485.5" cy="1617.7266" fill="#84BE84" rx="3" ry="3" style="stroke:#038048;stroke-width:1.0;"/><text fill="#000000" font-family="sans-serif" font-size="14" lengthAdjust="spacing" textLength="132" x="494.5" y="1621.9551">void setName(String)</text><ellipse cx="485.5" cy="1635.3359" fill="#84BE84" rx="3" ry="3" style="stroke:#038048;stroke-width:1.0;"/><text fill="#000000" font-family="sans-serif" font-size="14" lengthAdjust="spacing" textLength="139" x="494.5" y="1639.5645">Rectangle getBound()</text></g><!--MD5=[e28b97f13ebe0e0d0e1b4a0418369900]
class com.mygdx.game.engine.input.CustomInputProcessor--><g id="elem_com.mygdx.game.engine.input.CustomInputProcessor"><rect codeLine="100" fill="#F1F1F1" height="224.0938" id="com.mygdx.game.engine.input.CustomInputProcessor" rx="2.5" ry="2.5" style="stroke:#181818;stroke-width:0.5;" width="234" x="768.5" y="1202.3125"/><ellipse cx="810.05" cy="1218.3125" fill="#ADD1B2" rx="11" ry="11" style="stroke:#181818;stroke-width:1.0;"/><path d="M812.05,1214.8125 Q812.2531,1214.3125 812.4875,1214.0625 Q812.7219,1213.8125 812.9875,1213.8125 Q813.4563,1213.8125 813.7531,1214.0938 Q814.05,1214.375 814.05,1215.0313 L814.05,1216.5938 Q814.05,1217.25 813.7688,1217.5313 Q813.4875,1217.8125 813.05,1217.8125 Q812.6594,1217.8125 812.4094,1217.6406 Q812.1594,1217.4688 812.05,1217.0156 Q812.0031,1216.7031 811.8313,1216.5313 Q811.5188,1216.2031 810.9563,1216.0156 Q810.3938,1215.8125 809.8313,1215.8125 Q809.1281,1215.8125 808.5344,1216.0938 Q807.9563,1216.375 807.5031,1217 Q807.05,1217.625 807.05,1218.4844 L807.05,1219.4063 Q807.05,1220.4375 807.8938,1221.125 Q808.7375,1221.8125 810.2375,1221.8125 Q811.1281,1221.8125 811.7531,1221.6094 Q812.1125,1221.5 812.5188,1221.1406 Q812.7844,1220.9375 812.925,1220.875 Q813.0656,1220.8125 813.2375,1220.8125 Q813.5656,1220.8125 813.8,1221.0781 Q814.05,1221.3281 814.05,1221.6875 Q814.05,1222.0313 813.7063,1222.4375 Q813.2063,1223.0313 812.4094,1223.3594 Q811.3625,1223.8125 810.0813,1223.8125 Q808.5813,1223.8125 807.3781,1223.2188 Q806.4094,1222.75 805.7219,1221.7344 Q805.05,1220.7188 805.05,1219.5156 L805.05,1218.4219 Q805.05,1217.1719 805.6438,1216.0781 Q806.2531,1214.9844 807.3,1214.4063 Q808.3625,1213.8125 809.55,1213.8125 Q810.2688,1213.8125 810.8938,1214.0625 Q811.5188,1214.3125 812.05,1214.8125 Z " fill="#000000"/><text fill="#000000" font-family="sans-serif" font-size="14" lengthAdjust="spacing" textLength="143" x="829.95" y="1224.041">CustomInputProcessor</text><line style="stroke:#181818;stroke-width:0.5;" x1="769.5" x2="1001.5" y1="1234.3125" y2="1234.3125"/><line style="stroke:#181818;stroke-width:0.5;" x1="769.5" x2="1001.5" y1="1242.3125" y2="1242.3125"/><ellipse cx="779.5" cy="1256.6172" fill="#84BE84" rx="3" ry="3" style="stroke:#038048;stroke-width:1.0;"/><text fill="#000000" font-family="sans-serif" font-size="14" lengthAdjust="spacing" textLength="168" x="788.5" y="1260.8457">boolean mouseClicked(int)</text><ellipse cx="779.5" cy="1274.2266" fill="#84BE84" rx="3" ry="3" style="stroke:#038048;stroke-width:1.0;"/><text fill="#000000" font-family="sans-serif" font-size="14" lengthAdjust="spacing" textLength="137" x="788.5" y="1278.4551">boolean keyDown(int)</text><ellipse cx="779.5" cy="1291.8359" fill="#84BE84" rx="3" ry="3" style="stroke:#038048;stroke-width:1.0;"/><text fill="#000000" font-family="sans-serif" font-size="14" lengthAdjust="spacing" textLength="119" x="788.5" y="1296.0645">boolean keyUp(int)</text><ellipse cx="779.5" cy="1309.4453" fill="#84BE84" rx="3" ry="3" style="stroke:#038048;stroke-width:1.0;"/><text fill="#000000" font-family="sans-serif" font-size="14" lengthAdjust="spacing" textLength="155" x="788.5" y="1313.6738">boolean keyTyped(char)</text><ellipse cx="779.5" cy="1327.0547" fill="#84BE84" rx="3" ry="3" style="stroke:#038048;stroke-width:1.0;"/><text fill="#000000" font-family="sans-serif" font-size="14" lengthAdjust="spacing" textLength="207" x="788.5" y="1331.2832">boolean touchDown(int,int,int,int)</text><ellipse cx="779.5" cy="1344.6641" fill="#84BE84" rx="3" ry="3" style="stroke:#038048;stroke-width:1.0;"/><text fill="#000000" font-family="sans-serif" font-size="14" lengthAdjust="spacing" textLength="189" x="788.5" y="1348.8926">boolean touchUp(int,int,int,int)</text><ellipse cx="779.5" cy="1362.2734" fill="#84BE84" rx="3" ry="3" style="stroke:#038048;stroke-width:1.0;"/><text fill="#000000" font-family="sans-serif" font-size="14" lengthAdjust="spacing" textLength="208" x="788.5" y="1366.502">boolean touchDragged(int,int,int)</text><ellipse cx="779.5" cy="1379.8828" fill="#84BE84" rx="3" ry="3" style="stroke:#038048;stroke-width:1.0;"/><text fill="#000000" font-family="sans-serif" font-size="14" lengthAdjust="spacing" textLength="183" x="788.5" y="1384.1113">boolean mouseMoved(int,int)</text><ellipse cx="779.5" cy="1397.4922" fill="#84BE84" rx="3" ry="3" style="stroke:#038048;stroke-width:1.0;"/><text fill="#000000" font-family="sans-serif" font-size="14" lengthAdjust="spacing" textLength="172" x="788.5" y="1401.7207">boolean scrolled(float,float)</text><ellipse cx="779.5" cy="1415.1016" fill="#84BE84" rx="3" ry="3" style="stroke:#038048;stroke-width:1.0;"/><text fill="#000000" font-family="sans-serif" font-size="14" lengthAdjust="spacing" textLength="184" x="788.5" y="1419.3301">boolean mouseHoverOver(T)</text></g><!--MD5=[666891b85ade836901afebab7f2e5ce4]
reverse link com.mygdx.game.game.screens.menu.PauseScreen to com.mygdx.game.engine.input.CustomInputProcessor--><g id="link_com.mygdx.game.game.screens.menu.PauseScreen_com.mygdx.game.engine.input.CustomInputProcessor"><path codeLine="113" d="M700.75,491.4925 C700.75,491.4925 700.75,1314.3125 700.75,1314.3125 C700.75,1314.3125 731.83,1314.3125 768.5,1314.3125 " fill="none" id="com.mygdx.game.game.screens.menu.PauseScreen-backto-com.mygdx.game.engine.input.CustomInputProcessor" style="stroke:#181818;stroke-width:1.0;"/><polygon fill="#181818" points="700.75,478.4925,696.75,484.4925,700.75,490.4925,704.75,484.4925,700.75,478.4925" style="stroke:#181818;stroke-width:1.0;"/><text fill="#000000" font-family="sans-serif" font-size="13" lengthAdjust="spacing" textLength="21" x="678.75" y="933.2676">has</text></g><!--MD5=[ea7b6b4ffb2d984120fe698391bd0e1a]
reverse link com.mygdx.game.game.screens.menu.PauseScreen to com.mygdx.game.engine.lifecycle.Main--><g id="link_com.mygdx.game.game.screens.menu.PauseScreen_com.mygdx.game.engine.lifecycle.Main"><path codeLine="114" d="M442.25,491.4925 C442.25,491.4925 442.25,1314.3125 442.25,1314.3125 C442.25,1314.3125 411.85,1314.3125 374.09,1314.3125 " fill="none" id="com.mygdx.game.game.screens.menu.PauseScreen-backto-com.mygdx.game.engine.lifecycle.Main" style="stroke:#181818;stroke-width:1.0;"/><polygon fill="#181818" points="442.25,478.4925,438.25,484.4925,442.25,490.4925,446.25,484.4925,442.25,478.4925" style="stroke:#181818;stroke-width:1.0;"/><text fill="#000000" font-family="sans-serif" font-size="13" lengthAdjust="spacing" textLength="21" x="420.25" y="933.4776">has</text></g><!--MD5=[f6e91c29d88f242c7f13c3966b9728d0]
reverse link com.mygdx.game.game.screens.menu.PauseScreen to com.mygdx.game.game.components.ui.Button--><g id="link_com.mygdx.game.game.screens.menu.PauseScreen_com.mygdx.game.game.components.ui.Button"><path codeLine="115" d="M571.5,491.4925 C571.5,491.4925 571.5,982.1025 571.5,982.1025 " fill="none" id="com.mygdx.game.game.screens.menu.PauseScreen-backto-com.mygdx.game.game.components.ui.Button" style="stroke:#181818;stroke-width:1.0;"/><polygon fill="#181818" points="571.5,478.4925,567.5,484.4925,571.5,490.4925,575.5,484.4925,571.5,478.4925" style="stroke:#181818;stroke-width:1.0;"/><text fill="#000000" font-family="sans-serif" font-size="13" lengthAdjust="spacing" textLength="57" x="513.5" y="733.2876">has many</text></g><!--MD5=[247f05e8c9e088fa8d2e66e569ce83d7]
@startuml
skinparam linetype polyline
skinparam linetype ortho

skinparam nodesep 100
skinparam ranksep 100

skinparam titleBorderRoundCorner 15
skinparam titleBorderThickness 2
skinparam titleBorderColor red
skinparam titleBackgroundColor Aqua-CadetBlue
skinparam TitleFontSize 40

title Appendix K - PauseScreen Class Composition Relations

class com.mygdx.game.game.screens.menu.PauseScreen {
- SpriteBatch batch
- Texture texture
- CustomInputProcessor inputProcessor
- Main game
- ArrayList<Button> buttons
- ArrayList<String> buttonPath
+ CustomInputProcessor getInputProcessor()
+ void setInputProcessor(CustomInputProcessor)
+ ArrayList<Button> getButtons()
+ void setButtons(ArrayList<Button>)
+ void show()
+ void render(float)
+ void resize(int,int)
+ void pause()
+ void resume()
+ void hide()
+ void dispose()
+ void quit()
}

class com.mygdx.game.engine.lifecycle.Main {
- {static} Main instance
- ScreenManager screenManager
- Preferences prefs
- SoundManager soundManager
+ EntityManager entityManager
- SpriteBatch batch
- BitmapFont font
+ int HEIGHT
+ int WIDTH
+ {static} Main getInstance()
+ ScreenManager getScreenManager()
+ void setScreenManager(ScreenManager)
+ SoundManager getSoundManager()
+ void setSoundManager(SoundManager)
+ SpriteBatch getBatch()
+ void setBatch(SpriteBatch)
+ BitmapFont getFont()
+ void setFont(BitmapFont)
+ Preferences getPrefs()
+ void setPrefs(Preferences)
+ void create()
+ void render()
+ void dispose()
}

class com.mygdx.game.game.components.ui.Button {
- Main game
- Rectangle rectangle
- float x
- float y
- float width
- float height
- String name
- String imgPath
- Texture texture
- SpriteBatch batch
- boolean visibility
- Sprite sprite
- boolean active
+ Texture getTexture()
+ void setTexture(Texture)
+ SpriteBatch getBatch()
+ void setBatch(SpriteBatch)
+ Sprite getSprite()
+ void setSprite(Sprite)
+ boolean getVisibility()
+ void setVisibility(boolean)
+ boolean isActive()
+ void setActive(boolean)
+ void setButtonColor(Color)
+ float getX()
+ void setX(float)
+ float getY()
+ void setY(float)
+ float getWidth()
+ void setWidth(float)
+ float getHeight()
+ void setHeight(float)
+ String getName()
+ void setName(String)
+ Rectangle getBound()
}

class com.mygdx.game.engine.input.CustomInputProcessor {
+ boolean mouseClicked(int)
+ boolean keyDown(int)
+ boolean keyUp(int)
+ boolean keyTyped(char)
+ boolean touchDown(int,int,int,int)
+ boolean touchUp(int,int,int,int)
+ boolean touchDragged(int,int,int)
+ boolean mouseMoved(int,int)
+ boolean scrolled(float,float)
+ boolean mouseHoverOver(T)
}

com.mygdx.game.game.screens.menu.PauseScreen *- - - - - - com.mygdx.game.engine.input.CustomInputProcessor :has
com.mygdx.game.game.screens.menu.PauseScreen *- - - - - - com.mygdx.game.engine.lifecycle.Main :has
com.mygdx.game.game.screens.menu.PauseScreen *- - - - - - com.mygdx.game.game.components.ui.Button :has many
@enduml

PlantUML version 1.2022.12(Mon Oct 24 02:12:26 SGT 2022)
(GPL source distribution)
Java Runtime: OpenJDK Runtime Environment
JVM: OpenJDK 64-Bit Server VM
Default Encoding: Cp1252
Language: en
Country: SG
--></g></svg>