<?xml version="1.0" encoding="UTF-8" standalone="no"?><svg xmlns="http://www.w3.org/2000/svg" xmlns:xlink="http://www.w3.org/1999/xlink" contentStyleType="text/css" height="1458px" preserveAspectRatio="none" style="width:1451px;height:1458px;background:#FFFFFF;" version="1.1" viewBox="0 0 1451 1458" width="1451px" zoomAndPan="magnify"><defs><linearGradient id="gqy20l4aic3nj0" x1="50%" x2="50%" y1="0%" y2="100%"><stop offset="0%" stop-color="#00FFFF"/><stop offset="100%" stop-color="#5F9EA0"/></linearGradient></defs><g><rect fill="url(#gqy20l4aic3nj0)" height="60.3125" id="_title" rx="7.5" ry="7.5" style="stroke:#FF0000;stroke-width:2.0;" width="1013" x="212" y="5"/><text fill="#000000" font-family="sans-serif" font-size="40" font-weight="bold" lengthAdjust="spacing" textLength="1003" x="217" y="51.5234">Appendix G - GamePlay Class Composition Relations</text><!--MD5=[2a00c780aa0b064af1c25fc99406271b]
cluster com.mygdx.game.game.logic--><g id="cluster_com.mygdx.game.game.logic"><path d="M554.5,77.3125 L755.5,77.3125 A3.75,3.75 0 0 1 758,79.8125 L765,100.9219 L849.5,100.9219 A2.5,2.5 0 0 1 852,103.4219 L852,491.8125 A2.5,2.5 0 0 1 849.5,494.3125 L554.5,494.3125 A2.5,2.5 0 0 1 552,491.8125 L552,79.8125 A2.5,2.5 0 0 1 554.5,77.3125 " fill="none" style="stroke:#000000;stroke-width:1.5;"/><line style="stroke:#000000;stroke-width:1.5;" x1="552" x2="765" y1="100.9219" y2="100.9219"/><text fill="#000000" font-family="sans-serif" font-size="14" font-weight="bold" lengthAdjust="spacing" textLength="200" x="556" y="93.8457">com.mygdx.game.game.logic</text></g><!--MD5=[f5720f8f2d84faa53b7e58c13b303426]
cluster com.mygdx.game.engine.lifecycle--><g id="cluster_com.mygdx.game.engine.lifecycle"><path d="M8.5,946.3125 L244.5,946.3125 A3.75,3.75 0 0 1 247,948.8125 L254,969.9219 L323.5,969.9219 A2.5,2.5 0 0 1 326,972.4219 L326,1448.8125 A2.5,2.5 0 0 1 323.5,1451.3125 L8.5,1451.3125 A2.5,2.5 0 0 1 6,1448.8125 L6,948.8125 A2.5,2.5 0 0 1 8.5,946.3125 " fill="none" style="stroke:#000000;stroke-width:1.5;"/><line style="stroke:#000000;stroke-width:1.5;" x1="6" x2="254" y1="969.9219" y2="969.9219"/><text fill="#000000" font-family="sans-serif" font-size="14" font-weight="bold" lengthAdjust="spacing" textLength="235" x="10" y="962.8457">com.mygdx.game.engine.lifecycle</text></g><!--MD5=[db2e1f00a229089377349fbd41189772]
cluster com.mygdx.game.game.components.game--><g id="cluster_com.mygdx.game.game.components.game"><path d="M396.5,955.3125 L692.5,955.3125 A3.75,3.75 0 0 1 695,957.8125 L702,978.9219 L1107.5,978.9219 A2.5,2.5 0 0 1 1110,981.4219 L1110,1439.8125 A2.5,2.5 0 0 1 1107.5,1442.3125 L396.5,1442.3125 A2.5,2.5 0 0 1 394,1439.8125 L394,957.8125 A2.5,2.5 0 0 1 396.5,955.3125 " fill="none" style="stroke:#000000;stroke-width:1.5;"/><line style="stroke:#000000;stroke-width:1.5;" x1="394" x2="702" y1="978.9219" y2="978.9219"/><text fill="#000000" font-family="sans-serif" font-size="14" font-weight="bold" lengthAdjust="spacing" textLength="295" x="398" y="971.8457">com.mygdx.game.game.components.game</text></g><!--MD5=[6d572adab93e1a2768c068c53f7d318b]
cluster com.mygdx.game.engine.input--><g id="cluster_com.mygdx.game.engine.input"><path d="M1180.5,1060.8125 L1394.5,1060.8125 A3.75,3.75 0 0 1 1397,1063.3125 L1404,1084.4219 L1441.5,1084.4219 A2.5,2.5 0 0 1 1444,1086.9219 L1444,1334.3125 A2.5,2.5 0 0 1 1441.5,1336.8125 L1180.5,1336.8125 A2.5,2.5 0 0 1 1178,1334.3125 L1178,1063.3125 A2.5,2.5 0 0 1 1180.5,1060.8125 " fill="none" style="stroke:#000000;stroke-width:1.5;"/><line style="stroke:#000000;stroke-width:1.5;" x1="1178" x2="1404" y1="1084.4219" y2="1084.4219"/><text fill="#000000" font-family="sans-serif" font-size="14" font-weight="bold" lengthAdjust="spacing" textLength="213" x="1182" y="1077.3457">com.mygdx.game.engine.input</text></g><!--MD5=[a646d36778a92f50d941f8929bbc8e30]
class com.mygdx.game.game.logic.GamePlay--><g id="elem_com.mygdx.game.game.logic.GamePlay"><rect codeLine="15" fill="#F1F1F1" height="364.9688" id="com.mygdx.game.game.logic.GamePlay" rx="2.5" ry="2.5" style="stroke:#181818;stroke-width:0.5;" width="268" x="568" y="113.3125"/><ellipse cx="665.25" cy="129.3125" fill="#ADD1B2" rx="11" ry="11" style="stroke:#181818;stroke-width:1.0;"/><path d="M667.25,125.8125 Q667.4531,125.3125 667.6875,125.0625 Q667.9219,124.8125 668.1875,124.8125 Q668.6563,124.8125 668.9531,125.0938 Q669.25,125.375 669.25,126.0313 L669.25,127.5938 Q669.25,128.25 668.9688,128.5313 Q668.6875,128.8125 668.25,128.8125 Q667.8594,128.8125 667.6094,128.6406 Q667.3594,128.4688 667.25,128.0156 Q667.2031,127.7031 667.0313,127.5313 Q666.7188,127.2031 666.1563,127.0156 Q665.5938,126.8125 665.0313,126.8125 Q664.3281,126.8125 663.7344,127.0938 Q663.1563,127.375 662.7031,128 Q662.25,128.625 662.25,129.4844 L662.25,130.4063 Q662.25,131.4375 663.0938,132.125 Q663.9375,132.8125 665.4375,132.8125 Q666.3281,132.8125 666.9531,132.6094 Q667.3125,132.5 667.7188,132.1406 Q667.9844,131.9375 668.125,131.875 Q668.2656,131.8125 668.4375,131.8125 Q668.7656,131.8125 669,132.0781 Q669.25,132.3281 669.25,132.6875 Q669.25,133.0313 668.9063,133.4375 Q668.4063,134.0313 667.6094,134.3594 Q666.5625,134.8125 665.2813,134.8125 Q663.7813,134.8125 662.5781,134.2188 Q661.6094,133.75 660.9219,132.7344 Q660.25,131.7188 660.25,130.5156 L660.25,129.4219 Q660.25,128.1719 660.8438,127.0781 Q661.4531,125.9844 662.5,125.4063 Q663.5625,124.8125 664.75,124.8125 Q665.4688,124.8125 666.0938,125.0625 Q666.7188,125.3125 667.25,125.8125 Z " fill="#000000"/><text fill="#000000" font-family="sans-serif" font-size="14" lengthAdjust="spacing" textLength="65" x="685.75" y="135.041">GamePlay</text><line style="stroke:#181818;stroke-width:0.5;" x1="569" x2="835" y1="145.3125" y2="145.3125"/><rect fill="none" height="6" style="stroke:#C82930;stroke-width:1.0;" width="6" x="576" y="156.6172"/><text fill="#000000" font-family="sans-serif" font-size="14" lengthAdjust="spacing" textLength="69" x="588" y="163.8457">Main game</text><rect fill="none" height="6" style="stroke:#C82930;stroke-width:1.0;" width="6" x="576" y="174.2266"/><text fill="#000000" font-family="sans-serif" font-size="14" lengthAdjust="spacing" textLength="155" x="588" y="181.4551">Background background</text><rect fill="none" height="6" style="stroke:#C82930;stroke-width:1.0;" width="6" x="576" y="191.8359"/><text fill="#000000" font-family="sans-serif" font-size="14" lengthAdjust="spacing" textLength="132" x="588" y="199.0645">int backgroundOffset</text><rect fill="none" height="6" style="stroke:#C82930;stroke-width:1.0;" width="6" x="576" y="209.4453"/><text fill="#000000" font-family="sans-serif" font-size="14" lengthAdjust="spacing" textLength="242" x="588" y="216.6738">CustomInputProcessor inputProcessor</text><rect fill="none" height="6" style="stroke:#C82930;stroke-width:1.0;" width="6" x="576" y="227.0547"/><text fill="#000000" font-family="sans-serif" font-size="14" lengthAdjust="spacing" textLength="127" x="588" y="234.2832">HealthBar healthBar</text><rect fill="none" height="6" style="stroke:#C82930;stroke-width:1.0;" width="6" x="576" y="244.6641"/><text fill="#000000" font-family="sans-serif" font-size="14" lengthAdjust="spacing" textLength="72" x="588" y="251.8926">int distance</text><rect fill="none" height="6" style="stroke:#C82930;stroke-width:1.0;" width="6" x="576" y="262.2734"/><text fill="#000000" font-family="sans-serif" font-size="14" lengthAdjust="spacing" textLength="115" x="588" y="269.502">long lastDropTime</text><rect fill="none" height="6" style="stroke:#C82930;stroke-width:1.0;" width="6" x="576" y="279.8828"/><text fill="#000000" font-family="sans-serif" font-size="14" lengthAdjust="spacing" textLength="155" x="588" y="287.1113">long lastPlanetDropTime</text><rect fill="none" height="6" style="stroke:#C82930;stroke-width:1.0;" width="6" x="576" y="297.4922"/><text fill="#000000" font-family="sans-serif" font-size="14" lengthAdjust="spacing" textLength="121" x="588" y="304.7207">long lastShootTime</text><rect fill="none" height="6" style="stroke:#C82930;stroke-width:1.0;" width="6" x="576" y="315.1016"/><text fill="#000000" font-family="sans-serif" font-size="14" lengthAdjust="spacing" textLength="150" x="588" y="322.3301">long lastShootTimeUFO</text><rect fill="none" height="6" style="stroke:#C82930;stroke-width:1.0;" width="6" x="576" y="332.7109"/><text fill="#000000" font-family="sans-serif" font-size="14" lengthAdjust="spacing" textLength="101" x="588" y="339.9395">float spawnRate</text><rect fill="none" height="6" style="stroke:#C82930;stroke-width:1.0;" width="6" x="576" y="350.3203"/><text fill="#000000" font-family="sans-serif" font-size="14" lengthAdjust="spacing" textLength="157" x="588" y="357.5488">float spawnRateMultiplier</text><rect fill="none" height="6" style="stroke:#C82930;stroke-width:1.0;" width="6" x="576" y="367.9297"/><text fill="#000000" font-family="sans-serif" font-size="14" lengthAdjust="spacing" textLength="171" x="588" y="375.1582">float lastTimeUFOSpawned</text><rect fill="none" height="6" style="stroke:#C82930;stroke-width:1.0;" width="6" x="576" y="385.5391"/><text fill="#000000" font-family="sans-serif" font-size="14" lengthAdjust="spacing" textLength="96" x="588" y="392.7676">boolean isDrop</text><rect fill="none" height="6" style="stroke:#C82930;stroke-width:1.0;" width="6" x="576" y="403.1484"/><text fill="#000000" font-family="sans-serif" font-size="14" lengthAdjust="spacing" textLength="118" x="588" y="410.377">int nextPlanetIndex</text><rect fill="none" height="6" style="stroke:#C82930;stroke-width:1.0;" width="6" x="576" y="420.7578"/><text fill="#000000" font-family="sans-serif" font-size="14" lengthAdjust="spacing" textLength="107" x="588" y="427.9863">String nextPlanet</text><line style="stroke:#181818;stroke-width:0.5;" x1="569" x2="835" y1="435.0625" y2="435.0625"/><ellipse cx="579" cy="449.3672" fill="#84BE84" rx="3" ry="3" style="stroke:#038048;stroke-width:1.0;"/><text fill="#000000" font-family="sans-serif" font-size="14" lengthAdjust="spacing" textLength="80" x="588" y="453.5957">void create()</text><ellipse cx="579" cy="466.9766" fill="#84BE84" rx="3" ry="3" style="stroke:#038048;stroke-width:1.0;"/><text fill="#000000" font-family="sans-serif" font-size="14" lengthAdjust="spacing" textLength="82" x="588" y="471.2051">void render()</text></g><!--MD5=[533628e9c9f667eb08bf66ebfc75b243]
class com.mygdx.game.engine.lifecycle.Main--><g id="elem_com.mygdx.game.engine.lifecycle.Main"><rect codeLine="36" fill="#F1F1F1" height="453.0156" id="com.mygdx.game.engine.lifecycle.Main" rx="2.5" ry="2.5" style="stroke:#181818;stroke-width:0.5;" width="287" x="22.5" y="982.3125"/><ellipse cx="146.75" cy="998.3125" fill="#ADD1B2" rx="11" ry="11" style="stroke:#181818;stroke-width:1.0;"/><path d="M148.75,994.8125 Q148.9531,994.3125 149.1875,994.0625 Q149.4219,993.8125 149.6875,993.8125 Q150.1563,993.8125 150.4531,994.0938 Q150.75,994.375 150.75,995.0313 L150.75,996.5938 Q150.75,997.25 150.4688,997.5313 Q150.1875,997.8125 149.75,997.8125 Q149.3594,997.8125 149.1094,997.6406 Q148.8594,997.4688 148.75,997.0156 Q148.7031,996.7031 148.5313,996.5313 Q148.2188,996.2031 147.6563,996.0156 Q147.0938,995.8125 146.5313,995.8125 Q145.8281,995.8125 145.2344,996.0938 Q144.6563,996.375 144.2031,997 Q143.75,997.625 143.75,998.4844 L143.75,999.4063 Q143.75,1000.4375 144.5938,1001.125 Q145.4375,1001.8125 146.9375,1001.8125 Q147.8281,1001.8125 148.4531,1001.6094 Q148.8125,1001.5 149.2188,1001.1406 Q149.4844,1000.9375 149.625,1000.875 Q149.7656,1000.8125 149.9375,1000.8125 Q150.2656,1000.8125 150.5,1001.0781 Q150.75,1001.3281 150.75,1001.6875 Q150.75,1002.0313 150.4063,1002.4375 Q149.9063,1003.0313 149.1094,1003.3594 Q148.0625,1003.8125 146.7813,1003.8125 Q145.2813,1003.8125 144.0781,1003.2188 Q143.1094,1002.75 142.4219,1001.7344 Q141.75,1000.7188 141.75,999.5156 L141.75,998.4219 Q141.75,997.1719 142.3438,996.0781 Q142.9531,994.9844 144,994.4063 Q145.0625,993.8125 146.25,993.8125 Q146.9688,993.8125 147.5938,994.0625 Q148.2188,994.3125 148.75,994.8125 Z " fill="#000000"/><text fill="#000000" font-family="sans-serif" font-size="14" lengthAdjust="spacing" textLength="30" x="167.25" y="1004.041">Main</text><line style="stroke:#181818;stroke-width:0.5;" x1="23.5" x2="308.5" y1="1014.3125" y2="1014.3125"/><rect fill="none" height="6" style="stroke:#C82930;stroke-width:1.0;" width="6" x="30.5" y="1025.6172"/><text fill="#000000" font-family="sans-serif" font-size="14" lengthAdjust="spacing" text-decoration="underline" textLength="87" x="42.5" y="1032.8457">Main instance</text><rect fill="none" height="6" style="stroke:#C82930;stroke-width:1.0;" width="6" x="30.5" y="1043.2266"/><text fill="#000000" font-family="sans-serif" font-size="14" lengthAdjust="spacing" textLength="204" x="42.5" y="1050.4551">ScreenManager screenManager</text><rect fill="none" height="6" style="stroke:#C82930;stroke-width:1.0;" width="6" x="30.5" y="1060.8359"/><text fill="#000000" font-family="sans-serif" font-size="14" lengthAdjust="spacing" textLength="113" x="42.5" y="1068.0645">Preferences prefs</text><rect fill="none" height="6" style="stroke:#C82930;stroke-width:1.0;" width="6" x="30.5" y="1078.4453"/><text fill="#000000" font-family="sans-serif" font-size="14" lengthAdjust="spacing" textLength="196" x="42.5" y="1085.6738">SoundManager soundManager</text><ellipse cx="33.5" cy="1099.0547" fill="none" rx="3" ry="3" style="stroke:#038048;stroke-width:1.0;"/><text fill="#000000" font-family="sans-serif" font-size="14" lengthAdjust="spacing" textLength="185" x="42.5" y="1103.2832">EntityManager entityManager</text><rect fill="none" height="6" style="stroke:#C82930;stroke-width:1.0;" width="6" x="30.5" y="1113.6641"/><text fill="#000000" font-family="sans-serif" font-size="14" lengthAdjust="spacing" textLength="112" x="42.5" y="1120.8926">SpriteBatch batch</text><rect fill="none" height="6" style="stroke:#C82930;stroke-width:1.0;" width="6" x="30.5" y="1131.2734"/><text fill="#000000" font-family="sans-serif" font-size="14" lengthAdjust="spacing" textLength="100" x="42.5" y="1138.502">BitmapFont font</text><ellipse cx="33.5" cy="1151.8828" fill="none" rx="3" ry="3" style="stroke:#038048;stroke-width:1.0;"/><text fill="#000000" font-family="sans-serif" font-size="14" lengthAdjust="spacing" textLength="69" x="42.5" y="1156.1113">int HEIGHT</text><ellipse cx="33.5" cy="1169.4922" fill="none" rx="3" ry="3" style="stroke:#038048;stroke-width:1.0;"/><text fill="#000000" font-family="sans-serif" font-size="14" lengthAdjust="spacing" textLength="63" x="42.5" y="1173.7207">int WIDTH</text><line style="stroke:#181818;stroke-width:0.5;" x1="23.5" x2="308.5" y1="1180.7969" y2="1180.7969"/><ellipse cx="33.5" cy="1195.1016" fill="#84BE84" rx="3" ry="3" style="stroke:#038048;stroke-width:1.0;"/><text fill="#000000" font-family="sans-serif" font-size="14" lengthAdjust="spacing" text-decoration="underline" textLength="117" x="42.5" y="1199.3301">Main getInstance()</text><ellipse cx="33.5" cy="1212.7109" fill="#84BE84" rx="3" ry="3" style="stroke:#038048;stroke-width:1.0;"/><text fill="#000000" font-family="sans-serif" font-size="14" lengthAdjust="spacing" textLength="236" x="42.5" y="1216.9395">ScreenManager getScreenManager()</text><ellipse cx="33.5" cy="1230.3203" fill="#84BE84" rx="3" ry="3" style="stroke:#038048;stroke-width:1.0;"/><text fill="#000000" font-family="sans-serif" font-size="14" lengthAdjust="spacing" textLength="261" x="42.5" y="1234.5488">void setScreenManager(ScreenManager)</text><ellipse cx="33.5" cy="1247.9297" fill="#84BE84" rx="3" ry="3" style="stroke:#038048;stroke-width:1.0;"/><text fill="#000000" font-family="sans-serif" font-size="14" lengthAdjust="spacing" textLength="228" x="42.5" y="1252.1582">SoundManager getSoundManager()</text><ellipse cx="33.5" cy="1265.5391" fill="#84BE84" rx="3" ry="3" style="stroke:#038048;stroke-width:1.0;"/><text fill="#000000" font-family="sans-serif" font-size="14" lengthAdjust="spacing" textLength="253" x="42.5" y="1269.7676">void setSoundManager(SoundManager)</text><ellipse cx="33.5" cy="1283.1484" fill="#84BE84" rx="3" ry="3" style="stroke:#038048;stroke-width:1.0;"/><text fill="#000000" font-family="sans-serif" font-size="14" lengthAdjust="spacing" textLength="143" x="42.5" y="1287.377">SpriteBatch getBatch()</text><ellipse cx="33.5" cy="1300.7578" fill="#84BE84" rx="3" ry="3" style="stroke:#038048;stroke-width:1.0;"/><text fill="#000000" font-family="sans-serif" font-size="14" lengthAdjust="spacing" textLength="168" x="42.5" y="1304.9863">void setBatch(SpriteBatch)</text><ellipse cx="33.5" cy="1318.3672" fill="#84BE84" rx="3" ry="3" style="stroke:#038048;stroke-width:1.0;"/><text fill="#000000" font-family="sans-serif" font-size="14" lengthAdjust="spacing" textLength="135" x="42.5" y="1322.5957">BitmapFont getFont()</text><ellipse cx="33.5" cy="1335.9766" fill="#84BE84" rx="3" ry="3" style="stroke:#038048;stroke-width:1.0;"/><text fill="#000000" font-family="sans-serif" font-size="14" lengthAdjust="spacing" textLength="160" x="42.5" y="1340.2051">void setFont(BitmapFont)</text><ellipse cx="33.5" cy="1353.5859" fill="#84BE84" rx="3" ry="3" style="stroke:#038048;stroke-width:1.0;"/><text fill="#000000" font-family="sans-serif" font-size="14" lengthAdjust="spacing" textLength="144" x="42.5" y="1357.8145">Preferences getPrefs()</text><ellipse cx="33.5" cy="1371.1953" fill="#84BE84" rx="3" ry="3" style="stroke:#038048;stroke-width:1.0;"/><text fill="#000000" font-family="sans-serif" font-size="14" lengthAdjust="spacing" textLength="169" x="42.5" y="1375.4238">void setPrefs(Preferences)</text><ellipse cx="33.5" cy="1388.8047" fill="#84BE84" rx="3" ry="3" style="stroke:#038048;stroke-width:1.0;"/><text fill="#000000" font-family="sans-serif" font-size="14" lengthAdjust="spacing" textLength="80" x="42.5" y="1393.0332">void create()</text><ellipse cx="33.5" cy="1406.4141" fill="#84BE84" rx="3" ry="3" style="stroke:#038048;stroke-width:1.0;"/><text fill="#000000" font-family="sans-serif" font-size="14" lengthAdjust="spacing" textLength="82" x="42.5" y="1410.6426">void render()</text><ellipse cx="33.5" cy="1424.0234" fill="#84BE84" rx="3" ry="3" style="stroke:#038048;stroke-width:1.0;"/><text fill="#000000" font-family="sans-serif" font-size="14" lengthAdjust="spacing" textLength="89" x="42.5" y="1428.252">void dispose()</text></g><!--MD5=[163ad3df713cd483b561a416b8f6f749]
class com.mygdx.game.game.components.game.Background--><g id="elem_com.mygdx.game.game.components.game.Background"><rect codeLine="62" fill="#F1F1F1" height="153.6563" id="com.mygdx.game.game.components.game.Background" rx="2.5" ry="2.5" style="stroke:#181818;stroke-width:0.5;" width="194" x="410" y="1131.8125"/><ellipse cx="464.75" cy="1147.8125" fill="#ADD1B2" rx="11" ry="11" style="stroke:#181818;stroke-width:1.0;"/><path d="M466.75,1144.3125 Q466.9531,1143.8125 467.1875,1143.5625 Q467.4219,1143.3125 467.6875,1143.3125 Q468.1563,1143.3125 468.4531,1143.5938 Q468.75,1143.875 468.75,1144.5313 L468.75,1146.0938 Q468.75,1146.75 468.4688,1147.0313 Q468.1875,1147.3125 467.75,1147.3125 Q467.3594,1147.3125 467.1094,1147.1406 Q466.8594,1146.9688 466.75,1146.5156 Q466.7031,1146.2031 466.5313,1146.0313 Q466.2188,1145.7031 465.6563,1145.5156 Q465.0938,1145.3125 464.5313,1145.3125 Q463.8281,1145.3125 463.2344,1145.5938 Q462.6563,1145.875 462.2031,1146.5 Q461.75,1147.125 461.75,1147.9844 L461.75,1148.9063 Q461.75,1149.9375 462.5938,1150.625 Q463.4375,1151.3125 464.9375,1151.3125 Q465.8281,1151.3125 466.4531,1151.1094 Q466.8125,1151 467.2188,1150.6406 Q467.4844,1150.4375 467.625,1150.375 Q467.7656,1150.3125 467.9375,1150.3125 Q468.2656,1150.3125 468.5,1150.5781 Q468.75,1150.8281 468.75,1151.1875 Q468.75,1151.5313 468.4063,1151.9375 Q467.9063,1152.5313 467.1094,1152.8594 Q466.0625,1153.3125 464.7813,1153.3125 Q463.2813,1153.3125 462.0781,1152.7188 Q461.1094,1152.25 460.4219,1151.2344 Q459.75,1150.2188 459.75,1149.0156 L459.75,1147.9219 Q459.75,1146.6719 460.3438,1145.5781 Q460.9531,1144.4844 462,1143.9063 Q463.0625,1143.3125 464.25,1143.3125 Q464.9688,1143.3125 465.5938,1143.5625 Q466.2188,1143.8125 466.75,1144.3125 Z " fill="#000000"/><text fill="#000000" font-family="sans-serif" font-size="14" lengthAdjust="spacing" textLength="76" x="485.25" y="1153.541">Background</text><line style="stroke:#181818;stroke-width:0.5;" x1="411" x2="603" y1="1163.8125" y2="1163.8125"/><rect fill="none" height="6" style="stroke:#C82930;stroke-width:1.0;" width="6" x="418" y="1175.1172"/><text fill="#000000" font-family="sans-serif" font-size="14" lengthAdjust="spacing" textLength="95" x="430" y="1182.3457">Texture texture</text><rect fill="none" height="6" style="stroke:#C82930;stroke-width:1.0;" width="6" x="418" y="1192.7266"/><text fill="#000000" font-family="sans-serif" font-size="14" lengthAdjust="spacing" textLength="112" x="430" y="1199.9551">SpriteBatch batch</text><line style="stroke:#181818;stroke-width:0.5;" x1="411" x2="603" y1="1207.0313" y2="1207.0313"/><ellipse cx="421" cy="1221.3359" fill="#84BE84" rx="3" ry="3" style="stroke:#038048;stroke-width:1.0;"/><text fill="#000000" font-family="sans-serif" font-size="14" lengthAdjust="spacing" textLength="130" x="430" y="1225.5645">Texture getTexture()</text><ellipse cx="421" cy="1238.9453" fill="#84BE84" rx="3" ry="3" style="stroke:#038048;stroke-width:1.0;"/><text fill="#000000" font-family="sans-serif" font-size="14" lengthAdjust="spacing" textLength="155" x="430" y="1243.1738">void setTexture(Texture)</text><ellipse cx="421" cy="1256.5547" fill="#84BE84" rx="3" ry="3" style="stroke:#038048;stroke-width:1.0;"/><text fill="#000000" font-family="sans-serif" font-size="14" lengthAdjust="spacing" textLength="143" x="430" y="1260.7832">SpriteBatch getBatch()</text><ellipse cx="421" cy="1274.1641" fill="#84BE84" rx="3" ry="3" style="stroke:#038048;stroke-width:1.0;"/><text fill="#000000" font-family="sans-serif" font-size="14" lengthAdjust="spacing" textLength="168" x="430" y="1278.3926">void setBatch(SpriteBatch)</text></g><!--MD5=[f60c6ecadd00d2d5727352cc274671b8]
class com.mygdx.game.game.components.game.HealthBar--><g id="elem_com.mygdx.game.game.components.game.HealthBar"><rect codeLine="84" fill="#F1F1F1" height="435.4063" id="com.mygdx.game.game.components.game.HealthBar" rx="2.5" ry="2.5" style="stroke:#181818;stroke-width:0.5;" width="390" x="704" y="991.3125"/><ellipse cx="863.75" cy="1007.3125" fill="#ADD1B2" rx="11" ry="11" style="stroke:#181818;stroke-width:1.0;"/><path d="M865.75,1003.8125 Q865.9531,1003.3125 866.1875,1003.0625 Q866.4219,1002.8125 866.6875,1002.8125 Q867.1563,1002.8125 867.4531,1003.0938 Q867.75,1003.375 867.75,1004.0313 L867.75,1005.5938 Q867.75,1006.25 867.4688,1006.5313 Q867.1875,1006.8125 866.75,1006.8125 Q866.3594,1006.8125 866.1094,1006.6406 Q865.8594,1006.4688 865.75,1006.0156 Q865.7031,1005.7031 865.5313,1005.5313 Q865.2188,1005.2031 864.6563,1005.0156 Q864.0938,1004.8125 863.5313,1004.8125 Q862.8281,1004.8125 862.2344,1005.0938 Q861.6563,1005.375 861.2031,1006 Q860.75,1006.625 860.75,1007.4844 L860.75,1008.4063 Q860.75,1009.4375 861.5938,1010.125 Q862.4375,1010.8125 863.9375,1010.8125 Q864.8281,1010.8125 865.4531,1010.6094 Q865.8125,1010.5 866.2188,1010.1406 Q866.4844,1009.9375 866.625,1009.875 Q866.7656,1009.8125 866.9375,1009.8125 Q867.2656,1009.8125 867.5,1010.0781 Q867.75,1010.3281 867.75,1010.6875 Q867.75,1011.0313 867.4063,1011.4375 Q866.9063,1012.0313 866.1094,1012.3594 Q865.0625,1012.8125 863.7813,1012.8125 Q862.2813,1012.8125 861.0781,1012.2188 Q860.1094,1011.75 859.4219,1010.7344 Q858.75,1009.7188 858.75,1008.5156 L858.75,1007.4219 Q858.75,1006.1719 859.3438,1005.0781 Q859.9531,1003.9844 861,1003.4063 Q862.0625,1002.8125 863.25,1002.8125 Q863.9688,1002.8125 864.5938,1003.0625 Q865.2188,1003.3125 865.75,1003.8125 Z " fill="#000000"/><text fill="#000000" font-family="sans-serif" font-size="14" lengthAdjust="spacing" textLength="62" x="884.25" y="1013.041">HealthBar</text><line style="stroke:#181818;stroke-width:0.5;" x1="705" x2="1093" y1="1023.3125" y2="1023.3125"/><rect fill="none" height="6" style="stroke:#C82930;stroke-width:1.0;" width="6" x="712" y="1034.6172"/><text fill="#000000" font-family="sans-serif" font-size="14" lengthAdjust="spacing" textLength="204" x="724" y="1041.8457">ShapeRenderer shapeRenderer</text><rect fill="none" height="6" style="stroke:#C82930;stroke-width:1.0;" width="6" x="712" y="1052.2266"/><text fill="#000000" font-family="sans-serif" font-size="14" lengthAdjust="spacing" textLength="112" x="724" y="1059.4551">SpriteBatch batch</text><rect fill="none" height="6" style="stroke:#C82930;stroke-width:1.0;" width="6" x="712" y="1069.8359"/><text fill="#000000" font-family="sans-serif" font-size="14" lengthAdjust="spacing" textLength="100" x="724" y="1077.0645">BitmapFont font</text><rect fill="none" height="6" style="stroke:#C82930;stroke-width:1.0;" width="6" x="712" y="1087.4453"/><text fill="#000000" font-family="sans-serif" font-size="14" lengthAdjust="spacing" textLength="74" x="724" y="1094.6738">int startingX</text><rect fill="none" height="6" style="stroke:#C82930;stroke-width:1.0;" width="6" x="712" y="1105.0547"/><text fill="#000000" font-family="sans-serif" font-size="14" lengthAdjust="spacing" textLength="75" x="724" y="1112.2832">int startingY</text><rect fill="none" height="6" style="stroke:#C82930;stroke-width:1.0;" width="6" x="712" y="1122.6641"/><text fill="#000000" font-family="sans-serif" font-size="14" lengthAdjust="spacing" textLength="51" x="724" y="1129.8926">int width</text><rect fill="none" height="6" style="stroke:#C82930;stroke-width:1.0;" width="6" x="712" y="1140.2734"/><text fill="#000000" font-family="sans-serif" font-size="14" lengthAdjust="spacing" textLength="58" x="724" y="1147.502">int height</text><line style="stroke:#181818;stroke-width:0.5;" x1="705" x2="1093" y1="1154.5781" y2="1154.5781"/><ellipse cx="715" cy="1168.8828" fill="#84BE84" rx="3" ry="3" style="stroke:#038048;stroke-width:1.0;"/><text fill="#000000" font-family="sans-serif" font-size="14" lengthAdjust="spacing" textLength="364" x="724" y="1173.1113">void drawHealthBars(ArrayList&lt;CollidableEntity&lt;Player&gt;&gt;)</text><ellipse cx="715" cy="1186.4922" fill="#84BE84" rx="3" ry="3" style="stroke:#038048;stroke-width:1.0;"/><text fill="#000000" font-family="sans-serif" font-size="14" lengthAdjust="spacing" textLength="236" x="724" y="1190.7207">ShapeRenderer getShapeRenderer()</text><ellipse cx="715" cy="1204.1016" fill="#84BE84" rx="3" ry="3" style="stroke:#038048;stroke-width:1.0;"/><text fill="#000000" font-family="sans-serif" font-size="14" lengthAdjust="spacing" textLength="261" x="724" y="1208.3301">void setShapeRenderer(ShapeRenderer)</text><ellipse cx="715" cy="1221.7109" fill="#84BE84" rx="3" ry="3" style="stroke:#038048;stroke-width:1.0;"/><text fill="#000000" font-family="sans-serif" font-size="14" lengthAdjust="spacing" textLength="143" x="724" y="1225.9395">SpriteBatch getBatch()</text><ellipse cx="715" cy="1239.3203" fill="#84BE84" rx="3" ry="3" style="stroke:#038048;stroke-width:1.0;"/><text fill="#000000" font-family="sans-serif" font-size="14" lengthAdjust="spacing" textLength="168" x="724" y="1243.5488">void setBatch(SpriteBatch)</text><ellipse cx="715" cy="1256.9297" fill="#84BE84" rx="3" ry="3" style="stroke:#038048;stroke-width:1.0;"/><text fill="#000000" font-family="sans-serif" font-size="14" lengthAdjust="spacing" textLength="135" x="724" y="1261.1582">BitmapFont getFont()</text><ellipse cx="715" cy="1274.5391" fill="#84BE84" rx="3" ry="3" style="stroke:#038048;stroke-width:1.0;"/><text fill="#000000" font-family="sans-serif" font-size="14" lengthAdjust="spacing" textLength="160" x="724" y="1278.7676">void setFont(BitmapFont)</text><ellipse cx="715" cy="1292.1484" fill="#84BE84" rx="3" ry="3" style="stroke:#038048;stroke-width:1.0;"/><text fill="#000000" font-family="sans-serif" font-size="14" lengthAdjust="spacing" textLength="106" x="724" y="1296.377">int getStartingX()</text><ellipse cx="715" cy="1309.7578" fill="#84BE84" rx="3" ry="3" style="stroke:#038048;stroke-width:1.0;"/><text fill="#000000" font-family="sans-serif" font-size="14" lengthAdjust="spacing" textLength="131" x="724" y="1313.9863">void setStartingX(int)</text><ellipse cx="715" cy="1327.3672" fill="#84BE84" rx="3" ry="3" style="stroke:#038048;stroke-width:1.0;"/><text fill="#000000" font-family="sans-serif" font-size="14" lengthAdjust="spacing" textLength="107" x="724" y="1331.5957">int getStartingY()</text><ellipse cx="715" cy="1344.9766" fill="#84BE84" rx="3" ry="3" style="stroke:#038048;stroke-width:1.0;"/><text fill="#000000" font-family="sans-serif" font-size="14" lengthAdjust="spacing" textLength="132" x="724" y="1349.2051">void setStartingY(int)</text><ellipse cx="715" cy="1362.5859" fill="#84BE84" rx="3" ry="3" style="stroke:#038048;stroke-width:1.0;"/><text fill="#000000" font-family="sans-serif" font-size="14" lengthAdjust="spacing" textLength="85" x="724" y="1366.8145">int getWidth()</text><ellipse cx="715" cy="1380.1953" fill="#84BE84" rx="3" ry="3" style="stroke:#038048;stroke-width:1.0;"/><text fill="#000000" font-family="sans-serif" font-size="14" lengthAdjust="spacing" textLength="110" x="724" y="1384.4238">void setWidth(int)</text><ellipse cx="715" cy="1397.8047" fill="#84BE84" rx="3" ry="3" style="stroke:#038048;stroke-width:1.0;"/><text fill="#000000" font-family="sans-serif" font-size="14" lengthAdjust="spacing" textLength="89" x="724" y="1402.0332">int getHeight()</text><ellipse cx="715" cy="1415.4141" fill="#84BE84" rx="3" ry="3" style="stroke:#038048;stroke-width:1.0;"/><text fill="#000000" font-family="sans-serif" font-size="14" lengthAdjust="spacing" textLength="114" x="724" y="1419.6426">void setHeight(int)</text></g><!--MD5=[e28b97f13ebe0e0d0e1b4a0418369900]
class com.mygdx.game.engine.input.CustomInputProcessor--><g id="elem_com.mygdx.game.engine.input.CustomInputProcessor"><rect codeLine="71" fill="#F1F1F1" height="224.0938" id="com.mygdx.game.engine.input.CustomInputProcessor" rx="2.5" ry="2.5" style="stroke:#181818;stroke-width:0.5;" width="234" x="1194" y="1096.8125"/><ellipse cx="1235.55" cy="1112.8125" fill="#ADD1B2" rx="11" ry="11" style="stroke:#181818;stroke-width:1.0;"/><path d="M1237.55,1109.3125 Q1237.7531,1108.8125 1237.9875,1108.5625 Q1238.2219,1108.3125 1238.4875,1108.3125 Q1238.9563,1108.3125 1239.2531,1108.5938 Q1239.55,1108.875 1239.55,1109.5313 L1239.55,1111.0938 Q1239.55,1111.75 1239.2688,1112.0313 Q1238.9875,1112.3125 1238.55,1112.3125 Q1238.1594,1112.3125 1237.9094,1112.1406 Q1237.6594,1111.9688 1237.55,1111.5156 Q1237.5031,1111.2031 1237.3313,1111.0313 Q1237.0188,1110.7031 1236.4563,1110.5156 Q1235.8938,1110.3125 1235.3313,1110.3125 Q1234.6281,1110.3125 1234.0344,1110.5938 Q1233.4563,1110.875 1233.0031,1111.5 Q1232.55,1112.125 1232.55,1112.9844 L1232.55,1113.9063 Q1232.55,1114.9375 1233.3938,1115.625 Q1234.2375,1116.3125 1235.7375,1116.3125 Q1236.6281,1116.3125 1237.2531,1116.1094 Q1237.6125,1116 1238.0188,1115.6406 Q1238.2844,1115.4375 1238.425,1115.375 Q1238.5656,1115.3125 1238.7375,1115.3125 Q1239.0656,1115.3125 1239.3,1115.5781 Q1239.55,1115.8281 1239.55,1116.1875 Q1239.55,1116.5313 1239.2063,1116.9375 Q1238.7063,1117.5313 1237.9094,1117.8594 Q1236.8625,1118.3125 1235.5813,1118.3125 Q1234.0813,1118.3125 1232.8781,1117.7188 Q1231.9094,1117.25 1231.2219,1116.2344 Q1230.55,1115.2188 1230.55,1114.0156 L1230.55,1112.9219 Q1230.55,1111.6719 1231.1438,1110.5781 Q1231.7531,1109.4844 1232.8,1108.9063 Q1233.8625,1108.3125 1235.05,1108.3125 Q1235.7688,1108.3125 1236.3938,1108.5625 Q1237.0188,1108.8125 1237.55,1109.3125 Z " fill="#000000"/><text fill="#000000" font-family="sans-serif" font-size="14" lengthAdjust="spacing" textLength="143" x="1255.45" y="1118.541">CustomInputProcessor</text><line style="stroke:#181818;stroke-width:0.5;" x1="1195" x2="1427" y1="1128.8125" y2="1128.8125"/><line style="stroke:#181818;stroke-width:0.5;" x1="1195" x2="1427" y1="1136.8125" y2="1136.8125"/><ellipse cx="1205" cy="1151.1172" fill="#84BE84" rx="3" ry="3" style="stroke:#038048;stroke-width:1.0;"/><text fill="#000000" font-family="sans-serif" font-size="14" lengthAdjust="spacing" textLength="168" x="1214" y="1155.3457">boolean mouseClicked(int)</text><ellipse cx="1205" cy="1168.7266" fill="#84BE84" rx="3" ry="3" style="stroke:#038048;stroke-width:1.0;"/><text fill="#000000" font-family="sans-serif" font-size="14" lengthAdjust="spacing" textLength="137" x="1214" y="1172.9551">boolean keyDown(int)</text><ellipse cx="1205" cy="1186.3359" fill="#84BE84" rx="3" ry="3" style="stroke:#038048;stroke-width:1.0;"/><text fill="#000000" font-family="sans-serif" font-size="14" lengthAdjust="spacing" textLength="119" x="1214" y="1190.5645">boolean keyUp(int)</text><ellipse cx="1205" cy="1203.9453" fill="#84BE84" rx="3" ry="3" style="stroke:#038048;stroke-width:1.0;"/><text fill="#000000" font-family="sans-serif" font-size="14" lengthAdjust="spacing" textLength="155" x="1214" y="1208.1738">boolean keyTyped(char)</text><ellipse cx="1205" cy="1221.5547" fill="#84BE84" rx="3" ry="3" style="stroke:#038048;stroke-width:1.0;"/><text fill="#000000" font-family="sans-serif" font-size="14" lengthAdjust="spacing" textLength="207" x="1214" y="1225.7832">boolean touchDown(int,int,int,int)</text><ellipse cx="1205" cy="1239.1641" fill="#84BE84" rx="3" ry="3" style="stroke:#038048;stroke-width:1.0;"/><text fill="#000000" font-family="sans-serif" font-size="14" lengthAdjust="spacing" textLength="189" x="1214" y="1243.3926">boolean touchUp(int,int,int,int)</text><ellipse cx="1205" cy="1256.7734" fill="#84BE84" rx="3" ry="3" style="stroke:#038048;stroke-width:1.0;"/><text fill="#000000" font-family="sans-serif" font-size="14" lengthAdjust="spacing" textLength="208" x="1214" y="1261.002">boolean touchDragged(int,int,int)</text><ellipse cx="1205" cy="1274.3828" fill="#84BE84" rx="3" ry="3" style="stroke:#038048;stroke-width:1.0;"/><text fill="#000000" font-family="sans-serif" font-size="14" lengthAdjust="spacing" textLength="183" x="1214" y="1278.6113">boolean mouseMoved(int,int)</text><ellipse cx="1205" cy="1291.9922" fill="#84BE84" rx="3" ry="3" style="stroke:#038048;stroke-width:1.0;"/><text fill="#000000" font-family="sans-serif" font-size="14" lengthAdjust="spacing" textLength="172" x="1214" y="1296.2207">boolean scrolled(float,float)</text><ellipse cx="1205" cy="1309.6016" fill="#84BE84" rx="3" ry="3" style="stroke:#038048;stroke-width:1.0;"/><text fill="#000000" font-family="sans-serif" font-size="14" lengthAdjust="spacing" textLength="184" x="1214" y="1313.8301">boolean mouseHoverOver(T)</text></g><!--MD5=[0cde85f5114a97b8432e5303318cb732]
reverse link com.mygdx.game.game.logic.GamePlay to com.mygdx.game.engine.lifecycle.Main--><g id="link_com.mygdx.game.game.logic.GamePlay_com.mygdx.game.engine.lifecycle.Main"><path codeLine="109" d="M580,491.4025 C580,491.4025 580,987.3125 580,987.3125 C580,987.3125 429.21,987.3125 309.64,987.3125 " fill="none" id="com.mygdx.game.game.logic.GamePlay-backto-com.mygdx.game.engine.lifecycle.Main" style="stroke:#181818;stroke-width:1.0;"/><polygon fill="#181818" points="580,478.4025,576,484.4025,580,490.4025,584,484.4025,580,478.4025" style="stroke:#181818;stroke-width:1.0;"/><text fill="#000000" font-family="sans-serif" font-size="13" lengthAdjust="spacing" textLength="21" x="558" y="871.0376">has</text></g><!--MD5=[c89ec23a60b6bf19e9d302c1a13b892d]
reverse link com.mygdx.game.game.logic.GamePlay to com.mygdx.game.game.components.game.Background--><g id="link_com.mygdx.game.game.logic.GamePlay_com.mygdx.game.game.components.game.Background"><path codeLine="110" d="M592,491.3725 C592,491.3725 592,1131.5925 592,1131.5925 " fill="none" id="com.mygdx.game.game.logic.GamePlay-backto-com.mygdx.game.game.components.game.Background" style="stroke:#181818;stroke-width:1.0;"/><polygon fill="#181818" points="592,478.3725,588,484.3725,592,490.3725,596,484.3725,592,478.3725" style="stroke:#181818;stroke-width:1.0;"/><text fill="#000000" font-family="sans-serif" font-size="13" lengthAdjust="spacing" textLength="21" x="570" y="807.9776">has</text></g><!--MD5=[ac71d61decd9557b311d1f1b58a87823]
reverse link com.mygdx.game.game.logic.GamePlay to com.mygdx.game.engine.input.CustomInputProcessor--><g id="link_com.mygdx.game.game.logic.GamePlay_com.mygdx.game.engine.input.CustomInputProcessor"><path codeLine="111" d="M849.02,296.3125 C849.02,296.3125 1311,296.3125 1311,296.3125 C1311,296.3125 1311,852.5625 1311,1096.4625 " fill="none" id="com.mygdx.game.game.logic.GamePlay-backto-com.mygdx.game.engine.input.CustomInputProcessor" style="stroke:#181818;stroke-width:1.0;"/><polygon fill="#181818" points="836.02,296.3125,842.02,300.3125,848.02,296.3125,842.02,292.3125,836.02,296.3125" style="stroke:#181818;stroke-width:1.0;"/><text fill="#000000" font-family="sans-serif" font-size="13" lengthAdjust="spacing" textLength="21" x="1289" y="461.8976">has</text></g><!--MD5=[bbd40775d90ec9a70930803f175c9519]
reverse link com.mygdx.game.game.logic.GamePlay to com.mygdx.game.game.components.game.HealthBar--><g id="link_com.mygdx.game.game.logic.GamePlay_com.mygdx.game.game.components.game.HealthBar"><path codeLine="112" d="M770,491.3725 C770,491.3725 770,991.1925 770,991.1925 " fill="none" id="com.mygdx.game.game.logic.GamePlay-backto-com.mygdx.game.game.components.game.HealthBar" style="stroke:#181818;stroke-width:1.0;"/><polygon fill="#181818" points="770,478.3725,766,484.3725,770,490.3725,774,484.3725,770,478.3725" style="stroke:#181818;stroke-width:1.0;"/><text fill="#000000" font-family="sans-serif" font-size="13" lengthAdjust="spacing" textLength="21" x="748" y="737.7776">has</text></g><!--MD5=[bc84c551ed589cff2e2ec4b911e1976e]
@startuml
skinparam linetype polyline
skinparam linetype ortho

skinparam nodesep 100
skinparam ranksep 100

skinparam titleBorderRoundCorner 15
skinparam titleBorderThickness 2
skinparam titleBorderColor red
skinparam titleBackgroundColor Aqua-CadetBlue
skinparam TitleFontSize 40

title Appendix G - GamePlay Class Composition Relations

class com.mygdx.game.game.logic.GamePlay {
- Main game
- Background background
- int backgroundOffset
- CustomInputProcessor inputProcessor
- HealthBar healthBar
- int distance
- long lastDropTime
- long lastPlanetDropTime
- long lastShootTime
- long lastShootTimeUFO
- float spawnRate
- float spawnRateMultiplier
- float lastTimeUFOSpawned
- boolean isDrop
- int nextPlanetIndex
- String nextPlanet
+ void create()
+ void render()
}

class com.mygdx.game.engine.lifecycle.Main {
- {static} Main instance
- ScreenManager screenManager
- Preferences prefs
- SoundManager soundManager
+ EntityManager entityManager
- SpriteBatch batch
- BitmapFont font
+ int HEIGHT
+ int WIDTH
+ {static} Main getInstance()
+ ScreenManager getScreenManager()
+ void setScreenManager(ScreenManager)
+ SoundManager getSoundManager()
+ void setSoundManager(SoundManager)
+ SpriteBatch getBatch()
+ void setBatch(SpriteBatch)
+ BitmapFont getFont()
+ void setFont(BitmapFont)
+ Preferences getPrefs()
+ void setPrefs(Preferences)
+ void create()
+ void render()
+ void dispose()
}

class com.mygdx.game.game.components.game.Background {
- Texture texture
- SpriteBatch batch
+ Texture getTexture()
+ void setTexture(Texture)
+ SpriteBatch getBatch()
+ void setBatch(SpriteBatch)
}

class com.mygdx.game.engine.input.CustomInputProcessor {
+ boolean mouseClicked(int)
+ boolean keyDown(int)
+ boolean keyUp(int)
+ boolean keyTyped(char)
+ boolean touchDown(int,int,int,int)
+ boolean touchUp(int,int,int,int)
+ boolean touchDragged(int,int,int)
+ boolean mouseMoved(int,int)
+ boolean scrolled(float,float)
+ boolean mouseHoverOver(T)
}

class com.mygdx.game.game.components.game.HealthBar {
- ShapeRenderer shapeRenderer
- SpriteBatch batch
- BitmapFont font
- int startingX
- int startingY
- int width
- int height
+ void drawHealthBars(ArrayList<CollidableEntity<Player>>)
+ ShapeRenderer getShapeRenderer()
+ void setShapeRenderer(ShapeRenderer)
+ SpriteBatch getBatch()
+ void setBatch(SpriteBatch)
+ BitmapFont getFont()
+ void setFont(BitmapFont)
+ int getStartingX()
+ void setStartingX(int)
+ int getStartingY()
+ void setStartingY(int)
+ int getWidth()
+ void setWidth(int)
+ int getHeight()
+ void setHeight(int)
}

com.mygdx.game.game.logic.GamePlay *- - - - - - com.mygdx.game.engine.lifecycle.Main :has
com.mygdx.game.game.logic.GamePlay *- - - - - - com.mygdx.game.game.components.game.Background :has
com.mygdx.game.game.logic.GamePlay *- - - - - - com.mygdx.game.engine.input.CustomInputProcessor :has
com.mygdx.game.game.logic.GamePlay *- - - - - - com.mygdx.game.game.components.game.HealthBar :has
@enduml

PlantUML version 1.2022.12(Mon Oct 24 02:12:26 SGT 2022)
(GPL source distribution)
Java Runtime: OpenJDK Runtime Environment
JVM: OpenJDK 64-Bit Server VM
Default Encoding: Cp1252
Language: en
Country: SG
--></g></svg>