<?xml version="1.0" encoding="UTF-8" standalone="no"?><svg xmlns="http://www.w3.org/2000/svg" xmlns:xlink="http://www.w3.org/1999/xlink" contentStyleType="text/css" height="1634px" preserveAspectRatio="none" style="width:1318px;height:1634px;background:#FFFFFF;" version="1.1" viewBox="0 0 1318 1634" width="1318px" zoomAndPan="magnify"><defs><linearGradient id="g1cvxlee6bz8ij0" x1="50%" x2="50%" y1="0%" y2="100%"><stop offset="0%" stop-color="#00FFFF"/><stop offset="100%" stop-color="#5F9EA0"/></linearGradient></defs><g><rect fill="url(#g1cvxlee6bz8ij0)" height="60.3125" id="_title" rx="7.5" ry="7.5" style="stroke:#FF0000;stroke-width:2.0;" width="1175" x="64.5" y="5"/><text fill="#000000" font-family="sans-serif" font-size="40" font-weight="bold" lengthAdjust="spacing" textLength="1165" x="69.5" y="51.5234">Appendix M - ScoreboardScreen Class Composition Relations</text><!--MD5=[ec129861e6194a645611de3369ad0d54]
cluster com.mygdx.game.game.screens.menu--><g id="cluster_com.mygdx.game.game.screens.menu"><path d="M488.5,77.3125 L755.5,77.3125 A3.75,3.75 0 0 1 758,79.8125 L765,100.9219 L839.5,100.9219 A2.5,2.5 0 0 1 842,103.4219 L842,456.8125 A2.5,2.5 0 0 1 839.5,459.3125 L488.5,459.3125 A2.5,2.5 0 0 1 486,456.8125 L486,79.8125 A2.5,2.5 0 0 1 488.5,77.3125 " fill="none" style="stroke:#000000;stroke-width:1.5;"/><line style="stroke:#000000;stroke-width:1.5;" x1="486" x2="765" y1="100.9219" y2="100.9219"/><text fill="#000000" font-family="sans-serif" font-size="14" font-weight="bold" lengthAdjust="spacing" textLength="266" x="490" y="93.8457">com.mygdx.game.game.screens.menu</text></g><!--MD5=[f5720f8f2d84faa53b7e58c13b303426]
cluster com.mygdx.game.engine.lifecycle--><g id="cluster_com.mygdx.game.engine.lifecycle"><path d="M8.5,1016.8125 L244.5,1016.8125 A3.75,3.75 0 0 1 247,1019.3125 L254,1040.4219 L323.5,1040.4219 A2.5,2.5 0 0 1 326,1042.9219 L326,1519.3125 A2.5,2.5 0 0 1 323.5,1521.8125 L8.5,1521.8125 A2.5,2.5 0 0 1 6,1519.3125 L6,1019.3125 A2.5,2.5 0 0 1 8.5,1016.8125 " fill="none" style="stroke:#000000;stroke-width:1.5;"/><line style="stroke:#000000;stroke-width:1.5;" x1="6" x2="254" y1="1040.4219" y2="1040.4219"/><text fill="#000000" font-family="sans-serif" font-size="14" font-weight="bold" lengthAdjust="spacing" textLength="235" x="10" y="1033.3457">com.mygdx.game.engine.lifecycle</text></g><!--MD5=[683aabdc962ad2ab98ef14c38ed732ec]
cluster com.mygdx.game.game.components.ui--><g id="cluster_com.mygdx.game.game.components.ui"><path d="M366.5,911.3125 L637.5,911.3125 A3.75,3.75 0 0 1 640,913.8125 L647,934.9219 L647.5,934.9219 A2.5,2.5 0 0 1 650,937.4219 L650,1624.8125 A2.5,2.5 0 0 1 647.5,1627.3125 L366.5,1627.3125 A2.5,2.5 0 0 1 364,1624.8125 L364,913.8125 A2.5,2.5 0 0 1 366.5,911.3125 " fill="none" style="stroke:#000000;stroke-width:1.5;"/><line style="stroke:#000000;stroke-width:1.5;" x1="364" x2="647" y1="934.9219" y2="934.9219"/><text fill="#000000" font-family="sans-serif" font-size="14" font-weight="bold" lengthAdjust="spacing" textLength="270" x="368" y="927.8457">com.mygdx.game.game.components.ui</text></g><!--MD5=[6d572adab93e1a2768c068c53f7d318b]
cluster com.mygdx.game.engine.input--><g id="cluster_com.mygdx.game.engine.input"><path d="M690.5,1131.3125 L904.5,1131.3125 A3.75,3.75 0 0 1 907,1133.8125 L914,1154.9219 L951.5,1154.9219 A2.5,2.5 0 0 1 954,1157.4219 L954,1404.8125 A2.5,2.5 0 0 1 951.5,1407.3125 L690.5,1407.3125 A2.5,2.5 0 0 1 688,1404.8125 L688,1133.8125 A2.5,2.5 0 0 1 690.5,1131.3125 " fill="none" style="stroke:#000000;stroke-width:1.5;"/><line style="stroke:#000000;stroke-width:1.5;" x1="688" x2="914" y1="1154.9219" y2="1154.9219"/><text fill="#000000" font-family="sans-serif" font-size="14" font-weight="bold" lengthAdjust="spacing" textLength="213" x="692" y="1147.8457">com.mygdx.game.engine.input</text></g><!--MD5=[db2e1f00a229089377349fbd41189772]
cluster com.mygdx.game.game.components.game--><g id="cluster_com.mygdx.game.game.components.game"><path d="M1002.5,1122.3125 L1298.5,1122.3125 A3.75,3.75 0 0 1 1301,1124.8125 L1308,1145.9219 L1308.5,1145.9219 A2.5,2.5 0 0 1 1311,1148.4219 L1311,1413.8125 A2.5,2.5 0 0 1 1308.5,1416.3125 L1002.5,1416.3125 A2.5,2.5 0 0 1 1000,1413.8125 L1000,1124.8125 A2.5,2.5 0 0 1 1002.5,1122.3125 " fill="none" style="stroke:#000000;stroke-width:1.5;"/><line style="stroke:#000000;stroke-width:1.5;" x1="1000" x2="1308" y1="1145.9219" y2="1145.9219"/><text fill="#000000" font-family="sans-serif" font-size="14" font-weight="bold" lengthAdjust="spacing" textLength="295" x="1004" y="1138.8457">com.mygdx.game.game.components.game</text></g><!--MD5=[2282167cb3b450e4d39e7444bc922145]
class com.mygdx.game.game.screens.menu.ScoreboardScreen--><g id="elem_com.mygdx.game.game.screens.menu.ScoreboardScreen"><rect codeLine="15" fill="#F1F1F1" height="329.75" id="com.mygdx.game.game.screens.menu.ScoreboardScreen" rx="2.5" ry="2.5" style="stroke:#181818;stroke-width:0.5;" width="323" x="502.5" y="113.3125"/><ellipse cx="600.25" cy="129.3125" fill="#ADD1B2" rx="11" ry="11" style="stroke:#181818;stroke-width:1.0;"/><path d="M602.25,125.8125 Q602.4531,125.3125 602.6875,125.0625 Q602.9219,124.8125 603.1875,124.8125 Q603.6563,124.8125 603.9531,125.0938 Q604.25,125.375 604.25,126.0313 L604.25,127.5938 Q604.25,128.25 603.9688,128.5313 Q603.6875,128.8125 603.25,128.8125 Q602.8594,128.8125 602.6094,128.6406 Q602.3594,128.4688 602.25,128.0156 Q602.2031,127.7031 602.0313,127.5313 Q601.7188,127.2031 601.1563,127.0156 Q600.5938,126.8125 600.0313,126.8125 Q599.3281,126.8125 598.7344,127.0938 Q598.1563,127.375 597.7031,128 Q597.25,128.625 597.25,129.4844 L597.25,130.4063 Q597.25,131.4375 598.0938,132.125 Q598.9375,132.8125 600.4375,132.8125 Q601.3281,132.8125 601.9531,132.6094 Q602.3125,132.5 602.7188,132.1406 Q602.9844,131.9375 603.125,131.875 Q603.2656,131.8125 603.4375,131.8125 Q603.7656,131.8125 604,132.0781 Q604.25,132.3281 604.25,132.6875 Q604.25,133.0313 603.9063,133.4375 Q603.4063,134.0313 602.6094,134.3594 Q601.5625,134.8125 600.2813,134.8125 Q598.7813,134.8125 597.5781,134.2188 Q596.6094,133.75 595.9219,132.7344 Q595.25,131.7188 595.25,130.5156 L595.25,129.4219 Q595.25,128.1719 595.8438,127.0781 Q596.4531,125.9844 597.5,125.4063 Q598.5625,124.8125 599.75,124.8125 Q600.4688,124.8125 601.0938,125.0625 Q601.7188,125.3125 602.25,125.8125 Z " fill="#000000"/><text fill="#000000" font-family="sans-serif" font-size="14" lengthAdjust="spacing" textLength="119" x="620.75" y="135.041">ScoreboardScreen</text><line style="stroke:#181818;stroke-width:0.5;" x1="503.5" x2="824.5" y1="145.3125" y2="145.3125"/><rect fill="none" height="6" style="stroke:#C82930;stroke-width:1.0;" width="6" x="510.5" y="156.6172"/><text fill="#000000" font-family="sans-serif" font-size="14" lengthAdjust="spacing" textLength="242" x="522.5" y="163.8457">CustomInputProcessor inputProcessor</text><rect fill="none" height="6" style="stroke:#C82930;stroke-width:1.0;" width="6" x="510.5" y="174.2266"/><text fill="#000000" font-family="sans-serif" font-size="14" lengthAdjust="spacing" textLength="116" x="522.5" y="181.4551">Button backButton</text><rect fill="none" height="6" style="stroke:#C82930;stroke-width:1.0;" width="6" x="510.5" y="191.8359"/><text fill="#000000" font-family="sans-serif" font-size="14" lengthAdjust="spacing" textLength="112" x="522.5" y="199.0645">SpriteBatch batch</text><rect fill="none" height="6" style="stroke:#C82930;stroke-width:1.0;" width="6" x="510.5" y="209.4453"/><text fill="#000000" font-family="sans-serif" font-size="14" lengthAdjust="spacing" textLength="95" x="522.5" y="216.6738">Texture texture</text><rect fill="none" height="6" style="stroke:#C82930;stroke-width:1.0;" width="6" x="510.5" y="227.0547"/><text fill="#000000" font-family="sans-serif" font-size="14" lengthAdjust="spacing" textLength="69" x="522.5" y="234.2832">Main game</text><rect fill="none" height="6" style="stroke:#C82930;stroke-width:1.0;" width="6" x="510.5" y="244.6641"/><text fill="#000000" font-family="sans-serif" font-size="14" lengthAdjust="spacing" textLength="71" x="522.5" y="251.8926">Table table</text><rect fill="none" height="6" style="stroke:#C82930;stroke-width:1.0;" width="6" x="510.5" y="262.2734"/><text fill="#000000" font-family="sans-serif" font-size="14" lengthAdjust="spacing" textLength="236" x="522.5" y="269.502">ArrayList&lt;PlayerScore&gt; playerScores</text><line style="stroke:#181818;stroke-width:0.5;" x1="503.5" x2="824.5" y1="276.5781" y2="276.5781"/><ellipse cx="513.5" cy="290.8828" fill="#84BE84" rx="3" ry="3" style="stroke:#038048;stroke-width:1.0;"/><text fill="#000000" font-family="sans-serif" font-size="14" lengthAdjust="spacing" textLength="272" x="522.5" y="295.1113">CustomInputProcessor getInputProcessor()</text><ellipse cx="513.5" cy="308.4922" fill="#84BE84" rx="3" ry="3" style="stroke:#038048;stroke-width:1.0;"/><text fill="#000000" font-family="sans-serif" font-size="14" lengthAdjust="spacing" textLength="297" x="522.5" y="312.7207">void setInputProcessor(CustomInputProcessor)</text><ellipse cx="513.5" cy="326.1016" fill="#84BE84" rx="3" ry="3" style="stroke:#038048;stroke-width:1.0;"/><text fill="#000000" font-family="sans-serif" font-size="14" lengthAdjust="spacing" textLength="72" x="522.5" y="330.3301">void show()</text><ellipse cx="513.5" cy="343.7109" fill="#84BE84" rx="3" ry="3" style="stroke:#038048;stroke-width:1.0;"/><text fill="#000000" font-family="sans-serif" font-size="14" lengthAdjust="spacing" textLength="109" x="522.5" y="347.9395">void render(float)</text><ellipse cx="513.5" cy="361.3203" fill="#84BE84" rx="3" ry="3" style="stroke:#038048;stroke-width:1.0;"/><text fill="#000000" font-family="sans-serif" font-size="14" lengthAdjust="spacing" textLength="111" x="522.5" y="365.5488">void resize(int,int)</text><ellipse cx="513.5" cy="378.9297" fill="#84BE84" rx="3" ry="3" style="stroke:#038048;stroke-width:1.0;"/><text fill="#000000" font-family="sans-serif" font-size="14" lengthAdjust="spacing" textLength="79" x="522.5" y="383.1582">void pause()</text><ellipse cx="513.5" cy="396.5391" fill="#84BE84" rx="3" ry="3" style="stroke:#038048;stroke-width:1.0;"/><text fill="#000000" font-family="sans-serif" font-size="14" lengthAdjust="spacing" textLength="87" x="522.5" y="400.7676">void resume()</text><ellipse cx="513.5" cy="414.1484" fill="#84BE84" rx="3" ry="3" style="stroke:#038048;stroke-width:1.0;"/><text fill="#000000" font-family="sans-serif" font-size="14" lengthAdjust="spacing" textLength="67" x="522.5" y="418.377">void hide()</text><ellipse cx="513.5" cy="431.7578" fill="#84BE84" rx="3" ry="3" style="stroke:#038048;stroke-width:1.0;"/><text fill="#000000" font-family="sans-serif" font-size="14" lengthAdjust="spacing" textLength="89" x="522.5" y="435.9863">void dispose()</text></g><!--MD5=[533628e9c9f667eb08bf66ebfc75b243]
class com.mygdx.game.engine.lifecycle.Main--><g id="elem_com.mygdx.game.engine.lifecycle.Main"><rect codeLine="34" fill="#F1F1F1" height="453.0156" id="com.mygdx.game.engine.lifecycle.Main" rx="2.5" ry="2.5" style="stroke:#181818;stroke-width:0.5;" width="287" x="22.5" y="1052.8125"/><ellipse cx="146.75" cy="1068.8125" fill="#ADD1B2" rx="11" ry="11" style="stroke:#181818;stroke-width:1.0;"/><path d="M148.75,1065.3125 Q148.9531,1064.8125 149.1875,1064.5625 Q149.4219,1064.3125 149.6875,1064.3125 Q150.1563,1064.3125 150.4531,1064.5938 Q150.75,1064.875 150.75,1065.5313 L150.75,1067.0938 Q150.75,1067.75 150.4688,1068.0313 Q150.1875,1068.3125 149.75,1068.3125 Q149.3594,1068.3125 149.1094,1068.1406 Q148.8594,1067.9688 148.75,1067.5156 Q148.7031,1067.2031 148.5313,1067.0313 Q148.2188,1066.7031 147.6563,1066.5156 Q147.0938,1066.3125 146.5313,1066.3125 Q145.8281,1066.3125 145.2344,1066.5938 Q144.6563,1066.875 144.2031,1067.5 Q143.75,1068.125 143.75,1068.9844 L143.75,1069.9063 Q143.75,1070.9375 144.5938,1071.625 Q145.4375,1072.3125 146.9375,1072.3125 Q147.8281,1072.3125 148.4531,1072.1094 Q148.8125,1072 149.2188,1071.6406 Q149.4844,1071.4375 149.625,1071.375 Q149.7656,1071.3125 149.9375,1071.3125 Q150.2656,1071.3125 150.5,1071.5781 Q150.75,1071.8281 150.75,1072.1875 Q150.75,1072.5313 150.4063,1072.9375 Q149.9063,1073.5313 149.1094,1073.8594 Q148.0625,1074.3125 146.7813,1074.3125 Q145.2813,1074.3125 144.0781,1073.7188 Q143.1094,1073.25 142.4219,1072.2344 Q141.75,1071.2188 141.75,1070.0156 L141.75,1068.9219 Q141.75,1067.6719 142.3438,1066.5781 Q142.9531,1065.4844 144,1064.9063 Q145.0625,1064.3125 146.25,1064.3125 Q146.9688,1064.3125 147.5938,1064.5625 Q148.2188,1064.8125 148.75,1065.3125 Z " fill="#000000"/><text fill="#000000" font-family="sans-serif" font-size="14" lengthAdjust="spacing" textLength="30" x="167.25" y="1074.541">Main</text><line style="stroke:#181818;stroke-width:0.5;" x1="23.5" x2="308.5" y1="1084.8125" y2="1084.8125"/><rect fill="none" height="6" style="stroke:#C82930;stroke-width:1.0;" width="6" x="30.5" y="1096.1172"/><text fill="#000000" font-family="sans-serif" font-size="14" lengthAdjust="spacing" text-decoration="underline" textLength="87" x="42.5" y="1103.3457">Main instance</text><rect fill="none" height="6" style="stroke:#C82930;stroke-width:1.0;" width="6" x="30.5" y="1113.7266"/><text fill="#000000" font-family="sans-serif" font-size="14" lengthAdjust="spacing" textLength="204" x="42.5" y="1120.9551">ScreenManager screenManager</text><rect fill="none" height="6" style="stroke:#C82930;stroke-width:1.0;" width="6" x="30.5" y="1131.3359"/><text fill="#000000" font-family="sans-serif" font-size="14" lengthAdjust="spacing" textLength="113" x="42.5" y="1138.5645">Preferences prefs</text><rect fill="none" height="6" style="stroke:#C82930;stroke-width:1.0;" width="6" x="30.5" y="1148.9453"/><text fill="#000000" font-family="sans-serif" font-size="14" lengthAdjust="spacing" textLength="196" x="42.5" y="1156.1738">SoundManager soundManager</text><ellipse cx="33.5" cy="1169.5547" fill="none" rx="3" ry="3" style="stroke:#038048;stroke-width:1.0;"/><text fill="#000000" font-family="sans-serif" font-size="14" lengthAdjust="spacing" textLength="185" x="42.5" y="1173.7832">EntityManager entityManager</text><rect fill="none" height="6" style="stroke:#C82930;stroke-width:1.0;" width="6" x="30.5" y="1184.1641"/><text fill="#000000" font-family="sans-serif" font-size="14" lengthAdjust="spacing" textLength="112" x="42.5" y="1191.3926">SpriteBatch batch</text><rect fill="none" height="6" style="stroke:#C82930;stroke-width:1.0;" width="6" x="30.5" y="1201.7734"/><text fill="#000000" font-family="sans-serif" font-size="14" lengthAdjust="spacing" textLength="100" x="42.5" y="1209.002">BitmapFont font</text><ellipse cx="33.5" cy="1222.3828" fill="none" rx="3" ry="3" style="stroke:#038048;stroke-width:1.0;"/><text fill="#000000" font-family="sans-serif" font-size="14" lengthAdjust="spacing" textLength="69" x="42.5" y="1226.6113">int HEIGHT</text><ellipse cx="33.5" cy="1239.9922" fill="none" rx="3" ry="3" style="stroke:#038048;stroke-width:1.0;"/><text fill="#000000" font-family="sans-serif" font-size="14" lengthAdjust="spacing" textLength="63" x="42.5" y="1244.2207">int WIDTH</text><line style="stroke:#181818;stroke-width:0.5;" x1="23.5" x2="308.5" y1="1251.2969" y2="1251.2969"/><ellipse cx="33.5" cy="1265.6016" fill="#84BE84" rx="3" ry="3" style="stroke:#038048;stroke-width:1.0;"/><text fill="#000000" font-family="sans-serif" font-size="14" lengthAdjust="spacing" text-decoration="underline" textLength="117" x="42.5" y="1269.8301">Main getInstance()</text><ellipse cx="33.5" cy="1283.2109" fill="#84BE84" rx="3" ry="3" style="stroke:#038048;stroke-width:1.0;"/><text fill="#000000" font-family="sans-serif" font-size="14" lengthAdjust="spacing" textLength="236" x="42.5" y="1287.4395">ScreenManager getScreenManager()</text><ellipse cx="33.5" cy="1300.8203" fill="#84BE84" rx="3" ry="3" style="stroke:#038048;stroke-width:1.0;"/><text fill="#000000" font-family="sans-serif" font-size="14" lengthAdjust="spacing" textLength="261" x="42.5" y="1305.0488">void setScreenManager(ScreenManager)</text><ellipse cx="33.5" cy="1318.4297" fill="#84BE84" rx="3" ry="3" style="stroke:#038048;stroke-width:1.0;"/><text fill="#000000" font-family="sans-serif" font-size="14" lengthAdjust="spacing" textLength="228" x="42.5" y="1322.6582">SoundManager getSoundManager()</text><ellipse cx="33.5" cy="1336.0391" fill="#84BE84" rx="3" ry="3" style="stroke:#038048;stroke-width:1.0;"/><text fill="#000000" font-family="sans-serif" font-size="14" lengthAdjust="spacing" textLength="253" x="42.5" y="1340.2676">void setSoundManager(SoundManager)</text><ellipse cx="33.5" cy="1353.6484" fill="#84BE84" rx="3" ry="3" style="stroke:#038048;stroke-width:1.0;"/><text fill="#000000" font-family="sans-serif" font-size="14" lengthAdjust="spacing" textLength="143" x="42.5" y="1357.877">SpriteBatch getBatch()</text><ellipse cx="33.5" cy="1371.2578" fill="#84BE84" rx="3" ry="3" style="stroke:#038048;stroke-width:1.0;"/><text fill="#000000" font-family="sans-serif" font-size="14" lengthAdjust="spacing" textLength="168" x="42.5" y="1375.4863">void setBatch(SpriteBatch)</text><ellipse cx="33.5" cy="1388.8672" fill="#84BE84" rx="3" ry="3" style="stroke:#038048;stroke-width:1.0;"/><text fill="#000000" font-family="sans-serif" font-size="14" lengthAdjust="spacing" textLength="135" x="42.5" y="1393.0957">BitmapFont getFont()</text><ellipse cx="33.5" cy="1406.4766" fill="#84BE84" rx="3" ry="3" style="stroke:#038048;stroke-width:1.0;"/><text fill="#000000" font-family="sans-serif" font-size="14" lengthAdjust="spacing" textLength="160" x="42.5" y="1410.7051">void setFont(BitmapFont)</text><ellipse cx="33.5" cy="1424.0859" fill="#84BE84" rx="3" ry="3" style="stroke:#038048;stroke-width:1.0;"/><text fill="#000000" font-family="sans-serif" font-size="14" lengthAdjust="spacing" textLength="144" x="42.5" y="1428.3145">Preferences getPrefs()</text><ellipse cx="33.5" cy="1441.6953" fill="#84BE84" rx="3" ry="3" style="stroke:#038048;stroke-width:1.0;"/><text fill="#000000" font-family="sans-serif" font-size="14" lengthAdjust="spacing" textLength="169" x="42.5" y="1445.9238">void setPrefs(Preferences)</text><ellipse cx="33.5" cy="1459.3047" fill="#84BE84" rx="3" ry="3" style="stroke:#038048;stroke-width:1.0;"/><text fill="#000000" font-family="sans-serif" font-size="14" lengthAdjust="spacing" textLength="80" x="42.5" y="1463.5332">void create()</text><ellipse cx="33.5" cy="1476.9141" fill="#84BE84" rx="3" ry="3" style="stroke:#038048;stroke-width:1.0;"/><text fill="#000000" font-family="sans-serif" font-size="14" lengthAdjust="spacing" textLength="82" x="42.5" y="1481.1426">void render()</text><ellipse cx="33.5" cy="1494.5234" fill="#84BE84" rx="3" ry="3" style="stroke:#038048;stroke-width:1.0;"/><text fill="#000000" font-family="sans-serif" font-size="14" lengthAdjust="spacing" textLength="89" x="42.5" y="1498.752">void dispose()</text></g><!--MD5=[3de1ccafbb2233cb7ab977d18c48deb3]
class com.mygdx.game.game.components.ui.Button--><g id="elem_com.mygdx.game.game.components.ui.Button"><rect codeLine="60" fill="#F1F1F1" height="664.3281" id="com.mygdx.game.game.components.ui.Button" rx="2.5" ry="2.5" style="stroke:#181818;stroke-width:0.5;" width="194" x="410" y="947.3125"/><ellipse cx="482.25" cy="963.3125" fill="#ADD1B2" rx="11" ry="11" style="stroke:#181818;stroke-width:1.0;"/><path d="M484.25,959.8125 Q484.4531,959.3125 484.6875,959.0625 Q484.9219,958.8125 485.1875,958.8125 Q485.6563,958.8125 485.9531,959.0938 Q486.25,959.375 486.25,960.0313 L486.25,961.5938 Q486.25,962.25 485.9688,962.5313 Q485.6875,962.8125 485.25,962.8125 Q484.8594,962.8125 484.6094,962.6406 Q484.3594,962.4688 484.25,962.0156 Q484.2031,961.7031 484.0313,961.5313 Q483.7188,961.2031 483.1563,961.0156 Q482.5938,960.8125 482.0313,960.8125 Q481.3281,960.8125 480.7344,961.0938 Q480.1563,961.375 479.7031,962 Q479.25,962.625 479.25,963.4844 L479.25,964.4063 Q479.25,965.4375 480.0938,966.125 Q480.9375,966.8125 482.4375,966.8125 Q483.3281,966.8125 483.9531,966.6094 Q484.3125,966.5 484.7188,966.1406 Q484.9844,965.9375 485.125,965.875 Q485.2656,965.8125 485.4375,965.8125 Q485.7656,965.8125 486,966.0781 Q486.25,966.3281 486.25,966.6875 Q486.25,967.0313 485.9063,967.4375 Q485.4063,968.0313 484.6094,968.3594 Q483.5625,968.8125 482.2813,968.8125 Q480.7813,968.8125 479.5781,968.2188 Q478.6094,967.75 477.9219,966.7344 Q477.25,965.7188 477.25,964.5156 L477.25,963.4219 Q477.25,962.1719 477.8438,961.0781 Q478.4531,959.9844 479.5,959.4063 Q480.5625,958.8125 481.75,958.8125 Q482.4688,958.8125 483.0938,959.0625 Q483.7188,959.3125 484.25,959.8125 Z " fill="#000000"/><text fill="#000000" font-family="sans-serif" font-size="14" lengthAdjust="spacing" textLength="41" x="502.75" y="969.041">Button</text><line style="stroke:#181818;stroke-width:0.5;" x1="411" x2="603" y1="979.3125" y2="979.3125"/><rect fill="none" height="6" style="stroke:#C82930;stroke-width:1.0;" width="6" x="418" y="990.6172"/><text fill="#000000" font-family="sans-serif" font-size="14" lengthAdjust="spacing" textLength="69" x="430" y="997.8457">Main game</text><rect fill="none" height="6" style="stroke:#C82930;stroke-width:1.0;" width="6" x="418" y="1008.2266"/><text fill="#000000" font-family="sans-serif" font-size="14" lengthAdjust="spacing" textLength="127" x="430" y="1015.4551">Rectangle rectangle</text><rect fill="none" height="6" style="stroke:#C82930;stroke-width:1.0;" width="6" x="418" y="1025.8359"/><text fill="#000000" font-family="sans-serif" font-size="14" lengthAdjust="spacing" textLength="37" x="430" y="1033.0645">float x</text><rect fill="none" height="6" style="stroke:#C82930;stroke-width:1.0;" width="6" x="418" y="1043.4453"/><text fill="#000000" font-family="sans-serif" font-size="14" lengthAdjust="spacing" textLength="38" x="430" y="1050.6738">float y</text><rect fill="none" height="6" style="stroke:#C82930;stroke-width:1.0;" width="6" x="418" y="1061.0547"/><text fill="#000000" font-family="sans-serif" font-size="14" lengthAdjust="spacing" textLength="63" x="430" y="1068.2832">float width</text><rect fill="none" height="6" style="stroke:#C82930;stroke-width:1.0;" width="6" x="418" y="1078.6641"/><text fill="#000000" font-family="sans-serif" font-size="14" lengthAdjust="spacing" textLength="70" x="430" y="1085.8926">float height</text><rect fill="none" height="6" style="stroke:#C82930;stroke-width:1.0;" width="6" x="418" y="1096.2734"/><text fill="#000000" font-family="sans-serif" font-size="14" lengthAdjust="spacing" textLength="76" x="430" y="1103.502">String name</text><rect fill="none" height="6" style="stroke:#C82930;stroke-width:1.0;" width="6" x="418" y="1113.8828"/><text fill="#000000" font-family="sans-serif" font-size="14" lengthAdjust="spacing" textLength="92" x="430" y="1121.1113">String imgPath</text><rect fill="none" height="6" style="stroke:#C82930;stroke-width:1.0;" width="6" x="418" y="1131.4922"/><text fill="#000000" font-family="sans-serif" font-size="14" lengthAdjust="spacing" textLength="95" x="430" y="1138.7207">Texture texture</text><rect fill="none" height="6" style="stroke:#C82930;stroke-width:1.0;" width="6" x="418" y="1149.1016"/><text fill="#000000" font-family="sans-serif" font-size="14" lengthAdjust="spacing" textLength="112" x="430" y="1156.3301">SpriteBatch batch</text><rect fill="none" height="6" style="stroke:#C82930;stroke-width:1.0;" width="6" x="418" y="1166.7109"/><text fill="#000000" font-family="sans-serif" font-size="14" lengthAdjust="spacing" textLength="103" x="430" y="1173.9395">boolean visibility</text><rect fill="none" height="6" style="stroke:#C82930;stroke-width:1.0;" width="6" x="418" y="1184.3203"/><text fill="#000000" font-family="sans-serif" font-size="14" lengthAdjust="spacing" textLength="76" x="430" y="1191.5488">Sprite sprite</text><rect fill="none" height="6" style="stroke:#C82930;stroke-width:1.0;" width="6" x="418" y="1201.9297"/><text fill="#000000" font-family="sans-serif" font-size="14" lengthAdjust="spacing" textLength="92" x="430" y="1209.1582">boolean active</text><line style="stroke:#181818;stroke-width:0.5;" x1="411" x2="603" y1="1216.2344" y2="1216.2344"/><ellipse cx="421" cy="1230.5391" fill="#84BE84" rx="3" ry="3" style="stroke:#038048;stroke-width:1.0;"/><text fill="#000000" font-family="sans-serif" font-size="14" lengthAdjust="spacing" textLength="130" x="430" y="1234.7676">Texture getTexture()</text><ellipse cx="421" cy="1248.1484" fill="#84BE84" rx="3" ry="3" style="stroke:#038048;stroke-width:1.0;"/><text fill="#000000" font-family="sans-serif" font-size="14" lengthAdjust="spacing" textLength="155" x="430" y="1252.377">void setTexture(Texture)</text><ellipse cx="421" cy="1265.7578" fill="#84BE84" rx="3" ry="3" style="stroke:#038048;stroke-width:1.0;"/><text fill="#000000" font-family="sans-serif" font-size="14" lengthAdjust="spacing" textLength="143" x="430" y="1269.9863">SpriteBatch getBatch()</text><ellipse cx="421" cy="1283.3672" fill="#84BE84" rx="3" ry="3" style="stroke:#038048;stroke-width:1.0;"/><text fill="#000000" font-family="sans-serif" font-size="14" lengthAdjust="spacing" textLength="168" x="430" y="1287.5957">void setBatch(SpriteBatch)</text><ellipse cx="421" cy="1300.9766" fill="#84BE84" rx="3" ry="3" style="stroke:#038048;stroke-width:1.0;"/><text fill="#000000" font-family="sans-serif" font-size="14" lengthAdjust="spacing" textLength="108" x="430" y="1305.2051">Sprite getSprite()</text><ellipse cx="421" cy="1318.5859" fill="#84BE84" rx="3" ry="3" style="stroke:#038048;stroke-width:1.0;"/><text fill="#000000" font-family="sans-serif" font-size="14" lengthAdjust="spacing" textLength="133" x="430" y="1322.8145">void setSprite(Sprite)</text><ellipse cx="421" cy="1336.1953" fill="#84BE84" rx="3" ry="3" style="stroke:#038048;stroke-width:1.0;"/><text fill="#000000" font-family="sans-serif" font-size="14" lengthAdjust="spacing" textLength="135" x="430" y="1340.4238">boolean getVisibility()</text><ellipse cx="421" cy="1353.8047" fill="#84BE84" rx="3" ry="3" style="stroke:#038048;stroke-width:1.0;"/><text fill="#000000" font-family="sans-serif" font-size="14" lengthAdjust="spacing" textLength="160" x="430" y="1358.0332">void setVisibility(boolean)</text><ellipse cx="421" cy="1371.4141" fill="#84BE84" rx="3" ry="3" style="stroke:#038048;stroke-width:1.0;"/><text fill="#000000" font-family="sans-serif" font-size="14" lengthAdjust="spacing" textLength="113" x="430" y="1375.6426">boolean isActive()</text><ellipse cx="421" cy="1389.0234" fill="#84BE84" rx="3" ry="3" style="stroke:#038048;stroke-width:1.0;"/><text fill="#000000" font-family="sans-serif" font-size="14" lengthAdjust="spacing" textLength="148" x="430" y="1393.252">void setActive(boolean)</text><ellipse cx="421" cy="1406.6328" fill="#84BE84" rx="3" ry="3" style="stroke:#038048;stroke-width:1.0;"/><text fill="#000000" font-family="sans-serif" font-size="14" lengthAdjust="spacing" textLength="168" x="430" y="1410.8613">void setButtonColor(Color)</text><ellipse cx="421" cy="1424.2422" fill="#84BE84" rx="3" ry="3" style="stroke:#038048;stroke-width:1.0;"/><text fill="#000000" font-family="sans-serif" font-size="14" lengthAdjust="spacing" textLength="69" x="430" y="1428.4707">float getX()</text><ellipse cx="421" cy="1441.8516" fill="#84BE84" rx="3" ry="3" style="stroke:#038048;stroke-width:1.0;"/><text fill="#000000" font-family="sans-serif" font-size="14" lengthAdjust="spacing" textLength="94" x="430" y="1446.0801">void setX(float)</text><ellipse cx="421" cy="1459.4609" fill="#84BE84" rx="3" ry="3" style="stroke:#038048;stroke-width:1.0;"/><text fill="#000000" font-family="sans-serif" font-size="14" lengthAdjust="spacing" textLength="70" x="430" y="1463.6895">float getY()</text><ellipse cx="421" cy="1477.0703" fill="#84BE84" rx="3" ry="3" style="stroke:#038048;stroke-width:1.0;"/><text fill="#000000" font-family="sans-serif" font-size="14" lengthAdjust="spacing" textLength="95" x="430" y="1481.2988">void setY(float)</text><ellipse cx="421" cy="1494.6797" fill="#84BE84" rx="3" ry="3" style="stroke:#038048;stroke-width:1.0;"/><text fill="#000000" font-family="sans-serif" font-size="14" lengthAdjust="spacing" textLength="97" x="430" y="1498.9082">float getWidth()</text><ellipse cx="421" cy="1512.2891" fill="#84BE84" rx="3" ry="3" style="stroke:#038048;stroke-width:1.0;"/><text fill="#000000" font-family="sans-serif" font-size="14" lengthAdjust="spacing" textLength="122" x="430" y="1516.5176">void setWidth(float)</text><ellipse cx="421" cy="1529.8984" fill="#84BE84" rx="3" ry="3" style="stroke:#038048;stroke-width:1.0;"/><text fill="#000000" font-family="sans-serif" font-size="14" lengthAdjust="spacing" textLength="101" x="430" y="1534.127">float getHeight()</text><ellipse cx="421" cy="1547.5078" fill="#84BE84" rx="3" ry="3" style="stroke:#038048;stroke-width:1.0;"/><text fill="#000000" font-family="sans-serif" font-size="14" lengthAdjust="spacing" textLength="126" x="430" y="1551.7363">void setHeight(float)</text><ellipse cx="421" cy="1565.1172" fill="#84BE84" rx="3" ry="3" style="stroke:#038048;stroke-width:1.0;"/><text fill="#000000" font-family="sans-serif" font-size="14" lengthAdjust="spacing" textLength="107" x="430" y="1569.3457">String getName()</text><ellipse cx="421" cy="1582.7266" fill="#84BE84" rx="3" ry="3" style="stroke:#038048;stroke-width:1.0;"/><text fill="#000000" font-family="sans-serif" font-size="14" lengthAdjust="spacing" textLength="132" x="430" y="1586.9551">void setName(String)</text><ellipse cx="421" cy="1600.3359" fill="#84BE84" rx="3" ry="3" style="stroke:#038048;stroke-width:1.0;"/><text fill="#000000" font-family="sans-serif" font-size="14" lengthAdjust="spacing" textLength="139" x="430" y="1604.5645">Rectangle getBound()</text></g><!--MD5=[e28b97f13ebe0e0d0e1b4a0418369900]
class com.mygdx.game.engine.input.CustomInputProcessor--><g id="elem_com.mygdx.game.engine.input.CustomInputProcessor"><rect codeLine="98" fill="#F1F1F1" height="224.0938" id="com.mygdx.game.engine.input.CustomInputProcessor" rx="2.5" ry="2.5" style="stroke:#181818;stroke-width:0.5;" width="234" x="704" y="1167.3125"/><ellipse cx="745.55" cy="1183.3125" fill="#ADD1B2" rx="11" ry="11" style="stroke:#181818;stroke-width:1.0;"/><path d="M747.55,1179.8125 Q747.7531,1179.3125 747.9875,1179.0625 Q748.2219,1178.8125 748.4875,1178.8125 Q748.9563,1178.8125 749.2531,1179.0938 Q749.55,1179.375 749.55,1180.0313 L749.55,1181.5938 Q749.55,1182.25 749.2688,1182.5313 Q748.9875,1182.8125 748.55,1182.8125 Q748.1594,1182.8125 747.9094,1182.6406 Q747.6594,1182.4688 747.55,1182.0156 Q747.5031,1181.7031 747.3313,1181.5313 Q747.0188,1181.2031 746.4563,1181.0156 Q745.8938,1180.8125 745.3313,1180.8125 Q744.6281,1180.8125 744.0344,1181.0938 Q743.4563,1181.375 743.0031,1182 Q742.55,1182.625 742.55,1183.4844 L742.55,1184.4063 Q742.55,1185.4375 743.3938,1186.125 Q744.2375,1186.8125 745.7375,1186.8125 Q746.6281,1186.8125 747.2531,1186.6094 Q747.6125,1186.5 748.0188,1186.1406 Q748.2844,1185.9375 748.425,1185.875 Q748.5656,1185.8125 748.7375,1185.8125 Q749.0656,1185.8125 749.3,1186.0781 Q749.55,1186.3281 749.55,1186.6875 Q749.55,1187.0313 749.2063,1187.4375 Q748.7063,1188.0313 747.9094,1188.3594 Q746.8625,1188.8125 745.5813,1188.8125 Q744.0813,1188.8125 742.8781,1188.2188 Q741.9094,1187.75 741.2219,1186.7344 Q740.55,1185.7188 740.55,1184.5156 L740.55,1183.4219 Q740.55,1182.1719 741.1438,1181.0781 Q741.7531,1179.9844 742.8,1179.4063 Q743.8625,1178.8125 745.05,1178.8125 Q745.7688,1178.8125 746.3938,1179.0625 Q747.0188,1179.3125 747.55,1179.8125 Z " fill="#000000"/><text fill="#000000" font-family="sans-serif" font-size="14" lengthAdjust="spacing" textLength="143" x="765.45" y="1189.041">CustomInputProcessor</text><line style="stroke:#181818;stroke-width:0.5;" x1="705" x2="937" y1="1199.3125" y2="1199.3125"/><line style="stroke:#181818;stroke-width:0.5;" x1="705" x2="937" y1="1207.3125" y2="1207.3125"/><ellipse cx="715" cy="1221.6172" fill="#84BE84" rx="3" ry="3" style="stroke:#038048;stroke-width:1.0;"/><text fill="#000000" font-family="sans-serif" font-size="14" lengthAdjust="spacing" textLength="168" x="724" y="1225.8457">boolean mouseClicked(int)</text><ellipse cx="715" cy="1239.2266" fill="#84BE84" rx="3" ry="3" style="stroke:#038048;stroke-width:1.0;"/><text fill="#000000" font-family="sans-serif" font-size="14" lengthAdjust="spacing" textLength="137" x="724" y="1243.4551">boolean keyDown(int)</text><ellipse cx="715" cy="1256.8359" fill="#84BE84" rx="3" ry="3" style="stroke:#038048;stroke-width:1.0;"/><text fill="#000000" font-family="sans-serif" font-size="14" lengthAdjust="spacing" textLength="119" x="724" y="1261.0645">boolean keyUp(int)</text><ellipse cx="715" cy="1274.4453" fill="#84BE84" rx="3" ry="3" style="stroke:#038048;stroke-width:1.0;"/><text fill="#000000" font-family="sans-serif" font-size="14" lengthAdjust="spacing" textLength="155" x="724" y="1278.6738">boolean keyTyped(char)</text><ellipse cx="715" cy="1292.0547" fill="#84BE84" rx="3" ry="3" style="stroke:#038048;stroke-width:1.0;"/><text fill="#000000" font-family="sans-serif" font-size="14" lengthAdjust="spacing" textLength="207" x="724" y="1296.2832">boolean touchDown(int,int,int,int)</text><ellipse cx="715" cy="1309.6641" fill="#84BE84" rx="3" ry="3" style="stroke:#038048;stroke-width:1.0;"/><text fill="#000000" font-family="sans-serif" font-size="14" lengthAdjust="spacing" textLength="189" x="724" y="1313.8926">boolean touchUp(int,int,int,int)</text><ellipse cx="715" cy="1327.2734" fill="#84BE84" rx="3" ry="3" style="stroke:#038048;stroke-width:1.0;"/><text fill="#000000" font-family="sans-serif" font-size="14" lengthAdjust="spacing" textLength="208" x="724" y="1331.502">boolean touchDragged(int,int,int)</text><ellipse cx="715" cy="1344.8828" fill="#84BE84" rx="3" ry="3" style="stroke:#038048;stroke-width:1.0;"/><text fill="#000000" font-family="sans-serif" font-size="14" lengthAdjust="spacing" textLength="183" x="724" y="1349.1113">boolean mouseMoved(int,int)</text><ellipse cx="715" cy="1362.4922" fill="#84BE84" rx="3" ry="3" style="stroke:#038048;stroke-width:1.0;"/><text fill="#000000" font-family="sans-serif" font-size="14" lengthAdjust="spacing" textLength="172" x="724" y="1366.7207">boolean scrolled(float,float)</text><ellipse cx="715" cy="1380.1016" fill="#84BE84" rx="3" ry="3" style="stroke:#038048;stroke-width:1.0;"/><text fill="#000000" font-family="sans-serif" font-size="14" lengthAdjust="spacing" textLength="184" x="724" y="1384.3301">boolean mouseHoverOver(T)</text></g><!--MD5=[f07a1b2793d5d8a5b2e96b4f6ae4b202]
class com.mygdx.game.game.components.game.PlayerScore--><g id="elem_com.mygdx.game.game.components.game.PlayerScore"><rect codeLine="111" fill="#F1F1F1" height="241.7031" id="com.mygdx.game.game.components.game.PlayerScore" rx="2.5" ry="2.5" style="stroke:#181818;stroke-width:0.5;" width="214" x="1038" y="1158.3125"/><ellipse cx="1102.25" cy="1174.3125" fill="#ADD1B2" rx="11" ry="11" style="stroke:#181818;stroke-width:1.0;"/><path d="M1104.25,1170.8125 Q1104.4531,1170.3125 1104.6875,1170.0625 Q1104.9219,1169.8125 1105.1875,1169.8125 Q1105.6563,1169.8125 1105.9531,1170.0938 Q1106.25,1170.375 1106.25,1171.0313 L1106.25,1172.5938 Q1106.25,1173.25 1105.9688,1173.5313 Q1105.6875,1173.8125 1105.25,1173.8125 Q1104.8594,1173.8125 1104.6094,1173.6406 Q1104.3594,1173.4688 1104.25,1173.0156 Q1104.2031,1172.7031 1104.0313,1172.5313 Q1103.7188,1172.2031 1103.1563,1172.0156 Q1102.5938,1171.8125 1102.0313,1171.8125 Q1101.3281,1171.8125 1100.7344,1172.0938 Q1100.1563,1172.375 1099.7031,1173 Q1099.25,1173.625 1099.25,1174.4844 L1099.25,1175.4063 Q1099.25,1176.4375 1100.0938,1177.125 Q1100.9375,1177.8125 1102.4375,1177.8125 Q1103.3281,1177.8125 1103.9531,1177.6094 Q1104.3125,1177.5 1104.7188,1177.1406 Q1104.9844,1176.9375 1105.125,1176.875 Q1105.2656,1176.8125 1105.4375,1176.8125 Q1105.7656,1176.8125 1106,1177.0781 Q1106.25,1177.3281 1106.25,1177.6875 Q1106.25,1178.0313 1105.9063,1178.4375 Q1105.4063,1179.0313 1104.6094,1179.3594 Q1103.5625,1179.8125 1102.2813,1179.8125 Q1100.7813,1179.8125 1099.5781,1179.2188 Q1098.6094,1178.75 1097.9219,1177.7344 Q1097.25,1176.7188 1097.25,1175.5156 L1097.25,1174.4219 Q1097.25,1173.1719 1097.8438,1172.0781 Q1098.4531,1170.9844 1099.5,1170.4063 Q1100.5625,1169.8125 1101.75,1169.8125 Q1102.4688,1169.8125 1103.0938,1170.0625 Q1103.7188,1170.3125 1104.25,1170.8125 Z " fill="#000000"/><text fill="#000000" font-family="sans-serif" font-size="14" lengthAdjust="spacing" textLength="77" x="1122.75" y="1180.041">PlayerScore</text><line style="stroke:#181818;stroke-width:0.5;" x1="1039" x2="1251" y1="1190.3125" y2="1190.3125"/><rect fill="none" height="6" style="stroke:#C82930;stroke-width:1.0;" width="6" x="1046" y="1201.6172"/><text fill="#000000" font-family="sans-serif" font-size="14" lengthAdjust="spacing" textLength="100" x="1058" y="1208.8457">String startTime</text><rect fill="none" height="6" style="stroke:#C82930;stroke-width:1.0;" width="6" x="1046" y="1219.2266"/><text fill="#000000" font-family="sans-serif" font-size="14" lengthAdjust="spacing" textLength="131" x="1058" y="1226.4551">int distanceTravelled</text><rect fill="none" height="6" style="stroke:#C82930;stroke-width:1.0;" width="6" x="1046" y="1236.8359"/><text fill="#000000" font-family="sans-serif" font-size="14" lengthAdjust="spacing" textLength="90" x="1058" y="1244.0645">int aliensKilled</text><line style="stroke:#181818;stroke-width:0.5;" x1="1039" x2="1251" y1="1251.1406" y2="1251.1406"/><ellipse cx="1049" cy="1265.4453" fill="#84BE84" rx="3" ry="3" style="stroke:#038048;stroke-width:1.0;"/><text fill="#000000" font-family="sans-serif" font-size="14" lengthAdjust="spacing" textLength="132" x="1058" y="1269.6738">String getStartTime()</text><ellipse cx="1049" cy="1283.0547" fill="#84BE84" rx="3" ry="3" style="stroke:#038048;stroke-width:1.0;"/><text fill="#000000" font-family="sans-serif" font-size="14" lengthAdjust="spacing" textLength="157" x="1058" y="1287.2832">void setStartTime(String)</text><ellipse cx="1049" cy="1300.6641" fill="#84BE84" rx="3" ry="3" style="stroke:#038048;stroke-width:1.0;"/><text fill="#000000" font-family="sans-serif" font-size="14" lengthAdjust="spacing" textLength="163" x="1058" y="1304.8926">int getDistanceTravelled()</text><ellipse cx="1049" cy="1318.2734" fill="#84BE84" rx="3" ry="3" style="stroke:#038048;stroke-width:1.0;"/><text fill="#000000" font-family="sans-serif" font-size="14" lengthAdjust="spacing" textLength="188" x="1058" y="1322.502">void setDistanceTravelled(int)</text><ellipse cx="1049" cy="1335.8828" fill="#84BE84" rx="3" ry="3" style="stroke:#038048;stroke-width:1.0;"/><text fill="#000000" font-family="sans-serif" font-size="14" lengthAdjust="spacing" textLength="121" x="1058" y="1340.1113">int getAliensKilled()</text><ellipse cx="1049" cy="1353.4922" fill="#84BE84" rx="3" ry="3" style="stroke:#038048;stroke-width:1.0;"/><text fill="#000000" font-family="sans-serif" font-size="14" lengthAdjust="spacing" textLength="146" x="1058" y="1357.7207">void setAliensKilled(int)</text><ellipse cx="1049" cy="1371.1016" fill="#84BE84" rx="3" ry="3" style="stroke:#038048;stroke-width:1.0;"/><text fill="#000000" font-family="sans-serif" font-size="14" lengthAdjust="spacing" textLength="100" x="1058" y="1375.3301">String toString()</text><ellipse cx="1049" cy="1388.7109" fill="#84BE84" rx="3" ry="3" style="stroke:#038048;stroke-width:1.0;"/><text fill="#000000" font-family="sans-serif" font-size="14" lengthAdjust="spacing" textLength="178" x="1058" y="1392.9395">int compareTo(PlayerScore)</text></g><!--MD5=[02b0f5eed9a20e03daa7267a42c0e3dd]
reverse link com.mygdx.game.game.screens.menu.ScoreboardScreen to com.mygdx.game.engine.input.CustomInputProcessor--><g id="link_com.mygdx.game.game.screens.menu.ScoreboardScreen_com.mygdx.game.engine.input.CustomInputProcessor"><path codeLine="125" d="M744.5,456.3225 C744.5,456.3225 744.5,1166.9625 744.5,1166.9625 " fill="none" id="com.mygdx.game.game.screens.menu.ScoreboardScreen-backto-com.mygdx.game.engine.input.CustomInputProcessor" style="stroke:#181818;stroke-width:1.0;"/><polygon fill="#181818" points="744.5,443.3225,740.5,449.3225,744.5,455.3225,748.5,449.3225,744.5,443.3225" style="stroke:#181818;stroke-width:1.0;"/><text fill="#000000" font-family="sans-serif" font-size="13" lengthAdjust="spacing" textLength="21" x="722.5" y="808.1376">has</text></g><!--MD5=[c1ef44cbe08f6c6546c6bec580ccc32a]
reverse link com.mygdx.game.game.screens.menu.ScoreboardScreen to com.mygdx.game.engine.lifecycle.Main--><g id="link_com.mygdx.game.game.screens.menu.ScoreboardScreen_com.mygdx.game.engine.lifecycle.Main"><path codeLine="126" d="M489.31,278.3125 C489.31,278.3125 166,278.3125 166,278.3125 C166,278.3125 166,757.5125 166,1052.7925 " fill="none" id="com.mygdx.game.game.screens.menu.ScoreboardScreen-backto-com.mygdx.game.engine.lifecycle.Main" style="stroke:#181818;stroke-width:1.0;"/><polygon fill="#181818" points="502.31,278.3125,496.31,274.3125,490.31,278.3125,496.31,282.3125,502.31,278.3125" style="stroke:#181818;stroke-width:1.0;"/><text fill="#000000" font-family="sans-serif" font-size="13" lengthAdjust="spacing" textLength="21" x="144" y="500.3876">has</text></g><!--MD5=[67fa8fe83bbcf9843b7529dadaf886cd]
reverse link com.mygdx.game.game.screens.menu.ScoreboardScreen to com.mygdx.game.game.components.ui.Button--><g id="link_com.mygdx.game.game.screens.menu.ScoreboardScreen_com.mygdx.game.game.components.ui.Button"><path codeLine="127" d="M553.25,456.3225 C553.25,456.3225 553.25,947.1625 553.25,947.1625 " fill="none" id="com.mygdx.game.game.screens.menu.ScoreboardScreen-backto-com.mygdx.game.game.components.ui.Button" style="stroke:#181818;stroke-width:1.0;"/><polygon fill="#181818" points="553.25,443.3225,549.25,449.3225,553.25,455.3225,557.25,449.3225,553.25,443.3225" style="stroke:#181818;stroke-width:1.0;"/><text fill="#000000" font-family="sans-serif" font-size="13" lengthAdjust="spacing" textLength="21" x="531.25" y="698.2376">has</text></g><!--MD5=[b5e703643a34009e6950707349681203]
reverse link com.mygdx.game.game.screens.menu.ScoreboardScreen to com.mygdx.game.game.components.game.PlayerScore--><g id="link_com.mygdx.game.game.screens.menu.ScoreboardScreen_com.mygdx.game.game.components.game.PlayerScore"><path codeLine="128" d="M785,456.4725 C785,456.4725 785,1163.3125 785,1163.3125 C785,1163.3125 931.84,1163.3125 1037.96,1163.3125 " fill="none" id="com.mygdx.game.game.screens.menu.ScoreboardScreen-backto-com.mygdx.game.game.components.game.PlayerScore" style="stroke:#181818;stroke-width:1.0;"/><polygon fill="#181818" points="785,443.4725,781,449.4725,785,455.4725,789,449.4725,785,443.4725" style="stroke:#181818;stroke-width:1.0;"/><text fill="#000000" font-family="sans-serif" font-size="13" lengthAdjust="spacing" textLength="57" x="727" y="932.8676">has many</text></g><!--MD5=[e275336793d207ba00d1c4be99dc62bb]
@startuml
skinparam linetype polyline
skinparam linetype ortho

skinparam nodesep 100
skinparam ranksep 100

skinparam titleBorderRoundCorner 15
skinparam titleBorderThickness 2
skinparam titleBorderColor red
skinparam titleBackgroundColor Aqua-CadetBlue
skinparam TitleFontSize 40

title Appendix M - ScoreboardScreen Class Composition Relations

class com.mygdx.game.game.screens.menu.ScoreboardScreen {
- CustomInputProcessor inputProcessor
- Button backButton
- SpriteBatch batch
- Texture texture
- Main game
- Table table
- ArrayList<PlayerScore> playerScores
+ CustomInputProcessor getInputProcessor()
+ void setInputProcessor(CustomInputProcessor)
+ void show()
+ void render(float)
+ void resize(int,int)
+ void pause()
+ void resume()
+ void hide()
+ void dispose()
}

class com.mygdx.game.engine.lifecycle.Main {
- {static} Main instance
- ScreenManager screenManager
- Preferences prefs
- SoundManager soundManager
+ EntityManager entityManager
- SpriteBatch batch
- BitmapFont font
+ int HEIGHT
+ int WIDTH
+ {static} Main getInstance()
+ ScreenManager getScreenManager()
+ void setScreenManager(ScreenManager)
+ SoundManager getSoundManager()
+ void setSoundManager(SoundManager)
+ SpriteBatch getBatch()
+ void setBatch(SpriteBatch)
+ BitmapFont getFont()
+ void setFont(BitmapFont)
+ Preferences getPrefs()
+ void setPrefs(Preferences)
+ void create()
+ void render()
+ void dispose()
}

class com.mygdx.game.game.components.ui.Button {
- Main game
- Rectangle rectangle
- float x
- float y
- float width
- float height
- String name
- String imgPath
- Texture texture
- SpriteBatch batch
- boolean visibility
- Sprite sprite
- boolean active
+ Texture getTexture()
+ void setTexture(Texture)
+ SpriteBatch getBatch()
+ void setBatch(SpriteBatch)
+ Sprite getSprite()
+ void setSprite(Sprite)
+ boolean getVisibility()
+ void setVisibility(boolean)
+ boolean isActive()
+ void setActive(boolean)
+ void setButtonColor(Color)
+ float getX()
+ void setX(float)
+ float getY()
+ void setY(float)
+ float getWidth()
+ void setWidth(float)
+ float getHeight()
+ void setHeight(float)
+ String getName()
+ void setName(String)
+ Rectangle getBound()
}

class com.mygdx.game.engine.input.CustomInputProcessor {
+ boolean mouseClicked(int)
+ boolean keyDown(int)
+ boolean keyUp(int)
+ boolean keyTyped(char)
+ boolean touchDown(int,int,int,int)
+ boolean touchUp(int,int,int,int)
+ boolean touchDragged(int,int,int)
+ boolean mouseMoved(int,int)
+ boolean scrolled(float,float)
+ boolean mouseHoverOver(T)
}

class com.mygdx.game.game.components.game.PlayerScore {
- String startTime
- int distanceTravelled
- int aliensKilled
+ String getStartTime()
+ void setStartTime(String)
+ int getDistanceTravelled()
+ void setDistanceTravelled(int)
+ int getAliensKilled()
+ void setAliensKilled(int)
+ String toString()
+ int compareTo(PlayerScore)
}

com.mygdx.game.game.screens.menu.ScoreboardScreen *- - - - - - com.mygdx.game.engine.input.CustomInputProcessor :has
com.mygdx.game.game.screens.menu.ScoreboardScreen *- - - - - - com.mygdx.game.engine.lifecycle.Main :has
com.mygdx.game.game.screens.menu.ScoreboardScreen *- - - - - - com.mygdx.game.game.components.ui.Button :has
com.mygdx.game.game.screens.menu.ScoreboardScreen *- - - - - - com.mygdx.game.game.components.game.PlayerScore :has many
@enduml

PlantUML version 1.2022.12(Mon Oct 24 02:12:26 SGT 2022)
(GPL source distribution)
Java Runtime: OpenJDK Runtime Environment
JVM: OpenJDK 64-Bit Server VM
Default Encoding: Cp1252
Language: en
Country: SG
--></g></svg>