<?xml version="1.0" encoding="UTF-8" standalone="no"?><svg xmlns="http://www.w3.org/2000/svg" xmlns:xlink="http://www.w3.org/1999/xlink" contentStyleType="text/css" height="852px" preserveAspectRatio="none" style="width:575px;height:852px;background:#FFFFFF;" version="1.1" viewBox="0 0 575 852" width="575.5px" zoomAndPan="magnify"><defs><linearGradient id="gmfr1qmrwyjj0" x1="50%" x2="50%" y1="0%" y2="100%"><stop offset="0%" stop-color="#00FFFF"/><stop offset="100%" stop-color="#5F9EA0"/></linearGradient></defs><g><rect fill="url(#gmfr1qmrwyjj0)" height="30.1563" id="_title" rx="3.75" ry="3.75" style="stroke:#FF0000;stroke-width:1.0;" width="566.5" x="2.5" y="2.5"/><text fill="#000000" font-family="sans-serif" font-size="20" font-weight="bold" lengthAdjust="spacing" textLength="561.5" x="5" y="25.7617">Appendix J - MainMenuScreen Class Composition Relations</text><!--MD5=[ec129861e6194a645611de3369ad0d54]
cluster com.mygdx.game.game.screens.menu--><g id="cluster_com.mygdx.game.game.screens.menu"><path d="M214.75,38.6563 L348.25,38.6563 A1.875,1.875 0 0 1 349.5,39.9063 L353,50.4609 L390.25,50.4609 A1.25,1.25 0 0 1 391.5,51.7109 L391.5,263.4063 A1.25,1.25 0 0 1 390.25,264.6563 L214.75,264.6563 A1.25,1.25 0 0 1 213.5,263.4063 L213.5,39.9063 A1.25,1.25 0 0 1 214.75,38.6563 " fill="none" style="stroke:#000000;stroke-width:0.75;"/><line style="stroke:#000000;stroke-width:0.75;" x1="213.5" x2="353" y1="50.4609" y2="50.4609"/><text fill="#000000" font-family="sans-serif" font-size="7" font-weight="bold" lengthAdjust="spacing" textLength="133" x="215.5" y="46.9229">com.mygdx.game.game.screens.menu</text></g><!--MD5=[f5720f8f2d84faa53b7e58c13b303426]
cluster com.mygdx.game.engine.lifecycle--><g id="cluster_com.mygdx.game.engine.lifecycle"><path d="M53.25,543.4063 L171.25,543.4063 A1.875,1.875 0 0 1 172.5,544.6563 L176,555.2109 L210.75,555.2109 A1.25,1.25 0 0 1 212,556.4609 L212,794.6563 A1.25,1.25 0 0 1 210.75,795.9063 L53.25,795.9063 A1.25,1.25 0 0 1 52,794.6563 L52,544.6563 A1.25,1.25 0 0 1 53.25,543.4063 " fill="none" style="stroke:#000000;stroke-width:0.75;"/><line style="stroke:#000000;stroke-width:0.75;" x1="52" x2="176" y1="555.2109" y2="555.2109"/><text fill="#000000" font-family="sans-serif" font-size="7" font-weight="bold" lengthAdjust="spacing" textLength="117.5" x="54" y="551.6729">com.mygdx.game.engine.lifecycle</text></g><!--MD5=[683aabdc962ad2ab98ef14c38ed732ec]
cluster com.mygdx.game.game.components.ui--><g id="cluster_com.mygdx.game.game.components.ui"><path d="M232.25,490.6563 L367.75,490.6563 A1.875,1.875 0 0 1 369,491.9063 L372.5,502.4609 L372.75,502.4609 A1.25,1.25 0 0 1 374,503.7109 L374,847.4063 A1.25,1.25 0 0 1 372.75,848.6563 L232.25,848.6563 A1.25,1.25 0 0 1 231,847.4063 L231,491.9063 A1.25,1.25 0 0 1 232.25,490.6563 " fill="none" style="stroke:#000000;stroke-width:0.75;"/><line style="stroke:#000000;stroke-width:0.75;" x1="231" x2="372.5" y1="502.4609" y2="502.4609"/><text fill="#000000" font-family="sans-serif" font-size="7" font-weight="bold" lengthAdjust="spacing" textLength="135" x="233" y="498.9229">com.mygdx.game.game.components.ui</text></g><!--MD5=[6d572adab93e1a2768c068c53f7d318b]
cluster com.mygdx.game.engine.input--><g id="cluster_com.mygdx.game.engine.input"><path d="M394.25,600.6563 L501.25,600.6563 A1.875,1.875 0 0 1 502.5,601.9063 L506,612.4609 L524.75,612.4609 A1.25,1.25 0 0 1 526,613.7109 L526,737.4063 A1.25,1.25 0 0 1 524.75,738.6563 L394.25,738.6563 A1.25,1.25 0 0 1 393,737.4063 L393,601.9063 A1.25,1.25 0 0 1 394.25,600.6563 " fill="none" style="stroke:#000000;stroke-width:0.75;"/><line style="stroke:#000000;stroke-width:0.75;" x1="393" x2="506" y1="612.4609" y2="612.4609"/><text fill="#000000" font-family="sans-serif" font-size="7" font-weight="bold" lengthAdjust="spacing" textLength="106.5" x="395" y="608.9229">com.mygdx.game.engine.input</text></g><!--MD5=[5f278419558301d98b97dd4a2a287b8c]
class com.mygdx.game.game.screens.menu.MainMenuScreen--><g id="elem_com.mygdx.game.game.screens.menu.MainMenuScreen"><rect codeLine="15" fill="#F1F1F1" height="200.0938" id="com.mygdx.game.game.screens.menu.MainMenuScreen" rx="1.25" ry="1.25" style="stroke:#181818;stroke-width:0.25;" width="161.5" x="221.75" y="56.6563"/><ellipse cx="272.875" cy="64.6563" fill="#ADD1B2" rx="5.5" ry="5.5" style="stroke:#181818;stroke-width:0.5;"/><path d="M273.875,62.9063 Q273.9766,62.6563 274.0938,62.5313 Q274.2109,62.4063 274.3438,62.4063 Q274.5781,62.4063 274.7266,62.5469 Q274.875,62.6875 274.875,63.0156 L274.875,63.7969 Q274.875,64.125 274.7344,64.2656 Q274.5938,64.4063 274.375,64.4063 Q274.1797,64.4063 274.0547,64.3203 Q273.9297,64.2344 273.875,64.0078 Q273.8516,63.8516 273.7656,63.7656 Q273.6094,63.6016 273.3281,63.5078 Q273.0469,63.4063 272.7656,63.4063 Q272.4141,63.4063 272.1172,63.5469 Q271.8281,63.6875 271.6016,64 Q271.375,64.3125 271.375,64.7422 L271.375,65.2031 Q271.375,65.7188 271.7969,66.0625 Q272.2188,66.4063 272.9688,66.4063 Q273.4141,66.4063 273.7266,66.3047 Q273.9063,66.25 274.1094,66.0703 Q274.2422,65.9688 274.3125,65.9375 Q274.3828,65.9063 274.4688,65.9063 Q274.6328,65.9063 274.75,66.0391 Q274.875,66.1641 274.875,66.3438 Q274.875,66.5156 274.7031,66.7188 Q274.4531,67.0156 274.0547,67.1797 Q273.5313,67.4063 272.8906,67.4063 Q272.1406,67.4063 271.5391,67.1094 Q271.0547,66.875 270.7109,66.3672 Q270.375,65.8594 270.375,65.2578 L270.375,64.7109 Q270.375,64.0859 270.6719,63.5391 Q270.9766,62.9922 271.5,62.7031 Q272.0313,62.4063 272.625,62.4063 Q272.9844,62.4063 273.2969,62.5313 Q273.6094,62.6563 273.875,62.9063 Z " fill="#000000"/><text fill="#000000" font-family="sans-serif" font-size="7" lengthAdjust="spacing" textLength="55" x="283.125" y="67.5205">MainMenuScreen</text><line style="stroke:#181818;stroke-width:0.25;" x1="222.25" x2="382.75" y1="72.6563" y2="72.6563"/><rect fill="none" height="3" style="stroke:#C82930;stroke-width:0.5;" width="3" x="225.75" y="78.3086"/><text fill="#000000" font-family="sans-serif" font-size="7" lengthAdjust="spacing" textLength="121" x="231.75" y="81.9229">CustomInputProcessor inputProcessor</text><rect fill="none" height="3" style="stroke:#C82930;stroke-width:0.5;" width="3" x="225.75" y="87.1133"/><text fill="#000000" font-family="sans-serif" font-size="7" lengthAdjust="spacing" textLength="34.5" x="231.75" y="90.7275">Main game</text><rect fill="none" height="3" style="stroke:#C82930;stroke-width:0.5;" width="3" x="225.75" y="95.918"/><text fill="#000000" font-family="sans-serif" font-size="7" lengthAdjust="spacing" textLength="92" x="231.75" y="99.5322">OrthographicCamera camera</text><rect fill="none" height="3" style="stroke:#C82930;stroke-width:0.5;" width="3" x="225.75" y="104.7227"/><text fill="#000000" font-family="sans-serif" font-size="7" lengthAdjust="spacing" textLength="82" x="231.75" y="108.3369">ArrayList&lt;Button&gt; buttons</text><rect fill="none" height="3" style="stroke:#C82930;stroke-width:0.5;" width="3" x="225.75" y="113.5273"/><text fill="#000000" font-family="sans-serif" font-size="7" lengthAdjust="spacing" textLength="56" x="231.75" y="117.1416">SpriteBatch batch</text><rect fill="none" height="3" style="stroke:#C82930;stroke-width:0.5;" width="3" x="225.75" y="122.332"/><text fill="#000000" font-family="sans-serif" font-size="7" lengthAdjust="spacing" textLength="47.5" x="231.75" y="125.9463">Texture texture</text><rect fill="none" height="3" style="stroke:#C82930;stroke-width:0.5;" width="3" x="225.75" y="131.1367"/><text fill="#000000" font-family="sans-serif" font-size="7" lengthAdjust="spacing" textLength="110" x="231.75" y="134.751">ArrayList&lt;String&gt; buttonImagePath</text><rect fill="none" height="3" style="stroke:#C82930;stroke-width:0.5;" width="3" x="225.75" y="139.9414"/><text fill="#000000" font-family="sans-serif" font-size="7" lengthAdjust="spacing" textLength="68.5" x="231.75" y="143.5557">boolean soundPlayed</text><rect fill="none" height="3" style="stroke:#C82930;stroke-width:0.5;" width="3" x="225.75" y="148.7461"/><text fill="#000000" font-family="sans-serif" font-size="7" lengthAdjust="spacing" textLength="120" x="231.75" y="152.3604">ScoreboardScreen scoreboardScreen</text><line style="stroke:#181818;stroke-width:0.25;" x1="222.25" x2="382.75" y1="155.8984" y2="155.8984"/><ellipse cx="227.25" cy="163.0508" fill="#84BE84" rx="1.5" ry="1.5" style="stroke:#038048;stroke-width:0.5;"/><text fill="#000000" font-family="sans-serif" font-size="7" lengthAdjust="spacing" textLength="148.5" x="231.75" y="165.165">void setInputProcessor(CustomInputProcessor)</text><ellipse cx="227.25" cy="171.8555" fill="#84BE84" rx="1.5" ry="1.5" style="stroke:#038048;stroke-width:0.5;"/><text fill="#000000" font-family="sans-serif" font-size="7" lengthAdjust="spacing" textLength="110" x="231.75" y="173.9697">void setButtons(ArrayList&lt;Button&gt;)</text><ellipse cx="227.25" cy="180.6602" fill="#84BE84" rx="1.5" ry="1.5" style="stroke:#038048;stroke-width:0.5;"/><text fill="#000000" font-family="sans-serif" font-size="7" lengthAdjust="spacing" textLength="36" x="231.75" y="182.7744">void show()</text><ellipse cx="227.25" cy="189.4648" fill="#84BE84" rx="1.5" ry="1.5" style="stroke:#038048;stroke-width:0.5;"/><text fill="#000000" font-family="sans-serif" font-size="7" lengthAdjust="spacing" textLength="54.5" x="231.75" y="191.5791">void render(float)</text><ellipse cx="227.25" cy="198.2695" fill="#84BE84" rx="1.5" ry="1.5" style="stroke:#038048;stroke-width:0.5;"/><text fill="#000000" font-family="sans-serif" font-size="7" lengthAdjust="spacing" textLength="55.5" x="231.75" y="200.3838">void resize(int,int)</text><ellipse cx="227.25" cy="207.0742" fill="#84BE84" rx="1.5" ry="1.5" style="stroke:#038048;stroke-width:0.5;"/><text fill="#000000" font-family="sans-serif" font-size="7" lengthAdjust="spacing" textLength="33" x="231.75" y="209.1885">void play()</text><ellipse cx="227.25" cy="215.8789" fill="#84BE84" rx="1.5" ry="1.5" style="stroke:#038048;stroke-width:0.5;"/><text fill="#000000" font-family="sans-serif" font-size="7" lengthAdjust="spacing" textLength="31.5" x="231.75" y="217.9932">void quit()</text><ellipse cx="227.25" cy="224.6836" fill="#84BE84" rx="1.5" ry="1.5" style="stroke:#038048;stroke-width:0.5;"/><text fill="#000000" font-family="sans-serif" font-size="7" lengthAdjust="spacing" textLength="39.5" x="231.75" y="226.7979">void pause()</text><ellipse cx="227.25" cy="233.4883" fill="#84BE84" rx="1.5" ry="1.5" style="stroke:#038048;stroke-width:0.5;"/><text fill="#000000" font-family="sans-serif" font-size="7" lengthAdjust="spacing" textLength="43.5" x="231.75" y="235.6025">void resume()</text><ellipse cx="227.25" cy="242.293" fill="#84BE84" rx="1.5" ry="1.5" style="stroke:#038048;stroke-width:0.5;"/><text fill="#000000" font-family="sans-serif" font-size="7" lengthAdjust="spacing" textLength="33.5" x="231.75" y="244.4072">void hide()</text><ellipse cx="227.25" cy="251.0977" fill="#84BE84" rx="1.5" ry="1.5" style="stroke:#038048;stroke-width:0.5;"/><text fill="#000000" font-family="sans-serif" font-size="7" lengthAdjust="spacing" textLength="44.5" x="231.75" y="253.2119">void dispose()</text></g><!--MD5=[533628e9c9f667eb08bf66ebfc75b243]
class com.mygdx.game.engine.lifecycle.Main--><g id="elem_com.mygdx.game.engine.lifecycle.Main"><rect codeLine="38" fill="#F1F1F1" height="226.5078" id="com.mygdx.game.engine.lifecycle.Main" rx="1.25" ry="1.25" style="stroke:#181818;stroke-width:0.25;" width="143.5" x="60.25" y="561.4063"/><ellipse cx="122.375" cy="569.4063" fill="#ADD1B2" rx="5.5" ry="5.5" style="stroke:#181818;stroke-width:0.5;"/><path d="M123.375,567.6563 Q123.4766,567.4063 123.5938,567.2813 Q123.7109,567.1563 123.8438,567.1563 Q124.0781,567.1563 124.2266,567.2969 Q124.375,567.4375 124.375,567.7656 L124.375,568.5469 Q124.375,568.875 124.2344,569.0156 Q124.0938,569.1563 123.875,569.1563 Q123.6797,569.1563 123.5547,569.0703 Q123.4297,568.9844 123.375,568.7578 Q123.3516,568.6016 123.2656,568.5156 Q123.1094,568.3516 122.8281,568.2578 Q122.5469,568.1563 122.2656,568.1563 Q121.9141,568.1563 121.6172,568.2969 Q121.3281,568.4375 121.1016,568.75 Q120.875,569.0625 120.875,569.4922 L120.875,569.9531 Q120.875,570.4688 121.2969,570.8125 Q121.7188,571.1563 122.4688,571.1563 Q122.9141,571.1563 123.2266,571.0547 Q123.4063,571 123.6094,570.8203 Q123.7422,570.7188 123.8125,570.6875 Q123.8828,570.6563 123.9688,570.6563 Q124.1328,570.6563 124.25,570.7891 Q124.375,570.9141 124.375,571.0938 Q124.375,571.2656 124.2031,571.4688 Q123.9531,571.7656 123.5547,571.9297 Q123.0313,572.1563 122.3906,572.1563 Q121.6406,572.1563 121.0391,571.8594 Q120.5547,571.625 120.2109,571.1172 Q119.875,570.6094 119.875,570.0078 L119.875,569.4609 Q119.875,568.8359 120.1719,568.2891 Q120.4766,567.7422 121,567.4531 Q121.5313,567.1563 122.125,567.1563 Q122.4844,567.1563 122.7969,567.2813 Q123.1094,567.4063 123.375,567.6563 Z " fill="#000000"/><text fill="#000000" font-family="sans-serif" font-size="7" lengthAdjust="spacing" textLength="15" x="132.625" y="572.2705">Main</text><line style="stroke:#181818;stroke-width:0.25;" x1="60.75" x2="203.25" y1="577.4063" y2="577.4063"/><rect fill="none" height="3" style="stroke:#C82930;stroke-width:0.5;" width="3" x="64.25" y="583.0586"/><text fill="#000000" font-family="sans-serif" font-size="7" lengthAdjust="spacing" text-decoration="underline" textLength="43.5" x="70.25" y="586.6729">Main instance</text><rect fill="none" height="3" style="stroke:#C82930;stroke-width:0.5;" width="3" x="64.25" y="591.8633"/><text fill="#000000" font-family="sans-serif" font-size="7" lengthAdjust="spacing" textLength="102" x="70.25" y="595.4775">ScreenManager screenManager</text><rect fill="none" height="3" style="stroke:#C82930;stroke-width:0.5;" width="3" x="64.25" y="600.668"/><text fill="#000000" font-family="sans-serif" font-size="7" lengthAdjust="spacing" textLength="56.5" x="70.25" y="604.2822">Preferences prefs</text><rect fill="none" height="3" style="stroke:#C82930;stroke-width:0.5;" width="3" x="64.25" y="609.4727"/><text fill="#000000" font-family="sans-serif" font-size="7" lengthAdjust="spacing" textLength="98" x="70.25" y="613.0869">SoundManager soundManager</text><ellipse cx="65.75" cy="619.7773" fill="none" rx="1.5" ry="1.5" style="stroke:#038048;stroke-width:0.5;"/><text fill="#000000" font-family="sans-serif" font-size="7" lengthAdjust="spacing" textLength="92.5" x="70.25" y="621.8916">EntityManager entityManager</text><rect fill="none" height="3" style="stroke:#C82930;stroke-width:0.5;" width="3" x="64.25" y="627.082"/><text fill="#000000" font-family="sans-serif" font-size="7" lengthAdjust="spacing" textLength="56" x="70.25" y="630.6963">SpriteBatch batch</text><rect fill="none" height="3" style="stroke:#C82930;stroke-width:0.5;" width="3" x="64.25" y="635.8867"/><text fill="#000000" font-family="sans-serif" font-size="7" lengthAdjust="spacing" textLength="50" x="70.25" y="639.501">BitmapFont font</text><ellipse cx="65.75" cy="646.1914" fill="none" rx="1.5" ry="1.5" style="stroke:#038048;stroke-width:0.5;"/><text fill="#000000" font-family="sans-serif" font-size="7" lengthAdjust="spacing" textLength="34.5" x="70.25" y="648.3057">int HEIGHT</text><ellipse cx="65.75" cy="654.9961" fill="none" rx="1.5" ry="1.5" style="stroke:#038048;stroke-width:0.5;"/><text fill="#000000" font-family="sans-serif" font-size="7" lengthAdjust="spacing" textLength="31.5" x="70.25" y="657.1104">int WIDTH</text><line style="stroke:#181818;stroke-width:0.25;" x1="60.75" x2="203.25" y1="660.6484" y2="660.6484"/><ellipse cx="65.75" cy="667.8008" fill="#84BE84" rx="1.5" ry="1.5" style="stroke:#038048;stroke-width:0.5;"/><text fill="#000000" font-family="sans-serif" font-size="7" lengthAdjust="spacing" text-decoration="underline" textLength="58.5" x="70.25" y="669.915">Main getInstance()</text><ellipse cx="65.75" cy="676.6055" fill="#84BE84" rx="1.5" ry="1.5" style="stroke:#038048;stroke-width:0.5;"/><text fill="#000000" font-family="sans-serif" font-size="7" lengthAdjust="spacing" textLength="118" x="70.25" y="678.7197">ScreenManager getScreenManager()</text><ellipse cx="65.75" cy="685.4102" fill="#84BE84" rx="1.5" ry="1.5" style="stroke:#038048;stroke-width:0.5;"/><text fill="#000000" font-family="sans-serif" font-size="7" lengthAdjust="spacing" textLength="130.5" x="70.25" y="687.5244">void setScreenManager(ScreenManager)</text><ellipse cx="65.75" cy="694.2148" fill="#84BE84" rx="1.5" ry="1.5" style="stroke:#038048;stroke-width:0.5;"/><text fill="#000000" font-family="sans-serif" font-size="7" lengthAdjust="spacing" textLength="114" x="70.25" y="696.3291">SoundManager getSoundManager()</text><ellipse cx="65.75" cy="703.0195" fill="#84BE84" rx="1.5" ry="1.5" style="stroke:#038048;stroke-width:0.5;"/><text fill="#000000" font-family="sans-serif" font-size="7" lengthAdjust="spacing" textLength="126.5" x="70.25" y="705.1338">void setSoundManager(SoundManager)</text><ellipse cx="65.75" cy="711.8242" fill="#84BE84" rx="1.5" ry="1.5" style="stroke:#038048;stroke-width:0.5;"/><text fill="#000000" font-family="sans-serif" font-size="7" lengthAdjust="spacing" textLength="71.5" x="70.25" y="713.9385">SpriteBatch getBatch()</text><ellipse cx="65.75" cy="720.6289" fill="#84BE84" rx="1.5" ry="1.5" style="stroke:#038048;stroke-width:0.5;"/><text fill="#000000" font-family="sans-serif" font-size="7" lengthAdjust="spacing" textLength="84" x="70.25" y="722.7432">void setBatch(SpriteBatch)</text><ellipse cx="65.75" cy="729.4336" fill="#84BE84" rx="1.5" ry="1.5" style="stroke:#038048;stroke-width:0.5;"/><text fill="#000000" font-family="sans-serif" font-size="7" lengthAdjust="spacing" textLength="67.5" x="70.25" y="731.5479">BitmapFont getFont()</text><ellipse cx="65.75" cy="738.2383" fill="#84BE84" rx="1.5" ry="1.5" style="stroke:#038048;stroke-width:0.5;"/><text fill="#000000" font-family="sans-serif" font-size="7" lengthAdjust="spacing" textLength="80" x="70.25" y="740.3525">void setFont(BitmapFont)</text><ellipse cx="65.75" cy="747.043" fill="#84BE84" rx="1.5" ry="1.5" style="stroke:#038048;stroke-width:0.5;"/><text fill="#000000" font-family="sans-serif" font-size="7" lengthAdjust="spacing" textLength="72" x="70.25" y="749.1572">Preferences getPrefs()</text><ellipse cx="65.75" cy="755.8477" fill="#84BE84" rx="1.5" ry="1.5" style="stroke:#038048;stroke-width:0.5;"/><text fill="#000000" font-family="sans-serif" font-size="7" lengthAdjust="spacing" textLength="84.5" x="70.25" y="757.9619">void setPrefs(Preferences)</text><ellipse cx="65.75" cy="764.6523" fill="#84BE84" rx="1.5" ry="1.5" style="stroke:#038048;stroke-width:0.5;"/><text fill="#000000" font-family="sans-serif" font-size="7" lengthAdjust="spacing" textLength="40" x="70.25" y="766.7666">void create()</text><ellipse cx="65.75" cy="773.457" fill="#84BE84" rx="1.5" ry="1.5" style="stroke:#038048;stroke-width:0.5;"/><text fill="#000000" font-family="sans-serif" font-size="7" lengthAdjust="spacing" textLength="41" x="70.25" y="775.5713">void render()</text><ellipse cx="65.75" cy="782.2617" fill="#84BE84" rx="1.5" ry="1.5" style="stroke:#038048;stroke-width:0.5;"/><text fill="#000000" font-family="sans-serif" font-size="7" lengthAdjust="spacing" textLength="44.5" x="70.25" y="784.376">void dispose()</text></g><!--MD5=[3de1ccafbb2233cb7ab977d18c48deb3]
class com.mygdx.game.game.components.ui.Button--><g id="elem_com.mygdx.game.game.components.ui.Button"><rect codeLine="64" fill="#F1F1F1" height="332.1641" id="com.mygdx.game.game.components.ui.Button" rx="1.25" ry="1.25" style="stroke:#181818;stroke-width:0.25;" width="97" x="254" y="508.6563"/><ellipse cx="290.125" cy="516.6563" fill="#ADD1B2" rx="5.5" ry="5.5" style="stroke:#181818;stroke-width:0.5;"/><path d="M291.125,514.9063 Q291.2266,514.6563 291.3438,514.5313 Q291.4609,514.4063 291.5938,514.4063 Q291.8281,514.4063 291.9766,514.5469 Q292.125,514.6875 292.125,515.0156 L292.125,515.7969 Q292.125,516.125 291.9844,516.2656 Q291.8438,516.4063 291.625,516.4063 Q291.4297,516.4063 291.3047,516.3203 Q291.1797,516.2344 291.125,516.0078 Q291.1016,515.8516 291.0156,515.7656 Q290.8594,515.6016 290.5781,515.5078 Q290.2969,515.4063 290.0156,515.4063 Q289.6641,515.4063 289.3672,515.5469 Q289.0781,515.6875 288.8516,516 Q288.625,516.3125 288.625,516.7422 L288.625,517.2031 Q288.625,517.7188 289.0469,518.0625 Q289.4688,518.4063 290.2188,518.4063 Q290.6641,518.4063 290.9766,518.3047 Q291.1563,518.25 291.3594,518.0703 Q291.4922,517.9688 291.5625,517.9375 Q291.6328,517.9063 291.7188,517.9063 Q291.8828,517.9063 292,518.0391 Q292.125,518.1641 292.125,518.3438 Q292.125,518.5156 291.9531,518.7188 Q291.7031,519.0156 291.3047,519.1797 Q290.7813,519.4063 290.1406,519.4063 Q289.3906,519.4063 288.7891,519.1094 Q288.3047,518.875 287.9609,518.3672 Q287.625,517.8594 287.625,517.2578 L287.625,516.7109 Q287.625,516.0859 287.9219,515.5391 Q288.2266,514.9922 288.75,514.7031 Q289.2813,514.4063 289.875,514.4063 Q290.2344,514.4063 290.5469,514.5313 Q290.8594,514.6563 291.125,514.9063 Z " fill="#000000"/><text fill="#000000" font-family="sans-serif" font-size="7" lengthAdjust="spacing" textLength="20.5" x="300.375" y="519.5205">Button</text><line style="stroke:#181818;stroke-width:0.25;" x1="254.5" x2="350.5" y1="524.6563" y2="524.6563"/><rect fill="none" height="3" style="stroke:#C82930;stroke-width:0.5;" width="3" x="258" y="530.3086"/><text fill="#000000" font-family="sans-serif" font-size="7" lengthAdjust="spacing" textLength="34.5" x="264" y="533.9229">Main game</text><rect fill="none" height="3" style="stroke:#C82930;stroke-width:0.5;" width="3" x="258" y="539.1133"/><text fill="#000000" font-family="sans-serif" font-size="7" lengthAdjust="spacing" textLength="63.5" x="264" y="542.7275">Rectangle rectangle</text><rect fill="none" height="3" style="stroke:#C82930;stroke-width:0.5;" width="3" x="258" y="547.918"/><text fill="#000000" font-family="sans-serif" font-size="7" lengthAdjust="spacing" textLength="18.5" x="264" y="551.5322">float x</text><rect fill="none" height="3" style="stroke:#C82930;stroke-width:0.5;" width="3" x="258" y="556.7227"/><text fill="#000000" font-family="sans-serif" font-size="7" lengthAdjust="spacing" textLength="19" x="264" y="560.3369">float y</text><rect fill="none" height="3" style="stroke:#C82930;stroke-width:0.5;" width="3" x="258" y="565.5273"/><text fill="#000000" font-family="sans-serif" font-size="7" lengthAdjust="spacing" textLength="31.5" x="264" y="569.1416">float width</text><rect fill="none" height="3" style="stroke:#C82930;stroke-width:0.5;" width="3" x="258" y="574.332"/><text fill="#000000" font-family="sans-serif" font-size="7" lengthAdjust="spacing" textLength="35" x="264" y="577.9463">float height</text><rect fill="none" height="3" style="stroke:#C82930;stroke-width:0.5;" width="3" x="258" y="583.1367"/><text fill="#000000" font-family="sans-serif" font-size="7" lengthAdjust="spacing" textLength="38" x="264" y="586.751">String name</text><rect fill="none" height="3" style="stroke:#C82930;stroke-width:0.5;" width="3" x="258" y="591.9414"/><text fill="#000000" font-family="sans-serif" font-size="7" lengthAdjust="spacing" textLength="46" x="264" y="595.5557">String imgPath</text><rect fill="none" height="3" style="stroke:#C82930;stroke-width:0.5;" width="3" x="258" y="600.7461"/><text fill="#000000" font-family="sans-serif" font-size="7" lengthAdjust="spacing" textLength="47.5" x="264" y="604.3604">Texture texture</text><rect fill="none" height="3" style="stroke:#C82930;stroke-width:0.5;" width="3" x="258" y="609.5508"/><text fill="#000000" font-family="sans-serif" font-size="7" lengthAdjust="spacing" textLength="56" x="264" y="613.165">SpriteBatch batch</text><rect fill="none" height="3" style="stroke:#C82930;stroke-width:0.5;" width="3" x="258" y="618.3555"/><text fill="#000000" font-family="sans-serif" font-size="7" lengthAdjust="spacing" textLength="51.5" x="264" y="621.9697">boolean visibility</text><rect fill="none" height="3" style="stroke:#C82930;stroke-width:0.5;" width="3" x="258" y="627.1602"/><text fill="#000000" font-family="sans-serif" font-size="7" lengthAdjust="spacing" textLength="38" x="264" y="630.7744">Sprite sprite</text><rect fill="none" height="3" style="stroke:#C82930;stroke-width:0.5;" width="3" x="258" y="635.9648"/><text fill="#000000" font-family="sans-serif" font-size="7" lengthAdjust="spacing" textLength="46" x="264" y="639.5791">boolean active</text><line style="stroke:#181818;stroke-width:0.25;" x1="254.5" x2="350.5" y1="643.1172" y2="643.1172"/><ellipse cx="259.5" cy="650.2695" fill="#84BE84" rx="1.5" ry="1.5" style="stroke:#038048;stroke-width:0.5;"/><text fill="#000000" font-family="sans-serif" font-size="7" lengthAdjust="spacing" textLength="65" x="264" y="652.3838">Texture getTexture()</text><ellipse cx="259.5" cy="659.0742" fill="#84BE84" rx="1.5" ry="1.5" style="stroke:#038048;stroke-width:0.5;"/><text fill="#000000" font-family="sans-serif" font-size="7" lengthAdjust="spacing" textLength="77.5" x="264" y="661.1885">void setTexture(Texture)</text><ellipse cx="259.5" cy="667.8789" fill="#84BE84" rx="1.5" ry="1.5" style="stroke:#038048;stroke-width:0.5;"/><text fill="#000000" font-family="sans-serif" font-size="7" lengthAdjust="spacing" textLength="71.5" x="264" y="669.9932">SpriteBatch getBatch()</text><ellipse cx="259.5" cy="676.6836" fill="#84BE84" rx="1.5" ry="1.5" style="stroke:#038048;stroke-width:0.5;"/><text fill="#000000" font-family="sans-serif" font-size="7" lengthAdjust="spacing" textLength="84" x="264" y="678.7979">void setBatch(SpriteBatch)</text><ellipse cx="259.5" cy="685.4883" fill="#84BE84" rx="1.5" ry="1.5" style="stroke:#038048;stroke-width:0.5;"/><text fill="#000000" font-family="sans-serif" font-size="7" lengthAdjust="spacing" textLength="54" x="264" y="687.6025">Sprite getSprite()</text><ellipse cx="259.5" cy="694.293" fill="#84BE84" rx="1.5" ry="1.5" style="stroke:#038048;stroke-width:0.5;"/><text fill="#000000" font-family="sans-serif" font-size="7" lengthAdjust="spacing" textLength="66.5" x="264" y="696.4072">void setSprite(Sprite)</text><ellipse cx="259.5" cy="703.0977" fill="#84BE84" rx="1.5" ry="1.5" style="stroke:#038048;stroke-width:0.5;"/><text fill="#000000" font-family="sans-serif" font-size="7" lengthAdjust="spacing" textLength="67.5" x="264" y="705.2119">boolean getVisibility()</text><ellipse cx="259.5" cy="711.9023" fill="#84BE84" rx="1.5" ry="1.5" style="stroke:#038048;stroke-width:0.5;"/><text fill="#000000" font-family="sans-serif" font-size="7" lengthAdjust="spacing" textLength="80" x="264" y="714.0166">void setVisibility(boolean)</text><ellipse cx="259.5" cy="720.707" fill="#84BE84" rx="1.5" ry="1.5" style="stroke:#038048;stroke-width:0.5;"/><text fill="#000000" font-family="sans-serif" font-size="7" lengthAdjust="spacing" textLength="56.5" x="264" y="722.8213">boolean isActive()</text><ellipse cx="259.5" cy="729.5117" fill="#84BE84" rx="1.5" ry="1.5" style="stroke:#038048;stroke-width:0.5;"/><text fill="#000000" font-family="sans-serif" font-size="7" lengthAdjust="spacing" textLength="74" x="264" y="731.626">void setActive(boolean)</text><ellipse cx="259.5" cy="738.3164" fill="#84BE84" rx="1.5" ry="1.5" style="stroke:#038048;stroke-width:0.5;"/><text fill="#000000" font-family="sans-serif" font-size="7" lengthAdjust="spacing" textLength="84" x="264" y="740.4307">void setButtonColor(Color)</text><ellipse cx="259.5" cy="747.1211" fill="#84BE84" rx="1.5" ry="1.5" style="stroke:#038048;stroke-width:0.5;"/><text fill="#000000" font-family="sans-serif" font-size="7" lengthAdjust="spacing" textLength="34.5" x="264" y="749.2354">float getX()</text><ellipse cx="259.5" cy="755.9258" fill="#84BE84" rx="1.5" ry="1.5" style="stroke:#038048;stroke-width:0.5;"/><text fill="#000000" font-family="sans-serif" font-size="7" lengthAdjust="spacing" textLength="47" x="264" y="758.04">void setX(float)</text><ellipse cx="259.5" cy="764.7305" fill="#84BE84" rx="1.5" ry="1.5" style="stroke:#038048;stroke-width:0.5;"/><text fill="#000000" font-family="sans-serif" font-size="7" lengthAdjust="spacing" textLength="35" x="264" y="766.8447">float getY()</text><ellipse cx="259.5" cy="773.5352" fill="#84BE84" rx="1.5" ry="1.5" style="stroke:#038048;stroke-width:0.5;"/><text fill="#000000" font-family="sans-serif" font-size="7" lengthAdjust="spacing" textLength="47.5" x="264" y="775.6494">void setY(float)</text><ellipse cx="259.5" cy="782.3398" fill="#84BE84" rx="1.5" ry="1.5" style="stroke:#038048;stroke-width:0.5;"/><text fill="#000000" font-family="sans-serif" font-size="7" lengthAdjust="spacing" textLength="48.5" x="264" y="784.4541">float getWidth()</text><ellipse cx="259.5" cy="791.1445" fill="#84BE84" rx="1.5" ry="1.5" style="stroke:#038048;stroke-width:0.5;"/><text fill="#000000" font-family="sans-serif" font-size="7" lengthAdjust="spacing" textLength="61" x="264" y="793.2588">void setWidth(float)</text><ellipse cx="259.5" cy="799.9492" fill="#84BE84" rx="1.5" ry="1.5" style="stroke:#038048;stroke-width:0.5;"/><text fill="#000000" font-family="sans-serif" font-size="7" lengthAdjust="spacing" textLength="50.5" x="264" y="802.0635">float getHeight()</text><ellipse cx="259.5" cy="808.7539" fill="#84BE84" rx="1.5" ry="1.5" style="stroke:#038048;stroke-width:0.5;"/><text fill="#000000" font-family="sans-serif" font-size="7" lengthAdjust="spacing" textLength="63" x="264" y="810.8682">void setHeight(float)</text><ellipse cx="259.5" cy="817.5586" fill="#84BE84" rx="1.5" ry="1.5" style="stroke:#038048;stroke-width:0.5;"/><text fill="#000000" font-family="sans-serif" font-size="7" lengthAdjust="spacing" textLength="53.5" x="264" y="819.6729">String getName()</text><ellipse cx="259.5" cy="826.3633" fill="#84BE84" rx="1.5" ry="1.5" style="stroke:#038048;stroke-width:0.5;"/><text fill="#000000" font-family="sans-serif" font-size="7" lengthAdjust="spacing" textLength="66" x="264" y="828.4775">void setName(String)</text><ellipse cx="259.5" cy="835.168" fill="#84BE84" rx="1.5" ry="1.5" style="stroke:#038048;stroke-width:0.5;"/><text fill="#000000" font-family="sans-serif" font-size="7" lengthAdjust="spacing" textLength="69.5" x="264" y="837.2822">Rectangle getBound()</text></g><!--MD5=[e28b97f13ebe0e0d0e1b4a0418369900]
class com.mygdx.game.engine.input.CustomInputProcessor--><g id="elem_com.mygdx.game.engine.input.CustomInputProcessor"><rect codeLine="102" fill="#F1F1F1" height="112.0469" id="com.mygdx.game.engine.input.CustomInputProcessor" rx="1.25" ry="1.25" style="stroke:#181818;stroke-width:0.25;" width="117" x="401" y="618.6563"/><ellipse cx="421.775" cy="626.6563" fill="#ADD1B2" rx="5.5" ry="5.5" style="stroke:#181818;stroke-width:0.5;"/><path d="M422.775,624.9063 Q422.8766,624.6563 422.9938,624.5313 Q423.1109,624.4063 423.2438,624.4063 Q423.4781,624.4063 423.6266,624.5469 Q423.775,624.6875 423.775,625.0156 L423.775,625.7969 Q423.775,626.125 423.6344,626.2656 Q423.4938,626.4063 423.275,626.4063 Q423.0797,626.4063 422.9547,626.3203 Q422.8297,626.2344 422.775,626.0078 Q422.7516,625.8516 422.6656,625.7656 Q422.5094,625.6016 422.2281,625.5078 Q421.9469,625.4063 421.6656,625.4063 Q421.3141,625.4063 421.0172,625.5469 Q420.7281,625.6875 420.5016,626 Q420.275,626.3125 420.275,626.7422 L420.275,627.2031 Q420.275,627.7188 420.6969,628.0625 Q421.1188,628.4063 421.8688,628.4063 Q422.3141,628.4063 422.6266,628.3047 Q422.8063,628.25 423.0094,628.0703 Q423.1422,627.9688 423.2125,627.9375 Q423.2828,627.9063 423.3688,627.9063 Q423.5328,627.9063 423.65,628.0391 Q423.775,628.1641 423.775,628.3438 Q423.775,628.5156 423.6031,628.7188 Q423.3531,629.0156 422.9547,629.1797 Q422.4313,629.4063 421.7906,629.4063 Q421.0406,629.4063 420.4391,629.1094 Q419.9547,628.875 419.6109,628.3672 Q419.275,627.8594 419.275,627.2578 L419.275,626.7109 Q419.275,626.0859 419.5719,625.5391 Q419.8766,624.9922 420.4,624.7031 Q420.9313,624.4063 421.525,624.4063 Q421.8844,624.4063 422.1969,624.5313 Q422.5094,624.6563 422.775,624.9063 Z " fill="#000000"/><text fill="#000000" font-family="sans-serif" font-size="7" lengthAdjust="spacing" textLength="71.5" x="431.725" y="629.5205">CustomInputProcessor</text><line style="stroke:#181818;stroke-width:0.25;" x1="401.5" x2="517.5" y1="634.6563" y2="634.6563"/><line style="stroke:#181818;stroke-width:0.25;" x1="401.5" x2="517.5" y1="638.6563" y2="638.6563"/><ellipse cx="406.5" cy="645.8086" fill="#84BE84" rx="1.5" ry="1.5" style="stroke:#038048;stroke-width:0.5;"/><text fill="#000000" font-family="sans-serif" font-size="7" lengthAdjust="spacing" textLength="84" x="411" y="647.9229">boolean mouseClicked(int)</text><ellipse cx="406.5" cy="654.6133" fill="#84BE84" rx="1.5" ry="1.5" style="stroke:#038048;stroke-width:0.5;"/><text fill="#000000" font-family="sans-serif" font-size="7" lengthAdjust="spacing" textLength="68.5" x="411" y="656.7275">boolean keyDown(int)</text><ellipse cx="406.5" cy="663.418" fill="#84BE84" rx="1.5" ry="1.5" style="stroke:#038048;stroke-width:0.5;"/><text fill="#000000" font-family="sans-serif" font-size="7" lengthAdjust="spacing" textLength="59.5" x="411" y="665.5322">boolean keyUp(int)</text><ellipse cx="406.5" cy="672.2227" fill="#84BE84" rx="1.5" ry="1.5" style="stroke:#038048;stroke-width:0.5;"/><text fill="#000000" font-family="sans-serif" font-size="7" lengthAdjust="spacing" textLength="77.5" x="411" y="674.3369">boolean keyTyped(char)</text><ellipse cx="406.5" cy="681.0273" fill="#84BE84" rx="1.5" ry="1.5" style="stroke:#038048;stroke-width:0.5;"/><text fill="#000000" font-family="sans-serif" font-size="7" lengthAdjust="spacing" textLength="103.5" x="411" y="683.1416">boolean touchDown(int,int,int,int)</text><ellipse cx="406.5" cy="689.832" fill="#84BE84" rx="1.5" ry="1.5" style="stroke:#038048;stroke-width:0.5;"/><text fill="#000000" font-family="sans-serif" font-size="7" lengthAdjust="spacing" textLength="94.5" x="411" y="691.9463">boolean touchUp(int,int,int,int)</text><ellipse cx="406.5" cy="698.6367" fill="#84BE84" rx="1.5" ry="1.5" style="stroke:#038048;stroke-width:0.5;"/><text fill="#000000" font-family="sans-serif" font-size="7" lengthAdjust="spacing" textLength="104" x="411" y="700.751">boolean touchDragged(int,int,int)</text><ellipse cx="406.5" cy="707.4414" fill="#84BE84" rx="1.5" ry="1.5" style="stroke:#038048;stroke-width:0.5;"/><text fill="#000000" font-family="sans-serif" font-size="7" lengthAdjust="spacing" textLength="91.5" x="411" y="709.5557">boolean mouseMoved(int,int)</text><ellipse cx="406.5" cy="716.2461" fill="#84BE84" rx="1.5" ry="1.5" style="stroke:#038048;stroke-width:0.5;"/><text fill="#000000" font-family="sans-serif" font-size="7" lengthAdjust="spacing" textLength="86" x="411" y="718.3604">boolean scrolled(float,float)</text><ellipse cx="406.5" cy="725.0508" fill="#84BE84" rx="1.5" ry="1.5" style="stroke:#038048;stroke-width:0.5;"/><text fill="#000000" font-family="sans-serif" font-size="7" lengthAdjust="spacing" textLength="92" x="411" y="727.165">boolean mouseHoverOver(T)</text></g><!--MD5=[ff64c401884275c5ddca55cb25081834]
reverse link com.mygdx.game.game.screens.menu.MainMenuScreen to com.mygdx.game.engine.input.CustomInputProcessor--><g id="link_com.mygdx.game.game.screens.menu.MainMenuScreen_com.mygdx.game.engine.input.CustomInputProcessor"><path codeLine="115" d="M367.125,263.1863 C367.125,263.1863 367.125,674.6563 367.125,674.6563 C367.125,674.6563 382.665,674.6563 401,674.6563 " fill="none" id="com.mygdx.game.game.screens.menu.MainMenuScreen-backto-com.mygdx.game.engine.input.CustomInputProcessor" style="stroke:#181818;stroke-width:0.5;"/><polygon fill="#181818" points="367.125,256.6863,365.125,259.6863,367.125,262.6863,369.125,259.6863,367.125,256.6863" style="stroke:#181818;stroke-width:0.5;"/><text fill="#000000" font-family="sans-serif" font-size="6.5" lengthAdjust="spacing" textLength="10.5" x="356.125" y="484.1038">has</text></g><!--MD5=[79fea672d4ec28635ffdb7654de028fc]
reverse link com.mygdx.game.game.screens.menu.MainMenuScreen to com.mygdx.game.engine.lifecycle.Main--><g id="link_com.mygdx.game.game.screens.menu.MainMenuScreen_com.mygdx.game.engine.lifecycle.Main"><path codeLine="116" d="M237.875,263.1863 C237.875,263.1863 237.875,674.6563 237.875,674.6563 C237.875,674.6563 222.675,674.6563 203.795,674.6563 " fill="none" id="com.mygdx.game.game.screens.menu.MainMenuScreen-backto-com.mygdx.game.engine.lifecycle.Main" style="stroke:#181818;stroke-width:0.5;"/><polygon fill="#181818" points="237.875,256.6863,235.875,259.6863,237.875,262.6863,239.875,259.6863,237.875,256.6863" style="stroke:#181818;stroke-width:0.5;"/><text fill="#000000" font-family="sans-serif" font-size="6.5" lengthAdjust="spacing" textLength="10.5" x="226.875" y="484.2088">has</text></g><!--MD5=[ea7619e7f236d6f370568752e8de92b8]
reverse link com.mygdx.game.game.screens.menu.MainMenuScreen to com.mygdx.game.game.components.ui.Button--><g id="link_com.mygdx.game.game.screens.menu.MainMenuScreen_com.mygdx.game.game.components.ui.Button"><path codeLine="117" d="M302.5,263.1863 C302.5,263.1863 302.5,508.5513 302.5,508.5513 " fill="none" id="com.mygdx.game.game.screens.menu.MainMenuScreen-backto-com.mygdx.game.game.components.ui.Button" style="stroke:#181818;stroke-width:0.5;"/><polygon fill="#181818" points="302.5,256.6863,300.5,259.6863,302.5,262.6863,304.5,259.6863,302.5,256.6863" style="stroke:#181818;stroke-width:0.5;"/><text fill="#000000" font-family="sans-serif" font-size="6.5" lengthAdjust="spacing" textLength="28.5" x="273.5" y="384.1188">has many</text></g><!--MD5=[7e2256b236da440c898739d029a8db4d]
@startuml
skinparam linetype polyline
skinparam linetype ortho

skinparam nodesep 100
skinparam ranksep 100

skinparam titleBorderRoundCorner 15
skinparam titleBorderThickness 2
skinparam titleBorderColor red
skinparam titleBackgroundColor Aqua-CadetBlue
skinparam TitleFontSize 40

title Appendix J - MainMenuScreen Class Composition Relations

class com.mygdx.game.game.screens.menu.MainMenuScreen {
- CustomInputProcessor inputProcessor
- Main game
- OrthographicCamera camera
- ArrayList<Button> buttons
- SpriteBatch batch
- Texture texture
- ArrayList<String> buttonImagePath
- boolean soundPlayed
- ScoreboardScreen scoreboardScreen
+ void setInputProcessor(CustomInputProcessor)
+ void setButtons(ArrayList<Button>)
+ void show()
+ void render(float)
+ void resize(int,int)
+ void play()
+ void quit()
+ void pause()
+ void resume()
+ void hide()
+ void dispose()
}

class com.mygdx.game.engine.lifecycle.Main {
- {static} Main instance
- ScreenManager screenManager
- Preferences prefs
- SoundManager soundManager
+ EntityManager entityManager
- SpriteBatch batch
- BitmapFont font
+ int HEIGHT
+ int WIDTH
+ {static} Main getInstance()
+ ScreenManager getScreenManager()
+ void setScreenManager(ScreenManager)
+ SoundManager getSoundManager()
+ void setSoundManager(SoundManager)
+ SpriteBatch getBatch()
+ void setBatch(SpriteBatch)
+ BitmapFont getFont()
+ void setFont(BitmapFont)
+ Preferences getPrefs()
+ void setPrefs(Preferences)
+ void create()
+ void render()
+ void dispose()
}

class com.mygdx.game.game.components.ui.Button {
- Main game
- Rectangle rectangle
- float x
- float y
- float width
- float height
- String name
- String imgPath
- Texture texture
- SpriteBatch batch
- boolean visibility
- Sprite sprite
- boolean active
+ Texture getTexture()
+ void setTexture(Texture)
+ SpriteBatch getBatch()
+ void setBatch(SpriteBatch)
+ Sprite getSprite()
+ void setSprite(Sprite)
+ boolean getVisibility()
+ void setVisibility(boolean)
+ boolean isActive()
+ void setActive(boolean)
+ void setButtonColor(Color)
+ float getX()
+ void setX(float)
+ float getY()
+ void setY(float)
+ float getWidth()
+ void setWidth(float)
+ float getHeight()
+ void setHeight(float)
+ String getName()
+ void setName(String)
+ Rectangle getBound()
}

class com.mygdx.game.engine.input.CustomInputProcessor {
+ boolean mouseClicked(int)
+ boolean keyDown(int)
+ boolean keyUp(int)
+ boolean keyTyped(char)
+ boolean touchDown(int,int,int,int)
+ boolean touchUp(int,int,int,int)
+ boolean touchDragged(int,int,int)
+ boolean mouseMoved(int,int)
+ boolean scrolled(float,float)
+ boolean mouseHoverOver(T)
}

com.mygdx.game.game.screens.menu.MainMenuScreen *- - - - - - com.mygdx.game.engine.input.CustomInputProcessor :has
com.mygdx.game.game.screens.menu.MainMenuScreen *- - - - - - com.mygdx.game.engine.lifecycle.Main :has
com.mygdx.game.game.screens.menu.MainMenuScreen *- - - - - - com.mygdx.game.game.components.ui.Button :has many
@enduml

PlantUML version 1.2022.12(Mon Oct 24 02:12:26 SGT 2022)
(GPL source distribution)
Java Runtime: OpenJDK Runtime Environment
JVM: OpenJDK 64-Bit Server VM
Default Encoding: Cp1252
Language: en
Country: SG
--></g></svg>