<?xml version="1.0" encoding="UTF-8" standalone="no"?><svg xmlns="http://www.w3.org/2000/svg" xmlns:xlink="http://www.w3.org/1999/xlink" contentStyleType="text/css" height="1881px" preserveAspectRatio="none" style="width:1071px;height:1881px;background:#FFFFFF;" version="1.1" viewBox="0 0 1071 1881" width="1071px" zoomAndPan="magnify"><defs><linearGradient id="g1hhgyevh5znp50" x1="50%" x2="50%" y1="0%" y2="100%"><stop offset="0%" stop-color="#00FFFF"/><stop offset="100%" stop-color="#5F9EA0"/></linearGradient></defs><g><rect fill="url(#g1hhgyevh5znp50)" height="60.3125" id="_title" rx="7.5" ry="7.5" style="stroke:#FF0000;stroke-width:2.0;" width="1053" x="5" y="5"/><text fill="#000000" font-family="sans-serif" font-size="40" font-weight="bold" lengthAdjust="spacing" textLength="1043" x="10" y="51.5234">Appendix P - UFO / Player Class Composition Relations</text><!--MD5=[4c3f40b0b275a01cd7052de0c676390e]
cluster com.mygdx.game.game.components.game.enemy--><g id="cluster_com.mygdx.game.game.components.game.enemy"><path d="M69.5,279.8125 L415.5,279.8125 A3.75,3.75 0 0 1 418,282.3125 L425,303.4219 L425.5,303.4219 A2.5,2.5 0 0 1 428,305.9219 L428,800.3125 A2.5,2.5 0 0 1 425.5,802.8125 L69.5,802.8125 A2.5,2.5 0 0 1 67,800.3125 L67,282.3125 A2.5,2.5 0 0 1 69.5,279.8125 " fill="none" style="stroke:#000000;stroke-width:1.5;"/><line style="stroke:#000000;stroke-width:1.5;" x1="67" x2="425" y1="303.4219" y2="303.4219"/><text fill="#000000" font-family="sans-serif" font-size="14" font-weight="bold" lengthAdjust="spacing" textLength="345" x="71" y="296.3457">com.mygdx.game.game.components.game.enemy</text></g><!--MD5=[db2e1f00a229089377349fbd41189772]
cluster com.mygdx.game.game.components.game--><g id="cluster_com.mygdx.game.game.components.game"><path d="M143.5,1457.3125 L439.5,1457.3125 A3.75,3.75 0 0 1 442,1459.8125 L449,1480.9219 L449.5,1480.9219 A2.5,2.5 0 0 1 452,1483.4219 L452,1871.8125 A2.5,2.5 0 0 1 449.5,1874.3125 L143.5,1874.3125 A2.5,2.5 0 0 1 141,1871.8125 L141,1459.8125 A2.5,2.5 0 0 1 143.5,1457.3125 " fill="none" style="stroke:#000000;stroke-width:1.5;"/><line style="stroke:#000000;stroke-width:1.5;" x1="141" x2="449" y1="1480.9219" y2="1480.9219"/><text fill="#000000" font-family="sans-serif" font-size="14" font-weight="bold" lengthAdjust="spacing" textLength="295" x="145" y="1473.8457">com.mygdx.game.game.components.game</text></g><!--MD5=[6500413b238a1e9929f5971a2190bf30]
cluster com.mygdx.game.game.components.game.player--><g id="cluster_com.mygdx.game.game.components.game.player"><path d="M495.5,77.3125 L838.5,77.3125 A3.75,3.75 0 0 1 841,79.8125 L848,100.9219 L1006.5,100.9219 A2.5,2.5 0 0 1 1009,103.4219 L1009,1871.8125 A2.5,2.5 0 0 1 1006.5,1874.3125 L495.5,1874.3125 A2.5,2.5 0 0 1 493,1871.8125 L493,79.8125 A2.5,2.5 0 0 1 495.5,77.3125 " fill="none" style="stroke:#000000;stroke-width:1.5;"/><line style="stroke:#000000;stroke-width:1.5;" x1="493" x2="848" y1="100.9219" y2="100.9219"/><text fill="#000000" font-family="sans-serif" font-size="14" font-weight="bold" lengthAdjust="spacing" textLength="342" x="497" y="93.8457">com.mygdx.game.game.components.game.player</text></g><!--MD5=[139e9ab045344ebd7ec2247c1cc08e21]
class com.mygdx.game.game.components.game.enemy.UFO--><g id="elem_com.mygdx.game.game.components.game.enemy.UFO"><rect codeLine="15" fill="#F1F1F1" height="470.625" id="com.mygdx.game.game.components.game.enemy.UFO" rx="2.5" ry="2.5" style="stroke:#181818;stroke-width:0.5;" width="324" x="85" y="315.8125"/><ellipse cx="228.25" cy="331.8125" fill="#ADD1B2" rx="11" ry="11" style="stroke:#181818;stroke-width:1.0;"/><path d="M230.25,328.3125 Q230.4531,327.8125 230.6875,327.5625 Q230.9219,327.3125 231.1875,327.3125 Q231.6563,327.3125 231.9531,327.5938 Q232.25,327.875 232.25,328.5313 L232.25,330.0938 Q232.25,330.75 231.9688,331.0313 Q231.6875,331.3125 231.25,331.3125 Q230.8594,331.3125 230.6094,331.1406 Q230.3594,330.9688 230.25,330.5156 Q230.2031,330.2031 230.0313,330.0313 Q229.7188,329.7031 229.1563,329.5156 Q228.5938,329.3125 228.0313,329.3125 Q227.3281,329.3125 226.7344,329.5938 Q226.1563,329.875 225.7031,330.5 Q225.25,331.125 225.25,331.9844 L225.25,332.9063 Q225.25,333.9375 226.0938,334.625 Q226.9375,335.3125 228.4375,335.3125 Q229.3281,335.3125 229.9531,335.1094 Q230.3125,335 230.7188,334.6406 Q230.9844,334.4375 231.125,334.375 Q231.2656,334.3125 231.4375,334.3125 Q231.7656,334.3125 232,334.5781 Q232.25,334.8281 232.25,335.1875 Q232.25,335.5313 231.9063,335.9375 Q231.4063,336.5313 230.6094,336.8594 Q229.5625,337.3125 228.2813,337.3125 Q226.7813,337.3125 225.5781,336.7188 Q224.6094,336.25 223.9219,335.2344 Q223.25,334.2188 223.25,333.0156 L223.25,331.9219 Q223.25,330.6719 223.8438,329.5781 Q224.4531,328.4844 225.5,327.9063 Q226.5625,327.3125 227.75,327.3125 Q228.4688,327.3125 229.0938,327.5625 Q229.7188,327.8125 230.25,328.3125 Z " fill="#000000"/><text fill="#000000" font-family="sans-serif" font-size="14" lengthAdjust="spacing" textLength="29" x="248.75" y="337.541">UFO</text><line style="stroke:#181818;stroke-width:0.5;" x1="86" x2="408" y1="347.8125" y2="347.8125"/><rect fill="none" height="6" style="stroke:#C82930;stroke-width:1.0;" width="6" x="93" y="359.1172"/><text fill="#000000" font-family="sans-serif" font-size="14" lengthAdjust="spacing" textLength="92" x="105" y="366.3457">String imgPath</text><rect fill="none" height="6" style="stroke:#C82930;stroke-width:1.0;" width="6" x="93" y="376.7266"/><text fill="#000000" font-family="sans-serif" font-size="14" lengthAdjust="spacing" textLength="57" x="105" y="383.9551">String dir</text><rect fill="none" height="6" style="stroke:#C82930;stroke-width:1.0;" width="6" x="93" y="394.3359"/><text fill="#000000" font-family="sans-serif" font-size="14" lengthAdjust="spacing" textLength="70" x="105" y="401.5645">float speed</text><rect fill="none" height="6" style="stroke:#C82930;stroke-width:1.0;" width="6" x="93" y="411.9453"/><text fill="#000000" font-family="sans-serif" font-size="14" lengthAdjust="spacing" textLength="95" x="105" y="419.1738">Texture texture</text><rect fill="none" height="6" style="stroke:#C82930;stroke-width:1.0;" width="6" x="93" y="429.5547"/><text fill="#000000" font-family="sans-serif" font-size="14" lengthAdjust="spacing" textLength="263" x="105" y="436.7832">ArrayList&lt;CollidableEntity&lt;Laser&gt;&gt; lasers</text><rect fill="none" height="6" style="stroke:#C82930;stroke-width:1.0;" width="6" x="93" y="447.1641"/><text fill="#000000" font-family="sans-serif" font-size="14" lengthAdjust="spacing" textLength="127" x="105" y="454.3926">Rectangle rectangle</text><rect fill="none" height="6" style="stroke:#C82930;stroke-width:1.0;" width="6" x="93" y="464.7734"/><text fill="#000000" font-family="sans-serif" font-size="14" lengthAdjust="spacing" textLength="58" x="105" y="472.002">int health</text><rect fill="none" height="6" style="stroke:#C82930;stroke-width:1.0;" width="6" x="93" y="482.3828"/><text fill="#000000" font-family="sans-serif" font-size="14" lengthAdjust="spacing" textLength="113" x="105" y="489.6113">long lastShotTime</text><rect fill="none" height="6" style="stroke:#C82930;stroke-width:1.0;" width="6" x="93" y="499.9922"/><text fill="#000000" font-family="sans-serif" font-size="14" lengthAdjust="spacing" textLength="94" x="105" y="507.2207">long shotDelay</text><line style="stroke:#181818;stroke-width:0.5;" x1="86" x2="408" y1="514.2969" y2="514.2969"/><ellipse cx="96" cy="528.6016" fill="#84BE84" rx="3" ry="3" style="stroke:#038048;stroke-width:1.0;"/><text fill="#000000" font-family="sans-serif" font-size="14" lengthAdjust="spacing" textLength="102" x="105" y="532.8301">float getSpeed()</text><ellipse cx="96" cy="546.2109" fill="#84BE84" rx="3" ry="3" style="stroke:#038048;stroke-width:1.0;"/><text fill="#000000" font-family="sans-serif" font-size="14" lengthAdjust="spacing" textLength="127" x="105" y="550.4395">void setSpeed(float)</text><ellipse cx="96" cy="563.8203" fill="#84BE84" rx="3" ry="3" style="stroke:#038048;stroke-width:1.0;"/><text fill="#000000" font-family="sans-serif" font-size="14" lengthAdjust="spacing" textLength="130" x="105" y="568.0488">Texture getTexture()</text><ellipse cx="96" cy="581.4297" fill="#84BE84" rx="3" ry="3" style="stroke:#038048;stroke-width:1.0;"/><text fill="#000000" font-family="sans-serif" font-size="14" lengthAdjust="spacing" textLength="155" x="105" y="585.6582">void setTexture(Texture)</text><ellipse cx="96" cy="599.0391" fill="#84BE84" rx="3" ry="3" style="stroke:#038048;stroke-width:1.0;"/><text fill="#000000" font-family="sans-serif" font-size="14" lengthAdjust="spacing" textLength="89" x="105" y="603.2676">int getHealth()</text><ellipse cx="96" cy="616.6484" fill="#84BE84" rx="3" ry="3" style="stroke:#038048;stroke-width:1.0;"/><text fill="#000000" font-family="sans-serif" font-size="14" lengthAdjust="spacing" textLength="114" x="105" y="620.877">void setHealth(int)</text><ellipse cx="96" cy="634.2578" fill="#84BE84" rx="3" ry="3" style="stroke:#038048;stroke-width:1.0;"/><text fill="#000000" font-family="sans-serif" font-size="14" lengthAdjust="spacing" textLength="238" x="105" y="638.4863">void moveUFO(CollidableEntity,int,int)</text><ellipse cx="96" cy="651.8672" fill="#84BE84" rx="3" ry="3" style="stroke:#038048;stroke-width:1.0;"/><text fill="#000000" font-family="sans-serif" font-size="14" lengthAdjust="spacing" textLength="195" x="105" y="656.0957">void moveLeft(CollidableEntity)</text><ellipse cx="96" cy="669.4766" fill="#84BE84" rx="3" ry="3" style="stroke:#038048;stroke-width:1.0;"/><text fill="#000000" font-family="sans-serif" font-size="14" lengthAdjust="spacing" textLength="204" x="105" y="673.7051">void moveRight(CollidableEntity)</text><ellipse cx="96" cy="687.0859" fill="#84BE84" rx="3" ry="3" style="stroke:#038048;stroke-width:1.0;"/><text fill="#000000" font-family="sans-serif" font-size="14" lengthAdjust="spacing" textLength="206" x="105" y="691.3145">void moveDown(CollidableEntity)</text><ellipse cx="96" cy="704.6953" fill="#84BE84" rx="3" ry="3" style="stroke:#038048;stroke-width:1.0;"/><text fill="#000000" font-family="sans-serif" font-size="14" lengthAdjust="spacing" textLength="245" x="105" y="708.9238">long fireWeapon(CollidableEntity,Main)</text><ellipse cx="96" cy="722.3047" fill="#84BE84" rx="3" ry="3" style="stroke:#038048;stroke-width:1.0;"/><text fill="#000000" font-family="sans-serif" font-size="14" lengthAdjust="spacing" textLength="286" x="105" y="726.5332">void dropAsteroid(CollidableEntity&lt;Asteroid&gt;)</text><ellipse cx="96" cy="739.9141" fill="#84BE84" rx="3" ry="3" style="stroke:#038048;stroke-width:1.0;"/><text fill="#000000" font-family="sans-serif" font-size="14" lengthAdjust="spacing" textLength="262" x="105" y="744.1426">void dropPlanet(CollidableEntity&lt;Planet&gt;)</text><ellipse cx="96" cy="757.5234" fill="#84BE84" rx="3" ry="3" style="stroke:#038048;stroke-width:1.0;"/><text fill="#000000" font-family="sans-serif" font-size="14" lengthAdjust="spacing" textLength="259" x="105" y="761.752">void moveLasers(CollidableEntity&lt;UFO&gt;)</text><ellipse cx="96" cy="775.1328" fill="#84BE84" rx="3" ry="3" style="stroke:#038048;stroke-width:1.0;"/><text fill="#000000" font-family="sans-serif" font-size="14" lengthAdjust="spacing" textLength="298" x="105" y="779.3613">ArrayList&lt;CollidableEntity&lt;Laser&gt;&gt; getLasers()</text></g><!--MD5=[9c946a4b768b3743f0d5531ed5607df7]
class com.mygdx.game.game.components.game.Laser--><g id="elem_com.mygdx.game.game.components.game.Laser"><rect codeLine="42" fill="#F1F1F1" height="364.9688" id="com.mygdx.game.game.components.game.Laser" rx="2.5" ry="2.5" style="stroke:#181818;stroke-width:0.5;" width="194" x="200" y="1493.3125"/><ellipse cx="274.75" cy="1509.3125" fill="#ADD1B2" rx="11" ry="11" style="stroke:#181818;stroke-width:1.0;"/><path d="M276.75,1505.8125 Q276.9531,1505.3125 277.1875,1505.0625 Q277.4219,1504.8125 277.6875,1504.8125 Q278.1563,1504.8125 278.4531,1505.0938 Q278.75,1505.375 278.75,1506.0313 L278.75,1507.5938 Q278.75,1508.25 278.4688,1508.5313 Q278.1875,1508.8125 277.75,1508.8125 Q277.3594,1508.8125 277.1094,1508.6406 Q276.8594,1508.4688 276.75,1508.0156 Q276.7031,1507.7031 276.5313,1507.5313 Q276.2188,1507.2031 275.6563,1507.0156 Q275.0938,1506.8125 274.5313,1506.8125 Q273.8281,1506.8125 273.2344,1507.0938 Q272.6563,1507.375 272.2031,1508 Q271.75,1508.625 271.75,1509.4844 L271.75,1510.4063 Q271.75,1511.4375 272.5938,1512.125 Q273.4375,1512.8125 274.9375,1512.8125 Q275.8281,1512.8125 276.4531,1512.6094 Q276.8125,1512.5 277.2188,1512.1406 Q277.4844,1511.9375 277.625,1511.875 Q277.7656,1511.8125 277.9375,1511.8125 Q278.2656,1511.8125 278.5,1512.0781 Q278.75,1512.3281 278.75,1512.6875 Q278.75,1513.0313 278.4063,1513.4375 Q277.9063,1514.0313 277.1094,1514.3594 Q276.0625,1514.8125 274.7813,1514.8125 Q273.2813,1514.8125 272.0781,1514.2188 Q271.1094,1513.75 270.4219,1512.7344 Q269.75,1511.7188 269.75,1510.5156 L269.75,1509.4219 Q269.75,1508.1719 270.3438,1507.0781 Q270.9531,1505.9844 272,1505.4063 Q273.0625,1504.8125 274.25,1504.8125 Q274.9688,1504.8125 275.5938,1505.0625 Q276.2188,1505.3125 276.75,1505.8125 Z " fill="#000000"/><text fill="#000000" font-family="sans-serif" font-size="14" lengthAdjust="spacing" textLength="36" x="295.25" y="1515.041">Laser</text><line style="stroke:#181818;stroke-width:0.5;" x1="201" x2="393" y1="1525.3125" y2="1525.3125"/><rect fill="none" height="6" style="stroke:#C82930;stroke-width:1.0;" width="6" x="208" y="1536.6172"/><text fill="#000000" font-family="sans-serif" font-size="14" lengthAdjust="spacing" textLength="99" x="220" y="1543.8457">String imgName</text><rect fill="none" height="6" style="stroke:#C82930;stroke-width:1.0;" width="6" x="208" y="1554.2266"/><text fill="#000000" font-family="sans-serif" font-size="14" lengthAdjust="spacing" textLength="76" x="220" y="1561.4551">Sprite sprite</text><rect fill="none" height="6" style="stroke:#C82930;stroke-width:1.0;" width="6" x="208" y="1571.8359"/><text fill="#000000" font-family="sans-serif" font-size="14" lengthAdjust="spacing" textLength="63" x="220" y="1579.0645">float width</text><rect fill="none" height="6" style="stroke:#C82930;stroke-width:1.0;" width="6" x="208" y="1589.4453"/><text fill="#000000" font-family="sans-serif" font-size="14" lengthAdjust="spacing" textLength="70" x="220" y="1596.6738">float height</text><rect fill="none" height="6" style="stroke:#C82930;stroke-width:1.0;" width="6" x="208" y="1607.0547"/><text fill="#000000" font-family="sans-serif" font-size="14" lengthAdjust="spacing" textLength="70" x="220" y="1614.2832">float speed</text><rect fill="none" height="6" style="stroke:#C82930;stroke-width:1.0;" width="6" x="208" y="1624.6641"/><text fill="#000000" font-family="sans-serif" font-size="14" lengthAdjust="spacing" textLength="112" x="220" y="1631.8926">SpriteBatch batch</text><line style="stroke:#181818;stroke-width:0.5;" x1="201" x2="393" y1="1638.9688" y2="1638.9688"/><ellipse cx="211" cy="1653.2734" fill="#84BE84" rx="3" ry="3" style="stroke:#038048;stroke-width:1.0;"/><text fill="#000000" font-family="sans-serif" font-size="14" lengthAdjust="spacing" textLength="143" x="220" y="1657.502">SpriteBatch getBatch()</text><ellipse cx="211" cy="1670.8828" fill="#84BE84" rx="3" ry="3" style="stroke:#038048;stroke-width:1.0;"/><text fill="#000000" font-family="sans-serif" font-size="14" lengthAdjust="spacing" textLength="168" x="220" y="1675.1113">void setBatch(SpriteBatch)</text><ellipse cx="211" cy="1688.4922" fill="#84BE84" rx="3" ry="3" style="stroke:#038048;stroke-width:1.0;"/><text fill="#000000" font-family="sans-serif" font-size="14" lengthAdjust="spacing" textLength="129" x="220" y="1692.7207">String getImgName()</text><ellipse cx="211" cy="1706.1016" fill="#84BE84" rx="3" ry="3" style="stroke:#038048;stroke-width:1.0;"/><text fill="#000000" font-family="sans-serif" font-size="14" lengthAdjust="spacing" textLength="154" x="220" y="1710.3301">void setImgName(String)</text><ellipse cx="211" cy="1723.7109" fill="#84BE84" rx="3" ry="3" style="stroke:#038048;stroke-width:1.0;"/><text fill="#000000" font-family="sans-serif" font-size="14" lengthAdjust="spacing" textLength="108" x="220" y="1727.9395">Sprite getSprite()</text><ellipse cx="211" cy="1741.3203" fill="#84BE84" rx="3" ry="3" style="stroke:#038048;stroke-width:1.0;"/><text fill="#000000" font-family="sans-serif" font-size="14" lengthAdjust="spacing" textLength="133" x="220" y="1745.5488">void setSprite(Sprite)</text><ellipse cx="211" cy="1758.9297" fill="#84BE84" rx="3" ry="3" style="stroke:#038048;stroke-width:1.0;"/><text fill="#000000" font-family="sans-serif" font-size="14" lengthAdjust="spacing" textLength="97" x="220" y="1763.1582">float getWidth()</text><ellipse cx="211" cy="1776.5391" fill="#84BE84" rx="3" ry="3" style="stroke:#038048;stroke-width:1.0;"/><text fill="#000000" font-family="sans-serif" font-size="14" lengthAdjust="spacing" textLength="122" x="220" y="1780.7676">void setWidth(float)</text><ellipse cx="211" cy="1794.1484" fill="#84BE84" rx="3" ry="3" style="stroke:#038048;stroke-width:1.0;"/><text fill="#000000" font-family="sans-serif" font-size="14" lengthAdjust="spacing" textLength="101" x="220" y="1798.377">float getHeight()</text><ellipse cx="211" cy="1811.7578" fill="#84BE84" rx="3" ry="3" style="stroke:#038048;stroke-width:1.0;"/><text fill="#000000" font-family="sans-serif" font-size="14" lengthAdjust="spacing" textLength="126" x="220" y="1815.9863">void setHeight(float)</text><ellipse cx="211" cy="1829.3672" fill="#84BE84" rx="3" ry="3" style="stroke:#038048;stroke-width:1.0;"/><text fill="#000000" font-family="sans-serif" font-size="14" lengthAdjust="spacing" textLength="102" x="220" y="1833.5957">float getSpeed()</text><ellipse cx="211" cy="1846.9766" fill="#84BE84" rx="3" ry="3" style="stroke:#038048;stroke-width:1.0;"/><text fill="#000000" font-family="sans-serif" font-size="14" lengthAdjust="spacing" textLength="127" x="220" y="1851.2051">void setSpeed(float)</text></g><!--MD5=[c2bf84988c969a9c17d7862cfb85c56b]
class com.mygdx.game.game.components.game.player.Player--><g id="elem_com.mygdx.game.game.components.game.player.Player"><rect codeLine="63" fill="#F1F1F1" height="875.6406" id="com.mygdx.game.game.components.game.player.Player" rx="2.5" ry="2.5" style="stroke:#181818;stroke-width:0.5;" width="483" x="509.5" y="113.3125"/><ellipse cx="726.75" cy="129.3125" fill="#ADD1B2" rx="11" ry="11" style="stroke:#181818;stroke-width:1.0;"/><path d="M728.75,125.8125 Q728.9531,125.3125 729.1875,125.0625 Q729.4219,124.8125 729.6875,124.8125 Q730.1563,124.8125 730.4531,125.0938 Q730.75,125.375 730.75,126.0313 L730.75,127.5938 Q730.75,128.25 730.4688,128.5313 Q730.1875,128.8125 729.75,128.8125 Q729.3594,128.8125 729.1094,128.6406 Q728.8594,128.4688 728.75,128.0156 Q728.7031,127.7031 728.5313,127.5313 Q728.2188,127.2031 727.6563,127.0156 Q727.0938,126.8125 726.5313,126.8125 Q725.8281,126.8125 725.2344,127.0938 Q724.6563,127.375 724.2031,128 Q723.75,128.625 723.75,129.4844 L723.75,130.4063 Q723.75,131.4375 724.5938,132.125 Q725.4375,132.8125 726.9375,132.8125 Q727.8281,132.8125 728.4531,132.6094 Q728.8125,132.5 729.2188,132.1406 Q729.4844,131.9375 729.625,131.875 Q729.7656,131.8125 729.9375,131.8125 Q730.2656,131.8125 730.5,132.0781 Q730.75,132.3281 730.75,132.6875 Q730.75,133.0313 730.4063,133.4375 Q729.9063,134.0313 729.1094,134.3594 Q728.0625,134.8125 726.7813,134.8125 Q725.2813,134.8125 724.0781,134.2188 Q723.1094,133.75 722.4219,132.7344 Q721.75,131.7188 721.75,130.5156 L721.75,129.4219 Q721.75,128.1719 722.3438,127.0781 Q722.9531,125.9844 724,125.4063 Q725.0625,124.8125 726.25,124.8125 Q726.9688,124.8125 727.5938,125.0625 Q728.2188,125.3125 728.75,125.8125 Z " fill="#000000"/><text fill="#000000" font-family="sans-serif" font-size="14" lengthAdjust="spacing" textLength="40" x="747.25" y="135.041">Player</text><line style="stroke:#181818;stroke-width:0.5;" x1="510.5" x2="991.5" y1="145.3125" y2="145.3125"/><rect fill="none" height="6" style="stroke:#C82930;stroke-width:1.0;" width="6" x="517.5" y="156.6172"/><text fill="#000000" font-family="sans-serif" font-size="14" lengthAdjust="spacing" textLength="99" x="529.5" y="163.8457">String imgName</text><rect fill="none" height="6" style="stroke:#C82930;stroke-width:1.0;" width="6" x="517.5" y="174.2266"/><text fill="#000000" font-family="sans-serif" font-size="14" lengthAdjust="spacing" textLength="76" x="529.5" y="181.4551">Sprite sprite</text><rect fill="none" height="6" style="stroke:#C82930;stroke-width:1.0;" width="6" x="517.5" y="191.8359"/><text fill="#000000" font-family="sans-serif" font-size="14" lengthAdjust="spacing" textLength="63" x="529.5" y="199.0645">float width</text><rect fill="none" height="6" style="stroke:#C82930;stroke-width:1.0;" width="6" x="517.5" y="209.4453"/><text fill="#000000" font-family="sans-serif" font-size="14" lengthAdjust="spacing" textLength="70" x="529.5" y="216.6738">float height</text><rect fill="none" height="6" style="stroke:#C82930;stroke-width:1.0;" width="6" x="517.5" y="227.0547"/><text fill="#000000" font-family="sans-serif" font-size="14" lengthAdjust="spacing" textLength="70" x="529.5" y="234.2832">float speed</text><rect fill="none" height="6" style="stroke:#C82930;stroke-width:1.0;" width="6" x="517.5" y="244.6641"/><text fill="#000000" font-family="sans-serif" font-size="14" lengthAdjust="spacing" textLength="156" x="529.5" y="251.8926">int[] mainKeyboardInputs</text><rect fill="none" height="6" style="stroke:#C82930;stroke-width:1.0;" width="6" x="517.5" y="262.2734"/><text fill="#000000" font-family="sans-serif" font-size="14" lengthAdjust="spacing" textLength="141" x="529.5" y="269.502">int[] altKeyboardInputs</text><rect fill="none" height="6" style="stroke:#C82930;stroke-width:1.0;" width="6" x="517.5" y="279.8828"/><text fill="#000000" font-family="sans-serif" font-size="14" lengthAdjust="spacing" textLength="54" x="529.5" y="287.1113">int score</text><rect fill="none" height="6" style="stroke:#C82930;stroke-width:1.0;" width="6" x="517.5" y="297.4922"/><text fill="#000000" font-family="sans-serif" font-size="14" lengthAdjust="spacing" textLength="263" x="529.5" y="304.7207">ArrayList&lt;CollidableEntity&lt;Laser&gt;&gt; lasers</text><rect fill="none" height="6" style="stroke:#C82930;stroke-width:1.0;" width="6" x="517.5" y="315.1016"/><text fill="#000000" font-family="sans-serif" font-size="14" lengthAdjust="spacing" textLength="84" x="529.5" y="322.3301">int maxHealth</text><rect fill="none" height="6" style="stroke:#C82930;stroke-width:1.0;" width="6" x="517.5" y="332.7109"/><text fill="#000000" font-family="sans-serif" font-size="14" lengthAdjust="spacing" textLength="104" x="529.5" y="339.9395">int currentHealth</text><rect fill="none" height="6" style="stroke:#C82930;stroke-width:1.0;" width="6" x="517.5" y="350.3203"/><text fill="#000000" font-family="sans-serif" font-size="14" lengthAdjust="spacing" textLength="90" x="529.5" y="357.5488">int aliensKilled</text><rect fill="none" height="6" style="stroke:#C82930;stroke-width:1.0;" width="6" x="517.5" y="367.9297"/><text fill="#000000" font-family="sans-serif" font-size="14" lengthAdjust="spacing" textLength="132" x="529.5" y="375.1582">Timestamp startTime</text><rect fill="none" height="6" style="stroke:#C82930;stroke-width:1.0;" width="6" x="517.5" y="385.5391"/><text fill="#000000" font-family="sans-serif" font-size="14" lengthAdjust="spacing" textLength="147" x="529.5" y="392.7676">Afterburner afterburner</text><line style="stroke:#181818;stroke-width:0.5;" x1="510.5" x2="991.5" y1="399.8438" y2="399.8438"/><ellipse cx="520.5" cy="414.1484" fill="#84BE84" rx="3" ry="3" style="stroke:#038048;stroke-width:1.0;"/><text fill="#000000" font-family="sans-serif" font-size="14" lengthAdjust="spacing" textLength="178" x="529.5" y="418.377">Afterburner getAfterburner()</text><ellipse cx="520.5" cy="431.7578" fill="#84BE84" rx="3" ry="3" style="stroke:#038048;stroke-width:1.0;"/><text fill="#000000" font-family="sans-serif" font-size="14" lengthAdjust="spacing" textLength="203" x="529.5" y="435.9863">void setAfterburner(Afterburner)</text><ellipse cx="520.5" cy="449.3672" fill="#84BE84" rx="3" ry="3" style="stroke:#038048;stroke-width:1.0;"/><text fill="#000000" font-family="sans-serif" font-size="14" lengthAdjust="spacing" textLength="129" x="529.5" y="453.5957">String getImgName()</text><ellipse cx="520.5" cy="466.9766" fill="#84BE84" rx="3" ry="3" style="stroke:#038048;stroke-width:1.0;"/><text fill="#000000" font-family="sans-serif" font-size="14" lengthAdjust="spacing" textLength="154" x="529.5" y="471.2051">void setImgName(String)</text><ellipse cx="520.5" cy="484.5859" fill="#84BE84" rx="3" ry="3" style="stroke:#038048;stroke-width:1.0;"/><text fill="#000000" font-family="sans-serif" font-size="14" lengthAdjust="spacing" textLength="108" x="529.5" y="488.8145">Sprite getSprite()</text><ellipse cx="520.5" cy="502.1953" fill="#84BE84" rx="3" ry="3" style="stroke:#038048;stroke-width:1.0;"/><text fill="#000000" font-family="sans-serif" font-size="14" lengthAdjust="spacing" textLength="133" x="529.5" y="506.4238">void setSprite(Sprite)</text><ellipse cx="520.5" cy="519.8047" fill="#84BE84" rx="3" ry="3" style="stroke:#038048;stroke-width:1.0;"/><text fill="#000000" font-family="sans-serif" font-size="14" lengthAdjust="spacing" textLength="97" x="529.5" y="524.0332">float getWidth()</text><ellipse cx="520.5" cy="537.4141" fill="#84BE84" rx="3" ry="3" style="stroke:#038048;stroke-width:1.0;"/><text fill="#000000" font-family="sans-serif" font-size="14" lengthAdjust="spacing" textLength="122" x="529.5" y="541.6426">void setWidth(float)</text><ellipse cx="520.5" cy="555.0234" fill="#84BE84" rx="3" ry="3" style="stroke:#038048;stroke-width:1.0;"/><text fill="#000000" font-family="sans-serif" font-size="14" lengthAdjust="spacing" textLength="101" x="529.5" y="559.252">float getHeight()</text><ellipse cx="520.5" cy="572.6328" fill="#84BE84" rx="3" ry="3" style="stroke:#038048;stroke-width:1.0;"/><text fill="#000000" font-family="sans-serif" font-size="14" lengthAdjust="spacing" textLength="126" x="529.5" y="576.8613">void setHeight(float)</text><ellipse cx="520.5" cy="590.2422" fill="#84BE84" rx="3" ry="3" style="stroke:#038048;stroke-width:1.0;"/><text fill="#000000" font-family="sans-serif" font-size="14" lengthAdjust="spacing" textLength="102" x="529.5" y="594.4707">float getSpeed()</text><ellipse cx="520.5" cy="607.8516" fill="#84BE84" rx="3" ry="3" style="stroke:#038048;stroke-width:1.0;"/><text fill="#000000" font-family="sans-serif" font-size="14" lengthAdjust="spacing" textLength="127" x="529.5" y="612.0801">void setSpeed(float)</text><ellipse cx="520.5" cy="625.4609" fill="#84BE84" rx="3" ry="3" style="stroke:#038048;stroke-width:1.0;"/><text fill="#000000" font-family="sans-serif" font-size="14" lengthAdjust="spacing" textLength="186" x="529.5" y="629.6895">int[] getMainKeyboardInputs()</text><ellipse cx="520.5" cy="643.0703" fill="#84BE84" rx="3" ry="3" style="stroke:#038048;stroke-width:1.0;"/><text fill="#000000" font-family="sans-serif" font-size="14" lengthAdjust="spacing" textLength="211" x="529.5" y="647.2988">void setMainKeyboardInputs(int[])</text><ellipse cx="520.5" cy="660.6797" fill="#84BE84" rx="3" ry="3" style="stroke:#038048;stroke-width:1.0;"/><text fill="#000000" font-family="sans-serif" font-size="14" lengthAdjust="spacing" textLength="172" x="529.5" y="664.9082">int[] getAltKeyboardInputs()</text><ellipse cx="520.5" cy="678.2891" fill="#84BE84" rx="3" ry="3" style="stroke:#038048;stroke-width:1.0;"/><text fill="#000000" font-family="sans-serif" font-size="14" lengthAdjust="spacing" textLength="197" x="529.5" y="682.5176">void setAltKeyboardInputs(int[])</text><ellipse cx="520.5" cy="695.8984" fill="#84BE84" rx="3" ry="3" style="stroke:#038048;stroke-width:1.0;"/><text fill="#000000" font-family="sans-serif" font-size="14" lengthAdjust="spacing" textLength="86" x="529.5" y="700.127">int getScore()</text><ellipse cx="520.5" cy="713.5078" fill="#84BE84" rx="3" ry="3" style="stroke:#038048;stroke-width:1.0;"/><text fill="#000000" font-family="sans-serif" font-size="14" lengthAdjust="spacing" textLength="111" x="529.5" y="717.7363">void setScore(int)</text><ellipse cx="520.5" cy="731.1172" fill="#84BE84" rx="3" ry="3" style="stroke:#038048;stroke-width:1.0;"/><text fill="#000000" font-family="sans-serif" font-size="14" lengthAdjust="spacing" textLength="298" x="529.5" y="735.3457">ArrayList&lt;CollidableEntity&lt;Laser&gt;&gt; getLasers()</text><ellipse cx="520.5" cy="748.7266" fill="#84BE84" rx="3" ry="3" style="stroke:#038048;stroke-width:1.0;"/><text fill="#000000" font-family="sans-serif" font-size="14" lengthAdjust="spacing" textLength="323" x="529.5" y="752.9551">void setLasers(ArrayList&lt;CollidableEntity&lt;Laser&gt;&gt;)</text><ellipse cx="520.5" cy="766.3359" fill="#84BE84" rx="3" ry="3" style="stroke:#038048;stroke-width:1.0;"/><text fill="#000000" font-family="sans-serif" font-size="14" lengthAdjust="spacing" textLength="114" x="529.5" y="770.5645">int getMaxHealth()</text><ellipse cx="520.5" cy="783.9453" fill="#84BE84" rx="3" ry="3" style="stroke:#038048;stroke-width:1.0;"/><text fill="#000000" font-family="sans-serif" font-size="14" lengthAdjust="spacing" textLength="139" x="529.5" y="788.1738">void setMaxHealth(int)</text><ellipse cx="520.5" cy="801.5547" fill="#84BE84" rx="3" ry="3" style="stroke:#038048;stroke-width:1.0;"/><text fill="#000000" font-family="sans-serif" font-size="14" lengthAdjust="spacing" textLength="137" x="529.5" y="805.7832">int getCurrentHealth()</text><ellipse cx="520.5" cy="819.1641" fill="#84BE84" rx="3" ry="3" style="stroke:#038048;stroke-width:1.0;"/><text fill="#000000" font-family="sans-serif" font-size="14" lengthAdjust="spacing" textLength="162" x="529.5" y="823.3926">void setCurrentHealth(int)</text><ellipse cx="520.5" cy="836.7734" fill="#84BE84" rx="3" ry="3" style="stroke:#038048;stroke-width:1.0;"/><text fill="#000000" font-family="sans-serif" font-size="14" lengthAdjust="spacing" textLength="164" x="529.5" y="841.002">Timestamp getStartTime()</text><ellipse cx="520.5" cy="854.3828" fill="#84BE84" rx="3" ry="3" style="stroke:#038048;stroke-width:1.0;"/><text fill="#000000" font-family="sans-serif" font-size="14" lengthAdjust="spacing" textLength="189" x="529.5" y="858.6113">void setStartTime(Timestamp)</text><ellipse cx="520.5" cy="871.9922" fill="#84BE84" rx="3" ry="3" style="stroke:#038048;stroke-width:1.0;"/><text fill="#000000" font-family="sans-serif" font-size="14" lengthAdjust="spacing" textLength="418" x="529.5" y="876.2207">void limitPlayerMovement(CollidableEntity&lt;Player&gt;,Integer,Integer)</text><ellipse cx="520.5" cy="889.6016" fill="#84BE84" rx="3" ry="3" style="stroke:#038048;stroke-width:1.0;"/><text fill="#000000" font-family="sans-serif" font-size="14" lengthAdjust="spacing" textLength="403" x="529.5" y="893.8301">int movePlayer(CollidableEntity&lt;Player&gt;,CustomInputProcessor)</text><ellipse cx="520.5" cy="907.2109" fill="#84BE84" rx="3" ry="3" style="stroke:#038048;stroke-width:1.0;"/><text fill="#000000" font-family="sans-serif" font-size="14" lengthAdjust="spacing" textLength="121" x="529.5" y="911.4395">int getAliensKilled()</text><ellipse cx="520.5" cy="924.8203" fill="#84BE84" rx="3" ry="3" style="stroke:#038048;stroke-width:1.0;"/><text fill="#000000" font-family="sans-serif" font-size="14" lengthAdjust="spacing" textLength="146" x="529.5" y="929.0488">void setAliensKilled(int)</text><ellipse cx="520.5" cy="942.4297" fill="#84BE84" rx="3" ry="3" style="stroke:#038048;stroke-width:1.0;"/><text fill="#000000" font-family="sans-serif" font-size="14" lengthAdjust="spacing" textLength="270" x="529.5" y="946.6582">void moveLasers(CollidableEntity&lt;Player&gt;)</text><ellipse cx="520.5" cy="960.0391" fill="#84BE84" rx="3" ry="3" style="stroke:#038048;stroke-width:1.0;"/><text fill="#000000" font-family="sans-serif" font-size="14" lengthAdjust="spacing" textLength="457" x="529.5" y="964.2676">void spawnLasers(CustomInputProcessor,CollidableEntity&lt;Player&gt;,Main)</text><ellipse cx="520.5" cy="977.6484" fill="#84BE84" rx="3" ry="3" style="stroke:#038048;stroke-width:1.0;"/><text fill="#000000" font-family="sans-serif" font-size="14" lengthAdjust="spacing" textLength="170" x="529.5" y="981.877">void savePlayerData(Main)</text></g><!--MD5=[30c9d4ca4295a816de65d7762726da60]
class com.mygdx.game.game.components.game.player.Afterburner--><g id="elem_com.mygdx.game.game.components.game.player.Afterburner"><rect codeLine="113" fill="#F1F1F1" height="364.9688" id="com.mygdx.game.game.components.game.player.Afterburner" rx="2.5" ry="2.5" style="stroke:#181818;stroke-width:0.5;" width="194" x="654" y="1493.3125"/><ellipse cx="710.75" cy="1509.3125" fill="#ADD1B2" rx="11" ry="11" style="stroke:#181818;stroke-width:1.0;"/><path d="M712.75,1505.8125 Q712.9531,1505.3125 713.1875,1505.0625 Q713.4219,1504.8125 713.6875,1504.8125 Q714.1563,1504.8125 714.4531,1505.0938 Q714.75,1505.375 714.75,1506.0313 L714.75,1507.5938 Q714.75,1508.25 714.4688,1508.5313 Q714.1875,1508.8125 713.75,1508.8125 Q713.3594,1508.8125 713.1094,1508.6406 Q712.8594,1508.4688 712.75,1508.0156 Q712.7031,1507.7031 712.5313,1507.5313 Q712.2188,1507.2031 711.6563,1507.0156 Q711.0938,1506.8125 710.5313,1506.8125 Q709.8281,1506.8125 709.2344,1507.0938 Q708.6563,1507.375 708.2031,1508 Q707.75,1508.625 707.75,1509.4844 L707.75,1510.4063 Q707.75,1511.4375 708.5938,1512.125 Q709.4375,1512.8125 710.9375,1512.8125 Q711.8281,1512.8125 712.4531,1512.6094 Q712.8125,1512.5 713.2188,1512.1406 Q713.4844,1511.9375 713.625,1511.875 Q713.7656,1511.8125 713.9375,1511.8125 Q714.2656,1511.8125 714.5,1512.0781 Q714.75,1512.3281 714.75,1512.6875 Q714.75,1513.0313 714.4063,1513.4375 Q713.9063,1514.0313 713.1094,1514.3594 Q712.0625,1514.8125 710.7813,1514.8125 Q709.2813,1514.8125 708.0781,1514.2188 Q707.1094,1513.75 706.4219,1512.7344 Q705.75,1511.7188 705.75,1510.5156 L705.75,1509.4219 Q705.75,1508.1719 706.3438,1507.0781 Q706.9531,1505.9844 708,1505.4063 Q709.0625,1504.8125 710.25,1504.8125 Q710.9688,1504.8125 711.5938,1505.0625 Q712.2188,1505.3125 712.75,1505.8125 Z " fill="#000000"/><text fill="#000000" font-family="sans-serif" font-size="14" lengthAdjust="spacing" textLength="72" x="731.25" y="1515.041">Afterburner</text><line style="stroke:#181818;stroke-width:0.5;" x1="655" x2="847" y1="1525.3125" y2="1525.3125"/><rect fill="none" height="6" style="stroke:#C82930;stroke-width:1.0;" width="6" x="662" y="1536.6172"/><text fill="#000000" font-family="sans-serif" font-size="14" lengthAdjust="spacing" textLength="92" x="674" y="1543.8457">String imgPath</text><rect fill="none" height="6" style="stroke:#C82930;stroke-width:1.0;" width="6" x="662" y="1554.2266"/><text fill="#000000" font-family="sans-serif" font-size="14" lengthAdjust="spacing" textLength="95" x="674" y="1561.4551">Texture texture</text><rect fill="none" height="6" style="stroke:#C82930;stroke-width:1.0;" width="6" x="662" y="1571.8359"/><text fill="#000000" font-family="sans-serif" font-size="14" lengthAdjust="spacing" textLength="112" x="674" y="1579.0645">SpriteBatch batch</text><rect fill="none" height="6" style="stroke:#C82930;stroke-width:1.0;" width="6" x="662" y="1589.4453"/><text fill="#000000" font-family="sans-serif" font-size="14" lengthAdjust="spacing" textLength="37" x="674" y="1596.6738">float x</text><rect fill="none" height="6" style="stroke:#C82930;stroke-width:1.0;" width="6" x="662" y="1607.0547"/><text fill="#000000" font-family="sans-serif" font-size="14" lengthAdjust="spacing" textLength="38" x="674" y="1614.2832">float y</text><rect fill="none" height="6" style="stroke:#C82930;stroke-width:1.0;" width="6" x="662" y="1624.6641"/><text fill="#000000" font-family="sans-serif" font-size="14" lengthAdjust="spacing" textLength="103" x="674" y="1631.8926">boolean visibility</text><line style="stroke:#181818;stroke-width:0.5;" x1="655" x2="847" y1="1638.9688" y2="1638.9688"/><ellipse cx="665" cy="1653.2734" fill="#84BE84" rx="3" ry="3" style="stroke:#038048;stroke-width:1.0;"/><text fill="#000000" font-family="sans-serif" font-size="14" lengthAdjust="spacing" textLength="122" x="674" y="1657.502">String getImgPath()</text><ellipse cx="665" cy="1670.8828" fill="#84BE84" rx="3" ry="3" style="stroke:#038048;stroke-width:1.0;"/><text fill="#000000" font-family="sans-serif" font-size="14" lengthAdjust="spacing" textLength="147" x="674" y="1675.1113">void setImgPath(String)</text><ellipse cx="665" cy="1688.4922" fill="#84BE84" rx="3" ry="3" style="stroke:#038048;stroke-width:1.0;"/><text fill="#000000" font-family="sans-serif" font-size="14" lengthAdjust="spacing" textLength="130" x="674" y="1692.7207">Texture getTexture()</text><ellipse cx="665" cy="1706.1016" fill="#84BE84" rx="3" ry="3" style="stroke:#038048;stroke-width:1.0;"/><text fill="#000000" font-family="sans-serif" font-size="14" lengthAdjust="spacing" textLength="155" x="674" y="1710.3301">void setTexture(Texture)</text><ellipse cx="665" cy="1723.7109" fill="#84BE84" rx="3" ry="3" style="stroke:#038048;stroke-width:1.0;"/><text fill="#000000" font-family="sans-serif" font-size="14" lengthAdjust="spacing" textLength="143" x="674" y="1727.9395">SpriteBatch getBatch()</text><ellipse cx="665" cy="1741.3203" fill="#84BE84" rx="3" ry="3" style="stroke:#038048;stroke-width:1.0;"/><text fill="#000000" font-family="sans-serif" font-size="14" lengthAdjust="spacing" textLength="168" x="674" y="1745.5488">void setBatch(SpriteBatch)</text><ellipse cx="665" cy="1758.9297" fill="#84BE84" rx="3" ry="3" style="stroke:#038048;stroke-width:1.0;"/><text fill="#000000" font-family="sans-serif" font-size="14" lengthAdjust="spacing" textLength="69" x="674" y="1763.1582">float getX()</text><ellipse cx="665" cy="1776.5391" fill="#84BE84" rx="3" ry="3" style="stroke:#038048;stroke-width:1.0;"/><text fill="#000000" font-family="sans-serif" font-size="14" lengthAdjust="spacing" textLength="94" x="674" y="1780.7676">void setX(float)</text><ellipse cx="665" cy="1794.1484" fill="#84BE84" rx="3" ry="3" style="stroke:#038048;stroke-width:1.0;"/><text fill="#000000" font-family="sans-serif" font-size="14" lengthAdjust="spacing" textLength="70" x="674" y="1798.377">float getY()</text><ellipse cx="665" cy="1811.7578" fill="#84BE84" rx="3" ry="3" style="stroke:#038048;stroke-width:1.0;"/><text fill="#000000" font-family="sans-serif" font-size="14" lengthAdjust="spacing" textLength="95" x="674" y="1815.9863">void setY(float)</text><ellipse cx="665" cy="1829.3672" fill="#84BE84" rx="3" ry="3" style="stroke:#038048;stroke-width:1.0;"/><text fill="#000000" font-family="sans-serif" font-size="14" lengthAdjust="spacing" textLength="135" x="674" y="1833.5957">boolean getVisibility()</text><ellipse cx="665" cy="1846.9766" fill="#84BE84" rx="3" ry="3" style="stroke:#038048;stroke-width:1.0;"/><text fill="#000000" font-family="sans-serif" font-size="14" lengthAdjust="spacing" textLength="160" x="674" y="1851.2051">void setVisibility(boolean)</text></g><!--MD5=[95fd6c841c6d8a7811b9dd28d8ffd961]
reverse link com.mygdx.game.game.components.game.enemy.UFO to com.mygdx.game.game.components.game.Laser--><g id="link_com.mygdx.game.game.components.game.enemy.UFO_com.mygdx.game.game.components.game.Laser"><path codeLine="134" d="M264.67,800.0425 C264.67,800.0425 264.67,1493.1625 264.67,1493.1625 " fill="none" id="com.mygdx.game.game.components.game.enemy.UFO-backto-com.mygdx.game.game.components.game.Laser" style="stroke:#181818;stroke-width:1.0;"/><polygon fill="#181818" points="264.67,787.0425,260.67,793.0425,264.67,799.0425,268.67,793.0425,264.67,787.0425" style="stroke:#181818;stroke-width:1.0;"/><text fill="#000000" font-family="sans-serif" font-size="13" lengthAdjust="spacing" textLength="57" x="206.67" y="1143.0976">has many</text></g><!--MD5=[9f4c6298d21907bf0c5a70d6c3378747]
reverse link com.mygdx.game.game.components.game.player.Player to com.mygdx.game.game.components.game.Laser--><g id="link_com.mygdx.game.game.components.game.player.Player_com.mygdx.game.game.components.game.Laser"><path codeLine="136" d="M496.38,888.3125 C496.38,888.3125 329.33,888.3125 329.33,888.3125 C329.33,888.3125 329.33,1260.5325 329.33,1493.1625 " fill="none" id="com.mygdx.game.game.components.game.player.Player-backto-com.mygdx.game.game.components.game.Laser" style="stroke:#181818;stroke-width:1.0;"/><polygon fill="#181818" points="509.38,888.3125,503.38,884.3125,497.38,888.3125,503.38,892.3125,509.38,888.3125" style="stroke:#181818;stroke-width:1.0;"/><text fill="#000000" font-family="sans-serif" font-size="13" lengthAdjust="spacing" textLength="57" x="271.33" y="1103.7076">has many</text></g><!--MD5=[e2c83c81c43ee741e66fc9cff99a436a]
reverse link com.mygdx.game.game.components.game.player.Player to com.mygdx.game.game.components.game.player.Afterburner--><g id="link_com.mygdx.game.game.components.game.player.Player_com.mygdx.game.game.components.game.player.Afterburner"><path codeLine="137" d="M751,1002.6925 C751,1002.6925 751,1492.9725 751,1492.9725 " fill="none" id="com.mygdx.game.game.components.game.player.Player-backto-com.mygdx.game.game.components.game.player.Afterburner" style="stroke:#181818;stroke-width:1.0;"/><polygon fill="#181818" points="751,989.6925,747,995.6925,751,1001.6925,755,995.6925,751,989.6925" style="stroke:#181818;stroke-width:1.0;"/><text fill="#000000" font-family="sans-serif" font-size="13" lengthAdjust="spacing" textLength="21" x="729" y="1244.3276">has</text></g><!--MD5=[02f31b340fb11bd538247c97b0e090fd]
@startuml
skinparam linetype polyline
skinparam linetype ortho

skinparam nodesep 100
skinparam ranksep 100

skinparam titleBorderRoundCorner 15
skinparam titleBorderThickness 2
skinparam titleBorderColor red
skinparam titleBackgroundColor Aqua-CadetBlue
skinparam TitleFontSize 40

title Appendix P - UFO / Player Class Composition Relations

class com.mygdx.game.game.components.game.enemy.UFO {
- String imgPath
- String dir
- float speed
- Texture texture
- ArrayList<CollidableEntity<Laser>> lasers
- Rectangle rectangle
- int health
- long lastShotTime
- long shotDelay
+ float getSpeed()
+ void setSpeed(float)
+ Texture getTexture()
+ void setTexture(Texture)
+ int getHealth()
+ void setHealth(int)
+ void moveUFO(CollidableEntity,int,int)
+ void moveLeft(CollidableEntity)
+ void moveRight(CollidableEntity)
+ void moveDown(CollidableEntity)
+ long fireWeapon(CollidableEntity,Main)
+ void dropAsteroid(CollidableEntity<Asteroid>)
+ void dropPlanet(CollidableEntity<Planet>)
+ void moveLasers(CollidableEntity<UFO>)
+ ArrayList<CollidableEntity<Laser>> getLasers()
}

class com.mygdx.game.game.components.game.Laser {
- String imgName
- Sprite sprite
- float width
- float height
- float speed
- SpriteBatch batch
+ SpriteBatch getBatch()
+ void setBatch(SpriteBatch)
+ String getImgName()
+ void setImgName(String)
+ Sprite getSprite()
+ void setSprite(Sprite)
+ float getWidth()
+ void setWidth(float)
+ float getHeight()
+ void setHeight(float)
+ float getSpeed()
+ void setSpeed(float)
}

class com.mygdx.game.game.components.game.player.Player {
- String imgName
- Sprite sprite
- float width
- float height
- float speed
- int[] mainKeyboardInputs
- int[] altKeyboardInputs
- int score
- ArrayList<CollidableEntity<Laser>> lasers
- int maxHealth
- int currentHealth
- int aliensKilled
- Timestamp startTime
- Afterburner afterburner
+ Afterburner getAfterburner()
+ void setAfterburner(Afterburner)
+ String getImgName()
+ void setImgName(String)
+ Sprite getSprite()
+ void setSprite(Sprite)
+ float getWidth()
+ void setWidth(float)
+ float getHeight()
+ void setHeight(float)
+ float getSpeed()
+ void setSpeed(float)
+ int[] getMainKeyboardInputs()
+ void setMainKeyboardInputs(int[])
+ int[] getAltKeyboardInputs()
+ void setAltKeyboardInputs(int[])
+ int getScore()
+ void setScore(int)
+ ArrayList<CollidableEntity<Laser>> getLasers()
+ void setLasers(ArrayList<CollidableEntity<Laser>>)
+ int getMaxHealth()
+ void setMaxHealth(int)
+ int getCurrentHealth()
+ void setCurrentHealth(int)
+ Timestamp getStartTime()
+ void setStartTime(Timestamp)
+ void limitPlayerMovement(CollidableEntity<Player>,Integer,Integer)
+ int movePlayer(CollidableEntity<Player>,CustomInputProcessor)
+ int getAliensKilled()
+ void setAliensKilled(int)
+ void moveLasers(CollidableEntity<Player>)
+ void spawnLasers(CustomInputProcessor,CollidableEntity<Player>,Main)
+ void savePlayerData(Main)
}

class com.mygdx.game.game.components.game.player.Afterburner {
- String imgPath
- Texture texture
- SpriteBatch batch
- float x
- float y
- boolean visibility
+ String getImgPath()
+ void setImgPath(String)
+ Texture getTexture()
+ void setTexture(Texture)
+ SpriteBatch getBatch()
+ void setBatch(SpriteBatch)
+ float getX()
+ void setX(float)
+ float getY()
+ void setY(float)
+ boolean getVisibility()
+ void setVisibility(boolean)
}

com.mygdx.game.game.components.game.enemy.UFO *- - - - - - com.mygdx.game.game.components.game.Laser :has many

com.mygdx.game.game.components.game.player.Player *- - - - - - com.mygdx.game.game.components.game.Laser :has many
com.mygdx.game.game.components.game.player.Player *- - - - - - com.mygdx.game.game.components.game.player.Afterburner :has
@enduml

PlantUML version 1.2022.12(Mon Oct 24 02:12:26 SGT 2022)
(GPL source distribution)
Java Runtime: OpenJDK Runtime Environment
JVM: OpenJDK 64-Bit Server VM
Default Encoding: Cp1252
Language: en
Country: SG
--></g></svg>