<?xml version="1.0" encoding="UTF-8" standalone="no"?><svg xmlns="http://www.w3.org/2000/svg" xmlns:xlink="http://www.w3.org/1999/xlink" contentStyleType="text/css" height="1618px" preserveAspectRatio="none" style="width:611px;height:1618px;background:#FFFFFF;" version="1.1" viewBox="0 0 611 1618" width="611px" zoomAndPan="magnify"><defs><linearGradient id="g84v2ar6ksja00" x1="50%" x2="50%" y1="0%" y2="100%"><stop offset="0%" stop-color="#00FFFF"/><stop offset="100%" stop-color="#5F9EA0"/></linearGradient></defs><g><rect fill="url(#g84v2ar6ksja00)" height="27.6094" id="_title" rx="7.5" ry="7.5" style="stroke:#FF0000;stroke-width:2.0;" width="316" x="140.5" y="5"/><text fill="#000000" font-family="sans-serif" font-size="14" font-weight="bold" lengthAdjust="spacing" textLength="306" x="145.5" y="24.5332">ControlScreen Class Composition Relations</text><!--MD5=[52537726a308ea51c89174d2bb4d21b2]
cluster com.mygdx.game.game.screens.game--><g id="cluster_com.mygdx.game.game.screens.game"><path d="M96.5,44.6094 L362.5,44.6094 A3.75,3.75 0 0 1 365,47.1094 L372,68.2188 L391.5,68.2188 A2.5,2.5 0 0 1 394,70.7188 L394,441.1094 A2.5,2.5 0 0 1 391.5,443.6094 L96.5,443.6094 A2.5,2.5 0 0 1 94,441.1094 L94,47.1094 A2.5,2.5 0 0 1 96.5,44.6094 " fill="none" style="stroke:#000000;stroke-width:1.5;"/><line style="stroke:#000000;stroke-width:1.5;" x1="94" x2="372" y1="68.2188" y2="68.2188"/><text fill="#000000" font-family="sans-serif" font-size="14" font-weight="bold" lengthAdjust="spacing" textLength="265" x="98" y="61.1426">com.mygdx.game.game.screens.game</text></g><!--MD5=[6d572adab93e1a2768c068c53f7d318b]
cluster com.mygdx.game.engine.input--><g id="cluster_com.mygdx.game.engine.input"><path d="M8.5,1115.6094 L222.5,1115.6094 A3.75,3.75 0 0 1 225,1118.1094 L232,1139.2188 L269.5,1139.2188 A2.5,2.5 0 0 1 272,1141.7188 L272,1389.1094 A2.5,2.5 0 0 1 269.5,1391.6094 L8.5,1391.6094 A2.5,2.5 0 0 1 6,1389.1094 L6,1118.1094 A2.5,2.5 0 0 1 8.5,1115.6094 " fill="none" style="stroke:#000000;stroke-width:1.5;"/><line style="stroke:#000000;stroke-width:1.5;" x1="6" x2="232" y1="1139.2188" y2="1139.2188"/><text fill="#000000" font-family="sans-serif" font-size="14" font-weight="bold" lengthAdjust="spacing" textLength="213" x="10" y="1132.1426">com.mygdx.game.engine.input</text></g><!--MD5=[683aabdc962ad2ab98ef14c38ed732ec]
cluster com.mygdx.game.game.components.ui--><g id="cluster_com.mygdx.game.game.components.ui"><path d="M320.5,895.6094 L591.5,895.6094 A3.75,3.75 0 0 1 594,898.1094 L601,919.2188 L601.5,919.2188 A2.5,2.5 0 0 1 604,921.7188 L604,1609.1094 A2.5,2.5 0 0 1 601.5,1611.6094 L320.5,1611.6094 A2.5,2.5 0 0 1 318,1609.1094 L318,898.1094 A2.5,2.5 0 0 1 320.5,895.6094 " fill="none" style="stroke:#000000;stroke-width:1.5;"/><line style="stroke:#000000;stroke-width:1.5;" x1="318" x2="601" y1="919.2188" y2="919.2188"/><text fill="#000000" font-family="sans-serif" font-size="14" font-weight="bold" lengthAdjust="spacing" textLength="270" x="322" y="912.1426">com.mygdx.game.game.components.ui</text></g><!--MD5=[5fb0997efcffc5806e5a29bf8d74d568]
class com.mygdx.game.game.screens.game.ControlScreen--><g id="elem_com.mygdx.game.game.screens.game.ControlScreen"><rect codeLine="14" fill="#F1F1F1" height="347.3594" id="com.mygdx.game.game.screens.game.ControlScreen" rx="2.5" ry="2.5" style="stroke:#181818;stroke-width:0.5;" width="268" x="110" y="80.6094"/><ellipse cx="194.25" cy="96.6094" fill="#ADD1B2" rx="11" ry="11" style="stroke:#181818;stroke-width:1.0;"/><path d="M196.25,93.1094 Q196.4531,92.6094 196.6875,92.3594 Q196.9219,92.1094 197.1875,92.1094 Q197.6563,92.1094 197.9531,92.3906 Q198.25,92.6719 198.25,93.3281 L198.25,94.8906 Q198.25,95.5469 197.9688,95.8281 Q197.6875,96.1094 197.25,96.1094 Q196.8594,96.1094 196.6094,95.9375 Q196.3594,95.7656 196.25,95.3125 Q196.2031,95 196.0313,94.8281 Q195.7188,94.5 195.1563,94.3125 Q194.5938,94.1094 194.0313,94.1094 Q193.3281,94.1094 192.7344,94.3906 Q192.1563,94.6719 191.7031,95.2969 Q191.25,95.9219 191.25,96.7813 L191.25,97.7031 Q191.25,98.7344 192.0938,99.4219 Q192.9375,100.1094 194.4375,100.1094 Q195.3281,100.1094 195.9531,99.9063 Q196.3125,99.7969 196.7188,99.4375 Q196.9844,99.2344 197.125,99.1719 Q197.2656,99.1094 197.4375,99.1094 Q197.7656,99.1094 198,99.375 Q198.25,99.625 198.25,99.9844 Q198.25,100.3281 197.9063,100.7344 Q197.4063,101.3281 196.6094,101.6563 Q195.5625,102.1094 194.2813,102.1094 Q192.7813,102.1094 191.5781,101.5156 Q190.6094,101.0469 189.9219,100.0313 Q189.25,99.0156 189.25,97.8125 L189.25,96.7188 Q189.25,95.4688 189.8438,94.375 Q190.4531,93.2813 191.5,92.7031 Q192.5625,92.1094 193.75,92.1094 Q194.4688,92.1094 195.0938,92.3594 Q195.7188,92.6094 196.25,93.1094 Z " fill="#000000"/><text fill="#000000" font-family="sans-serif" font-size="14" lengthAdjust="spacing" textLength="91" x="214.75" y="102.3379">ControlScreen</text><line style="stroke:#181818;stroke-width:0.5;" x1="111" x2="377" y1="112.6094" y2="112.6094"/><rect fill="none" height="6" style="stroke:#C82930;stroke-width:1.0;" width="6" x="118" y="123.9141"/><text fill="#000000" font-family="sans-serif" font-size="14" lengthAdjust="spacing" textLength="92" x="130" y="131.1426">String imgPath</text><rect fill="none" height="6" style="stroke:#C82930;stroke-width:1.0;" width="6" x="118" y="141.5234"/><text fill="#000000" font-family="sans-serif" font-size="14" lengthAdjust="spacing" textLength="95" x="130" y="148.752">Texture texture</text><rect fill="none" height="6" style="stroke:#C82930;stroke-width:1.0;" width="6" x="118" y="159.1328"/><text fill="#000000" font-family="sans-serif" font-size="14" lengthAdjust="spacing" textLength="112" x="130" y="166.3613">SpriteBatch batch</text><rect fill="none" height="6" style="stroke:#C82930;stroke-width:1.0;" width="6" x="118" y="176.7422"/><text fill="#000000" font-family="sans-serif" font-size="14" lengthAdjust="spacing" textLength="69" x="130" y="183.9707">Main game</text><rect fill="none" height="6" style="stroke:#C82930;stroke-width:1.0;" width="6" x="118" y="194.3516"/><text fill="#000000" font-family="sans-serif" font-size="14" lengthAdjust="spacing" textLength="242" x="130" y="201.5801">CustomInputProcessor inputProcessor</text><rect fill="none" height="6" style="stroke:#C82930;stroke-width:1.0;" width="6" x="118" y="211.9609"/><text fill="#000000" font-family="sans-serif" font-size="14" lengthAdjust="spacing" textLength="184" x="130" y="219.1895">OrthographicCamera camera</text><rect fill="none" height="6" style="stroke:#C82930;stroke-width:1.0;" width="6" x="118" y="229.5703"/><text fill="#000000" font-family="sans-serif" font-size="14" lengthAdjust="spacing" textLength="112" x="130" y="236.7988">Button playButton</text><rect fill="none" height="6" style="stroke:#C82930;stroke-width:1.0;" width="6" x="118" y="247.1797"/><text fill="#000000" font-family="sans-serif" font-size="14" lengthAdjust="spacing" textLength="141" x="130" y="254.4082">float buttonShowDelay</text><rect fill="none" height="6" style="stroke:#C82930;stroke-width:1.0;" width="6" x="118" y="264.7891"/><text fill="#000000" font-family="sans-serif" font-size="14" lengthAdjust="spacing" textLength="180" x="130" y="272.0176">Timer.Task buttonShowTask</text><line style="stroke:#181818;stroke-width:0.5;" x1="111" x2="377" y1="279.0938" y2="279.0938"/><ellipse cx="121" cy="293.3984" fill="#84BE84" rx="3" ry="3" style="stroke:#038048;stroke-width:1.0;"/><text fill="#000000" font-family="sans-serif" font-size="14" lengthAdjust="spacing" textLength="72" x="130" y="297.627">void show()</text><ellipse cx="121" cy="311.0078" fill="#84BE84" rx="3" ry="3" style="stroke:#038048;stroke-width:1.0;"/><text fill="#000000" font-family="sans-serif" font-size="14" lengthAdjust="spacing" textLength="109" x="130" y="315.2363">void render(float)</text><ellipse cx="121" cy="328.6172" fill="#84BE84" rx="3" ry="3" style="stroke:#038048;stroke-width:1.0;"/><text fill="#000000" font-family="sans-serif" font-size="14" lengthAdjust="spacing" textLength="111" x="130" y="332.8457">void resize(int,int)</text><ellipse cx="121" cy="346.2266" fill="#84BE84" rx="3" ry="3" style="stroke:#038048;stroke-width:1.0;"/><text fill="#000000" font-family="sans-serif" font-size="14" lengthAdjust="spacing" textLength="79" x="130" y="350.4551">void pause()</text><ellipse cx="121" cy="363.8359" fill="#84BE84" rx="3" ry="3" style="stroke:#038048;stroke-width:1.0;"/><text fill="#000000" font-family="sans-serif" font-size="14" lengthAdjust="spacing" textLength="87" x="130" y="368.0645">void resume()</text><ellipse cx="121" cy="381.4453" fill="#84BE84" rx="3" ry="3" style="stroke:#038048;stroke-width:1.0;"/><text fill="#000000" font-family="sans-serif" font-size="14" lengthAdjust="spacing" textLength="67" x="130" y="385.6738">void hide()</text><ellipse cx="121" cy="399.0547" fill="#84BE84" rx="3" ry="3" style="stroke:#038048;stroke-width:1.0;"/><text fill="#000000" font-family="sans-serif" font-size="14" lengthAdjust="spacing" textLength="89" x="130" y="403.2832">void dispose()</text><ellipse cx="121" cy="416.6641" fill="#84BE84" rx="3" ry="3" style="stroke:#038048;stroke-width:1.0;"/><text fill="#000000" font-family="sans-serif" font-size="14" lengthAdjust="spacing" textLength="66" x="130" y="420.8926">void play()</text></g><!--MD5=[e28b97f13ebe0e0d0e1b4a0418369900]
class com.mygdx.game.engine.input.CustomInputProcessor--><g id="elem_com.mygdx.game.engine.input.CustomInputProcessor"><rect codeLine="34" fill="#F1F1F1" height="224.0938" id="com.mygdx.game.engine.input.CustomInputProcessor" rx="2.5" ry="2.5" style="stroke:#181818;stroke-width:0.5;" width="234" x="22" y="1151.6094"/><ellipse cx="63.55" cy="1167.6094" fill="#ADD1B2" rx="11" ry="11" style="stroke:#181818;stroke-width:1.0;"/><path d="M65.55,1164.1094 Q65.7531,1163.6094 65.9875,1163.3594 Q66.2219,1163.1094 66.4875,1163.1094 Q66.9563,1163.1094 67.2531,1163.3906 Q67.55,1163.6719 67.55,1164.3281 L67.55,1165.8906 Q67.55,1166.5469 67.2688,1166.8281 Q66.9875,1167.1094 66.55,1167.1094 Q66.1594,1167.1094 65.9094,1166.9375 Q65.6594,1166.7656 65.55,1166.3125 Q65.5031,1166 65.3313,1165.8281 Q65.0188,1165.5 64.4563,1165.3125 Q63.8938,1165.1094 63.3313,1165.1094 Q62.6281,1165.1094 62.0344,1165.3906 Q61.4563,1165.6719 61.0031,1166.2969 Q60.55,1166.9219 60.55,1167.7813 L60.55,1168.7031 Q60.55,1169.7344 61.3938,1170.4219 Q62.2375,1171.1094 63.7375,1171.1094 Q64.6281,1171.1094 65.2531,1170.9063 Q65.6125,1170.7969 66.0188,1170.4375 Q66.2844,1170.2344 66.425,1170.1719 Q66.5656,1170.1094 66.7375,1170.1094 Q67.0656,1170.1094 67.3,1170.375 Q67.55,1170.625 67.55,1170.9844 Q67.55,1171.3281 67.2063,1171.7344 Q66.7063,1172.3281 65.9094,1172.6563 Q64.8625,1173.1094 63.5813,1173.1094 Q62.0813,1173.1094 60.8781,1172.5156 Q59.9094,1172.0469 59.2219,1171.0313 Q58.55,1170.0156 58.55,1168.8125 L58.55,1167.7188 Q58.55,1166.4688 59.1438,1165.375 Q59.7531,1164.2813 60.8,1163.7031 Q61.8625,1163.1094 63.05,1163.1094 Q63.7688,1163.1094 64.3938,1163.3594 Q65.0188,1163.6094 65.55,1164.1094 Z " fill="#000000"/><text fill="#000000" font-family="sans-serif" font-size="14" lengthAdjust="spacing" textLength="143" x="83.45" y="1173.3379">CustomInputProcessor</text><line style="stroke:#181818;stroke-width:0.5;" x1="23" x2="255" y1="1183.6094" y2="1183.6094"/><line style="stroke:#181818;stroke-width:0.5;" x1="23" x2="255" y1="1191.6094" y2="1191.6094"/><ellipse cx="33" cy="1205.9141" fill="#84BE84" rx="3" ry="3" style="stroke:#038048;stroke-width:1.0;"/><text fill="#000000" font-family="sans-serif" font-size="14" lengthAdjust="spacing" textLength="168" x="42" y="1210.1426">boolean mouseClicked(int)</text><ellipse cx="33" cy="1223.5234" fill="#84BE84" rx="3" ry="3" style="stroke:#038048;stroke-width:1.0;"/><text fill="#000000" font-family="sans-serif" font-size="14" lengthAdjust="spacing" textLength="137" x="42" y="1227.752">boolean keyDown(int)</text><ellipse cx="33" cy="1241.1328" fill="#84BE84" rx="3" ry="3" style="stroke:#038048;stroke-width:1.0;"/><text fill="#000000" font-family="sans-serif" font-size="14" lengthAdjust="spacing" textLength="119" x="42" y="1245.3613">boolean keyUp(int)</text><ellipse cx="33" cy="1258.7422" fill="#84BE84" rx="3" ry="3" style="stroke:#038048;stroke-width:1.0;"/><text fill="#000000" font-family="sans-serif" font-size="14" lengthAdjust="spacing" textLength="155" x="42" y="1262.9707">boolean keyTyped(char)</text><ellipse cx="33" cy="1276.3516" fill="#84BE84" rx="3" ry="3" style="stroke:#038048;stroke-width:1.0;"/><text fill="#000000" font-family="sans-serif" font-size="14" lengthAdjust="spacing" textLength="207" x="42" y="1280.5801">boolean touchDown(int,int,int,int)</text><ellipse cx="33" cy="1293.9609" fill="#84BE84" rx="3" ry="3" style="stroke:#038048;stroke-width:1.0;"/><text fill="#000000" font-family="sans-serif" font-size="14" lengthAdjust="spacing" textLength="189" x="42" y="1298.1895">boolean touchUp(int,int,int,int)</text><ellipse cx="33" cy="1311.5703" fill="#84BE84" rx="3" ry="3" style="stroke:#038048;stroke-width:1.0;"/><text fill="#000000" font-family="sans-serif" font-size="14" lengthAdjust="spacing" textLength="208" x="42" y="1315.7988">boolean touchDragged(int,int,int)</text><ellipse cx="33" cy="1329.1797" fill="#84BE84" rx="3" ry="3" style="stroke:#038048;stroke-width:1.0;"/><text fill="#000000" font-family="sans-serif" font-size="14" lengthAdjust="spacing" textLength="183" x="42" y="1333.4082">boolean mouseMoved(int,int)</text><ellipse cx="33" cy="1346.7891" fill="#84BE84" rx="3" ry="3" style="stroke:#038048;stroke-width:1.0;"/><text fill="#000000" font-family="sans-serif" font-size="14" lengthAdjust="spacing" textLength="172" x="42" y="1351.0176">boolean scrolled(float,float)</text><ellipse cx="33" cy="1364.3984" fill="#84BE84" rx="3" ry="3" style="stroke:#038048;stroke-width:1.0;"/><text fill="#000000" font-family="sans-serif" font-size="14" lengthAdjust="spacing" textLength="184" x="42" y="1368.627">boolean mouseHoverOver(T)</text></g><!--MD5=[3de1ccafbb2233cb7ab977d18c48deb3]
class com.mygdx.game.game.components.ui.Button--><g id="elem_com.mygdx.game.game.components.ui.Button"><rect codeLine="47" fill="#F1F1F1" height="664.3281" id="com.mygdx.game.game.components.ui.Button" rx="2.5" ry="2.5" style="stroke:#181818;stroke-width:0.5;" width="194" x="356" y="931.6094"/><ellipse cx="428.25" cy="947.6094" fill="#ADD1B2" rx="11" ry="11" style="stroke:#181818;stroke-width:1.0;"/><path d="M430.25,944.1094 Q430.4531,943.6094 430.6875,943.3594 Q430.9219,943.1094 431.1875,943.1094 Q431.6563,943.1094 431.9531,943.3906 Q432.25,943.6719 432.25,944.3281 L432.25,945.8906 Q432.25,946.5469 431.9688,946.8281 Q431.6875,947.1094 431.25,947.1094 Q430.8594,947.1094 430.6094,946.9375 Q430.3594,946.7656 430.25,946.3125 Q430.2031,946 430.0313,945.8281 Q429.7188,945.5 429.1563,945.3125 Q428.5938,945.1094 428.0313,945.1094 Q427.3281,945.1094 426.7344,945.3906 Q426.1563,945.6719 425.7031,946.2969 Q425.25,946.9219 425.25,947.7813 L425.25,948.7031 Q425.25,949.7344 426.0938,950.4219 Q426.9375,951.1094 428.4375,951.1094 Q429.3281,951.1094 429.9531,950.9063 Q430.3125,950.7969 430.7188,950.4375 Q430.9844,950.2344 431.125,950.1719 Q431.2656,950.1094 431.4375,950.1094 Q431.7656,950.1094 432,950.375 Q432.25,950.625 432.25,950.9844 Q432.25,951.3281 431.9063,951.7344 Q431.4063,952.3281 430.6094,952.6563 Q429.5625,953.1094 428.2813,953.1094 Q426.7813,953.1094 425.5781,952.5156 Q424.6094,952.0469 423.9219,951.0313 Q423.25,950.0156 423.25,948.8125 L423.25,947.7188 Q423.25,946.4688 423.8438,945.375 Q424.4531,944.2813 425.5,943.7031 Q426.5625,943.1094 427.75,943.1094 Q428.4688,943.1094 429.0938,943.3594 Q429.7188,943.6094 430.25,944.1094 Z " fill="#000000"/><text fill="#000000" font-family="sans-serif" font-size="14" lengthAdjust="spacing" textLength="41" x="448.75" y="953.3379">Button</text><line style="stroke:#181818;stroke-width:0.5;" x1="357" x2="549" y1="963.6094" y2="963.6094"/><rect fill="none" height="6" style="stroke:#C82930;stroke-width:1.0;" width="6" x="364" y="974.9141"/><text fill="#000000" font-family="sans-serif" font-size="14" lengthAdjust="spacing" textLength="69" x="376" y="982.1426">Main game</text><rect fill="none" height="6" style="stroke:#C82930;stroke-width:1.0;" width="6" x="364" y="992.5234"/><text fill="#000000" font-family="sans-serif" font-size="14" lengthAdjust="spacing" textLength="127" x="376" y="999.752">Rectangle rectangle</text><rect fill="none" height="6" style="stroke:#C82930;stroke-width:1.0;" width="6" x="364" y="1010.1328"/><text fill="#000000" font-family="sans-serif" font-size="14" lengthAdjust="spacing" textLength="37" x="376" y="1017.3613">float x</text><rect fill="none" height="6" style="stroke:#C82930;stroke-width:1.0;" width="6" x="364" y="1027.7422"/><text fill="#000000" font-family="sans-serif" font-size="14" lengthAdjust="spacing" textLength="38" x="376" y="1034.9707">float y</text><rect fill="none" height="6" style="stroke:#C82930;stroke-width:1.0;" width="6" x="364" y="1045.3516"/><text fill="#000000" font-family="sans-serif" font-size="14" lengthAdjust="spacing" textLength="63" x="376" y="1052.5801">float width</text><rect fill="none" height="6" style="stroke:#C82930;stroke-width:1.0;" width="6" x="364" y="1062.9609"/><text fill="#000000" font-family="sans-serif" font-size="14" lengthAdjust="spacing" textLength="70" x="376" y="1070.1895">float height</text><rect fill="none" height="6" style="stroke:#C82930;stroke-width:1.0;" width="6" x="364" y="1080.5703"/><text fill="#000000" font-family="sans-serif" font-size="14" lengthAdjust="spacing" textLength="76" x="376" y="1087.7988">String name</text><rect fill="none" height="6" style="stroke:#C82930;stroke-width:1.0;" width="6" x="364" y="1098.1797"/><text fill="#000000" font-family="sans-serif" font-size="14" lengthAdjust="spacing" textLength="92" x="376" y="1105.4082">String imgPath</text><rect fill="none" height="6" style="stroke:#C82930;stroke-width:1.0;" width="6" x="364" y="1115.7891"/><text fill="#000000" font-family="sans-serif" font-size="14" lengthAdjust="spacing" textLength="95" x="376" y="1123.0176">Texture texture</text><rect fill="none" height="6" style="stroke:#C82930;stroke-width:1.0;" width="6" x="364" y="1133.3984"/><text fill="#000000" font-family="sans-serif" font-size="14" lengthAdjust="spacing" textLength="112" x="376" y="1140.627">SpriteBatch batch</text><rect fill="none" height="6" style="stroke:#C82930;stroke-width:1.0;" width="6" x="364" y="1151.0078"/><text fill="#000000" font-family="sans-serif" font-size="14" lengthAdjust="spacing" textLength="103" x="376" y="1158.2363">boolean visibility</text><rect fill="none" height="6" style="stroke:#C82930;stroke-width:1.0;" width="6" x="364" y="1168.6172"/><text fill="#000000" font-family="sans-serif" font-size="14" lengthAdjust="spacing" textLength="76" x="376" y="1175.8457">Sprite sprite</text><rect fill="none" height="6" style="stroke:#C82930;stroke-width:1.0;" width="6" x="364" y="1186.2266"/><text fill="#000000" font-family="sans-serif" font-size="14" lengthAdjust="spacing" textLength="92" x="376" y="1193.4551">boolean active</text><line style="stroke:#181818;stroke-width:0.5;" x1="357" x2="549" y1="1200.5313" y2="1200.5313"/><ellipse cx="367" cy="1214.8359" fill="#84BE84" rx="3" ry="3" style="stroke:#038048;stroke-width:1.0;"/><text fill="#000000" font-family="sans-serif" font-size="14" lengthAdjust="spacing" textLength="130" x="376" y="1219.0645">Texture getTexture()</text><ellipse cx="367" cy="1232.4453" fill="#84BE84" rx="3" ry="3" style="stroke:#038048;stroke-width:1.0;"/><text fill="#000000" font-family="sans-serif" font-size="14" lengthAdjust="spacing" textLength="155" x="376" y="1236.6738">void setTexture(Texture)</text><ellipse cx="367" cy="1250.0547" fill="#84BE84" rx="3" ry="3" style="stroke:#038048;stroke-width:1.0;"/><text fill="#000000" font-family="sans-serif" font-size="14" lengthAdjust="spacing" textLength="143" x="376" y="1254.2832">SpriteBatch getBatch()</text><ellipse cx="367" cy="1267.6641" fill="#84BE84" rx="3" ry="3" style="stroke:#038048;stroke-width:1.0;"/><text fill="#000000" font-family="sans-serif" font-size="14" lengthAdjust="spacing" textLength="168" x="376" y="1271.8926">void setBatch(SpriteBatch)</text><ellipse cx="367" cy="1285.2734" fill="#84BE84" rx="3" ry="3" style="stroke:#038048;stroke-width:1.0;"/><text fill="#000000" font-family="sans-serif" font-size="14" lengthAdjust="spacing" textLength="108" x="376" y="1289.502">Sprite getSprite()</text><ellipse cx="367" cy="1302.8828" fill="#84BE84" rx="3" ry="3" style="stroke:#038048;stroke-width:1.0;"/><text fill="#000000" font-family="sans-serif" font-size="14" lengthAdjust="spacing" textLength="133" x="376" y="1307.1113">void setSprite(Sprite)</text><ellipse cx="367" cy="1320.4922" fill="#84BE84" rx="3" ry="3" style="stroke:#038048;stroke-width:1.0;"/><text fill="#000000" font-family="sans-serif" font-size="14" lengthAdjust="spacing" textLength="135" x="376" y="1324.7207">boolean getVisibility()</text><ellipse cx="367" cy="1338.1016" fill="#84BE84" rx="3" ry="3" style="stroke:#038048;stroke-width:1.0;"/><text fill="#000000" font-family="sans-serif" font-size="14" lengthAdjust="spacing" textLength="160" x="376" y="1342.3301">void setVisibility(boolean)</text><ellipse cx="367" cy="1355.7109" fill="#84BE84" rx="3" ry="3" style="stroke:#038048;stroke-width:1.0;"/><text fill="#000000" font-family="sans-serif" font-size="14" lengthAdjust="spacing" textLength="113" x="376" y="1359.9395">boolean isActive()</text><ellipse cx="367" cy="1373.3203" fill="#84BE84" rx="3" ry="3" style="stroke:#038048;stroke-width:1.0;"/><text fill="#000000" font-family="sans-serif" font-size="14" lengthAdjust="spacing" textLength="148" x="376" y="1377.5488">void setActive(boolean)</text><ellipse cx="367" cy="1390.9297" fill="#84BE84" rx="3" ry="3" style="stroke:#038048;stroke-width:1.0;"/><text fill="#000000" font-family="sans-serif" font-size="14" lengthAdjust="spacing" textLength="168" x="376" y="1395.1582">void setButtonColor(Color)</text><ellipse cx="367" cy="1408.5391" fill="#84BE84" rx="3" ry="3" style="stroke:#038048;stroke-width:1.0;"/><text fill="#000000" font-family="sans-serif" font-size="14" lengthAdjust="spacing" textLength="69" x="376" y="1412.7676">float getX()</text><ellipse cx="367" cy="1426.1484" fill="#84BE84" rx="3" ry="3" style="stroke:#038048;stroke-width:1.0;"/><text fill="#000000" font-family="sans-serif" font-size="14" lengthAdjust="spacing" textLength="94" x="376" y="1430.377">void setX(float)</text><ellipse cx="367" cy="1443.7578" fill="#84BE84" rx="3" ry="3" style="stroke:#038048;stroke-width:1.0;"/><text fill="#000000" font-family="sans-serif" font-size="14" lengthAdjust="spacing" textLength="70" x="376" y="1447.9863">float getY()</text><ellipse cx="367" cy="1461.3672" fill="#84BE84" rx="3" ry="3" style="stroke:#038048;stroke-width:1.0;"/><text fill="#000000" font-family="sans-serif" font-size="14" lengthAdjust="spacing" textLength="95" x="376" y="1465.5957">void setY(float)</text><ellipse cx="367" cy="1478.9766" fill="#84BE84" rx="3" ry="3" style="stroke:#038048;stroke-width:1.0;"/><text fill="#000000" font-family="sans-serif" font-size="14" lengthAdjust="spacing" textLength="97" x="376" y="1483.2051">float getWidth()</text><ellipse cx="367" cy="1496.5859" fill="#84BE84" rx="3" ry="3" style="stroke:#038048;stroke-width:1.0;"/><text fill="#000000" font-family="sans-serif" font-size="14" lengthAdjust="spacing" textLength="122" x="376" y="1500.8145">void setWidth(float)</text><ellipse cx="367" cy="1514.1953" fill="#84BE84" rx="3" ry="3" style="stroke:#038048;stroke-width:1.0;"/><text fill="#000000" font-family="sans-serif" font-size="14" lengthAdjust="spacing" textLength="101" x="376" y="1518.4238">float getHeight()</text><ellipse cx="367" cy="1531.8047" fill="#84BE84" rx="3" ry="3" style="stroke:#038048;stroke-width:1.0;"/><text fill="#000000" font-family="sans-serif" font-size="14" lengthAdjust="spacing" textLength="126" x="376" y="1536.0332">void setHeight(float)</text><ellipse cx="367" cy="1549.4141" fill="#84BE84" rx="3" ry="3" style="stroke:#038048;stroke-width:1.0;"/><text fill="#000000" font-family="sans-serif" font-size="14" lengthAdjust="spacing" textLength="107" x="376" y="1553.6426">String getName()</text><ellipse cx="367" cy="1567.0234" fill="#84BE84" rx="3" ry="3" style="stroke:#038048;stroke-width:1.0;"/><text fill="#000000" font-family="sans-serif" font-size="14" lengthAdjust="spacing" textLength="132" x="376" y="1571.252">void setName(String)</text><ellipse cx="367" cy="1584.6328" fill="#84BE84" rx="3" ry="3" style="stroke:#038048;stroke-width:1.0;"/><text fill="#000000" font-family="sans-serif" font-size="14" lengthAdjust="spacing" textLength="139" x="376" y="1588.8613">Rectangle getBound()</text></g><!--MD5=[8dabf44012e0c35cdb962e8d25604219]
reverse link com.mygdx.game.game.screens.game.ControlScreen to com.mygdx.game.engine.input.CustomInputProcessor--><g id="link_com.mygdx.game.game.screens.game.ControlScreen_com.mygdx.game.engine.input.CustomInputProcessor"><path codeLine="85" d="M183,440.6494 C183,440.6494 183,1151.2994 183,1151.2994 " fill="none" id="com.mygdx.game.game.screens.game.ControlScreen-backto-com.mygdx.game.engine.input.CustomInputProcessor" style="stroke:#181818;stroke-width:1.0;"/><polygon fill="#181818" points="183,427.6494,179,433.6494,183,439.6494,187,433.6494,183,427.6494" style="stroke:#181818;stroke-width:1.0;"/><text fill="#000000" font-family="sans-serif" font-size="13" lengthAdjust="spacing" textLength="21" x="161" y="792.4645">has</text></g><!--MD5=[c085b8a014c9e402b71910a4cba1b60f]
reverse link com.mygdx.game.game.screens.game.ControlScreen to com.mygdx.game.game.components.ui.Button--><g id="link_com.mygdx.game.game.screens.game.ControlScreen_com.mygdx.game.game.components.ui.Button"><path codeLine="86" d="M367,440.6494 C367,440.6494 367,931.3894 367,931.3894 " fill="none" id="com.mygdx.game.game.screens.game.ControlScreen-backto-com.mygdx.game.game.components.ui.Button" style="stroke:#181818;stroke-width:1.0;"/><polygon fill="#181818" points="367,427.6494,363,433.6494,367,439.6494,371,433.6494,367,427.6494" style="stroke:#181818;stroke-width:1.0;"/><text fill="#000000" font-family="sans-serif" font-size="13" lengthAdjust="spacing" textLength="21" x="345" y="682.5145">has</text></g><!--MD5=[f9161117afc2257d7f8439827e47f909]
@startuml
skinparam linetype polyline
skinparam linetype ortho

skinparam nodesep 100
skinparam ranksep 100

skinparam titleBorderRoundCorner 15
skinparam titleBorderThickness 2
skinparam titleBorderColor red
skinparam titleBackgroundColor Aqua-CadetBlue

title ControlScreen Class Composition Relations

class com.mygdx.game.game.screens.game.ControlScreen {
- String imgPath
- Texture texture
- SpriteBatch batch
- Main game
- CustomInputProcessor inputProcessor
- OrthographicCamera camera
- Button playButton
- float buttonShowDelay
- Timer.Task buttonShowTask
+ void show()
+ void render(float)
+ void resize(int,int)
+ void pause()
+ void resume()
+ void hide()
+ void dispose()
+ void play()
}

class com.mygdx.game.engine.input.CustomInputProcessor {
+ boolean mouseClicked(int)
+ boolean keyDown(int)
+ boolean keyUp(int)
+ boolean keyTyped(char)
+ boolean touchDown(int,int,int,int)
+ boolean touchUp(int,int,int,int)
+ boolean touchDragged(int,int,int)
+ boolean mouseMoved(int,int)
+ boolean scrolled(float,float)
+ boolean mouseHoverOver(T)
}

class com.mygdx.game.game.components.ui.Button {
- Main game
- Rectangle rectangle
- float x
- float y
- float width
- float height
- String name
- String imgPath
- Texture texture
- SpriteBatch batch
- boolean visibility
- Sprite sprite
- boolean active
+ Texture getTexture()
+ void setTexture(Texture)
+ SpriteBatch getBatch()
+ void setBatch(SpriteBatch)
+ Sprite getSprite()
+ void setSprite(Sprite)
+ boolean getVisibility()
+ void setVisibility(boolean)
+ boolean isActive()
+ void setActive(boolean)
+ void setButtonColor(Color)
+ float getX()
+ void setX(float)
+ float getY()
+ void setY(float)
+ float getWidth()
+ void setWidth(float)
+ float getHeight()
+ void setHeight(float)
+ String getName()
+ void setName(String)
+ Rectangle getBound()
}

com.mygdx.game.game.screens.game.ControlScreen *- - - - - - com.mygdx.game.engine.input.CustomInputProcessor :has
com.mygdx.game.game.screens.game.ControlScreen *- - - - - - com.mygdx.game.game.components.ui.Button :has
@enduml

PlantUML version 1.2022.12(Mon Oct 24 02:12:26 SGT 2022)
(GPL source distribution)
Java Runtime: OpenJDK Runtime Environment
JVM: OpenJDK 64-Bit Server VM
Default Encoding: Cp1252
Language: en
Country: SG
--></g></svg>