<?xml version="1.0" encoding="UTF-8" standalone="no"?><svg xmlns="http://www.w3.org/2000/svg" xmlns:xlink="http://www.w3.org/1999/xlink" contentStyleType="text/css" height="1425px" preserveAspectRatio="none" style="width:1451px;height:1425px;background:#FFFFFF;" version="1.1" viewBox="0 0 1451 1425" width="1451px" zoomAndPan="magnify"><defs><linearGradient id="g1vr5uvqr1pfiv0" x1="50%" x2="50%" y1="0%" y2="100%"><stop offset="0%" stop-color="#00FFFF"/><stop offset="100%" stop-color="#5F9EA0"/></linearGradient></defs><g><rect fill="url(#g1vr5uvqr1pfiv0)" height="27.6094" id="_title" rx="7.5" ry="7.5" style="stroke:#FF0000;stroke-width:2.0;" width="282" x="577.5" y="5"/><text fill="#000000" font-family="sans-serif" font-size="14" font-weight="bold" lengthAdjust="spacing" textLength="272" x="582.5" y="24.5332">GamePlay Class Composition Relations</text><!--MD5=[2a00c780aa0b064af1c25fc99406271b]
cluster com.mygdx.game.game.logic--><g id="cluster_com.mygdx.game.game.logic"><path d="M554.5,44.6094 L755.5,44.6094 A3.75,3.75 0 0 1 758,47.1094 L765,68.2188 L849.5,68.2188 A2.5,2.5 0 0 1 852,70.7188 L852,459.1094 A2.5,2.5 0 0 1 849.5,461.6094 L554.5,461.6094 A2.5,2.5 0 0 1 552,459.1094 L552,47.1094 A2.5,2.5 0 0 1 554.5,44.6094 " fill="none" style="stroke:#000000;stroke-width:1.5;"/><line style="stroke:#000000;stroke-width:1.5;" x1="552" x2="765" y1="68.2188" y2="68.2188"/><text fill="#000000" font-family="sans-serif" font-size="14" font-weight="bold" lengthAdjust="spacing" textLength="200" x="556" y="61.1426">com.mygdx.game.game.logic</text></g><!--MD5=[f5720f8f2d84faa53b7e58c13b303426]
cluster com.mygdx.game.engine.lifecycle--><g id="cluster_com.mygdx.game.engine.lifecycle"><path d="M8.5,913.6094 L244.5,913.6094 A3.75,3.75 0 0 1 247,916.1094 L254,937.2188 L323.5,937.2188 A2.5,2.5 0 0 1 326,939.7188 L326,1416.1094 A2.5,2.5 0 0 1 323.5,1418.6094 L8.5,1418.6094 A2.5,2.5 0 0 1 6,1416.1094 L6,916.1094 A2.5,2.5 0 0 1 8.5,913.6094 " fill="none" style="stroke:#000000;stroke-width:1.5;"/><line style="stroke:#000000;stroke-width:1.5;" x1="6" x2="254" y1="937.2188" y2="937.2188"/><text fill="#000000" font-family="sans-serif" font-size="14" font-weight="bold" lengthAdjust="spacing" textLength="235" x="10" y="930.1426">com.mygdx.game.engine.lifecycle</text></g><!--MD5=[db2e1f00a229089377349fbd41189772]
cluster com.mygdx.game.game.components.game--><g id="cluster_com.mygdx.game.game.components.game"><path d="M396.5,922.6094 L692.5,922.6094 A3.75,3.75 0 0 1 695,925.1094 L702,946.2188 L1107.5,946.2188 A2.5,2.5 0 0 1 1110,948.7188 L1110,1407.1094 A2.5,2.5 0 0 1 1107.5,1409.6094 L396.5,1409.6094 A2.5,2.5 0 0 1 394,1407.1094 L394,925.1094 A2.5,2.5 0 0 1 396.5,922.6094 " fill="none" style="stroke:#000000;stroke-width:1.5;"/><line style="stroke:#000000;stroke-width:1.5;" x1="394" x2="702" y1="946.2188" y2="946.2188"/><text fill="#000000" font-family="sans-serif" font-size="14" font-weight="bold" lengthAdjust="spacing" textLength="295" x="398" y="939.1426">com.mygdx.game.game.components.game</text></g><!--MD5=[6d572adab93e1a2768c068c53f7d318b]
cluster com.mygdx.game.engine.input--><g id="cluster_com.mygdx.game.engine.input"><path d="M1180.5,1028.1094 L1394.5,1028.1094 A3.75,3.75 0 0 1 1397,1030.6094 L1404,1051.7188 L1441.5,1051.7188 A2.5,2.5 0 0 1 1444,1054.2188 L1444,1301.6094 A2.5,2.5 0 0 1 1441.5,1304.1094 L1180.5,1304.1094 A2.5,2.5 0 0 1 1178,1301.6094 L1178,1030.6094 A2.5,2.5 0 0 1 1180.5,1028.1094 " fill="none" style="stroke:#000000;stroke-width:1.5;"/><line style="stroke:#000000;stroke-width:1.5;" x1="1178" x2="1404" y1="1051.7188" y2="1051.7188"/><text fill="#000000" font-family="sans-serif" font-size="14" font-weight="bold" lengthAdjust="spacing" textLength="213" x="1182" y="1044.6426">com.mygdx.game.engine.input</text></g><!--MD5=[a646d36778a92f50d941f8929bbc8e30]
class com.mygdx.game.game.logic.GamePlay--><g id="elem_com.mygdx.game.game.logic.GamePlay"><rect codeLine="14" fill="#F1F1F1" height="364.9688" id="com.mygdx.game.game.logic.GamePlay" rx="2.5" ry="2.5" style="stroke:#181818;stroke-width:0.5;" width="268" x="568" y="80.6094"/><ellipse cx="665.25" cy="96.6094" fill="#ADD1B2" rx="11" ry="11" style="stroke:#181818;stroke-width:1.0;"/><path d="M667.25,93.1094 Q667.4531,92.6094 667.6875,92.3594 Q667.9219,92.1094 668.1875,92.1094 Q668.6563,92.1094 668.9531,92.3906 Q669.25,92.6719 669.25,93.3281 L669.25,94.8906 Q669.25,95.5469 668.9688,95.8281 Q668.6875,96.1094 668.25,96.1094 Q667.8594,96.1094 667.6094,95.9375 Q667.3594,95.7656 667.25,95.3125 Q667.2031,95 667.0313,94.8281 Q666.7188,94.5 666.1563,94.3125 Q665.5938,94.1094 665.0313,94.1094 Q664.3281,94.1094 663.7344,94.3906 Q663.1563,94.6719 662.7031,95.2969 Q662.25,95.9219 662.25,96.7813 L662.25,97.7031 Q662.25,98.7344 663.0938,99.4219 Q663.9375,100.1094 665.4375,100.1094 Q666.3281,100.1094 666.9531,99.9063 Q667.3125,99.7969 667.7188,99.4375 Q667.9844,99.2344 668.125,99.1719 Q668.2656,99.1094 668.4375,99.1094 Q668.7656,99.1094 669,99.375 Q669.25,99.625 669.25,99.9844 Q669.25,100.3281 668.9063,100.7344 Q668.4063,101.3281 667.6094,101.6563 Q666.5625,102.1094 665.2813,102.1094 Q663.7813,102.1094 662.5781,101.5156 Q661.6094,101.0469 660.9219,100.0313 Q660.25,99.0156 660.25,97.8125 L660.25,96.7188 Q660.25,95.4688 660.8438,94.375 Q661.4531,93.2813 662.5,92.7031 Q663.5625,92.1094 664.75,92.1094 Q665.4688,92.1094 666.0938,92.3594 Q666.7188,92.6094 667.25,93.1094 Z " fill="#000000"/><text fill="#000000" font-family="sans-serif" font-size="14" lengthAdjust="spacing" textLength="65" x="685.75" y="102.3379">GamePlay</text><line style="stroke:#181818;stroke-width:0.5;" x1="569" x2="835" y1="112.6094" y2="112.6094"/><rect fill="none" height="6" style="stroke:#C82930;stroke-width:1.0;" width="6" x="576" y="123.9141"/><text fill="#000000" font-family="sans-serif" font-size="14" lengthAdjust="spacing" textLength="69" x="588" y="131.1426">Main game</text><rect fill="none" height="6" style="stroke:#C82930;stroke-width:1.0;" width="6" x="576" y="141.5234"/><text fill="#000000" font-family="sans-serif" font-size="14" lengthAdjust="spacing" textLength="155" x="588" y="148.752">Background background</text><rect fill="none" height="6" style="stroke:#C82930;stroke-width:1.0;" width="6" x="576" y="159.1328"/><text fill="#000000" font-family="sans-serif" font-size="14" lengthAdjust="spacing" textLength="132" x="588" y="166.3613">int backgroundOffset</text><rect fill="none" height="6" style="stroke:#C82930;stroke-width:1.0;" width="6" x="576" y="176.7422"/><text fill="#000000" font-family="sans-serif" font-size="14" lengthAdjust="spacing" textLength="242" x="588" y="183.9707">CustomInputProcessor inputProcessor</text><rect fill="none" height="6" style="stroke:#C82930;stroke-width:1.0;" width="6" x="576" y="194.3516"/><text fill="#000000" font-family="sans-serif" font-size="14" lengthAdjust="spacing" textLength="127" x="588" y="201.5801">HealthBar healthBar</text><rect fill="none" height="6" style="stroke:#C82930;stroke-width:1.0;" width="6" x="576" y="211.9609"/><text fill="#000000" font-family="sans-serif" font-size="14" lengthAdjust="spacing" textLength="72" x="588" y="219.1895">int distance</text><rect fill="none" height="6" style="stroke:#C82930;stroke-width:1.0;" width="6" x="576" y="229.5703"/><text fill="#000000" font-family="sans-serif" font-size="14" lengthAdjust="spacing" textLength="115" x="588" y="236.7988">long lastDropTime</text><rect fill="none" height="6" style="stroke:#C82930;stroke-width:1.0;" width="6" x="576" y="247.1797"/><text fill="#000000" font-family="sans-serif" font-size="14" lengthAdjust="spacing" textLength="155" x="588" y="254.4082">long lastPlanetDropTime</text><rect fill="none" height="6" style="stroke:#C82930;stroke-width:1.0;" width="6" x="576" y="264.7891"/><text fill="#000000" font-family="sans-serif" font-size="14" lengthAdjust="spacing" textLength="121" x="588" y="272.0176">long lastShootTime</text><rect fill="none" height="6" style="stroke:#C82930;stroke-width:1.0;" width="6" x="576" y="282.3984"/><text fill="#000000" font-family="sans-serif" font-size="14" lengthAdjust="spacing" textLength="150" x="588" y="289.627">long lastShootTimeUFO</text><rect fill="none" height="6" style="stroke:#C82930;stroke-width:1.0;" width="6" x="576" y="300.0078"/><text fill="#000000" font-family="sans-serif" font-size="14" lengthAdjust="spacing" textLength="101" x="588" y="307.2363">float spawnRate</text><rect fill="none" height="6" style="stroke:#C82930;stroke-width:1.0;" width="6" x="576" y="317.6172"/><text fill="#000000" font-family="sans-serif" font-size="14" lengthAdjust="spacing" textLength="157" x="588" y="324.8457">float spawnRateMultiplier</text><rect fill="none" height="6" style="stroke:#C82930;stroke-width:1.0;" width="6" x="576" y="335.2266"/><text fill="#000000" font-family="sans-serif" font-size="14" lengthAdjust="spacing" textLength="171" x="588" y="342.4551">float lastTimeUFOSpawned</text><rect fill="none" height="6" style="stroke:#C82930;stroke-width:1.0;" width="6" x="576" y="352.8359"/><text fill="#000000" font-family="sans-serif" font-size="14" lengthAdjust="spacing" textLength="96" x="588" y="360.0645">boolean isDrop</text><rect fill="none" height="6" style="stroke:#C82930;stroke-width:1.0;" width="6" x="576" y="370.4453"/><text fill="#000000" font-family="sans-serif" font-size="14" lengthAdjust="spacing" textLength="118" x="588" y="377.6738">int nextPlanetIndex</text><rect fill="none" height="6" style="stroke:#C82930;stroke-width:1.0;" width="6" x="576" y="388.0547"/><text fill="#000000" font-family="sans-serif" font-size="14" lengthAdjust="spacing" textLength="107" x="588" y="395.2832">String nextPlanet</text><line style="stroke:#181818;stroke-width:0.5;" x1="569" x2="835" y1="402.3594" y2="402.3594"/><ellipse cx="579" cy="416.6641" fill="#84BE84" rx="3" ry="3" style="stroke:#038048;stroke-width:1.0;"/><text fill="#000000" font-family="sans-serif" font-size="14" lengthAdjust="spacing" textLength="80" x="588" y="420.8926">void create()</text><ellipse cx="579" cy="434.2734" fill="#84BE84" rx="3" ry="3" style="stroke:#038048;stroke-width:1.0;"/><text fill="#000000" font-family="sans-serif" font-size="14" lengthAdjust="spacing" textLength="82" x="588" y="438.502">void render()</text></g><!--MD5=[533628e9c9f667eb08bf66ebfc75b243]
class com.mygdx.game.engine.lifecycle.Main--><g id="elem_com.mygdx.game.engine.lifecycle.Main"><rect codeLine="35" fill="#F1F1F1" height="453.0156" id="com.mygdx.game.engine.lifecycle.Main" rx="2.5" ry="2.5" style="stroke:#181818;stroke-width:0.5;" width="287" x="22.5" y="949.6094"/><ellipse cx="146.75" cy="965.6094" fill="#ADD1B2" rx="11" ry="11" style="stroke:#181818;stroke-width:1.0;"/><path d="M148.75,962.1094 Q148.9531,961.6094 149.1875,961.3594 Q149.4219,961.1094 149.6875,961.1094 Q150.1563,961.1094 150.4531,961.3906 Q150.75,961.6719 150.75,962.3281 L150.75,963.8906 Q150.75,964.5469 150.4688,964.8281 Q150.1875,965.1094 149.75,965.1094 Q149.3594,965.1094 149.1094,964.9375 Q148.8594,964.7656 148.75,964.3125 Q148.7031,964 148.5313,963.8281 Q148.2188,963.5 147.6563,963.3125 Q147.0938,963.1094 146.5313,963.1094 Q145.8281,963.1094 145.2344,963.3906 Q144.6563,963.6719 144.2031,964.2969 Q143.75,964.9219 143.75,965.7813 L143.75,966.7031 Q143.75,967.7344 144.5938,968.4219 Q145.4375,969.1094 146.9375,969.1094 Q147.8281,969.1094 148.4531,968.9063 Q148.8125,968.7969 149.2188,968.4375 Q149.4844,968.2344 149.625,968.1719 Q149.7656,968.1094 149.9375,968.1094 Q150.2656,968.1094 150.5,968.375 Q150.75,968.625 150.75,968.9844 Q150.75,969.3281 150.4063,969.7344 Q149.9063,970.3281 149.1094,970.6563 Q148.0625,971.1094 146.7813,971.1094 Q145.2813,971.1094 144.0781,970.5156 Q143.1094,970.0469 142.4219,969.0313 Q141.75,968.0156 141.75,966.8125 L141.75,965.7188 Q141.75,964.4688 142.3438,963.375 Q142.9531,962.2813 144,961.7031 Q145.0625,961.1094 146.25,961.1094 Q146.9688,961.1094 147.5938,961.3594 Q148.2188,961.6094 148.75,962.1094 Z " fill="#000000"/><text fill="#000000" font-family="sans-serif" font-size="14" lengthAdjust="spacing" textLength="30" x="167.25" y="971.3379">Main</text><line style="stroke:#181818;stroke-width:0.5;" x1="23.5" x2="308.5" y1="981.6094" y2="981.6094"/><rect fill="none" height="6" style="stroke:#C82930;stroke-width:1.0;" width="6" x="30.5" y="992.9141"/><text fill="#000000" font-family="sans-serif" font-size="14" lengthAdjust="spacing" text-decoration="underline" textLength="87" x="42.5" y="1000.1426">Main instance</text><rect fill="none" height="6" style="stroke:#C82930;stroke-width:1.0;" width="6" x="30.5" y="1010.5234"/><text fill="#000000" font-family="sans-serif" font-size="14" lengthAdjust="spacing" textLength="204" x="42.5" y="1017.752">ScreenManager screenManager</text><rect fill="none" height="6" style="stroke:#C82930;stroke-width:1.0;" width="6" x="30.5" y="1028.1328"/><text fill="#000000" font-family="sans-serif" font-size="14" lengthAdjust="spacing" textLength="113" x="42.5" y="1035.3613">Preferences prefs</text><rect fill="none" height="6" style="stroke:#C82930;stroke-width:1.0;" width="6" x="30.5" y="1045.7422"/><text fill="#000000" font-family="sans-serif" font-size="14" lengthAdjust="spacing" textLength="196" x="42.5" y="1052.9707">SoundManager soundManager</text><ellipse cx="33.5" cy="1066.3516" fill="none" rx="3" ry="3" style="stroke:#038048;stroke-width:1.0;"/><text fill="#000000" font-family="sans-serif" font-size="14" lengthAdjust="spacing" textLength="185" x="42.5" y="1070.5801">EntityManager entityManager</text><rect fill="none" height="6" style="stroke:#C82930;stroke-width:1.0;" width="6" x="30.5" y="1080.9609"/><text fill="#000000" font-family="sans-serif" font-size="14" lengthAdjust="spacing" textLength="112" x="42.5" y="1088.1895">SpriteBatch batch</text><rect fill="none" height="6" style="stroke:#C82930;stroke-width:1.0;" width="6" x="30.5" y="1098.5703"/><text fill="#000000" font-family="sans-serif" font-size="14" lengthAdjust="spacing" textLength="100" x="42.5" y="1105.7988">BitmapFont font</text><ellipse cx="33.5" cy="1119.1797" fill="none" rx="3" ry="3" style="stroke:#038048;stroke-width:1.0;"/><text fill="#000000" font-family="sans-serif" font-size="14" lengthAdjust="spacing" textLength="69" x="42.5" y="1123.4082">int HEIGHT</text><ellipse cx="33.5" cy="1136.7891" fill="none" rx="3" ry="3" style="stroke:#038048;stroke-width:1.0;"/><text fill="#000000" font-family="sans-serif" font-size="14" lengthAdjust="spacing" textLength="63" x="42.5" y="1141.0176">int WIDTH</text><line style="stroke:#181818;stroke-width:0.5;" x1="23.5" x2="308.5" y1="1148.0938" y2="1148.0938"/><ellipse cx="33.5" cy="1162.3984" fill="#84BE84" rx="3" ry="3" style="stroke:#038048;stroke-width:1.0;"/><text fill="#000000" font-family="sans-serif" font-size="14" lengthAdjust="spacing" text-decoration="underline" textLength="117" x="42.5" y="1166.627">Main getInstance()</text><ellipse cx="33.5" cy="1180.0078" fill="#84BE84" rx="3" ry="3" style="stroke:#038048;stroke-width:1.0;"/><text fill="#000000" font-family="sans-serif" font-size="14" lengthAdjust="spacing" textLength="236" x="42.5" y="1184.2363">ScreenManager getScreenManager()</text><ellipse cx="33.5" cy="1197.6172" fill="#84BE84" rx="3" ry="3" style="stroke:#038048;stroke-width:1.0;"/><text fill="#000000" font-family="sans-serif" font-size="14" lengthAdjust="spacing" textLength="261" x="42.5" y="1201.8457">void setScreenManager(ScreenManager)</text><ellipse cx="33.5" cy="1215.2266" fill="#84BE84" rx="3" ry="3" style="stroke:#038048;stroke-width:1.0;"/><text fill="#000000" font-family="sans-serif" font-size="14" lengthAdjust="spacing" textLength="228" x="42.5" y="1219.4551">SoundManager getSoundManager()</text><ellipse cx="33.5" cy="1232.8359" fill="#84BE84" rx="3" ry="3" style="stroke:#038048;stroke-width:1.0;"/><text fill="#000000" font-family="sans-serif" font-size="14" lengthAdjust="spacing" textLength="253" x="42.5" y="1237.0645">void setSoundManager(SoundManager)</text><ellipse cx="33.5" cy="1250.4453" fill="#84BE84" rx="3" ry="3" style="stroke:#038048;stroke-width:1.0;"/><text fill="#000000" font-family="sans-serif" font-size="14" lengthAdjust="spacing" textLength="143" x="42.5" y="1254.6738">SpriteBatch getBatch()</text><ellipse cx="33.5" cy="1268.0547" fill="#84BE84" rx="3" ry="3" style="stroke:#038048;stroke-width:1.0;"/><text fill="#000000" font-family="sans-serif" font-size="14" lengthAdjust="spacing" textLength="168" x="42.5" y="1272.2832">void setBatch(SpriteBatch)</text><ellipse cx="33.5" cy="1285.6641" fill="#84BE84" rx="3" ry="3" style="stroke:#038048;stroke-width:1.0;"/><text fill="#000000" font-family="sans-serif" font-size="14" lengthAdjust="spacing" textLength="135" x="42.5" y="1289.8926">BitmapFont getFont()</text><ellipse cx="33.5" cy="1303.2734" fill="#84BE84" rx="3" ry="3" style="stroke:#038048;stroke-width:1.0;"/><text fill="#000000" font-family="sans-serif" font-size="14" lengthAdjust="spacing" textLength="160" x="42.5" y="1307.502">void setFont(BitmapFont)</text><ellipse cx="33.5" cy="1320.8828" fill="#84BE84" rx="3" ry="3" style="stroke:#038048;stroke-width:1.0;"/><text fill="#000000" font-family="sans-serif" font-size="14" lengthAdjust="spacing" textLength="144" x="42.5" y="1325.1113">Preferences getPrefs()</text><ellipse cx="33.5" cy="1338.4922" fill="#84BE84" rx="3" ry="3" style="stroke:#038048;stroke-width:1.0;"/><text fill="#000000" font-family="sans-serif" font-size="14" lengthAdjust="spacing" textLength="169" x="42.5" y="1342.7207">void setPrefs(Preferences)</text><ellipse cx="33.5" cy="1356.1016" fill="#84BE84" rx="3" ry="3" style="stroke:#038048;stroke-width:1.0;"/><text fill="#000000" font-family="sans-serif" font-size="14" lengthAdjust="spacing" textLength="80" x="42.5" y="1360.3301">void create()</text><ellipse cx="33.5" cy="1373.7109" fill="#84BE84" rx="3" ry="3" style="stroke:#038048;stroke-width:1.0;"/><text fill="#000000" font-family="sans-serif" font-size="14" lengthAdjust="spacing" textLength="82" x="42.5" y="1377.9395">void render()</text><ellipse cx="33.5" cy="1391.3203" fill="#84BE84" rx="3" ry="3" style="stroke:#038048;stroke-width:1.0;"/><text fill="#000000" font-family="sans-serif" font-size="14" lengthAdjust="spacing" textLength="89" x="42.5" y="1395.5488">void dispose()</text></g><!--MD5=[163ad3df713cd483b561a416b8f6f749]
class com.mygdx.game.game.components.game.Background--><g id="elem_com.mygdx.game.game.components.game.Background"><rect codeLine="61" fill="#F1F1F1" height="153.6563" id="com.mygdx.game.game.components.game.Background" rx="2.5" ry="2.5" style="stroke:#181818;stroke-width:0.5;" width="194" x="410" y="1099.1094"/><ellipse cx="464.75" cy="1115.1094" fill="#ADD1B2" rx="11" ry="11" style="stroke:#181818;stroke-width:1.0;"/><path d="M466.75,1111.6094 Q466.9531,1111.1094 467.1875,1110.8594 Q467.4219,1110.6094 467.6875,1110.6094 Q468.1563,1110.6094 468.4531,1110.8906 Q468.75,1111.1719 468.75,1111.8281 L468.75,1113.3906 Q468.75,1114.0469 468.4688,1114.3281 Q468.1875,1114.6094 467.75,1114.6094 Q467.3594,1114.6094 467.1094,1114.4375 Q466.8594,1114.2656 466.75,1113.8125 Q466.7031,1113.5 466.5313,1113.3281 Q466.2188,1113 465.6563,1112.8125 Q465.0938,1112.6094 464.5313,1112.6094 Q463.8281,1112.6094 463.2344,1112.8906 Q462.6563,1113.1719 462.2031,1113.7969 Q461.75,1114.4219 461.75,1115.2813 L461.75,1116.2031 Q461.75,1117.2344 462.5938,1117.9219 Q463.4375,1118.6094 464.9375,1118.6094 Q465.8281,1118.6094 466.4531,1118.4063 Q466.8125,1118.2969 467.2188,1117.9375 Q467.4844,1117.7344 467.625,1117.6719 Q467.7656,1117.6094 467.9375,1117.6094 Q468.2656,1117.6094 468.5,1117.875 Q468.75,1118.125 468.75,1118.4844 Q468.75,1118.8281 468.4063,1119.2344 Q467.9063,1119.8281 467.1094,1120.1563 Q466.0625,1120.6094 464.7813,1120.6094 Q463.2813,1120.6094 462.0781,1120.0156 Q461.1094,1119.5469 460.4219,1118.5313 Q459.75,1117.5156 459.75,1116.3125 L459.75,1115.2188 Q459.75,1113.9688 460.3438,1112.875 Q460.9531,1111.7813 462,1111.2031 Q463.0625,1110.6094 464.25,1110.6094 Q464.9688,1110.6094 465.5938,1110.8594 Q466.2188,1111.1094 466.75,1111.6094 Z " fill="#000000"/><text fill="#000000" font-family="sans-serif" font-size="14" lengthAdjust="spacing" textLength="76" x="485.25" y="1120.8379">Background</text><line style="stroke:#181818;stroke-width:0.5;" x1="411" x2="603" y1="1131.1094" y2="1131.1094"/><rect fill="none" height="6" style="stroke:#C82930;stroke-width:1.0;" width="6" x="418" y="1142.4141"/><text fill="#000000" font-family="sans-serif" font-size="14" lengthAdjust="spacing" textLength="95" x="430" y="1149.6426">Texture texture</text><rect fill="none" height="6" style="stroke:#C82930;stroke-width:1.0;" width="6" x="418" y="1160.0234"/><text fill="#000000" font-family="sans-serif" font-size="14" lengthAdjust="spacing" textLength="112" x="430" y="1167.252">SpriteBatch batch</text><line style="stroke:#181818;stroke-width:0.5;" x1="411" x2="603" y1="1174.3281" y2="1174.3281"/><ellipse cx="421" cy="1188.6328" fill="#84BE84" rx="3" ry="3" style="stroke:#038048;stroke-width:1.0;"/><text fill="#000000" font-family="sans-serif" font-size="14" lengthAdjust="spacing" textLength="130" x="430" y="1192.8613">Texture getTexture()</text><ellipse cx="421" cy="1206.2422" fill="#84BE84" rx="3" ry="3" style="stroke:#038048;stroke-width:1.0;"/><text fill="#000000" font-family="sans-serif" font-size="14" lengthAdjust="spacing" textLength="155" x="430" y="1210.4707">void setTexture(Texture)</text><ellipse cx="421" cy="1223.8516" fill="#84BE84" rx="3" ry="3" style="stroke:#038048;stroke-width:1.0;"/><text fill="#000000" font-family="sans-serif" font-size="14" lengthAdjust="spacing" textLength="143" x="430" y="1228.0801">SpriteBatch getBatch()</text><ellipse cx="421" cy="1241.4609" fill="#84BE84" rx="3" ry="3" style="stroke:#038048;stroke-width:1.0;"/><text fill="#000000" font-family="sans-serif" font-size="14" lengthAdjust="spacing" textLength="168" x="430" y="1245.6895">void setBatch(SpriteBatch)</text></g><!--MD5=[f60c6ecadd00d2d5727352cc274671b8]
class com.mygdx.game.game.components.game.HealthBar--><g id="elem_com.mygdx.game.game.components.game.HealthBar"><rect codeLine="83" fill="#F1F1F1" height="435.4063" id="com.mygdx.game.game.components.game.HealthBar" rx="2.5" ry="2.5" style="stroke:#181818;stroke-width:0.5;" width="390" x="704" y="958.6094"/><ellipse cx="863.75" cy="974.6094" fill="#ADD1B2" rx="11" ry="11" style="stroke:#181818;stroke-width:1.0;"/><path d="M865.75,971.1094 Q865.9531,970.6094 866.1875,970.3594 Q866.4219,970.1094 866.6875,970.1094 Q867.1563,970.1094 867.4531,970.3906 Q867.75,970.6719 867.75,971.3281 L867.75,972.8906 Q867.75,973.5469 867.4688,973.8281 Q867.1875,974.1094 866.75,974.1094 Q866.3594,974.1094 866.1094,973.9375 Q865.8594,973.7656 865.75,973.3125 Q865.7031,973 865.5313,972.8281 Q865.2188,972.5 864.6563,972.3125 Q864.0938,972.1094 863.5313,972.1094 Q862.8281,972.1094 862.2344,972.3906 Q861.6563,972.6719 861.2031,973.2969 Q860.75,973.9219 860.75,974.7813 L860.75,975.7031 Q860.75,976.7344 861.5938,977.4219 Q862.4375,978.1094 863.9375,978.1094 Q864.8281,978.1094 865.4531,977.9063 Q865.8125,977.7969 866.2188,977.4375 Q866.4844,977.2344 866.625,977.1719 Q866.7656,977.1094 866.9375,977.1094 Q867.2656,977.1094 867.5,977.375 Q867.75,977.625 867.75,977.9844 Q867.75,978.3281 867.4063,978.7344 Q866.9063,979.3281 866.1094,979.6563 Q865.0625,980.1094 863.7813,980.1094 Q862.2813,980.1094 861.0781,979.5156 Q860.1094,979.0469 859.4219,978.0313 Q858.75,977.0156 858.75,975.8125 L858.75,974.7188 Q858.75,973.4688 859.3438,972.375 Q859.9531,971.2813 861,970.7031 Q862.0625,970.1094 863.25,970.1094 Q863.9688,970.1094 864.5938,970.3594 Q865.2188,970.6094 865.75,971.1094 Z " fill="#000000"/><text fill="#000000" font-family="sans-serif" font-size="14" lengthAdjust="spacing" textLength="62" x="884.25" y="980.3379">HealthBar</text><line style="stroke:#181818;stroke-width:0.5;" x1="705" x2="1093" y1="990.6094" y2="990.6094"/><rect fill="none" height="6" style="stroke:#C82930;stroke-width:1.0;" width="6" x="712" y="1001.9141"/><text fill="#000000" font-family="sans-serif" font-size="14" lengthAdjust="spacing" textLength="204" x="724" y="1009.1426">ShapeRenderer shapeRenderer</text><rect fill="none" height="6" style="stroke:#C82930;stroke-width:1.0;" width="6" x="712" y="1019.5234"/><text fill="#000000" font-family="sans-serif" font-size="14" lengthAdjust="spacing" textLength="112" x="724" y="1026.752">SpriteBatch batch</text><rect fill="none" height="6" style="stroke:#C82930;stroke-width:1.0;" width="6" x="712" y="1037.1328"/><text fill="#000000" font-family="sans-serif" font-size="14" lengthAdjust="spacing" textLength="100" x="724" y="1044.3613">BitmapFont font</text><rect fill="none" height="6" style="stroke:#C82930;stroke-width:1.0;" width="6" x="712" y="1054.7422"/><text fill="#000000" font-family="sans-serif" font-size="14" lengthAdjust="spacing" textLength="74" x="724" y="1061.9707">int startingX</text><rect fill="none" height="6" style="stroke:#C82930;stroke-width:1.0;" width="6" x="712" y="1072.3516"/><text fill="#000000" font-family="sans-serif" font-size="14" lengthAdjust="spacing" textLength="75" x="724" y="1079.5801">int startingY</text><rect fill="none" height="6" style="stroke:#C82930;stroke-width:1.0;" width="6" x="712" y="1089.9609"/><text fill="#000000" font-family="sans-serif" font-size="14" lengthAdjust="spacing" textLength="51" x="724" y="1097.1895">int width</text><rect fill="none" height="6" style="stroke:#C82930;stroke-width:1.0;" width="6" x="712" y="1107.5703"/><text fill="#000000" font-family="sans-serif" font-size="14" lengthAdjust="spacing" textLength="58" x="724" y="1114.7988">int height</text><line style="stroke:#181818;stroke-width:0.5;" x1="705" x2="1093" y1="1121.875" y2="1121.875"/><ellipse cx="715" cy="1136.1797" fill="#84BE84" rx="3" ry="3" style="stroke:#038048;stroke-width:1.0;"/><text fill="#000000" font-family="sans-serif" font-size="14" lengthAdjust="spacing" textLength="364" x="724" y="1140.4082">void drawHealthBars(ArrayList&lt;CollidableEntity&lt;Player&gt;&gt;)</text><ellipse cx="715" cy="1153.7891" fill="#84BE84" rx="3" ry="3" style="stroke:#038048;stroke-width:1.0;"/><text fill="#000000" font-family="sans-serif" font-size="14" lengthAdjust="spacing" textLength="236" x="724" y="1158.0176">ShapeRenderer getShapeRenderer()</text><ellipse cx="715" cy="1171.3984" fill="#84BE84" rx="3" ry="3" style="stroke:#038048;stroke-width:1.0;"/><text fill="#000000" font-family="sans-serif" font-size="14" lengthAdjust="spacing" textLength="261" x="724" y="1175.627">void setShapeRenderer(ShapeRenderer)</text><ellipse cx="715" cy="1189.0078" fill="#84BE84" rx="3" ry="3" style="stroke:#038048;stroke-width:1.0;"/><text fill="#000000" font-family="sans-serif" font-size="14" lengthAdjust="spacing" textLength="143" x="724" y="1193.2363">SpriteBatch getBatch()</text><ellipse cx="715" cy="1206.6172" fill="#84BE84" rx="3" ry="3" style="stroke:#038048;stroke-width:1.0;"/><text fill="#000000" font-family="sans-serif" font-size="14" lengthAdjust="spacing" textLength="168" x="724" y="1210.8457">void setBatch(SpriteBatch)</text><ellipse cx="715" cy="1224.2266" fill="#84BE84" rx="3" ry="3" style="stroke:#038048;stroke-width:1.0;"/><text fill="#000000" font-family="sans-serif" font-size="14" lengthAdjust="spacing" textLength="135" x="724" y="1228.4551">BitmapFont getFont()</text><ellipse cx="715" cy="1241.8359" fill="#84BE84" rx="3" ry="3" style="stroke:#038048;stroke-width:1.0;"/><text fill="#000000" font-family="sans-serif" font-size="14" lengthAdjust="spacing" textLength="160" x="724" y="1246.0645">void setFont(BitmapFont)</text><ellipse cx="715" cy="1259.4453" fill="#84BE84" rx="3" ry="3" style="stroke:#038048;stroke-width:1.0;"/><text fill="#000000" font-family="sans-serif" font-size="14" lengthAdjust="spacing" textLength="106" x="724" y="1263.6738">int getStartingX()</text><ellipse cx="715" cy="1277.0547" fill="#84BE84" rx="3" ry="3" style="stroke:#038048;stroke-width:1.0;"/><text fill="#000000" font-family="sans-serif" font-size="14" lengthAdjust="spacing" textLength="131" x="724" y="1281.2832">void setStartingX(int)</text><ellipse cx="715" cy="1294.6641" fill="#84BE84" rx="3" ry="3" style="stroke:#038048;stroke-width:1.0;"/><text fill="#000000" font-family="sans-serif" font-size="14" lengthAdjust="spacing" textLength="107" x="724" y="1298.8926">int getStartingY()</text><ellipse cx="715" cy="1312.2734" fill="#84BE84" rx="3" ry="3" style="stroke:#038048;stroke-width:1.0;"/><text fill="#000000" font-family="sans-serif" font-size="14" lengthAdjust="spacing" textLength="132" x="724" y="1316.502">void setStartingY(int)</text><ellipse cx="715" cy="1329.8828" fill="#84BE84" rx="3" ry="3" style="stroke:#038048;stroke-width:1.0;"/><text fill="#000000" font-family="sans-serif" font-size="14" lengthAdjust="spacing" textLength="85" x="724" y="1334.1113">int getWidth()</text><ellipse cx="715" cy="1347.4922" fill="#84BE84" rx="3" ry="3" style="stroke:#038048;stroke-width:1.0;"/><text fill="#000000" font-family="sans-serif" font-size="14" lengthAdjust="spacing" textLength="110" x="724" y="1351.7207">void setWidth(int)</text><ellipse cx="715" cy="1365.1016" fill="#84BE84" rx="3" ry="3" style="stroke:#038048;stroke-width:1.0;"/><text fill="#000000" font-family="sans-serif" font-size="14" lengthAdjust="spacing" textLength="89" x="724" y="1369.3301">int getHeight()</text><ellipse cx="715" cy="1382.7109" fill="#84BE84" rx="3" ry="3" style="stroke:#038048;stroke-width:1.0;"/><text fill="#000000" font-family="sans-serif" font-size="14" lengthAdjust="spacing" textLength="114" x="724" y="1386.9395">void setHeight(int)</text></g><!--MD5=[e28b97f13ebe0e0d0e1b4a0418369900]
class com.mygdx.game.engine.input.CustomInputProcessor--><g id="elem_com.mygdx.game.engine.input.CustomInputProcessor"><rect codeLine="70" fill="#F1F1F1" height="224.0938" id="com.mygdx.game.engine.input.CustomInputProcessor" rx="2.5" ry="2.5" style="stroke:#181818;stroke-width:0.5;" width="234" x="1194" y="1064.1094"/><ellipse cx="1235.55" cy="1080.1094" fill="#ADD1B2" rx="11" ry="11" style="stroke:#181818;stroke-width:1.0;"/><path d="M1237.55,1076.6094 Q1237.7531,1076.1094 1237.9875,1075.8594 Q1238.2219,1075.6094 1238.4875,1075.6094 Q1238.9563,1075.6094 1239.2531,1075.8906 Q1239.55,1076.1719 1239.55,1076.8281 L1239.55,1078.3906 Q1239.55,1079.0469 1239.2688,1079.3281 Q1238.9875,1079.6094 1238.55,1079.6094 Q1238.1594,1079.6094 1237.9094,1079.4375 Q1237.6594,1079.2656 1237.55,1078.8125 Q1237.5031,1078.5 1237.3313,1078.3281 Q1237.0188,1078 1236.4563,1077.8125 Q1235.8938,1077.6094 1235.3313,1077.6094 Q1234.6281,1077.6094 1234.0344,1077.8906 Q1233.4563,1078.1719 1233.0031,1078.7969 Q1232.55,1079.4219 1232.55,1080.2813 L1232.55,1081.2031 Q1232.55,1082.2344 1233.3938,1082.9219 Q1234.2375,1083.6094 1235.7375,1083.6094 Q1236.6281,1083.6094 1237.2531,1083.4063 Q1237.6125,1083.2969 1238.0188,1082.9375 Q1238.2844,1082.7344 1238.425,1082.6719 Q1238.5656,1082.6094 1238.7375,1082.6094 Q1239.0656,1082.6094 1239.3,1082.875 Q1239.55,1083.125 1239.55,1083.4844 Q1239.55,1083.8281 1239.2063,1084.2344 Q1238.7063,1084.8281 1237.9094,1085.1563 Q1236.8625,1085.6094 1235.5813,1085.6094 Q1234.0813,1085.6094 1232.8781,1085.0156 Q1231.9094,1084.5469 1231.2219,1083.5313 Q1230.55,1082.5156 1230.55,1081.3125 L1230.55,1080.2188 Q1230.55,1078.9688 1231.1438,1077.875 Q1231.7531,1076.7813 1232.8,1076.2031 Q1233.8625,1075.6094 1235.05,1075.6094 Q1235.7688,1075.6094 1236.3938,1075.8594 Q1237.0188,1076.1094 1237.55,1076.6094 Z " fill="#000000"/><text fill="#000000" font-family="sans-serif" font-size="14" lengthAdjust="spacing" textLength="143" x="1255.45" y="1085.8379">CustomInputProcessor</text><line style="stroke:#181818;stroke-width:0.5;" x1="1195" x2="1427" y1="1096.1094" y2="1096.1094"/><line style="stroke:#181818;stroke-width:0.5;" x1="1195" x2="1427" y1="1104.1094" y2="1104.1094"/><ellipse cx="1205" cy="1118.4141" fill="#84BE84" rx="3" ry="3" style="stroke:#038048;stroke-width:1.0;"/><text fill="#000000" font-family="sans-serif" font-size="14" lengthAdjust="spacing" textLength="168" x="1214" y="1122.6426">boolean mouseClicked(int)</text><ellipse cx="1205" cy="1136.0234" fill="#84BE84" rx="3" ry="3" style="stroke:#038048;stroke-width:1.0;"/><text fill="#000000" font-family="sans-serif" font-size="14" lengthAdjust="spacing" textLength="137" x="1214" y="1140.252">boolean keyDown(int)</text><ellipse cx="1205" cy="1153.6328" fill="#84BE84" rx="3" ry="3" style="stroke:#038048;stroke-width:1.0;"/><text fill="#000000" font-family="sans-serif" font-size="14" lengthAdjust="spacing" textLength="119" x="1214" y="1157.8613">boolean keyUp(int)</text><ellipse cx="1205" cy="1171.2422" fill="#84BE84" rx="3" ry="3" style="stroke:#038048;stroke-width:1.0;"/><text fill="#000000" font-family="sans-serif" font-size="14" lengthAdjust="spacing" textLength="155" x="1214" y="1175.4707">boolean keyTyped(char)</text><ellipse cx="1205" cy="1188.8516" fill="#84BE84" rx="3" ry="3" style="stroke:#038048;stroke-width:1.0;"/><text fill="#000000" font-family="sans-serif" font-size="14" lengthAdjust="spacing" textLength="207" x="1214" y="1193.0801">boolean touchDown(int,int,int,int)</text><ellipse cx="1205" cy="1206.4609" fill="#84BE84" rx="3" ry="3" style="stroke:#038048;stroke-width:1.0;"/><text fill="#000000" font-family="sans-serif" font-size="14" lengthAdjust="spacing" textLength="189" x="1214" y="1210.6895">boolean touchUp(int,int,int,int)</text><ellipse cx="1205" cy="1224.0703" fill="#84BE84" rx="3" ry="3" style="stroke:#038048;stroke-width:1.0;"/><text fill="#000000" font-family="sans-serif" font-size="14" lengthAdjust="spacing" textLength="208" x="1214" y="1228.2988">boolean touchDragged(int,int,int)</text><ellipse cx="1205" cy="1241.6797" fill="#84BE84" rx="3" ry="3" style="stroke:#038048;stroke-width:1.0;"/><text fill="#000000" font-family="sans-serif" font-size="14" lengthAdjust="spacing" textLength="183" x="1214" y="1245.9082">boolean mouseMoved(int,int)</text><ellipse cx="1205" cy="1259.2891" fill="#84BE84" rx="3" ry="3" style="stroke:#038048;stroke-width:1.0;"/><text fill="#000000" font-family="sans-serif" font-size="14" lengthAdjust="spacing" textLength="172" x="1214" y="1263.5176">boolean scrolled(float,float)</text><ellipse cx="1205" cy="1276.8984" fill="#84BE84" rx="3" ry="3" style="stroke:#038048;stroke-width:1.0;"/><text fill="#000000" font-family="sans-serif" font-size="14" lengthAdjust="spacing" textLength="184" x="1214" y="1281.127">boolean mouseHoverOver(T)</text></g><!--MD5=[0cde85f5114a97b8432e5303318cb732]
reverse link com.mygdx.game.game.logic.GamePlay to com.mygdx.game.engine.lifecycle.Main--><g id="link_com.mygdx.game.game.logic.GamePlay_com.mygdx.game.engine.lifecycle.Main"><path codeLine="108" d="M580,458.6994 C580,458.6994 580,954.6094 580,954.6094 C580,954.6094 429.21,954.6094 309.64,954.6094 " fill="none" id="com.mygdx.game.game.logic.GamePlay-backto-com.mygdx.game.engine.lifecycle.Main" style="stroke:#181818;stroke-width:1.0;"/><polygon fill="#181818" points="580,445.6994,576,451.6994,580,457.6994,584,451.6994,580,445.6994" style="stroke:#181818;stroke-width:1.0;"/><text fill="#000000" font-family="sans-serif" font-size="13" lengthAdjust="spacing" textLength="21" x="558" y="838.3345">has</text></g><!--MD5=[c89ec23a60b6bf19e9d302c1a13b892d]
reverse link com.mygdx.game.game.logic.GamePlay to com.mygdx.game.game.components.game.Background--><g id="link_com.mygdx.game.game.logic.GamePlay_com.mygdx.game.game.components.game.Background"><path codeLine="109" d="M592,458.6694 C592,458.6694 592,1098.8894 592,1098.8894 " fill="none" id="com.mygdx.game.game.logic.GamePlay-backto-com.mygdx.game.game.components.game.Background" style="stroke:#181818;stroke-width:1.0;"/><polygon fill="#181818" points="592,445.6694,588,451.6694,592,457.6694,596,451.6694,592,445.6694" style="stroke:#181818;stroke-width:1.0;"/><text fill="#000000" font-family="sans-serif" font-size="13" lengthAdjust="spacing" textLength="21" x="570" y="775.2745">has</text></g><!--MD5=[ac71d61decd9557b311d1f1b58a87823]
reverse link com.mygdx.game.game.logic.GamePlay to com.mygdx.game.engine.input.CustomInputProcessor--><g id="link_com.mygdx.game.game.logic.GamePlay_com.mygdx.game.engine.input.CustomInputProcessor"><path codeLine="110" d="M849.02,263.6094 C849.02,263.6094 1311,263.6094 1311,263.6094 C1311,263.6094 1311,819.8594 1311,1063.7594 " fill="none" id="com.mygdx.game.game.logic.GamePlay-backto-com.mygdx.game.engine.input.CustomInputProcessor" style="stroke:#181818;stroke-width:1.0;"/><polygon fill="#181818" points="836.02,263.6094,842.02,267.6094,848.02,263.6094,842.02,259.6094,836.02,263.6094" style="stroke:#181818;stroke-width:1.0;"/><text fill="#000000" font-family="sans-serif" font-size="13" lengthAdjust="spacing" textLength="21" x="1289" y="429.1945">has</text></g><!--MD5=[bbd40775d90ec9a70930803f175c9519]
reverse link com.mygdx.game.game.logic.GamePlay to com.mygdx.game.game.components.game.HealthBar--><g id="link_com.mygdx.game.game.logic.GamePlay_com.mygdx.game.game.components.game.HealthBar"><path codeLine="111" d="M770,458.6694 C770,458.6694 770,958.4894 770,958.4894 " fill="none" id="com.mygdx.game.game.logic.GamePlay-backto-com.mygdx.game.game.components.game.HealthBar" style="stroke:#181818;stroke-width:1.0;"/><polygon fill="#181818" points="770,445.6694,766,451.6694,770,457.6694,774,451.6694,770,445.6694" style="stroke:#181818;stroke-width:1.0;"/><text fill="#000000" font-family="sans-serif" font-size="13" lengthAdjust="spacing" textLength="21" x="748" y="705.0745">has</text></g><!--MD5=[f8f654bd71fef8bf05a1a773fc43d16b]
@startuml
skinparam linetype polyline
skinparam linetype ortho

skinparam nodesep 100
skinparam ranksep 100

skinparam titleBorderRoundCorner 15
skinparam titleBorderThickness 2
skinparam titleBorderColor red
skinparam titleBackgroundColor Aqua-CadetBlue

title GamePlay Class Composition Relations

class com.mygdx.game.game.logic.GamePlay {
- Main game
- Background background
- int backgroundOffset
- CustomInputProcessor inputProcessor
- HealthBar healthBar
- int distance
- long lastDropTime
- long lastPlanetDropTime
- long lastShootTime
- long lastShootTimeUFO
- float spawnRate
- float spawnRateMultiplier
- float lastTimeUFOSpawned
- boolean isDrop
- int nextPlanetIndex
- String nextPlanet
+ void create()
+ void render()
}

class com.mygdx.game.engine.lifecycle.Main {
- {static} Main instance
- ScreenManager screenManager
- Preferences prefs
- SoundManager soundManager
+ EntityManager entityManager
- SpriteBatch batch
- BitmapFont font
+ int HEIGHT
+ int WIDTH
+ {static} Main getInstance()
+ ScreenManager getScreenManager()
+ void setScreenManager(ScreenManager)
+ SoundManager getSoundManager()
+ void setSoundManager(SoundManager)
+ SpriteBatch getBatch()
+ void setBatch(SpriteBatch)
+ BitmapFont getFont()
+ void setFont(BitmapFont)
+ Preferences getPrefs()
+ void setPrefs(Preferences)
+ void create()
+ void render()
+ void dispose()
}

class com.mygdx.game.game.components.game.Background {
- Texture texture
- SpriteBatch batch
+ Texture getTexture()
+ void setTexture(Texture)
+ SpriteBatch getBatch()
+ void setBatch(SpriteBatch)
}

class com.mygdx.game.engine.input.CustomInputProcessor {
+ boolean mouseClicked(int)
+ boolean keyDown(int)
+ boolean keyUp(int)
+ boolean keyTyped(char)
+ boolean touchDown(int,int,int,int)
+ boolean touchUp(int,int,int,int)
+ boolean touchDragged(int,int,int)
+ boolean mouseMoved(int,int)
+ boolean scrolled(float,float)
+ boolean mouseHoverOver(T)
}

class com.mygdx.game.game.components.game.HealthBar {
- ShapeRenderer shapeRenderer
- SpriteBatch batch
- BitmapFont font
- int startingX
- int startingY
- int width
- int height
+ void drawHealthBars(ArrayList<CollidableEntity<Player>>)
+ ShapeRenderer getShapeRenderer()
+ void setShapeRenderer(ShapeRenderer)
+ SpriteBatch getBatch()
+ void setBatch(SpriteBatch)
+ BitmapFont getFont()
+ void setFont(BitmapFont)
+ int getStartingX()
+ void setStartingX(int)
+ int getStartingY()
+ void setStartingY(int)
+ int getWidth()
+ void setWidth(int)
+ int getHeight()
+ void setHeight(int)
}

com.mygdx.game.game.logic.GamePlay *- - - - - - com.mygdx.game.engine.lifecycle.Main :has
com.mygdx.game.game.logic.GamePlay *- - - - - - com.mygdx.game.game.components.game.Background :has
com.mygdx.game.game.logic.GamePlay *- - - - - - com.mygdx.game.engine.input.CustomInputProcessor :has
com.mygdx.game.game.logic.GamePlay *- - - - - - com.mygdx.game.game.components.game.HealthBar :has
@enduml

PlantUML version 1.2022.12(Mon Oct 24 02:12:26 SGT 2022)
(GPL source distribution)
Java Runtime: OpenJDK Runtime Environment
JVM: OpenJDK 64-Bit Server VM
Default Encoding: Cp1252
Language: en
Country: SG
--></g></svg>