<?xml version="1.0" encoding="UTF-8" standalone="no"?><svg xmlns="http://www.w3.org/2000/svg" xmlns:xlink="http://www.w3.org/1999/xlink" contentStyleType="text/css" height="1636px" preserveAspectRatio="none" style="width:999px;height:1636px;background:#FFFFFF;" version="1.1" viewBox="0 0 999 1636" width="999px" zoomAndPan="magnify"><defs><linearGradient id="gszfm46yblz0j0" x1="50%" x2="50%" y1="0%" y2="100%"><stop offset="0%" stop-color="#00FFFF"/><stop offset="100%" stop-color="#5F9EA0"/></linearGradient></defs><g><rect fill="url(#gszfm46yblz0j0)" height="27.6094" id="_title" rx="7.5" ry="7.5" style="stroke:#FF0000;stroke-width:2.0;" width="339" x="323" y="5"/><text fill="#000000" font-family="sans-serif" font-size="14" font-weight="bold" lengthAdjust="spacing" textLength="329" x="328" y="24.5332">GameOverScreen Class Composition Relations</text><!--MD5=[52537726a308ea51c89174d2bb4d21b2]
cluster com.mygdx.game.game.screens.game--><g id="cluster_com.mygdx.game.game.screens.game"><path d="M324.5,44.6094 L590.5,44.6094 A3.75,3.75 0 0 1 593,47.1094 L600,68.2188 L675.5,68.2188 A2.5,2.5 0 0 1 678,70.7188 L678,459.1094 A2.5,2.5 0 0 1 675.5,461.6094 L324.5,461.6094 A2.5,2.5 0 0 1 322,459.1094 L322,47.1094 A2.5,2.5 0 0 1 324.5,44.6094 " fill="none" style="stroke:#000000;stroke-width:1.5;"/><line style="stroke:#000000;stroke-width:1.5;" x1="322" x2="600" y1="68.2188" y2="68.2188"/><text fill="#000000" font-family="sans-serif" font-size="14" font-weight="bold" lengthAdjust="spacing" textLength="265" x="326" y="61.1426">com.mygdx.game.game.screens.game</text></g><!--MD5=[6d572adab93e1a2768c068c53f7d318b]
cluster com.mygdx.game.engine.input--><g id="cluster_com.mygdx.game.engine.input"><path d="M8.5,1133.6094 L222.5,1133.6094 A3.75,3.75 0 0 1 225,1136.1094 L232,1157.2188 L269.5,1157.2188 A2.5,2.5 0 0 1 272,1159.7188 L272,1407.1094 A2.5,2.5 0 0 1 269.5,1409.6094 L8.5,1409.6094 A2.5,2.5 0 0 1 6,1407.1094 L6,1136.1094 A2.5,2.5 0 0 1 8.5,1133.6094 " fill="none" style="stroke:#000000;stroke-width:1.5;"/><line style="stroke:#000000;stroke-width:1.5;" x1="6" x2="232" y1="1157.2188" y2="1157.2188"/><text fill="#000000" font-family="sans-serif" font-size="14" font-weight="bold" lengthAdjust="spacing" textLength="213" x="10" y="1150.1426">com.mygdx.game.engine.input</text></g><!--MD5=[f5720f8f2d84faa53b7e58c13b303426]
cluster com.mygdx.game.engine.lifecycle--><g id="cluster_com.mygdx.game.engine.lifecycle"><path d="M342.5,1019.1094 L578.5,1019.1094 A3.75,3.75 0 0 1 581,1021.6094 L588,1042.7188 L657.5,1042.7188 A2.5,2.5 0 0 1 660,1045.2188 L660,1521.6094 A2.5,2.5 0 0 1 657.5,1524.1094 L342.5,1524.1094 A2.5,2.5 0 0 1 340,1521.6094 L340,1021.6094 A2.5,2.5 0 0 1 342.5,1019.1094 " fill="none" style="stroke:#000000;stroke-width:1.5;"/><line style="stroke:#000000;stroke-width:1.5;" x1="340" x2="588" y1="1042.7188" y2="1042.7188"/><text fill="#000000" font-family="sans-serif" font-size="14" font-weight="bold" lengthAdjust="spacing" textLength="235" x="344" y="1035.6426">com.mygdx.game.engine.lifecycle</text></g><!--MD5=[683aabdc962ad2ab98ef14c38ed732ec]
cluster com.mygdx.game.game.components.ui--><g id="cluster_com.mygdx.game.game.components.ui"><path d="M708.5,913.6094 L979.5,913.6094 A3.75,3.75 0 0 1 982,916.1094 L989,937.2188 L989.5,937.2188 A2.5,2.5 0 0 1 992,939.7188 L992,1627.1094 A2.5,2.5 0 0 1 989.5,1629.6094 L708.5,1629.6094 A2.5,2.5 0 0 1 706,1627.1094 L706,916.1094 A2.5,2.5 0 0 1 708.5,913.6094 " fill="none" style="stroke:#000000;stroke-width:1.5;"/><line style="stroke:#000000;stroke-width:1.5;" x1="706" x2="989" y1="937.2188" y2="937.2188"/><text fill="#000000" font-family="sans-serif" font-size="14" font-weight="bold" lengthAdjust="spacing" textLength="270" x="710" y="930.1426">com.mygdx.game.game.components.ui</text></g><!--MD5=[9e531a89b869a9ab86c8b27a7d3d01b7]
class com.mygdx.game.game.screens.game.GameOverScreen--><g id="elem_com.mygdx.game.game.screens.game.GameOverScreen"><rect codeLine="14" fill="#F1F1F1" height="364.9688" id="com.mygdx.game.game.screens.game.GameOverScreen" rx="2.5" ry="2.5" style="stroke:#181818;stroke-width:0.5;" width="323" x="338.5" y="80.6094"/><ellipse cx="438.75" cy="96.6094" fill="#ADD1B2" rx="11" ry="11" style="stroke:#181818;stroke-width:1.0;"/><path d="M440.75,93.1094 Q440.9531,92.6094 441.1875,92.3594 Q441.4219,92.1094 441.6875,92.1094 Q442.1563,92.1094 442.4531,92.3906 Q442.75,92.6719 442.75,93.3281 L442.75,94.8906 Q442.75,95.5469 442.4688,95.8281 Q442.1875,96.1094 441.75,96.1094 Q441.3594,96.1094 441.1094,95.9375 Q440.8594,95.7656 440.75,95.3125 Q440.7031,95 440.5313,94.8281 Q440.2188,94.5 439.6563,94.3125 Q439.0938,94.1094 438.5313,94.1094 Q437.8281,94.1094 437.2344,94.3906 Q436.6563,94.6719 436.2031,95.2969 Q435.75,95.9219 435.75,96.7813 L435.75,97.7031 Q435.75,98.7344 436.5938,99.4219 Q437.4375,100.1094 438.9375,100.1094 Q439.8281,100.1094 440.4531,99.9063 Q440.8125,99.7969 441.2188,99.4375 Q441.4844,99.2344 441.625,99.1719 Q441.7656,99.1094 441.9375,99.1094 Q442.2656,99.1094 442.5,99.375 Q442.75,99.625 442.75,99.9844 Q442.75,100.3281 442.4063,100.7344 Q441.9063,101.3281 441.1094,101.6563 Q440.0625,102.1094 438.7813,102.1094 Q437.2813,102.1094 436.0781,101.5156 Q435.1094,101.0469 434.4219,100.0313 Q433.75,99.0156 433.75,97.8125 L433.75,96.7188 Q433.75,95.4688 434.3438,94.375 Q434.9531,93.2813 436,92.7031 Q437.0625,92.1094 438.25,92.1094 Q438.9688,92.1094 439.5938,92.3594 Q440.2188,92.6094 440.75,93.1094 Z " fill="#000000"/><text fill="#000000" font-family="sans-serif" font-size="14" lengthAdjust="spacing" textLength="114" x="459.25" y="102.3379">GameOverScreen</text><line style="stroke:#181818;stroke-width:0.5;" x1="339.5" x2="660.5" y1="112.6094" y2="112.6094"/><rect fill="none" height="6" style="stroke:#C82930;stroke-width:1.0;" width="6" x="346.5" y="123.9141"/><text fill="#000000" font-family="sans-serif" font-size="14" lengthAdjust="spacing" textLength="112" x="358.5" y="131.1426">SpriteBatch batch</text><rect fill="none" height="6" style="stroke:#C82930;stroke-width:1.0;" width="6" x="346.5" y="141.5234"/><text fill="#000000" font-family="sans-serif" font-size="14" lengthAdjust="spacing" textLength="95" x="358.5" y="148.752">Texture texture</text><rect fill="none" height="6" style="stroke:#C82930;stroke-width:1.0;" width="6" x="346.5" y="159.1328"/><text fill="#000000" font-family="sans-serif" font-size="14" lengthAdjust="spacing" textLength="242" x="358.5" y="166.3613">CustomInputProcessor inputProcessor</text><rect fill="none" height="6" style="stroke:#C82930;stroke-width:1.0;" width="6" x="346.5" y="176.7422"/><text fill="#000000" font-family="sans-serif" font-size="14" lengthAdjust="spacing" textLength="69" x="358.5" y="183.9707">Main game</text><rect fill="none" height="6" style="stroke:#C82930;stroke-width:1.0;" width="6" x="346.5" y="194.3516"/><text fill="#000000" font-family="sans-serif" font-size="14" lengthAdjust="spacing" textLength="164" x="358.5" y="201.5801">ArrayList&lt;Button&gt; buttons</text><rect fill="none" height="6" style="stroke:#C82930;stroke-width:1.0;" width="6" x="346.5" y="211.9609"/><text fill="#000000" font-family="sans-serif" font-size="14" lengthAdjust="spacing" textLength="182" x="358.5" y="219.1895">ArrayList&lt;String&gt; buttonPath</text><line style="stroke:#181818;stroke-width:0.5;" x1="339.5" x2="660.5" y1="226.2656" y2="226.2656"/><ellipse cx="349.5" cy="240.5703" fill="#84BE84" rx="3" ry="3" style="stroke:#038048;stroke-width:1.0;"/><text fill="#000000" font-family="sans-serif" font-size="14" lengthAdjust="spacing" textLength="272" x="358.5" y="244.7988">CustomInputProcessor getInputProcessor()</text><ellipse cx="349.5" cy="258.1797" fill="#84BE84" rx="3" ry="3" style="stroke:#038048;stroke-width:1.0;"/><text fill="#000000" font-family="sans-serif" font-size="14" lengthAdjust="spacing" textLength="297" x="358.5" y="262.4082">void setInputProcessor(CustomInputProcessor)</text><ellipse cx="349.5" cy="275.7891" fill="#84BE84" rx="3" ry="3" style="stroke:#038048;stroke-width:1.0;"/><text fill="#000000" font-family="sans-serif" font-size="14" lengthAdjust="spacing" textLength="195" x="358.5" y="280.0176">ArrayList&lt;Button&gt; getButtons()</text><ellipse cx="349.5" cy="293.3984" fill="#84BE84" rx="3" ry="3" style="stroke:#038048;stroke-width:1.0;"/><text fill="#000000" font-family="sans-serif" font-size="14" lengthAdjust="spacing" textLength="220" x="358.5" y="297.627">void setButtons(ArrayList&lt;Button&gt;)</text><ellipse cx="349.5" cy="311.0078" fill="#84BE84" rx="3" ry="3" style="stroke:#038048;stroke-width:1.0;"/><text fill="#000000" font-family="sans-serif" font-size="14" lengthAdjust="spacing" textLength="72" x="358.5" y="315.2363">void show()</text><ellipse cx="349.5" cy="328.6172" fill="#84BE84" rx="3" ry="3" style="stroke:#038048;stroke-width:1.0;"/><text fill="#000000" font-family="sans-serif" font-size="14" lengthAdjust="spacing" textLength="109" x="358.5" y="332.8457">void render(float)</text><ellipse cx="349.5" cy="346.2266" fill="#84BE84" rx="3" ry="3" style="stroke:#038048;stroke-width:1.0;"/><text fill="#000000" font-family="sans-serif" font-size="14" lengthAdjust="spacing" textLength="111" x="358.5" y="350.4551">void resize(int,int)</text><ellipse cx="349.5" cy="363.8359" fill="#84BE84" rx="3" ry="3" style="stroke:#038048;stroke-width:1.0;"/><text fill="#000000" font-family="sans-serif" font-size="14" lengthAdjust="spacing" textLength="79" x="358.5" y="368.0645">void pause()</text><ellipse cx="349.5" cy="381.4453" fill="#84BE84" rx="3" ry="3" style="stroke:#038048;stroke-width:1.0;"/><text fill="#000000" font-family="sans-serif" font-size="14" lengthAdjust="spacing" textLength="87" x="358.5" y="385.6738">void resume()</text><ellipse cx="349.5" cy="399.0547" fill="#84BE84" rx="3" ry="3" style="stroke:#038048;stroke-width:1.0;"/><text fill="#000000" font-family="sans-serif" font-size="14" lengthAdjust="spacing" textLength="67" x="358.5" y="403.2832">void hide()</text><ellipse cx="349.5" cy="416.6641" fill="#84BE84" rx="3" ry="3" style="stroke:#038048;stroke-width:1.0;"/><text fill="#000000" font-family="sans-serif" font-size="14" lengthAdjust="spacing" textLength="89" x="358.5" y="420.8926">void dispose()</text><ellipse cx="349.5" cy="434.2734" fill="#84BE84" rx="3" ry="3" style="stroke:#038048;stroke-width:1.0;"/><text fill="#000000" font-family="sans-serif" font-size="14" lengthAdjust="spacing" textLength="63" x="358.5" y="438.502">void quit()</text></g><!--MD5=[e28b97f13ebe0e0d0e1b4a0418369900]
class com.mygdx.game.engine.input.CustomInputProcessor--><g id="elem_com.mygdx.game.engine.input.CustomInputProcessor"><rect codeLine="35" fill="#F1F1F1" height="224.0938" id="com.mygdx.game.engine.input.CustomInputProcessor" rx="2.5" ry="2.5" style="stroke:#181818;stroke-width:0.5;" width="234" x="22" y="1169.6094"/><ellipse cx="63.55" cy="1185.6094" fill="#ADD1B2" rx="11" ry="11" style="stroke:#181818;stroke-width:1.0;"/><path d="M65.55,1182.1094 Q65.7531,1181.6094 65.9875,1181.3594 Q66.2219,1181.1094 66.4875,1181.1094 Q66.9563,1181.1094 67.2531,1181.3906 Q67.55,1181.6719 67.55,1182.3281 L67.55,1183.8906 Q67.55,1184.5469 67.2688,1184.8281 Q66.9875,1185.1094 66.55,1185.1094 Q66.1594,1185.1094 65.9094,1184.9375 Q65.6594,1184.7656 65.55,1184.3125 Q65.5031,1184 65.3313,1183.8281 Q65.0188,1183.5 64.4563,1183.3125 Q63.8938,1183.1094 63.3313,1183.1094 Q62.6281,1183.1094 62.0344,1183.3906 Q61.4563,1183.6719 61.0031,1184.2969 Q60.55,1184.9219 60.55,1185.7813 L60.55,1186.7031 Q60.55,1187.7344 61.3938,1188.4219 Q62.2375,1189.1094 63.7375,1189.1094 Q64.6281,1189.1094 65.2531,1188.9063 Q65.6125,1188.7969 66.0188,1188.4375 Q66.2844,1188.2344 66.425,1188.1719 Q66.5656,1188.1094 66.7375,1188.1094 Q67.0656,1188.1094 67.3,1188.375 Q67.55,1188.625 67.55,1188.9844 Q67.55,1189.3281 67.2063,1189.7344 Q66.7063,1190.3281 65.9094,1190.6563 Q64.8625,1191.1094 63.5813,1191.1094 Q62.0813,1191.1094 60.8781,1190.5156 Q59.9094,1190.0469 59.2219,1189.0313 Q58.55,1188.0156 58.55,1186.8125 L58.55,1185.7188 Q58.55,1184.4688 59.1438,1183.375 Q59.7531,1182.2813 60.8,1181.7031 Q61.8625,1181.1094 63.05,1181.1094 Q63.7688,1181.1094 64.3938,1181.3594 Q65.0188,1181.6094 65.55,1182.1094 Z " fill="#000000"/><text fill="#000000" font-family="sans-serif" font-size="14" lengthAdjust="spacing" textLength="143" x="83.45" y="1191.3379">CustomInputProcessor</text><line style="stroke:#181818;stroke-width:0.5;" x1="23" x2="255" y1="1201.6094" y2="1201.6094"/><line style="stroke:#181818;stroke-width:0.5;" x1="23" x2="255" y1="1209.6094" y2="1209.6094"/><ellipse cx="33" cy="1223.9141" fill="#84BE84" rx="3" ry="3" style="stroke:#038048;stroke-width:1.0;"/><text fill="#000000" font-family="sans-serif" font-size="14" lengthAdjust="spacing" textLength="168" x="42" y="1228.1426">boolean mouseClicked(int)</text><ellipse cx="33" cy="1241.5234" fill="#84BE84" rx="3" ry="3" style="stroke:#038048;stroke-width:1.0;"/><text fill="#000000" font-family="sans-serif" font-size="14" lengthAdjust="spacing" textLength="137" x="42" y="1245.752">boolean keyDown(int)</text><ellipse cx="33" cy="1259.1328" fill="#84BE84" rx="3" ry="3" style="stroke:#038048;stroke-width:1.0;"/><text fill="#000000" font-family="sans-serif" font-size="14" lengthAdjust="spacing" textLength="119" x="42" y="1263.3613">boolean keyUp(int)</text><ellipse cx="33" cy="1276.7422" fill="#84BE84" rx="3" ry="3" style="stroke:#038048;stroke-width:1.0;"/><text fill="#000000" font-family="sans-serif" font-size="14" lengthAdjust="spacing" textLength="155" x="42" y="1280.9707">boolean keyTyped(char)</text><ellipse cx="33" cy="1294.3516" fill="#84BE84" rx="3" ry="3" style="stroke:#038048;stroke-width:1.0;"/><text fill="#000000" font-family="sans-serif" font-size="14" lengthAdjust="spacing" textLength="207" x="42" y="1298.5801">boolean touchDown(int,int,int,int)</text><ellipse cx="33" cy="1311.9609" fill="#84BE84" rx="3" ry="3" style="stroke:#038048;stroke-width:1.0;"/><text fill="#000000" font-family="sans-serif" font-size="14" lengthAdjust="spacing" textLength="189" x="42" y="1316.1895">boolean touchUp(int,int,int,int)</text><ellipse cx="33" cy="1329.5703" fill="#84BE84" rx="3" ry="3" style="stroke:#038048;stroke-width:1.0;"/><text fill="#000000" font-family="sans-serif" font-size="14" lengthAdjust="spacing" textLength="208" x="42" y="1333.7988">boolean touchDragged(int,int,int)</text><ellipse cx="33" cy="1347.1797" fill="#84BE84" rx="3" ry="3" style="stroke:#038048;stroke-width:1.0;"/><text fill="#000000" font-family="sans-serif" font-size="14" lengthAdjust="spacing" textLength="183" x="42" y="1351.4082">boolean mouseMoved(int,int)</text><ellipse cx="33" cy="1364.7891" fill="#84BE84" rx="3" ry="3" style="stroke:#038048;stroke-width:1.0;"/><text fill="#000000" font-family="sans-serif" font-size="14" lengthAdjust="spacing" textLength="172" x="42" y="1369.0176">boolean scrolled(float,float)</text><ellipse cx="33" cy="1382.3984" fill="#84BE84" rx="3" ry="3" style="stroke:#038048;stroke-width:1.0;"/><text fill="#000000" font-family="sans-serif" font-size="14" lengthAdjust="spacing" textLength="184" x="42" y="1386.627">boolean mouseHoverOver(T)</text></g><!--MD5=[533628e9c9f667eb08bf66ebfc75b243]
class com.mygdx.game.engine.lifecycle.Main--><g id="elem_com.mygdx.game.engine.lifecycle.Main"><rect codeLine="48" fill="#F1F1F1" height="453.0156" id="com.mygdx.game.engine.lifecycle.Main" rx="2.5" ry="2.5" style="stroke:#181818;stroke-width:0.5;" width="287" x="356.5" y="1055.1094"/><ellipse cx="480.75" cy="1071.1094" fill="#ADD1B2" rx="11" ry="11" style="stroke:#181818;stroke-width:1.0;"/><path d="M482.75,1067.6094 Q482.9531,1067.1094 483.1875,1066.8594 Q483.4219,1066.6094 483.6875,1066.6094 Q484.1563,1066.6094 484.4531,1066.8906 Q484.75,1067.1719 484.75,1067.8281 L484.75,1069.3906 Q484.75,1070.0469 484.4688,1070.3281 Q484.1875,1070.6094 483.75,1070.6094 Q483.3594,1070.6094 483.1094,1070.4375 Q482.8594,1070.2656 482.75,1069.8125 Q482.7031,1069.5 482.5313,1069.3281 Q482.2188,1069 481.6563,1068.8125 Q481.0938,1068.6094 480.5313,1068.6094 Q479.8281,1068.6094 479.2344,1068.8906 Q478.6563,1069.1719 478.2031,1069.7969 Q477.75,1070.4219 477.75,1071.2813 L477.75,1072.2031 Q477.75,1073.2344 478.5938,1073.9219 Q479.4375,1074.6094 480.9375,1074.6094 Q481.8281,1074.6094 482.4531,1074.4063 Q482.8125,1074.2969 483.2188,1073.9375 Q483.4844,1073.7344 483.625,1073.6719 Q483.7656,1073.6094 483.9375,1073.6094 Q484.2656,1073.6094 484.5,1073.875 Q484.75,1074.125 484.75,1074.4844 Q484.75,1074.8281 484.4063,1075.2344 Q483.9063,1075.8281 483.1094,1076.1563 Q482.0625,1076.6094 480.7813,1076.6094 Q479.2813,1076.6094 478.0781,1076.0156 Q477.1094,1075.5469 476.4219,1074.5313 Q475.75,1073.5156 475.75,1072.3125 L475.75,1071.2188 Q475.75,1069.9688 476.3438,1068.875 Q476.9531,1067.7813 478,1067.2031 Q479.0625,1066.6094 480.25,1066.6094 Q480.9688,1066.6094 481.5938,1066.8594 Q482.2188,1067.1094 482.75,1067.6094 Z " fill="#000000"/><text fill="#000000" font-family="sans-serif" font-size="14" lengthAdjust="spacing" textLength="30" x="501.25" y="1076.8379">Main</text><line style="stroke:#181818;stroke-width:0.5;" x1="357.5" x2="642.5" y1="1087.1094" y2="1087.1094"/><rect fill="none" height="6" style="stroke:#C82930;stroke-width:1.0;" width="6" x="364.5" y="1098.4141"/><text fill="#000000" font-family="sans-serif" font-size="14" lengthAdjust="spacing" text-decoration="underline" textLength="87" x="376.5" y="1105.6426">Main instance</text><rect fill="none" height="6" style="stroke:#C82930;stroke-width:1.0;" width="6" x="364.5" y="1116.0234"/><text fill="#000000" font-family="sans-serif" font-size="14" lengthAdjust="spacing" textLength="204" x="376.5" y="1123.252">ScreenManager screenManager</text><rect fill="none" height="6" style="stroke:#C82930;stroke-width:1.0;" width="6" x="364.5" y="1133.6328"/><text fill="#000000" font-family="sans-serif" font-size="14" lengthAdjust="spacing" textLength="113" x="376.5" y="1140.8613">Preferences prefs</text><rect fill="none" height="6" style="stroke:#C82930;stroke-width:1.0;" width="6" x="364.5" y="1151.2422"/><text fill="#000000" font-family="sans-serif" font-size="14" lengthAdjust="spacing" textLength="196" x="376.5" y="1158.4707">SoundManager soundManager</text><ellipse cx="367.5" cy="1171.8516" fill="none" rx="3" ry="3" style="stroke:#038048;stroke-width:1.0;"/><text fill="#000000" font-family="sans-serif" font-size="14" lengthAdjust="spacing" textLength="185" x="376.5" y="1176.0801">EntityManager entityManager</text><rect fill="none" height="6" style="stroke:#C82930;stroke-width:1.0;" width="6" x="364.5" y="1186.4609"/><text fill="#000000" font-family="sans-serif" font-size="14" lengthAdjust="spacing" textLength="112" x="376.5" y="1193.6895">SpriteBatch batch</text><rect fill="none" height="6" style="stroke:#C82930;stroke-width:1.0;" width="6" x="364.5" y="1204.0703"/><text fill="#000000" font-family="sans-serif" font-size="14" lengthAdjust="spacing" textLength="100" x="376.5" y="1211.2988">BitmapFont font</text><ellipse cx="367.5" cy="1224.6797" fill="none" rx="3" ry="3" style="stroke:#038048;stroke-width:1.0;"/><text fill="#000000" font-family="sans-serif" font-size="14" lengthAdjust="spacing" textLength="69" x="376.5" y="1228.9082">int HEIGHT</text><ellipse cx="367.5" cy="1242.2891" fill="none" rx="3" ry="3" style="stroke:#038048;stroke-width:1.0;"/><text fill="#000000" font-family="sans-serif" font-size="14" lengthAdjust="spacing" textLength="63" x="376.5" y="1246.5176">int WIDTH</text><line style="stroke:#181818;stroke-width:0.5;" x1="357.5" x2="642.5" y1="1253.5938" y2="1253.5938"/><ellipse cx="367.5" cy="1267.8984" fill="#84BE84" rx="3" ry="3" style="stroke:#038048;stroke-width:1.0;"/><text fill="#000000" font-family="sans-serif" font-size="14" lengthAdjust="spacing" text-decoration="underline" textLength="117" x="376.5" y="1272.127">Main getInstance()</text><ellipse cx="367.5" cy="1285.5078" fill="#84BE84" rx="3" ry="3" style="stroke:#038048;stroke-width:1.0;"/><text fill="#000000" font-family="sans-serif" font-size="14" lengthAdjust="spacing" textLength="236" x="376.5" y="1289.7363">ScreenManager getScreenManager()</text><ellipse cx="367.5" cy="1303.1172" fill="#84BE84" rx="3" ry="3" style="stroke:#038048;stroke-width:1.0;"/><text fill="#000000" font-family="sans-serif" font-size="14" lengthAdjust="spacing" textLength="261" x="376.5" y="1307.3457">void setScreenManager(ScreenManager)</text><ellipse cx="367.5" cy="1320.7266" fill="#84BE84" rx="3" ry="3" style="stroke:#038048;stroke-width:1.0;"/><text fill="#000000" font-family="sans-serif" font-size="14" lengthAdjust="spacing" textLength="228" x="376.5" y="1324.9551">SoundManager getSoundManager()</text><ellipse cx="367.5" cy="1338.3359" fill="#84BE84" rx="3" ry="3" style="stroke:#038048;stroke-width:1.0;"/><text fill="#000000" font-family="sans-serif" font-size="14" lengthAdjust="spacing" textLength="253" x="376.5" y="1342.5645">void setSoundManager(SoundManager)</text><ellipse cx="367.5" cy="1355.9453" fill="#84BE84" rx="3" ry="3" style="stroke:#038048;stroke-width:1.0;"/><text fill="#000000" font-family="sans-serif" font-size="14" lengthAdjust="spacing" textLength="143" x="376.5" y="1360.1738">SpriteBatch getBatch()</text><ellipse cx="367.5" cy="1373.5547" fill="#84BE84" rx="3" ry="3" style="stroke:#038048;stroke-width:1.0;"/><text fill="#000000" font-family="sans-serif" font-size="14" lengthAdjust="spacing" textLength="168" x="376.5" y="1377.7832">void setBatch(SpriteBatch)</text><ellipse cx="367.5" cy="1391.1641" fill="#84BE84" rx="3" ry="3" style="stroke:#038048;stroke-width:1.0;"/><text fill="#000000" font-family="sans-serif" font-size="14" lengthAdjust="spacing" textLength="135" x="376.5" y="1395.3926">BitmapFont getFont()</text><ellipse cx="367.5" cy="1408.7734" fill="#84BE84" rx="3" ry="3" style="stroke:#038048;stroke-width:1.0;"/><text fill="#000000" font-family="sans-serif" font-size="14" lengthAdjust="spacing" textLength="160" x="376.5" y="1413.002">void setFont(BitmapFont)</text><ellipse cx="367.5" cy="1426.3828" fill="#84BE84" rx="3" ry="3" style="stroke:#038048;stroke-width:1.0;"/><text fill="#000000" font-family="sans-serif" font-size="14" lengthAdjust="spacing" textLength="144" x="376.5" y="1430.6113">Preferences getPrefs()</text><ellipse cx="367.5" cy="1443.9922" fill="#84BE84" rx="3" ry="3" style="stroke:#038048;stroke-width:1.0;"/><text fill="#000000" font-family="sans-serif" font-size="14" lengthAdjust="spacing" textLength="169" x="376.5" y="1448.2207">void setPrefs(Preferences)</text><ellipse cx="367.5" cy="1461.6016" fill="#84BE84" rx="3" ry="3" style="stroke:#038048;stroke-width:1.0;"/><text fill="#000000" font-family="sans-serif" font-size="14" lengthAdjust="spacing" textLength="80" x="376.5" y="1465.8301">void create()</text><ellipse cx="367.5" cy="1479.2109" fill="#84BE84" rx="3" ry="3" style="stroke:#038048;stroke-width:1.0;"/><text fill="#000000" font-family="sans-serif" font-size="14" lengthAdjust="spacing" textLength="82" x="376.5" y="1483.4395">void render()</text><ellipse cx="367.5" cy="1496.8203" fill="#84BE84" rx="3" ry="3" style="stroke:#038048;stroke-width:1.0;"/><text fill="#000000" font-family="sans-serif" font-size="14" lengthAdjust="spacing" textLength="89" x="376.5" y="1501.0488">void dispose()</text></g><!--MD5=[3de1ccafbb2233cb7ab977d18c48deb3]
class com.mygdx.game.game.components.ui.Button--><g id="elem_com.mygdx.game.game.components.ui.Button"><rect codeLine="74" fill="#F1F1F1" height="664.3281" id="com.mygdx.game.game.components.ui.Button" rx="2.5" ry="2.5" style="stroke:#181818;stroke-width:0.5;" width="194" x="744" y="949.6094"/><ellipse cx="816.25" cy="965.6094" fill="#ADD1B2" rx="11" ry="11" style="stroke:#181818;stroke-width:1.0;"/><path d="M818.25,962.1094 Q818.4531,961.6094 818.6875,961.3594 Q818.9219,961.1094 819.1875,961.1094 Q819.6563,961.1094 819.9531,961.3906 Q820.25,961.6719 820.25,962.3281 L820.25,963.8906 Q820.25,964.5469 819.9688,964.8281 Q819.6875,965.1094 819.25,965.1094 Q818.8594,965.1094 818.6094,964.9375 Q818.3594,964.7656 818.25,964.3125 Q818.2031,964 818.0313,963.8281 Q817.7188,963.5 817.1563,963.3125 Q816.5938,963.1094 816.0313,963.1094 Q815.3281,963.1094 814.7344,963.3906 Q814.1563,963.6719 813.7031,964.2969 Q813.25,964.9219 813.25,965.7813 L813.25,966.7031 Q813.25,967.7344 814.0938,968.4219 Q814.9375,969.1094 816.4375,969.1094 Q817.3281,969.1094 817.9531,968.9063 Q818.3125,968.7969 818.7188,968.4375 Q818.9844,968.2344 819.125,968.1719 Q819.2656,968.1094 819.4375,968.1094 Q819.7656,968.1094 820,968.375 Q820.25,968.625 820.25,968.9844 Q820.25,969.3281 819.9063,969.7344 Q819.4063,970.3281 818.6094,970.6563 Q817.5625,971.1094 816.2813,971.1094 Q814.7813,971.1094 813.5781,970.5156 Q812.6094,970.0469 811.9219,969.0313 Q811.25,968.0156 811.25,966.8125 L811.25,965.7188 Q811.25,964.4688 811.8438,963.375 Q812.4531,962.2813 813.5,961.7031 Q814.5625,961.1094 815.75,961.1094 Q816.4688,961.1094 817.0938,961.3594 Q817.7188,961.6094 818.25,962.1094 Z " fill="#000000"/><text fill="#000000" font-family="sans-serif" font-size="14" lengthAdjust="spacing" textLength="41" x="836.75" y="971.3379">Button</text><line style="stroke:#181818;stroke-width:0.5;" x1="745" x2="937" y1="981.6094" y2="981.6094"/><rect fill="none" height="6" style="stroke:#C82930;stroke-width:1.0;" width="6" x="752" y="992.9141"/><text fill="#000000" font-family="sans-serif" font-size="14" lengthAdjust="spacing" textLength="69" x="764" y="1000.1426">Main game</text><rect fill="none" height="6" style="stroke:#C82930;stroke-width:1.0;" width="6" x="752" y="1010.5234"/><text fill="#000000" font-family="sans-serif" font-size="14" lengthAdjust="spacing" textLength="127" x="764" y="1017.752">Rectangle rectangle</text><rect fill="none" height="6" style="stroke:#C82930;stroke-width:1.0;" width="6" x="752" y="1028.1328"/><text fill="#000000" font-family="sans-serif" font-size="14" lengthAdjust="spacing" textLength="37" x="764" y="1035.3613">float x</text><rect fill="none" height="6" style="stroke:#C82930;stroke-width:1.0;" width="6" x="752" y="1045.7422"/><text fill="#000000" font-family="sans-serif" font-size="14" lengthAdjust="spacing" textLength="38" x="764" y="1052.9707">float y</text><rect fill="none" height="6" style="stroke:#C82930;stroke-width:1.0;" width="6" x="752" y="1063.3516"/><text fill="#000000" font-family="sans-serif" font-size="14" lengthAdjust="spacing" textLength="63" x="764" y="1070.5801">float width</text><rect fill="none" height="6" style="stroke:#C82930;stroke-width:1.0;" width="6" x="752" y="1080.9609"/><text fill="#000000" font-family="sans-serif" font-size="14" lengthAdjust="spacing" textLength="70" x="764" y="1088.1895">float height</text><rect fill="none" height="6" style="stroke:#C82930;stroke-width:1.0;" width="6" x="752" y="1098.5703"/><text fill="#000000" font-family="sans-serif" font-size="14" lengthAdjust="spacing" textLength="76" x="764" y="1105.7988">String name</text><rect fill="none" height="6" style="stroke:#C82930;stroke-width:1.0;" width="6" x="752" y="1116.1797"/><text fill="#000000" font-family="sans-serif" font-size="14" lengthAdjust="spacing" textLength="92" x="764" y="1123.4082">String imgPath</text><rect fill="none" height="6" style="stroke:#C82930;stroke-width:1.0;" width="6" x="752" y="1133.7891"/><text fill="#000000" font-family="sans-serif" font-size="14" lengthAdjust="spacing" textLength="95" x="764" y="1141.0176">Texture texture</text><rect fill="none" height="6" style="stroke:#C82930;stroke-width:1.0;" width="6" x="752" y="1151.3984"/><text fill="#000000" font-family="sans-serif" font-size="14" lengthAdjust="spacing" textLength="112" x="764" y="1158.627">SpriteBatch batch</text><rect fill="none" height="6" style="stroke:#C82930;stroke-width:1.0;" width="6" x="752" y="1169.0078"/><text fill="#000000" font-family="sans-serif" font-size="14" lengthAdjust="spacing" textLength="103" x="764" y="1176.2363">boolean visibility</text><rect fill="none" height="6" style="stroke:#C82930;stroke-width:1.0;" width="6" x="752" y="1186.6172"/><text fill="#000000" font-family="sans-serif" font-size="14" lengthAdjust="spacing" textLength="76" x="764" y="1193.8457">Sprite sprite</text><rect fill="none" height="6" style="stroke:#C82930;stroke-width:1.0;" width="6" x="752" y="1204.2266"/><text fill="#000000" font-family="sans-serif" font-size="14" lengthAdjust="spacing" textLength="92" x="764" y="1211.4551">boolean active</text><line style="stroke:#181818;stroke-width:0.5;" x1="745" x2="937" y1="1218.5313" y2="1218.5313"/><ellipse cx="755" cy="1232.8359" fill="#84BE84" rx="3" ry="3" style="stroke:#038048;stroke-width:1.0;"/><text fill="#000000" font-family="sans-serif" font-size="14" lengthAdjust="spacing" textLength="130" x="764" y="1237.0645">Texture getTexture()</text><ellipse cx="755" cy="1250.4453" fill="#84BE84" rx="3" ry="3" style="stroke:#038048;stroke-width:1.0;"/><text fill="#000000" font-family="sans-serif" font-size="14" lengthAdjust="spacing" textLength="155" x="764" y="1254.6738">void setTexture(Texture)</text><ellipse cx="755" cy="1268.0547" fill="#84BE84" rx="3" ry="3" style="stroke:#038048;stroke-width:1.0;"/><text fill="#000000" font-family="sans-serif" font-size="14" lengthAdjust="spacing" textLength="143" x="764" y="1272.2832">SpriteBatch getBatch()</text><ellipse cx="755" cy="1285.6641" fill="#84BE84" rx="3" ry="3" style="stroke:#038048;stroke-width:1.0;"/><text fill="#000000" font-family="sans-serif" font-size="14" lengthAdjust="spacing" textLength="168" x="764" y="1289.8926">void setBatch(SpriteBatch)</text><ellipse cx="755" cy="1303.2734" fill="#84BE84" rx="3" ry="3" style="stroke:#038048;stroke-width:1.0;"/><text fill="#000000" font-family="sans-serif" font-size="14" lengthAdjust="spacing" textLength="108" x="764" y="1307.502">Sprite getSprite()</text><ellipse cx="755" cy="1320.8828" fill="#84BE84" rx="3" ry="3" style="stroke:#038048;stroke-width:1.0;"/><text fill="#000000" font-family="sans-serif" font-size="14" lengthAdjust="spacing" textLength="133" x="764" y="1325.1113">void setSprite(Sprite)</text><ellipse cx="755" cy="1338.4922" fill="#84BE84" rx="3" ry="3" style="stroke:#038048;stroke-width:1.0;"/><text fill="#000000" font-family="sans-serif" font-size="14" lengthAdjust="spacing" textLength="135" x="764" y="1342.7207">boolean getVisibility()</text><ellipse cx="755" cy="1356.1016" fill="#84BE84" rx="3" ry="3" style="stroke:#038048;stroke-width:1.0;"/><text fill="#000000" font-family="sans-serif" font-size="14" lengthAdjust="spacing" textLength="160" x="764" y="1360.3301">void setVisibility(boolean)</text><ellipse cx="755" cy="1373.7109" fill="#84BE84" rx="3" ry="3" style="stroke:#038048;stroke-width:1.0;"/><text fill="#000000" font-family="sans-serif" font-size="14" lengthAdjust="spacing" textLength="113" x="764" y="1377.9395">boolean isActive()</text><ellipse cx="755" cy="1391.3203" fill="#84BE84" rx="3" ry="3" style="stroke:#038048;stroke-width:1.0;"/><text fill="#000000" font-family="sans-serif" font-size="14" lengthAdjust="spacing" textLength="148" x="764" y="1395.5488">void setActive(boolean)</text><ellipse cx="755" cy="1408.9297" fill="#84BE84" rx="3" ry="3" style="stroke:#038048;stroke-width:1.0;"/><text fill="#000000" font-family="sans-serif" font-size="14" lengthAdjust="spacing" textLength="168" x="764" y="1413.1582">void setButtonColor(Color)</text><ellipse cx="755" cy="1426.5391" fill="#84BE84" rx="3" ry="3" style="stroke:#038048;stroke-width:1.0;"/><text fill="#000000" font-family="sans-serif" font-size="14" lengthAdjust="spacing" textLength="69" x="764" y="1430.7676">float getX()</text><ellipse cx="755" cy="1444.1484" fill="#84BE84" rx="3" ry="3" style="stroke:#038048;stroke-width:1.0;"/><text fill="#000000" font-family="sans-serif" font-size="14" lengthAdjust="spacing" textLength="94" x="764" y="1448.377">void setX(float)</text><ellipse cx="755" cy="1461.7578" fill="#84BE84" rx="3" ry="3" style="stroke:#038048;stroke-width:1.0;"/><text fill="#000000" font-family="sans-serif" font-size="14" lengthAdjust="spacing" textLength="70" x="764" y="1465.9863">float getY()</text><ellipse cx="755" cy="1479.3672" fill="#84BE84" rx="3" ry="3" style="stroke:#038048;stroke-width:1.0;"/><text fill="#000000" font-family="sans-serif" font-size="14" lengthAdjust="spacing" textLength="95" x="764" y="1483.5957">void setY(float)</text><ellipse cx="755" cy="1496.9766" fill="#84BE84" rx="3" ry="3" style="stroke:#038048;stroke-width:1.0;"/><text fill="#000000" font-family="sans-serif" font-size="14" lengthAdjust="spacing" textLength="97" x="764" y="1501.2051">float getWidth()</text><ellipse cx="755" cy="1514.5859" fill="#84BE84" rx="3" ry="3" style="stroke:#038048;stroke-width:1.0;"/><text fill="#000000" font-family="sans-serif" font-size="14" lengthAdjust="spacing" textLength="122" x="764" y="1518.8145">void setWidth(float)</text><ellipse cx="755" cy="1532.1953" fill="#84BE84" rx="3" ry="3" style="stroke:#038048;stroke-width:1.0;"/><text fill="#000000" font-family="sans-serif" font-size="14" lengthAdjust="spacing" textLength="101" x="764" y="1536.4238">float getHeight()</text><ellipse cx="755" cy="1549.8047" fill="#84BE84" rx="3" ry="3" style="stroke:#038048;stroke-width:1.0;"/><text fill="#000000" font-family="sans-serif" font-size="14" lengthAdjust="spacing" textLength="126" x="764" y="1554.0332">void setHeight(float)</text><ellipse cx="755" cy="1567.4141" fill="#84BE84" rx="3" ry="3" style="stroke:#038048;stroke-width:1.0;"/><text fill="#000000" font-family="sans-serif" font-size="14" lengthAdjust="spacing" textLength="107" x="764" y="1571.6426">String getName()</text><ellipse cx="755" cy="1585.0234" fill="#84BE84" rx="3" ry="3" style="stroke:#038048;stroke-width:1.0;"/><text fill="#000000" font-family="sans-serif" font-size="14" lengthAdjust="spacing" textLength="132" x="764" y="1589.252">void setName(String)</text><ellipse cx="755" cy="1602.6328" fill="#84BE84" rx="3" ry="3" style="stroke:#038048;stroke-width:1.0;"/><text fill="#000000" font-family="sans-serif" font-size="14" lengthAdjust="spacing" textLength="139" x="764" y="1606.8613">Rectangle getBound()</text></g><!--MD5=[c6bf84b3b4281d9742a515711460ec53]
reverse link com.mygdx.game.game.screens.game.GameOverScreen to com.mygdx.game.engine.input.CustomInputProcessor--><g id="link_com.mygdx.game.game.screens.game.GameOverScreen_com.mygdx.game.engine.input.CustomInputProcessor"><path codeLine="112" d="M347.5,458.7894 C347.5,458.7894 347.5,1281.6094 347.5,1281.6094 C347.5,1281.6094 303.58,1281.6094 256.05,1281.6094 " fill="none" id="com.mygdx.game.game.screens.game.GameOverScreen-backto-com.mygdx.game.engine.input.CustomInputProcessor" style="stroke:#181818;stroke-width:1.0;"/><polygon fill="#181818" points="347.5,445.7894,343.5,451.7894,347.5,457.7894,351.5,451.7894,347.5,445.7894" style="stroke:#181818;stroke-width:1.0;"/><text fill="#000000" font-family="sans-serif" font-size="13" lengthAdjust="spacing" textLength="21" x="325.5" y="912.4145">has</text></g><!--MD5=[88975a7b2bb760155f6fdae3c53c1ba5]
reverse link com.mygdx.game.game.screens.game.GameOverScreen to com.mygdx.game.engine.lifecycle.Main--><g id="link_com.mygdx.game.game.screens.game.GameOverScreen_com.mygdx.game.engine.lifecycle.Main"><path codeLine="113" d="M500,458.7894 C500,458.7894 500,1055.0294 500,1055.0294 " fill="none" id="com.mygdx.game.game.screens.game.GameOverScreen-backto-com.mygdx.game.engine.lifecycle.Main" style="stroke:#181818;stroke-width:1.0;"/><polygon fill="#181818" points="500,445.7894,496,451.7894,500,457.7894,504,451.7894,500,445.7894" style="stroke:#181818;stroke-width:1.0;"/><text fill="#000000" font-family="sans-serif" font-size="13" lengthAdjust="spacing" textLength="21" x="478" y="753.4045">has</text></g><!--MD5=[0c7fa3af61b693d3c9e731e27396de9d]
reverse link com.mygdx.game.game.screens.game.GameOverScreen to com.mygdx.game.game.components.ui.Button--><g id="link_com.mygdx.game.game.screens.game.GameOverScreen_com.mygdx.game.game.components.ui.Button"><path codeLine="114" d="M652.5,458.9094 C652.5,458.9094 652.5,1002.6094 652.5,1002.6094 C652.5,1002.6094 697.8,1002.6094 743.99,1002.6094 " fill="none" id="com.mygdx.game.game.screens.game.GameOverScreen-backto-com.mygdx.game.game.components.ui.Button" style="stroke:#181818;stroke-width:1.0;"/><polygon fill="#181818" points="652.5,445.9094,648.5,451.9094,652.5,457.9094,656.5,451.9094,652.5,445.9094" style="stroke:#181818;stroke-width:1.0;"/><text fill="#000000" font-family="sans-serif" font-size="13" lengthAdjust="spacing" textLength="57" x="594.5" y="772.9945">has many</text></g><!--MD5=[0f2b16dedf1530762fb770ce168ef0bc]
@startuml
skinparam linetype polyline
skinparam linetype ortho

skinparam nodesep 100
skinparam ranksep 100

skinparam titleBorderRoundCorner 15
skinparam titleBorderThickness 2
skinparam titleBorderColor red
skinparam titleBackgroundColor Aqua-CadetBlue

title GameOverScreen Class Composition Relations

class com.mygdx.game.game.screens.game.GameOverScreen {
- SpriteBatch batch
- Texture texture
- CustomInputProcessor inputProcessor
- Main game
- ArrayList<Button> buttons
- ArrayList<String> buttonPath
+ CustomInputProcessor getInputProcessor()
+ void setInputProcessor(CustomInputProcessor)
+ ArrayList<Button> getButtons()
+ void setButtons(ArrayList<Button>)
+ void show()
+ void render(float)
+ void resize(int,int)
+ void pause()
+ void resume()
+ void hide()
+ void dispose()
+ void quit()
}

class com.mygdx.game.engine.input.CustomInputProcessor {
+ boolean mouseClicked(int)
+ boolean keyDown(int)
+ boolean keyUp(int)
+ boolean keyTyped(char)
+ boolean touchDown(int,int,int,int)
+ boolean touchUp(int,int,int,int)
+ boolean touchDragged(int,int,int)
+ boolean mouseMoved(int,int)
+ boolean scrolled(float,float)
+ boolean mouseHoverOver(T)
}

class com.mygdx.game.engine.lifecycle.Main {
- {static} Main instance
- ScreenManager screenManager
- Preferences prefs
- SoundManager soundManager
+ EntityManager entityManager
- SpriteBatch batch
- BitmapFont font
+ int HEIGHT
+ int WIDTH
+ {static} Main getInstance()
+ ScreenManager getScreenManager()
+ void setScreenManager(ScreenManager)
+ SoundManager getSoundManager()
+ void setSoundManager(SoundManager)
+ SpriteBatch getBatch()
+ void setBatch(SpriteBatch)
+ BitmapFont getFont()
+ void setFont(BitmapFont)
+ Preferences getPrefs()
+ void setPrefs(Preferences)
+ void create()
+ void render()
+ void dispose()
}

class com.mygdx.game.game.components.ui.Button {
- Main game
- Rectangle rectangle
- float x
- float y
- float width
- float height
- String name
- String imgPath
- Texture texture
- SpriteBatch batch
- boolean visibility
- Sprite sprite
- boolean active
+ Texture getTexture()
+ void setTexture(Texture)
+ SpriteBatch getBatch()
+ void setBatch(SpriteBatch)
+ Sprite getSprite()
+ void setSprite(Sprite)
+ boolean getVisibility()
+ void setVisibility(boolean)
+ boolean isActive()
+ void setActive(boolean)
+ void setButtonColor(Color)
+ float getX()
+ void setX(float)
+ float getY()
+ void setY(float)
+ float getWidth()
+ void setWidth(float)
+ float getHeight()
+ void setHeight(float)
+ String getName()
+ void setName(String)
+ Rectangle getBound()
}

com.mygdx.game.game.screens.game.GameOverScreen *- - - - - - com.mygdx.game.engine.input.CustomInputProcessor :has
com.mygdx.game.game.screens.game.GameOverScreen *- - - - - - com.mygdx.game.engine.lifecycle.Main :has
com.mygdx.game.game.screens.game.GameOverScreen *- - - - - - com.mygdx.game.game.components.ui.Button :has many
@enduml

PlantUML version 1.2022.12(Mon Oct 24 02:12:26 SGT 2022)
(GPL source distribution)
Java Runtime: OpenJDK Runtime Environment
JVM: OpenJDK 64-Bit Server VM
Default Encoding: Cp1252
Language: en
Country: SG
--></g></svg>