<?xml version="1.0" encoding="UTF-8" standalone="no"?><svg xmlns="http://www.w3.org/2000/svg" xmlns:xlink="http://www.w3.org/1999/xlink" contentStyleType="text/css" height="1724px" preserveAspectRatio="none" style="width:961px;height:1724px;background:#FFFFFF;" version="1.1" viewBox="0 0 961 1724" width="961px" zoomAndPan="magnify"><defs><linearGradient id="gsuab7c1drr7h0" x1="50%" x2="50%" y1="0%" y2="100%"><stop offset="0%" stop-color="#00FFFF"/><stop offset="100%" stop-color="#5F9EA0"/></linearGradient></defs><g><rect fill="url(#gsuab7c1drr7h0)" height="27.6094" id="_title" rx="7.5" ry="7.5" style="stroke:#FF0000;stroke-width:2.0;" width="304" x="321.5" y="5"/><text fill="#000000" font-family="sans-serif" font-size="14" font-weight="bold" lengthAdjust="spacing" textLength="294" x="326.5" y="24.5332">GameScreen Class Composition Relations</text><!--MD5=[52537726a308ea51c89174d2bb4d21b2]
cluster com.mygdx.game.game.screens.game--><g id="cluster_com.mygdx.game.game.screens.game"><path d="M331.5,44.6094 L597.5,44.6094 A3.75,3.75 0 0 1 600,47.1094 L607,68.2188 L682.5,68.2188 A2.5,2.5 0 0 1 685,70.7188 L685,547.1094 A2.5,2.5 0 0 1 682.5,549.6094 L331.5,549.6094 A2.5,2.5 0 0 1 329,547.1094 L329,47.1094 A2.5,2.5 0 0 1 331.5,44.6094 " fill="none" style="stroke:#000000;stroke-width:1.5;"/><line style="stroke:#000000;stroke-width:1.5;" x1="329" x2="607" y1="68.2188" y2="68.2188"/><text fill="#000000" font-family="sans-serif" font-size="14" font-weight="bold" lengthAdjust="spacing" textLength="265" x="333" y="61.1426">com.mygdx.game.game.screens.game</text></g><!--MD5=[f5720f8f2d84faa53b7e58c13b303426]
cluster com.mygdx.game.engine.lifecycle--><g id="cluster_com.mygdx.game.engine.lifecycle"><path d="M8.5,1107.1094 L244.5,1107.1094 A3.75,3.75 0 0 1 247,1109.6094 L254,1130.7188 L323.5,1130.7188 A2.5,2.5 0 0 1 326,1133.2188 L326,1609.6094 A2.5,2.5 0 0 1 323.5,1612.1094 L8.5,1612.1094 A2.5,2.5 0 0 1 6,1609.6094 L6,1109.6094 A2.5,2.5 0 0 1 8.5,1107.1094 " fill="none" style="stroke:#000000;stroke-width:1.5;"/><line style="stroke:#000000;stroke-width:1.5;" x1="6" x2="254" y1="1130.7188" y2="1130.7188"/><text fill="#000000" font-family="sans-serif" font-size="14" font-weight="bold" lengthAdjust="spacing" textLength="235" x="10" y="1123.6426">com.mygdx.game.engine.lifecycle</text></g><!--MD5=[683aabdc962ad2ab98ef14c38ed732ec]
cluster com.mygdx.game.game.components.ui--><g id="cluster_com.mygdx.game.game.components.ui"><path d="M366.5,1001.6094 L637.5,1001.6094 A3.75,3.75 0 0 1 640,1004.1094 L647,1025.2188 L647.5,1025.2188 A2.5,2.5 0 0 1 650,1027.7188 L650,1715.1094 A2.5,2.5 0 0 1 647.5,1717.6094 L366.5,1717.6094 A2.5,2.5 0 0 1 364,1715.1094 L364,1004.1094 A2.5,2.5 0 0 1 366.5,1001.6094 " fill="none" style="stroke:#000000;stroke-width:1.5;"/><line style="stroke:#000000;stroke-width:1.5;" x1="364" x2="647" y1="1025.2188" y2="1025.2188"/><text fill="#000000" font-family="sans-serif" font-size="14" font-weight="bold" lengthAdjust="spacing" textLength="270" x="368" y="1018.1426">com.mygdx.game.game.components.ui</text></g><!--MD5=[6d572adab93e1a2768c068c53f7d318b]
cluster com.mygdx.game.engine.input--><g id="cluster_com.mygdx.game.engine.input"><path d="M690.5,1221.6094 L904.5,1221.6094 A3.75,3.75 0 0 1 907,1224.1094 L914,1245.2188 L951.5,1245.2188 A2.5,2.5 0 0 1 954,1247.7188 L954,1495.1094 A2.5,2.5 0 0 1 951.5,1497.6094 L690.5,1497.6094 A2.5,2.5 0 0 1 688,1495.1094 L688,1224.1094 A2.5,2.5 0 0 1 690.5,1221.6094 " fill="none" style="stroke:#000000;stroke-width:1.5;"/><line style="stroke:#000000;stroke-width:1.5;" x1="688" x2="914" y1="1245.2188" y2="1245.2188"/><text fill="#000000" font-family="sans-serif" font-size="14" font-weight="bold" lengthAdjust="spacing" textLength="213" x="692" y="1238.1426">com.mygdx.game.engine.input</text></g><!--MD5=[b51c172e19f4a8706ed1ac1c854b767f]
class com.mygdx.game.game.screens.game.GameScreen--><g id="elem_com.mygdx.game.game.screens.game.GameScreen"><rect codeLine="14" fill="#F1F1F1" height="453.0156" id="com.mygdx.game.game.screens.game.GameScreen" rx="2.5" ry="2.5" style="stroke:#181818;stroke-width:0.5;" width="323" x="345.5" y="80.6094"/><ellipse cx="461.25" cy="96.6094" fill="#ADD1B2" rx="11" ry="11" style="stroke:#181818;stroke-width:1.0;"/><path d="M463.25,93.1094 Q463.4531,92.6094 463.6875,92.3594 Q463.9219,92.1094 464.1875,92.1094 Q464.6563,92.1094 464.9531,92.3906 Q465.25,92.6719 465.25,93.3281 L465.25,94.8906 Q465.25,95.5469 464.9688,95.8281 Q464.6875,96.1094 464.25,96.1094 Q463.8594,96.1094 463.6094,95.9375 Q463.3594,95.7656 463.25,95.3125 Q463.2031,95 463.0313,94.8281 Q462.7188,94.5 462.1563,94.3125 Q461.5938,94.1094 461.0313,94.1094 Q460.3281,94.1094 459.7344,94.3906 Q459.1563,94.6719 458.7031,95.2969 Q458.25,95.9219 458.25,96.7813 L458.25,97.7031 Q458.25,98.7344 459.0938,99.4219 Q459.9375,100.1094 461.4375,100.1094 Q462.3281,100.1094 462.9531,99.9063 Q463.3125,99.7969 463.7188,99.4375 Q463.9844,99.2344 464.125,99.1719 Q464.2656,99.1094 464.4375,99.1094 Q464.7656,99.1094 465,99.375 Q465.25,99.625 465.25,99.9844 Q465.25,100.3281 464.9063,100.7344 Q464.4063,101.3281 463.6094,101.6563 Q462.5625,102.1094 461.2813,102.1094 Q459.7813,102.1094 458.5781,101.5156 Q457.6094,101.0469 456.9219,100.0313 Q456.25,99.0156 456.25,97.8125 L456.25,96.7188 Q456.25,95.4688 456.8438,94.375 Q457.4531,93.2813 458.5,92.7031 Q459.5625,92.1094 460.75,92.1094 Q461.4688,92.1094 462.0938,92.3594 Q462.7188,92.6094 463.25,93.1094 Z " fill="#000000"/><text fill="#000000" font-family="sans-serif" font-size="14" lengthAdjust="spacing" textLength="83" x="481.75" y="102.3379">GameScreen</text><line style="stroke:#181818;stroke-width:0.5;" x1="346.5" x2="667.5" y1="112.6094" y2="112.6094"/><rect fill="none" height="6" style="stroke:#C82930;stroke-width:1.0;" width="6" x="353.5" y="123.9141"/><text fill="#000000" font-family="sans-serif" font-size="14" lengthAdjust="spacing" textLength="69" x="365.5" y="131.1426">Main game</text><rect fill="none" height="6" style="stroke:#C82930;stroke-width:1.0;" width="6" x="353.5" y="141.5234"/><text fill="#000000" font-family="sans-serif" font-size="14" lengthAdjust="spacing" textLength="125" x="365.5" y="148.752">Button pauseButton</text><rect fill="none" height="6" style="stroke:#C82930;stroke-width:1.0;" width="6" x="353.5" y="159.1328"/><text fill="#000000" font-family="sans-serif" font-size="14" lengthAdjust="spacing" textLength="184" x="365.5" y="166.3613">OrthographicCamera camera</text><rect fill="none" height="6" style="stroke:#C82930;stroke-width:1.0;" width="6" x="353.5" y="176.7422"/><text fill="#000000" font-family="sans-serif" font-size="14" lengthAdjust="spacing" textLength="242" x="365.5" y="183.9707">CustomInputProcessor inputProcessor</text><rect fill="none" height="6" style="stroke:#C82930;stroke-width:1.0;" width="6" x="353.5" y="194.3516"/><text fill="#000000" font-family="sans-serif" font-size="14" lengthAdjust="spacing" textLength="110" x="365.5" y="201.5801">Viewport viewport</text><rect fill="none" height="6" style="stroke:#C82930;stroke-width:1.0;" width="6" x="353.5" y="211.9609"/><text fill="#000000" font-family="sans-serif" font-size="14" lengthAdjust="spacing" textLength="131" x="365.5" y="219.1895">GamePlay gamePlay</text><rect fill="none" height="6" style="stroke:#C82930;stroke-width:1.0;" width="6" x="353.5" y="229.5703"/><text fill="#000000" font-family="sans-serif" font-size="14" lengthAdjust="spacing" textLength="141" x="365.5" y="236.7988">float buttonShowDelay</text><rect fill="none" height="6" style="stroke:#C82930;stroke-width:1.0;" width="6" x="353.5" y="247.1797"/><text fill="#000000" font-family="sans-serif" font-size="14" lengthAdjust="spacing" textLength="180" x="365.5" y="254.4082">Timer.Task buttonShowTask</text><rect fill="none" height="6" style="stroke:#C82930;stroke-width:1.0;" width="6" x="353.5" y="264.7891"/><text fill="#000000" font-family="sans-serif" font-size="14" lengthAdjust="spacing" textLength="112" x="365.5" y="272.0176">SpriteBatch batch</text><line style="stroke:#181818;stroke-width:0.5;" x1="346.5" x2="667.5" y1="279.0938" y2="279.0938"/><ellipse cx="356.5" cy="293.3984" fill="#84BE84" rx="3" ry="3" style="stroke:#038048;stroke-width:1.0;"/><text fill="#000000" font-family="sans-serif" font-size="14" lengthAdjust="spacing" textLength="143" x="365.5" y="297.627">SpriteBatch getBatch()</text><ellipse cx="356.5" cy="311.0078" fill="#84BE84" rx="3" ry="3" style="stroke:#038048;stroke-width:1.0;"/><text fill="#000000" font-family="sans-serif" font-size="14" lengthAdjust="spacing" textLength="168" x="365.5" y="315.2363">void setBatch(SpriteBatch)</text><ellipse cx="356.5" cy="328.6172" fill="#84BE84" rx="3" ry="3" style="stroke:#038048;stroke-width:1.0;"/><text fill="#000000" font-family="sans-serif" font-size="14" lengthAdjust="spacing" textLength="156" x="365.5" y="332.8457">Button getPauseButton()</text><ellipse cx="356.5" cy="346.2266" fill="#84BE84" rx="3" ry="3" style="stroke:#038048;stroke-width:1.0;"/><text fill="#000000" font-family="sans-serif" font-size="14" lengthAdjust="spacing" textLength="181" x="365.5" y="350.4551">void setPauseButton(Button)</text><ellipse cx="356.5" cy="363.8359" fill="#84BE84" rx="3" ry="3" style="stroke:#038048;stroke-width:1.0;"/><text fill="#000000" font-family="sans-serif" font-size="14" lengthAdjust="spacing" textLength="272" x="365.5" y="368.0645">CustomInputProcessor getInputProcessor()</text><ellipse cx="356.5" cy="381.4453" fill="#84BE84" rx="3" ry="3" style="stroke:#038048;stroke-width:1.0;"/><text fill="#000000" font-family="sans-serif" font-size="14" lengthAdjust="spacing" textLength="297" x="365.5" y="385.6738">void setInputProcessor(CustomInputProcessor)</text><ellipse cx="356.5" cy="399.0547" fill="#84BE84" rx="3" ry="3" style="stroke:#038048;stroke-width:1.0;"/><text fill="#000000" font-family="sans-serif" font-size="14" lengthAdjust="spacing" textLength="72" x="365.5" y="403.2832">void show()</text><ellipse cx="356.5" cy="416.6641" fill="#84BE84" rx="3" ry="3" style="stroke:#038048;stroke-width:1.0;"/><text fill="#000000" font-family="sans-serif" font-size="14" lengthAdjust="spacing" textLength="109" x="365.5" y="420.8926">void render(float)</text><ellipse cx="356.5" cy="434.2734" fill="#84BE84" rx="3" ry="3" style="stroke:#038048;stroke-width:1.0;"/><text fill="#000000" font-family="sans-serif" font-size="14" lengthAdjust="spacing" textLength="111" x="365.5" y="438.502">void resize(int,int)</text><ellipse cx="356.5" cy="451.8828" fill="#84BE84" rx="3" ry="3" style="stroke:#038048;stroke-width:1.0;"/><text fill="#000000" font-family="sans-serif" font-size="14" lengthAdjust="spacing" textLength="79" x="365.5" y="456.1113">void pause()</text><ellipse cx="356.5" cy="469.4922" fill="#84BE84" rx="3" ry="3" style="stroke:#038048;stroke-width:1.0;"/><text fill="#000000" font-family="sans-serif" font-size="14" lengthAdjust="spacing" textLength="87" x="365.5" y="473.7207">void resume()</text><ellipse cx="356.5" cy="487.1016" fill="#84BE84" rx="3" ry="3" style="stroke:#038048;stroke-width:1.0;"/><text fill="#000000" font-family="sans-serif" font-size="14" lengthAdjust="spacing" textLength="67" x="365.5" y="491.3301">void hide()</text><ellipse cx="356.5" cy="504.7109" fill="#84BE84" rx="3" ry="3" style="stroke:#038048;stroke-width:1.0;"/><text fill="#000000" font-family="sans-serif" font-size="14" lengthAdjust="spacing" textLength="63" x="365.5" y="508.9395">void quit()</text><ellipse cx="356.5" cy="522.3203" fill="#84BE84" rx="3" ry="3" style="stroke:#038048;stroke-width:1.0;"/><text fill="#000000" font-family="sans-serif" font-size="14" lengthAdjust="spacing" textLength="89" x="365.5" y="526.5488">void dispose()</text></g><!--MD5=[533628e9c9f667eb08bf66ebfc75b243]
class com.mygdx.game.engine.lifecycle.Main--><g id="elem_com.mygdx.game.engine.lifecycle.Main"><rect codeLine="40" fill="#F1F1F1" height="453.0156" id="com.mygdx.game.engine.lifecycle.Main" rx="2.5" ry="2.5" style="stroke:#181818;stroke-width:0.5;" width="287" x="22.5" y="1143.1094"/><ellipse cx="146.75" cy="1159.1094" fill="#ADD1B2" rx="11" ry="11" style="stroke:#181818;stroke-width:1.0;"/><path d="M148.75,1155.6094 Q148.9531,1155.1094 149.1875,1154.8594 Q149.4219,1154.6094 149.6875,1154.6094 Q150.1563,1154.6094 150.4531,1154.8906 Q150.75,1155.1719 150.75,1155.8281 L150.75,1157.3906 Q150.75,1158.0469 150.4688,1158.3281 Q150.1875,1158.6094 149.75,1158.6094 Q149.3594,1158.6094 149.1094,1158.4375 Q148.8594,1158.2656 148.75,1157.8125 Q148.7031,1157.5 148.5313,1157.3281 Q148.2188,1157 147.6563,1156.8125 Q147.0938,1156.6094 146.5313,1156.6094 Q145.8281,1156.6094 145.2344,1156.8906 Q144.6563,1157.1719 144.2031,1157.7969 Q143.75,1158.4219 143.75,1159.2813 L143.75,1160.2031 Q143.75,1161.2344 144.5938,1161.9219 Q145.4375,1162.6094 146.9375,1162.6094 Q147.8281,1162.6094 148.4531,1162.4063 Q148.8125,1162.2969 149.2188,1161.9375 Q149.4844,1161.7344 149.625,1161.6719 Q149.7656,1161.6094 149.9375,1161.6094 Q150.2656,1161.6094 150.5,1161.875 Q150.75,1162.125 150.75,1162.4844 Q150.75,1162.8281 150.4063,1163.2344 Q149.9063,1163.8281 149.1094,1164.1563 Q148.0625,1164.6094 146.7813,1164.6094 Q145.2813,1164.6094 144.0781,1164.0156 Q143.1094,1163.5469 142.4219,1162.5313 Q141.75,1161.5156 141.75,1160.3125 L141.75,1159.2188 Q141.75,1157.9688 142.3438,1156.875 Q142.9531,1155.7813 144,1155.2031 Q145.0625,1154.6094 146.25,1154.6094 Q146.9688,1154.6094 147.5938,1154.8594 Q148.2188,1155.1094 148.75,1155.6094 Z " fill="#000000"/><text fill="#000000" font-family="sans-serif" font-size="14" lengthAdjust="spacing" textLength="30" x="167.25" y="1164.8379">Main</text><line style="stroke:#181818;stroke-width:0.5;" x1="23.5" x2="308.5" y1="1175.1094" y2="1175.1094"/><rect fill="none" height="6" style="stroke:#C82930;stroke-width:1.0;" width="6" x="30.5" y="1186.4141"/><text fill="#000000" font-family="sans-serif" font-size="14" lengthAdjust="spacing" text-decoration="underline" textLength="87" x="42.5" y="1193.6426">Main instance</text><rect fill="none" height="6" style="stroke:#C82930;stroke-width:1.0;" width="6" x="30.5" y="1204.0234"/><text fill="#000000" font-family="sans-serif" font-size="14" lengthAdjust="spacing" textLength="204" x="42.5" y="1211.252">ScreenManager screenManager</text><rect fill="none" height="6" style="stroke:#C82930;stroke-width:1.0;" width="6" x="30.5" y="1221.6328"/><text fill="#000000" font-family="sans-serif" font-size="14" lengthAdjust="spacing" textLength="113" x="42.5" y="1228.8613">Preferences prefs</text><rect fill="none" height="6" style="stroke:#C82930;stroke-width:1.0;" width="6" x="30.5" y="1239.2422"/><text fill="#000000" font-family="sans-serif" font-size="14" lengthAdjust="spacing" textLength="196" x="42.5" y="1246.4707">SoundManager soundManager</text><ellipse cx="33.5" cy="1259.8516" fill="none" rx="3" ry="3" style="stroke:#038048;stroke-width:1.0;"/><text fill="#000000" font-family="sans-serif" font-size="14" lengthAdjust="spacing" textLength="185" x="42.5" y="1264.0801">EntityManager entityManager</text><rect fill="none" height="6" style="stroke:#C82930;stroke-width:1.0;" width="6" x="30.5" y="1274.4609"/><text fill="#000000" font-family="sans-serif" font-size="14" lengthAdjust="spacing" textLength="112" x="42.5" y="1281.6895">SpriteBatch batch</text><rect fill="none" height="6" style="stroke:#C82930;stroke-width:1.0;" width="6" x="30.5" y="1292.0703"/><text fill="#000000" font-family="sans-serif" font-size="14" lengthAdjust="spacing" textLength="100" x="42.5" y="1299.2988">BitmapFont font</text><ellipse cx="33.5" cy="1312.6797" fill="none" rx="3" ry="3" style="stroke:#038048;stroke-width:1.0;"/><text fill="#000000" font-family="sans-serif" font-size="14" lengthAdjust="spacing" textLength="69" x="42.5" y="1316.9082">int HEIGHT</text><ellipse cx="33.5" cy="1330.2891" fill="none" rx="3" ry="3" style="stroke:#038048;stroke-width:1.0;"/><text fill="#000000" font-family="sans-serif" font-size="14" lengthAdjust="spacing" textLength="63" x="42.5" y="1334.5176">int WIDTH</text><line style="stroke:#181818;stroke-width:0.5;" x1="23.5" x2="308.5" y1="1341.5938" y2="1341.5938"/><ellipse cx="33.5" cy="1355.8984" fill="#84BE84" rx="3" ry="3" style="stroke:#038048;stroke-width:1.0;"/><text fill="#000000" font-family="sans-serif" font-size="14" lengthAdjust="spacing" text-decoration="underline" textLength="117" x="42.5" y="1360.127">Main getInstance()</text><ellipse cx="33.5" cy="1373.5078" fill="#84BE84" rx="3" ry="3" style="stroke:#038048;stroke-width:1.0;"/><text fill="#000000" font-family="sans-serif" font-size="14" lengthAdjust="spacing" textLength="236" x="42.5" y="1377.7363">ScreenManager getScreenManager()</text><ellipse cx="33.5" cy="1391.1172" fill="#84BE84" rx="3" ry="3" style="stroke:#038048;stroke-width:1.0;"/><text fill="#000000" font-family="sans-serif" font-size="14" lengthAdjust="spacing" textLength="261" x="42.5" y="1395.3457">void setScreenManager(ScreenManager)</text><ellipse cx="33.5" cy="1408.7266" fill="#84BE84" rx="3" ry="3" style="stroke:#038048;stroke-width:1.0;"/><text fill="#000000" font-family="sans-serif" font-size="14" lengthAdjust="spacing" textLength="228" x="42.5" y="1412.9551">SoundManager getSoundManager()</text><ellipse cx="33.5" cy="1426.3359" fill="#84BE84" rx="3" ry="3" style="stroke:#038048;stroke-width:1.0;"/><text fill="#000000" font-family="sans-serif" font-size="14" lengthAdjust="spacing" textLength="253" x="42.5" y="1430.5645">void setSoundManager(SoundManager)</text><ellipse cx="33.5" cy="1443.9453" fill="#84BE84" rx="3" ry="3" style="stroke:#038048;stroke-width:1.0;"/><text fill="#000000" font-family="sans-serif" font-size="14" lengthAdjust="spacing" textLength="143" x="42.5" y="1448.1738">SpriteBatch getBatch()</text><ellipse cx="33.5" cy="1461.5547" fill="#84BE84" rx="3" ry="3" style="stroke:#038048;stroke-width:1.0;"/><text fill="#000000" font-family="sans-serif" font-size="14" lengthAdjust="spacing" textLength="168" x="42.5" y="1465.7832">void setBatch(SpriteBatch)</text><ellipse cx="33.5" cy="1479.1641" fill="#84BE84" rx="3" ry="3" style="stroke:#038048;stroke-width:1.0;"/><text fill="#000000" font-family="sans-serif" font-size="14" lengthAdjust="spacing" textLength="135" x="42.5" y="1483.3926">BitmapFont getFont()</text><ellipse cx="33.5" cy="1496.7734" fill="#84BE84" rx="3" ry="3" style="stroke:#038048;stroke-width:1.0;"/><text fill="#000000" font-family="sans-serif" font-size="14" lengthAdjust="spacing" textLength="160" x="42.5" y="1501.002">void setFont(BitmapFont)</text><ellipse cx="33.5" cy="1514.3828" fill="#84BE84" rx="3" ry="3" style="stroke:#038048;stroke-width:1.0;"/><text fill="#000000" font-family="sans-serif" font-size="14" lengthAdjust="spacing" textLength="144" x="42.5" y="1518.6113">Preferences getPrefs()</text><ellipse cx="33.5" cy="1531.9922" fill="#84BE84" rx="3" ry="3" style="stroke:#038048;stroke-width:1.0;"/><text fill="#000000" font-family="sans-serif" font-size="14" lengthAdjust="spacing" textLength="169" x="42.5" y="1536.2207">void setPrefs(Preferences)</text><ellipse cx="33.5" cy="1549.6016" fill="#84BE84" rx="3" ry="3" style="stroke:#038048;stroke-width:1.0;"/><text fill="#000000" font-family="sans-serif" font-size="14" lengthAdjust="spacing" textLength="80" x="42.5" y="1553.8301">void create()</text><ellipse cx="33.5" cy="1567.2109" fill="#84BE84" rx="3" ry="3" style="stroke:#038048;stroke-width:1.0;"/><text fill="#000000" font-family="sans-serif" font-size="14" lengthAdjust="spacing" textLength="82" x="42.5" y="1571.4395">void render()</text><ellipse cx="33.5" cy="1584.8203" fill="#84BE84" rx="3" ry="3" style="stroke:#038048;stroke-width:1.0;"/><text fill="#000000" font-family="sans-serif" font-size="14" lengthAdjust="spacing" textLength="89" x="42.5" y="1589.0488">void dispose()</text></g><!--MD5=[3de1ccafbb2233cb7ab977d18c48deb3]
class com.mygdx.game.game.components.ui.Button--><g id="elem_com.mygdx.game.game.components.ui.Button"><rect codeLine="66" fill="#F1F1F1" height="664.3281" id="com.mygdx.game.game.components.ui.Button" rx="2.5" ry="2.5" style="stroke:#181818;stroke-width:0.5;" width="194" x="410" y="1037.6094"/><ellipse cx="482.25" cy="1053.6094" fill="#ADD1B2" rx="11" ry="11" style="stroke:#181818;stroke-width:1.0;"/><path d="M484.25,1050.1094 Q484.4531,1049.6094 484.6875,1049.3594 Q484.9219,1049.1094 485.1875,1049.1094 Q485.6563,1049.1094 485.9531,1049.3906 Q486.25,1049.6719 486.25,1050.3281 L486.25,1051.8906 Q486.25,1052.5469 485.9688,1052.8281 Q485.6875,1053.1094 485.25,1053.1094 Q484.8594,1053.1094 484.6094,1052.9375 Q484.3594,1052.7656 484.25,1052.3125 Q484.2031,1052 484.0313,1051.8281 Q483.7188,1051.5 483.1563,1051.3125 Q482.5938,1051.1094 482.0313,1051.1094 Q481.3281,1051.1094 480.7344,1051.3906 Q480.1563,1051.6719 479.7031,1052.2969 Q479.25,1052.9219 479.25,1053.7813 L479.25,1054.7031 Q479.25,1055.7344 480.0938,1056.4219 Q480.9375,1057.1094 482.4375,1057.1094 Q483.3281,1057.1094 483.9531,1056.9063 Q484.3125,1056.7969 484.7188,1056.4375 Q484.9844,1056.2344 485.125,1056.1719 Q485.2656,1056.1094 485.4375,1056.1094 Q485.7656,1056.1094 486,1056.375 Q486.25,1056.625 486.25,1056.9844 Q486.25,1057.3281 485.9063,1057.7344 Q485.4063,1058.3281 484.6094,1058.6563 Q483.5625,1059.1094 482.2813,1059.1094 Q480.7813,1059.1094 479.5781,1058.5156 Q478.6094,1058.0469 477.9219,1057.0313 Q477.25,1056.0156 477.25,1054.8125 L477.25,1053.7188 Q477.25,1052.4688 477.8438,1051.375 Q478.4531,1050.2813 479.5,1049.7031 Q480.5625,1049.1094 481.75,1049.1094 Q482.4688,1049.1094 483.0938,1049.3594 Q483.7188,1049.6094 484.25,1050.1094 Z " fill="#000000"/><text fill="#000000" font-family="sans-serif" font-size="14" lengthAdjust="spacing" textLength="41" x="502.75" y="1059.3379">Button</text><line style="stroke:#181818;stroke-width:0.5;" x1="411" x2="603" y1="1069.6094" y2="1069.6094"/><rect fill="none" height="6" style="stroke:#C82930;stroke-width:1.0;" width="6" x="418" y="1080.9141"/><text fill="#000000" font-family="sans-serif" font-size="14" lengthAdjust="spacing" textLength="69" x="430" y="1088.1426">Main game</text><rect fill="none" height="6" style="stroke:#C82930;stroke-width:1.0;" width="6" x="418" y="1098.5234"/><text fill="#000000" font-family="sans-serif" font-size="14" lengthAdjust="spacing" textLength="127" x="430" y="1105.752">Rectangle rectangle</text><rect fill="none" height="6" style="stroke:#C82930;stroke-width:1.0;" width="6" x="418" y="1116.1328"/><text fill="#000000" font-family="sans-serif" font-size="14" lengthAdjust="spacing" textLength="37" x="430" y="1123.3613">float x</text><rect fill="none" height="6" style="stroke:#C82930;stroke-width:1.0;" width="6" x="418" y="1133.7422"/><text fill="#000000" font-family="sans-serif" font-size="14" lengthAdjust="spacing" textLength="38" x="430" y="1140.9707">float y</text><rect fill="none" height="6" style="stroke:#C82930;stroke-width:1.0;" width="6" x="418" y="1151.3516"/><text fill="#000000" font-family="sans-serif" font-size="14" lengthAdjust="spacing" textLength="63" x="430" y="1158.5801">float width</text><rect fill="none" height="6" style="stroke:#C82930;stroke-width:1.0;" width="6" x="418" y="1168.9609"/><text fill="#000000" font-family="sans-serif" font-size="14" lengthAdjust="spacing" textLength="70" x="430" y="1176.1895">float height</text><rect fill="none" height="6" style="stroke:#C82930;stroke-width:1.0;" width="6" x="418" y="1186.5703"/><text fill="#000000" font-family="sans-serif" font-size="14" lengthAdjust="spacing" textLength="76" x="430" y="1193.7988">String name</text><rect fill="none" height="6" style="stroke:#C82930;stroke-width:1.0;" width="6" x="418" y="1204.1797"/><text fill="#000000" font-family="sans-serif" font-size="14" lengthAdjust="spacing" textLength="92" x="430" y="1211.4082">String imgPath</text><rect fill="none" height="6" style="stroke:#C82930;stroke-width:1.0;" width="6" x="418" y="1221.7891"/><text fill="#000000" font-family="sans-serif" font-size="14" lengthAdjust="spacing" textLength="95" x="430" y="1229.0176">Texture texture</text><rect fill="none" height="6" style="stroke:#C82930;stroke-width:1.0;" width="6" x="418" y="1239.3984"/><text fill="#000000" font-family="sans-serif" font-size="14" lengthAdjust="spacing" textLength="112" x="430" y="1246.627">SpriteBatch batch</text><rect fill="none" height="6" style="stroke:#C82930;stroke-width:1.0;" width="6" x="418" y="1257.0078"/><text fill="#000000" font-family="sans-serif" font-size="14" lengthAdjust="spacing" textLength="103" x="430" y="1264.2363">boolean visibility</text><rect fill="none" height="6" style="stroke:#C82930;stroke-width:1.0;" width="6" x="418" y="1274.6172"/><text fill="#000000" font-family="sans-serif" font-size="14" lengthAdjust="spacing" textLength="76" x="430" y="1281.8457">Sprite sprite</text><rect fill="none" height="6" style="stroke:#C82930;stroke-width:1.0;" width="6" x="418" y="1292.2266"/><text fill="#000000" font-family="sans-serif" font-size="14" lengthAdjust="spacing" textLength="92" x="430" y="1299.4551">boolean active</text><line style="stroke:#181818;stroke-width:0.5;" x1="411" x2="603" y1="1306.5313" y2="1306.5313"/><ellipse cx="421" cy="1320.8359" fill="#84BE84" rx="3" ry="3" style="stroke:#038048;stroke-width:1.0;"/><text fill="#000000" font-family="sans-serif" font-size="14" lengthAdjust="spacing" textLength="130" x="430" y="1325.0645">Texture getTexture()</text><ellipse cx="421" cy="1338.4453" fill="#84BE84" rx="3" ry="3" style="stroke:#038048;stroke-width:1.0;"/><text fill="#000000" font-family="sans-serif" font-size="14" lengthAdjust="spacing" textLength="155" x="430" y="1342.6738">void setTexture(Texture)</text><ellipse cx="421" cy="1356.0547" fill="#84BE84" rx="3" ry="3" style="stroke:#038048;stroke-width:1.0;"/><text fill="#000000" font-family="sans-serif" font-size="14" lengthAdjust="spacing" textLength="143" x="430" y="1360.2832">SpriteBatch getBatch()</text><ellipse cx="421" cy="1373.6641" fill="#84BE84" rx="3" ry="3" style="stroke:#038048;stroke-width:1.0;"/><text fill="#000000" font-family="sans-serif" font-size="14" lengthAdjust="spacing" textLength="168" x="430" y="1377.8926">void setBatch(SpriteBatch)</text><ellipse cx="421" cy="1391.2734" fill="#84BE84" rx="3" ry="3" style="stroke:#038048;stroke-width:1.0;"/><text fill="#000000" font-family="sans-serif" font-size="14" lengthAdjust="spacing" textLength="108" x="430" y="1395.502">Sprite getSprite()</text><ellipse cx="421" cy="1408.8828" fill="#84BE84" rx="3" ry="3" style="stroke:#038048;stroke-width:1.0;"/><text fill="#000000" font-family="sans-serif" font-size="14" lengthAdjust="spacing" textLength="133" x="430" y="1413.1113">void setSprite(Sprite)</text><ellipse cx="421" cy="1426.4922" fill="#84BE84" rx="3" ry="3" style="stroke:#038048;stroke-width:1.0;"/><text fill="#000000" font-family="sans-serif" font-size="14" lengthAdjust="spacing" textLength="135" x="430" y="1430.7207">boolean getVisibility()</text><ellipse cx="421" cy="1444.1016" fill="#84BE84" rx="3" ry="3" style="stroke:#038048;stroke-width:1.0;"/><text fill="#000000" font-family="sans-serif" font-size="14" lengthAdjust="spacing" textLength="160" x="430" y="1448.3301">void setVisibility(boolean)</text><ellipse cx="421" cy="1461.7109" fill="#84BE84" rx="3" ry="3" style="stroke:#038048;stroke-width:1.0;"/><text fill="#000000" font-family="sans-serif" font-size="14" lengthAdjust="spacing" textLength="113" x="430" y="1465.9395">boolean isActive()</text><ellipse cx="421" cy="1479.3203" fill="#84BE84" rx="3" ry="3" style="stroke:#038048;stroke-width:1.0;"/><text fill="#000000" font-family="sans-serif" font-size="14" lengthAdjust="spacing" textLength="148" x="430" y="1483.5488">void setActive(boolean)</text><ellipse cx="421" cy="1496.9297" fill="#84BE84" rx="3" ry="3" style="stroke:#038048;stroke-width:1.0;"/><text fill="#000000" font-family="sans-serif" font-size="14" lengthAdjust="spacing" textLength="168" x="430" y="1501.1582">void setButtonColor(Color)</text><ellipse cx="421" cy="1514.5391" fill="#84BE84" rx="3" ry="3" style="stroke:#038048;stroke-width:1.0;"/><text fill="#000000" font-family="sans-serif" font-size="14" lengthAdjust="spacing" textLength="69" x="430" y="1518.7676">float getX()</text><ellipse cx="421" cy="1532.1484" fill="#84BE84" rx="3" ry="3" style="stroke:#038048;stroke-width:1.0;"/><text fill="#000000" font-family="sans-serif" font-size="14" lengthAdjust="spacing" textLength="94" x="430" y="1536.377">void setX(float)</text><ellipse cx="421" cy="1549.7578" fill="#84BE84" rx="3" ry="3" style="stroke:#038048;stroke-width:1.0;"/><text fill="#000000" font-family="sans-serif" font-size="14" lengthAdjust="spacing" textLength="70" x="430" y="1553.9863">float getY()</text><ellipse cx="421" cy="1567.3672" fill="#84BE84" rx="3" ry="3" style="stroke:#038048;stroke-width:1.0;"/><text fill="#000000" font-family="sans-serif" font-size="14" lengthAdjust="spacing" textLength="95" x="430" y="1571.5957">void setY(float)</text><ellipse cx="421" cy="1584.9766" fill="#84BE84" rx="3" ry="3" style="stroke:#038048;stroke-width:1.0;"/><text fill="#000000" font-family="sans-serif" font-size="14" lengthAdjust="spacing" textLength="97" x="430" y="1589.2051">float getWidth()</text><ellipse cx="421" cy="1602.5859" fill="#84BE84" rx="3" ry="3" style="stroke:#038048;stroke-width:1.0;"/><text fill="#000000" font-family="sans-serif" font-size="14" lengthAdjust="spacing" textLength="122" x="430" y="1606.8145">void setWidth(float)</text><ellipse cx="421" cy="1620.1953" fill="#84BE84" rx="3" ry="3" style="stroke:#038048;stroke-width:1.0;"/><text fill="#000000" font-family="sans-serif" font-size="14" lengthAdjust="spacing" textLength="101" x="430" y="1624.4238">float getHeight()</text><ellipse cx="421" cy="1637.8047" fill="#84BE84" rx="3" ry="3" style="stroke:#038048;stroke-width:1.0;"/><text fill="#000000" font-family="sans-serif" font-size="14" lengthAdjust="spacing" textLength="126" x="430" y="1642.0332">void setHeight(float)</text><ellipse cx="421" cy="1655.4141" fill="#84BE84" rx="3" ry="3" style="stroke:#038048;stroke-width:1.0;"/><text fill="#000000" font-family="sans-serif" font-size="14" lengthAdjust="spacing" textLength="107" x="430" y="1659.6426">String getName()</text><ellipse cx="421" cy="1673.0234" fill="#84BE84" rx="3" ry="3" style="stroke:#038048;stroke-width:1.0;"/><text fill="#000000" font-family="sans-serif" font-size="14" lengthAdjust="spacing" textLength="132" x="430" y="1677.252">void setName(String)</text><ellipse cx="421" cy="1690.6328" fill="#84BE84" rx="3" ry="3" style="stroke:#038048;stroke-width:1.0;"/><text fill="#000000" font-family="sans-serif" font-size="14" lengthAdjust="spacing" textLength="139" x="430" y="1694.8613">Rectangle getBound()</text></g><!--MD5=[e28b97f13ebe0e0d0e1b4a0418369900]
class com.mygdx.game.engine.input.CustomInputProcessor--><g id="elem_com.mygdx.game.engine.input.CustomInputProcessor"><rect codeLine="104" fill="#F1F1F1" height="224.0938" id="com.mygdx.game.engine.input.CustomInputProcessor" rx="2.5" ry="2.5" style="stroke:#181818;stroke-width:0.5;" width="234" x="704" y="1257.6094"/><ellipse cx="745.55" cy="1273.6094" fill="#ADD1B2" rx="11" ry="11" style="stroke:#181818;stroke-width:1.0;"/><path d="M747.55,1270.1094 Q747.7531,1269.6094 747.9875,1269.3594 Q748.2219,1269.1094 748.4875,1269.1094 Q748.9563,1269.1094 749.2531,1269.3906 Q749.55,1269.6719 749.55,1270.3281 L749.55,1271.8906 Q749.55,1272.5469 749.2688,1272.8281 Q748.9875,1273.1094 748.55,1273.1094 Q748.1594,1273.1094 747.9094,1272.9375 Q747.6594,1272.7656 747.55,1272.3125 Q747.5031,1272 747.3313,1271.8281 Q747.0188,1271.5 746.4563,1271.3125 Q745.8938,1271.1094 745.3313,1271.1094 Q744.6281,1271.1094 744.0344,1271.3906 Q743.4563,1271.6719 743.0031,1272.2969 Q742.55,1272.9219 742.55,1273.7813 L742.55,1274.7031 Q742.55,1275.7344 743.3938,1276.4219 Q744.2375,1277.1094 745.7375,1277.1094 Q746.6281,1277.1094 747.2531,1276.9063 Q747.6125,1276.7969 748.0188,1276.4375 Q748.2844,1276.2344 748.425,1276.1719 Q748.5656,1276.1094 748.7375,1276.1094 Q749.0656,1276.1094 749.3,1276.375 Q749.55,1276.625 749.55,1276.9844 Q749.55,1277.3281 749.2063,1277.7344 Q748.7063,1278.3281 747.9094,1278.6563 Q746.8625,1279.1094 745.5813,1279.1094 Q744.0813,1279.1094 742.8781,1278.5156 Q741.9094,1278.0469 741.2219,1277.0313 Q740.55,1276.0156 740.55,1274.8125 L740.55,1273.7188 Q740.55,1272.4688 741.1438,1271.375 Q741.7531,1270.2813 742.8,1269.7031 Q743.8625,1269.1094 745.05,1269.1094 Q745.7688,1269.1094 746.3938,1269.3594 Q747.0188,1269.6094 747.55,1270.1094 Z " fill="#000000"/><text fill="#000000" font-family="sans-serif" font-size="14" lengthAdjust="spacing" textLength="143" x="765.45" y="1279.3379">CustomInputProcessor</text><line style="stroke:#181818;stroke-width:0.5;" x1="705" x2="937" y1="1289.6094" y2="1289.6094"/><line style="stroke:#181818;stroke-width:0.5;" x1="705" x2="937" y1="1297.6094" y2="1297.6094"/><ellipse cx="715" cy="1311.9141" fill="#84BE84" rx="3" ry="3" style="stroke:#038048;stroke-width:1.0;"/><text fill="#000000" font-family="sans-serif" font-size="14" lengthAdjust="spacing" textLength="168" x="724" y="1316.1426">boolean mouseClicked(int)</text><ellipse cx="715" cy="1329.5234" fill="#84BE84" rx="3" ry="3" style="stroke:#038048;stroke-width:1.0;"/><text fill="#000000" font-family="sans-serif" font-size="14" lengthAdjust="spacing" textLength="137" x="724" y="1333.752">boolean keyDown(int)</text><ellipse cx="715" cy="1347.1328" fill="#84BE84" rx="3" ry="3" style="stroke:#038048;stroke-width:1.0;"/><text fill="#000000" font-family="sans-serif" font-size="14" lengthAdjust="spacing" textLength="119" x="724" y="1351.3613">boolean keyUp(int)</text><ellipse cx="715" cy="1364.7422" fill="#84BE84" rx="3" ry="3" style="stroke:#038048;stroke-width:1.0;"/><text fill="#000000" font-family="sans-serif" font-size="14" lengthAdjust="spacing" textLength="155" x="724" y="1368.9707">boolean keyTyped(char)</text><ellipse cx="715" cy="1382.3516" fill="#84BE84" rx="3" ry="3" style="stroke:#038048;stroke-width:1.0;"/><text fill="#000000" font-family="sans-serif" font-size="14" lengthAdjust="spacing" textLength="207" x="724" y="1386.5801">boolean touchDown(int,int,int,int)</text><ellipse cx="715" cy="1399.9609" fill="#84BE84" rx="3" ry="3" style="stroke:#038048;stroke-width:1.0;"/><text fill="#000000" font-family="sans-serif" font-size="14" lengthAdjust="spacing" textLength="189" x="724" y="1404.1895">boolean touchUp(int,int,int,int)</text><ellipse cx="715" cy="1417.5703" fill="#84BE84" rx="3" ry="3" style="stroke:#038048;stroke-width:1.0;"/><text fill="#000000" font-family="sans-serif" font-size="14" lengthAdjust="spacing" textLength="208" x="724" y="1421.7988">boolean touchDragged(int,int,int)</text><ellipse cx="715" cy="1435.1797" fill="#84BE84" rx="3" ry="3" style="stroke:#038048;stroke-width:1.0;"/><text fill="#000000" font-family="sans-serif" font-size="14" lengthAdjust="spacing" textLength="183" x="724" y="1439.4082">boolean mouseMoved(int,int)</text><ellipse cx="715" cy="1452.7891" fill="#84BE84" rx="3" ry="3" style="stroke:#038048;stroke-width:1.0;"/><text fill="#000000" font-family="sans-serif" font-size="14" lengthAdjust="spacing" textLength="172" x="724" y="1457.0176">boolean scrolled(float,float)</text><ellipse cx="715" cy="1470.3984" fill="#84BE84" rx="3" ry="3" style="stroke:#038048;stroke-width:1.0;"/><text fill="#000000" font-family="sans-serif" font-size="14" lengthAdjust="spacing" textLength="184" x="724" y="1474.627">boolean mouseHoverOver(T)</text></g><!--MD5=[57d1ad5d2ef6c579eafb8173e0b00786]
reverse link com.mygdx.game.game.screens.game.GameScreen to com.mygdx.game.engine.lifecycle.Main--><g id="link_com.mygdx.game.game.screens.game.GameScreen_com.mygdx.game.engine.lifecycle.Main"><path codeLine="117" d="M377.75,546.7394 C377.75,546.7394 377.75,1369.6094 377.75,1369.6094 C377.75,1369.6094 347.35,1369.6094 309.59,1369.6094 " fill="none" id="com.mygdx.game.game.screens.game.GameScreen-backto-com.mygdx.game.engine.lifecycle.Main" style="stroke:#181818;stroke-width:1.0;"/><polygon fill="#181818" points="377.75,533.7394,373.75,539.7394,377.75,545.7394,381.75,539.7394,377.75,533.7394" style="stroke:#181818;stroke-width:1.0;"/><text fill="#000000" font-family="sans-serif" font-size="13" lengthAdjust="spacing" textLength="21" x="355.75" y="988.7545">has</text></g><!--MD5=[b918ad2b7f1206b9f1f6e1a8f9e7d232]
reverse link com.mygdx.game.game.screens.game.GameScreen to com.mygdx.game.game.components.ui.Button--><g id="link_com.mygdx.game.game.screens.game.GameScreen_com.mygdx.game.game.components.ui.Button"><path codeLine="118" d="M507,546.7394 C507,546.7394 507,1037.4094 507,1037.4094 " fill="none" id="com.mygdx.game.game.screens.game.GameScreen-backto-com.mygdx.game.game.components.ui.Button" style="stroke:#181818;stroke-width:1.0;"/><polygon fill="#181818" points="507,533.7394,503,539.7394,507,545.7394,511,539.7394,507,533.7394" style="stroke:#181818;stroke-width:1.0;"/><text fill="#000000" font-family="sans-serif" font-size="13" lengthAdjust="spacing" textLength="21" x="485" y="788.5745">has</text></g><!--MD5=[041770624a2f63266447ff2ed7e86a20]
reverse link com.mygdx.game.game.screens.game.GameScreen to com.mygdx.game.engine.input.CustomInputProcessor--><g id="link_com.mygdx.game.game.screens.game.GameScreen_com.mygdx.game.engine.input.CustomInputProcessor"><path codeLine="119" d="M636.25,546.7394 C636.25,546.7394 636.25,1369.6094 636.25,1369.6094 C636.25,1369.6094 667.33,1369.6094 704,1369.6094 " fill="none" id="com.mygdx.game.game.screens.game.GameScreen-backto-com.mygdx.game.engine.input.CustomInputProcessor" style="stroke:#181818;stroke-width:1.0;"/><polygon fill="#181818" points="636.25,533.7394,632.25,539.7394,636.25,545.7394,640.25,539.7394,636.25,533.7394" style="stroke:#181818;stroke-width:1.0;"/><text fill="#000000" font-family="sans-serif" font-size="13" lengthAdjust="spacing" textLength="21" x="614.25" y="988.5445">has</text></g><!--MD5=[4c0c7317c45010b289f0abd070644e36]
@startuml
skinparam linetype polyline
skinparam linetype ortho

skinparam nodesep 100
skinparam ranksep 100

skinparam titleBorderRoundCorner 15
skinparam titleBorderThickness 2
skinparam titleBorderColor red
skinparam titleBackgroundColor Aqua-CadetBlue

title GameScreen Class Composition Relations

class com.mygdx.game.game.screens.game.GameScreen {
- Main game
- Button pauseButton
- OrthographicCamera camera
- CustomInputProcessor inputProcessor
- Viewport viewport
- GamePlay gamePlay
- float buttonShowDelay
- Timer.Task buttonShowTask
- SpriteBatch batch
+ SpriteBatch getBatch()
+ void setBatch(SpriteBatch)
+ Button getPauseButton()
+ void setPauseButton(Button)
+ CustomInputProcessor getInputProcessor()
+ void setInputProcessor(CustomInputProcessor)
+ void show()
+ void render(float)
+ void resize(int,int)
+ void pause()
+ void resume()
+ void hide()
+ void quit()
+ void dispose()
}

class com.mygdx.game.engine.lifecycle.Main {
- {static} Main instance
- ScreenManager screenManager
- Preferences prefs
- SoundManager soundManager
+ EntityManager entityManager
- SpriteBatch batch
- BitmapFont font
+ int HEIGHT
+ int WIDTH
+ {static} Main getInstance()
+ ScreenManager getScreenManager()
+ void setScreenManager(ScreenManager)
+ SoundManager getSoundManager()
+ void setSoundManager(SoundManager)
+ SpriteBatch getBatch()
+ void setBatch(SpriteBatch)
+ BitmapFont getFont()
+ void setFont(BitmapFont)
+ Preferences getPrefs()
+ void setPrefs(Preferences)
+ void create()
+ void render()
+ void dispose()
}

class com.mygdx.game.game.components.ui.Button {
- Main game
- Rectangle rectangle
- float x
- float y
- float width
- float height
- String name
- String imgPath
- Texture texture
- SpriteBatch batch
- boolean visibility
- Sprite sprite
- boolean active
+ Texture getTexture()
+ void setTexture(Texture)
+ SpriteBatch getBatch()
+ void setBatch(SpriteBatch)
+ Sprite getSprite()
+ void setSprite(Sprite)
+ boolean getVisibility()
+ void setVisibility(boolean)
+ boolean isActive()
+ void setActive(boolean)
+ void setButtonColor(Color)
+ float getX()
+ void setX(float)
+ float getY()
+ void setY(float)
+ float getWidth()
+ void setWidth(float)
+ float getHeight()
+ void setHeight(float)
+ String getName()
+ void setName(String)
+ Rectangle getBound()
}

class com.mygdx.game.engine.input.CustomInputProcessor {
+ boolean mouseClicked(int)
+ boolean keyDown(int)
+ boolean keyUp(int)
+ boolean keyTyped(char)
+ boolean touchDown(int,int,int,int)
+ boolean touchUp(int,int,int,int)
+ boolean touchDragged(int,int,int)
+ boolean mouseMoved(int,int)
+ boolean scrolled(float,float)
+ boolean mouseHoverOver(T)
}

com.mygdx.game.game.screens.game.GameScreen *- - - - - - com.mygdx.game.engine.lifecycle.Main :has
com.mygdx.game.game.screens.game.GameScreen *- - - - - - com.mygdx.game.game.components.ui.Button :has
com.mygdx.game.game.screens.game.GameScreen *- - - - - - com.mygdx.game.engine.input.CustomInputProcessor :has
@enduml

PlantUML version 1.2022.12(Mon Oct 24 02:12:26 SGT 2022)
(GPL source distribution)
Java Runtime: OpenJDK Runtime Environment
JVM: OpenJDK 64-Bit Server VM
Default Encoding: Cp1252
Language: en
Country: SG
--></g></svg>