<?xml version="1.0" encoding="UTF-8" standalone="no"?><svg xmlns="http://www.w3.org/2000/svg" xmlns:xlink="http://www.w3.org/1999/xlink" contentStyleType="text/css" height="1707px" preserveAspectRatio="none" style="width:1350px;height:1707px;background:#FFFFFF;" version="1.1" viewBox="0 0 1350 1707" width="1350px" zoomAndPan="magnify"><defs><linearGradient id="g1hd4wp22h7ts10" x1="50%" x2="50%" y1="0%" y2="100%"><stop offset="0%" stop-color="#00FFFF"/><stop offset="100%" stop-color="#5F9EA0"/></linearGradient></defs><g><rect fill="url(#g1hd4wp22h7ts10)" height="27.6094" id="_title" rx="7.5" ry="7.5" style="stroke:#FF0000;stroke-width:2.0;" width="248" x="544" y="5"/><text fill="#000000" font-family="sans-serif" font-size="14" font-weight="bold" lengthAdjust="spacing" textLength="238" x="549" y="24.5332">Main Class Composition Relations</text><!--MD5=[f5720f8f2d84faa53b7e58c13b303426]
cluster com.mygdx.game.engine.lifecycle--><g id="cluster_com.mygdx.game.engine.lifecycle"><path d="M601.5,44.6094 L837.5,44.6094 A3.75,3.75 0 0 1 840,47.1094 L847,68.2188 L916.5,68.2188 A2.5,2.5 0 0 1 919,70.7188 L919,547.1094 A2.5,2.5 0 0 1 916.5,549.6094 L601.5,549.6094 A2.5,2.5 0 0 1 599,547.1094 L599,47.1094 A2.5,2.5 0 0 1 601.5,44.6094 " fill="none" style="stroke:#000000;stroke-width:1.5;"/><line style="stroke:#000000;stroke-width:1.5;" x1="599" x2="847" y1="68.2188" y2="68.2188"/><text fill="#000000" font-family="sans-serif" font-size="14" font-weight="bold" lengthAdjust="spacing" textLength="235" x="603" y="61.1426">com.mygdx.game.engine.lifecycle</text></g><!--MD5=[dc79dd4e0caa4ee4fb7088e6e4b6a2c1]
cluster com.mygdx.game.engine.entity--><g id="cluster_com.mygdx.game.engine.entity"><path d="M8.5,1142.6094 L225.5,1142.6094 A3.75,3.75 0 0 1 228,1145.1094 L235,1166.2188 L417.5,1166.2188 A2.5,2.5 0 0 1 420,1168.7188 L420,1557.1094 A2.5,2.5 0 0 1 417.5,1559.6094 L8.5,1559.6094 A2.5,2.5 0 0 1 6,1557.1094 L6,1145.1094 A2.5,2.5 0 0 1 8.5,1142.6094 " fill="none" style="stroke:#000000;stroke-width:1.5;"/><line style="stroke:#000000;stroke-width:1.5;" x1="6" x2="235" y1="1166.2188" y2="1166.2188"/><text fill="#000000" font-family="sans-serif" font-size="14" font-weight="bold" lengthAdjust="spacing" textLength="216" x="10" y="1159.1426">com.mygdx.game.engine.entity</text></g><!--MD5=[fe4a0faf5646692cad31f113f5be8b71]
cluster com.mygdx.game.engine.screen--><g id="cluster_com.mygdx.game.engine.screen"><path d="M489.5,1001.6094 L716.5,1001.6094 A3.75,3.75 0 0 1 719,1004.1094 L726,1025.2188 L1028.5,1025.2188 A2.5,2.5 0 0 1 1031,1027.7188 L1031,1698.1094 A2.5,2.5 0 0 1 1028.5,1700.6094 L489.5,1700.6094 A2.5,2.5 0 0 1 487,1698.1094 L487,1004.1094 A2.5,2.5 0 0 1 489.5,1001.6094 " fill="none" style="stroke:#000000;stroke-width:1.5;"/><line style="stroke:#000000;stroke-width:1.5;" x1="487" x2="726" y1="1025.2188" y2="1025.2188"/><text fill="#000000" font-family="sans-serif" font-size="14" font-weight="bold" lengthAdjust="spacing" textLength="226" x="491" y="1018.1426">com.mygdx.game.engine.screen</text></g><!--MD5=[93a982b1b78862dd9cd9cb6582510976]
cluster com.mygdx.game.engine.sound--><g id="cluster_com.mygdx.game.engine.sound"><path d="M1101.5,1133.6094 L1323.5,1133.6094 A3.75,3.75 0 0 1 1326,1136.1094 L1333,1157.2188 L1340.5,1157.2188 A2.5,2.5 0 0 1 1343,1159.7188 L1343,1566.1094 A2.5,2.5 0 0 1 1340.5,1568.6094 L1101.5,1568.6094 A2.5,2.5 0 0 1 1099,1566.1094 L1099,1136.1094 A2.5,2.5 0 0 1 1101.5,1133.6094 " fill="none" style="stroke:#000000;stroke-width:1.5;"/><line style="stroke:#000000;stroke-width:1.5;" x1="1099" x2="1333" y1="1157.2188" y2="1157.2188"/><text fill="#000000" font-family="sans-serif" font-size="14" font-weight="bold" lengthAdjust="spacing" textLength="221" x="1103" y="1150.1426">com.mygdx.game.engine.sound</text></g><!--MD5=[533628e9c9f667eb08bf66ebfc75b243]
class com.mygdx.game.engine.lifecycle.Main--><g id="elem_com.mygdx.game.engine.lifecycle.Main"><rect codeLine="14" fill="#F1F1F1" height="453.0156" id="com.mygdx.game.engine.lifecycle.Main" rx="2.5" ry="2.5" style="stroke:#181818;stroke-width:0.5;" width="287" x="615.5" y="80.6094"/><ellipse cx="739.75" cy="96.6094" fill="#ADD1B2" rx="11" ry="11" style="stroke:#181818;stroke-width:1.0;"/><path d="M741.75,93.1094 Q741.9531,92.6094 742.1875,92.3594 Q742.4219,92.1094 742.6875,92.1094 Q743.1563,92.1094 743.4531,92.3906 Q743.75,92.6719 743.75,93.3281 L743.75,94.8906 Q743.75,95.5469 743.4688,95.8281 Q743.1875,96.1094 742.75,96.1094 Q742.3594,96.1094 742.1094,95.9375 Q741.8594,95.7656 741.75,95.3125 Q741.7031,95 741.5313,94.8281 Q741.2188,94.5 740.6563,94.3125 Q740.0938,94.1094 739.5313,94.1094 Q738.8281,94.1094 738.2344,94.3906 Q737.6563,94.6719 737.2031,95.2969 Q736.75,95.9219 736.75,96.7813 L736.75,97.7031 Q736.75,98.7344 737.5938,99.4219 Q738.4375,100.1094 739.9375,100.1094 Q740.8281,100.1094 741.4531,99.9063 Q741.8125,99.7969 742.2188,99.4375 Q742.4844,99.2344 742.625,99.1719 Q742.7656,99.1094 742.9375,99.1094 Q743.2656,99.1094 743.5,99.375 Q743.75,99.625 743.75,99.9844 Q743.75,100.3281 743.4063,100.7344 Q742.9063,101.3281 742.1094,101.6563 Q741.0625,102.1094 739.7813,102.1094 Q738.2813,102.1094 737.0781,101.5156 Q736.1094,101.0469 735.4219,100.0313 Q734.75,99.0156 734.75,97.8125 L734.75,96.7188 Q734.75,95.4688 735.3438,94.375 Q735.9531,93.2813 737,92.7031 Q738.0625,92.1094 739.25,92.1094 Q739.9688,92.1094 740.5938,92.3594 Q741.2188,92.6094 741.75,93.1094 Z " fill="#000000"/><text fill="#000000" font-family="sans-serif" font-size="14" lengthAdjust="spacing" textLength="30" x="760.25" y="102.3379">Main</text><line style="stroke:#181818;stroke-width:0.5;" x1="616.5" x2="901.5" y1="112.6094" y2="112.6094"/><rect fill="none" height="6" style="stroke:#C82930;stroke-width:1.0;" width="6" x="623.5" y="123.9141"/><text fill="#000000" font-family="sans-serif" font-size="14" lengthAdjust="spacing" text-decoration="underline" textLength="87" x="635.5" y="131.1426">Main instance</text><rect fill="none" height="6" style="stroke:#C82930;stroke-width:1.0;" width="6" x="623.5" y="141.5234"/><text fill="#000000" font-family="sans-serif" font-size="14" lengthAdjust="spacing" textLength="204" x="635.5" y="148.752">ScreenManager screenManager</text><rect fill="none" height="6" style="stroke:#C82930;stroke-width:1.0;" width="6" x="623.5" y="159.1328"/><text fill="#000000" font-family="sans-serif" font-size="14" lengthAdjust="spacing" textLength="113" x="635.5" y="166.3613">Preferences prefs</text><rect fill="none" height="6" style="stroke:#C82930;stroke-width:1.0;" width="6" x="623.5" y="176.7422"/><text fill="#000000" font-family="sans-serif" font-size="14" lengthAdjust="spacing" textLength="196" x="635.5" y="183.9707">SoundManager soundManager</text><ellipse cx="626.5" cy="197.3516" fill="none" rx="3" ry="3" style="stroke:#038048;stroke-width:1.0;"/><text fill="#000000" font-family="sans-serif" font-size="14" lengthAdjust="spacing" textLength="185" x="635.5" y="201.5801">EntityManager entityManager</text><rect fill="none" height="6" style="stroke:#C82930;stroke-width:1.0;" width="6" x="623.5" y="211.9609"/><text fill="#000000" font-family="sans-serif" font-size="14" lengthAdjust="spacing" textLength="112" x="635.5" y="219.1895">SpriteBatch batch</text><rect fill="none" height="6" style="stroke:#C82930;stroke-width:1.0;" width="6" x="623.5" y="229.5703"/><text fill="#000000" font-family="sans-serif" font-size="14" lengthAdjust="spacing" textLength="100" x="635.5" y="236.7988">BitmapFont font</text><ellipse cx="626.5" cy="250.1797" fill="none" rx="3" ry="3" style="stroke:#038048;stroke-width:1.0;"/><text fill="#000000" font-family="sans-serif" font-size="14" lengthAdjust="spacing" textLength="69" x="635.5" y="254.4082">int HEIGHT</text><ellipse cx="626.5" cy="267.7891" fill="none" rx="3" ry="3" style="stroke:#038048;stroke-width:1.0;"/><text fill="#000000" font-family="sans-serif" font-size="14" lengthAdjust="spacing" textLength="63" x="635.5" y="272.0176">int WIDTH</text><line style="stroke:#181818;stroke-width:0.5;" x1="616.5" x2="901.5" y1="279.0938" y2="279.0938"/><ellipse cx="626.5" cy="293.3984" fill="#84BE84" rx="3" ry="3" style="stroke:#038048;stroke-width:1.0;"/><text fill="#000000" font-family="sans-serif" font-size="14" lengthAdjust="spacing" text-decoration="underline" textLength="117" x="635.5" y="297.627">Main getInstance()</text><ellipse cx="626.5" cy="311.0078" fill="#84BE84" rx="3" ry="3" style="stroke:#038048;stroke-width:1.0;"/><text fill="#000000" font-family="sans-serif" font-size="14" lengthAdjust="spacing" textLength="236" x="635.5" y="315.2363">ScreenManager getScreenManager()</text><ellipse cx="626.5" cy="328.6172" fill="#84BE84" rx="3" ry="3" style="stroke:#038048;stroke-width:1.0;"/><text fill="#000000" font-family="sans-serif" font-size="14" lengthAdjust="spacing" textLength="261" x="635.5" y="332.8457">void setScreenManager(ScreenManager)</text><ellipse cx="626.5" cy="346.2266" fill="#84BE84" rx="3" ry="3" style="stroke:#038048;stroke-width:1.0;"/><text fill="#000000" font-family="sans-serif" font-size="14" lengthAdjust="spacing" textLength="228" x="635.5" y="350.4551">SoundManager getSoundManager()</text><ellipse cx="626.5" cy="363.8359" fill="#84BE84" rx="3" ry="3" style="stroke:#038048;stroke-width:1.0;"/><text fill="#000000" font-family="sans-serif" font-size="14" lengthAdjust="spacing" textLength="253" x="635.5" y="368.0645">void setSoundManager(SoundManager)</text><ellipse cx="626.5" cy="381.4453" fill="#84BE84" rx="3" ry="3" style="stroke:#038048;stroke-width:1.0;"/><text fill="#000000" font-family="sans-serif" font-size="14" lengthAdjust="spacing" textLength="143" x="635.5" y="385.6738">SpriteBatch getBatch()</text><ellipse cx="626.5" cy="399.0547" fill="#84BE84" rx="3" ry="3" style="stroke:#038048;stroke-width:1.0;"/><text fill="#000000" font-family="sans-serif" font-size="14" lengthAdjust="spacing" textLength="168" x="635.5" y="403.2832">void setBatch(SpriteBatch)</text><ellipse cx="626.5" cy="416.6641" fill="#84BE84" rx="3" ry="3" style="stroke:#038048;stroke-width:1.0;"/><text fill="#000000" font-family="sans-serif" font-size="14" lengthAdjust="spacing" textLength="135" x="635.5" y="420.8926">BitmapFont getFont()</text><ellipse cx="626.5" cy="434.2734" fill="#84BE84" rx="3" ry="3" style="stroke:#038048;stroke-width:1.0;"/><text fill="#000000" font-family="sans-serif" font-size="14" lengthAdjust="spacing" textLength="160" x="635.5" y="438.502">void setFont(BitmapFont)</text><ellipse cx="626.5" cy="451.8828" fill="#84BE84" rx="3" ry="3" style="stroke:#038048;stroke-width:1.0;"/><text fill="#000000" font-family="sans-serif" font-size="14" lengthAdjust="spacing" textLength="144" x="635.5" y="456.1113">Preferences getPrefs()</text><ellipse cx="626.5" cy="469.4922" fill="#84BE84" rx="3" ry="3" style="stroke:#038048;stroke-width:1.0;"/><text fill="#000000" font-family="sans-serif" font-size="14" lengthAdjust="spacing" textLength="169" x="635.5" y="473.7207">void setPrefs(Preferences)</text><ellipse cx="626.5" cy="487.1016" fill="#84BE84" rx="3" ry="3" style="stroke:#038048;stroke-width:1.0;"/><text fill="#000000" font-family="sans-serif" font-size="14" lengthAdjust="spacing" textLength="80" x="635.5" y="491.3301">void create()</text><ellipse cx="626.5" cy="504.7109" fill="#84BE84" rx="3" ry="3" style="stroke:#038048;stroke-width:1.0;"/><text fill="#000000" font-family="sans-serif" font-size="14" lengthAdjust="spacing" textLength="82" x="635.5" y="508.9395">void render()</text><ellipse cx="626.5" cy="522.3203" fill="#84BE84" rx="3" ry="3" style="stroke:#038048;stroke-width:1.0;"/><text fill="#000000" font-family="sans-serif" font-size="14" lengthAdjust="spacing" textLength="89" x="635.5" y="526.5488">void dispose()</text></g><!--MD5=[1ba4ba37b2501bed7c864212ceead3f8]
class com.mygdx.game.engine.entity.EntityManager--><g id="elem_com.mygdx.game.engine.entity.EntityManager"><rect codeLine="40" fill="#F1F1F1" height="364.9688" id="com.mygdx.game.engine.entity.EntityManager" rx="2.5" ry="2.5" style="stroke:#181818;stroke-width:0.5;" width="381" x="22.5" y="1178.6094"/><ellipse cx="163.25" cy="1194.6094" fill="#ADD1B2" rx="11" ry="11" style="stroke:#181818;stroke-width:1.0;"/><path d="M165.25,1191.1094 Q165.4531,1190.6094 165.6875,1190.3594 Q165.9219,1190.1094 166.1875,1190.1094 Q166.6563,1190.1094 166.9531,1190.3906 Q167.25,1190.6719 167.25,1191.3281 L167.25,1192.8906 Q167.25,1193.5469 166.9688,1193.8281 Q166.6875,1194.1094 166.25,1194.1094 Q165.8594,1194.1094 165.6094,1193.9375 Q165.3594,1193.7656 165.25,1193.3125 Q165.2031,1193 165.0313,1192.8281 Q164.7188,1192.5 164.1563,1192.3125 Q163.5938,1192.1094 163.0313,1192.1094 Q162.3281,1192.1094 161.7344,1192.3906 Q161.1563,1192.6719 160.7031,1193.2969 Q160.25,1193.9219 160.25,1194.7813 L160.25,1195.7031 Q160.25,1196.7344 161.0938,1197.4219 Q161.9375,1198.1094 163.4375,1198.1094 Q164.3281,1198.1094 164.9531,1197.9063 Q165.3125,1197.7969 165.7188,1197.4375 Q165.9844,1197.2344 166.125,1197.1719 Q166.2656,1197.1094 166.4375,1197.1094 Q166.7656,1197.1094 167,1197.375 Q167.25,1197.625 167.25,1197.9844 Q167.25,1198.3281 166.9063,1198.7344 Q166.4063,1199.3281 165.6094,1199.6563 Q164.5625,1200.1094 163.2813,1200.1094 Q161.7813,1200.1094 160.5781,1199.5156 Q159.6094,1199.0469 158.9219,1198.0313 Q158.25,1197.0156 158.25,1195.8125 L158.25,1194.7188 Q158.25,1193.4688 158.8438,1192.375 Q159.4531,1191.2813 160.5,1190.7031 Q161.5625,1190.1094 162.75,1190.1094 Q163.4688,1190.1094 164.0938,1190.3594 Q164.7188,1190.6094 165.25,1191.1094 Z " fill="#000000"/><text fill="#000000" font-family="sans-serif" font-size="14" lengthAdjust="spacing" textLength="91" x="183.75" y="1200.3379">EntityManager</text><line style="stroke:#181818;stroke-width:0.5;" x1="23.5" x2="402.5" y1="1210.6094" y2="1210.6094"/><rect fill="none" height="6" style="stroke:#C82930;stroke-width:1.0;" width="6" x="30.5" y="1221.9141"/><text fill="#000000" font-family="sans-serif" font-size="14" lengthAdjust="spacing" textLength="275" x="42.5" y="1229.1426">ArrayList&lt;CollidableEntity&lt;Player&gt;&gt; players</text><rect fill="none" height="6" style="stroke:#C82930;stroke-width:1.0;" width="6" x="30.5" y="1239.5234"/><text fill="#000000" font-family="sans-serif" font-size="14" lengthAdjust="spacing" textLength="299" x="42.5" y="1246.752">ArrayList&lt;CollidableEntity&lt;Asteroid&gt;&gt; asteroids</text><rect fill="none" height="6" style="stroke:#C82930;stroke-width:1.0;" width="6" x="30.5" y="1257.1328"/><text fill="#000000" font-family="sans-serif" font-size="14" lengthAdjust="spacing" textLength="254" x="42.5" y="1264.3613">ArrayList&lt;CollidableEntity&lt;UFO&gt;&gt; UFOs</text><rect fill="none" height="6" style="stroke:#C82930;stroke-width:1.0;" width="6" x="30.5" y="1274.7422"/><text fill="#000000" font-family="sans-serif" font-size="14" lengthAdjust="spacing" textLength="275" x="42.5" y="1281.9707">ArrayList&lt;CollidableEntity&lt;Planet&gt;&gt; planets</text><rect fill="none" height="6" style="stroke:#C82930;stroke-width:1.0;" width="6" x="30.5" y="1292.3516"/><text fill="#000000" font-family="sans-serif" font-size="14" lengthAdjust="spacing" textLength="152" x="42.5" y="1299.5801">String[] availablePlanets</text><rect fill="none" height="6" style="stroke:#C82930;stroke-width:1.0;" width="6" x="30.5" y="1309.9609"/><text fill="#000000" font-family="sans-serif" font-size="14" lengthAdjust="spacing" textLength="69" x="42.5" y="1317.1895">Main game</text><line style="stroke:#181818;stroke-width:0.5;" x1="23.5" x2="402.5" y1="1324.2656" y2="1324.2656"/><ellipse cx="33.5" cy="1338.5703" fill="#84BE84" rx="3" ry="3" style="stroke:#038048;stroke-width:1.0;"/><text fill="#000000" font-family="sans-serif" font-size="14" lengthAdjust="spacing" textLength="306" x="42.5" y="1342.7988">ArrayList&lt;CollidableEntity&lt;Planet&gt;&gt; getPlanets()</text><ellipse cx="33.5" cy="1356.1797" fill="#84BE84" rx="3" ry="3" style="stroke:#038048;stroke-width:1.0;"/><text fill="#000000" font-family="sans-serif" font-size="14" lengthAdjust="spacing" textLength="331" x="42.5" y="1360.4082">void setPlanets(ArrayList&lt;CollidableEntity&lt;Planet&gt;&gt;)</text><ellipse cx="33.5" cy="1373.7891" fill="#84BE84" rx="3" ry="3" style="stroke:#038048;stroke-width:1.0;"/><text fill="#000000" font-family="sans-serif" font-size="14" lengthAdjust="spacing" textLength="183" x="42.5" y="1378.0176">String[] getAvailablePlanets()</text><ellipse cx="33.5" cy="1391.3984" fill="#84BE84" rx="3" ry="3" style="stroke:#038048;stroke-width:1.0;"/><text fill="#000000" font-family="sans-serif" font-size="14" lengthAdjust="spacing" textLength="208" x="42.5" y="1395.627">void setAvailablePlanets(String[])</text><ellipse cx="33.5" cy="1409.0078" fill="#84BE84" rx="3" ry="3" style="stroke:#038048;stroke-width:1.0;"/><text fill="#000000" font-family="sans-serif" font-size="14" lengthAdjust="spacing" textLength="330" x="42.5" y="1413.2363">ArrayList&lt;CollidableEntity&lt;Asteroid&gt;&gt; getAsteroids()</text><ellipse cx="33.5" cy="1426.6172" fill="#84BE84" rx="3" ry="3" style="stroke:#038048;stroke-width:1.0;"/><text fill="#000000" font-family="sans-serif" font-size="14" lengthAdjust="spacing" textLength="355" x="42.5" y="1430.8457">void setAsteroids(ArrayList&lt;CollidableEntity&lt;Asteroid&gt;&gt;)</text><ellipse cx="33.5" cy="1444.2266" fill="#84BE84" rx="3" ry="3" style="stroke:#038048;stroke-width:1.0;"/><text fill="#000000" font-family="sans-serif" font-size="14" lengthAdjust="spacing" textLength="306" x="42.5" y="1448.4551">ArrayList&lt;CollidableEntity&lt;Player&gt;&gt; getPlayers()</text><ellipse cx="33.5" cy="1461.8359" fill="#84BE84" rx="3" ry="3" style="stroke:#038048;stroke-width:1.0;"/><text fill="#000000" font-family="sans-serif" font-size="14" lengthAdjust="spacing" textLength="140" x="42.5" y="1466.0645">void setPlayers(int,int)</text><ellipse cx="33.5" cy="1479.4453" fill="#84BE84" rx="3" ry="3" style="stroke:#038048;stroke-width:1.0;"/><text fill="#000000" font-family="sans-serif" font-size="14" lengthAdjust="spacing" textLength="284" x="42.5" y="1483.6738">ArrayList&lt;CollidableEntity&lt;UFO&gt;&gt; getUFOs()</text><ellipse cx="33.5" cy="1497.0547" fill="#84BE84" rx="3" ry="3" style="stroke:#038048;stroke-width:1.0;"/><text fill="#000000" font-family="sans-serif" font-size="14" lengthAdjust="spacing" textLength="162" x="42.5" y="1501.2832">void resetFailingObjects()</text><ellipse cx="33.5" cy="1514.6641" fill="#84BE84" rx="3" ry="3" style="stroke:#038048;stroke-width:1.0;"/><text fill="#000000" font-family="sans-serif" font-size="14" lengthAdjust="spacing" textLength="190" x="42.5" y="1518.8926">ArrayList spawnEnemy(String)</text><ellipse cx="33.5" cy="1532.2734" fill="#84BE84" rx="3" ry="3" style="stroke:#038048;stroke-width:1.0;"/><text fill="#000000" font-family="sans-serif" font-size="14" lengthAdjust="spacing" textLength="127" x="42.5" y="1536.502">void spawnPlanets()</text></g><!--MD5=[265ed1503543fee18ae5d1353cc0dfa4]
class com.mygdx.game.engine.screen.ScreenManager--><g id="elem_com.mygdx.game.engine.screen.ScreenManager"><rect codeLine="61" fill="#F1F1F1" height="646.7188" id="com.mygdx.game.engine.screen.ScreenManager" rx="2.5" ry="2.5" style="stroke:#181818;stroke-width:0.5;" width="511" x="503.5" y="1037.6094"/><ellipse cx="704.25" cy="1053.6094" fill="#ADD1B2" rx="11" ry="11" style="stroke:#181818;stroke-width:1.0;"/><path d="M706.25,1050.1094 Q706.4531,1049.6094 706.6875,1049.3594 Q706.9219,1049.1094 707.1875,1049.1094 Q707.6563,1049.1094 707.9531,1049.3906 Q708.25,1049.6719 708.25,1050.3281 L708.25,1051.8906 Q708.25,1052.5469 707.9688,1052.8281 Q707.6875,1053.1094 707.25,1053.1094 Q706.8594,1053.1094 706.6094,1052.9375 Q706.3594,1052.7656 706.25,1052.3125 Q706.2031,1052 706.0313,1051.8281 Q705.7188,1051.5 705.1563,1051.3125 Q704.5938,1051.1094 704.0313,1051.1094 Q703.3281,1051.1094 702.7344,1051.3906 Q702.1563,1051.6719 701.7031,1052.2969 Q701.25,1052.9219 701.25,1053.7813 L701.25,1054.7031 Q701.25,1055.7344 702.0938,1056.4219 Q702.9375,1057.1094 704.4375,1057.1094 Q705.3281,1057.1094 705.9531,1056.9063 Q706.3125,1056.7969 706.7188,1056.4375 Q706.9844,1056.2344 707.125,1056.1719 Q707.2656,1056.1094 707.4375,1056.1094 Q707.7656,1056.1094 708,1056.375 Q708.25,1056.625 708.25,1056.9844 Q708.25,1057.3281 707.9063,1057.7344 Q707.4063,1058.3281 706.6094,1058.6563 Q705.5625,1059.1094 704.2813,1059.1094 Q702.7813,1059.1094 701.5781,1058.5156 Q700.6094,1058.0469 699.9219,1057.0313 Q699.25,1056.0156 699.25,1054.8125 L699.25,1053.7188 Q699.25,1052.4688 699.8438,1051.375 Q700.4531,1050.2813 701.5,1049.7031 Q702.5625,1049.1094 703.75,1049.1094 Q704.4688,1049.1094 705.0938,1049.3594 Q705.7188,1049.6094 706.25,1050.1094 Z " fill="#000000"/><text fill="#000000" font-family="sans-serif" font-size="14" lengthAdjust="spacing" textLength="101" x="724.75" y="1059.3379">ScreenManager</text><line style="stroke:#181818;stroke-width:0.5;" x1="504.5" x2="1013.5" y1="1069.6094" y2="1069.6094"/><rect fill="none" height="6" style="stroke:#C82930;stroke-width:1.0;" width="6" x="511.5" y="1080.9141"/><text fill="#000000" font-family="sans-serif" font-size="14" lengthAdjust="spacing" textLength="232" x="523.5" y="1088.1426">ArrayList&lt;String&gt; storyboardImgPath</text><rect fill="none" height="6" style="stroke:#C82930;stroke-width:1.0;" width="6" x="511.5" y="1098.5234"/><text fill="#000000" font-family="sans-serif" font-size="14" lengthAdjust="spacing" textLength="229" x="523.5" y="1105.752">ArrayList&lt;String&gt; planetVisitImgPath</text><rect fill="none" height="6" style="stroke:#C82930;stroke-width:1.0;" width="6" x="511.5" y="1116.1328"/><text fill="#000000" font-family="sans-serif" font-size="14" lengthAdjust="spacing" textLength="266" x="523.5" y="1123.3613">ArrayList&lt;StoryboardScreen&gt; storyboards</text><rect fill="none" height="6" style="stroke:#C82930;stroke-width:1.0;" width="6" x="511.5" y="1133.7422"/><text fill="#000000" font-family="sans-serif" font-size="14" lengthAdjust="spacing" textLength="332" x="523.5" y="1140.9707">ArrayList&lt;StoryboardScreen&gt; visitPlanetStoryboards</text><rect fill="none" height="6" style="stroke:#C82930;stroke-width:1.0;" width="6" x="511.5" y="1151.3516"/><text fill="#000000" font-family="sans-serif" font-size="14" lengthAdjust="spacing" textLength="224" x="523.5" y="1158.5801">MainMenuScreen mainMenuScreen</text><rect fill="none" height="6" style="stroke:#C82930;stroke-width:1.0;" width="6" x="511.5" y="1168.9609"/><text fill="#000000" font-family="sans-serif" font-size="14" lengthAdjust="spacing" textLength="173" x="523.5" y="1176.1895">PauseScreen pauseScreen</text><rect fill="none" height="6" style="stroke:#C82930;stroke-width:1.0;" width="6" x="511.5" y="1186.5703"/><text fill="#000000" font-family="sans-serif" font-size="14" lengthAdjust="spacing" textLength="229" x="523.5" y="1193.7988">GameOverScreen gameOverScreen</text><rect fill="none" height="6" style="stroke:#C82930;stroke-width:1.0;" width="6" x="511.5" y="1204.1797"/><text fill="#000000" font-family="sans-serif" font-size="14" lengthAdjust="spacing" textLength="240" x="523.5" y="1211.4082">ScoreboardScreen scoreboardScreen</text><rect fill="none" height="6" style="stroke:#C82930;stroke-width:1.0;" width="6" x="511.5" y="1221.7891"/><text fill="#000000" font-family="sans-serif" font-size="14" lengthAdjust="spacing" textLength="183" x="523.5" y="1229.0176">ControlScreen controlScreen</text><rect fill="none" height="6" style="stroke:#C82930;stroke-width:1.0;" width="6" x="511.5" y="1239.3984"/><text fill="#000000" font-family="sans-serif" font-size="14" lengthAdjust="spacing" textLength="167" x="523.5" y="1246.627">GameScreen gameScreen</text><rect fill="none" height="6" style="stroke:#C82930;stroke-width:1.0;" width="6" x="511.5" y="1257.0078"/><text fill="#000000" font-family="sans-serif" font-size="14" lengthAdjust="spacing" textLength="69" x="523.5" y="1264.2363">Main game</text><line style="stroke:#181818;stroke-width:0.5;" x1="504.5" x2="1013.5" y1="1271.3125" y2="1271.3125"/><ellipse cx="514.5" cy="1285.6172" fill="#84BE84" rx="3" ry="3" style="stroke:#038048;stroke-width:1.0;"/><text fill="#000000" font-family="sans-serif" font-size="14" lengthAdjust="spacing" textLength="264" x="523.5" y="1289.8457">ArrayList&lt;String&gt; getStoryboardImgPath()</text><ellipse cx="514.5" cy="1303.2266" fill="#84BE84" rx="3" ry="3" style="stroke:#038048;stroke-width:1.0;"/><text fill="#000000" font-family="sans-serif" font-size="14" lengthAdjust="spacing" textLength="289" x="523.5" y="1307.4551">void setStoryboardImgPath(ArrayList&lt;String&gt;)</text><ellipse cx="514.5" cy="1320.8359" fill="#84BE84" rx="3" ry="3" style="stroke:#038048;stroke-width:1.0;"/><text fill="#000000" font-family="sans-serif" font-size="14" lengthAdjust="spacing" textLength="260" x="523.5" y="1325.0645">ArrayList&lt;String&gt; getPlanetVisitImgPath()</text><ellipse cx="514.5" cy="1338.4453" fill="#84BE84" rx="3" ry="3" style="stroke:#038048;stroke-width:1.0;"/><text fill="#000000" font-family="sans-serif" font-size="14" lengthAdjust="spacing" textLength="285" x="523.5" y="1342.6738">void setPlanetVisitImgPath(ArrayList&lt;String&gt;)</text><ellipse cx="514.5" cy="1356.0547" fill="#84BE84" rx="3" ry="3" style="stroke:#038048;stroke-width:1.0;"/><text fill="#000000" font-family="sans-serif" font-size="14" lengthAdjust="spacing" textLength="298" x="523.5" y="1360.2832">ArrayList&lt;StoryboardScreen&gt; getStoryboards()</text><ellipse cx="514.5" cy="1373.6641" fill="#84BE84" rx="3" ry="3" style="stroke:#038048;stroke-width:1.0;"/><text fill="#000000" font-family="sans-serif" font-size="14" lengthAdjust="spacing" textLength="323" x="523.5" y="1377.8926">void setStoryboards(ArrayList&lt;StoryboardScreen&gt;)</text><ellipse cx="514.5" cy="1391.2734" fill="#84BE84" rx="3" ry="3" style="stroke:#038048;stroke-width:1.0;"/><text fill="#000000" font-family="sans-serif" font-size="14" lengthAdjust="spacing" textLength="364" x="523.5" y="1395.502">ArrayList&lt;StoryboardScreen&gt; getVisitPlanetStoryboards()</text><ellipse cx="514.5" cy="1408.8828" fill="#84BE84" rx="3" ry="3" style="stroke:#038048;stroke-width:1.0;"/><text fill="#000000" font-family="sans-serif" font-size="14" lengthAdjust="spacing" textLength="389" x="523.5" y="1413.1113">void setVisitPlanetStoryboards(ArrayList&lt;StoryboardScreen&gt;)</text><ellipse cx="514.5" cy="1426.4922" fill="#84BE84" rx="3" ry="3" style="stroke:#038048;stroke-width:1.0;"/><text fill="#000000" font-family="sans-serif" font-size="14" lengthAdjust="spacing" textLength="279" x="523.5" y="1430.7207">void setMainMenuScreen(MainMenuScreen)</text><ellipse cx="514.5" cy="1444.1016" fill="#84BE84" rx="3" ry="3" style="stroke:#038048;stroke-width:1.0;"/><text fill="#000000" font-family="sans-serif" font-size="14" lengthAdjust="spacing" textLength="229" x="523.5" y="1448.3301">void setPauseScreen(PauseScreen)</text><ellipse cx="514.5" cy="1461.7109" fill="#84BE84" rx="3" ry="3" style="stroke:#038048;stroke-width:1.0;"/><text fill="#000000" font-family="sans-serif" font-size="14" lengthAdjust="spacing" textLength="287" x="523.5" y="1465.9395">void setGameOverScreen(GameOverScreen)</text><ellipse cx="514.5" cy="1479.3203" fill="#84BE84" rx="3" ry="3" style="stroke:#038048;stroke-width:1.0;"/><text fill="#000000" font-family="sans-serif" font-size="14" lengthAdjust="spacing" textLength="297" x="523.5" y="1483.5488">void setScoreboardScreen(ScoreboardScreen)</text><ellipse cx="514.5" cy="1496.9297" fill="#84BE84" rx="3" ry="3" style="stroke:#038048;stroke-width:1.0;"/><text fill="#000000" font-family="sans-serif" font-size="14" lengthAdjust="spacing" textLength="241" x="523.5" y="1501.1582">void setControlScreen(ControlScreen)</text><ellipse cx="514.5" cy="1514.5391" fill="#84BE84" rx="3" ry="3" style="stroke:#038048;stroke-width:1.0;"/><text fill="#000000" font-family="sans-serif" font-size="14" lengthAdjust="spacing" textLength="225" x="523.5" y="1518.7676">void setGameScreen(GameScreen)</text><ellipse cx="514.5" cy="1532.1484" fill="#84BE84" rx="3" ry="3" style="stroke:#038048;stroke-width:1.0;"/><text fill="#000000" font-family="sans-serif" font-size="14" lengthAdjust="spacing" textLength="157" x="523.5" y="1536.377">void instantiateScreens()</text><ellipse cx="514.5" cy="1549.7578" fill="#84BE84" rx="3" ry="3" style="stroke:#038048;stroke-width:1.0;"/><text fill="#000000" font-family="sans-serif" font-size="14" lengthAdjust="spacing" textLength="254" x="523.5" y="1553.9863">MainMenuScreen getMainMenuScreen()</text><ellipse cx="514.5" cy="1567.3672" fill="#84BE84" rx="3" ry="3" style="stroke:#038048;stroke-width:1.0;"/><text fill="#000000" font-family="sans-serif" font-size="14" lengthAdjust="spacing" textLength="204" x="523.5" y="1571.5957">PauseScreen getPauseScreen()</text><ellipse cx="514.5" cy="1584.9766" fill="#84BE84" rx="3" ry="3" style="stroke:#038048;stroke-width:1.0;"/><text fill="#000000" font-family="sans-serif" font-size="14" lengthAdjust="spacing" textLength="262" x="523.5" y="1589.2051">GameOverScreen getGameOverScreen()</text><ellipse cx="514.5" cy="1602.5859" fill="#84BE84" rx="3" ry="3" style="stroke:#038048;stroke-width:1.0;"/><text fill="#000000" font-family="sans-serif" font-size="14" lengthAdjust="spacing" textLength="272" x="523.5" y="1606.8145">ScoreboardScreen getScoreboardScreen()</text><ellipse cx="514.5" cy="1620.1953" fill="#84BE84" rx="3" ry="3" style="stroke:#038048;stroke-width:1.0;"/><text fill="#000000" font-family="sans-serif" font-size="14" lengthAdjust="spacing" textLength="216" x="523.5" y="1624.4238">ControlScreen getControlScreen()</text><ellipse cx="514.5" cy="1637.8047" fill="#84BE84" rx="3" ry="3" style="stroke:#038048;stroke-width:1.0;"/><text fill="#000000" font-family="sans-serif" font-size="14" lengthAdjust="spacing" textLength="200" x="523.5" y="1642.0332">GameScreen getGameScreen()</text><ellipse cx="514.5" cy="1655.4141" fill="#84BE84" rx="3" ry="3" style="stroke:#038048;stroke-width:1.0;"/><text fill="#000000" font-family="sans-serif" font-size="14" lengthAdjust="spacing" textLength="449" x="523.5" y="1659.6426">void createScreenButtons(int,ArrayList&lt;Button&gt;,float,ArrayList&lt;String&gt;)</text><ellipse cx="514.5" cy="1673.0234" fill="#84BE84" rx="3" ry="3" style="stroke:#038048;stroke-width:1.0;"/><text fill="#000000" font-family="sans-serif" font-size="14" lengthAdjust="spacing" textLength="485" x="523.5" y="1677.252">ArrayList&lt;StoryboardScreen&gt; generateStoryboards(ArrayList&lt;String&gt;,String)</text></g><!--MD5=[a4ca3b467205f43fca8f57f73af73fd4]
class com.mygdx.game.engine.sound.SoundManager--><g id="elem_com.mygdx.game.engine.sound.SoundManager"><rect codeLine="98" fill="#F1F1F1" height="382.5781" id="com.mygdx.game.engine.sound.SoundManager" rx="2.5" ry="2.5" style="stroke:#181818;stroke-width:0.5;" width="212" x="1115" y="1169.6094"/><ellipse cx="1168.25" cy="1185.6094" fill="#ADD1B2" rx="11" ry="11" style="stroke:#181818;stroke-width:1.0;"/><path d="M1170.25,1182.1094 Q1170.4531,1181.6094 1170.6875,1181.3594 Q1170.9219,1181.1094 1171.1875,1181.1094 Q1171.6563,1181.1094 1171.9531,1181.3906 Q1172.25,1181.6719 1172.25,1182.3281 L1172.25,1183.8906 Q1172.25,1184.5469 1171.9688,1184.8281 Q1171.6875,1185.1094 1171.25,1185.1094 Q1170.8594,1185.1094 1170.6094,1184.9375 Q1170.3594,1184.7656 1170.25,1184.3125 Q1170.2031,1184 1170.0313,1183.8281 Q1169.7188,1183.5 1169.1563,1183.3125 Q1168.5938,1183.1094 1168.0313,1183.1094 Q1167.3281,1183.1094 1166.7344,1183.3906 Q1166.1563,1183.6719 1165.7031,1184.2969 Q1165.25,1184.9219 1165.25,1185.7813 L1165.25,1186.7031 Q1165.25,1187.7344 1166.0938,1188.4219 Q1166.9375,1189.1094 1168.4375,1189.1094 Q1169.3281,1189.1094 1169.9531,1188.9063 Q1170.3125,1188.7969 1170.7188,1188.4375 Q1170.9844,1188.2344 1171.125,1188.1719 Q1171.2656,1188.1094 1171.4375,1188.1094 Q1171.7656,1188.1094 1172,1188.375 Q1172.25,1188.625 1172.25,1188.9844 Q1172.25,1189.3281 1171.9063,1189.7344 Q1171.4063,1190.3281 1170.6094,1190.6563 Q1169.5625,1191.1094 1168.2813,1191.1094 Q1166.7813,1191.1094 1165.5781,1190.5156 Q1164.6094,1190.0469 1163.9219,1189.0313 Q1163.25,1188.0156 1163.25,1186.8125 L1163.25,1185.7188 Q1163.25,1184.4688 1163.8438,1183.375 Q1164.4531,1182.2813 1165.5,1181.7031 Q1166.5625,1181.1094 1167.75,1181.1094 Q1168.4688,1181.1094 1169.0938,1181.3594 Q1169.7188,1181.6094 1170.25,1182.1094 Z " fill="#000000"/><text fill="#000000" font-family="sans-serif" font-size="14" lengthAdjust="spacing" textLength="97" x="1188.75" y="1191.3379">SoundManager</text><line style="stroke:#181818;stroke-width:0.5;" x1="1116" x2="1326" y1="1201.6094" y2="1201.6094"/><rect fill="none" height="6" style="stroke:#C82930;stroke-width:1.0;" width="6" x="1123" y="1212.9141"/><text fill="#000000" font-family="sans-serif" font-size="14" lengthAdjust="spacing" text-decoration="underline" textLength="111" x="1135" y="1220.1426">Music menuMusic</text><rect fill="none" height="6" style="stroke:#C82930;stroke-width:1.0;" width="6" x="1123" y="1230.5234"/><text fill="#000000" font-family="sans-serif" font-size="14" lengthAdjust="spacing" text-decoration="underline" textLength="111" x="1135" y="1237.752">Music gameMusic</text><rect fill="none" height="6" style="stroke:#C82930;stroke-width:1.0;" width="6" x="1123" y="1248.1328"/><text fill="#000000" font-family="sans-serif" font-size="14" lengthAdjust="spacing" text-decoration="underline" textLength="119" x="1135" y="1255.3613">Music controlMusic</text><rect fill="none" height="6" style="stroke:#C82930;stroke-width:1.0;" width="6" x="1123" y="1265.7422"/><text fill="#000000" font-family="sans-serif" font-size="14" lengthAdjust="spacing" text-decoration="underline" textLength="111" x="1135" y="1272.9707">Music scoreMusic</text><rect fill="none" height="6" style="stroke:#C82930;stroke-width:1.0;" width="6" x="1123" y="1283.3516"/><text fill="#000000" font-family="sans-serif" font-size="14" lengthAdjust="spacing" text-decoration="underline" textLength="115" x="1135" y="1290.5801">Music pauseMusic</text><rect fill="none" height="6" style="stroke:#C82930;stroke-width:1.0;" width="6" x="1123" y="1300.9609"/><text fill="#000000" font-family="sans-serif" font-size="14" lengthAdjust="spacing" text-decoration="underline" textLength="107" x="1135" y="1308.1895">Music storyMusic</text><rect fill="none" height="6" style="stroke:#C82930;stroke-width:1.0;" width="6" x="1123" y="1318.5703"/><text fill="#000000" font-family="sans-serif" font-size="14" lengthAdjust="spacing" text-decoration="underline" textLength="122" x="1135" y="1325.7988">Sound buttonHover</text><rect fill="none" height="6" style="stroke:#C82930;stroke-width:1.0;" width="6" x="1123" y="1336.1797"/><text fill="#000000" font-family="sans-serif" font-size="14" lengthAdjust="spacing" text-decoration="underline" textLength="115" x="1135" y="1343.4082">Sound buttonClick</text><rect fill="none" height="6" style="stroke:#C82930;stroke-width:1.0;" width="6" x="1123" y="1353.7891"/><text fill="#000000" font-family="sans-serif" font-size="14" lengthAdjust="spacing" text-decoration="underline" textLength="102" x="1135" y="1361.0176">Sound laserPew</text><rect fill="none" height="6" style="stroke:#C82930;stroke-width:1.0;" width="6" x="1123" y="1371.3984"/><text fill="#000000" font-family="sans-serif" font-size="14" lengthAdjust="spacing" text-decoration="underline" textLength="149" x="1135" y="1378.627">Sound enemyLaserPew</text><rect fill="none" height="6" style="stroke:#C82930;stroke-width:1.0;" width="6" x="1123" y="1389.0078"/><text fill="#000000" font-family="sans-serif" font-size="14" lengthAdjust="spacing" text-decoration="underline" textLength="111" x="1135" y="1396.2363">boolean isPlaying</text><line style="stroke:#181818;stroke-width:0.5;" x1="1116" x2="1326" y1="1403.3125" y2="1403.3125"/><ellipse cx="1126" cy="1417.6172" fill="#84BE84" rx="3" ry="3" style="stroke:#038048;stroke-width:1.0;"/><text fill="#000000" font-family="sans-serif" font-size="14" lengthAdjust="spacing" text-decoration="underline" textLength="179" x="1135" y="1421.8457">void playMusic(ScreenType)</text><ellipse cx="1126" cy="1435.2266" fill="#84BE84" rx="3" ry="3" style="stroke:#038048;stroke-width:1.0;"/><text fill="#000000" font-family="sans-serif" font-size="14" lengthAdjust="spacing" text-decoration="underline" textLength="103" x="1135" y="1439.4551">void stopMusic()</text><ellipse cx="1126" cy="1452.8359" fill="#84BE84" rx="3" ry="3" style="stroke:#038048;stroke-width:1.0;"/><text fill="#000000" font-family="sans-serif" font-size="14" lengthAdjust="spacing" text-decoration="underline" textLength="121" x="1135" y="1457.0645">boolean isPlaying()</text><ellipse cx="1126" cy="1470.4453" fill="#84BE84" rx="3" ry="3" style="stroke:#038048;stroke-width:1.0;"/><text fill="#000000" font-family="sans-serif" font-size="14" lengthAdjust="spacing" textLength="144" x="1135" y="1474.6738">void playButtonHover()</text><ellipse cx="1126" cy="1488.0547" fill="#84BE84" rx="3" ry="3" style="stroke:#038048;stroke-width:1.0;"/><text fill="#000000" font-family="sans-serif" font-size="14" lengthAdjust="spacing" textLength="137" x="1135" y="1492.2832">void playButtonClick()</text><ellipse cx="1126" cy="1505.6641" fill="#84BE84" rx="3" ry="3" style="stroke:#038048;stroke-width:1.0;"/><text fill="#000000" font-family="sans-serif" font-size="14" lengthAdjust="spacing" textLength="143" x="1135" y="1509.8926">void playLaserSound()</text><ellipse cx="1126" cy="1523.2734" fill="#84BE84" rx="3" ry="3" style="stroke:#038048;stroke-width:1.0;"/><text fill="#000000" font-family="sans-serif" font-size="14" lengthAdjust="spacing" textLength="186" x="1135" y="1527.502">void playEnemyLaserSound()</text><ellipse cx="1126" cy="1540.8828" fill="#84BE84" rx="3" ry="3" style="stroke:#038048;stroke-width:1.0;"/><text fill="#000000" font-family="sans-serif" font-size="14" lengthAdjust="spacing" textLength="89" x="1135" y="1545.1113">void dispose()</text></g><!--MD5=[d70078c2eed13a68849048b94b116add]
reverse link com.mygdx.game.engine.lifecycle.Main to com.mygdx.game.engine.screen.ScreenManager--><g id="link_com.mygdx.game.engine.lifecycle.Main_com.mygdx.game.engine.screen.ScreenManager"><path codeLine="120" d="M759,546.8694 C759,546.8694 759,1037.5094 759,1037.5094 " fill="none" id="com.mygdx.game.engine.lifecycle.Main-backto-com.mygdx.game.engine.screen.ScreenManager" style="stroke:#181818;stroke-width:1.0;"/><polygon fill="#181818" points="759,533.8694,755,539.8694,759,545.8694,763,539.8694,759,533.8694" style="stroke:#181818;stroke-width:1.0;"/><text fill="#000000" font-family="sans-serif" font-size="13" lengthAdjust="spacing" textLength="21" x="737" y="788.6845">has</text></g><!--MD5=[585ad4a7c251c92416027dd527503b11]
reverse link com.mygdx.game.engine.lifecycle.Main to com.mygdx.game.engine.sound.SoundManager--><g id="link_com.mygdx.game.engine.lifecycle.Main_com.mygdx.game.engine.sound.SoundManager"><path codeLine="121" d="M915.65,307.6094 C915.65,307.6094 1221,307.6094 1221,307.6094 C1221,307.6094 1221,865.6194 1221,1169.4094 " fill="none" id="com.mygdx.game.engine.lifecycle.Main-backto-com.mygdx.game.engine.sound.SoundManager" style="stroke:#181818;stroke-width:1.0;"/><polygon fill="#181818" points="902.65,307.6094,908.65,311.6094,914.65,307.6094,908.65,303.6094,902.65,307.6094" style="stroke:#181818;stroke-width:1.0;"/><text fill="#000000" font-family="sans-serif" font-size="13" lengthAdjust="spacing" textLength="21" x="1199" y="582.3245">has</text></g><!--MD5=[30c1bb0219527dd2f59c248685e3dd20]
reverse link com.mygdx.game.engine.lifecycle.Main to com.mygdx.game.engine.entity.EntityManager--><g id="link_com.mygdx.game.engine.lifecycle.Main_com.mygdx.game.engine.entity.EntityManager"><path codeLine="122" d="M602.19,307.6094 C602.19,307.6094 213,307.6094 213,307.6094 C213,307.6094 213,876.8994 213,1178.5094 " fill="none" id="com.mygdx.game.engine.lifecycle.Main-backto-com.mygdx.game.engine.entity.EntityManager" style="stroke:#181818;stroke-width:1.0;"/><polygon fill="#181818" points="615.19,307.6094,609.19,303.6094,603.19,307.6094,609.19,311.6094,615.19,307.6094" style="stroke:#181818;stroke-width:1.0;"/><text fill="#000000" font-family="sans-serif" font-size="13" lengthAdjust="spacing" textLength="21" x="191" y="544.9545">has</text></g><!--MD5=[bea0b3382a67405d46007c66ec1d37b0]
@startuml
skinparam linetype polyline
skinparam linetype ortho

skinparam nodesep 100
skinparam ranksep 100

skinparam titleBorderRoundCorner 15
skinparam titleBorderThickness 2
skinparam titleBorderColor red
skinparam titleBackgroundColor Aqua-CadetBlue

title Main Class Composition Relations

class com.mygdx.game.engine.lifecycle.Main {
- {static} Main instance
- ScreenManager screenManager
- Preferences prefs
- SoundManager soundManager
+ EntityManager entityManager
- SpriteBatch batch
- BitmapFont font
+ int HEIGHT
+ int WIDTH
+ {static} Main getInstance()
+ ScreenManager getScreenManager()
+ void setScreenManager(ScreenManager)
+ SoundManager getSoundManager()
+ void setSoundManager(SoundManager)
+ SpriteBatch getBatch()
+ void setBatch(SpriteBatch)
+ BitmapFont getFont()
+ void setFont(BitmapFont)
+ Preferences getPrefs()
+ void setPrefs(Preferences)
+ void create()
+ void render()
+ void dispose()
}

class com.mygdx.game.engine.entity.EntityManager {
- ArrayList<CollidableEntity<Player>> players
- ArrayList<CollidableEntity<Asteroid>> asteroids
- ArrayList<CollidableEntity<UFO>> UFOs
- ArrayList<CollidableEntity<Planet>> planets
- String[] availablePlanets
- Main game
+ ArrayList<CollidableEntity<Planet>> getPlanets()
+ void setPlanets(ArrayList<CollidableEntity<Planet>>)
+ String[] getAvailablePlanets()
+ void setAvailablePlanets(String[])
+ ArrayList<CollidableEntity<Asteroid>> getAsteroids()
+ void setAsteroids(ArrayList<CollidableEntity<Asteroid>>)
+ ArrayList<CollidableEntity<Player>> getPlayers()
+ void setPlayers(int,int)
+ ArrayList<CollidableEntity<UFO>> getUFOs()
+ void resetFailingObjects()
+ ArrayList spawnEnemy(String)
+ void spawnPlanets()
}

class com.mygdx.game.engine.screen.ScreenManager {
- ArrayList<String> storyboardImgPath
- ArrayList<String> planetVisitImgPath
- ArrayList<StoryboardScreen> storyboards
- ArrayList<StoryboardScreen> visitPlanetStoryboards
- MainMenuScreen mainMenuScreen
- PauseScreen pauseScreen
- GameOverScreen gameOverScreen
- ScoreboardScreen scoreboardScreen
- ControlScreen controlScreen
- GameScreen gameScreen
- Main game
+ ArrayList<String> getStoryboardImgPath()
+ void setStoryboardImgPath(ArrayList<String>)
+ ArrayList<String> getPlanetVisitImgPath()
+ void setPlanetVisitImgPath(ArrayList<String>)
+ ArrayList<StoryboardScreen> getStoryboards()
+ void setStoryboards(ArrayList<StoryboardScreen>)
+ ArrayList<StoryboardScreen> getVisitPlanetStoryboards()
+ void setVisitPlanetStoryboards(ArrayList<StoryboardScreen>)
+ void setMainMenuScreen(MainMenuScreen)
+ void setPauseScreen(PauseScreen)
+ void setGameOverScreen(GameOverScreen)
+ void setScoreboardScreen(ScoreboardScreen)
+ void setControlScreen(ControlScreen)
+ void setGameScreen(GameScreen)
+ void instantiateScreens()
+ MainMenuScreen getMainMenuScreen()
+ PauseScreen getPauseScreen()
+ GameOverScreen getGameOverScreen()
+ ScoreboardScreen getScoreboardScreen()
+ ControlScreen getControlScreen()
+ GameScreen getGameScreen()
+ void createScreenButtons(int,ArrayList<Button>,float,ArrayList<String>)
+ ArrayList<StoryboardScreen> generateStoryboards(ArrayList<String>,String)
}

class com.mygdx.game.engine.sound.SoundManager {
- {static} Music menuMusic
- {static} Music gameMusic
- {static} Music controlMusic
- {static} Music scoreMusic
- {static} Music pauseMusic
- {static} Music storyMusic
- {static} Sound buttonHover
- {static} Sound buttonClick
- {static} Sound laserPew
- {static} Sound enemyLaserPew
- {static} boolean isPlaying
+ {static} void playMusic(ScreenType)
+ {static} void stopMusic()
+ {static} boolean isPlaying()
+ void playButtonHover()
+ void playButtonClick()
+ void playLaserSound()
+ void playEnemyLaserSound()
+ void dispose()
}

com.mygdx.game.engine.lifecycle.Main *- - - - - - com.mygdx.game.engine.screen.ScreenManager :has
com.mygdx.game.engine.lifecycle.Main *- - - - - - com.mygdx.game.engine.sound.SoundManager :has
com.mygdx.game.engine.lifecycle.Main *- - - - - - com.mygdx.game.engine.entity.EntityManager :has
@enduml

PlantUML version 1.2022.12(Mon Oct 24 02:12:26 SGT 2022)
(GPL source distribution)
Java Runtime: OpenJDK Runtime Environment
JVM: OpenJDK 64-Bit Server VM
Default Encoding: Cp1252
Language: en
Country: SG
--></g></svg>