<?xml version="1.0" encoding="UTF-8" standalone="no"?><svg xmlns="http://www.w3.org/2000/svg" xmlns:xlink="http://www.w3.org/1999/xlink" contentStyleType="text/css" height="1671px" preserveAspectRatio="none" style="width:961px;height:1671px;background:#FFFFFF;" version="1.1" viewBox="0 0 961 1671" width="961px" zoomAndPan="magnify"><defs><linearGradient id="g1vvmbxzgd3ix00" x1="50%" x2="50%" y1="0%" y2="100%"><stop offset="0%" stop-color="#00FFFF"/><stop offset="100%" stop-color="#5F9EA0"/></linearGradient></defs><g><rect fill="url(#g1vvmbxzgd3ix00)" height="27.6094" id="_title" rx="7.5" ry="7.5" style="stroke:#FF0000;stroke-width:2.0;" width="338" x="304.5" y="5"/><text fill="#000000" font-family="sans-serif" font-size="14" font-weight="bold" lengthAdjust="spacing" textLength="328" x="309.5" y="24.5332">MainMenuScreen Class Composition Relations</text><!--MD5=[ec129861e6194a645611de3369ad0d54]
cluster com.mygdx.game.game.screens.menu--><g id="cluster_com.mygdx.game.game.screens.menu"><path d="M331.5,44.6094 L598.5,44.6094 A3.75,3.75 0 0 1 601,47.1094 L608,68.2188 L682.5,68.2188 A2.5,2.5 0 0 1 685,70.7188 L685,494.1094 A2.5,2.5 0 0 1 682.5,496.6094 L331.5,496.6094 A2.5,2.5 0 0 1 329,494.1094 L329,47.1094 A2.5,2.5 0 0 1 331.5,44.6094 " fill="none" style="stroke:#000000;stroke-width:1.5;"/><line style="stroke:#000000;stroke-width:1.5;" x1="329" x2="608" y1="68.2188" y2="68.2188"/><text fill="#000000" font-family="sans-serif" font-size="14" font-weight="bold" lengthAdjust="spacing" textLength="266" x="333" y="61.1426">com.mygdx.game.game.screens.menu</text></g><!--MD5=[f5720f8f2d84faa53b7e58c13b303426]
cluster com.mygdx.game.engine.lifecycle--><g id="cluster_com.mygdx.game.engine.lifecycle"><path d="M8.5,1054.1094 L244.5,1054.1094 A3.75,3.75 0 0 1 247,1056.6094 L254,1077.7188 L323.5,1077.7188 A2.5,2.5 0 0 1 326,1080.2188 L326,1556.6094 A2.5,2.5 0 0 1 323.5,1559.1094 L8.5,1559.1094 A2.5,2.5 0 0 1 6,1556.6094 L6,1056.6094 A2.5,2.5 0 0 1 8.5,1054.1094 " fill="none" style="stroke:#000000;stroke-width:1.5;"/><line style="stroke:#000000;stroke-width:1.5;" x1="6" x2="254" y1="1077.7188" y2="1077.7188"/><text fill="#000000" font-family="sans-serif" font-size="14" font-weight="bold" lengthAdjust="spacing" textLength="235" x="10" y="1070.6426">com.mygdx.game.engine.lifecycle</text></g><!--MD5=[683aabdc962ad2ab98ef14c38ed732ec]
cluster com.mygdx.game.game.components.ui--><g id="cluster_com.mygdx.game.game.components.ui"><path d="M366.5,948.6094 L637.5,948.6094 A3.75,3.75 0 0 1 640,951.1094 L647,972.2188 L647.5,972.2188 A2.5,2.5 0 0 1 650,974.7188 L650,1662.1094 A2.5,2.5 0 0 1 647.5,1664.6094 L366.5,1664.6094 A2.5,2.5 0 0 1 364,1662.1094 L364,951.1094 A2.5,2.5 0 0 1 366.5,948.6094 " fill="none" style="stroke:#000000;stroke-width:1.5;"/><line style="stroke:#000000;stroke-width:1.5;" x1="364" x2="647" y1="972.2188" y2="972.2188"/><text fill="#000000" font-family="sans-serif" font-size="14" font-weight="bold" lengthAdjust="spacing" textLength="270" x="368" y="965.1426">com.mygdx.game.game.components.ui</text></g><!--MD5=[6d572adab93e1a2768c068c53f7d318b]
cluster com.mygdx.game.engine.input--><g id="cluster_com.mygdx.game.engine.input"><path d="M690.5,1168.6094 L904.5,1168.6094 A3.75,3.75 0 0 1 907,1171.1094 L914,1192.2188 L951.5,1192.2188 A2.5,2.5 0 0 1 954,1194.7188 L954,1442.1094 A2.5,2.5 0 0 1 951.5,1444.6094 L690.5,1444.6094 A2.5,2.5 0 0 1 688,1442.1094 L688,1171.1094 A2.5,2.5 0 0 1 690.5,1168.6094 " fill="none" style="stroke:#000000;stroke-width:1.5;"/><line style="stroke:#000000;stroke-width:1.5;" x1="688" x2="914" y1="1192.2188" y2="1192.2188"/><text fill="#000000" font-family="sans-serif" font-size="14" font-weight="bold" lengthAdjust="spacing" textLength="213" x="692" y="1185.1426">com.mygdx.game.engine.input</text></g><!--MD5=[5f278419558301d98b97dd4a2a287b8c]
class com.mygdx.game.game.screens.menu.MainMenuScreen--><g id="elem_com.mygdx.game.game.screens.menu.MainMenuScreen"><rect codeLine="14" fill="#F1F1F1" height="400.1875" id="com.mygdx.game.game.screens.menu.MainMenuScreen" rx="2.5" ry="2.5" style="stroke:#181818;stroke-width:0.5;" width="323" x="345.5" y="80.6094"/><ellipse cx="447.75" cy="96.6094" fill="#ADD1B2" rx="11" ry="11" style="stroke:#181818;stroke-width:1.0;"/><path d="M449.75,93.1094 Q449.9531,92.6094 450.1875,92.3594 Q450.4219,92.1094 450.6875,92.1094 Q451.1563,92.1094 451.4531,92.3906 Q451.75,92.6719 451.75,93.3281 L451.75,94.8906 Q451.75,95.5469 451.4688,95.8281 Q451.1875,96.1094 450.75,96.1094 Q450.3594,96.1094 450.1094,95.9375 Q449.8594,95.7656 449.75,95.3125 Q449.7031,95 449.5313,94.8281 Q449.2188,94.5 448.6563,94.3125 Q448.0938,94.1094 447.5313,94.1094 Q446.8281,94.1094 446.2344,94.3906 Q445.6563,94.6719 445.2031,95.2969 Q444.75,95.9219 444.75,96.7813 L444.75,97.7031 Q444.75,98.7344 445.5938,99.4219 Q446.4375,100.1094 447.9375,100.1094 Q448.8281,100.1094 449.4531,99.9063 Q449.8125,99.7969 450.2188,99.4375 Q450.4844,99.2344 450.625,99.1719 Q450.7656,99.1094 450.9375,99.1094 Q451.2656,99.1094 451.5,99.375 Q451.75,99.625 451.75,99.9844 Q451.75,100.3281 451.4063,100.7344 Q450.9063,101.3281 450.1094,101.6563 Q449.0625,102.1094 447.7813,102.1094 Q446.2813,102.1094 445.0781,101.5156 Q444.1094,101.0469 443.4219,100.0313 Q442.75,99.0156 442.75,97.8125 L442.75,96.7188 Q442.75,95.4688 443.3438,94.375 Q443.9531,93.2813 445,92.7031 Q446.0625,92.1094 447.25,92.1094 Q447.9688,92.1094 448.5938,92.3594 Q449.2188,92.6094 449.75,93.1094 Z " fill="#000000"/><text fill="#000000" font-family="sans-serif" font-size="14" lengthAdjust="spacing" textLength="110" x="468.25" y="102.3379">MainMenuScreen</text><line style="stroke:#181818;stroke-width:0.5;" x1="346.5" x2="667.5" y1="112.6094" y2="112.6094"/><rect fill="none" height="6" style="stroke:#C82930;stroke-width:1.0;" width="6" x="353.5" y="123.9141"/><text fill="#000000" font-family="sans-serif" font-size="14" lengthAdjust="spacing" textLength="242" x="365.5" y="131.1426">CustomInputProcessor inputProcessor</text><rect fill="none" height="6" style="stroke:#C82930;stroke-width:1.0;" width="6" x="353.5" y="141.5234"/><text fill="#000000" font-family="sans-serif" font-size="14" lengthAdjust="spacing" textLength="69" x="365.5" y="148.752">Main game</text><rect fill="none" height="6" style="stroke:#C82930;stroke-width:1.0;" width="6" x="353.5" y="159.1328"/><text fill="#000000" font-family="sans-serif" font-size="14" lengthAdjust="spacing" textLength="184" x="365.5" y="166.3613">OrthographicCamera camera</text><rect fill="none" height="6" style="stroke:#C82930;stroke-width:1.0;" width="6" x="353.5" y="176.7422"/><text fill="#000000" font-family="sans-serif" font-size="14" lengthAdjust="spacing" textLength="164" x="365.5" y="183.9707">ArrayList&lt;Button&gt; buttons</text><rect fill="none" height="6" style="stroke:#C82930;stroke-width:1.0;" width="6" x="353.5" y="194.3516"/><text fill="#000000" font-family="sans-serif" font-size="14" lengthAdjust="spacing" textLength="112" x="365.5" y="201.5801">SpriteBatch batch</text><rect fill="none" height="6" style="stroke:#C82930;stroke-width:1.0;" width="6" x="353.5" y="211.9609"/><text fill="#000000" font-family="sans-serif" font-size="14" lengthAdjust="spacing" textLength="95" x="365.5" y="219.1895">Texture texture</text><rect fill="none" height="6" style="stroke:#C82930;stroke-width:1.0;" width="6" x="353.5" y="229.5703"/><text fill="#000000" font-family="sans-serif" font-size="14" lengthAdjust="spacing" textLength="220" x="365.5" y="236.7988">ArrayList&lt;String&gt; buttonImagePath</text><rect fill="none" height="6" style="stroke:#C82930;stroke-width:1.0;" width="6" x="353.5" y="247.1797"/><text fill="#000000" font-family="sans-serif" font-size="14" lengthAdjust="spacing" textLength="137" x="365.5" y="254.4082">boolean soundPlayed</text><rect fill="none" height="6" style="stroke:#C82930;stroke-width:1.0;" width="6" x="353.5" y="264.7891"/><text fill="#000000" font-family="sans-serif" font-size="14" lengthAdjust="spacing" textLength="240" x="365.5" y="272.0176">ScoreboardScreen scoreboardScreen</text><line style="stroke:#181818;stroke-width:0.5;" x1="346.5" x2="667.5" y1="279.0938" y2="279.0938"/><ellipse cx="356.5" cy="293.3984" fill="#84BE84" rx="3" ry="3" style="stroke:#038048;stroke-width:1.0;"/><text fill="#000000" font-family="sans-serif" font-size="14" lengthAdjust="spacing" textLength="297" x="365.5" y="297.627">void setInputProcessor(CustomInputProcessor)</text><ellipse cx="356.5" cy="311.0078" fill="#84BE84" rx="3" ry="3" style="stroke:#038048;stroke-width:1.0;"/><text fill="#000000" font-family="sans-serif" font-size="14" lengthAdjust="spacing" textLength="220" x="365.5" y="315.2363">void setButtons(ArrayList&lt;Button&gt;)</text><ellipse cx="356.5" cy="328.6172" fill="#84BE84" rx="3" ry="3" style="stroke:#038048;stroke-width:1.0;"/><text fill="#000000" font-family="sans-serif" font-size="14" lengthAdjust="spacing" textLength="72" x="365.5" y="332.8457">void show()</text><ellipse cx="356.5" cy="346.2266" fill="#84BE84" rx="3" ry="3" style="stroke:#038048;stroke-width:1.0;"/><text fill="#000000" font-family="sans-serif" font-size="14" lengthAdjust="spacing" textLength="109" x="365.5" y="350.4551">void render(float)</text><ellipse cx="356.5" cy="363.8359" fill="#84BE84" rx="3" ry="3" style="stroke:#038048;stroke-width:1.0;"/><text fill="#000000" font-family="sans-serif" font-size="14" lengthAdjust="spacing" textLength="111" x="365.5" y="368.0645">void resize(int,int)</text><ellipse cx="356.5" cy="381.4453" fill="#84BE84" rx="3" ry="3" style="stroke:#038048;stroke-width:1.0;"/><text fill="#000000" font-family="sans-serif" font-size="14" lengthAdjust="spacing" textLength="66" x="365.5" y="385.6738">void play()</text><ellipse cx="356.5" cy="399.0547" fill="#84BE84" rx="3" ry="3" style="stroke:#038048;stroke-width:1.0;"/><text fill="#000000" font-family="sans-serif" font-size="14" lengthAdjust="spacing" textLength="63" x="365.5" y="403.2832">void quit()</text><ellipse cx="356.5" cy="416.6641" fill="#84BE84" rx="3" ry="3" style="stroke:#038048;stroke-width:1.0;"/><text fill="#000000" font-family="sans-serif" font-size="14" lengthAdjust="spacing" textLength="79" x="365.5" y="420.8926">void pause()</text><ellipse cx="356.5" cy="434.2734" fill="#84BE84" rx="3" ry="3" style="stroke:#038048;stroke-width:1.0;"/><text fill="#000000" font-family="sans-serif" font-size="14" lengthAdjust="spacing" textLength="87" x="365.5" y="438.502">void resume()</text><ellipse cx="356.5" cy="451.8828" fill="#84BE84" rx="3" ry="3" style="stroke:#038048;stroke-width:1.0;"/><text fill="#000000" font-family="sans-serif" font-size="14" lengthAdjust="spacing" textLength="67" x="365.5" y="456.1113">void hide()</text><ellipse cx="356.5" cy="469.4922" fill="#84BE84" rx="3" ry="3" style="stroke:#038048;stroke-width:1.0;"/><text fill="#000000" font-family="sans-serif" font-size="14" lengthAdjust="spacing" textLength="89" x="365.5" y="473.7207">void dispose()</text></g><!--MD5=[533628e9c9f667eb08bf66ebfc75b243]
class com.mygdx.game.engine.lifecycle.Main--><g id="elem_com.mygdx.game.engine.lifecycle.Main"><rect codeLine="37" fill="#F1F1F1" height="453.0156" id="com.mygdx.game.engine.lifecycle.Main" rx="2.5" ry="2.5" style="stroke:#181818;stroke-width:0.5;" width="287" x="22.5" y="1090.1094"/><ellipse cx="146.75" cy="1106.1094" fill="#ADD1B2" rx="11" ry="11" style="stroke:#181818;stroke-width:1.0;"/><path d="M148.75,1102.6094 Q148.9531,1102.1094 149.1875,1101.8594 Q149.4219,1101.6094 149.6875,1101.6094 Q150.1563,1101.6094 150.4531,1101.8906 Q150.75,1102.1719 150.75,1102.8281 L150.75,1104.3906 Q150.75,1105.0469 150.4688,1105.3281 Q150.1875,1105.6094 149.75,1105.6094 Q149.3594,1105.6094 149.1094,1105.4375 Q148.8594,1105.2656 148.75,1104.8125 Q148.7031,1104.5 148.5313,1104.3281 Q148.2188,1104 147.6563,1103.8125 Q147.0938,1103.6094 146.5313,1103.6094 Q145.8281,1103.6094 145.2344,1103.8906 Q144.6563,1104.1719 144.2031,1104.7969 Q143.75,1105.4219 143.75,1106.2813 L143.75,1107.2031 Q143.75,1108.2344 144.5938,1108.9219 Q145.4375,1109.6094 146.9375,1109.6094 Q147.8281,1109.6094 148.4531,1109.4063 Q148.8125,1109.2969 149.2188,1108.9375 Q149.4844,1108.7344 149.625,1108.6719 Q149.7656,1108.6094 149.9375,1108.6094 Q150.2656,1108.6094 150.5,1108.875 Q150.75,1109.125 150.75,1109.4844 Q150.75,1109.8281 150.4063,1110.2344 Q149.9063,1110.8281 149.1094,1111.1563 Q148.0625,1111.6094 146.7813,1111.6094 Q145.2813,1111.6094 144.0781,1111.0156 Q143.1094,1110.5469 142.4219,1109.5313 Q141.75,1108.5156 141.75,1107.3125 L141.75,1106.2188 Q141.75,1104.9688 142.3438,1103.875 Q142.9531,1102.7813 144,1102.2031 Q145.0625,1101.6094 146.25,1101.6094 Q146.9688,1101.6094 147.5938,1101.8594 Q148.2188,1102.1094 148.75,1102.6094 Z " fill="#000000"/><text fill="#000000" font-family="sans-serif" font-size="14" lengthAdjust="spacing" textLength="30" x="167.25" y="1111.8379">Main</text><line style="stroke:#181818;stroke-width:0.5;" x1="23.5" x2="308.5" y1="1122.1094" y2="1122.1094"/><rect fill="none" height="6" style="stroke:#C82930;stroke-width:1.0;" width="6" x="30.5" y="1133.4141"/><text fill="#000000" font-family="sans-serif" font-size="14" lengthAdjust="spacing" text-decoration="underline" textLength="87" x="42.5" y="1140.6426">Main instance</text><rect fill="none" height="6" style="stroke:#C82930;stroke-width:1.0;" width="6" x="30.5" y="1151.0234"/><text fill="#000000" font-family="sans-serif" font-size="14" lengthAdjust="spacing" textLength="204" x="42.5" y="1158.252">ScreenManager screenManager</text><rect fill="none" height="6" style="stroke:#C82930;stroke-width:1.0;" width="6" x="30.5" y="1168.6328"/><text fill="#000000" font-family="sans-serif" font-size="14" lengthAdjust="spacing" textLength="113" x="42.5" y="1175.8613">Preferences prefs</text><rect fill="none" height="6" style="stroke:#C82930;stroke-width:1.0;" width="6" x="30.5" y="1186.2422"/><text fill="#000000" font-family="sans-serif" font-size="14" lengthAdjust="spacing" textLength="196" x="42.5" y="1193.4707">SoundManager soundManager</text><ellipse cx="33.5" cy="1206.8516" fill="none" rx="3" ry="3" style="stroke:#038048;stroke-width:1.0;"/><text fill="#000000" font-family="sans-serif" font-size="14" lengthAdjust="spacing" textLength="185" x="42.5" y="1211.0801">EntityManager entityManager</text><rect fill="none" height="6" style="stroke:#C82930;stroke-width:1.0;" width="6" x="30.5" y="1221.4609"/><text fill="#000000" font-family="sans-serif" font-size="14" lengthAdjust="spacing" textLength="112" x="42.5" y="1228.6895">SpriteBatch batch</text><rect fill="none" height="6" style="stroke:#C82930;stroke-width:1.0;" width="6" x="30.5" y="1239.0703"/><text fill="#000000" font-family="sans-serif" font-size="14" lengthAdjust="spacing" textLength="100" x="42.5" y="1246.2988">BitmapFont font</text><ellipse cx="33.5" cy="1259.6797" fill="none" rx="3" ry="3" style="stroke:#038048;stroke-width:1.0;"/><text fill="#000000" font-family="sans-serif" font-size="14" lengthAdjust="spacing" textLength="69" x="42.5" y="1263.9082">int HEIGHT</text><ellipse cx="33.5" cy="1277.2891" fill="none" rx="3" ry="3" style="stroke:#038048;stroke-width:1.0;"/><text fill="#000000" font-family="sans-serif" font-size="14" lengthAdjust="spacing" textLength="63" x="42.5" y="1281.5176">int WIDTH</text><line style="stroke:#181818;stroke-width:0.5;" x1="23.5" x2="308.5" y1="1288.5938" y2="1288.5938"/><ellipse cx="33.5" cy="1302.8984" fill="#84BE84" rx="3" ry="3" style="stroke:#038048;stroke-width:1.0;"/><text fill="#000000" font-family="sans-serif" font-size="14" lengthAdjust="spacing" text-decoration="underline" textLength="117" x="42.5" y="1307.127">Main getInstance()</text><ellipse cx="33.5" cy="1320.5078" fill="#84BE84" rx="3" ry="3" style="stroke:#038048;stroke-width:1.0;"/><text fill="#000000" font-family="sans-serif" font-size="14" lengthAdjust="spacing" textLength="236" x="42.5" y="1324.7363">ScreenManager getScreenManager()</text><ellipse cx="33.5" cy="1338.1172" fill="#84BE84" rx="3" ry="3" style="stroke:#038048;stroke-width:1.0;"/><text fill="#000000" font-family="sans-serif" font-size="14" lengthAdjust="spacing" textLength="261" x="42.5" y="1342.3457">void setScreenManager(ScreenManager)</text><ellipse cx="33.5" cy="1355.7266" fill="#84BE84" rx="3" ry="3" style="stroke:#038048;stroke-width:1.0;"/><text fill="#000000" font-family="sans-serif" font-size="14" lengthAdjust="spacing" textLength="228" x="42.5" y="1359.9551">SoundManager getSoundManager()</text><ellipse cx="33.5" cy="1373.3359" fill="#84BE84" rx="3" ry="3" style="stroke:#038048;stroke-width:1.0;"/><text fill="#000000" font-family="sans-serif" font-size="14" lengthAdjust="spacing" textLength="253" x="42.5" y="1377.5645">void setSoundManager(SoundManager)</text><ellipse cx="33.5" cy="1390.9453" fill="#84BE84" rx="3" ry="3" style="stroke:#038048;stroke-width:1.0;"/><text fill="#000000" font-family="sans-serif" font-size="14" lengthAdjust="spacing" textLength="143" x="42.5" y="1395.1738">SpriteBatch getBatch()</text><ellipse cx="33.5" cy="1408.5547" fill="#84BE84" rx="3" ry="3" style="stroke:#038048;stroke-width:1.0;"/><text fill="#000000" font-family="sans-serif" font-size="14" lengthAdjust="spacing" textLength="168" x="42.5" y="1412.7832">void setBatch(SpriteBatch)</text><ellipse cx="33.5" cy="1426.1641" fill="#84BE84" rx="3" ry="3" style="stroke:#038048;stroke-width:1.0;"/><text fill="#000000" font-family="sans-serif" font-size="14" lengthAdjust="spacing" textLength="135" x="42.5" y="1430.3926">BitmapFont getFont()</text><ellipse cx="33.5" cy="1443.7734" fill="#84BE84" rx="3" ry="3" style="stroke:#038048;stroke-width:1.0;"/><text fill="#000000" font-family="sans-serif" font-size="14" lengthAdjust="spacing" textLength="160" x="42.5" y="1448.002">void setFont(BitmapFont)</text><ellipse cx="33.5" cy="1461.3828" fill="#84BE84" rx="3" ry="3" style="stroke:#038048;stroke-width:1.0;"/><text fill="#000000" font-family="sans-serif" font-size="14" lengthAdjust="spacing" textLength="144" x="42.5" y="1465.6113">Preferences getPrefs()</text><ellipse cx="33.5" cy="1478.9922" fill="#84BE84" rx="3" ry="3" style="stroke:#038048;stroke-width:1.0;"/><text fill="#000000" font-family="sans-serif" font-size="14" lengthAdjust="spacing" textLength="169" x="42.5" y="1483.2207">void setPrefs(Preferences)</text><ellipse cx="33.5" cy="1496.6016" fill="#84BE84" rx="3" ry="3" style="stroke:#038048;stroke-width:1.0;"/><text fill="#000000" font-family="sans-serif" font-size="14" lengthAdjust="spacing" textLength="80" x="42.5" y="1500.8301">void create()</text><ellipse cx="33.5" cy="1514.2109" fill="#84BE84" rx="3" ry="3" style="stroke:#038048;stroke-width:1.0;"/><text fill="#000000" font-family="sans-serif" font-size="14" lengthAdjust="spacing" textLength="82" x="42.5" y="1518.4395">void render()</text><ellipse cx="33.5" cy="1531.8203" fill="#84BE84" rx="3" ry="3" style="stroke:#038048;stroke-width:1.0;"/><text fill="#000000" font-family="sans-serif" font-size="14" lengthAdjust="spacing" textLength="89" x="42.5" y="1536.0488">void dispose()</text></g><!--MD5=[3de1ccafbb2233cb7ab977d18c48deb3]
class com.mygdx.game.game.components.ui.Button--><g id="elem_com.mygdx.game.game.components.ui.Button"><rect codeLine="63" fill="#F1F1F1" height="664.3281" id="com.mygdx.game.game.components.ui.Button" rx="2.5" ry="2.5" style="stroke:#181818;stroke-width:0.5;" width="194" x="410" y="984.6094"/><ellipse cx="482.25" cy="1000.6094" fill="#ADD1B2" rx="11" ry="11" style="stroke:#181818;stroke-width:1.0;"/><path d="M484.25,997.1094 Q484.4531,996.6094 484.6875,996.3594 Q484.9219,996.1094 485.1875,996.1094 Q485.6563,996.1094 485.9531,996.3906 Q486.25,996.6719 486.25,997.3281 L486.25,998.8906 Q486.25,999.5469 485.9688,999.8281 Q485.6875,1000.1094 485.25,1000.1094 Q484.8594,1000.1094 484.6094,999.9375 Q484.3594,999.7656 484.25,999.3125 Q484.2031,999 484.0313,998.8281 Q483.7188,998.5 483.1563,998.3125 Q482.5938,998.1094 482.0313,998.1094 Q481.3281,998.1094 480.7344,998.3906 Q480.1563,998.6719 479.7031,999.2969 Q479.25,999.9219 479.25,1000.7813 L479.25,1001.7031 Q479.25,1002.7344 480.0938,1003.4219 Q480.9375,1004.1094 482.4375,1004.1094 Q483.3281,1004.1094 483.9531,1003.9063 Q484.3125,1003.7969 484.7188,1003.4375 Q484.9844,1003.2344 485.125,1003.1719 Q485.2656,1003.1094 485.4375,1003.1094 Q485.7656,1003.1094 486,1003.375 Q486.25,1003.625 486.25,1003.9844 Q486.25,1004.3281 485.9063,1004.7344 Q485.4063,1005.3281 484.6094,1005.6563 Q483.5625,1006.1094 482.2813,1006.1094 Q480.7813,1006.1094 479.5781,1005.5156 Q478.6094,1005.0469 477.9219,1004.0313 Q477.25,1003.0156 477.25,1001.8125 L477.25,1000.7188 Q477.25,999.4688 477.8438,998.375 Q478.4531,997.2813 479.5,996.7031 Q480.5625,996.1094 481.75,996.1094 Q482.4688,996.1094 483.0938,996.3594 Q483.7188,996.6094 484.25,997.1094 Z " fill="#000000"/><text fill="#000000" font-family="sans-serif" font-size="14" lengthAdjust="spacing" textLength="41" x="502.75" y="1006.3379">Button</text><line style="stroke:#181818;stroke-width:0.5;" x1="411" x2="603" y1="1016.6094" y2="1016.6094"/><rect fill="none" height="6" style="stroke:#C82930;stroke-width:1.0;" width="6" x="418" y="1027.9141"/><text fill="#000000" font-family="sans-serif" font-size="14" lengthAdjust="spacing" textLength="69" x="430" y="1035.1426">Main game</text><rect fill="none" height="6" style="stroke:#C82930;stroke-width:1.0;" width="6" x="418" y="1045.5234"/><text fill="#000000" font-family="sans-serif" font-size="14" lengthAdjust="spacing" textLength="127" x="430" y="1052.752">Rectangle rectangle</text><rect fill="none" height="6" style="stroke:#C82930;stroke-width:1.0;" width="6" x="418" y="1063.1328"/><text fill="#000000" font-family="sans-serif" font-size="14" lengthAdjust="spacing" textLength="37" x="430" y="1070.3613">float x</text><rect fill="none" height="6" style="stroke:#C82930;stroke-width:1.0;" width="6" x="418" y="1080.7422"/><text fill="#000000" font-family="sans-serif" font-size="14" lengthAdjust="spacing" textLength="38" x="430" y="1087.9707">float y</text><rect fill="none" height="6" style="stroke:#C82930;stroke-width:1.0;" width="6" x="418" y="1098.3516"/><text fill="#000000" font-family="sans-serif" font-size="14" lengthAdjust="spacing" textLength="63" x="430" y="1105.5801">float width</text><rect fill="none" height="6" style="stroke:#C82930;stroke-width:1.0;" width="6" x="418" y="1115.9609"/><text fill="#000000" font-family="sans-serif" font-size="14" lengthAdjust="spacing" textLength="70" x="430" y="1123.1895">float height</text><rect fill="none" height="6" style="stroke:#C82930;stroke-width:1.0;" width="6" x="418" y="1133.5703"/><text fill="#000000" font-family="sans-serif" font-size="14" lengthAdjust="spacing" textLength="76" x="430" y="1140.7988">String name</text><rect fill="none" height="6" style="stroke:#C82930;stroke-width:1.0;" width="6" x="418" y="1151.1797"/><text fill="#000000" font-family="sans-serif" font-size="14" lengthAdjust="spacing" textLength="92" x="430" y="1158.4082">String imgPath</text><rect fill="none" height="6" style="stroke:#C82930;stroke-width:1.0;" width="6" x="418" y="1168.7891"/><text fill="#000000" font-family="sans-serif" font-size="14" lengthAdjust="spacing" textLength="95" x="430" y="1176.0176">Texture texture</text><rect fill="none" height="6" style="stroke:#C82930;stroke-width:1.0;" width="6" x="418" y="1186.3984"/><text fill="#000000" font-family="sans-serif" font-size="14" lengthAdjust="spacing" textLength="112" x="430" y="1193.627">SpriteBatch batch</text><rect fill="none" height="6" style="stroke:#C82930;stroke-width:1.0;" width="6" x="418" y="1204.0078"/><text fill="#000000" font-family="sans-serif" font-size="14" lengthAdjust="spacing" textLength="103" x="430" y="1211.2363">boolean visibility</text><rect fill="none" height="6" style="stroke:#C82930;stroke-width:1.0;" width="6" x="418" y="1221.6172"/><text fill="#000000" font-family="sans-serif" font-size="14" lengthAdjust="spacing" textLength="76" x="430" y="1228.8457">Sprite sprite</text><rect fill="none" height="6" style="stroke:#C82930;stroke-width:1.0;" width="6" x="418" y="1239.2266"/><text fill="#000000" font-family="sans-serif" font-size="14" lengthAdjust="spacing" textLength="92" x="430" y="1246.4551">boolean active</text><line style="stroke:#181818;stroke-width:0.5;" x1="411" x2="603" y1="1253.5313" y2="1253.5313"/><ellipse cx="421" cy="1267.8359" fill="#84BE84" rx="3" ry="3" style="stroke:#038048;stroke-width:1.0;"/><text fill="#000000" font-family="sans-serif" font-size="14" lengthAdjust="spacing" textLength="130" x="430" y="1272.0645">Texture getTexture()</text><ellipse cx="421" cy="1285.4453" fill="#84BE84" rx="3" ry="3" style="stroke:#038048;stroke-width:1.0;"/><text fill="#000000" font-family="sans-serif" font-size="14" lengthAdjust="spacing" textLength="155" x="430" y="1289.6738">void setTexture(Texture)</text><ellipse cx="421" cy="1303.0547" fill="#84BE84" rx="3" ry="3" style="stroke:#038048;stroke-width:1.0;"/><text fill="#000000" font-family="sans-serif" font-size="14" lengthAdjust="spacing" textLength="143" x="430" y="1307.2832">SpriteBatch getBatch()</text><ellipse cx="421" cy="1320.6641" fill="#84BE84" rx="3" ry="3" style="stroke:#038048;stroke-width:1.0;"/><text fill="#000000" font-family="sans-serif" font-size="14" lengthAdjust="spacing" textLength="168" x="430" y="1324.8926">void setBatch(SpriteBatch)</text><ellipse cx="421" cy="1338.2734" fill="#84BE84" rx="3" ry="3" style="stroke:#038048;stroke-width:1.0;"/><text fill="#000000" font-family="sans-serif" font-size="14" lengthAdjust="spacing" textLength="108" x="430" y="1342.502">Sprite getSprite()</text><ellipse cx="421" cy="1355.8828" fill="#84BE84" rx="3" ry="3" style="stroke:#038048;stroke-width:1.0;"/><text fill="#000000" font-family="sans-serif" font-size="14" lengthAdjust="spacing" textLength="133" x="430" y="1360.1113">void setSprite(Sprite)</text><ellipse cx="421" cy="1373.4922" fill="#84BE84" rx="3" ry="3" style="stroke:#038048;stroke-width:1.0;"/><text fill="#000000" font-family="sans-serif" font-size="14" lengthAdjust="spacing" textLength="135" x="430" y="1377.7207">boolean getVisibility()</text><ellipse cx="421" cy="1391.1016" fill="#84BE84" rx="3" ry="3" style="stroke:#038048;stroke-width:1.0;"/><text fill="#000000" font-family="sans-serif" font-size="14" lengthAdjust="spacing" textLength="160" x="430" y="1395.3301">void setVisibility(boolean)</text><ellipse cx="421" cy="1408.7109" fill="#84BE84" rx="3" ry="3" style="stroke:#038048;stroke-width:1.0;"/><text fill="#000000" font-family="sans-serif" font-size="14" lengthAdjust="spacing" textLength="113" x="430" y="1412.9395">boolean isActive()</text><ellipse cx="421" cy="1426.3203" fill="#84BE84" rx="3" ry="3" style="stroke:#038048;stroke-width:1.0;"/><text fill="#000000" font-family="sans-serif" font-size="14" lengthAdjust="spacing" textLength="148" x="430" y="1430.5488">void setActive(boolean)</text><ellipse cx="421" cy="1443.9297" fill="#84BE84" rx="3" ry="3" style="stroke:#038048;stroke-width:1.0;"/><text fill="#000000" font-family="sans-serif" font-size="14" lengthAdjust="spacing" textLength="168" x="430" y="1448.1582">void setButtonColor(Color)</text><ellipse cx="421" cy="1461.5391" fill="#84BE84" rx="3" ry="3" style="stroke:#038048;stroke-width:1.0;"/><text fill="#000000" font-family="sans-serif" font-size="14" lengthAdjust="spacing" textLength="69" x="430" y="1465.7676">float getX()</text><ellipse cx="421" cy="1479.1484" fill="#84BE84" rx="3" ry="3" style="stroke:#038048;stroke-width:1.0;"/><text fill="#000000" font-family="sans-serif" font-size="14" lengthAdjust="spacing" textLength="94" x="430" y="1483.377">void setX(float)</text><ellipse cx="421" cy="1496.7578" fill="#84BE84" rx="3" ry="3" style="stroke:#038048;stroke-width:1.0;"/><text fill="#000000" font-family="sans-serif" font-size="14" lengthAdjust="spacing" textLength="70" x="430" y="1500.9863">float getY()</text><ellipse cx="421" cy="1514.3672" fill="#84BE84" rx="3" ry="3" style="stroke:#038048;stroke-width:1.0;"/><text fill="#000000" font-family="sans-serif" font-size="14" lengthAdjust="spacing" textLength="95" x="430" y="1518.5957">void setY(float)</text><ellipse cx="421" cy="1531.9766" fill="#84BE84" rx="3" ry="3" style="stroke:#038048;stroke-width:1.0;"/><text fill="#000000" font-family="sans-serif" font-size="14" lengthAdjust="spacing" textLength="97" x="430" y="1536.2051">float getWidth()</text><ellipse cx="421" cy="1549.5859" fill="#84BE84" rx="3" ry="3" style="stroke:#038048;stroke-width:1.0;"/><text fill="#000000" font-family="sans-serif" font-size="14" lengthAdjust="spacing" textLength="122" x="430" y="1553.8145">void setWidth(float)</text><ellipse cx="421" cy="1567.1953" fill="#84BE84" rx="3" ry="3" style="stroke:#038048;stroke-width:1.0;"/><text fill="#000000" font-family="sans-serif" font-size="14" lengthAdjust="spacing" textLength="101" x="430" y="1571.4238">float getHeight()</text><ellipse cx="421" cy="1584.8047" fill="#84BE84" rx="3" ry="3" style="stroke:#038048;stroke-width:1.0;"/><text fill="#000000" font-family="sans-serif" font-size="14" lengthAdjust="spacing" textLength="126" x="430" y="1589.0332">void setHeight(float)</text><ellipse cx="421" cy="1602.4141" fill="#84BE84" rx="3" ry="3" style="stroke:#038048;stroke-width:1.0;"/><text fill="#000000" font-family="sans-serif" font-size="14" lengthAdjust="spacing" textLength="107" x="430" y="1606.6426">String getName()</text><ellipse cx="421" cy="1620.0234" fill="#84BE84" rx="3" ry="3" style="stroke:#038048;stroke-width:1.0;"/><text fill="#000000" font-family="sans-serif" font-size="14" lengthAdjust="spacing" textLength="132" x="430" y="1624.252">void setName(String)</text><ellipse cx="421" cy="1637.6328" fill="#84BE84" rx="3" ry="3" style="stroke:#038048;stroke-width:1.0;"/><text fill="#000000" font-family="sans-serif" font-size="14" lengthAdjust="spacing" textLength="139" x="430" y="1641.8613">Rectangle getBound()</text></g><!--MD5=[e28b97f13ebe0e0d0e1b4a0418369900]
class com.mygdx.game.engine.input.CustomInputProcessor--><g id="elem_com.mygdx.game.engine.input.CustomInputProcessor"><rect codeLine="101" fill="#F1F1F1" height="224.0938" id="com.mygdx.game.engine.input.CustomInputProcessor" rx="2.5" ry="2.5" style="stroke:#181818;stroke-width:0.5;" width="234" x="704" y="1204.6094"/><ellipse cx="745.55" cy="1220.6094" fill="#ADD1B2" rx="11" ry="11" style="stroke:#181818;stroke-width:1.0;"/><path d="M747.55,1217.1094 Q747.7531,1216.6094 747.9875,1216.3594 Q748.2219,1216.1094 748.4875,1216.1094 Q748.9563,1216.1094 749.2531,1216.3906 Q749.55,1216.6719 749.55,1217.3281 L749.55,1218.8906 Q749.55,1219.5469 749.2688,1219.8281 Q748.9875,1220.1094 748.55,1220.1094 Q748.1594,1220.1094 747.9094,1219.9375 Q747.6594,1219.7656 747.55,1219.3125 Q747.5031,1219 747.3313,1218.8281 Q747.0188,1218.5 746.4563,1218.3125 Q745.8938,1218.1094 745.3313,1218.1094 Q744.6281,1218.1094 744.0344,1218.3906 Q743.4563,1218.6719 743.0031,1219.2969 Q742.55,1219.9219 742.55,1220.7813 L742.55,1221.7031 Q742.55,1222.7344 743.3938,1223.4219 Q744.2375,1224.1094 745.7375,1224.1094 Q746.6281,1224.1094 747.2531,1223.9063 Q747.6125,1223.7969 748.0188,1223.4375 Q748.2844,1223.2344 748.425,1223.1719 Q748.5656,1223.1094 748.7375,1223.1094 Q749.0656,1223.1094 749.3,1223.375 Q749.55,1223.625 749.55,1223.9844 Q749.55,1224.3281 749.2063,1224.7344 Q748.7063,1225.3281 747.9094,1225.6563 Q746.8625,1226.1094 745.5813,1226.1094 Q744.0813,1226.1094 742.8781,1225.5156 Q741.9094,1225.0469 741.2219,1224.0313 Q740.55,1223.0156 740.55,1221.8125 L740.55,1220.7188 Q740.55,1219.4688 741.1438,1218.375 Q741.7531,1217.2813 742.8,1216.7031 Q743.8625,1216.1094 745.05,1216.1094 Q745.7688,1216.1094 746.3938,1216.3594 Q747.0188,1216.6094 747.55,1217.1094 Z " fill="#000000"/><text fill="#000000" font-family="sans-serif" font-size="14" lengthAdjust="spacing" textLength="143" x="765.45" y="1226.3379">CustomInputProcessor</text><line style="stroke:#181818;stroke-width:0.5;" x1="705" x2="937" y1="1236.6094" y2="1236.6094"/><line style="stroke:#181818;stroke-width:0.5;" x1="705" x2="937" y1="1244.6094" y2="1244.6094"/><ellipse cx="715" cy="1258.9141" fill="#84BE84" rx="3" ry="3" style="stroke:#038048;stroke-width:1.0;"/><text fill="#000000" font-family="sans-serif" font-size="14" lengthAdjust="spacing" textLength="168" x="724" y="1263.1426">boolean mouseClicked(int)</text><ellipse cx="715" cy="1276.5234" fill="#84BE84" rx="3" ry="3" style="stroke:#038048;stroke-width:1.0;"/><text fill="#000000" font-family="sans-serif" font-size="14" lengthAdjust="spacing" textLength="137" x="724" y="1280.752">boolean keyDown(int)</text><ellipse cx="715" cy="1294.1328" fill="#84BE84" rx="3" ry="3" style="stroke:#038048;stroke-width:1.0;"/><text fill="#000000" font-family="sans-serif" font-size="14" lengthAdjust="spacing" textLength="119" x="724" y="1298.3613">boolean keyUp(int)</text><ellipse cx="715" cy="1311.7422" fill="#84BE84" rx="3" ry="3" style="stroke:#038048;stroke-width:1.0;"/><text fill="#000000" font-family="sans-serif" font-size="14" lengthAdjust="spacing" textLength="155" x="724" y="1315.9707">boolean keyTyped(char)</text><ellipse cx="715" cy="1329.3516" fill="#84BE84" rx="3" ry="3" style="stroke:#038048;stroke-width:1.0;"/><text fill="#000000" font-family="sans-serif" font-size="14" lengthAdjust="spacing" textLength="207" x="724" y="1333.5801">boolean touchDown(int,int,int,int)</text><ellipse cx="715" cy="1346.9609" fill="#84BE84" rx="3" ry="3" style="stroke:#038048;stroke-width:1.0;"/><text fill="#000000" font-family="sans-serif" font-size="14" lengthAdjust="spacing" textLength="189" x="724" y="1351.1895">boolean touchUp(int,int,int,int)</text><ellipse cx="715" cy="1364.5703" fill="#84BE84" rx="3" ry="3" style="stroke:#038048;stroke-width:1.0;"/><text fill="#000000" font-family="sans-serif" font-size="14" lengthAdjust="spacing" textLength="208" x="724" y="1368.7988">boolean touchDragged(int,int,int)</text><ellipse cx="715" cy="1382.1797" fill="#84BE84" rx="3" ry="3" style="stroke:#038048;stroke-width:1.0;"/><text fill="#000000" font-family="sans-serif" font-size="14" lengthAdjust="spacing" textLength="183" x="724" y="1386.4082">boolean mouseMoved(int,int)</text><ellipse cx="715" cy="1399.7891" fill="#84BE84" rx="3" ry="3" style="stroke:#038048;stroke-width:1.0;"/><text fill="#000000" font-family="sans-serif" font-size="14" lengthAdjust="spacing" textLength="172" x="724" y="1404.0176">boolean scrolled(float,float)</text><ellipse cx="715" cy="1417.3984" fill="#84BE84" rx="3" ry="3" style="stroke:#038048;stroke-width:1.0;"/><text fill="#000000" font-family="sans-serif" font-size="14" lengthAdjust="spacing" textLength="184" x="724" y="1421.627">boolean mouseHoverOver(T)</text></g><!--MD5=[ff64c401884275c5ddca55cb25081834]
reverse link com.mygdx.game.game.screens.menu.MainMenuScreen to com.mygdx.game.engine.input.CustomInputProcessor--><g id="link_com.mygdx.game.game.screens.menu.MainMenuScreen_com.mygdx.game.engine.input.CustomInputProcessor"><path codeLine="114" d="M636.25,493.6694 C636.25,493.6694 636.25,1316.6094 636.25,1316.6094 C636.25,1316.6094 667.33,1316.6094 704,1316.6094 " fill="none" id="com.mygdx.game.game.screens.menu.MainMenuScreen-backto-com.mygdx.game.engine.input.CustomInputProcessor" style="stroke:#181818;stroke-width:1.0;"/><polygon fill="#181818" points="636.25,480.6694,632.25,486.6694,636.25,492.6694,640.25,486.6694,636.25,480.6694" style="stroke:#181818;stroke-width:1.0;"/><text fill="#000000" font-family="sans-serif" font-size="13" lengthAdjust="spacing" textLength="21" x="614.25" y="935.5045">has</text></g><!--MD5=[79fea672d4ec28635ffdb7654de028fc]
reverse link com.mygdx.game.game.screens.menu.MainMenuScreen to com.mygdx.game.engine.lifecycle.Main--><g id="link_com.mygdx.game.game.screens.menu.MainMenuScreen_com.mygdx.game.engine.lifecycle.Main"><path codeLine="115" d="M377.75,493.6694 C377.75,493.6694 377.75,1316.6094 377.75,1316.6094 C377.75,1316.6094 347.35,1316.6094 309.59,1316.6094 " fill="none" id="com.mygdx.game.game.screens.menu.MainMenuScreen-backto-com.mygdx.game.engine.lifecycle.Main" style="stroke:#181818;stroke-width:1.0;"/><polygon fill="#181818" points="377.75,480.6694,373.75,486.6694,377.75,492.6694,381.75,486.6694,377.75,480.6694" style="stroke:#181818;stroke-width:1.0;"/><text fill="#000000" font-family="sans-serif" font-size="13" lengthAdjust="spacing" textLength="21" x="355.75" y="935.7145">has</text></g><!--MD5=[ea7619e7f236d6f370568752e8de92b8]
reverse link com.mygdx.game.game.screens.menu.MainMenuScreen to com.mygdx.game.game.components.ui.Button--><g id="link_com.mygdx.game.game.screens.menu.MainMenuScreen_com.mygdx.game.game.components.ui.Button"><path codeLine="116" d="M507,493.6694 C507,493.6694 507,984.3994 507,984.3994 " fill="none" id="com.mygdx.game.game.screens.menu.MainMenuScreen-backto-com.mygdx.game.game.components.ui.Button" style="stroke:#181818;stroke-width:1.0;"/><polygon fill="#181818" points="507,480.6694,503,486.6694,507,492.6694,511,486.6694,507,480.6694" style="stroke:#181818;stroke-width:1.0;"/><text fill="#000000" font-family="sans-serif" font-size="13" lengthAdjust="spacing" textLength="57" x="449" y="735.5345">has many</text></g><!--MD5=[e9c0851254a50f9dcd46c410b8745d5f]
@startuml
skinparam linetype polyline
skinparam linetype ortho

skinparam nodesep 100
skinparam ranksep 100

skinparam titleBorderRoundCorner 15
skinparam titleBorderThickness 2
skinparam titleBorderColor red
skinparam titleBackgroundColor Aqua-CadetBlue

title MainMenuScreen Class Composition Relations

class com.mygdx.game.game.screens.menu.MainMenuScreen {
- CustomInputProcessor inputProcessor
- Main game
- OrthographicCamera camera
- ArrayList<Button> buttons
- SpriteBatch batch
- Texture texture
- ArrayList<String> buttonImagePath
- boolean soundPlayed
- ScoreboardScreen scoreboardScreen
+ void setInputProcessor(CustomInputProcessor)
+ void setButtons(ArrayList<Button>)
+ void show()
+ void render(float)
+ void resize(int,int)
+ void play()
+ void quit()
+ void pause()
+ void resume()
+ void hide()
+ void dispose()
}

class com.mygdx.game.engine.lifecycle.Main {
- {static} Main instance
- ScreenManager screenManager
- Preferences prefs
- SoundManager soundManager
+ EntityManager entityManager
- SpriteBatch batch
- BitmapFont font
+ int HEIGHT
+ int WIDTH
+ {static} Main getInstance()
+ ScreenManager getScreenManager()
+ void setScreenManager(ScreenManager)
+ SoundManager getSoundManager()
+ void setSoundManager(SoundManager)
+ SpriteBatch getBatch()
+ void setBatch(SpriteBatch)
+ BitmapFont getFont()
+ void setFont(BitmapFont)
+ Preferences getPrefs()
+ void setPrefs(Preferences)
+ void create()
+ void render()
+ void dispose()
}

class com.mygdx.game.game.components.ui.Button {
- Main game
- Rectangle rectangle
- float x
- float y
- float width
- float height
- String name
- String imgPath
- Texture texture
- SpriteBatch batch
- boolean visibility
- Sprite sprite
- boolean active
+ Texture getTexture()
+ void setTexture(Texture)
+ SpriteBatch getBatch()
+ void setBatch(SpriteBatch)
+ Sprite getSprite()
+ void setSprite(Sprite)
+ boolean getVisibility()
+ void setVisibility(boolean)
+ boolean isActive()
+ void setActive(boolean)
+ void setButtonColor(Color)
+ float getX()
+ void setX(float)
+ float getY()
+ void setY(float)
+ float getWidth()
+ void setWidth(float)
+ float getHeight()
+ void setHeight(float)
+ String getName()
+ void setName(String)
+ Rectangle getBound()
}

class com.mygdx.game.engine.input.CustomInputProcessor {
+ boolean mouseClicked(int)
+ boolean keyDown(int)
+ boolean keyUp(int)
+ boolean keyTyped(char)
+ boolean touchDown(int,int,int,int)
+ boolean touchUp(int,int,int,int)
+ boolean touchDragged(int,int,int)
+ boolean mouseMoved(int,int)
+ boolean scrolled(float,float)
+ boolean mouseHoverOver(T)
}

com.mygdx.game.game.screens.menu.MainMenuScreen *- - - - - - com.mygdx.game.engine.input.CustomInputProcessor :has
com.mygdx.game.game.screens.menu.MainMenuScreen *- - - - - - com.mygdx.game.engine.lifecycle.Main :has
com.mygdx.game.game.screens.menu.MainMenuScreen *- - - - - - com.mygdx.game.game.components.ui.Button :has many
@enduml

PlantUML version 1.2022.12(Mon Oct 24 02:12:26 SGT 2022)
(GPL source distribution)
Java Runtime: OpenJDK Runtime Environment
JVM: OpenJDK 64-Bit Server VM
Default Encoding: Cp1252
Language: en
Country: SG
--></g></svg>