<?xml version="1.0" encoding="UTF-8" standalone="no"?><svg xmlns="http://www.w3.org/2000/svg" xmlns:xlink="http://www.w3.org/1999/xlink" contentStyleType="text/css" height="1636px" preserveAspectRatio="none" style="width:961px;height:1636px;background:#FFFFFF;" version="1.1" viewBox="0 0 961 1636" width="961px" zoomAndPan="magnify"><defs><linearGradient id="g19aalrcswc5zx0" x1="50%" x2="50%" y1="0%" y2="100%"><stop offset="0%" stop-color="#00FFFF"/><stop offset="100%" stop-color="#5F9EA0"/></linearGradient></defs><g><rect fill="url(#g19aalrcswc5zx0)" height="27.6094" id="_title" rx="7.5" ry="7.5" style="stroke:#FF0000;stroke-width:2.0;" width="307" x="320" y="5"/><text fill="#000000" font-family="sans-serif" font-size="14" font-weight="bold" lengthAdjust="spacing" textLength="297" x="325" y="24.5332">PauseScreen Class Composition Relations</text><!--MD5=[ec129861e6194a645611de3369ad0d54]
cluster com.mygdx.game.game.screens.menu--><g id="cluster_com.mygdx.game.game.screens.menu"><path d="M331.5,44.6094 L598.5,44.6094 A3.75,3.75 0 0 1 601,47.1094 L608,68.2188 L682.5,68.2188 A2.5,2.5 0 0 1 685,70.7188 L685,459.1094 A2.5,2.5 0 0 1 682.5,461.6094 L331.5,461.6094 A2.5,2.5 0 0 1 329,459.1094 L329,47.1094 A2.5,2.5 0 0 1 331.5,44.6094 " fill="none" style="stroke:#000000;stroke-width:1.5;"/><line style="stroke:#000000;stroke-width:1.5;" x1="329" x2="608" y1="68.2188" y2="68.2188"/><text fill="#000000" font-family="sans-serif" font-size="14" font-weight="bold" lengthAdjust="spacing" textLength="266" x="333" y="61.1426">com.mygdx.game.game.screens.menu</text></g><!--MD5=[f5720f8f2d84faa53b7e58c13b303426]
cluster com.mygdx.game.engine.lifecycle--><g id="cluster_com.mygdx.game.engine.lifecycle"><path d="M8.5,1019.1094 L244.5,1019.1094 A3.75,3.75 0 0 1 247,1021.6094 L254,1042.7188 L323.5,1042.7188 A2.5,2.5 0 0 1 326,1045.2188 L326,1521.6094 A2.5,2.5 0 0 1 323.5,1524.1094 L8.5,1524.1094 A2.5,2.5 0 0 1 6,1521.6094 L6,1021.6094 A2.5,2.5 0 0 1 8.5,1019.1094 " fill="none" style="stroke:#000000;stroke-width:1.5;"/><line style="stroke:#000000;stroke-width:1.5;" x1="6" x2="254" y1="1042.7188" y2="1042.7188"/><text fill="#000000" font-family="sans-serif" font-size="14" font-weight="bold" lengthAdjust="spacing" textLength="235" x="10" y="1035.6426">com.mygdx.game.engine.lifecycle</text></g><!--MD5=[683aabdc962ad2ab98ef14c38ed732ec]
cluster com.mygdx.game.game.components.ui--><g id="cluster_com.mygdx.game.game.components.ui"><path d="M366.5,913.6094 L637.5,913.6094 A3.75,3.75 0 0 1 640,916.1094 L647,937.2188 L647.5,937.2188 A2.5,2.5 0 0 1 650,939.7188 L650,1627.1094 A2.5,2.5 0 0 1 647.5,1629.6094 L366.5,1629.6094 A2.5,2.5 0 0 1 364,1627.1094 L364,916.1094 A2.5,2.5 0 0 1 366.5,913.6094 " fill="none" style="stroke:#000000;stroke-width:1.5;"/><line style="stroke:#000000;stroke-width:1.5;" x1="364" x2="647" y1="937.2188" y2="937.2188"/><text fill="#000000" font-family="sans-serif" font-size="14" font-weight="bold" lengthAdjust="spacing" textLength="270" x="368" y="930.1426">com.mygdx.game.game.components.ui</text></g><!--MD5=[6d572adab93e1a2768c068c53f7d318b]
cluster com.mygdx.game.engine.input--><g id="cluster_com.mygdx.game.engine.input"><path d="M690.5,1133.6094 L904.5,1133.6094 A3.75,3.75 0 0 1 907,1136.1094 L914,1157.2188 L951.5,1157.2188 A2.5,2.5 0 0 1 954,1159.7188 L954,1407.1094 A2.5,2.5 0 0 1 951.5,1409.6094 L690.5,1409.6094 A2.5,2.5 0 0 1 688,1407.1094 L688,1136.1094 A2.5,2.5 0 0 1 690.5,1133.6094 " fill="none" style="stroke:#000000;stroke-width:1.5;"/><line style="stroke:#000000;stroke-width:1.5;" x1="688" x2="914" y1="1157.2188" y2="1157.2188"/><text fill="#000000" font-family="sans-serif" font-size="14" font-weight="bold" lengthAdjust="spacing" textLength="213" x="692" y="1150.1426">com.mygdx.game.engine.input</text></g><!--MD5=[2ed8c4eea61e952557e6c3850ec7eab3]
class com.mygdx.game.game.screens.menu.PauseScreen--><g id="elem_com.mygdx.game.game.screens.menu.PauseScreen"><rect codeLine="14" fill="#F1F1F1" height="364.9688" id="com.mygdx.game.game.screens.menu.PauseScreen" rx="2.5" ry="2.5" style="stroke:#181818;stroke-width:0.5;" width="323" x="345.5" y="80.6094"/><ellipse cx="460.25" cy="96.6094" fill="#ADD1B2" rx="11" ry="11" style="stroke:#181818;stroke-width:1.0;"/><path d="M462.25,93.1094 Q462.4531,92.6094 462.6875,92.3594 Q462.9219,92.1094 463.1875,92.1094 Q463.6563,92.1094 463.9531,92.3906 Q464.25,92.6719 464.25,93.3281 L464.25,94.8906 Q464.25,95.5469 463.9688,95.8281 Q463.6875,96.1094 463.25,96.1094 Q462.8594,96.1094 462.6094,95.9375 Q462.3594,95.7656 462.25,95.3125 Q462.2031,95 462.0313,94.8281 Q461.7188,94.5 461.1563,94.3125 Q460.5938,94.1094 460.0313,94.1094 Q459.3281,94.1094 458.7344,94.3906 Q458.1563,94.6719 457.7031,95.2969 Q457.25,95.9219 457.25,96.7813 L457.25,97.7031 Q457.25,98.7344 458.0938,99.4219 Q458.9375,100.1094 460.4375,100.1094 Q461.3281,100.1094 461.9531,99.9063 Q462.3125,99.7969 462.7188,99.4375 Q462.9844,99.2344 463.125,99.1719 Q463.2656,99.1094 463.4375,99.1094 Q463.7656,99.1094 464,99.375 Q464.25,99.625 464.25,99.9844 Q464.25,100.3281 463.9063,100.7344 Q463.4063,101.3281 462.6094,101.6563 Q461.5625,102.1094 460.2813,102.1094 Q458.7813,102.1094 457.5781,101.5156 Q456.6094,101.0469 455.9219,100.0313 Q455.25,99.0156 455.25,97.8125 L455.25,96.7188 Q455.25,95.4688 455.8438,94.375 Q456.4531,93.2813 457.5,92.7031 Q458.5625,92.1094 459.75,92.1094 Q460.4688,92.1094 461.0938,92.3594 Q461.7188,92.6094 462.25,93.1094 Z " fill="#000000"/><text fill="#000000" font-family="sans-serif" font-size="14" lengthAdjust="spacing" textLength="85" x="480.75" y="102.3379">PauseScreen</text><line style="stroke:#181818;stroke-width:0.5;" x1="346.5" x2="667.5" y1="112.6094" y2="112.6094"/><rect fill="none" height="6" style="stroke:#C82930;stroke-width:1.0;" width="6" x="353.5" y="123.9141"/><text fill="#000000" font-family="sans-serif" font-size="14" lengthAdjust="spacing" textLength="112" x="365.5" y="131.1426">SpriteBatch batch</text><rect fill="none" height="6" style="stroke:#C82930;stroke-width:1.0;" width="6" x="353.5" y="141.5234"/><text fill="#000000" font-family="sans-serif" font-size="14" lengthAdjust="spacing" textLength="95" x="365.5" y="148.752">Texture texture</text><rect fill="none" height="6" style="stroke:#C82930;stroke-width:1.0;" width="6" x="353.5" y="159.1328"/><text fill="#000000" font-family="sans-serif" font-size="14" lengthAdjust="spacing" textLength="242" x="365.5" y="166.3613">CustomInputProcessor inputProcessor</text><rect fill="none" height="6" style="stroke:#C82930;stroke-width:1.0;" width="6" x="353.5" y="176.7422"/><text fill="#000000" font-family="sans-serif" font-size="14" lengthAdjust="spacing" textLength="69" x="365.5" y="183.9707">Main game</text><rect fill="none" height="6" style="stroke:#C82930;stroke-width:1.0;" width="6" x="353.5" y="194.3516"/><text fill="#000000" font-family="sans-serif" font-size="14" lengthAdjust="spacing" textLength="164" x="365.5" y="201.5801">ArrayList&lt;Button&gt; buttons</text><rect fill="none" height="6" style="stroke:#C82930;stroke-width:1.0;" width="6" x="353.5" y="211.9609"/><text fill="#000000" font-family="sans-serif" font-size="14" lengthAdjust="spacing" textLength="182" x="365.5" y="219.1895">ArrayList&lt;String&gt; buttonPath</text><line style="stroke:#181818;stroke-width:0.5;" x1="346.5" x2="667.5" y1="226.2656" y2="226.2656"/><ellipse cx="356.5" cy="240.5703" fill="#84BE84" rx="3" ry="3" style="stroke:#038048;stroke-width:1.0;"/><text fill="#000000" font-family="sans-serif" font-size="14" lengthAdjust="spacing" textLength="272" x="365.5" y="244.7988">CustomInputProcessor getInputProcessor()</text><ellipse cx="356.5" cy="258.1797" fill="#84BE84" rx="3" ry="3" style="stroke:#038048;stroke-width:1.0;"/><text fill="#000000" font-family="sans-serif" font-size="14" lengthAdjust="spacing" textLength="297" x="365.5" y="262.4082">void setInputProcessor(CustomInputProcessor)</text><ellipse cx="356.5" cy="275.7891" fill="#84BE84" rx="3" ry="3" style="stroke:#038048;stroke-width:1.0;"/><text fill="#000000" font-family="sans-serif" font-size="14" lengthAdjust="spacing" textLength="195" x="365.5" y="280.0176">ArrayList&lt;Button&gt; getButtons()</text><ellipse cx="356.5" cy="293.3984" fill="#84BE84" rx="3" ry="3" style="stroke:#038048;stroke-width:1.0;"/><text fill="#000000" font-family="sans-serif" font-size="14" lengthAdjust="spacing" textLength="220" x="365.5" y="297.627">void setButtons(ArrayList&lt;Button&gt;)</text><ellipse cx="356.5" cy="311.0078" fill="#84BE84" rx="3" ry="3" style="stroke:#038048;stroke-width:1.0;"/><text fill="#000000" font-family="sans-serif" font-size="14" lengthAdjust="spacing" textLength="72" x="365.5" y="315.2363">void show()</text><ellipse cx="356.5" cy="328.6172" fill="#84BE84" rx="3" ry="3" style="stroke:#038048;stroke-width:1.0;"/><text fill="#000000" font-family="sans-serif" font-size="14" lengthAdjust="spacing" textLength="109" x="365.5" y="332.8457">void render(float)</text><ellipse cx="356.5" cy="346.2266" fill="#84BE84" rx="3" ry="3" style="stroke:#038048;stroke-width:1.0;"/><text fill="#000000" font-family="sans-serif" font-size="14" lengthAdjust="spacing" textLength="111" x="365.5" y="350.4551">void resize(int,int)</text><ellipse cx="356.5" cy="363.8359" fill="#84BE84" rx="3" ry="3" style="stroke:#038048;stroke-width:1.0;"/><text fill="#000000" font-family="sans-serif" font-size="14" lengthAdjust="spacing" textLength="79" x="365.5" y="368.0645">void pause()</text><ellipse cx="356.5" cy="381.4453" fill="#84BE84" rx="3" ry="3" style="stroke:#038048;stroke-width:1.0;"/><text fill="#000000" font-family="sans-serif" font-size="14" lengthAdjust="spacing" textLength="87" x="365.5" y="385.6738">void resume()</text><ellipse cx="356.5" cy="399.0547" fill="#84BE84" rx="3" ry="3" style="stroke:#038048;stroke-width:1.0;"/><text fill="#000000" font-family="sans-serif" font-size="14" lengthAdjust="spacing" textLength="67" x="365.5" y="403.2832">void hide()</text><ellipse cx="356.5" cy="416.6641" fill="#84BE84" rx="3" ry="3" style="stroke:#038048;stroke-width:1.0;"/><text fill="#000000" font-family="sans-serif" font-size="14" lengthAdjust="spacing" textLength="89" x="365.5" y="420.8926">void dispose()</text><ellipse cx="356.5" cy="434.2734" fill="#84BE84" rx="3" ry="3" style="stroke:#038048;stroke-width:1.0;"/><text fill="#000000" font-family="sans-serif" font-size="14" lengthAdjust="spacing" textLength="63" x="365.5" y="438.502">void quit()</text></g><!--MD5=[533628e9c9f667eb08bf66ebfc75b243]
class com.mygdx.game.engine.lifecycle.Main--><g id="elem_com.mygdx.game.engine.lifecycle.Main"><rect codeLine="35" fill="#F1F1F1" height="453.0156" id="com.mygdx.game.engine.lifecycle.Main" rx="2.5" ry="2.5" style="stroke:#181818;stroke-width:0.5;" width="287" x="22.5" y="1055.1094"/><ellipse cx="146.75" cy="1071.1094" fill="#ADD1B2" rx="11" ry="11" style="stroke:#181818;stroke-width:1.0;"/><path d="M148.75,1067.6094 Q148.9531,1067.1094 149.1875,1066.8594 Q149.4219,1066.6094 149.6875,1066.6094 Q150.1563,1066.6094 150.4531,1066.8906 Q150.75,1067.1719 150.75,1067.8281 L150.75,1069.3906 Q150.75,1070.0469 150.4688,1070.3281 Q150.1875,1070.6094 149.75,1070.6094 Q149.3594,1070.6094 149.1094,1070.4375 Q148.8594,1070.2656 148.75,1069.8125 Q148.7031,1069.5 148.5313,1069.3281 Q148.2188,1069 147.6563,1068.8125 Q147.0938,1068.6094 146.5313,1068.6094 Q145.8281,1068.6094 145.2344,1068.8906 Q144.6563,1069.1719 144.2031,1069.7969 Q143.75,1070.4219 143.75,1071.2813 L143.75,1072.2031 Q143.75,1073.2344 144.5938,1073.9219 Q145.4375,1074.6094 146.9375,1074.6094 Q147.8281,1074.6094 148.4531,1074.4063 Q148.8125,1074.2969 149.2188,1073.9375 Q149.4844,1073.7344 149.625,1073.6719 Q149.7656,1073.6094 149.9375,1073.6094 Q150.2656,1073.6094 150.5,1073.875 Q150.75,1074.125 150.75,1074.4844 Q150.75,1074.8281 150.4063,1075.2344 Q149.9063,1075.8281 149.1094,1076.1563 Q148.0625,1076.6094 146.7813,1076.6094 Q145.2813,1076.6094 144.0781,1076.0156 Q143.1094,1075.5469 142.4219,1074.5313 Q141.75,1073.5156 141.75,1072.3125 L141.75,1071.2188 Q141.75,1069.9688 142.3438,1068.875 Q142.9531,1067.7813 144,1067.2031 Q145.0625,1066.6094 146.25,1066.6094 Q146.9688,1066.6094 147.5938,1066.8594 Q148.2188,1067.1094 148.75,1067.6094 Z " fill="#000000"/><text fill="#000000" font-family="sans-serif" font-size="14" lengthAdjust="spacing" textLength="30" x="167.25" y="1076.8379">Main</text><line style="stroke:#181818;stroke-width:0.5;" x1="23.5" x2="308.5" y1="1087.1094" y2="1087.1094"/><rect fill="none" height="6" style="stroke:#C82930;stroke-width:1.0;" width="6" x="30.5" y="1098.4141"/><text fill="#000000" font-family="sans-serif" font-size="14" lengthAdjust="spacing" text-decoration="underline" textLength="87" x="42.5" y="1105.6426">Main instance</text><rect fill="none" height="6" style="stroke:#C82930;stroke-width:1.0;" width="6" x="30.5" y="1116.0234"/><text fill="#000000" font-family="sans-serif" font-size="14" lengthAdjust="spacing" textLength="204" x="42.5" y="1123.252">ScreenManager screenManager</text><rect fill="none" height="6" style="stroke:#C82930;stroke-width:1.0;" width="6" x="30.5" y="1133.6328"/><text fill="#000000" font-family="sans-serif" font-size="14" lengthAdjust="spacing" textLength="113" x="42.5" y="1140.8613">Preferences prefs</text><rect fill="none" height="6" style="stroke:#C82930;stroke-width:1.0;" width="6" x="30.5" y="1151.2422"/><text fill="#000000" font-family="sans-serif" font-size="14" lengthAdjust="spacing" textLength="196" x="42.5" y="1158.4707">SoundManager soundManager</text><ellipse cx="33.5" cy="1171.8516" fill="none" rx="3" ry="3" style="stroke:#038048;stroke-width:1.0;"/><text fill="#000000" font-family="sans-serif" font-size="14" lengthAdjust="spacing" textLength="185" x="42.5" y="1176.0801">EntityManager entityManager</text><rect fill="none" height="6" style="stroke:#C82930;stroke-width:1.0;" width="6" x="30.5" y="1186.4609"/><text fill="#000000" font-family="sans-serif" font-size="14" lengthAdjust="spacing" textLength="112" x="42.5" y="1193.6895">SpriteBatch batch</text><rect fill="none" height="6" style="stroke:#C82930;stroke-width:1.0;" width="6" x="30.5" y="1204.0703"/><text fill="#000000" font-family="sans-serif" font-size="14" lengthAdjust="spacing" textLength="100" x="42.5" y="1211.2988">BitmapFont font</text><ellipse cx="33.5" cy="1224.6797" fill="none" rx="3" ry="3" style="stroke:#038048;stroke-width:1.0;"/><text fill="#000000" font-family="sans-serif" font-size="14" lengthAdjust="spacing" textLength="69" x="42.5" y="1228.9082">int HEIGHT</text><ellipse cx="33.5" cy="1242.2891" fill="none" rx="3" ry="3" style="stroke:#038048;stroke-width:1.0;"/><text fill="#000000" font-family="sans-serif" font-size="14" lengthAdjust="spacing" textLength="63" x="42.5" y="1246.5176">int WIDTH</text><line style="stroke:#181818;stroke-width:0.5;" x1="23.5" x2="308.5" y1="1253.5938" y2="1253.5938"/><ellipse cx="33.5" cy="1267.8984" fill="#84BE84" rx="3" ry="3" style="stroke:#038048;stroke-width:1.0;"/><text fill="#000000" font-family="sans-serif" font-size="14" lengthAdjust="spacing" text-decoration="underline" textLength="117" x="42.5" y="1272.127">Main getInstance()</text><ellipse cx="33.5" cy="1285.5078" fill="#84BE84" rx="3" ry="3" style="stroke:#038048;stroke-width:1.0;"/><text fill="#000000" font-family="sans-serif" font-size="14" lengthAdjust="spacing" textLength="236" x="42.5" y="1289.7363">ScreenManager getScreenManager()</text><ellipse cx="33.5" cy="1303.1172" fill="#84BE84" rx="3" ry="3" style="stroke:#038048;stroke-width:1.0;"/><text fill="#000000" font-family="sans-serif" font-size="14" lengthAdjust="spacing" textLength="261" x="42.5" y="1307.3457">void setScreenManager(ScreenManager)</text><ellipse cx="33.5" cy="1320.7266" fill="#84BE84" rx="3" ry="3" style="stroke:#038048;stroke-width:1.0;"/><text fill="#000000" font-family="sans-serif" font-size="14" lengthAdjust="spacing" textLength="228" x="42.5" y="1324.9551">SoundManager getSoundManager()</text><ellipse cx="33.5" cy="1338.3359" fill="#84BE84" rx="3" ry="3" style="stroke:#038048;stroke-width:1.0;"/><text fill="#000000" font-family="sans-serif" font-size="14" lengthAdjust="spacing" textLength="253" x="42.5" y="1342.5645">void setSoundManager(SoundManager)</text><ellipse cx="33.5" cy="1355.9453" fill="#84BE84" rx="3" ry="3" style="stroke:#038048;stroke-width:1.0;"/><text fill="#000000" font-family="sans-serif" font-size="14" lengthAdjust="spacing" textLength="143" x="42.5" y="1360.1738">SpriteBatch getBatch()</text><ellipse cx="33.5" cy="1373.5547" fill="#84BE84" rx="3" ry="3" style="stroke:#038048;stroke-width:1.0;"/><text fill="#000000" font-family="sans-serif" font-size="14" lengthAdjust="spacing" textLength="168" x="42.5" y="1377.7832">void setBatch(SpriteBatch)</text><ellipse cx="33.5" cy="1391.1641" fill="#84BE84" rx="3" ry="3" style="stroke:#038048;stroke-width:1.0;"/><text fill="#000000" font-family="sans-serif" font-size="14" lengthAdjust="spacing" textLength="135" x="42.5" y="1395.3926">BitmapFont getFont()</text><ellipse cx="33.5" cy="1408.7734" fill="#84BE84" rx="3" ry="3" style="stroke:#038048;stroke-width:1.0;"/><text fill="#000000" font-family="sans-serif" font-size="14" lengthAdjust="spacing" textLength="160" x="42.5" y="1413.002">void setFont(BitmapFont)</text><ellipse cx="33.5" cy="1426.3828" fill="#84BE84" rx="3" ry="3" style="stroke:#038048;stroke-width:1.0;"/><text fill="#000000" font-family="sans-serif" font-size="14" lengthAdjust="spacing" textLength="144" x="42.5" y="1430.6113">Preferences getPrefs()</text><ellipse cx="33.5" cy="1443.9922" fill="#84BE84" rx="3" ry="3" style="stroke:#038048;stroke-width:1.0;"/><text fill="#000000" font-family="sans-serif" font-size="14" lengthAdjust="spacing" textLength="169" x="42.5" y="1448.2207">void setPrefs(Preferences)</text><ellipse cx="33.5" cy="1461.6016" fill="#84BE84" rx="3" ry="3" style="stroke:#038048;stroke-width:1.0;"/><text fill="#000000" font-family="sans-serif" font-size="14" lengthAdjust="spacing" textLength="80" x="42.5" y="1465.8301">void create()</text><ellipse cx="33.5" cy="1479.2109" fill="#84BE84" rx="3" ry="3" style="stroke:#038048;stroke-width:1.0;"/><text fill="#000000" font-family="sans-serif" font-size="14" lengthAdjust="spacing" textLength="82" x="42.5" y="1483.4395">void render()</text><ellipse cx="33.5" cy="1496.8203" fill="#84BE84" rx="3" ry="3" style="stroke:#038048;stroke-width:1.0;"/><text fill="#000000" font-family="sans-serif" font-size="14" lengthAdjust="spacing" textLength="89" x="42.5" y="1501.0488">void dispose()</text></g><!--MD5=[3de1ccafbb2233cb7ab977d18c48deb3]
class com.mygdx.game.game.components.ui.Button--><g id="elem_com.mygdx.game.game.components.ui.Button"><rect codeLine="61" fill="#F1F1F1" height="664.3281" id="com.mygdx.game.game.components.ui.Button" rx="2.5" ry="2.5" style="stroke:#181818;stroke-width:0.5;" width="194" x="410" y="949.6094"/><ellipse cx="482.25" cy="965.6094" fill="#ADD1B2" rx="11" ry="11" style="stroke:#181818;stroke-width:1.0;"/><path d="M484.25,962.1094 Q484.4531,961.6094 484.6875,961.3594 Q484.9219,961.1094 485.1875,961.1094 Q485.6563,961.1094 485.9531,961.3906 Q486.25,961.6719 486.25,962.3281 L486.25,963.8906 Q486.25,964.5469 485.9688,964.8281 Q485.6875,965.1094 485.25,965.1094 Q484.8594,965.1094 484.6094,964.9375 Q484.3594,964.7656 484.25,964.3125 Q484.2031,964 484.0313,963.8281 Q483.7188,963.5 483.1563,963.3125 Q482.5938,963.1094 482.0313,963.1094 Q481.3281,963.1094 480.7344,963.3906 Q480.1563,963.6719 479.7031,964.2969 Q479.25,964.9219 479.25,965.7813 L479.25,966.7031 Q479.25,967.7344 480.0938,968.4219 Q480.9375,969.1094 482.4375,969.1094 Q483.3281,969.1094 483.9531,968.9063 Q484.3125,968.7969 484.7188,968.4375 Q484.9844,968.2344 485.125,968.1719 Q485.2656,968.1094 485.4375,968.1094 Q485.7656,968.1094 486,968.375 Q486.25,968.625 486.25,968.9844 Q486.25,969.3281 485.9063,969.7344 Q485.4063,970.3281 484.6094,970.6563 Q483.5625,971.1094 482.2813,971.1094 Q480.7813,971.1094 479.5781,970.5156 Q478.6094,970.0469 477.9219,969.0313 Q477.25,968.0156 477.25,966.8125 L477.25,965.7188 Q477.25,964.4688 477.8438,963.375 Q478.4531,962.2813 479.5,961.7031 Q480.5625,961.1094 481.75,961.1094 Q482.4688,961.1094 483.0938,961.3594 Q483.7188,961.6094 484.25,962.1094 Z " fill="#000000"/><text fill="#000000" font-family="sans-serif" font-size="14" lengthAdjust="spacing" textLength="41" x="502.75" y="971.3379">Button</text><line style="stroke:#181818;stroke-width:0.5;" x1="411" x2="603" y1="981.6094" y2="981.6094"/><rect fill="none" height="6" style="stroke:#C82930;stroke-width:1.0;" width="6" x="418" y="992.9141"/><text fill="#000000" font-family="sans-serif" font-size="14" lengthAdjust="spacing" textLength="69" x="430" y="1000.1426">Main game</text><rect fill="none" height="6" style="stroke:#C82930;stroke-width:1.0;" width="6" x="418" y="1010.5234"/><text fill="#000000" font-family="sans-serif" font-size="14" lengthAdjust="spacing" textLength="127" x="430" y="1017.752">Rectangle rectangle</text><rect fill="none" height="6" style="stroke:#C82930;stroke-width:1.0;" width="6" x="418" y="1028.1328"/><text fill="#000000" font-family="sans-serif" font-size="14" lengthAdjust="spacing" textLength="37" x="430" y="1035.3613">float x</text><rect fill="none" height="6" style="stroke:#C82930;stroke-width:1.0;" width="6" x="418" y="1045.7422"/><text fill="#000000" font-family="sans-serif" font-size="14" lengthAdjust="spacing" textLength="38" x="430" y="1052.9707">float y</text><rect fill="none" height="6" style="stroke:#C82930;stroke-width:1.0;" width="6" x="418" y="1063.3516"/><text fill="#000000" font-family="sans-serif" font-size="14" lengthAdjust="spacing" textLength="63" x="430" y="1070.5801">float width</text><rect fill="none" height="6" style="stroke:#C82930;stroke-width:1.0;" width="6" x="418" y="1080.9609"/><text fill="#000000" font-family="sans-serif" font-size="14" lengthAdjust="spacing" textLength="70" x="430" y="1088.1895">float height</text><rect fill="none" height="6" style="stroke:#C82930;stroke-width:1.0;" width="6" x="418" y="1098.5703"/><text fill="#000000" font-family="sans-serif" font-size="14" lengthAdjust="spacing" textLength="76" x="430" y="1105.7988">String name</text><rect fill="none" height="6" style="stroke:#C82930;stroke-width:1.0;" width="6" x="418" y="1116.1797"/><text fill="#000000" font-family="sans-serif" font-size="14" lengthAdjust="spacing" textLength="92" x="430" y="1123.4082">String imgPath</text><rect fill="none" height="6" style="stroke:#C82930;stroke-width:1.0;" width="6" x="418" y="1133.7891"/><text fill="#000000" font-family="sans-serif" font-size="14" lengthAdjust="spacing" textLength="95" x="430" y="1141.0176">Texture texture</text><rect fill="none" height="6" style="stroke:#C82930;stroke-width:1.0;" width="6" x="418" y="1151.3984"/><text fill="#000000" font-family="sans-serif" font-size="14" lengthAdjust="spacing" textLength="112" x="430" y="1158.627">SpriteBatch batch</text><rect fill="none" height="6" style="stroke:#C82930;stroke-width:1.0;" width="6" x="418" y="1169.0078"/><text fill="#000000" font-family="sans-serif" font-size="14" lengthAdjust="spacing" textLength="103" x="430" y="1176.2363">boolean visibility</text><rect fill="none" height="6" style="stroke:#C82930;stroke-width:1.0;" width="6" x="418" y="1186.6172"/><text fill="#000000" font-family="sans-serif" font-size="14" lengthAdjust="spacing" textLength="76" x="430" y="1193.8457">Sprite sprite</text><rect fill="none" height="6" style="stroke:#C82930;stroke-width:1.0;" width="6" x="418" y="1204.2266"/><text fill="#000000" font-family="sans-serif" font-size="14" lengthAdjust="spacing" textLength="92" x="430" y="1211.4551">boolean active</text><line style="stroke:#181818;stroke-width:0.5;" x1="411" x2="603" y1="1218.5313" y2="1218.5313"/><ellipse cx="421" cy="1232.8359" fill="#84BE84" rx="3" ry="3" style="stroke:#038048;stroke-width:1.0;"/><text fill="#000000" font-family="sans-serif" font-size="14" lengthAdjust="spacing" textLength="130" x="430" y="1237.0645">Texture getTexture()</text><ellipse cx="421" cy="1250.4453" fill="#84BE84" rx="3" ry="3" style="stroke:#038048;stroke-width:1.0;"/><text fill="#000000" font-family="sans-serif" font-size="14" lengthAdjust="spacing" textLength="155" x="430" y="1254.6738">void setTexture(Texture)</text><ellipse cx="421" cy="1268.0547" fill="#84BE84" rx="3" ry="3" style="stroke:#038048;stroke-width:1.0;"/><text fill="#000000" font-family="sans-serif" font-size="14" lengthAdjust="spacing" textLength="143" x="430" y="1272.2832">SpriteBatch getBatch()</text><ellipse cx="421" cy="1285.6641" fill="#84BE84" rx="3" ry="3" style="stroke:#038048;stroke-width:1.0;"/><text fill="#000000" font-family="sans-serif" font-size="14" lengthAdjust="spacing" textLength="168" x="430" y="1289.8926">void setBatch(SpriteBatch)</text><ellipse cx="421" cy="1303.2734" fill="#84BE84" rx="3" ry="3" style="stroke:#038048;stroke-width:1.0;"/><text fill="#000000" font-family="sans-serif" font-size="14" lengthAdjust="spacing" textLength="108" x="430" y="1307.502">Sprite getSprite()</text><ellipse cx="421" cy="1320.8828" fill="#84BE84" rx="3" ry="3" style="stroke:#038048;stroke-width:1.0;"/><text fill="#000000" font-family="sans-serif" font-size="14" lengthAdjust="spacing" textLength="133" x="430" y="1325.1113">void setSprite(Sprite)</text><ellipse cx="421" cy="1338.4922" fill="#84BE84" rx="3" ry="3" style="stroke:#038048;stroke-width:1.0;"/><text fill="#000000" font-family="sans-serif" font-size="14" lengthAdjust="spacing" textLength="135" x="430" y="1342.7207">boolean getVisibility()</text><ellipse cx="421" cy="1356.1016" fill="#84BE84" rx="3" ry="3" style="stroke:#038048;stroke-width:1.0;"/><text fill="#000000" font-family="sans-serif" font-size="14" lengthAdjust="spacing" textLength="160" x="430" y="1360.3301">void setVisibility(boolean)</text><ellipse cx="421" cy="1373.7109" fill="#84BE84" rx="3" ry="3" style="stroke:#038048;stroke-width:1.0;"/><text fill="#000000" font-family="sans-serif" font-size="14" lengthAdjust="spacing" textLength="113" x="430" y="1377.9395">boolean isActive()</text><ellipse cx="421" cy="1391.3203" fill="#84BE84" rx="3" ry="3" style="stroke:#038048;stroke-width:1.0;"/><text fill="#000000" font-family="sans-serif" font-size="14" lengthAdjust="spacing" textLength="148" x="430" y="1395.5488">void setActive(boolean)</text><ellipse cx="421" cy="1408.9297" fill="#84BE84" rx="3" ry="3" style="stroke:#038048;stroke-width:1.0;"/><text fill="#000000" font-family="sans-serif" font-size="14" lengthAdjust="spacing" textLength="168" x="430" y="1413.1582">void setButtonColor(Color)</text><ellipse cx="421" cy="1426.5391" fill="#84BE84" rx="3" ry="3" style="stroke:#038048;stroke-width:1.0;"/><text fill="#000000" font-family="sans-serif" font-size="14" lengthAdjust="spacing" textLength="69" x="430" y="1430.7676">float getX()</text><ellipse cx="421" cy="1444.1484" fill="#84BE84" rx="3" ry="3" style="stroke:#038048;stroke-width:1.0;"/><text fill="#000000" font-family="sans-serif" font-size="14" lengthAdjust="spacing" textLength="94" x="430" y="1448.377">void setX(float)</text><ellipse cx="421" cy="1461.7578" fill="#84BE84" rx="3" ry="3" style="stroke:#038048;stroke-width:1.0;"/><text fill="#000000" font-family="sans-serif" font-size="14" lengthAdjust="spacing" textLength="70" x="430" y="1465.9863">float getY()</text><ellipse cx="421" cy="1479.3672" fill="#84BE84" rx="3" ry="3" style="stroke:#038048;stroke-width:1.0;"/><text fill="#000000" font-family="sans-serif" font-size="14" lengthAdjust="spacing" textLength="95" x="430" y="1483.5957">void setY(float)</text><ellipse cx="421" cy="1496.9766" fill="#84BE84" rx="3" ry="3" style="stroke:#038048;stroke-width:1.0;"/><text fill="#000000" font-family="sans-serif" font-size="14" lengthAdjust="spacing" textLength="97" x="430" y="1501.2051">float getWidth()</text><ellipse cx="421" cy="1514.5859" fill="#84BE84" rx="3" ry="3" style="stroke:#038048;stroke-width:1.0;"/><text fill="#000000" font-family="sans-serif" font-size="14" lengthAdjust="spacing" textLength="122" x="430" y="1518.8145">void setWidth(float)</text><ellipse cx="421" cy="1532.1953" fill="#84BE84" rx="3" ry="3" style="stroke:#038048;stroke-width:1.0;"/><text fill="#000000" font-family="sans-serif" font-size="14" lengthAdjust="spacing" textLength="101" x="430" y="1536.4238">float getHeight()</text><ellipse cx="421" cy="1549.8047" fill="#84BE84" rx="3" ry="3" style="stroke:#038048;stroke-width:1.0;"/><text fill="#000000" font-family="sans-serif" font-size="14" lengthAdjust="spacing" textLength="126" x="430" y="1554.0332">void setHeight(float)</text><ellipse cx="421" cy="1567.4141" fill="#84BE84" rx="3" ry="3" style="stroke:#038048;stroke-width:1.0;"/><text fill="#000000" font-family="sans-serif" font-size="14" lengthAdjust="spacing" textLength="107" x="430" y="1571.6426">String getName()</text><ellipse cx="421" cy="1585.0234" fill="#84BE84" rx="3" ry="3" style="stroke:#038048;stroke-width:1.0;"/><text fill="#000000" font-family="sans-serif" font-size="14" lengthAdjust="spacing" textLength="132" x="430" y="1589.252">void setName(String)</text><ellipse cx="421" cy="1602.6328" fill="#84BE84" rx="3" ry="3" style="stroke:#038048;stroke-width:1.0;"/><text fill="#000000" font-family="sans-serif" font-size="14" lengthAdjust="spacing" textLength="139" x="430" y="1606.8613">Rectangle getBound()</text></g><!--MD5=[e28b97f13ebe0e0d0e1b4a0418369900]
class com.mygdx.game.engine.input.CustomInputProcessor--><g id="elem_com.mygdx.game.engine.input.CustomInputProcessor"><rect codeLine="99" fill="#F1F1F1" height="224.0938" id="com.mygdx.game.engine.input.CustomInputProcessor" rx="2.5" ry="2.5" style="stroke:#181818;stroke-width:0.5;" width="234" x="704" y="1169.6094"/><ellipse cx="745.55" cy="1185.6094" fill="#ADD1B2" rx="11" ry="11" style="stroke:#181818;stroke-width:1.0;"/><path d="M747.55,1182.1094 Q747.7531,1181.6094 747.9875,1181.3594 Q748.2219,1181.1094 748.4875,1181.1094 Q748.9563,1181.1094 749.2531,1181.3906 Q749.55,1181.6719 749.55,1182.3281 L749.55,1183.8906 Q749.55,1184.5469 749.2688,1184.8281 Q748.9875,1185.1094 748.55,1185.1094 Q748.1594,1185.1094 747.9094,1184.9375 Q747.6594,1184.7656 747.55,1184.3125 Q747.5031,1184 747.3313,1183.8281 Q747.0188,1183.5 746.4563,1183.3125 Q745.8938,1183.1094 745.3313,1183.1094 Q744.6281,1183.1094 744.0344,1183.3906 Q743.4563,1183.6719 743.0031,1184.2969 Q742.55,1184.9219 742.55,1185.7813 L742.55,1186.7031 Q742.55,1187.7344 743.3938,1188.4219 Q744.2375,1189.1094 745.7375,1189.1094 Q746.6281,1189.1094 747.2531,1188.9063 Q747.6125,1188.7969 748.0188,1188.4375 Q748.2844,1188.2344 748.425,1188.1719 Q748.5656,1188.1094 748.7375,1188.1094 Q749.0656,1188.1094 749.3,1188.375 Q749.55,1188.625 749.55,1188.9844 Q749.55,1189.3281 749.2063,1189.7344 Q748.7063,1190.3281 747.9094,1190.6563 Q746.8625,1191.1094 745.5813,1191.1094 Q744.0813,1191.1094 742.8781,1190.5156 Q741.9094,1190.0469 741.2219,1189.0313 Q740.55,1188.0156 740.55,1186.8125 L740.55,1185.7188 Q740.55,1184.4688 741.1438,1183.375 Q741.7531,1182.2813 742.8,1181.7031 Q743.8625,1181.1094 745.05,1181.1094 Q745.7688,1181.1094 746.3938,1181.3594 Q747.0188,1181.6094 747.55,1182.1094 Z " fill="#000000"/><text fill="#000000" font-family="sans-serif" font-size="14" lengthAdjust="spacing" textLength="143" x="765.45" y="1191.3379">CustomInputProcessor</text><line style="stroke:#181818;stroke-width:0.5;" x1="705" x2="937" y1="1201.6094" y2="1201.6094"/><line style="stroke:#181818;stroke-width:0.5;" x1="705" x2="937" y1="1209.6094" y2="1209.6094"/><ellipse cx="715" cy="1223.9141" fill="#84BE84" rx="3" ry="3" style="stroke:#038048;stroke-width:1.0;"/><text fill="#000000" font-family="sans-serif" font-size="14" lengthAdjust="spacing" textLength="168" x="724" y="1228.1426">boolean mouseClicked(int)</text><ellipse cx="715" cy="1241.5234" fill="#84BE84" rx="3" ry="3" style="stroke:#038048;stroke-width:1.0;"/><text fill="#000000" font-family="sans-serif" font-size="14" lengthAdjust="spacing" textLength="137" x="724" y="1245.752">boolean keyDown(int)</text><ellipse cx="715" cy="1259.1328" fill="#84BE84" rx="3" ry="3" style="stroke:#038048;stroke-width:1.0;"/><text fill="#000000" font-family="sans-serif" font-size="14" lengthAdjust="spacing" textLength="119" x="724" y="1263.3613">boolean keyUp(int)</text><ellipse cx="715" cy="1276.7422" fill="#84BE84" rx="3" ry="3" style="stroke:#038048;stroke-width:1.0;"/><text fill="#000000" font-family="sans-serif" font-size="14" lengthAdjust="spacing" textLength="155" x="724" y="1280.9707">boolean keyTyped(char)</text><ellipse cx="715" cy="1294.3516" fill="#84BE84" rx="3" ry="3" style="stroke:#038048;stroke-width:1.0;"/><text fill="#000000" font-family="sans-serif" font-size="14" lengthAdjust="spacing" textLength="207" x="724" y="1298.5801">boolean touchDown(int,int,int,int)</text><ellipse cx="715" cy="1311.9609" fill="#84BE84" rx="3" ry="3" style="stroke:#038048;stroke-width:1.0;"/><text fill="#000000" font-family="sans-serif" font-size="14" lengthAdjust="spacing" textLength="189" x="724" y="1316.1895">boolean touchUp(int,int,int,int)</text><ellipse cx="715" cy="1329.5703" fill="#84BE84" rx="3" ry="3" style="stroke:#038048;stroke-width:1.0;"/><text fill="#000000" font-family="sans-serif" font-size="14" lengthAdjust="spacing" textLength="208" x="724" y="1333.7988">boolean touchDragged(int,int,int)</text><ellipse cx="715" cy="1347.1797" fill="#84BE84" rx="3" ry="3" style="stroke:#038048;stroke-width:1.0;"/><text fill="#000000" font-family="sans-serif" font-size="14" lengthAdjust="spacing" textLength="183" x="724" y="1351.4082">boolean mouseMoved(int,int)</text><ellipse cx="715" cy="1364.7891" fill="#84BE84" rx="3" ry="3" style="stroke:#038048;stroke-width:1.0;"/><text fill="#000000" font-family="sans-serif" font-size="14" lengthAdjust="spacing" textLength="172" x="724" y="1369.0176">boolean scrolled(float,float)</text><ellipse cx="715" cy="1382.3984" fill="#84BE84" rx="3" ry="3" style="stroke:#038048;stroke-width:1.0;"/><text fill="#000000" font-family="sans-serif" font-size="14" lengthAdjust="spacing" textLength="184" x="724" y="1386.627">boolean mouseHoverOver(T)</text></g><!--MD5=[666891b85ade836901afebab7f2e5ce4]
reverse link com.mygdx.game.game.screens.menu.PauseScreen to com.mygdx.game.engine.input.CustomInputProcessor--><g id="link_com.mygdx.game.game.screens.menu.PauseScreen_com.mygdx.game.engine.input.CustomInputProcessor"><path codeLine="112" d="M636.25,458.7894 C636.25,458.7894 636.25,1281.6094 636.25,1281.6094 C636.25,1281.6094 667.33,1281.6094 704,1281.6094 " fill="none" id="com.mygdx.game.game.screens.menu.PauseScreen-backto-com.mygdx.game.engine.input.CustomInputProcessor" style="stroke:#181818;stroke-width:1.0;"/><polygon fill="#181818" points="636.25,445.7894,632.25,451.7894,636.25,457.7894,640.25,451.7894,636.25,445.7894" style="stroke:#181818;stroke-width:1.0;"/><text fill="#000000" font-family="sans-serif" font-size="13" lengthAdjust="spacing" textLength="21" x="614.25" y="900.5645">has</text></g><!--MD5=[ea7b6b4ffb2d984120fe698391bd0e1a]
reverse link com.mygdx.game.game.screens.menu.PauseScreen to com.mygdx.game.engine.lifecycle.Main--><g id="link_com.mygdx.game.game.screens.menu.PauseScreen_com.mygdx.game.engine.lifecycle.Main"><path codeLine="113" d="M377.75,458.7894 C377.75,458.7894 377.75,1281.6094 377.75,1281.6094 C377.75,1281.6094 347.35,1281.6094 309.59,1281.6094 " fill="none" id="com.mygdx.game.game.screens.menu.PauseScreen-backto-com.mygdx.game.engine.lifecycle.Main" style="stroke:#181818;stroke-width:1.0;"/><polygon fill="#181818" points="377.75,445.7894,373.75,451.7894,377.75,457.7894,381.75,451.7894,377.75,445.7894" style="stroke:#181818;stroke-width:1.0;"/><text fill="#000000" font-family="sans-serif" font-size="13" lengthAdjust="spacing" textLength="21" x="355.75" y="900.7745">has</text></g><!--MD5=[f6e91c29d88f242c7f13c3966b9728d0]
reverse link com.mygdx.game.game.screens.menu.PauseScreen to com.mygdx.game.game.components.ui.Button--><g id="link_com.mygdx.game.game.screens.menu.PauseScreen_com.mygdx.game.game.components.ui.Button"><path codeLine="114" d="M507,458.7894 C507,458.7894 507,949.3994 507,949.3994 " fill="none" id="com.mygdx.game.game.screens.menu.PauseScreen-backto-com.mygdx.game.game.components.ui.Button" style="stroke:#181818;stroke-width:1.0;"/><polygon fill="#181818" points="507,445.7894,503,451.7894,507,457.7894,511,451.7894,507,445.7894" style="stroke:#181818;stroke-width:1.0;"/><text fill="#000000" font-family="sans-serif" font-size="13" lengthAdjust="spacing" textLength="57" x="449" y="700.5845">has many</text></g><!--MD5=[b8504ffa9acc581868822ae0ecb5c515]
@startuml
skinparam linetype polyline
skinparam linetype ortho

skinparam nodesep 100
skinparam ranksep 100

skinparam titleBorderRoundCorner 15
skinparam titleBorderThickness 2
skinparam titleBorderColor red
skinparam titleBackgroundColor Aqua-CadetBlue

title PauseScreen Class Composition Relations

class com.mygdx.game.game.screens.menu.PauseScreen {
- SpriteBatch batch
- Texture texture
- CustomInputProcessor inputProcessor
- Main game
- ArrayList<Button> buttons
- ArrayList<String> buttonPath
+ CustomInputProcessor getInputProcessor()
+ void setInputProcessor(CustomInputProcessor)
+ ArrayList<Button> getButtons()
+ void setButtons(ArrayList<Button>)
+ void show()
+ void render(float)
+ void resize(int,int)
+ void pause()
+ void resume()
+ void hide()
+ void dispose()
+ void quit()
}

class com.mygdx.game.engine.lifecycle.Main {
- {static} Main instance
- ScreenManager screenManager
- Preferences prefs
- SoundManager soundManager
+ EntityManager entityManager
- SpriteBatch batch
- BitmapFont font
+ int HEIGHT
+ int WIDTH
+ {static} Main getInstance()
+ ScreenManager getScreenManager()
+ void setScreenManager(ScreenManager)
+ SoundManager getSoundManager()
+ void setSoundManager(SoundManager)
+ SpriteBatch getBatch()
+ void setBatch(SpriteBatch)
+ BitmapFont getFont()
+ void setFont(BitmapFont)
+ Preferences getPrefs()
+ void setPrefs(Preferences)
+ void create()
+ void render()
+ void dispose()
}

class com.mygdx.game.game.components.ui.Button {
- Main game
- Rectangle rectangle
- float x
- float y
- float width
- float height
- String name
- String imgPath
- Texture texture
- SpriteBatch batch
- boolean visibility
- Sprite sprite
- boolean active
+ Texture getTexture()
+ void setTexture(Texture)
+ SpriteBatch getBatch()
+ void setBatch(SpriteBatch)
+ Sprite getSprite()
+ void setSprite(Sprite)
+ boolean getVisibility()
+ void setVisibility(boolean)
+ boolean isActive()
+ void setActive(boolean)
+ void setButtonColor(Color)
+ float getX()
+ void setX(float)
+ float getY()
+ void setY(float)
+ float getWidth()
+ void setWidth(float)
+ float getHeight()
+ void setHeight(float)
+ String getName()
+ void setName(String)
+ Rectangle getBound()
}

class com.mygdx.game.engine.input.CustomInputProcessor {
+ boolean mouseClicked(int)
+ boolean keyDown(int)
+ boolean keyUp(int)
+ boolean keyTyped(char)
+ boolean touchDown(int,int,int,int)
+ boolean touchUp(int,int,int,int)
+ boolean touchDragged(int,int,int)
+ boolean mouseMoved(int,int)
+ boolean scrolled(float,float)
+ boolean mouseHoverOver(T)
}

com.mygdx.game.game.screens.menu.PauseScreen *- - - - - - com.mygdx.game.engine.input.CustomInputProcessor :has
com.mygdx.game.game.screens.menu.PauseScreen *- - - - - - com.mygdx.game.engine.lifecycle.Main :has
com.mygdx.game.game.screens.menu.PauseScreen *- - - - - - com.mygdx.game.game.components.ui.Button :has many
@enduml

PlantUML version 1.2022.12(Mon Oct 24 02:12:26 SGT 2022)
(GPL source distribution)
Java Runtime: OpenJDK Runtime Environment
JVM: OpenJDK 64-Bit Server VM
Default Encoding: Cp1252
Language: en
Country: SG
--></g></svg>