<?xml version="1.0" encoding="UTF-8" standalone="no"?><svg xmlns="http://www.w3.org/2000/svg" xmlns:xlink="http://www.w3.org/1999/xlink" contentStyleType="text/css" height="1601px" preserveAspectRatio="none" style="width:1318px;height:1601px;background:#FFFFFF;" version="1.1" viewBox="0 0 1318 1601" width="1318px" zoomAndPan="magnify"><defs><linearGradient id="gtl42gtw9096l0" x1="50%" x2="50%" y1="0%" y2="100%"><stop offset="0%" stop-color="#00FFFF"/><stop offset="100%" stop-color="#5F9EA0"/></linearGradient></defs><g><rect fill="url(#gtl42gtw9096l0)" height="27.6094" id="_title" rx="7.5" ry="7.5" style="stroke:#FF0000;stroke-width:2.0;" width="346" x="479" y="5"/><text fill="#000000" font-family="sans-serif" font-size="14" font-weight="bold" lengthAdjust="spacing" textLength="336" x="484" y="24.5332">ScoreboardScreen Class Composition Relations</text><!--MD5=[ec129861e6194a645611de3369ad0d54]
cluster com.mygdx.game.game.screens.menu--><g id="cluster_com.mygdx.game.game.screens.menu"><path d="M488.5,44.6094 L755.5,44.6094 A3.75,3.75 0 0 1 758,47.1094 L765,68.2188 L839.5,68.2188 A2.5,2.5 0 0 1 842,70.7188 L842,424.1094 A2.5,2.5 0 0 1 839.5,426.6094 L488.5,426.6094 A2.5,2.5 0 0 1 486,424.1094 L486,47.1094 A2.5,2.5 0 0 1 488.5,44.6094 " fill="none" style="stroke:#000000;stroke-width:1.5;"/><line style="stroke:#000000;stroke-width:1.5;" x1="486" x2="765" y1="68.2188" y2="68.2188"/><text fill="#000000" font-family="sans-serif" font-size="14" font-weight="bold" lengthAdjust="spacing" textLength="266" x="490" y="61.1426">com.mygdx.game.game.screens.menu</text></g><!--MD5=[f5720f8f2d84faa53b7e58c13b303426]
cluster com.mygdx.game.engine.lifecycle--><g id="cluster_com.mygdx.game.engine.lifecycle"><path d="M8.5,984.1094 L244.5,984.1094 A3.75,3.75 0 0 1 247,986.6094 L254,1007.7188 L323.5,1007.7188 A2.5,2.5 0 0 1 326,1010.2188 L326,1486.6094 A2.5,2.5 0 0 1 323.5,1489.1094 L8.5,1489.1094 A2.5,2.5 0 0 1 6,1486.6094 L6,986.6094 A2.5,2.5 0 0 1 8.5,984.1094 " fill="none" style="stroke:#000000;stroke-width:1.5;"/><line style="stroke:#000000;stroke-width:1.5;" x1="6" x2="254" y1="1007.7188" y2="1007.7188"/><text fill="#000000" font-family="sans-serif" font-size="14" font-weight="bold" lengthAdjust="spacing" textLength="235" x="10" y="1000.6426">com.mygdx.game.engine.lifecycle</text></g><!--MD5=[683aabdc962ad2ab98ef14c38ed732ec]
cluster com.mygdx.game.game.components.ui--><g id="cluster_com.mygdx.game.game.components.ui"><path d="M366.5,878.6094 L637.5,878.6094 A3.75,3.75 0 0 1 640,881.1094 L647,902.2188 L647.5,902.2188 A2.5,2.5 0 0 1 650,904.7188 L650,1592.1094 A2.5,2.5 0 0 1 647.5,1594.6094 L366.5,1594.6094 A2.5,2.5 0 0 1 364,1592.1094 L364,881.1094 A2.5,2.5 0 0 1 366.5,878.6094 " fill="none" style="stroke:#000000;stroke-width:1.5;"/><line style="stroke:#000000;stroke-width:1.5;" x1="364" x2="647" y1="902.2188" y2="902.2188"/><text fill="#000000" font-family="sans-serif" font-size="14" font-weight="bold" lengthAdjust="spacing" textLength="270" x="368" y="895.1426">com.mygdx.game.game.components.ui</text></g><!--MD5=[6d572adab93e1a2768c068c53f7d318b]
cluster com.mygdx.game.engine.input--><g id="cluster_com.mygdx.game.engine.input"><path d="M690.5,1098.6094 L904.5,1098.6094 A3.75,3.75 0 0 1 907,1101.1094 L914,1122.2188 L951.5,1122.2188 A2.5,2.5 0 0 1 954,1124.7188 L954,1372.1094 A2.5,2.5 0 0 1 951.5,1374.6094 L690.5,1374.6094 A2.5,2.5 0 0 1 688,1372.1094 L688,1101.1094 A2.5,2.5 0 0 1 690.5,1098.6094 " fill="none" style="stroke:#000000;stroke-width:1.5;"/><line style="stroke:#000000;stroke-width:1.5;" x1="688" x2="914" y1="1122.2188" y2="1122.2188"/><text fill="#000000" font-family="sans-serif" font-size="14" font-weight="bold" lengthAdjust="spacing" textLength="213" x="692" y="1115.1426">com.mygdx.game.engine.input</text></g><!--MD5=[db2e1f00a229089377349fbd41189772]
cluster com.mygdx.game.game.components.game--><g id="cluster_com.mygdx.game.game.components.game"><path d="M1002.5,1089.6094 L1298.5,1089.6094 A3.75,3.75 0 0 1 1301,1092.1094 L1308,1113.2188 L1308.5,1113.2188 A2.5,2.5 0 0 1 1311,1115.7188 L1311,1381.1094 A2.5,2.5 0 0 1 1308.5,1383.6094 L1002.5,1383.6094 A2.5,2.5 0 0 1 1000,1381.1094 L1000,1092.1094 A2.5,2.5 0 0 1 1002.5,1089.6094 " fill="none" style="stroke:#000000;stroke-width:1.5;"/><line style="stroke:#000000;stroke-width:1.5;" x1="1000" x2="1308" y1="1113.2188" y2="1113.2188"/><text fill="#000000" font-family="sans-serif" font-size="14" font-weight="bold" lengthAdjust="spacing" textLength="295" x="1004" y="1106.1426">com.mygdx.game.game.components.game</text></g><!--MD5=[2282167cb3b450e4d39e7444bc922145]
class com.mygdx.game.game.screens.menu.ScoreboardScreen--><g id="elem_com.mygdx.game.game.screens.menu.ScoreboardScreen"><rect codeLine="14" fill="#F1F1F1" height="329.75" id="com.mygdx.game.game.screens.menu.ScoreboardScreen" rx="2.5" ry="2.5" style="stroke:#181818;stroke-width:0.5;" width="323" x="502.5" y="80.6094"/><ellipse cx="600.25" cy="96.6094" fill="#ADD1B2" rx="11" ry="11" style="stroke:#181818;stroke-width:1.0;"/><path d="M602.25,93.1094 Q602.4531,92.6094 602.6875,92.3594 Q602.9219,92.1094 603.1875,92.1094 Q603.6563,92.1094 603.9531,92.3906 Q604.25,92.6719 604.25,93.3281 L604.25,94.8906 Q604.25,95.5469 603.9688,95.8281 Q603.6875,96.1094 603.25,96.1094 Q602.8594,96.1094 602.6094,95.9375 Q602.3594,95.7656 602.25,95.3125 Q602.2031,95 602.0313,94.8281 Q601.7188,94.5 601.1563,94.3125 Q600.5938,94.1094 600.0313,94.1094 Q599.3281,94.1094 598.7344,94.3906 Q598.1563,94.6719 597.7031,95.2969 Q597.25,95.9219 597.25,96.7813 L597.25,97.7031 Q597.25,98.7344 598.0938,99.4219 Q598.9375,100.1094 600.4375,100.1094 Q601.3281,100.1094 601.9531,99.9063 Q602.3125,99.7969 602.7188,99.4375 Q602.9844,99.2344 603.125,99.1719 Q603.2656,99.1094 603.4375,99.1094 Q603.7656,99.1094 604,99.375 Q604.25,99.625 604.25,99.9844 Q604.25,100.3281 603.9063,100.7344 Q603.4063,101.3281 602.6094,101.6563 Q601.5625,102.1094 600.2813,102.1094 Q598.7813,102.1094 597.5781,101.5156 Q596.6094,101.0469 595.9219,100.0313 Q595.25,99.0156 595.25,97.8125 L595.25,96.7188 Q595.25,95.4688 595.8438,94.375 Q596.4531,93.2813 597.5,92.7031 Q598.5625,92.1094 599.75,92.1094 Q600.4688,92.1094 601.0938,92.3594 Q601.7188,92.6094 602.25,93.1094 Z " fill="#000000"/><text fill="#000000" font-family="sans-serif" font-size="14" lengthAdjust="spacing" textLength="119" x="620.75" y="102.3379">ScoreboardScreen</text><line style="stroke:#181818;stroke-width:0.5;" x1="503.5" x2="824.5" y1="112.6094" y2="112.6094"/><rect fill="none" height="6" style="stroke:#C82930;stroke-width:1.0;" width="6" x="510.5" y="123.9141"/><text fill="#000000" font-family="sans-serif" font-size="14" lengthAdjust="spacing" textLength="242" x="522.5" y="131.1426">CustomInputProcessor inputProcessor</text><rect fill="none" height="6" style="stroke:#C82930;stroke-width:1.0;" width="6" x="510.5" y="141.5234"/><text fill="#000000" font-family="sans-serif" font-size="14" lengthAdjust="spacing" textLength="116" x="522.5" y="148.752">Button backButton</text><rect fill="none" height="6" style="stroke:#C82930;stroke-width:1.0;" width="6" x="510.5" y="159.1328"/><text fill="#000000" font-family="sans-serif" font-size="14" lengthAdjust="spacing" textLength="112" x="522.5" y="166.3613">SpriteBatch batch</text><rect fill="none" height="6" style="stroke:#C82930;stroke-width:1.0;" width="6" x="510.5" y="176.7422"/><text fill="#000000" font-family="sans-serif" font-size="14" lengthAdjust="spacing" textLength="95" x="522.5" y="183.9707">Texture texture</text><rect fill="none" height="6" style="stroke:#C82930;stroke-width:1.0;" width="6" x="510.5" y="194.3516"/><text fill="#000000" font-family="sans-serif" font-size="14" lengthAdjust="spacing" textLength="69" x="522.5" y="201.5801">Main game</text><rect fill="none" height="6" style="stroke:#C82930;stroke-width:1.0;" width="6" x="510.5" y="211.9609"/><text fill="#000000" font-family="sans-serif" font-size="14" lengthAdjust="spacing" textLength="71" x="522.5" y="219.1895">Table table</text><rect fill="none" height="6" style="stroke:#C82930;stroke-width:1.0;" width="6" x="510.5" y="229.5703"/><text fill="#000000" font-family="sans-serif" font-size="14" lengthAdjust="spacing" textLength="236" x="522.5" y="236.7988">ArrayList&lt;PlayerScore&gt; playerScores</text><line style="stroke:#181818;stroke-width:0.5;" x1="503.5" x2="824.5" y1="243.875" y2="243.875"/><ellipse cx="513.5" cy="258.1797" fill="#84BE84" rx="3" ry="3" style="stroke:#038048;stroke-width:1.0;"/><text fill="#000000" font-family="sans-serif" font-size="14" lengthAdjust="spacing" textLength="272" x="522.5" y="262.4082">CustomInputProcessor getInputProcessor()</text><ellipse cx="513.5" cy="275.7891" fill="#84BE84" rx="3" ry="3" style="stroke:#038048;stroke-width:1.0;"/><text fill="#000000" font-family="sans-serif" font-size="14" lengthAdjust="spacing" textLength="297" x="522.5" y="280.0176">void setInputProcessor(CustomInputProcessor)</text><ellipse cx="513.5" cy="293.3984" fill="#84BE84" rx="3" ry="3" style="stroke:#038048;stroke-width:1.0;"/><text fill="#000000" font-family="sans-serif" font-size="14" lengthAdjust="spacing" textLength="72" x="522.5" y="297.627">void show()</text><ellipse cx="513.5" cy="311.0078" fill="#84BE84" rx="3" ry="3" style="stroke:#038048;stroke-width:1.0;"/><text fill="#000000" font-family="sans-serif" font-size="14" lengthAdjust="spacing" textLength="109" x="522.5" y="315.2363">void render(float)</text><ellipse cx="513.5" cy="328.6172" fill="#84BE84" rx="3" ry="3" style="stroke:#038048;stroke-width:1.0;"/><text fill="#000000" font-family="sans-serif" font-size="14" lengthAdjust="spacing" textLength="111" x="522.5" y="332.8457">void resize(int,int)</text><ellipse cx="513.5" cy="346.2266" fill="#84BE84" rx="3" ry="3" style="stroke:#038048;stroke-width:1.0;"/><text fill="#000000" font-family="sans-serif" font-size="14" lengthAdjust="spacing" textLength="79" x="522.5" y="350.4551">void pause()</text><ellipse cx="513.5" cy="363.8359" fill="#84BE84" rx="3" ry="3" style="stroke:#038048;stroke-width:1.0;"/><text fill="#000000" font-family="sans-serif" font-size="14" lengthAdjust="spacing" textLength="87" x="522.5" y="368.0645">void resume()</text><ellipse cx="513.5" cy="381.4453" fill="#84BE84" rx="3" ry="3" style="stroke:#038048;stroke-width:1.0;"/><text fill="#000000" font-family="sans-serif" font-size="14" lengthAdjust="spacing" textLength="67" x="522.5" y="385.6738">void hide()</text><ellipse cx="513.5" cy="399.0547" fill="#84BE84" rx="3" ry="3" style="stroke:#038048;stroke-width:1.0;"/><text fill="#000000" font-family="sans-serif" font-size="14" lengthAdjust="spacing" textLength="89" x="522.5" y="403.2832">void dispose()</text></g><!--MD5=[533628e9c9f667eb08bf66ebfc75b243]
class com.mygdx.game.engine.lifecycle.Main--><g id="elem_com.mygdx.game.engine.lifecycle.Main"><rect codeLine="33" fill="#F1F1F1" height="453.0156" id="com.mygdx.game.engine.lifecycle.Main" rx="2.5" ry="2.5" style="stroke:#181818;stroke-width:0.5;" width="287" x="22.5" y="1020.1094"/><ellipse cx="146.75" cy="1036.1094" fill="#ADD1B2" rx="11" ry="11" style="stroke:#181818;stroke-width:1.0;"/><path d="M148.75,1032.6094 Q148.9531,1032.1094 149.1875,1031.8594 Q149.4219,1031.6094 149.6875,1031.6094 Q150.1563,1031.6094 150.4531,1031.8906 Q150.75,1032.1719 150.75,1032.8281 L150.75,1034.3906 Q150.75,1035.0469 150.4688,1035.3281 Q150.1875,1035.6094 149.75,1035.6094 Q149.3594,1035.6094 149.1094,1035.4375 Q148.8594,1035.2656 148.75,1034.8125 Q148.7031,1034.5 148.5313,1034.3281 Q148.2188,1034 147.6563,1033.8125 Q147.0938,1033.6094 146.5313,1033.6094 Q145.8281,1033.6094 145.2344,1033.8906 Q144.6563,1034.1719 144.2031,1034.7969 Q143.75,1035.4219 143.75,1036.2813 L143.75,1037.2031 Q143.75,1038.2344 144.5938,1038.9219 Q145.4375,1039.6094 146.9375,1039.6094 Q147.8281,1039.6094 148.4531,1039.4063 Q148.8125,1039.2969 149.2188,1038.9375 Q149.4844,1038.7344 149.625,1038.6719 Q149.7656,1038.6094 149.9375,1038.6094 Q150.2656,1038.6094 150.5,1038.875 Q150.75,1039.125 150.75,1039.4844 Q150.75,1039.8281 150.4063,1040.2344 Q149.9063,1040.8281 149.1094,1041.1563 Q148.0625,1041.6094 146.7813,1041.6094 Q145.2813,1041.6094 144.0781,1041.0156 Q143.1094,1040.5469 142.4219,1039.5313 Q141.75,1038.5156 141.75,1037.3125 L141.75,1036.2188 Q141.75,1034.9688 142.3438,1033.875 Q142.9531,1032.7813 144,1032.2031 Q145.0625,1031.6094 146.25,1031.6094 Q146.9688,1031.6094 147.5938,1031.8594 Q148.2188,1032.1094 148.75,1032.6094 Z " fill="#000000"/><text fill="#000000" font-family="sans-serif" font-size="14" lengthAdjust="spacing" textLength="30" x="167.25" y="1041.8379">Main</text><line style="stroke:#181818;stroke-width:0.5;" x1="23.5" x2="308.5" y1="1052.1094" y2="1052.1094"/><rect fill="none" height="6" style="stroke:#C82930;stroke-width:1.0;" width="6" x="30.5" y="1063.4141"/><text fill="#000000" font-family="sans-serif" font-size="14" lengthAdjust="spacing" text-decoration="underline" textLength="87" x="42.5" y="1070.6426">Main instance</text><rect fill="none" height="6" style="stroke:#C82930;stroke-width:1.0;" width="6" x="30.5" y="1081.0234"/><text fill="#000000" font-family="sans-serif" font-size="14" lengthAdjust="spacing" textLength="204" x="42.5" y="1088.252">ScreenManager screenManager</text><rect fill="none" height="6" style="stroke:#C82930;stroke-width:1.0;" width="6" x="30.5" y="1098.6328"/><text fill="#000000" font-family="sans-serif" font-size="14" lengthAdjust="spacing" textLength="113" x="42.5" y="1105.8613">Preferences prefs</text><rect fill="none" height="6" style="stroke:#C82930;stroke-width:1.0;" width="6" x="30.5" y="1116.2422"/><text fill="#000000" font-family="sans-serif" font-size="14" lengthAdjust="spacing" textLength="196" x="42.5" y="1123.4707">SoundManager soundManager</text><ellipse cx="33.5" cy="1136.8516" fill="none" rx="3" ry="3" style="stroke:#038048;stroke-width:1.0;"/><text fill="#000000" font-family="sans-serif" font-size="14" lengthAdjust="spacing" textLength="185" x="42.5" y="1141.0801">EntityManager entityManager</text><rect fill="none" height="6" style="stroke:#C82930;stroke-width:1.0;" width="6" x="30.5" y="1151.4609"/><text fill="#000000" font-family="sans-serif" font-size="14" lengthAdjust="spacing" textLength="112" x="42.5" y="1158.6895">SpriteBatch batch</text><rect fill="none" height="6" style="stroke:#C82930;stroke-width:1.0;" width="6" x="30.5" y="1169.0703"/><text fill="#000000" font-family="sans-serif" font-size="14" lengthAdjust="spacing" textLength="100" x="42.5" y="1176.2988">BitmapFont font</text><ellipse cx="33.5" cy="1189.6797" fill="none" rx="3" ry="3" style="stroke:#038048;stroke-width:1.0;"/><text fill="#000000" font-family="sans-serif" font-size="14" lengthAdjust="spacing" textLength="69" x="42.5" y="1193.9082">int HEIGHT</text><ellipse cx="33.5" cy="1207.2891" fill="none" rx="3" ry="3" style="stroke:#038048;stroke-width:1.0;"/><text fill="#000000" font-family="sans-serif" font-size="14" lengthAdjust="spacing" textLength="63" x="42.5" y="1211.5176">int WIDTH</text><line style="stroke:#181818;stroke-width:0.5;" x1="23.5" x2="308.5" y1="1218.5938" y2="1218.5938"/><ellipse cx="33.5" cy="1232.8984" fill="#84BE84" rx="3" ry="3" style="stroke:#038048;stroke-width:1.0;"/><text fill="#000000" font-family="sans-serif" font-size="14" lengthAdjust="spacing" text-decoration="underline" textLength="117" x="42.5" y="1237.127">Main getInstance()</text><ellipse cx="33.5" cy="1250.5078" fill="#84BE84" rx="3" ry="3" style="stroke:#038048;stroke-width:1.0;"/><text fill="#000000" font-family="sans-serif" font-size="14" lengthAdjust="spacing" textLength="236" x="42.5" y="1254.7363">ScreenManager getScreenManager()</text><ellipse cx="33.5" cy="1268.1172" fill="#84BE84" rx="3" ry="3" style="stroke:#038048;stroke-width:1.0;"/><text fill="#000000" font-family="sans-serif" font-size="14" lengthAdjust="spacing" textLength="261" x="42.5" y="1272.3457">void setScreenManager(ScreenManager)</text><ellipse cx="33.5" cy="1285.7266" fill="#84BE84" rx="3" ry="3" style="stroke:#038048;stroke-width:1.0;"/><text fill="#000000" font-family="sans-serif" font-size="14" lengthAdjust="spacing" textLength="228" x="42.5" y="1289.9551">SoundManager getSoundManager()</text><ellipse cx="33.5" cy="1303.3359" fill="#84BE84" rx="3" ry="3" style="stroke:#038048;stroke-width:1.0;"/><text fill="#000000" font-family="sans-serif" font-size="14" lengthAdjust="spacing" textLength="253" x="42.5" y="1307.5645">void setSoundManager(SoundManager)</text><ellipse cx="33.5" cy="1320.9453" fill="#84BE84" rx="3" ry="3" style="stroke:#038048;stroke-width:1.0;"/><text fill="#000000" font-family="sans-serif" font-size="14" lengthAdjust="spacing" textLength="143" x="42.5" y="1325.1738">SpriteBatch getBatch()</text><ellipse cx="33.5" cy="1338.5547" fill="#84BE84" rx="3" ry="3" style="stroke:#038048;stroke-width:1.0;"/><text fill="#000000" font-family="sans-serif" font-size="14" lengthAdjust="spacing" textLength="168" x="42.5" y="1342.7832">void setBatch(SpriteBatch)</text><ellipse cx="33.5" cy="1356.1641" fill="#84BE84" rx="3" ry="3" style="stroke:#038048;stroke-width:1.0;"/><text fill="#000000" font-family="sans-serif" font-size="14" lengthAdjust="spacing" textLength="135" x="42.5" y="1360.3926">BitmapFont getFont()</text><ellipse cx="33.5" cy="1373.7734" fill="#84BE84" rx="3" ry="3" style="stroke:#038048;stroke-width:1.0;"/><text fill="#000000" font-family="sans-serif" font-size="14" lengthAdjust="spacing" textLength="160" x="42.5" y="1378.002">void setFont(BitmapFont)</text><ellipse cx="33.5" cy="1391.3828" fill="#84BE84" rx="3" ry="3" style="stroke:#038048;stroke-width:1.0;"/><text fill="#000000" font-family="sans-serif" font-size="14" lengthAdjust="spacing" textLength="144" x="42.5" y="1395.6113">Preferences getPrefs()</text><ellipse cx="33.5" cy="1408.9922" fill="#84BE84" rx="3" ry="3" style="stroke:#038048;stroke-width:1.0;"/><text fill="#000000" font-family="sans-serif" font-size="14" lengthAdjust="spacing" textLength="169" x="42.5" y="1413.2207">void setPrefs(Preferences)</text><ellipse cx="33.5" cy="1426.6016" fill="#84BE84" rx="3" ry="3" style="stroke:#038048;stroke-width:1.0;"/><text fill="#000000" font-family="sans-serif" font-size="14" lengthAdjust="spacing" textLength="80" x="42.5" y="1430.8301">void create()</text><ellipse cx="33.5" cy="1444.2109" fill="#84BE84" rx="3" ry="3" style="stroke:#038048;stroke-width:1.0;"/><text fill="#000000" font-family="sans-serif" font-size="14" lengthAdjust="spacing" textLength="82" x="42.5" y="1448.4395">void render()</text><ellipse cx="33.5" cy="1461.8203" fill="#84BE84" rx="3" ry="3" style="stroke:#038048;stroke-width:1.0;"/><text fill="#000000" font-family="sans-serif" font-size="14" lengthAdjust="spacing" textLength="89" x="42.5" y="1466.0488">void dispose()</text></g><!--MD5=[3de1ccafbb2233cb7ab977d18c48deb3]
class com.mygdx.game.game.components.ui.Button--><g id="elem_com.mygdx.game.game.components.ui.Button"><rect codeLine="59" fill="#F1F1F1" height="664.3281" id="com.mygdx.game.game.components.ui.Button" rx="2.5" ry="2.5" style="stroke:#181818;stroke-width:0.5;" width="194" x="410" y="914.6094"/><ellipse cx="482.25" cy="930.6094" fill="#ADD1B2" rx="11" ry="11" style="stroke:#181818;stroke-width:1.0;"/><path d="M484.25,927.1094 Q484.4531,926.6094 484.6875,926.3594 Q484.9219,926.1094 485.1875,926.1094 Q485.6563,926.1094 485.9531,926.3906 Q486.25,926.6719 486.25,927.3281 L486.25,928.8906 Q486.25,929.5469 485.9688,929.8281 Q485.6875,930.1094 485.25,930.1094 Q484.8594,930.1094 484.6094,929.9375 Q484.3594,929.7656 484.25,929.3125 Q484.2031,929 484.0313,928.8281 Q483.7188,928.5 483.1563,928.3125 Q482.5938,928.1094 482.0313,928.1094 Q481.3281,928.1094 480.7344,928.3906 Q480.1563,928.6719 479.7031,929.2969 Q479.25,929.9219 479.25,930.7813 L479.25,931.7031 Q479.25,932.7344 480.0938,933.4219 Q480.9375,934.1094 482.4375,934.1094 Q483.3281,934.1094 483.9531,933.9063 Q484.3125,933.7969 484.7188,933.4375 Q484.9844,933.2344 485.125,933.1719 Q485.2656,933.1094 485.4375,933.1094 Q485.7656,933.1094 486,933.375 Q486.25,933.625 486.25,933.9844 Q486.25,934.3281 485.9063,934.7344 Q485.4063,935.3281 484.6094,935.6563 Q483.5625,936.1094 482.2813,936.1094 Q480.7813,936.1094 479.5781,935.5156 Q478.6094,935.0469 477.9219,934.0313 Q477.25,933.0156 477.25,931.8125 L477.25,930.7188 Q477.25,929.4688 477.8438,928.375 Q478.4531,927.2813 479.5,926.7031 Q480.5625,926.1094 481.75,926.1094 Q482.4688,926.1094 483.0938,926.3594 Q483.7188,926.6094 484.25,927.1094 Z " fill="#000000"/><text fill="#000000" font-family="sans-serif" font-size="14" lengthAdjust="spacing" textLength="41" x="502.75" y="936.3379">Button</text><line style="stroke:#181818;stroke-width:0.5;" x1="411" x2="603" y1="946.6094" y2="946.6094"/><rect fill="none" height="6" style="stroke:#C82930;stroke-width:1.0;" width="6" x="418" y="957.9141"/><text fill="#000000" font-family="sans-serif" font-size="14" lengthAdjust="spacing" textLength="69" x="430" y="965.1426">Main game</text><rect fill="none" height="6" style="stroke:#C82930;stroke-width:1.0;" width="6" x="418" y="975.5234"/><text fill="#000000" font-family="sans-serif" font-size="14" lengthAdjust="spacing" textLength="127" x="430" y="982.752">Rectangle rectangle</text><rect fill="none" height="6" style="stroke:#C82930;stroke-width:1.0;" width="6" x="418" y="993.1328"/><text fill="#000000" font-family="sans-serif" font-size="14" lengthAdjust="spacing" textLength="37" x="430" y="1000.3613">float x</text><rect fill="none" height="6" style="stroke:#C82930;stroke-width:1.0;" width="6" x="418" y="1010.7422"/><text fill="#000000" font-family="sans-serif" font-size="14" lengthAdjust="spacing" textLength="38" x="430" y="1017.9707">float y</text><rect fill="none" height="6" style="stroke:#C82930;stroke-width:1.0;" width="6" x="418" y="1028.3516"/><text fill="#000000" font-family="sans-serif" font-size="14" lengthAdjust="spacing" textLength="63" x="430" y="1035.5801">float width</text><rect fill="none" height="6" style="stroke:#C82930;stroke-width:1.0;" width="6" x="418" y="1045.9609"/><text fill="#000000" font-family="sans-serif" font-size="14" lengthAdjust="spacing" textLength="70" x="430" y="1053.1895">float height</text><rect fill="none" height="6" style="stroke:#C82930;stroke-width:1.0;" width="6" x="418" y="1063.5703"/><text fill="#000000" font-family="sans-serif" font-size="14" lengthAdjust="spacing" textLength="76" x="430" y="1070.7988">String name</text><rect fill="none" height="6" style="stroke:#C82930;stroke-width:1.0;" width="6" x="418" y="1081.1797"/><text fill="#000000" font-family="sans-serif" font-size="14" lengthAdjust="spacing" textLength="92" x="430" y="1088.4082">String imgPath</text><rect fill="none" height="6" style="stroke:#C82930;stroke-width:1.0;" width="6" x="418" y="1098.7891"/><text fill="#000000" font-family="sans-serif" font-size="14" lengthAdjust="spacing" textLength="95" x="430" y="1106.0176">Texture texture</text><rect fill="none" height="6" style="stroke:#C82930;stroke-width:1.0;" width="6" x="418" y="1116.3984"/><text fill="#000000" font-family="sans-serif" font-size="14" lengthAdjust="spacing" textLength="112" x="430" y="1123.627">SpriteBatch batch</text><rect fill="none" height="6" style="stroke:#C82930;stroke-width:1.0;" width="6" x="418" y="1134.0078"/><text fill="#000000" font-family="sans-serif" font-size="14" lengthAdjust="spacing" textLength="103" x="430" y="1141.2363">boolean visibility</text><rect fill="none" height="6" style="stroke:#C82930;stroke-width:1.0;" width="6" x="418" y="1151.6172"/><text fill="#000000" font-family="sans-serif" font-size="14" lengthAdjust="spacing" textLength="76" x="430" y="1158.8457">Sprite sprite</text><rect fill="none" height="6" style="stroke:#C82930;stroke-width:1.0;" width="6" x="418" y="1169.2266"/><text fill="#000000" font-family="sans-serif" font-size="14" lengthAdjust="spacing" textLength="92" x="430" y="1176.4551">boolean active</text><line style="stroke:#181818;stroke-width:0.5;" x1="411" x2="603" y1="1183.5313" y2="1183.5313"/><ellipse cx="421" cy="1197.8359" fill="#84BE84" rx="3" ry="3" style="stroke:#038048;stroke-width:1.0;"/><text fill="#000000" font-family="sans-serif" font-size="14" lengthAdjust="spacing" textLength="130" x="430" y="1202.0645">Texture getTexture()</text><ellipse cx="421" cy="1215.4453" fill="#84BE84" rx="3" ry="3" style="stroke:#038048;stroke-width:1.0;"/><text fill="#000000" font-family="sans-serif" font-size="14" lengthAdjust="spacing" textLength="155" x="430" y="1219.6738">void setTexture(Texture)</text><ellipse cx="421" cy="1233.0547" fill="#84BE84" rx="3" ry="3" style="stroke:#038048;stroke-width:1.0;"/><text fill="#000000" font-family="sans-serif" font-size="14" lengthAdjust="spacing" textLength="143" x="430" y="1237.2832">SpriteBatch getBatch()</text><ellipse cx="421" cy="1250.6641" fill="#84BE84" rx="3" ry="3" style="stroke:#038048;stroke-width:1.0;"/><text fill="#000000" font-family="sans-serif" font-size="14" lengthAdjust="spacing" textLength="168" x="430" y="1254.8926">void setBatch(SpriteBatch)</text><ellipse cx="421" cy="1268.2734" fill="#84BE84" rx="3" ry="3" style="stroke:#038048;stroke-width:1.0;"/><text fill="#000000" font-family="sans-serif" font-size="14" lengthAdjust="spacing" textLength="108" x="430" y="1272.502">Sprite getSprite()</text><ellipse cx="421" cy="1285.8828" fill="#84BE84" rx="3" ry="3" style="stroke:#038048;stroke-width:1.0;"/><text fill="#000000" font-family="sans-serif" font-size="14" lengthAdjust="spacing" textLength="133" x="430" y="1290.1113">void setSprite(Sprite)</text><ellipse cx="421" cy="1303.4922" fill="#84BE84" rx="3" ry="3" style="stroke:#038048;stroke-width:1.0;"/><text fill="#000000" font-family="sans-serif" font-size="14" lengthAdjust="spacing" textLength="135" x="430" y="1307.7207">boolean getVisibility()</text><ellipse cx="421" cy="1321.1016" fill="#84BE84" rx="3" ry="3" style="stroke:#038048;stroke-width:1.0;"/><text fill="#000000" font-family="sans-serif" font-size="14" lengthAdjust="spacing" textLength="160" x="430" y="1325.3301">void setVisibility(boolean)</text><ellipse cx="421" cy="1338.7109" fill="#84BE84" rx="3" ry="3" style="stroke:#038048;stroke-width:1.0;"/><text fill="#000000" font-family="sans-serif" font-size="14" lengthAdjust="spacing" textLength="113" x="430" y="1342.9395">boolean isActive()</text><ellipse cx="421" cy="1356.3203" fill="#84BE84" rx="3" ry="3" style="stroke:#038048;stroke-width:1.0;"/><text fill="#000000" font-family="sans-serif" font-size="14" lengthAdjust="spacing" textLength="148" x="430" y="1360.5488">void setActive(boolean)</text><ellipse cx="421" cy="1373.9297" fill="#84BE84" rx="3" ry="3" style="stroke:#038048;stroke-width:1.0;"/><text fill="#000000" font-family="sans-serif" font-size="14" lengthAdjust="spacing" textLength="168" x="430" y="1378.1582">void setButtonColor(Color)</text><ellipse cx="421" cy="1391.5391" fill="#84BE84" rx="3" ry="3" style="stroke:#038048;stroke-width:1.0;"/><text fill="#000000" font-family="sans-serif" font-size="14" lengthAdjust="spacing" textLength="69" x="430" y="1395.7676">float getX()</text><ellipse cx="421" cy="1409.1484" fill="#84BE84" rx="3" ry="3" style="stroke:#038048;stroke-width:1.0;"/><text fill="#000000" font-family="sans-serif" font-size="14" lengthAdjust="spacing" textLength="94" x="430" y="1413.377">void setX(float)</text><ellipse cx="421" cy="1426.7578" fill="#84BE84" rx="3" ry="3" style="stroke:#038048;stroke-width:1.0;"/><text fill="#000000" font-family="sans-serif" font-size="14" lengthAdjust="spacing" textLength="70" x="430" y="1430.9863">float getY()</text><ellipse cx="421" cy="1444.3672" fill="#84BE84" rx="3" ry="3" style="stroke:#038048;stroke-width:1.0;"/><text fill="#000000" font-family="sans-serif" font-size="14" lengthAdjust="spacing" textLength="95" x="430" y="1448.5957">void setY(float)</text><ellipse cx="421" cy="1461.9766" fill="#84BE84" rx="3" ry="3" style="stroke:#038048;stroke-width:1.0;"/><text fill="#000000" font-family="sans-serif" font-size="14" lengthAdjust="spacing" textLength="97" x="430" y="1466.2051">float getWidth()</text><ellipse cx="421" cy="1479.5859" fill="#84BE84" rx="3" ry="3" style="stroke:#038048;stroke-width:1.0;"/><text fill="#000000" font-family="sans-serif" font-size="14" lengthAdjust="spacing" textLength="122" x="430" y="1483.8145">void setWidth(float)</text><ellipse cx="421" cy="1497.1953" fill="#84BE84" rx="3" ry="3" style="stroke:#038048;stroke-width:1.0;"/><text fill="#000000" font-family="sans-serif" font-size="14" lengthAdjust="spacing" textLength="101" x="430" y="1501.4238">float getHeight()</text><ellipse cx="421" cy="1514.8047" fill="#84BE84" rx="3" ry="3" style="stroke:#038048;stroke-width:1.0;"/><text fill="#000000" font-family="sans-serif" font-size="14" lengthAdjust="spacing" textLength="126" x="430" y="1519.0332">void setHeight(float)</text><ellipse cx="421" cy="1532.4141" fill="#84BE84" rx="3" ry="3" style="stroke:#038048;stroke-width:1.0;"/><text fill="#000000" font-family="sans-serif" font-size="14" lengthAdjust="spacing" textLength="107" x="430" y="1536.6426">String getName()</text><ellipse cx="421" cy="1550.0234" fill="#84BE84" rx="3" ry="3" style="stroke:#038048;stroke-width:1.0;"/><text fill="#000000" font-family="sans-serif" font-size="14" lengthAdjust="spacing" textLength="132" x="430" y="1554.252">void setName(String)</text><ellipse cx="421" cy="1567.6328" fill="#84BE84" rx="3" ry="3" style="stroke:#038048;stroke-width:1.0;"/><text fill="#000000" font-family="sans-serif" font-size="14" lengthAdjust="spacing" textLength="139" x="430" y="1571.8613">Rectangle getBound()</text></g><!--MD5=[e28b97f13ebe0e0d0e1b4a0418369900]
class com.mygdx.game.engine.input.CustomInputProcessor--><g id="elem_com.mygdx.game.engine.input.CustomInputProcessor"><rect codeLine="97" fill="#F1F1F1" height="224.0938" id="com.mygdx.game.engine.input.CustomInputProcessor" rx="2.5" ry="2.5" style="stroke:#181818;stroke-width:0.5;" width="234" x="704" y="1134.6094"/><ellipse cx="745.55" cy="1150.6094" fill="#ADD1B2" rx="11" ry="11" style="stroke:#181818;stroke-width:1.0;"/><path d="M747.55,1147.1094 Q747.7531,1146.6094 747.9875,1146.3594 Q748.2219,1146.1094 748.4875,1146.1094 Q748.9563,1146.1094 749.2531,1146.3906 Q749.55,1146.6719 749.55,1147.3281 L749.55,1148.8906 Q749.55,1149.5469 749.2688,1149.8281 Q748.9875,1150.1094 748.55,1150.1094 Q748.1594,1150.1094 747.9094,1149.9375 Q747.6594,1149.7656 747.55,1149.3125 Q747.5031,1149 747.3313,1148.8281 Q747.0188,1148.5 746.4563,1148.3125 Q745.8938,1148.1094 745.3313,1148.1094 Q744.6281,1148.1094 744.0344,1148.3906 Q743.4563,1148.6719 743.0031,1149.2969 Q742.55,1149.9219 742.55,1150.7813 L742.55,1151.7031 Q742.55,1152.7344 743.3938,1153.4219 Q744.2375,1154.1094 745.7375,1154.1094 Q746.6281,1154.1094 747.2531,1153.9063 Q747.6125,1153.7969 748.0188,1153.4375 Q748.2844,1153.2344 748.425,1153.1719 Q748.5656,1153.1094 748.7375,1153.1094 Q749.0656,1153.1094 749.3,1153.375 Q749.55,1153.625 749.55,1153.9844 Q749.55,1154.3281 749.2063,1154.7344 Q748.7063,1155.3281 747.9094,1155.6563 Q746.8625,1156.1094 745.5813,1156.1094 Q744.0813,1156.1094 742.8781,1155.5156 Q741.9094,1155.0469 741.2219,1154.0313 Q740.55,1153.0156 740.55,1151.8125 L740.55,1150.7188 Q740.55,1149.4688 741.1438,1148.375 Q741.7531,1147.2813 742.8,1146.7031 Q743.8625,1146.1094 745.05,1146.1094 Q745.7688,1146.1094 746.3938,1146.3594 Q747.0188,1146.6094 747.55,1147.1094 Z " fill="#000000"/><text fill="#000000" font-family="sans-serif" font-size="14" lengthAdjust="spacing" textLength="143" x="765.45" y="1156.3379">CustomInputProcessor</text><line style="stroke:#181818;stroke-width:0.5;" x1="705" x2="937" y1="1166.6094" y2="1166.6094"/><line style="stroke:#181818;stroke-width:0.5;" x1="705" x2="937" y1="1174.6094" y2="1174.6094"/><ellipse cx="715" cy="1188.9141" fill="#84BE84" rx="3" ry="3" style="stroke:#038048;stroke-width:1.0;"/><text fill="#000000" font-family="sans-serif" font-size="14" lengthAdjust="spacing" textLength="168" x="724" y="1193.1426">boolean mouseClicked(int)</text><ellipse cx="715" cy="1206.5234" fill="#84BE84" rx="3" ry="3" style="stroke:#038048;stroke-width:1.0;"/><text fill="#000000" font-family="sans-serif" font-size="14" lengthAdjust="spacing" textLength="137" x="724" y="1210.752">boolean keyDown(int)</text><ellipse cx="715" cy="1224.1328" fill="#84BE84" rx="3" ry="3" style="stroke:#038048;stroke-width:1.0;"/><text fill="#000000" font-family="sans-serif" font-size="14" lengthAdjust="spacing" textLength="119" x="724" y="1228.3613">boolean keyUp(int)</text><ellipse cx="715" cy="1241.7422" fill="#84BE84" rx="3" ry="3" style="stroke:#038048;stroke-width:1.0;"/><text fill="#000000" font-family="sans-serif" font-size="14" lengthAdjust="spacing" textLength="155" x="724" y="1245.9707">boolean keyTyped(char)</text><ellipse cx="715" cy="1259.3516" fill="#84BE84" rx="3" ry="3" style="stroke:#038048;stroke-width:1.0;"/><text fill="#000000" font-family="sans-serif" font-size="14" lengthAdjust="spacing" textLength="207" x="724" y="1263.5801">boolean touchDown(int,int,int,int)</text><ellipse cx="715" cy="1276.9609" fill="#84BE84" rx="3" ry="3" style="stroke:#038048;stroke-width:1.0;"/><text fill="#000000" font-family="sans-serif" font-size="14" lengthAdjust="spacing" textLength="189" x="724" y="1281.1895">boolean touchUp(int,int,int,int)</text><ellipse cx="715" cy="1294.5703" fill="#84BE84" rx="3" ry="3" style="stroke:#038048;stroke-width:1.0;"/><text fill="#000000" font-family="sans-serif" font-size="14" lengthAdjust="spacing" textLength="208" x="724" y="1298.7988">boolean touchDragged(int,int,int)</text><ellipse cx="715" cy="1312.1797" fill="#84BE84" rx="3" ry="3" style="stroke:#038048;stroke-width:1.0;"/><text fill="#000000" font-family="sans-serif" font-size="14" lengthAdjust="spacing" textLength="183" x="724" y="1316.4082">boolean mouseMoved(int,int)</text><ellipse cx="715" cy="1329.7891" fill="#84BE84" rx="3" ry="3" style="stroke:#038048;stroke-width:1.0;"/><text fill="#000000" font-family="sans-serif" font-size="14" lengthAdjust="spacing" textLength="172" x="724" y="1334.0176">boolean scrolled(float,float)</text><ellipse cx="715" cy="1347.3984" fill="#84BE84" rx="3" ry="3" style="stroke:#038048;stroke-width:1.0;"/><text fill="#000000" font-family="sans-serif" font-size="14" lengthAdjust="spacing" textLength="184" x="724" y="1351.627">boolean mouseHoverOver(T)</text></g><!--MD5=[f07a1b2793d5d8a5b2e96b4f6ae4b202]
class com.mygdx.game.game.components.game.PlayerScore--><g id="elem_com.mygdx.game.game.components.game.PlayerScore"><rect codeLine="110" fill="#F1F1F1" height="241.7031" id="com.mygdx.game.game.components.game.PlayerScore" rx="2.5" ry="2.5" style="stroke:#181818;stroke-width:0.5;" width="214" x="1038" y="1125.6094"/><ellipse cx="1102.25" cy="1141.6094" fill="#ADD1B2" rx="11" ry="11" style="stroke:#181818;stroke-width:1.0;"/><path d="M1104.25,1138.1094 Q1104.4531,1137.6094 1104.6875,1137.3594 Q1104.9219,1137.1094 1105.1875,1137.1094 Q1105.6563,1137.1094 1105.9531,1137.3906 Q1106.25,1137.6719 1106.25,1138.3281 L1106.25,1139.8906 Q1106.25,1140.5469 1105.9688,1140.8281 Q1105.6875,1141.1094 1105.25,1141.1094 Q1104.8594,1141.1094 1104.6094,1140.9375 Q1104.3594,1140.7656 1104.25,1140.3125 Q1104.2031,1140 1104.0313,1139.8281 Q1103.7188,1139.5 1103.1563,1139.3125 Q1102.5938,1139.1094 1102.0313,1139.1094 Q1101.3281,1139.1094 1100.7344,1139.3906 Q1100.1563,1139.6719 1099.7031,1140.2969 Q1099.25,1140.9219 1099.25,1141.7813 L1099.25,1142.7031 Q1099.25,1143.7344 1100.0938,1144.4219 Q1100.9375,1145.1094 1102.4375,1145.1094 Q1103.3281,1145.1094 1103.9531,1144.9063 Q1104.3125,1144.7969 1104.7188,1144.4375 Q1104.9844,1144.2344 1105.125,1144.1719 Q1105.2656,1144.1094 1105.4375,1144.1094 Q1105.7656,1144.1094 1106,1144.375 Q1106.25,1144.625 1106.25,1144.9844 Q1106.25,1145.3281 1105.9063,1145.7344 Q1105.4063,1146.3281 1104.6094,1146.6563 Q1103.5625,1147.1094 1102.2813,1147.1094 Q1100.7813,1147.1094 1099.5781,1146.5156 Q1098.6094,1146.0469 1097.9219,1145.0313 Q1097.25,1144.0156 1097.25,1142.8125 L1097.25,1141.7188 Q1097.25,1140.4688 1097.8438,1139.375 Q1098.4531,1138.2813 1099.5,1137.7031 Q1100.5625,1137.1094 1101.75,1137.1094 Q1102.4688,1137.1094 1103.0938,1137.3594 Q1103.7188,1137.6094 1104.25,1138.1094 Z " fill="#000000"/><text fill="#000000" font-family="sans-serif" font-size="14" lengthAdjust="spacing" textLength="77" x="1122.75" y="1147.3379">PlayerScore</text><line style="stroke:#181818;stroke-width:0.5;" x1="1039" x2="1251" y1="1157.6094" y2="1157.6094"/><rect fill="none" height="6" style="stroke:#C82930;stroke-width:1.0;" width="6" x="1046" y="1168.9141"/><text fill="#000000" font-family="sans-serif" font-size="14" lengthAdjust="spacing" textLength="100" x="1058" y="1176.1426">String startTime</text><rect fill="none" height="6" style="stroke:#C82930;stroke-width:1.0;" width="6" x="1046" y="1186.5234"/><text fill="#000000" font-family="sans-serif" font-size="14" lengthAdjust="spacing" textLength="131" x="1058" y="1193.752">int distanceTravelled</text><rect fill="none" height="6" style="stroke:#C82930;stroke-width:1.0;" width="6" x="1046" y="1204.1328"/><text fill="#000000" font-family="sans-serif" font-size="14" lengthAdjust="spacing" textLength="90" x="1058" y="1211.3613">int aliensKilled</text><line style="stroke:#181818;stroke-width:0.5;" x1="1039" x2="1251" y1="1218.4375" y2="1218.4375"/><ellipse cx="1049" cy="1232.7422" fill="#84BE84" rx="3" ry="3" style="stroke:#038048;stroke-width:1.0;"/><text fill="#000000" font-family="sans-serif" font-size="14" lengthAdjust="spacing" textLength="132" x="1058" y="1236.9707">String getStartTime()</text><ellipse cx="1049" cy="1250.3516" fill="#84BE84" rx="3" ry="3" style="stroke:#038048;stroke-width:1.0;"/><text fill="#000000" font-family="sans-serif" font-size="14" lengthAdjust="spacing" textLength="157" x="1058" y="1254.5801">void setStartTime(String)</text><ellipse cx="1049" cy="1267.9609" fill="#84BE84" rx="3" ry="3" style="stroke:#038048;stroke-width:1.0;"/><text fill="#000000" font-family="sans-serif" font-size="14" lengthAdjust="spacing" textLength="163" x="1058" y="1272.1895">int getDistanceTravelled()</text><ellipse cx="1049" cy="1285.5703" fill="#84BE84" rx="3" ry="3" style="stroke:#038048;stroke-width:1.0;"/><text fill="#000000" font-family="sans-serif" font-size="14" lengthAdjust="spacing" textLength="188" x="1058" y="1289.7988">void setDistanceTravelled(int)</text><ellipse cx="1049" cy="1303.1797" fill="#84BE84" rx="3" ry="3" style="stroke:#038048;stroke-width:1.0;"/><text fill="#000000" font-family="sans-serif" font-size="14" lengthAdjust="spacing" textLength="121" x="1058" y="1307.4082">int getAliensKilled()</text><ellipse cx="1049" cy="1320.7891" fill="#84BE84" rx="3" ry="3" style="stroke:#038048;stroke-width:1.0;"/><text fill="#000000" font-family="sans-serif" font-size="14" lengthAdjust="spacing" textLength="146" x="1058" y="1325.0176">void setAliensKilled(int)</text><ellipse cx="1049" cy="1338.3984" fill="#84BE84" rx="3" ry="3" style="stroke:#038048;stroke-width:1.0;"/><text fill="#000000" font-family="sans-serif" font-size="14" lengthAdjust="spacing" textLength="100" x="1058" y="1342.627">String toString()</text><ellipse cx="1049" cy="1356.0078" fill="#84BE84" rx="3" ry="3" style="stroke:#038048;stroke-width:1.0;"/><text fill="#000000" font-family="sans-serif" font-size="14" lengthAdjust="spacing" textLength="178" x="1058" y="1360.2363">int compareTo(PlayerScore)</text></g><!--MD5=[02b0f5eed9a20e03daa7267a42c0e3dd]
reverse link com.mygdx.game.game.screens.menu.ScoreboardScreen to com.mygdx.game.engine.input.CustomInputProcessor--><g id="link_com.mygdx.game.game.screens.menu.ScoreboardScreen_com.mygdx.game.engine.input.CustomInputProcessor"><path codeLine="124" d="M744.5,423.6194 C744.5,423.6194 744.5,1134.2594 744.5,1134.2594 " fill="none" id="com.mygdx.game.game.screens.menu.ScoreboardScreen-backto-com.mygdx.game.engine.input.CustomInputProcessor" style="stroke:#181818;stroke-width:1.0;"/><polygon fill="#181818" points="744.5,410.6194,740.5,416.6194,744.5,422.6194,748.5,416.6194,744.5,410.6194" style="stroke:#181818;stroke-width:1.0;"/><text fill="#000000" font-family="sans-serif" font-size="13" lengthAdjust="spacing" textLength="21" x="722.5" y="775.4345">has</text></g><!--MD5=[c1ef44cbe08f6c6546c6bec580ccc32a]
reverse link com.mygdx.game.game.screens.menu.ScoreboardScreen to com.mygdx.game.engine.lifecycle.Main--><g id="link_com.mygdx.game.game.screens.menu.ScoreboardScreen_com.mygdx.game.engine.lifecycle.Main"><path codeLine="125" d="M489.31,245.6094 C489.31,245.6094 166,245.6094 166,245.6094 C166,245.6094 166,724.8094 166,1020.0894 " fill="none" id="com.mygdx.game.game.screens.menu.ScoreboardScreen-backto-com.mygdx.game.engine.lifecycle.Main" style="stroke:#181818;stroke-width:1.0;"/><polygon fill="#181818" points="502.31,245.6094,496.31,241.6094,490.31,245.6094,496.31,249.6094,502.31,245.6094" style="stroke:#181818;stroke-width:1.0;"/><text fill="#000000" font-family="sans-serif" font-size="13" lengthAdjust="spacing" textLength="21" x="144" y="467.6845">has</text></g><!--MD5=[67fa8fe83bbcf9843b7529dadaf886cd]
reverse link com.mygdx.game.game.screens.menu.ScoreboardScreen to com.mygdx.game.game.components.ui.Button--><g id="link_com.mygdx.game.game.screens.menu.ScoreboardScreen_com.mygdx.game.game.components.ui.Button"><path codeLine="126" d="M553.25,423.6194 C553.25,423.6194 553.25,914.4594 553.25,914.4594 " fill="none" id="com.mygdx.game.game.screens.menu.ScoreboardScreen-backto-com.mygdx.game.game.components.ui.Button" style="stroke:#181818;stroke-width:1.0;"/><polygon fill="#181818" points="553.25,410.6194,549.25,416.6194,553.25,422.6194,557.25,416.6194,553.25,410.6194" style="stroke:#181818;stroke-width:1.0;"/><text fill="#000000" font-family="sans-serif" font-size="13" lengthAdjust="spacing" textLength="21" x="531.25" y="665.5345">has</text></g><!--MD5=[b5e703643a34009e6950707349681203]
reverse link com.mygdx.game.game.screens.menu.ScoreboardScreen to com.mygdx.game.game.components.game.PlayerScore--><g id="link_com.mygdx.game.game.screens.menu.ScoreboardScreen_com.mygdx.game.game.components.game.PlayerScore"><path codeLine="127" d="M785,423.7694 C785,423.7694 785,1130.6094 785,1130.6094 C785,1130.6094 931.84,1130.6094 1037.96,1130.6094 " fill="none" id="com.mygdx.game.game.screens.menu.ScoreboardScreen-backto-com.mygdx.game.game.components.game.PlayerScore" style="stroke:#181818;stroke-width:1.0;"/><polygon fill="#181818" points="785,410.7694,781,416.7694,785,422.7694,789,416.7694,785,410.7694" style="stroke:#181818;stroke-width:1.0;"/><text fill="#000000" font-family="sans-serif" font-size="13" lengthAdjust="spacing" textLength="57" x="727" y="900.1645">has many</text></g><!--MD5=[3040c64e13d9794fcc251175d117592c]
@startuml
skinparam linetype polyline
skinparam linetype ortho

skinparam nodesep 100
skinparam ranksep 100

skinparam titleBorderRoundCorner 15
skinparam titleBorderThickness 2
skinparam titleBorderColor red
skinparam titleBackgroundColor Aqua-CadetBlue

title ScoreboardScreen Class Composition Relations

class com.mygdx.game.game.screens.menu.ScoreboardScreen {
- CustomInputProcessor inputProcessor
- Button backButton
- SpriteBatch batch
- Texture texture
- Main game
- Table table
- ArrayList<PlayerScore> playerScores
+ CustomInputProcessor getInputProcessor()
+ void setInputProcessor(CustomInputProcessor)
+ void show()
+ void render(float)
+ void resize(int,int)
+ void pause()
+ void resume()
+ void hide()
+ void dispose()
}

class com.mygdx.game.engine.lifecycle.Main {
- {static} Main instance
- ScreenManager screenManager
- Preferences prefs
- SoundManager soundManager
+ EntityManager entityManager
- SpriteBatch batch
- BitmapFont font
+ int HEIGHT
+ int WIDTH
+ {static} Main getInstance()
+ ScreenManager getScreenManager()
+ void setScreenManager(ScreenManager)
+ SoundManager getSoundManager()
+ void setSoundManager(SoundManager)
+ SpriteBatch getBatch()
+ void setBatch(SpriteBatch)
+ BitmapFont getFont()
+ void setFont(BitmapFont)
+ Preferences getPrefs()
+ void setPrefs(Preferences)
+ void create()
+ void render()
+ void dispose()
}

class com.mygdx.game.game.components.ui.Button {
- Main game
- Rectangle rectangle
- float x
- float y
- float width
- float height
- String name
- String imgPath
- Texture texture
- SpriteBatch batch
- boolean visibility
- Sprite sprite
- boolean active
+ Texture getTexture()
+ void setTexture(Texture)
+ SpriteBatch getBatch()
+ void setBatch(SpriteBatch)
+ Sprite getSprite()
+ void setSprite(Sprite)
+ boolean getVisibility()
+ void setVisibility(boolean)
+ boolean isActive()
+ void setActive(boolean)
+ void setButtonColor(Color)
+ float getX()
+ void setX(float)
+ float getY()
+ void setY(float)
+ float getWidth()
+ void setWidth(float)
+ float getHeight()
+ void setHeight(float)
+ String getName()
+ void setName(String)
+ Rectangle getBound()
}

class com.mygdx.game.engine.input.CustomInputProcessor {
+ boolean mouseClicked(int)
+ boolean keyDown(int)
+ boolean keyUp(int)
+ boolean keyTyped(char)
+ boolean touchDown(int,int,int,int)
+ boolean touchUp(int,int,int,int)
+ boolean touchDragged(int,int,int)
+ boolean mouseMoved(int,int)
+ boolean scrolled(float,float)
+ boolean mouseHoverOver(T)
}

class com.mygdx.game.game.components.game.PlayerScore {
- String startTime
- int distanceTravelled
- int aliensKilled
+ String getStartTime()
+ void setStartTime(String)
+ int getDistanceTravelled()
+ void setDistanceTravelled(int)
+ int getAliensKilled()
+ void setAliensKilled(int)
+ String toString()
+ int compareTo(PlayerScore)
}

com.mygdx.game.game.screens.menu.ScoreboardScreen *- - - - - - com.mygdx.game.engine.input.CustomInputProcessor :has
com.mygdx.game.game.screens.menu.ScoreboardScreen *- - - - - - com.mygdx.game.engine.lifecycle.Main :has
com.mygdx.game.game.screens.menu.ScoreboardScreen *- - - - - - com.mygdx.game.game.components.ui.Button :has
com.mygdx.game.game.screens.menu.ScoreboardScreen *- - - - - - com.mygdx.game.game.components.game.PlayerScore :has many
@enduml

PlantUML version 1.2022.12(Mon Oct 24 02:12:26 SGT 2022)
(GPL source distribution)
Java Runtime: OpenJDK Runtime Environment
JVM: OpenJDK 64-Bit Server VM
Default Encoding: Cp1252
Language: en
Country: SG
--></g></svg>