<?xml version="1.0" encoding="UTF-8" standalone="no"?><svg xmlns="http://www.w3.org/2000/svg" xmlns:xlink="http://www.w3.org/1999/xlink" contentStyleType="text/css" height="1689px" preserveAspectRatio="none" style="width:961px;height:1689px;background:#FFFFFF;" version="1.1" viewBox="0 0 961 1689" width="961px" zoomAndPan="magnify"><defs><linearGradient id="g1smir5r9zqxip0" x1="50%" x2="50%" y1="0%" y2="100%"><stop offset="0%" stop-color="#00FFFF"/><stop offset="100%" stop-color="#5F9EA0"/></linearGradient></defs><g><rect fill="url(#g1smir5r9zqxip0)" height="27.6094" id="_title" rx="7.5" ry="7.5" style="stroke:#FF0000;stroke-width:2.0;" width="341" x="303" y="5"/><text fill="#000000" font-family="sans-serif" font-size="14" font-weight="bold" lengthAdjust="spacing" textLength="331" x="308" y="24.5332">StoryboardScreen Class Composition Relations</text><!--MD5=[52537726a308ea51c89174d2bb4d21b2]
cluster com.mygdx.game.game.screens.game--><g id="cluster_com.mygdx.game.game.screens.game"><path d="M359.5,44.6094 L625.5,44.6094 A3.75,3.75 0 0 1 628,47.1094 L635,68.2188 L654.5,68.2188 A2.5,2.5 0 0 1 657,70.7188 L657,512.1094 A2.5,2.5 0 0 1 654.5,514.6094 L359.5,514.6094 A2.5,2.5 0 0 1 357,512.1094 L357,47.1094 A2.5,2.5 0 0 1 359.5,44.6094 " fill="none" style="stroke:#000000;stroke-width:1.5;"/><line style="stroke:#000000;stroke-width:1.5;" x1="357" x2="635" y1="68.2188" y2="68.2188"/><text fill="#000000" font-family="sans-serif" font-size="14" font-weight="bold" lengthAdjust="spacing" textLength="265" x="361" y="61.1426">com.mygdx.game.game.screens.game</text></g><!--MD5=[f5720f8f2d84faa53b7e58c13b303426]
cluster com.mygdx.game.engine.lifecycle--><g id="cluster_com.mygdx.game.engine.lifecycle"><path d="M8.5,1072.1094 L244.5,1072.1094 A3.75,3.75 0 0 1 247,1074.6094 L254,1095.7188 L323.5,1095.7188 A2.5,2.5 0 0 1 326,1098.2188 L326,1574.6094 A2.5,2.5 0 0 1 323.5,1577.1094 L8.5,1577.1094 A2.5,2.5 0 0 1 6,1574.6094 L6,1074.6094 A2.5,2.5 0 0 1 8.5,1072.1094 " fill="none" style="stroke:#000000;stroke-width:1.5;"/><line style="stroke:#000000;stroke-width:1.5;" x1="6" x2="254" y1="1095.7188" y2="1095.7188"/><text fill="#000000" font-family="sans-serif" font-size="14" font-weight="bold" lengthAdjust="spacing" textLength="235" x="10" y="1088.6426">com.mygdx.game.engine.lifecycle</text></g><!--MD5=[683aabdc962ad2ab98ef14c38ed732ec]
cluster com.mygdx.game.game.components.ui--><g id="cluster_com.mygdx.game.game.components.ui"><path d="M366.5,966.6094 L637.5,966.6094 A3.75,3.75 0 0 1 640,969.1094 L647,990.2188 L647.5,990.2188 A2.5,2.5 0 0 1 650,992.7188 L650,1680.1094 A2.5,2.5 0 0 1 647.5,1682.6094 L366.5,1682.6094 A2.5,2.5 0 0 1 364,1680.1094 L364,969.1094 A2.5,2.5 0 0 1 366.5,966.6094 " fill="none" style="stroke:#000000;stroke-width:1.5;"/><line style="stroke:#000000;stroke-width:1.5;" x1="364" x2="647" y1="990.2188" y2="990.2188"/><text fill="#000000" font-family="sans-serif" font-size="14" font-weight="bold" lengthAdjust="spacing" textLength="270" x="368" y="983.1426">com.mygdx.game.game.components.ui</text></g><!--MD5=[6d572adab93e1a2768c068c53f7d318b]
cluster com.mygdx.game.engine.input--><g id="cluster_com.mygdx.game.engine.input"><path d="M690.5,1186.6094 L904.5,1186.6094 A3.75,3.75 0 0 1 907,1189.1094 L914,1210.2188 L951.5,1210.2188 A2.5,2.5 0 0 1 954,1212.7188 L954,1460.1094 A2.5,2.5 0 0 1 951.5,1462.6094 L690.5,1462.6094 A2.5,2.5 0 0 1 688,1460.1094 L688,1189.1094 A2.5,2.5 0 0 1 690.5,1186.6094 " fill="none" style="stroke:#000000;stroke-width:1.5;"/><line style="stroke:#000000;stroke-width:1.5;" x1="688" x2="914" y1="1210.2188" y2="1210.2188"/><text fill="#000000" font-family="sans-serif" font-size="14" font-weight="bold" lengthAdjust="spacing" textLength="213" x="692" y="1203.1426">com.mygdx.game.engine.input</text></g><!--MD5=[099ba3b3bf2fd77f69073941f7ae8b12]
class com.mygdx.game.game.screens.game.StoryboardScreen--><g id="elem_com.mygdx.game.game.screens.game.StoryboardScreen"><rect codeLine="14" fill="#F1F1F1" height="417.7969" id="com.mygdx.game.game.screens.game.StoryboardScreen" rx="2.5" ry="2.5" style="stroke:#181818;stroke-width:0.5;" width="268" x="373" y="80.6094"/><ellipse cx="445.25" cy="96.6094" fill="#ADD1B2" rx="11" ry="11" style="stroke:#181818;stroke-width:1.0;"/><path d="M447.25,93.1094 Q447.4531,92.6094 447.6875,92.3594 Q447.9219,92.1094 448.1875,92.1094 Q448.6563,92.1094 448.9531,92.3906 Q449.25,92.6719 449.25,93.3281 L449.25,94.8906 Q449.25,95.5469 448.9688,95.8281 Q448.6875,96.1094 448.25,96.1094 Q447.8594,96.1094 447.6094,95.9375 Q447.3594,95.7656 447.25,95.3125 Q447.2031,95 447.0313,94.8281 Q446.7188,94.5 446.1563,94.3125 Q445.5938,94.1094 445.0313,94.1094 Q444.3281,94.1094 443.7344,94.3906 Q443.1563,94.6719 442.7031,95.2969 Q442.25,95.9219 442.25,96.7813 L442.25,97.7031 Q442.25,98.7344 443.0938,99.4219 Q443.9375,100.1094 445.4375,100.1094 Q446.3281,100.1094 446.9531,99.9063 Q447.3125,99.7969 447.7188,99.4375 Q447.9844,99.2344 448.125,99.1719 Q448.2656,99.1094 448.4375,99.1094 Q448.7656,99.1094 449,99.375 Q449.25,99.625 449.25,99.9844 Q449.25,100.3281 448.9063,100.7344 Q448.4063,101.3281 447.6094,101.6563 Q446.5625,102.1094 445.2813,102.1094 Q443.7813,102.1094 442.5781,101.5156 Q441.6094,101.0469 440.9219,100.0313 Q440.25,99.0156 440.25,97.8125 L440.25,96.7188 Q440.25,95.4688 440.8438,94.375 Q441.4531,93.2813 442.5,92.7031 Q443.5625,92.1094 444.75,92.1094 Q445.4688,92.1094 446.0938,92.3594 Q446.7188,92.6094 447.25,93.1094 Z " fill="#000000"/><text fill="#000000" font-family="sans-serif" font-size="14" lengthAdjust="spacing" textLength="115" x="465.75" y="102.3379">StoryboardScreen</text><line style="stroke:#181818;stroke-width:0.5;" x1="374" x2="640" y1="112.6094" y2="112.6094"/><rect fill="none" height="6" style="stroke:#C82930;stroke-width:1.0;" width="6" x="381" y="123.9141"/><text fill="#000000" font-family="sans-serif" font-size="14" lengthAdjust="spacing" textLength="92" x="393" y="131.1426">String imgPath</text><rect fill="none" height="6" style="stroke:#C82930;stroke-width:1.0;" width="6" x="381" y="141.5234"/><text fill="#000000" font-family="sans-serif" font-size="14" lengthAdjust="spacing" textLength="95" x="393" y="148.752">Texture texture</text><rect fill="none" height="6" style="stroke:#C82930;stroke-width:1.0;" width="6" x="381" y="159.1328"/><text fill="#000000" font-family="sans-serif" font-size="14" lengthAdjust="spacing" textLength="112" x="393" y="166.3613">SpriteBatch batch</text><rect fill="none" height="6" style="stroke:#C82930;stroke-width:1.0;" width="6" x="381" y="176.7422"/><text fill="#000000" font-family="sans-serif" font-size="14" lengthAdjust="spacing" textLength="69" x="393" y="183.9707">Main game</text><rect fill="none" height="6" style="stroke:#C82930;stroke-width:1.0;" width="6" x="381" y="194.3516"/><text fill="#000000" font-family="sans-serif" font-size="14" lengthAdjust="spacing" textLength="242" x="393" y="201.5801">CustomInputProcessor inputProcessor</text><rect fill="none" height="6" style="stroke:#C82930;stroke-width:1.0;" width="6" x="381" y="211.9609"/><text fill="#000000" font-family="sans-serif" font-size="14" lengthAdjust="spacing" textLength="184" x="393" y="219.1895">OrthographicCamera camera</text><rect fill="none" height="6" style="stroke:#C82930;stroke-width:1.0;" width="6" x="381" y="229.5703"/><text fill="#000000" font-family="sans-serif" font-size="14" lengthAdjust="spacing" textLength="112" x="393" y="236.7988">Button nextButton</text><rect fill="none" height="6" style="stroke:#C82930;stroke-width:1.0;" width="6" x="381" y="247.1797"/><text fill="#000000" font-family="sans-serif" font-size="14" lengthAdjust="spacing" textLength="141" x="393" y="254.4082">float buttonShowDelay</text><rect fill="none" height="6" style="stroke:#C82930;stroke-width:1.0;" width="6" x="381" y="264.7891"/><text fill="#000000" font-family="sans-serif" font-size="14" lengthAdjust="spacing" textLength="180" x="393" y="272.0176">Timer.Task buttonShowTask</text><rect fill="none" height="6" style="stroke:#C82930;stroke-width:1.0;" width="6" x="381" y="282.3984"/><text fill="#000000" font-family="sans-serif" font-size="14" lengthAdjust="spacing" textLength="64" x="393" y="289.627">int current</text><rect fill="none" height="6" style="stroke:#C82930;stroke-width:1.0;" width="6" x="381" y="300.0078"/><text fill="#000000" font-family="sans-serif" font-size="14" lengthAdjust="spacing" textLength="68" x="393" y="307.2363">String type</text><line style="stroke:#181818;stroke-width:0.5;" x1="374" x2="640" y1="314.3125" y2="314.3125"/><ellipse cx="384" cy="328.6172" fill="#84BE84" rx="3" ry="3" style="stroke:#038048;stroke-width:1.0;"/><text fill="#000000" font-family="sans-serif" font-size="14" lengthAdjust="spacing" textLength="97" x="393" y="332.8457">int getCurrent()</text><ellipse cx="384" cy="346.2266" fill="#84BE84" rx="3" ry="3" style="stroke:#038048;stroke-width:1.0;"/><text fill="#000000" font-family="sans-serif" font-size="14" lengthAdjust="spacing" textLength="122" x="393" y="350.4551">void setCurrent(int)</text><ellipse cx="384" cy="363.8359" fill="#84BE84" rx="3" ry="3" style="stroke:#038048;stroke-width:1.0;"/><text fill="#000000" font-family="sans-serif" font-size="14" lengthAdjust="spacing" textLength="72" x="393" y="368.0645">void show()</text><ellipse cx="384" cy="381.4453" fill="#84BE84" rx="3" ry="3" style="stroke:#038048;stroke-width:1.0;"/><text fill="#000000" font-family="sans-serif" font-size="14" lengthAdjust="spacing" textLength="109" x="393" y="385.6738">void render(float)</text><ellipse cx="384" cy="399.0547" fill="#84BE84" rx="3" ry="3" style="stroke:#038048;stroke-width:1.0;"/><text fill="#000000" font-family="sans-serif" font-size="14" lengthAdjust="spacing" textLength="111" x="393" y="403.2832">void resize(int,int)</text><ellipse cx="384" cy="416.6641" fill="#84BE84" rx="3" ry="3" style="stroke:#038048;stroke-width:1.0;"/><text fill="#000000" font-family="sans-serif" font-size="14" lengthAdjust="spacing" textLength="79" x="393" y="420.8926">void pause()</text><ellipse cx="384" cy="434.2734" fill="#84BE84" rx="3" ry="3" style="stroke:#038048;stroke-width:1.0;"/><text fill="#000000" font-family="sans-serif" font-size="14" lengthAdjust="spacing" textLength="87" x="393" y="438.502">void resume()</text><ellipse cx="384" cy="451.8828" fill="#84BE84" rx="3" ry="3" style="stroke:#038048;stroke-width:1.0;"/><text fill="#000000" font-family="sans-serif" font-size="14" lengthAdjust="spacing" textLength="67" x="393" y="456.1113">void hide()</text><ellipse cx="384" cy="469.4922" fill="#84BE84" rx="3" ry="3" style="stroke:#038048;stroke-width:1.0;"/><text fill="#000000" font-family="sans-serif" font-size="14" lengthAdjust="spacing" textLength="89" x="393" y="473.7207">void dispose()</text><ellipse cx="384" cy="487.1016" fill="#84BE84" rx="3" ry="3" style="stroke:#038048;stroke-width:1.0;"/><text fill="#000000" font-family="sans-serif" font-size="14" lengthAdjust="spacing" textLength="66" x="393" y="491.3301">void next()</text></g><!--MD5=[533628e9c9f667eb08bf66ebfc75b243]
class com.mygdx.game.engine.lifecycle.Main--><g id="elem_com.mygdx.game.engine.lifecycle.Main"><rect codeLine="38" fill="#F1F1F1" height="453.0156" id="com.mygdx.game.engine.lifecycle.Main" rx="2.5" ry="2.5" style="stroke:#181818;stroke-width:0.5;" width="287" x="22.5" y="1108.1094"/><ellipse cx="146.75" cy="1124.1094" fill="#ADD1B2" rx="11" ry="11" style="stroke:#181818;stroke-width:1.0;"/><path d="M148.75,1120.6094 Q148.9531,1120.1094 149.1875,1119.8594 Q149.4219,1119.6094 149.6875,1119.6094 Q150.1563,1119.6094 150.4531,1119.8906 Q150.75,1120.1719 150.75,1120.8281 L150.75,1122.3906 Q150.75,1123.0469 150.4688,1123.3281 Q150.1875,1123.6094 149.75,1123.6094 Q149.3594,1123.6094 149.1094,1123.4375 Q148.8594,1123.2656 148.75,1122.8125 Q148.7031,1122.5 148.5313,1122.3281 Q148.2188,1122 147.6563,1121.8125 Q147.0938,1121.6094 146.5313,1121.6094 Q145.8281,1121.6094 145.2344,1121.8906 Q144.6563,1122.1719 144.2031,1122.7969 Q143.75,1123.4219 143.75,1124.2813 L143.75,1125.2031 Q143.75,1126.2344 144.5938,1126.9219 Q145.4375,1127.6094 146.9375,1127.6094 Q147.8281,1127.6094 148.4531,1127.4063 Q148.8125,1127.2969 149.2188,1126.9375 Q149.4844,1126.7344 149.625,1126.6719 Q149.7656,1126.6094 149.9375,1126.6094 Q150.2656,1126.6094 150.5,1126.875 Q150.75,1127.125 150.75,1127.4844 Q150.75,1127.8281 150.4063,1128.2344 Q149.9063,1128.8281 149.1094,1129.1563 Q148.0625,1129.6094 146.7813,1129.6094 Q145.2813,1129.6094 144.0781,1129.0156 Q143.1094,1128.5469 142.4219,1127.5313 Q141.75,1126.5156 141.75,1125.3125 L141.75,1124.2188 Q141.75,1122.9688 142.3438,1121.875 Q142.9531,1120.7813 144,1120.2031 Q145.0625,1119.6094 146.25,1119.6094 Q146.9688,1119.6094 147.5938,1119.8594 Q148.2188,1120.1094 148.75,1120.6094 Z " fill="#000000"/><text fill="#000000" font-family="sans-serif" font-size="14" lengthAdjust="spacing" textLength="30" x="167.25" y="1129.8379">Main</text><line style="stroke:#181818;stroke-width:0.5;" x1="23.5" x2="308.5" y1="1140.1094" y2="1140.1094"/><rect fill="none" height="6" style="stroke:#C82930;stroke-width:1.0;" width="6" x="30.5" y="1151.4141"/><text fill="#000000" font-family="sans-serif" font-size="14" lengthAdjust="spacing" text-decoration="underline" textLength="87" x="42.5" y="1158.6426">Main instance</text><rect fill="none" height="6" style="stroke:#C82930;stroke-width:1.0;" width="6" x="30.5" y="1169.0234"/><text fill="#000000" font-family="sans-serif" font-size="14" lengthAdjust="spacing" textLength="204" x="42.5" y="1176.252">ScreenManager screenManager</text><rect fill="none" height="6" style="stroke:#C82930;stroke-width:1.0;" width="6" x="30.5" y="1186.6328"/><text fill="#000000" font-family="sans-serif" font-size="14" lengthAdjust="spacing" textLength="113" x="42.5" y="1193.8613">Preferences prefs</text><rect fill="none" height="6" style="stroke:#C82930;stroke-width:1.0;" width="6" x="30.5" y="1204.2422"/><text fill="#000000" font-family="sans-serif" font-size="14" lengthAdjust="spacing" textLength="196" x="42.5" y="1211.4707">SoundManager soundManager</text><ellipse cx="33.5" cy="1224.8516" fill="none" rx="3" ry="3" style="stroke:#038048;stroke-width:1.0;"/><text fill="#000000" font-family="sans-serif" font-size="14" lengthAdjust="spacing" textLength="185" x="42.5" y="1229.0801">EntityManager entityManager</text><rect fill="none" height="6" style="stroke:#C82930;stroke-width:1.0;" width="6" x="30.5" y="1239.4609"/><text fill="#000000" font-family="sans-serif" font-size="14" lengthAdjust="spacing" textLength="112" x="42.5" y="1246.6895">SpriteBatch batch</text><rect fill="none" height="6" style="stroke:#C82930;stroke-width:1.0;" width="6" x="30.5" y="1257.0703"/><text fill="#000000" font-family="sans-serif" font-size="14" lengthAdjust="spacing" textLength="100" x="42.5" y="1264.2988">BitmapFont font</text><ellipse cx="33.5" cy="1277.6797" fill="none" rx="3" ry="3" style="stroke:#038048;stroke-width:1.0;"/><text fill="#000000" font-family="sans-serif" font-size="14" lengthAdjust="spacing" textLength="69" x="42.5" y="1281.9082">int HEIGHT</text><ellipse cx="33.5" cy="1295.2891" fill="none" rx="3" ry="3" style="stroke:#038048;stroke-width:1.0;"/><text fill="#000000" font-family="sans-serif" font-size="14" lengthAdjust="spacing" textLength="63" x="42.5" y="1299.5176">int WIDTH</text><line style="stroke:#181818;stroke-width:0.5;" x1="23.5" x2="308.5" y1="1306.5938" y2="1306.5938"/><ellipse cx="33.5" cy="1320.8984" fill="#84BE84" rx="3" ry="3" style="stroke:#038048;stroke-width:1.0;"/><text fill="#000000" font-family="sans-serif" font-size="14" lengthAdjust="spacing" text-decoration="underline" textLength="117" x="42.5" y="1325.127">Main getInstance()</text><ellipse cx="33.5" cy="1338.5078" fill="#84BE84" rx="3" ry="3" style="stroke:#038048;stroke-width:1.0;"/><text fill="#000000" font-family="sans-serif" font-size="14" lengthAdjust="spacing" textLength="236" x="42.5" y="1342.7363">ScreenManager getScreenManager()</text><ellipse cx="33.5" cy="1356.1172" fill="#84BE84" rx="3" ry="3" style="stroke:#038048;stroke-width:1.0;"/><text fill="#000000" font-family="sans-serif" font-size="14" lengthAdjust="spacing" textLength="261" x="42.5" y="1360.3457">void setScreenManager(ScreenManager)</text><ellipse cx="33.5" cy="1373.7266" fill="#84BE84" rx="3" ry="3" style="stroke:#038048;stroke-width:1.0;"/><text fill="#000000" font-family="sans-serif" font-size="14" lengthAdjust="spacing" textLength="228" x="42.5" y="1377.9551">SoundManager getSoundManager()</text><ellipse cx="33.5" cy="1391.3359" fill="#84BE84" rx="3" ry="3" style="stroke:#038048;stroke-width:1.0;"/><text fill="#000000" font-family="sans-serif" font-size="14" lengthAdjust="spacing" textLength="253" x="42.5" y="1395.5645">void setSoundManager(SoundManager)</text><ellipse cx="33.5" cy="1408.9453" fill="#84BE84" rx="3" ry="3" style="stroke:#038048;stroke-width:1.0;"/><text fill="#000000" font-family="sans-serif" font-size="14" lengthAdjust="spacing" textLength="143" x="42.5" y="1413.1738">SpriteBatch getBatch()</text><ellipse cx="33.5" cy="1426.5547" fill="#84BE84" rx="3" ry="3" style="stroke:#038048;stroke-width:1.0;"/><text fill="#000000" font-family="sans-serif" font-size="14" lengthAdjust="spacing" textLength="168" x="42.5" y="1430.7832">void setBatch(SpriteBatch)</text><ellipse cx="33.5" cy="1444.1641" fill="#84BE84" rx="3" ry="3" style="stroke:#038048;stroke-width:1.0;"/><text fill="#000000" font-family="sans-serif" font-size="14" lengthAdjust="spacing" textLength="135" x="42.5" y="1448.3926">BitmapFont getFont()</text><ellipse cx="33.5" cy="1461.7734" fill="#84BE84" rx="3" ry="3" style="stroke:#038048;stroke-width:1.0;"/><text fill="#000000" font-family="sans-serif" font-size="14" lengthAdjust="spacing" textLength="160" x="42.5" y="1466.002">void setFont(BitmapFont)</text><ellipse cx="33.5" cy="1479.3828" fill="#84BE84" rx="3" ry="3" style="stroke:#038048;stroke-width:1.0;"/><text fill="#000000" font-family="sans-serif" font-size="14" lengthAdjust="spacing" textLength="144" x="42.5" y="1483.6113">Preferences getPrefs()</text><ellipse cx="33.5" cy="1496.9922" fill="#84BE84" rx="3" ry="3" style="stroke:#038048;stroke-width:1.0;"/><text fill="#000000" font-family="sans-serif" font-size="14" lengthAdjust="spacing" textLength="169" x="42.5" y="1501.2207">void setPrefs(Preferences)</text><ellipse cx="33.5" cy="1514.6016" fill="#84BE84" rx="3" ry="3" style="stroke:#038048;stroke-width:1.0;"/><text fill="#000000" font-family="sans-serif" font-size="14" lengthAdjust="spacing" textLength="80" x="42.5" y="1518.8301">void create()</text><ellipse cx="33.5" cy="1532.2109" fill="#84BE84" rx="3" ry="3" style="stroke:#038048;stroke-width:1.0;"/><text fill="#000000" font-family="sans-serif" font-size="14" lengthAdjust="spacing" textLength="82" x="42.5" y="1536.4395">void render()</text><ellipse cx="33.5" cy="1549.8203" fill="#84BE84" rx="3" ry="3" style="stroke:#038048;stroke-width:1.0;"/><text fill="#000000" font-family="sans-serif" font-size="14" lengthAdjust="spacing" textLength="89" x="42.5" y="1554.0488">void dispose()</text></g><!--MD5=[3de1ccafbb2233cb7ab977d18c48deb3]
class com.mygdx.game.game.components.ui.Button--><g id="elem_com.mygdx.game.game.components.ui.Button"><rect codeLine="64" fill="#F1F1F1" height="664.3281" id="com.mygdx.game.game.components.ui.Button" rx="2.5" ry="2.5" style="stroke:#181818;stroke-width:0.5;" width="194" x="410" y="1002.6094"/><ellipse cx="482.25" cy="1018.6094" fill="#ADD1B2" rx="11" ry="11" style="stroke:#181818;stroke-width:1.0;"/><path d="M484.25,1015.1094 Q484.4531,1014.6094 484.6875,1014.3594 Q484.9219,1014.1094 485.1875,1014.1094 Q485.6563,1014.1094 485.9531,1014.3906 Q486.25,1014.6719 486.25,1015.3281 L486.25,1016.8906 Q486.25,1017.5469 485.9688,1017.8281 Q485.6875,1018.1094 485.25,1018.1094 Q484.8594,1018.1094 484.6094,1017.9375 Q484.3594,1017.7656 484.25,1017.3125 Q484.2031,1017 484.0313,1016.8281 Q483.7188,1016.5 483.1563,1016.3125 Q482.5938,1016.1094 482.0313,1016.1094 Q481.3281,1016.1094 480.7344,1016.3906 Q480.1563,1016.6719 479.7031,1017.2969 Q479.25,1017.9219 479.25,1018.7813 L479.25,1019.7031 Q479.25,1020.7344 480.0938,1021.4219 Q480.9375,1022.1094 482.4375,1022.1094 Q483.3281,1022.1094 483.9531,1021.9063 Q484.3125,1021.7969 484.7188,1021.4375 Q484.9844,1021.2344 485.125,1021.1719 Q485.2656,1021.1094 485.4375,1021.1094 Q485.7656,1021.1094 486,1021.375 Q486.25,1021.625 486.25,1021.9844 Q486.25,1022.3281 485.9063,1022.7344 Q485.4063,1023.3281 484.6094,1023.6563 Q483.5625,1024.1094 482.2813,1024.1094 Q480.7813,1024.1094 479.5781,1023.5156 Q478.6094,1023.0469 477.9219,1022.0313 Q477.25,1021.0156 477.25,1019.8125 L477.25,1018.7188 Q477.25,1017.4688 477.8438,1016.375 Q478.4531,1015.2813 479.5,1014.7031 Q480.5625,1014.1094 481.75,1014.1094 Q482.4688,1014.1094 483.0938,1014.3594 Q483.7188,1014.6094 484.25,1015.1094 Z " fill="#000000"/><text fill="#000000" font-family="sans-serif" font-size="14" lengthAdjust="spacing" textLength="41" x="502.75" y="1024.3379">Button</text><line style="stroke:#181818;stroke-width:0.5;" x1="411" x2="603" y1="1034.6094" y2="1034.6094"/><rect fill="none" height="6" style="stroke:#C82930;stroke-width:1.0;" width="6" x="418" y="1045.9141"/><text fill="#000000" font-family="sans-serif" font-size="14" lengthAdjust="spacing" textLength="69" x="430" y="1053.1426">Main game</text><rect fill="none" height="6" style="stroke:#C82930;stroke-width:1.0;" width="6" x="418" y="1063.5234"/><text fill="#000000" font-family="sans-serif" font-size="14" lengthAdjust="spacing" textLength="127" x="430" y="1070.752">Rectangle rectangle</text><rect fill="none" height="6" style="stroke:#C82930;stroke-width:1.0;" width="6" x="418" y="1081.1328"/><text fill="#000000" font-family="sans-serif" font-size="14" lengthAdjust="spacing" textLength="37" x="430" y="1088.3613">float x</text><rect fill="none" height="6" style="stroke:#C82930;stroke-width:1.0;" width="6" x="418" y="1098.7422"/><text fill="#000000" font-family="sans-serif" font-size="14" lengthAdjust="spacing" textLength="38" x="430" y="1105.9707">float y</text><rect fill="none" height="6" style="stroke:#C82930;stroke-width:1.0;" width="6" x="418" y="1116.3516"/><text fill="#000000" font-family="sans-serif" font-size="14" lengthAdjust="spacing" textLength="63" x="430" y="1123.5801">float width</text><rect fill="none" height="6" style="stroke:#C82930;stroke-width:1.0;" width="6" x="418" y="1133.9609"/><text fill="#000000" font-family="sans-serif" font-size="14" lengthAdjust="spacing" textLength="70" x="430" y="1141.1895">float height</text><rect fill="none" height="6" style="stroke:#C82930;stroke-width:1.0;" width="6" x="418" y="1151.5703"/><text fill="#000000" font-family="sans-serif" font-size="14" lengthAdjust="spacing" textLength="76" x="430" y="1158.7988">String name</text><rect fill="none" height="6" style="stroke:#C82930;stroke-width:1.0;" width="6" x="418" y="1169.1797"/><text fill="#000000" font-family="sans-serif" font-size="14" lengthAdjust="spacing" textLength="92" x="430" y="1176.4082">String imgPath</text><rect fill="none" height="6" style="stroke:#C82930;stroke-width:1.0;" width="6" x="418" y="1186.7891"/><text fill="#000000" font-family="sans-serif" font-size="14" lengthAdjust="spacing" textLength="95" x="430" y="1194.0176">Texture texture</text><rect fill="none" height="6" style="stroke:#C82930;stroke-width:1.0;" width="6" x="418" y="1204.3984"/><text fill="#000000" font-family="sans-serif" font-size="14" lengthAdjust="spacing" textLength="112" x="430" y="1211.627">SpriteBatch batch</text><rect fill="none" height="6" style="stroke:#C82930;stroke-width:1.0;" width="6" x="418" y="1222.0078"/><text fill="#000000" font-family="sans-serif" font-size="14" lengthAdjust="spacing" textLength="103" x="430" y="1229.2363">boolean visibility</text><rect fill="none" height="6" style="stroke:#C82930;stroke-width:1.0;" width="6" x="418" y="1239.6172"/><text fill="#000000" font-family="sans-serif" font-size="14" lengthAdjust="spacing" textLength="76" x="430" y="1246.8457">Sprite sprite</text><rect fill="none" height="6" style="stroke:#C82930;stroke-width:1.0;" width="6" x="418" y="1257.2266"/><text fill="#000000" font-family="sans-serif" font-size="14" lengthAdjust="spacing" textLength="92" x="430" y="1264.4551">boolean active</text><line style="stroke:#181818;stroke-width:0.5;" x1="411" x2="603" y1="1271.5313" y2="1271.5313"/><ellipse cx="421" cy="1285.8359" fill="#84BE84" rx="3" ry="3" style="stroke:#038048;stroke-width:1.0;"/><text fill="#000000" font-family="sans-serif" font-size="14" lengthAdjust="spacing" textLength="130" x="430" y="1290.0645">Texture getTexture()</text><ellipse cx="421" cy="1303.4453" fill="#84BE84" rx="3" ry="3" style="stroke:#038048;stroke-width:1.0;"/><text fill="#000000" font-family="sans-serif" font-size="14" lengthAdjust="spacing" textLength="155" x="430" y="1307.6738">void setTexture(Texture)</text><ellipse cx="421" cy="1321.0547" fill="#84BE84" rx="3" ry="3" style="stroke:#038048;stroke-width:1.0;"/><text fill="#000000" font-family="sans-serif" font-size="14" lengthAdjust="spacing" textLength="143" x="430" y="1325.2832">SpriteBatch getBatch()</text><ellipse cx="421" cy="1338.6641" fill="#84BE84" rx="3" ry="3" style="stroke:#038048;stroke-width:1.0;"/><text fill="#000000" font-family="sans-serif" font-size="14" lengthAdjust="spacing" textLength="168" x="430" y="1342.8926">void setBatch(SpriteBatch)</text><ellipse cx="421" cy="1356.2734" fill="#84BE84" rx="3" ry="3" style="stroke:#038048;stroke-width:1.0;"/><text fill="#000000" font-family="sans-serif" font-size="14" lengthAdjust="spacing" textLength="108" x="430" y="1360.502">Sprite getSprite()</text><ellipse cx="421" cy="1373.8828" fill="#84BE84" rx="3" ry="3" style="stroke:#038048;stroke-width:1.0;"/><text fill="#000000" font-family="sans-serif" font-size="14" lengthAdjust="spacing" textLength="133" x="430" y="1378.1113">void setSprite(Sprite)</text><ellipse cx="421" cy="1391.4922" fill="#84BE84" rx="3" ry="3" style="stroke:#038048;stroke-width:1.0;"/><text fill="#000000" font-family="sans-serif" font-size="14" lengthAdjust="spacing" textLength="135" x="430" y="1395.7207">boolean getVisibility()</text><ellipse cx="421" cy="1409.1016" fill="#84BE84" rx="3" ry="3" style="stroke:#038048;stroke-width:1.0;"/><text fill="#000000" font-family="sans-serif" font-size="14" lengthAdjust="spacing" textLength="160" x="430" y="1413.3301">void setVisibility(boolean)</text><ellipse cx="421" cy="1426.7109" fill="#84BE84" rx="3" ry="3" style="stroke:#038048;stroke-width:1.0;"/><text fill="#000000" font-family="sans-serif" font-size="14" lengthAdjust="spacing" textLength="113" x="430" y="1430.9395">boolean isActive()</text><ellipse cx="421" cy="1444.3203" fill="#84BE84" rx="3" ry="3" style="stroke:#038048;stroke-width:1.0;"/><text fill="#000000" font-family="sans-serif" font-size="14" lengthAdjust="spacing" textLength="148" x="430" y="1448.5488">void setActive(boolean)</text><ellipse cx="421" cy="1461.9297" fill="#84BE84" rx="3" ry="3" style="stroke:#038048;stroke-width:1.0;"/><text fill="#000000" font-family="sans-serif" font-size="14" lengthAdjust="spacing" textLength="168" x="430" y="1466.1582">void setButtonColor(Color)</text><ellipse cx="421" cy="1479.5391" fill="#84BE84" rx="3" ry="3" style="stroke:#038048;stroke-width:1.0;"/><text fill="#000000" font-family="sans-serif" font-size="14" lengthAdjust="spacing" textLength="69" x="430" y="1483.7676">float getX()</text><ellipse cx="421" cy="1497.1484" fill="#84BE84" rx="3" ry="3" style="stroke:#038048;stroke-width:1.0;"/><text fill="#000000" font-family="sans-serif" font-size="14" lengthAdjust="spacing" textLength="94" x="430" y="1501.377">void setX(float)</text><ellipse cx="421" cy="1514.7578" fill="#84BE84" rx="3" ry="3" style="stroke:#038048;stroke-width:1.0;"/><text fill="#000000" font-family="sans-serif" font-size="14" lengthAdjust="spacing" textLength="70" x="430" y="1518.9863">float getY()</text><ellipse cx="421" cy="1532.3672" fill="#84BE84" rx="3" ry="3" style="stroke:#038048;stroke-width:1.0;"/><text fill="#000000" font-family="sans-serif" font-size="14" lengthAdjust="spacing" textLength="95" x="430" y="1536.5957">void setY(float)</text><ellipse cx="421" cy="1549.9766" fill="#84BE84" rx="3" ry="3" style="stroke:#038048;stroke-width:1.0;"/><text fill="#000000" font-family="sans-serif" font-size="14" lengthAdjust="spacing" textLength="97" x="430" y="1554.2051">float getWidth()</text><ellipse cx="421" cy="1567.5859" fill="#84BE84" rx="3" ry="3" style="stroke:#038048;stroke-width:1.0;"/><text fill="#000000" font-family="sans-serif" font-size="14" lengthAdjust="spacing" textLength="122" x="430" y="1571.8145">void setWidth(float)</text><ellipse cx="421" cy="1585.1953" fill="#84BE84" rx="3" ry="3" style="stroke:#038048;stroke-width:1.0;"/><text fill="#000000" font-family="sans-serif" font-size="14" lengthAdjust="spacing" textLength="101" x="430" y="1589.4238">float getHeight()</text><ellipse cx="421" cy="1602.8047" fill="#84BE84" rx="3" ry="3" style="stroke:#038048;stroke-width:1.0;"/><text fill="#000000" font-family="sans-serif" font-size="14" lengthAdjust="spacing" textLength="126" x="430" y="1607.0332">void setHeight(float)</text><ellipse cx="421" cy="1620.4141" fill="#84BE84" rx="3" ry="3" style="stroke:#038048;stroke-width:1.0;"/><text fill="#000000" font-family="sans-serif" font-size="14" lengthAdjust="spacing" textLength="107" x="430" y="1624.6426">String getName()</text><ellipse cx="421" cy="1638.0234" fill="#84BE84" rx="3" ry="3" style="stroke:#038048;stroke-width:1.0;"/><text fill="#000000" font-family="sans-serif" font-size="14" lengthAdjust="spacing" textLength="132" x="430" y="1642.252">void setName(String)</text><ellipse cx="421" cy="1655.6328" fill="#84BE84" rx="3" ry="3" style="stroke:#038048;stroke-width:1.0;"/><text fill="#000000" font-family="sans-serif" font-size="14" lengthAdjust="spacing" textLength="139" x="430" y="1659.8613">Rectangle getBound()</text></g><!--MD5=[e28b97f13ebe0e0d0e1b4a0418369900]
class com.mygdx.game.engine.input.CustomInputProcessor--><g id="elem_com.mygdx.game.engine.input.CustomInputProcessor"><rect codeLine="102" fill="#F1F1F1" height="224.0938" id="com.mygdx.game.engine.input.CustomInputProcessor" rx="2.5" ry="2.5" style="stroke:#181818;stroke-width:0.5;" width="234" x="704" y="1222.6094"/><ellipse cx="745.55" cy="1238.6094" fill="#ADD1B2" rx="11" ry="11" style="stroke:#181818;stroke-width:1.0;"/><path d="M747.55,1235.1094 Q747.7531,1234.6094 747.9875,1234.3594 Q748.2219,1234.1094 748.4875,1234.1094 Q748.9563,1234.1094 749.2531,1234.3906 Q749.55,1234.6719 749.55,1235.3281 L749.55,1236.8906 Q749.55,1237.5469 749.2688,1237.8281 Q748.9875,1238.1094 748.55,1238.1094 Q748.1594,1238.1094 747.9094,1237.9375 Q747.6594,1237.7656 747.55,1237.3125 Q747.5031,1237 747.3313,1236.8281 Q747.0188,1236.5 746.4563,1236.3125 Q745.8938,1236.1094 745.3313,1236.1094 Q744.6281,1236.1094 744.0344,1236.3906 Q743.4563,1236.6719 743.0031,1237.2969 Q742.55,1237.9219 742.55,1238.7813 L742.55,1239.7031 Q742.55,1240.7344 743.3938,1241.4219 Q744.2375,1242.1094 745.7375,1242.1094 Q746.6281,1242.1094 747.2531,1241.9063 Q747.6125,1241.7969 748.0188,1241.4375 Q748.2844,1241.2344 748.425,1241.1719 Q748.5656,1241.1094 748.7375,1241.1094 Q749.0656,1241.1094 749.3,1241.375 Q749.55,1241.625 749.55,1241.9844 Q749.55,1242.3281 749.2063,1242.7344 Q748.7063,1243.3281 747.9094,1243.6563 Q746.8625,1244.1094 745.5813,1244.1094 Q744.0813,1244.1094 742.8781,1243.5156 Q741.9094,1243.0469 741.2219,1242.0313 Q740.55,1241.0156 740.55,1239.8125 L740.55,1238.7188 Q740.55,1237.4688 741.1438,1236.375 Q741.7531,1235.2813 742.8,1234.7031 Q743.8625,1234.1094 745.05,1234.1094 Q745.7688,1234.1094 746.3938,1234.3594 Q747.0188,1234.6094 747.55,1235.1094 Z " fill="#000000"/><text fill="#000000" font-family="sans-serif" font-size="14" lengthAdjust="spacing" textLength="143" x="765.45" y="1244.3379">CustomInputProcessor</text><line style="stroke:#181818;stroke-width:0.5;" x1="705" x2="937" y1="1254.6094" y2="1254.6094"/><line style="stroke:#181818;stroke-width:0.5;" x1="705" x2="937" y1="1262.6094" y2="1262.6094"/><ellipse cx="715" cy="1276.9141" fill="#84BE84" rx="3" ry="3" style="stroke:#038048;stroke-width:1.0;"/><text fill="#000000" font-family="sans-serif" font-size="14" lengthAdjust="spacing" textLength="168" x="724" y="1281.1426">boolean mouseClicked(int)</text><ellipse cx="715" cy="1294.5234" fill="#84BE84" rx="3" ry="3" style="stroke:#038048;stroke-width:1.0;"/><text fill="#000000" font-family="sans-serif" font-size="14" lengthAdjust="spacing" textLength="137" x="724" y="1298.752">boolean keyDown(int)</text><ellipse cx="715" cy="1312.1328" fill="#84BE84" rx="3" ry="3" style="stroke:#038048;stroke-width:1.0;"/><text fill="#000000" font-family="sans-serif" font-size="14" lengthAdjust="spacing" textLength="119" x="724" y="1316.3613">boolean keyUp(int)</text><ellipse cx="715" cy="1329.7422" fill="#84BE84" rx="3" ry="3" style="stroke:#038048;stroke-width:1.0;"/><text fill="#000000" font-family="sans-serif" font-size="14" lengthAdjust="spacing" textLength="155" x="724" y="1333.9707">boolean keyTyped(char)</text><ellipse cx="715" cy="1347.3516" fill="#84BE84" rx="3" ry="3" style="stroke:#038048;stroke-width:1.0;"/><text fill="#000000" font-family="sans-serif" font-size="14" lengthAdjust="spacing" textLength="207" x="724" y="1351.5801">boolean touchDown(int,int,int,int)</text><ellipse cx="715" cy="1364.9609" fill="#84BE84" rx="3" ry="3" style="stroke:#038048;stroke-width:1.0;"/><text fill="#000000" font-family="sans-serif" font-size="14" lengthAdjust="spacing" textLength="189" x="724" y="1369.1895">boolean touchUp(int,int,int,int)</text><ellipse cx="715" cy="1382.5703" fill="#84BE84" rx="3" ry="3" style="stroke:#038048;stroke-width:1.0;"/><text fill="#000000" font-family="sans-serif" font-size="14" lengthAdjust="spacing" textLength="208" x="724" y="1386.7988">boolean touchDragged(int,int,int)</text><ellipse cx="715" cy="1400.1797" fill="#84BE84" rx="3" ry="3" style="stroke:#038048;stroke-width:1.0;"/><text fill="#000000" font-family="sans-serif" font-size="14" lengthAdjust="spacing" textLength="183" x="724" y="1404.4082">boolean mouseMoved(int,int)</text><ellipse cx="715" cy="1417.7891" fill="#84BE84" rx="3" ry="3" style="stroke:#038048;stroke-width:1.0;"/><text fill="#000000" font-family="sans-serif" font-size="14" lengthAdjust="spacing" textLength="172" x="724" y="1422.0176">boolean scrolled(float,float)</text><ellipse cx="715" cy="1435.3984" fill="#84BE84" rx="3" ry="3" style="stroke:#038048;stroke-width:1.0;"/><text fill="#000000" font-family="sans-serif" font-size="14" lengthAdjust="spacing" textLength="184" x="724" y="1439.627">boolean mouseHoverOver(T)</text></g><!--MD5=[86cf2645876f506150cb24d447daa162]
reverse link com.mygdx.game.game.screens.game.StoryboardScreen to com.mygdx.game.engine.input.CustomInputProcessor--><g id="link_com.mygdx.game.game.screens.game.StoryboardScreen_com.mygdx.game.engine.input.CustomInputProcessor"><path codeLine="115" d="M622.5,511.8794 C622.5,511.8794 622.5,1334.6094 622.5,1334.6094 C622.5,1334.6094 660.83,1334.6094 703.81,1334.6094 " fill="none" id="com.mygdx.game.game.screens.game.StoryboardScreen-backto-com.mygdx.game.engine.input.CustomInputProcessor" style="stroke:#181818;stroke-width:1.0;"/><polygon fill="#181818" points="622.5,498.8794,618.5,504.8794,622.5,510.8794,626.5,504.8794,622.5,498.8794" style="stroke:#181818;stroke-width:1.0;"/><text fill="#000000" font-family="sans-serif" font-size="13" lengthAdjust="spacing" textLength="21" x="600.5" y="960.3945">has</text></g><!--MD5=[c7bdf9161342dbb53c7b7fd3ee45ef69]
reverse link com.mygdx.game.game.screens.game.StoryboardScreen to com.mygdx.game.engine.lifecycle.Main--><g id="link_com.mygdx.game.game.screens.game.StoryboardScreen_com.mygdx.game.engine.lifecycle.Main"><path codeLine="116" d="M391.5,511.8794 C391.5,511.8794 391.5,1334.6094 391.5,1334.6094 C391.5,1334.6094 354.1,1334.6094 309.77,1334.6094 " fill="none" id="com.mygdx.game.game.screens.game.StoryboardScreen-backto-com.mygdx.game.engine.lifecycle.Main" style="stroke:#181818;stroke-width:1.0;"/><polygon fill="#181818" points="391.5,498.8794,387.5,504.8794,391.5,510.8794,395.5,504.8794,391.5,498.8794" style="stroke:#181818;stroke-width:1.0;"/><text fill="#000000" font-family="sans-serif" font-size="13" lengthAdjust="spacing" textLength="21" x="369.5" y="960.6045">has</text></g><!--MD5=[a714fb88690787de0acd6c5e51d93ba9]
reverse link com.mygdx.game.game.screens.game.StoryboardScreen to com.mygdx.game.game.components.ui.Button--><g id="link_com.mygdx.game.game.screens.game.StoryboardScreen_com.mygdx.game.game.components.ui.Button"><path codeLine="117" d="M507,511.8794 C507,511.8794 507,1002.5194 507,1002.5194 " fill="none" id="com.mygdx.game.game.screens.game.StoryboardScreen-backto-com.mygdx.game.game.components.ui.Button" style="stroke:#181818;stroke-width:1.0;"/><polygon fill="#181818" points="507,498.8794,503,504.8794,507,510.8794,511,504.8794,507,498.8794" style="stroke:#181818;stroke-width:1.0;"/><text fill="#000000" font-family="sans-serif" font-size="13" lengthAdjust="spacing" textLength="21" x="485" y="753.6945">has</text></g><!--MD5=[488e54370884ae364e9596cdd338e344]
@startuml
skinparam linetype polyline
skinparam linetype ortho

skinparam nodesep 100
skinparam ranksep 100

skinparam titleBorderRoundCorner 15
skinparam titleBorderThickness 2
skinparam titleBorderColor red
skinparam titleBackgroundColor Aqua-CadetBlue

title StoryboardScreen Class Composition Relations

class com.mygdx.game.game.screens.game.StoryboardScreen {
- String imgPath
- Texture texture
- SpriteBatch batch
- Main game
- CustomInputProcessor inputProcessor
- OrthographicCamera camera
- Button nextButton
- float buttonShowDelay
- Timer.Task buttonShowTask
- int current
- String type
+ int getCurrent()
+ void setCurrent(int)
+ void show()
+ void render(float)
+ void resize(int,int)
+ void pause()
+ void resume()
+ void hide()
+ void dispose()
+ void next()
}

class com.mygdx.game.engine.lifecycle.Main {
- {static} Main instance
- ScreenManager screenManager
- Preferences prefs
- SoundManager soundManager
+ EntityManager entityManager
- SpriteBatch batch
- BitmapFont font
+ int HEIGHT
+ int WIDTH
+ {static} Main getInstance()
+ ScreenManager getScreenManager()
+ void setScreenManager(ScreenManager)
+ SoundManager getSoundManager()
+ void setSoundManager(SoundManager)
+ SpriteBatch getBatch()
+ void setBatch(SpriteBatch)
+ BitmapFont getFont()
+ void setFont(BitmapFont)
+ Preferences getPrefs()
+ void setPrefs(Preferences)
+ void create()
+ void render()
+ void dispose()
}

class com.mygdx.game.game.components.ui.Button {
- Main game
- Rectangle rectangle
- float x
- float y
- float width
- float height
- String name
- String imgPath
- Texture texture
- SpriteBatch batch
- boolean visibility
- Sprite sprite
- boolean active
+ Texture getTexture()
+ void setTexture(Texture)
+ SpriteBatch getBatch()
+ void setBatch(SpriteBatch)
+ Sprite getSprite()
+ void setSprite(Sprite)
+ boolean getVisibility()
+ void setVisibility(boolean)
+ boolean isActive()
+ void setActive(boolean)
+ void setButtonColor(Color)
+ float getX()
+ void setX(float)
+ float getY()
+ void setY(float)
+ float getWidth()
+ void setWidth(float)
+ float getHeight()
+ void setHeight(float)
+ String getName()
+ void setName(String)
+ Rectangle getBound()
}

class com.mygdx.game.engine.input.CustomInputProcessor {
+ boolean mouseClicked(int)
+ boolean keyDown(int)
+ boolean keyUp(int)
+ boolean keyTyped(char)
+ boolean touchDown(int,int,int,int)
+ boolean touchUp(int,int,int,int)
+ boolean touchDragged(int,int,int)
+ boolean mouseMoved(int,int)
+ boolean scrolled(float,float)
+ boolean mouseHoverOver(T)
}

com.mygdx.game.game.screens.game.StoryboardScreen *- - - - - - com.mygdx.game.engine.input.CustomInputProcessor :has
com.mygdx.game.game.screens.game.StoryboardScreen *- - - - - - com.mygdx.game.engine.lifecycle.Main :has
com.mygdx.game.game.screens.game.StoryboardScreen *- - - - - - com.mygdx.game.game.components.ui.Button :has
@enduml

PlantUML version 1.2022.12(Mon Oct 24 02:12:26 SGT 2022)
(GPL source distribution)
Java Runtime: OpenJDK Runtime Environment
JVM: OpenJDK 64-Bit Server VM
Default Encoding: Cp1252
Language: en
Country: SG
--></g></svg>