<?xml version="1.0" encoding="UTF-8" standalone="no"?><svg xmlns="http://www.w3.org/2000/svg" xmlns:xlink="http://www.w3.org/1999/xlink" contentStyleType="text/css" height="1848px" preserveAspectRatio="none" style="width:955px;height:1848px;background:#FFFFFF;" version="1.1" viewBox="0 0 955 1848" width="955px" zoomAndPan="magnify"><defs><linearGradient id="gjh0j558d2g0" x1="50%" x2="50%" y1="0%" y2="100%"><stop offset="0%" stop-color="#00FFFF"/><stop offset="100%" stop-color="#5F9EA0"/></linearGradient></defs><g><rect fill="url(#gjh0j558d2g0)" height="27.6094" id="_title" rx="7.5" ry="7.5" style="stroke:#FF0000;stroke-width:2.0;" width="299" x="321" y="5"/><text fill="#000000" font-family="sans-serif" font-size="14" font-weight="bold" lengthAdjust="spacing" textLength="289" x="326" y="24.5332">UFO / Player Class Composition Relations</text><!--MD5=[4c3f40b0b275a01cd7052de0c676390e]
cluster com.mygdx.game.game.components.game.enemy--><g id="cluster_com.mygdx.game.game.components.game.enemy"><path d="M8.5,247.1094 L354.5,247.1094 A3.75,3.75 0 0 1 357,249.6094 L364,270.7188 L364.5,270.7188 A2.5,2.5 0 0 1 367,273.2188 L367,767.6094 A2.5,2.5 0 0 1 364.5,770.1094 L8.5,770.1094 A2.5,2.5 0 0 1 6,767.6094 L6,249.6094 A2.5,2.5 0 0 1 8.5,247.1094 " fill="none" style="stroke:#000000;stroke-width:1.5;"/><line style="stroke:#000000;stroke-width:1.5;" x1="6" x2="364" y1="270.7188" y2="270.7188"/><text fill="#000000" font-family="sans-serif" font-size="14" font-weight="bold" lengthAdjust="spacing" textLength="345" x="10" y="263.6426">com.mygdx.game.game.components.game.enemy</text></g><!--MD5=[db2e1f00a229089377349fbd41189772]
cluster com.mygdx.game.game.components.game--><g id="cluster_com.mygdx.game.game.components.game"><path d="M82.5,1424.6094 L378.5,1424.6094 A3.75,3.75 0 0 1 381,1427.1094 L388,1448.2188 L388.5,1448.2188 A2.5,2.5 0 0 1 391,1450.7188 L391,1839.1094 A2.5,2.5 0 0 1 388.5,1841.6094 L82.5,1841.6094 A2.5,2.5 0 0 1 80,1839.1094 L80,1427.1094 A2.5,2.5 0 0 1 82.5,1424.6094 " fill="none" style="stroke:#000000;stroke-width:1.5;"/><line style="stroke:#000000;stroke-width:1.5;" x1="80" x2="388" y1="1448.2188" y2="1448.2188"/><text fill="#000000" font-family="sans-serif" font-size="14" font-weight="bold" lengthAdjust="spacing" textLength="295" x="84" y="1441.1426">com.mygdx.game.game.components.game</text></g><!--MD5=[6500413b238a1e9929f5971a2190bf30]
cluster com.mygdx.game.game.components.game.player--><g id="cluster_com.mygdx.game.game.components.game.player"><path d="M434.5,44.6094 L777.5,44.6094 A3.75,3.75 0 0 1 780,47.1094 L787,68.2188 L945.5,68.2188 A2.5,2.5 0 0 1 948,70.7188 L948,1839.1094 A2.5,2.5 0 0 1 945.5,1841.6094 L434.5,1841.6094 A2.5,2.5 0 0 1 432,1839.1094 L432,47.1094 A2.5,2.5 0 0 1 434.5,44.6094 " fill="none" style="stroke:#000000;stroke-width:1.5;"/><line style="stroke:#000000;stroke-width:1.5;" x1="432" x2="787" y1="68.2188" y2="68.2188"/><text fill="#000000" font-family="sans-serif" font-size="14" font-weight="bold" lengthAdjust="spacing" textLength="342" x="436" y="61.1426">com.mygdx.game.game.components.game.player</text></g><!--MD5=[139e9ab045344ebd7ec2247c1cc08e21]
class com.mygdx.game.game.components.game.enemy.UFO--><g id="elem_com.mygdx.game.game.components.game.enemy.UFO"><rect codeLine="14" fill="#F1F1F1" height="470.625" id="com.mygdx.game.game.components.game.enemy.UFO" rx="2.5" ry="2.5" style="stroke:#181818;stroke-width:0.5;" width="324" x="24" y="283.1094"/><ellipse cx="167.25" cy="299.1094" fill="#ADD1B2" rx="11" ry="11" style="stroke:#181818;stroke-width:1.0;"/><path d="M169.25,295.6094 Q169.4531,295.1094 169.6875,294.8594 Q169.9219,294.6094 170.1875,294.6094 Q170.6563,294.6094 170.9531,294.8906 Q171.25,295.1719 171.25,295.8281 L171.25,297.3906 Q171.25,298.0469 170.9688,298.3281 Q170.6875,298.6094 170.25,298.6094 Q169.8594,298.6094 169.6094,298.4375 Q169.3594,298.2656 169.25,297.8125 Q169.2031,297.5 169.0313,297.3281 Q168.7188,297 168.1563,296.8125 Q167.5938,296.6094 167.0313,296.6094 Q166.3281,296.6094 165.7344,296.8906 Q165.1563,297.1719 164.7031,297.7969 Q164.25,298.4219 164.25,299.2813 L164.25,300.2031 Q164.25,301.2344 165.0938,301.9219 Q165.9375,302.6094 167.4375,302.6094 Q168.3281,302.6094 168.9531,302.4063 Q169.3125,302.2969 169.7188,301.9375 Q169.9844,301.7344 170.125,301.6719 Q170.2656,301.6094 170.4375,301.6094 Q170.7656,301.6094 171,301.875 Q171.25,302.125 171.25,302.4844 Q171.25,302.8281 170.9063,303.2344 Q170.4063,303.8281 169.6094,304.1563 Q168.5625,304.6094 167.2813,304.6094 Q165.7813,304.6094 164.5781,304.0156 Q163.6094,303.5469 162.9219,302.5313 Q162.25,301.5156 162.25,300.3125 L162.25,299.2188 Q162.25,297.9688 162.8438,296.875 Q163.4531,295.7813 164.5,295.2031 Q165.5625,294.6094 166.75,294.6094 Q167.4688,294.6094 168.0938,294.8594 Q168.7188,295.1094 169.25,295.6094 Z " fill="#000000"/><text fill="#000000" font-family="sans-serif" font-size="14" lengthAdjust="spacing" textLength="29" x="187.75" y="304.8379">UFO</text><line style="stroke:#181818;stroke-width:0.5;" x1="25" x2="347" y1="315.1094" y2="315.1094"/><rect fill="none" height="6" style="stroke:#C82930;stroke-width:1.0;" width="6" x="32" y="326.4141"/><text fill="#000000" font-family="sans-serif" font-size="14" lengthAdjust="spacing" textLength="92" x="44" y="333.6426">String imgPath</text><rect fill="none" height="6" style="stroke:#C82930;stroke-width:1.0;" width="6" x="32" y="344.0234"/><text fill="#000000" font-family="sans-serif" font-size="14" lengthAdjust="spacing" textLength="57" x="44" y="351.252">String dir</text><rect fill="none" height="6" style="stroke:#C82930;stroke-width:1.0;" width="6" x="32" y="361.6328"/><text fill="#000000" font-family="sans-serif" font-size="14" lengthAdjust="spacing" textLength="70" x="44" y="368.8613">float speed</text><rect fill="none" height="6" style="stroke:#C82930;stroke-width:1.0;" width="6" x="32" y="379.2422"/><text fill="#000000" font-family="sans-serif" font-size="14" lengthAdjust="spacing" textLength="95" x="44" y="386.4707">Texture texture</text><rect fill="none" height="6" style="stroke:#C82930;stroke-width:1.0;" width="6" x="32" y="396.8516"/><text fill="#000000" font-family="sans-serif" font-size="14" lengthAdjust="spacing" textLength="263" x="44" y="404.0801">ArrayList&lt;CollidableEntity&lt;Laser&gt;&gt; lasers</text><rect fill="none" height="6" style="stroke:#C82930;stroke-width:1.0;" width="6" x="32" y="414.4609"/><text fill="#000000" font-family="sans-serif" font-size="14" lengthAdjust="spacing" textLength="127" x="44" y="421.6895">Rectangle rectangle</text><rect fill="none" height="6" style="stroke:#C82930;stroke-width:1.0;" width="6" x="32" y="432.0703"/><text fill="#000000" font-family="sans-serif" font-size="14" lengthAdjust="spacing" textLength="58" x="44" y="439.2988">int health</text><rect fill="none" height="6" style="stroke:#C82930;stroke-width:1.0;" width="6" x="32" y="449.6797"/><text fill="#000000" font-family="sans-serif" font-size="14" lengthAdjust="spacing" textLength="113" x="44" y="456.9082">long lastShotTime</text><rect fill="none" height="6" style="stroke:#C82930;stroke-width:1.0;" width="6" x="32" y="467.2891"/><text fill="#000000" font-family="sans-serif" font-size="14" lengthAdjust="spacing" textLength="94" x="44" y="474.5176">long shotDelay</text><line style="stroke:#181818;stroke-width:0.5;" x1="25" x2="347" y1="481.5938" y2="481.5938"/><ellipse cx="35" cy="495.8984" fill="#84BE84" rx="3" ry="3" style="stroke:#038048;stroke-width:1.0;"/><text fill="#000000" font-family="sans-serif" font-size="14" lengthAdjust="spacing" textLength="102" x="44" y="500.127">float getSpeed()</text><ellipse cx="35" cy="513.5078" fill="#84BE84" rx="3" ry="3" style="stroke:#038048;stroke-width:1.0;"/><text fill="#000000" font-family="sans-serif" font-size="14" lengthAdjust="spacing" textLength="127" x="44" y="517.7363">void setSpeed(float)</text><ellipse cx="35" cy="531.1172" fill="#84BE84" rx="3" ry="3" style="stroke:#038048;stroke-width:1.0;"/><text fill="#000000" font-family="sans-serif" font-size="14" lengthAdjust="spacing" textLength="130" x="44" y="535.3457">Texture getTexture()</text><ellipse cx="35" cy="548.7266" fill="#84BE84" rx="3" ry="3" style="stroke:#038048;stroke-width:1.0;"/><text fill="#000000" font-family="sans-serif" font-size="14" lengthAdjust="spacing" textLength="155" x="44" y="552.9551">void setTexture(Texture)</text><ellipse cx="35" cy="566.3359" fill="#84BE84" rx="3" ry="3" style="stroke:#038048;stroke-width:1.0;"/><text fill="#000000" font-family="sans-serif" font-size="14" lengthAdjust="spacing" textLength="89" x="44" y="570.5645">int getHealth()</text><ellipse cx="35" cy="583.9453" fill="#84BE84" rx="3" ry="3" style="stroke:#038048;stroke-width:1.0;"/><text fill="#000000" font-family="sans-serif" font-size="14" lengthAdjust="spacing" textLength="114" x="44" y="588.1738">void setHealth(int)</text><ellipse cx="35" cy="601.5547" fill="#84BE84" rx="3" ry="3" style="stroke:#038048;stroke-width:1.0;"/><text fill="#000000" font-family="sans-serif" font-size="14" lengthAdjust="spacing" textLength="238" x="44" y="605.7832">void moveUFO(CollidableEntity,int,int)</text><ellipse cx="35" cy="619.1641" fill="#84BE84" rx="3" ry="3" style="stroke:#038048;stroke-width:1.0;"/><text fill="#000000" font-family="sans-serif" font-size="14" lengthAdjust="spacing" textLength="195" x="44" y="623.3926">void moveLeft(CollidableEntity)</text><ellipse cx="35" cy="636.7734" fill="#84BE84" rx="3" ry="3" style="stroke:#038048;stroke-width:1.0;"/><text fill="#000000" font-family="sans-serif" font-size="14" lengthAdjust="spacing" textLength="204" x="44" y="641.002">void moveRight(CollidableEntity)</text><ellipse cx="35" cy="654.3828" fill="#84BE84" rx="3" ry="3" style="stroke:#038048;stroke-width:1.0;"/><text fill="#000000" font-family="sans-serif" font-size="14" lengthAdjust="spacing" textLength="206" x="44" y="658.6113">void moveDown(CollidableEntity)</text><ellipse cx="35" cy="671.9922" fill="#84BE84" rx="3" ry="3" style="stroke:#038048;stroke-width:1.0;"/><text fill="#000000" font-family="sans-serif" font-size="14" lengthAdjust="spacing" textLength="245" x="44" y="676.2207">long fireWeapon(CollidableEntity,Main)</text><ellipse cx="35" cy="689.6016" fill="#84BE84" rx="3" ry="3" style="stroke:#038048;stroke-width:1.0;"/><text fill="#000000" font-family="sans-serif" font-size="14" lengthAdjust="spacing" textLength="286" x="44" y="693.8301">void dropAsteroid(CollidableEntity&lt;Asteroid&gt;)</text><ellipse cx="35" cy="707.2109" fill="#84BE84" rx="3" ry="3" style="stroke:#038048;stroke-width:1.0;"/><text fill="#000000" font-family="sans-serif" font-size="14" lengthAdjust="spacing" textLength="262" x="44" y="711.4395">void dropPlanet(CollidableEntity&lt;Planet&gt;)</text><ellipse cx="35" cy="724.8203" fill="#84BE84" rx="3" ry="3" style="stroke:#038048;stroke-width:1.0;"/><text fill="#000000" font-family="sans-serif" font-size="14" lengthAdjust="spacing" textLength="259" x="44" y="729.0488">void moveLasers(CollidableEntity&lt;UFO&gt;)</text><ellipse cx="35" cy="742.4297" fill="#84BE84" rx="3" ry="3" style="stroke:#038048;stroke-width:1.0;"/><text fill="#000000" font-family="sans-serif" font-size="14" lengthAdjust="spacing" textLength="298" x="44" y="746.6582">ArrayList&lt;CollidableEntity&lt;Laser&gt;&gt; getLasers()</text></g><!--MD5=[9c946a4b768b3743f0d5531ed5607df7]
class com.mygdx.game.game.components.game.Laser--><g id="elem_com.mygdx.game.game.components.game.Laser"><rect codeLine="41" fill="#F1F1F1" height="364.9688" id="com.mygdx.game.game.components.game.Laser" rx="2.5" ry="2.5" style="stroke:#181818;stroke-width:0.5;" width="194" x="139" y="1460.6094"/><ellipse cx="213.75" cy="1476.6094" fill="#ADD1B2" rx="11" ry="11" style="stroke:#181818;stroke-width:1.0;"/><path d="M215.75,1473.1094 Q215.9531,1472.6094 216.1875,1472.3594 Q216.4219,1472.1094 216.6875,1472.1094 Q217.1563,1472.1094 217.4531,1472.3906 Q217.75,1472.6719 217.75,1473.3281 L217.75,1474.8906 Q217.75,1475.5469 217.4688,1475.8281 Q217.1875,1476.1094 216.75,1476.1094 Q216.3594,1476.1094 216.1094,1475.9375 Q215.8594,1475.7656 215.75,1475.3125 Q215.7031,1475 215.5313,1474.8281 Q215.2188,1474.5 214.6563,1474.3125 Q214.0938,1474.1094 213.5313,1474.1094 Q212.8281,1474.1094 212.2344,1474.3906 Q211.6563,1474.6719 211.2031,1475.2969 Q210.75,1475.9219 210.75,1476.7813 L210.75,1477.7031 Q210.75,1478.7344 211.5938,1479.4219 Q212.4375,1480.1094 213.9375,1480.1094 Q214.8281,1480.1094 215.4531,1479.9063 Q215.8125,1479.7969 216.2188,1479.4375 Q216.4844,1479.2344 216.625,1479.1719 Q216.7656,1479.1094 216.9375,1479.1094 Q217.2656,1479.1094 217.5,1479.375 Q217.75,1479.625 217.75,1479.9844 Q217.75,1480.3281 217.4063,1480.7344 Q216.9063,1481.3281 216.1094,1481.6563 Q215.0625,1482.1094 213.7813,1482.1094 Q212.2813,1482.1094 211.0781,1481.5156 Q210.1094,1481.0469 209.4219,1480.0313 Q208.75,1479.0156 208.75,1477.8125 L208.75,1476.7188 Q208.75,1475.4688 209.3438,1474.375 Q209.9531,1473.2813 211,1472.7031 Q212.0625,1472.1094 213.25,1472.1094 Q213.9688,1472.1094 214.5938,1472.3594 Q215.2188,1472.6094 215.75,1473.1094 Z " fill="#000000"/><text fill="#000000" font-family="sans-serif" font-size="14" lengthAdjust="spacing" textLength="36" x="234.25" y="1482.3379">Laser</text><line style="stroke:#181818;stroke-width:0.5;" x1="140" x2="332" y1="1492.6094" y2="1492.6094"/><rect fill="none" height="6" style="stroke:#C82930;stroke-width:1.0;" width="6" x="147" y="1503.9141"/><text fill="#000000" font-family="sans-serif" font-size="14" lengthAdjust="spacing" textLength="99" x="159" y="1511.1426">String imgName</text><rect fill="none" height="6" style="stroke:#C82930;stroke-width:1.0;" width="6" x="147" y="1521.5234"/><text fill="#000000" font-family="sans-serif" font-size="14" lengthAdjust="spacing" textLength="76" x="159" y="1528.752">Sprite sprite</text><rect fill="none" height="6" style="stroke:#C82930;stroke-width:1.0;" width="6" x="147" y="1539.1328"/><text fill="#000000" font-family="sans-serif" font-size="14" lengthAdjust="spacing" textLength="63" x="159" y="1546.3613">float width</text><rect fill="none" height="6" style="stroke:#C82930;stroke-width:1.0;" width="6" x="147" y="1556.7422"/><text fill="#000000" font-family="sans-serif" font-size="14" lengthAdjust="spacing" textLength="70" x="159" y="1563.9707">float height</text><rect fill="none" height="6" style="stroke:#C82930;stroke-width:1.0;" width="6" x="147" y="1574.3516"/><text fill="#000000" font-family="sans-serif" font-size="14" lengthAdjust="spacing" textLength="70" x="159" y="1581.5801">float speed</text><rect fill="none" height="6" style="stroke:#C82930;stroke-width:1.0;" width="6" x="147" y="1591.9609"/><text fill="#000000" font-family="sans-serif" font-size="14" lengthAdjust="spacing" textLength="112" x="159" y="1599.1895">SpriteBatch batch</text><line style="stroke:#181818;stroke-width:0.5;" x1="140" x2="332" y1="1606.2656" y2="1606.2656"/><ellipse cx="150" cy="1620.5703" fill="#84BE84" rx="3" ry="3" style="stroke:#038048;stroke-width:1.0;"/><text fill="#000000" font-family="sans-serif" font-size="14" lengthAdjust="spacing" textLength="143" x="159" y="1624.7988">SpriteBatch getBatch()</text><ellipse cx="150" cy="1638.1797" fill="#84BE84" rx="3" ry="3" style="stroke:#038048;stroke-width:1.0;"/><text fill="#000000" font-family="sans-serif" font-size="14" lengthAdjust="spacing" textLength="168" x="159" y="1642.4082">void setBatch(SpriteBatch)</text><ellipse cx="150" cy="1655.7891" fill="#84BE84" rx="3" ry="3" style="stroke:#038048;stroke-width:1.0;"/><text fill="#000000" font-family="sans-serif" font-size="14" lengthAdjust="spacing" textLength="129" x="159" y="1660.0176">String getImgName()</text><ellipse cx="150" cy="1673.3984" fill="#84BE84" rx="3" ry="3" style="stroke:#038048;stroke-width:1.0;"/><text fill="#000000" font-family="sans-serif" font-size="14" lengthAdjust="spacing" textLength="154" x="159" y="1677.627">void setImgName(String)</text><ellipse cx="150" cy="1691.0078" fill="#84BE84" rx="3" ry="3" style="stroke:#038048;stroke-width:1.0;"/><text fill="#000000" font-family="sans-serif" font-size="14" lengthAdjust="spacing" textLength="108" x="159" y="1695.2363">Sprite getSprite()</text><ellipse cx="150" cy="1708.6172" fill="#84BE84" rx="3" ry="3" style="stroke:#038048;stroke-width:1.0;"/><text fill="#000000" font-family="sans-serif" font-size="14" lengthAdjust="spacing" textLength="133" x="159" y="1712.8457">void setSprite(Sprite)</text><ellipse cx="150" cy="1726.2266" fill="#84BE84" rx="3" ry="3" style="stroke:#038048;stroke-width:1.0;"/><text fill="#000000" font-family="sans-serif" font-size="14" lengthAdjust="spacing" textLength="97" x="159" y="1730.4551">float getWidth()</text><ellipse cx="150" cy="1743.8359" fill="#84BE84" rx="3" ry="3" style="stroke:#038048;stroke-width:1.0;"/><text fill="#000000" font-family="sans-serif" font-size="14" lengthAdjust="spacing" textLength="122" x="159" y="1748.0645">void setWidth(float)</text><ellipse cx="150" cy="1761.4453" fill="#84BE84" rx="3" ry="3" style="stroke:#038048;stroke-width:1.0;"/><text fill="#000000" font-family="sans-serif" font-size="14" lengthAdjust="spacing" textLength="101" x="159" y="1765.6738">float getHeight()</text><ellipse cx="150" cy="1779.0547" fill="#84BE84" rx="3" ry="3" style="stroke:#038048;stroke-width:1.0;"/><text fill="#000000" font-family="sans-serif" font-size="14" lengthAdjust="spacing" textLength="126" x="159" y="1783.2832">void setHeight(float)</text><ellipse cx="150" cy="1796.6641" fill="#84BE84" rx="3" ry="3" style="stroke:#038048;stroke-width:1.0;"/><text fill="#000000" font-family="sans-serif" font-size="14" lengthAdjust="spacing" textLength="102" x="159" y="1800.8926">float getSpeed()</text><ellipse cx="150" cy="1814.2734" fill="#84BE84" rx="3" ry="3" style="stroke:#038048;stroke-width:1.0;"/><text fill="#000000" font-family="sans-serif" font-size="14" lengthAdjust="spacing" textLength="127" x="159" y="1818.502">void setSpeed(float)</text></g><!--MD5=[c2bf84988c969a9c17d7862cfb85c56b]
class com.mygdx.game.game.components.game.player.Player--><g id="elem_com.mygdx.game.game.components.game.player.Player"><rect codeLine="62" fill="#F1F1F1" height="875.6406" id="com.mygdx.game.game.components.game.player.Player" rx="2.5" ry="2.5" style="stroke:#181818;stroke-width:0.5;" width="483" x="448.5" y="80.6094"/><ellipse cx="665.75" cy="96.6094" fill="#ADD1B2" rx="11" ry="11" style="stroke:#181818;stroke-width:1.0;"/><path d="M667.75,93.1094 Q667.9531,92.6094 668.1875,92.3594 Q668.4219,92.1094 668.6875,92.1094 Q669.1563,92.1094 669.4531,92.3906 Q669.75,92.6719 669.75,93.3281 L669.75,94.8906 Q669.75,95.5469 669.4688,95.8281 Q669.1875,96.1094 668.75,96.1094 Q668.3594,96.1094 668.1094,95.9375 Q667.8594,95.7656 667.75,95.3125 Q667.7031,95 667.5313,94.8281 Q667.2188,94.5 666.6563,94.3125 Q666.0938,94.1094 665.5313,94.1094 Q664.8281,94.1094 664.2344,94.3906 Q663.6563,94.6719 663.2031,95.2969 Q662.75,95.9219 662.75,96.7813 L662.75,97.7031 Q662.75,98.7344 663.5938,99.4219 Q664.4375,100.1094 665.9375,100.1094 Q666.8281,100.1094 667.4531,99.9063 Q667.8125,99.7969 668.2188,99.4375 Q668.4844,99.2344 668.625,99.1719 Q668.7656,99.1094 668.9375,99.1094 Q669.2656,99.1094 669.5,99.375 Q669.75,99.625 669.75,99.9844 Q669.75,100.3281 669.4063,100.7344 Q668.9063,101.3281 668.1094,101.6563 Q667.0625,102.1094 665.7813,102.1094 Q664.2813,102.1094 663.0781,101.5156 Q662.1094,101.0469 661.4219,100.0313 Q660.75,99.0156 660.75,97.8125 L660.75,96.7188 Q660.75,95.4688 661.3438,94.375 Q661.9531,93.2813 663,92.7031 Q664.0625,92.1094 665.25,92.1094 Q665.9688,92.1094 666.5938,92.3594 Q667.2188,92.6094 667.75,93.1094 Z " fill="#000000"/><text fill="#000000" font-family="sans-serif" font-size="14" lengthAdjust="spacing" textLength="40" x="686.25" y="102.3379">Player</text><line style="stroke:#181818;stroke-width:0.5;" x1="449.5" x2="930.5" y1="112.6094" y2="112.6094"/><rect fill="none" height="6" style="stroke:#C82930;stroke-width:1.0;" width="6" x="456.5" y="123.9141"/><text fill="#000000" font-family="sans-serif" font-size="14" lengthAdjust="spacing" textLength="99" x="468.5" y="131.1426">String imgName</text><rect fill="none" height="6" style="stroke:#C82930;stroke-width:1.0;" width="6" x="456.5" y="141.5234"/><text fill="#000000" font-family="sans-serif" font-size="14" lengthAdjust="spacing" textLength="76" x="468.5" y="148.752">Sprite sprite</text><rect fill="none" height="6" style="stroke:#C82930;stroke-width:1.0;" width="6" x="456.5" y="159.1328"/><text fill="#000000" font-family="sans-serif" font-size="14" lengthAdjust="spacing" textLength="63" x="468.5" y="166.3613">float width</text><rect fill="none" height="6" style="stroke:#C82930;stroke-width:1.0;" width="6" x="456.5" y="176.7422"/><text fill="#000000" font-family="sans-serif" font-size="14" lengthAdjust="spacing" textLength="70" x="468.5" y="183.9707">float height</text><rect fill="none" height="6" style="stroke:#C82930;stroke-width:1.0;" width="6" x="456.5" y="194.3516"/><text fill="#000000" font-family="sans-serif" font-size="14" lengthAdjust="spacing" textLength="70" x="468.5" y="201.5801">float speed</text><rect fill="none" height="6" style="stroke:#C82930;stroke-width:1.0;" width="6" x="456.5" y="211.9609"/><text fill="#000000" font-family="sans-serif" font-size="14" lengthAdjust="spacing" textLength="156" x="468.5" y="219.1895">int[] mainKeyboardInputs</text><rect fill="none" height="6" style="stroke:#C82930;stroke-width:1.0;" width="6" x="456.5" y="229.5703"/><text fill="#000000" font-family="sans-serif" font-size="14" lengthAdjust="spacing" textLength="141" x="468.5" y="236.7988">int[] altKeyboardInputs</text><rect fill="none" height="6" style="stroke:#C82930;stroke-width:1.0;" width="6" x="456.5" y="247.1797"/><text fill="#000000" font-family="sans-serif" font-size="14" lengthAdjust="spacing" textLength="54" x="468.5" y="254.4082">int score</text><rect fill="none" height="6" style="stroke:#C82930;stroke-width:1.0;" width="6" x="456.5" y="264.7891"/><text fill="#000000" font-family="sans-serif" font-size="14" lengthAdjust="spacing" textLength="263" x="468.5" y="272.0176">ArrayList&lt;CollidableEntity&lt;Laser&gt;&gt; lasers</text><rect fill="none" height="6" style="stroke:#C82930;stroke-width:1.0;" width="6" x="456.5" y="282.3984"/><text fill="#000000" font-family="sans-serif" font-size="14" lengthAdjust="spacing" textLength="84" x="468.5" y="289.627">int maxHealth</text><rect fill="none" height="6" style="stroke:#C82930;stroke-width:1.0;" width="6" x="456.5" y="300.0078"/><text fill="#000000" font-family="sans-serif" font-size="14" lengthAdjust="spacing" textLength="104" x="468.5" y="307.2363">int currentHealth</text><rect fill="none" height="6" style="stroke:#C82930;stroke-width:1.0;" width="6" x="456.5" y="317.6172"/><text fill="#000000" font-family="sans-serif" font-size="14" lengthAdjust="spacing" textLength="90" x="468.5" y="324.8457">int aliensKilled</text><rect fill="none" height="6" style="stroke:#C82930;stroke-width:1.0;" width="6" x="456.5" y="335.2266"/><text fill="#000000" font-family="sans-serif" font-size="14" lengthAdjust="spacing" textLength="132" x="468.5" y="342.4551">Timestamp startTime</text><rect fill="none" height="6" style="stroke:#C82930;stroke-width:1.0;" width="6" x="456.5" y="352.8359"/><text fill="#000000" font-family="sans-serif" font-size="14" lengthAdjust="spacing" textLength="147" x="468.5" y="360.0645">Afterburner afterburner</text><line style="stroke:#181818;stroke-width:0.5;" x1="449.5" x2="930.5" y1="367.1406" y2="367.1406"/><ellipse cx="459.5" cy="381.4453" fill="#84BE84" rx="3" ry="3" style="stroke:#038048;stroke-width:1.0;"/><text fill="#000000" font-family="sans-serif" font-size="14" lengthAdjust="spacing" textLength="178" x="468.5" y="385.6738">Afterburner getAfterburner()</text><ellipse cx="459.5" cy="399.0547" fill="#84BE84" rx="3" ry="3" style="stroke:#038048;stroke-width:1.0;"/><text fill="#000000" font-family="sans-serif" font-size="14" lengthAdjust="spacing" textLength="203" x="468.5" y="403.2832">void setAfterburner(Afterburner)</text><ellipse cx="459.5" cy="416.6641" fill="#84BE84" rx="3" ry="3" style="stroke:#038048;stroke-width:1.0;"/><text fill="#000000" font-family="sans-serif" font-size="14" lengthAdjust="spacing" textLength="129" x="468.5" y="420.8926">String getImgName()</text><ellipse cx="459.5" cy="434.2734" fill="#84BE84" rx="3" ry="3" style="stroke:#038048;stroke-width:1.0;"/><text fill="#000000" font-family="sans-serif" font-size="14" lengthAdjust="spacing" textLength="154" x="468.5" y="438.502">void setImgName(String)</text><ellipse cx="459.5" cy="451.8828" fill="#84BE84" rx="3" ry="3" style="stroke:#038048;stroke-width:1.0;"/><text fill="#000000" font-family="sans-serif" font-size="14" lengthAdjust="spacing" textLength="108" x="468.5" y="456.1113">Sprite getSprite()</text><ellipse cx="459.5" cy="469.4922" fill="#84BE84" rx="3" ry="3" style="stroke:#038048;stroke-width:1.0;"/><text fill="#000000" font-family="sans-serif" font-size="14" lengthAdjust="spacing" textLength="133" x="468.5" y="473.7207">void setSprite(Sprite)</text><ellipse cx="459.5" cy="487.1016" fill="#84BE84" rx="3" ry="3" style="stroke:#038048;stroke-width:1.0;"/><text fill="#000000" font-family="sans-serif" font-size="14" lengthAdjust="spacing" textLength="97" x="468.5" y="491.3301">float getWidth()</text><ellipse cx="459.5" cy="504.7109" fill="#84BE84" rx="3" ry="3" style="stroke:#038048;stroke-width:1.0;"/><text fill="#000000" font-family="sans-serif" font-size="14" lengthAdjust="spacing" textLength="122" x="468.5" y="508.9395">void setWidth(float)</text><ellipse cx="459.5" cy="522.3203" fill="#84BE84" rx="3" ry="3" style="stroke:#038048;stroke-width:1.0;"/><text fill="#000000" font-family="sans-serif" font-size="14" lengthAdjust="spacing" textLength="101" x="468.5" y="526.5488">float getHeight()</text><ellipse cx="459.5" cy="539.9297" fill="#84BE84" rx="3" ry="3" style="stroke:#038048;stroke-width:1.0;"/><text fill="#000000" font-family="sans-serif" font-size="14" lengthAdjust="spacing" textLength="126" x="468.5" y="544.1582">void setHeight(float)</text><ellipse cx="459.5" cy="557.5391" fill="#84BE84" rx="3" ry="3" style="stroke:#038048;stroke-width:1.0;"/><text fill="#000000" font-family="sans-serif" font-size="14" lengthAdjust="spacing" textLength="102" x="468.5" y="561.7676">float getSpeed()</text><ellipse cx="459.5" cy="575.1484" fill="#84BE84" rx="3" ry="3" style="stroke:#038048;stroke-width:1.0;"/><text fill="#000000" font-family="sans-serif" font-size="14" lengthAdjust="spacing" textLength="127" x="468.5" y="579.377">void setSpeed(float)</text><ellipse cx="459.5" cy="592.7578" fill="#84BE84" rx="3" ry="3" style="stroke:#038048;stroke-width:1.0;"/><text fill="#000000" font-family="sans-serif" font-size="14" lengthAdjust="spacing" textLength="186" x="468.5" y="596.9863">int[] getMainKeyboardInputs()</text><ellipse cx="459.5" cy="610.3672" fill="#84BE84" rx="3" ry="3" style="stroke:#038048;stroke-width:1.0;"/><text fill="#000000" font-family="sans-serif" font-size="14" lengthAdjust="spacing" textLength="211" x="468.5" y="614.5957">void setMainKeyboardInputs(int[])</text><ellipse cx="459.5" cy="627.9766" fill="#84BE84" rx="3" ry="3" style="stroke:#038048;stroke-width:1.0;"/><text fill="#000000" font-family="sans-serif" font-size="14" lengthAdjust="spacing" textLength="172" x="468.5" y="632.2051">int[] getAltKeyboardInputs()</text><ellipse cx="459.5" cy="645.5859" fill="#84BE84" rx="3" ry="3" style="stroke:#038048;stroke-width:1.0;"/><text fill="#000000" font-family="sans-serif" font-size="14" lengthAdjust="spacing" textLength="197" x="468.5" y="649.8145">void setAltKeyboardInputs(int[])</text><ellipse cx="459.5" cy="663.1953" fill="#84BE84" rx="3" ry="3" style="stroke:#038048;stroke-width:1.0;"/><text fill="#000000" font-family="sans-serif" font-size="14" lengthAdjust="spacing" textLength="86" x="468.5" y="667.4238">int getScore()</text><ellipse cx="459.5" cy="680.8047" fill="#84BE84" rx="3" ry="3" style="stroke:#038048;stroke-width:1.0;"/><text fill="#000000" font-family="sans-serif" font-size="14" lengthAdjust="spacing" textLength="111" x="468.5" y="685.0332">void setScore(int)</text><ellipse cx="459.5" cy="698.4141" fill="#84BE84" rx="3" ry="3" style="stroke:#038048;stroke-width:1.0;"/><text fill="#000000" font-family="sans-serif" font-size="14" lengthAdjust="spacing" textLength="298" x="468.5" y="702.6426">ArrayList&lt;CollidableEntity&lt;Laser&gt;&gt; getLasers()</text><ellipse cx="459.5" cy="716.0234" fill="#84BE84" rx="3" ry="3" style="stroke:#038048;stroke-width:1.0;"/><text fill="#000000" font-family="sans-serif" font-size="14" lengthAdjust="spacing" textLength="323" x="468.5" y="720.252">void setLasers(ArrayList&lt;CollidableEntity&lt;Laser&gt;&gt;)</text><ellipse cx="459.5" cy="733.6328" fill="#84BE84" rx="3" ry="3" style="stroke:#038048;stroke-width:1.0;"/><text fill="#000000" font-family="sans-serif" font-size="14" lengthAdjust="spacing" textLength="114" x="468.5" y="737.8613">int getMaxHealth()</text><ellipse cx="459.5" cy="751.2422" fill="#84BE84" rx="3" ry="3" style="stroke:#038048;stroke-width:1.0;"/><text fill="#000000" font-family="sans-serif" font-size="14" lengthAdjust="spacing" textLength="139" x="468.5" y="755.4707">void setMaxHealth(int)</text><ellipse cx="459.5" cy="768.8516" fill="#84BE84" rx="3" ry="3" style="stroke:#038048;stroke-width:1.0;"/><text fill="#000000" font-family="sans-serif" font-size="14" lengthAdjust="spacing" textLength="137" x="468.5" y="773.0801">int getCurrentHealth()</text><ellipse cx="459.5" cy="786.4609" fill="#84BE84" rx="3" ry="3" style="stroke:#038048;stroke-width:1.0;"/><text fill="#000000" font-family="sans-serif" font-size="14" lengthAdjust="spacing" textLength="162" x="468.5" y="790.6895">void setCurrentHealth(int)</text><ellipse cx="459.5" cy="804.0703" fill="#84BE84" rx="3" ry="3" style="stroke:#038048;stroke-width:1.0;"/><text fill="#000000" font-family="sans-serif" font-size="14" lengthAdjust="spacing" textLength="164" x="468.5" y="808.2988">Timestamp getStartTime()</text><ellipse cx="459.5" cy="821.6797" fill="#84BE84" rx="3" ry="3" style="stroke:#038048;stroke-width:1.0;"/><text fill="#000000" font-family="sans-serif" font-size="14" lengthAdjust="spacing" textLength="189" x="468.5" y="825.9082">void setStartTime(Timestamp)</text><ellipse cx="459.5" cy="839.2891" fill="#84BE84" rx="3" ry="3" style="stroke:#038048;stroke-width:1.0;"/><text fill="#000000" font-family="sans-serif" font-size="14" lengthAdjust="spacing" textLength="418" x="468.5" y="843.5176">void limitPlayerMovement(CollidableEntity&lt;Player&gt;,Integer,Integer)</text><ellipse cx="459.5" cy="856.8984" fill="#84BE84" rx="3" ry="3" style="stroke:#038048;stroke-width:1.0;"/><text fill="#000000" font-family="sans-serif" font-size="14" lengthAdjust="spacing" textLength="403" x="468.5" y="861.127">int movePlayer(CollidableEntity&lt;Player&gt;,CustomInputProcessor)</text><ellipse cx="459.5" cy="874.5078" fill="#84BE84" rx="3" ry="3" style="stroke:#038048;stroke-width:1.0;"/><text fill="#000000" font-family="sans-serif" font-size="14" lengthAdjust="spacing" textLength="121" x="468.5" y="878.7363">int getAliensKilled()</text><ellipse cx="459.5" cy="892.1172" fill="#84BE84" rx="3" ry="3" style="stroke:#038048;stroke-width:1.0;"/><text fill="#000000" font-family="sans-serif" font-size="14" lengthAdjust="spacing" textLength="146" x="468.5" y="896.3457">void setAliensKilled(int)</text><ellipse cx="459.5" cy="909.7266" fill="#84BE84" rx="3" ry="3" style="stroke:#038048;stroke-width:1.0;"/><text fill="#000000" font-family="sans-serif" font-size="14" lengthAdjust="spacing" textLength="270" x="468.5" y="913.9551">void moveLasers(CollidableEntity&lt;Player&gt;)</text><ellipse cx="459.5" cy="927.3359" fill="#84BE84" rx="3" ry="3" style="stroke:#038048;stroke-width:1.0;"/><text fill="#000000" font-family="sans-serif" font-size="14" lengthAdjust="spacing" textLength="457" x="468.5" y="931.5645">void spawnLasers(CustomInputProcessor,CollidableEntity&lt;Player&gt;,Main)</text><ellipse cx="459.5" cy="944.9453" fill="#84BE84" rx="3" ry="3" style="stroke:#038048;stroke-width:1.0;"/><text fill="#000000" font-family="sans-serif" font-size="14" lengthAdjust="spacing" textLength="170" x="468.5" y="949.1738">void savePlayerData(Main)</text></g><!--MD5=[30c9d4ca4295a816de65d7762726da60]
class com.mygdx.game.game.components.game.player.Afterburner--><g id="elem_com.mygdx.game.game.components.game.player.Afterburner"><rect codeLine="112" fill="#F1F1F1" height="364.9688" id="com.mygdx.game.game.components.game.player.Afterburner" rx="2.5" ry="2.5" style="stroke:#181818;stroke-width:0.5;" width="194" x="593" y="1460.6094"/><ellipse cx="649.75" cy="1476.6094" fill="#ADD1B2" rx="11" ry="11" style="stroke:#181818;stroke-width:1.0;"/><path d="M651.75,1473.1094 Q651.9531,1472.6094 652.1875,1472.3594 Q652.4219,1472.1094 652.6875,1472.1094 Q653.1563,1472.1094 653.4531,1472.3906 Q653.75,1472.6719 653.75,1473.3281 L653.75,1474.8906 Q653.75,1475.5469 653.4688,1475.8281 Q653.1875,1476.1094 652.75,1476.1094 Q652.3594,1476.1094 652.1094,1475.9375 Q651.8594,1475.7656 651.75,1475.3125 Q651.7031,1475 651.5313,1474.8281 Q651.2188,1474.5 650.6563,1474.3125 Q650.0938,1474.1094 649.5313,1474.1094 Q648.8281,1474.1094 648.2344,1474.3906 Q647.6563,1474.6719 647.2031,1475.2969 Q646.75,1475.9219 646.75,1476.7813 L646.75,1477.7031 Q646.75,1478.7344 647.5938,1479.4219 Q648.4375,1480.1094 649.9375,1480.1094 Q650.8281,1480.1094 651.4531,1479.9063 Q651.8125,1479.7969 652.2188,1479.4375 Q652.4844,1479.2344 652.625,1479.1719 Q652.7656,1479.1094 652.9375,1479.1094 Q653.2656,1479.1094 653.5,1479.375 Q653.75,1479.625 653.75,1479.9844 Q653.75,1480.3281 653.4063,1480.7344 Q652.9063,1481.3281 652.1094,1481.6563 Q651.0625,1482.1094 649.7813,1482.1094 Q648.2813,1482.1094 647.0781,1481.5156 Q646.1094,1481.0469 645.4219,1480.0313 Q644.75,1479.0156 644.75,1477.8125 L644.75,1476.7188 Q644.75,1475.4688 645.3438,1474.375 Q645.9531,1473.2813 647,1472.7031 Q648.0625,1472.1094 649.25,1472.1094 Q649.9688,1472.1094 650.5938,1472.3594 Q651.2188,1472.6094 651.75,1473.1094 Z " fill="#000000"/><text fill="#000000" font-family="sans-serif" font-size="14" lengthAdjust="spacing" textLength="72" x="670.25" y="1482.3379">Afterburner</text><line style="stroke:#181818;stroke-width:0.5;" x1="594" x2="786" y1="1492.6094" y2="1492.6094"/><rect fill="none" height="6" style="stroke:#C82930;stroke-width:1.0;" width="6" x="601" y="1503.9141"/><text fill="#000000" font-family="sans-serif" font-size="14" lengthAdjust="spacing" textLength="92" x="613" y="1511.1426">String imgPath</text><rect fill="none" height="6" style="stroke:#C82930;stroke-width:1.0;" width="6" x="601" y="1521.5234"/><text fill="#000000" font-family="sans-serif" font-size="14" lengthAdjust="spacing" textLength="95" x="613" y="1528.752">Texture texture</text><rect fill="none" height="6" style="stroke:#C82930;stroke-width:1.0;" width="6" x="601" y="1539.1328"/><text fill="#000000" font-family="sans-serif" font-size="14" lengthAdjust="spacing" textLength="112" x="613" y="1546.3613">SpriteBatch batch</text><rect fill="none" height="6" style="stroke:#C82930;stroke-width:1.0;" width="6" x="601" y="1556.7422"/><text fill="#000000" font-family="sans-serif" font-size="14" lengthAdjust="spacing" textLength="37" x="613" y="1563.9707">float x</text><rect fill="none" height="6" style="stroke:#C82930;stroke-width:1.0;" width="6" x="601" y="1574.3516"/><text fill="#000000" font-family="sans-serif" font-size="14" lengthAdjust="spacing" textLength="38" x="613" y="1581.5801">float y</text><rect fill="none" height="6" style="stroke:#C82930;stroke-width:1.0;" width="6" x="601" y="1591.9609"/><text fill="#000000" font-family="sans-serif" font-size="14" lengthAdjust="spacing" textLength="103" x="613" y="1599.1895">boolean visibility</text><line style="stroke:#181818;stroke-width:0.5;" x1="594" x2="786" y1="1606.2656" y2="1606.2656"/><ellipse cx="604" cy="1620.5703" fill="#84BE84" rx="3" ry="3" style="stroke:#038048;stroke-width:1.0;"/><text fill="#000000" font-family="sans-serif" font-size="14" lengthAdjust="spacing" textLength="122" x="613" y="1624.7988">String getImgPath()</text><ellipse cx="604" cy="1638.1797" fill="#84BE84" rx="3" ry="3" style="stroke:#038048;stroke-width:1.0;"/><text fill="#000000" font-family="sans-serif" font-size="14" lengthAdjust="spacing" textLength="147" x="613" y="1642.4082">void setImgPath(String)</text><ellipse cx="604" cy="1655.7891" fill="#84BE84" rx="3" ry="3" style="stroke:#038048;stroke-width:1.0;"/><text fill="#000000" font-family="sans-serif" font-size="14" lengthAdjust="spacing" textLength="130" x="613" y="1660.0176">Texture getTexture()</text><ellipse cx="604" cy="1673.3984" fill="#84BE84" rx="3" ry="3" style="stroke:#038048;stroke-width:1.0;"/><text fill="#000000" font-family="sans-serif" font-size="14" lengthAdjust="spacing" textLength="155" x="613" y="1677.627">void setTexture(Texture)</text><ellipse cx="604" cy="1691.0078" fill="#84BE84" rx="3" ry="3" style="stroke:#038048;stroke-width:1.0;"/><text fill="#000000" font-family="sans-serif" font-size="14" lengthAdjust="spacing" textLength="143" x="613" y="1695.2363">SpriteBatch getBatch()</text><ellipse cx="604" cy="1708.6172" fill="#84BE84" rx="3" ry="3" style="stroke:#038048;stroke-width:1.0;"/><text fill="#000000" font-family="sans-serif" font-size="14" lengthAdjust="spacing" textLength="168" x="613" y="1712.8457">void setBatch(SpriteBatch)</text><ellipse cx="604" cy="1726.2266" fill="#84BE84" rx="3" ry="3" style="stroke:#038048;stroke-width:1.0;"/><text fill="#000000" font-family="sans-serif" font-size="14" lengthAdjust="spacing" textLength="69" x="613" y="1730.4551">float getX()</text><ellipse cx="604" cy="1743.8359" fill="#84BE84" rx="3" ry="3" style="stroke:#038048;stroke-width:1.0;"/><text fill="#000000" font-family="sans-serif" font-size="14" lengthAdjust="spacing" textLength="94" x="613" y="1748.0645">void setX(float)</text><ellipse cx="604" cy="1761.4453" fill="#84BE84" rx="3" ry="3" style="stroke:#038048;stroke-width:1.0;"/><text fill="#000000" font-family="sans-serif" font-size="14" lengthAdjust="spacing" textLength="70" x="613" y="1765.6738">float getY()</text><ellipse cx="604" cy="1779.0547" fill="#84BE84" rx="3" ry="3" style="stroke:#038048;stroke-width:1.0;"/><text fill="#000000" font-family="sans-serif" font-size="14" lengthAdjust="spacing" textLength="95" x="613" y="1783.2832">void setY(float)</text><ellipse cx="604" cy="1796.6641" fill="#84BE84" rx="3" ry="3" style="stroke:#038048;stroke-width:1.0;"/><text fill="#000000" font-family="sans-serif" font-size="14" lengthAdjust="spacing" textLength="135" x="613" y="1800.8926">boolean getVisibility()</text><ellipse cx="604" cy="1814.2734" fill="#84BE84" rx="3" ry="3" style="stroke:#038048;stroke-width:1.0;"/><text fill="#000000" font-family="sans-serif" font-size="14" lengthAdjust="spacing" textLength="160" x="613" y="1818.502">void setVisibility(boolean)</text></g><!--MD5=[95fd6c841c6d8a7811b9dd28d8ffd961]
reverse link com.mygdx.game.game.components.game.enemy.UFO to com.mygdx.game.game.components.game.Laser--><g id="link_com.mygdx.game.game.components.game.enemy.UFO_com.mygdx.game.game.components.game.Laser"><path codeLine="133" d="M203.67,767.3394 C203.67,767.3394 203.67,1460.4594 203.67,1460.4594 " fill="none" id="com.mygdx.game.game.components.game.enemy.UFO-backto-com.mygdx.game.game.components.game.Laser" style="stroke:#181818;stroke-width:1.0;"/><polygon fill="#181818" points="203.67,754.3394,199.67,760.3394,203.67,766.3394,207.67,760.3394,203.67,754.3394" style="stroke:#181818;stroke-width:1.0;"/><text fill="#000000" font-family="sans-serif" font-size="13" lengthAdjust="spacing" textLength="57" x="145.67" y="1110.3945">has many</text></g><!--MD5=[9f4c6298d21907bf0c5a70d6c3378747]
reverse link com.mygdx.game.game.components.game.player.Player to com.mygdx.game.game.components.game.Laser--><g id="link_com.mygdx.game.game.components.game.player.Player_com.mygdx.game.game.components.game.Laser"><path codeLine="135" d="M435.38,855.6094 C435.38,855.6094 268.33,855.6094 268.33,855.6094 C268.33,855.6094 268.33,1227.8294 268.33,1460.4594 " fill="none" id="com.mygdx.game.game.components.game.player.Player-backto-com.mygdx.game.game.components.game.Laser" style="stroke:#181818;stroke-width:1.0;"/><polygon fill="#181818" points="448.38,855.6094,442.38,851.6094,436.38,855.6094,442.38,859.6094,448.38,855.6094" style="stroke:#181818;stroke-width:1.0;"/><text fill="#000000" font-family="sans-serif" font-size="13" lengthAdjust="spacing" textLength="57" x="210.33" y="1071.0045">has many</text></g><!--MD5=[e2c83c81c43ee741e66fc9cff99a436a]
reverse link com.mygdx.game.game.components.game.player.Player to com.mygdx.game.game.components.game.player.Afterburner--><g id="link_com.mygdx.game.game.components.game.player.Player_com.mygdx.game.game.components.game.player.Afterburner"><path codeLine="136" d="M690,969.9894 C690,969.9894 690,1460.2694 690,1460.2694 " fill="none" id="com.mygdx.game.game.components.game.player.Player-backto-com.mygdx.game.game.components.game.player.Afterburner" style="stroke:#181818;stroke-width:1.0;"/><polygon fill="#181818" points="690,956.9894,686,962.9894,690,968.9894,694,962.9894,690,956.9894" style="stroke:#181818;stroke-width:1.0;"/><text fill="#000000" font-family="sans-serif" font-size="13" lengthAdjust="spacing" textLength="21" x="668" y="1211.6245">has</text></g><!--MD5=[007f31b99ebfdebb2b564c412dd490ba]
@startuml
skinparam linetype polyline
skinparam linetype ortho

skinparam nodesep 100
skinparam ranksep 100

skinparam titleBorderRoundCorner 15
skinparam titleBorderThickness 2
skinparam titleBorderColor red
skinparam titleBackgroundColor Aqua-CadetBlue

title UFO / Player Class Composition Relations

class com.mygdx.game.game.components.game.enemy.UFO {
- String imgPath
- String dir
- float speed
- Texture texture
- ArrayList<CollidableEntity<Laser>> lasers
- Rectangle rectangle
- int health
- long lastShotTime
- long shotDelay
+ float getSpeed()
+ void setSpeed(float)
+ Texture getTexture()
+ void setTexture(Texture)
+ int getHealth()
+ void setHealth(int)
+ void moveUFO(CollidableEntity,int,int)
+ void moveLeft(CollidableEntity)
+ void moveRight(CollidableEntity)
+ void moveDown(CollidableEntity)
+ long fireWeapon(CollidableEntity,Main)
+ void dropAsteroid(CollidableEntity<Asteroid>)
+ void dropPlanet(CollidableEntity<Planet>)
+ void moveLasers(CollidableEntity<UFO>)
+ ArrayList<CollidableEntity<Laser>> getLasers()
}

class com.mygdx.game.game.components.game.Laser {
- String imgName
- Sprite sprite
- float width
- float height
- float speed
- SpriteBatch batch
+ SpriteBatch getBatch()
+ void setBatch(SpriteBatch)
+ String getImgName()
+ void setImgName(String)
+ Sprite getSprite()
+ void setSprite(Sprite)
+ float getWidth()
+ void setWidth(float)
+ float getHeight()
+ void setHeight(float)
+ float getSpeed()
+ void setSpeed(float)
}

class com.mygdx.game.game.components.game.player.Player {
- String imgName
- Sprite sprite
- float width
- float height
- float speed
- int[] mainKeyboardInputs
- int[] altKeyboardInputs
- int score
- ArrayList<CollidableEntity<Laser>> lasers
- int maxHealth
- int currentHealth
- int aliensKilled
- Timestamp startTime
- Afterburner afterburner
+ Afterburner getAfterburner()
+ void setAfterburner(Afterburner)
+ String getImgName()
+ void setImgName(String)
+ Sprite getSprite()
+ void setSprite(Sprite)
+ float getWidth()
+ void setWidth(float)
+ float getHeight()
+ void setHeight(float)
+ float getSpeed()
+ void setSpeed(float)
+ int[] getMainKeyboardInputs()
+ void setMainKeyboardInputs(int[])
+ int[] getAltKeyboardInputs()
+ void setAltKeyboardInputs(int[])
+ int getScore()
+ void setScore(int)
+ ArrayList<CollidableEntity<Laser>> getLasers()
+ void setLasers(ArrayList<CollidableEntity<Laser>>)
+ int getMaxHealth()
+ void setMaxHealth(int)
+ int getCurrentHealth()
+ void setCurrentHealth(int)
+ Timestamp getStartTime()
+ void setStartTime(Timestamp)
+ void limitPlayerMovement(CollidableEntity<Player>,Integer,Integer)
+ int movePlayer(CollidableEntity<Player>,CustomInputProcessor)
+ int getAliensKilled()
+ void setAliensKilled(int)
+ void moveLasers(CollidableEntity<Player>)
+ void spawnLasers(CustomInputProcessor,CollidableEntity<Player>,Main)
+ void savePlayerData(Main)
}

class com.mygdx.game.game.components.game.player.Afterburner {
- String imgPath
- Texture texture
- SpriteBatch batch
- float x
- float y
- boolean visibility
+ String getImgPath()
+ void setImgPath(String)
+ Texture getTexture()
+ void setTexture(Texture)
+ SpriteBatch getBatch()
+ void setBatch(SpriteBatch)
+ float getX()
+ void setX(float)
+ float getY()
+ void setY(float)
+ boolean getVisibility()
+ void setVisibility(boolean)
}

com.mygdx.game.game.components.game.enemy.UFO *- - - - - - com.mygdx.game.game.components.game.Laser :has many

com.mygdx.game.game.components.game.player.Player *- - - - - - com.mygdx.game.game.components.game.Laser :has many
com.mygdx.game.game.components.game.player.Player *- - - - - - com.mygdx.game.game.components.game.player.Afterburner :has
@enduml

PlantUML version 1.2022.12(Mon Oct 24 02:12:26 SGT 2022)
(GPL source distribution)
Java Runtime: OpenJDK Runtime Environment
JVM: OpenJDK 64-Bit Server VM
Default Encoding: Cp1252
Language: en
Country: SG
--></g></svg>